G04 Layer_Color=65535*
%FSAX44Y44*%
%MOMM*%
G71*
G01*
G75*
%ADD31C,0.2540*%
%ADD38C,0.2500*%
%ADD39C,0.1524*%
%ADD40C,0.2000*%
%ADD41C,0.2032*%
%ADD42C,0.0762*%
G36*
X00732883Y00790595D02*
X00730343D01*
Y00794405D01*
X00732883D01*
Y00790595D01*
D02*
G37*
G36*
X00829657Y00755595D02*
X00827117D01*
Y00759405D01*
X00829657D01*
Y00755595D01*
D02*
G37*
G36*
Y00805595D02*
X00827117D01*
Y00809405D01*
X00829657D01*
Y00805595D01*
D02*
G37*
G36*
Y00855595D02*
X00827117D01*
Y00859405D01*
X00829657D01*
Y00855595D01*
D02*
G37*
G36*
X00732883Y00840595D02*
X00730343D01*
Y00844405D01*
X00732883D01*
Y00840595D01*
D02*
G37*
D31*
X00993184Y00827959D02*
G03*
X01026759Y00827936I00016816J00042042D01*
G01*
X01052394Y00854102D02*
G03*
X01052394Y00885898I-00042394J00015898D01*
G01*
X01026255Y00912262D02*
G03*
X00993969Y00912347I-00016255J-00042262D01*
G01*
X00967603Y00885899D02*
G03*
X00967652Y00853972I00042397J-00015899D01*
G01*
X00959200Y00761120D02*
Y00808880D01*
X01053620D02*
X01063250Y00799250D01*
X01055750Y00761000D02*
X01063250Y00768500D01*
Y00799250D01*
X00959200Y00760940D02*
X01055720Y00760870D01*
X00959200Y00808876D02*
X01053688D01*
X00906120Y00790800D02*
X00953880D01*
X00944250Y00686750D02*
X00953880Y00696380D01*
X00906000Y00694250D02*
X00913500Y00686750D01*
X00944250D01*
X00905870Y00694280D02*
X00905940Y00790800D01*
X00953876Y00696312D02*
Y00790800D01*
X00960000Y00755235D02*
Y00742539D01*
X00962539Y00740000D01*
X00967617D01*
X00970157Y00742539D01*
Y00755235D01*
X00975235Y00752696D02*
X00977774Y00755235D01*
X00982853D01*
X00985392Y00752696D01*
Y00750157D01*
X00982853Y00747617D01*
X00980313D01*
X00982853D01*
X00985392Y00745078D01*
Y00742539D01*
X00982853Y00740000D01*
X00977774D01*
X00975235Y00742539D01*
X00746000Y00911235D02*
Y00898539D01*
X00748539Y00896000D01*
X00753617D01*
X00756157Y00898539D01*
Y00911235D01*
X00771392Y00896000D02*
X00761235D01*
X00771392Y00906157D01*
Y00908696D01*
X00768853Y00911235D01*
X00763774D01*
X00761235Y00908696D01*
X01065235Y00640000D02*
X01052539D01*
X01050000Y00637461D01*
Y00632383D01*
X01052539Y00629843D01*
X01065235D01*
X01050000Y00624765D02*
Y00619687D01*
Y00622226D01*
X01065235D01*
X01062696Y00624765D01*
X00735000Y00700000D02*
Y00707618D01*
X00738809D01*
X00740078Y00706348D01*
Y00703809D01*
X00738809Y00702539D01*
X00735000D01*
X00737539D02*
X00740078Y00700000D01*
X00747696D02*
X00742617D01*
X00747696Y00705078D01*
Y00706348D01*
X00746426Y00707618D01*
X00743887D01*
X00742617Y00706348D01*
X00755313Y00707618D02*
X00752774Y00706348D01*
X00750235Y00703809D01*
Y00701270D01*
X00751505Y00700000D01*
X00754044D01*
X00755313Y00701270D01*
Y00702539D01*
X00754044Y00703809D01*
X00750235D01*
X00710000Y00700000D02*
Y00707617D01*
X00713809D01*
X00715078Y00706348D01*
Y00703809D01*
X00713809Y00702539D01*
X00710000D01*
X00712539D02*
X00715078Y00700000D01*
X00722696D02*
X00717617D01*
X00722696Y00705078D01*
Y00706348D01*
X00721426Y00707617D01*
X00718887D01*
X00717617Y00706348D01*
X00730313Y00707617D02*
X00725235D01*
Y00703809D01*
X00727774Y00705078D01*
X00729044D01*
X00730313Y00703809D01*
Y00701270D01*
X00729044Y00700000D01*
X00726505D01*
X00725235Y00701270D01*
X00685000Y00700000D02*
Y00707617D01*
X00688809D01*
X00690078Y00706348D01*
Y00703809D01*
X00688809Y00702539D01*
X00685000D01*
X00687539D02*
X00690078Y00700000D01*
X00697696D02*
X00692617D01*
X00697696Y00705078D01*
Y00706348D01*
X00696426Y00707617D01*
X00693887D01*
X00692617Y00706348D01*
X00704044Y00700000D02*
Y00707617D01*
X00700235Y00703809D01*
X00705313D01*
X00660000Y00700000D02*
Y00707617D01*
X00663809D01*
X00665078Y00706348D01*
Y00703809D01*
X00663809Y00702539D01*
X00660000D01*
X00662539D02*
X00665078Y00700000D01*
X00672696D02*
X00667617D01*
X00672696Y00705078D01*
Y00706348D01*
X00671426Y00707617D01*
X00668887D01*
X00667617Y00706348D01*
X00675235D02*
X00676505Y00707617D01*
X00679044D01*
X00680313Y00706348D01*
Y00705078D01*
X00679044Y00703809D01*
X00677774D01*
X00679044D01*
X00680313Y00702539D01*
Y00701270D01*
X00679044Y00700000D01*
X00676505D01*
X00675235Y00701270D01*
X00685000Y00630000D02*
Y00640157D01*
X00690078D01*
X00691771Y00638464D01*
Y00635078D01*
X00690078Y00633386D01*
X00685000D01*
X00688386D02*
X00691771Y00630000D01*
X00701928D02*
X00695157D01*
X00701928Y00636771D01*
Y00638464D01*
X00700235Y00640157D01*
X00696850D01*
X00695157Y00638464D01*
X00712085Y00630000D02*
X00705313D01*
X00712085Y00636771D01*
Y00638464D01*
X00710392Y00640157D01*
X00707006D01*
X00705313Y00638464D01*
X00685000Y00650000D02*
Y00660157D01*
X00690078D01*
X00691771Y00658464D01*
Y00655078D01*
X00690078Y00653386D01*
X00685000D01*
X00688386D02*
X00691771Y00650000D01*
X00701928D02*
X00695157D01*
X00701928Y00656771D01*
Y00658464D01*
X00700235Y00660157D01*
X00696850D01*
X00695157Y00658464D01*
X00705313Y00650000D02*
X00708699D01*
X00707006D01*
Y00660157D01*
X00705313Y00658464D01*
X01055000Y01155000D02*
X01067696D01*
Y01148652D01*
X01065580Y01146536D01*
X01061348D01*
X01059232Y01148652D01*
Y01155000D01*
Y01150768D02*
X01055000Y01146536D01*
Y01142304D02*
Y01138072D01*
Y01140188D01*
X01067696D01*
X01065580Y01142304D01*
X01057116Y01131724D02*
X01055000Y01129608D01*
Y01125376D01*
X01057116Y01123260D01*
X01065580D01*
X01067696Y01125376D01*
Y01129608D01*
X01065580Y01131724D01*
X01063464D01*
X01061348Y01129608D01*
Y01123260D01*
X00905000Y01105000D02*
Y01117696D01*
X00911348D01*
X00913464Y01115580D01*
Y01111348D01*
X00911348Y01109232D01*
X00905000D01*
X00909232D02*
X00913464Y01105000D01*
X00917696D02*
X00921928D01*
X00919812D01*
Y01117696D01*
X00917696Y01115580D01*
X00928276Y01117696D02*
X00936740D01*
Y01115580D01*
X00928276Y01107116D01*
Y01105000D01*
X00755000D02*
Y01117696D01*
X00761348D01*
X00763464Y01115580D01*
Y01111348D01*
X00761348Y01109232D01*
X00755000D01*
X00759232D02*
X00763464Y01105000D01*
X00767696D02*
X00771928D01*
X00769812D01*
Y01117696D01*
X00767696Y01115580D01*
X00786740Y01117696D02*
X00778276D01*
Y01111348D01*
X00782508Y01113464D01*
X00784624D01*
X00786740Y01111348D01*
Y01107116D01*
X00784624Y01105000D01*
X00780392D01*
X00778276Y01107116D01*
X00680000Y00736000D02*
X00690157D01*
Y00730922D01*
X00688464Y00729229D01*
X00685078D01*
X00683386Y00730922D01*
Y00736000D01*
Y00732614D02*
X00680000Y00729229D01*
Y00725843D02*
Y00722458D01*
Y00724150D01*
X00690157D01*
X00688464Y00725843D01*
X00680000Y00712301D02*
X00690157D01*
X00685078Y00717379D01*
Y00710608D01*
X00680000Y00770000D02*
X00690157D01*
Y00764922D01*
X00688464Y00763229D01*
X00685078D01*
X00683386Y00764922D01*
Y00770000D01*
Y00766614D02*
X00680000Y00763229D01*
Y00759843D02*
Y00756458D01*
Y00758150D01*
X00690157D01*
X00688464Y00759843D01*
Y00751379D02*
X00690157Y00749687D01*
Y00746301D01*
X00688464Y00744608D01*
X00686771D01*
X00685078Y00746301D01*
Y00747994D01*
Y00746301D01*
X00683386Y00744608D01*
X00681693D01*
X00680000Y00746301D01*
Y00749687D01*
X00681693Y00751379D01*
X00690000Y00854300D02*
Y00864457D01*
X00695078D01*
X00696771Y00862764D01*
Y00859378D01*
X00695078Y00857686D01*
X00690000D01*
X00693386D02*
X00696771Y00854300D01*
X00700157D02*
X00703542D01*
X00701850D01*
Y00864457D01*
X00700157Y00862764D01*
X00715392Y00854300D02*
X00708621D01*
X00715392Y00861071D01*
Y00862764D01*
X00713699Y00864457D01*
X00710313D01*
X00708621Y00862764D01*
X00660000Y00850000D02*
Y00860157D01*
X00665078D01*
X00666771Y00858464D01*
Y00855078D01*
X00665078Y00853386D01*
X00660000D01*
X00663386D02*
X00666771Y00850000D01*
X00670157D02*
X00673542D01*
X00671850D01*
Y00860157D01*
X00670157Y00858464D01*
X00678621Y00850000D02*
X00682006D01*
X00680313D01*
Y00860157D01*
X00678621Y00858464D01*
X00736000Y00936000D02*
Y00946157D01*
X00741078D01*
X00742771Y00944464D01*
Y00941078D01*
X00741078Y00939386D01*
X00736000D01*
X00739386D02*
X00742771Y00936000D01*
X00746157D02*
X00749542D01*
X00747850D01*
Y00946157D01*
X00746157Y00944464D01*
X00754621D02*
X00756313Y00946157D01*
X00759699D01*
X00761392Y00944464D01*
Y00937693D01*
X00759699Y00936000D01*
X00756313D01*
X00754621Y00937693D01*
Y00944464D01*
X00720000Y00905000D02*
X00730157D01*
Y00899922D01*
X00728464Y00898229D01*
X00725078D01*
X00723386Y00899922D01*
Y00905000D01*
Y00901614D02*
X00720000Y00898229D01*
X00721693Y00894843D02*
X00720000Y00893150D01*
Y00889765D01*
X00721693Y00888072D01*
X00728464D01*
X00730157Y00889765D01*
Y00893150D01*
X00728464Y00894843D01*
X00726771D01*
X00725078Y00893150D01*
Y00888072D01*
X00665000Y00880000D02*
Y00890157D01*
X00670078D01*
X00671771Y00888464D01*
Y00885078D01*
X00670078Y00883386D01*
X00665000D01*
X00668386D02*
X00671771Y00880000D01*
X00675157Y00888464D02*
X00676850Y00890157D01*
X00680235D01*
X00681928Y00888464D01*
Y00886771D01*
X00680235Y00885078D01*
X00681928Y00883386D01*
Y00881693D01*
X00680235Y00880000D01*
X00676850D01*
X00675157Y00881693D01*
Y00883386D01*
X00676850Y00885078D01*
X00675157Y00886771D01*
Y00888464D01*
X00676850Y00885078D02*
X00680235D01*
X00890000Y00820000D02*
Y00832696D01*
X00896348D01*
X00898464Y00830580D01*
Y00826348D01*
X00896348Y00824232D01*
X00890000D01*
X00894232D02*
X00898464Y00820000D01*
X00902696D02*
X00906928D01*
X00904812D01*
Y00832696D01*
X00902696Y00830580D01*
X01025993Y01140849D02*
Y01151006D01*
X01023454Y01153545D01*
X01018375D01*
X01015836Y01151006D01*
Y01140849D01*
X01018375Y01138310D01*
X01023454D01*
X01020914Y01143388D02*
X01025993Y01138310D01*
X01023454D02*
X01025993Y01140849D01*
X01041228Y01153545D02*
X01031071D01*
Y01145928D01*
X01036149Y01148467D01*
X01038689D01*
X01041228Y01145928D01*
Y01140849D01*
X01038689Y01138310D01*
X01033610D01*
X01031071Y01140849D01*
X00875879Y01140849D02*
Y01151006D01*
X00873339Y01153545D01*
X00868261D01*
X00865722Y01151006D01*
Y01140849D01*
X00868261Y01138310D01*
X00873339D01*
X00870800Y01143388D02*
X00875879Y01138310D01*
X00873339D02*
X00875879Y01140849D01*
X00880957Y01151006D02*
X00883496Y01153545D01*
X00888575D01*
X00891114Y01151006D01*
Y01148467D01*
X00888575Y01145928D01*
X00886035D01*
X00888575D01*
X00891114Y01143388D01*
Y01140849D01*
X00888575Y01138310D01*
X00883496D01*
X00880957Y01140849D01*
X00726019D02*
Y01151006D01*
X00723480Y01153545D01*
X00718401D01*
X00715862Y01151006D01*
Y01140849D01*
X00718401Y01138310D01*
X00723480D01*
X00720940Y01143388D02*
X00726019Y01138310D01*
X00723480D02*
X00726019Y01140849D01*
X00731097Y01138310D02*
X00736175D01*
X00733636D01*
Y01153545D01*
X00731097Y01151006D01*
X00965000Y00930235D02*
Y00915000D01*
X00975157D01*
X00980235D02*
X00985313D01*
X00982774D01*
Y00930235D01*
X00980235Y00927696D01*
X00615157Y00945235D02*
X00610078D01*
X00612617D01*
Y00932539D01*
X00610078Y00930000D01*
X00607539D01*
X00605000Y00932539D01*
X00620235Y00930000D02*
Y00945235D01*
X00627853D01*
X00630392Y00942696D01*
Y00937617D01*
X00627853Y00935078D01*
X00620235D01*
X00635470Y00942696D02*
X00638009Y00945235D01*
X00643088D01*
X00645627Y00942696D01*
Y00940157D01*
X00643088Y00937617D01*
X00640548D01*
X00643088D01*
X00645627Y00935078D01*
Y00932539D01*
X00643088Y00930000D01*
X00638009D01*
X00635470Y00932539D01*
X00615157Y00820235D02*
X00610078D01*
X00612617D01*
Y00807539D01*
X00610078Y00805000D01*
X00607539D01*
X00605000Y00807539D01*
X00620235Y00805000D02*
Y00820235D01*
X00627853D01*
X00630392Y00817696D01*
Y00812617D01*
X00627853Y00810078D01*
X00620235D01*
X00645627Y00805000D02*
X00635470D01*
X00645627Y00815157D01*
Y00817696D01*
X00643088Y00820235D01*
X00638009D01*
X00635470Y00817696D01*
X00615157Y00635235D02*
X00610078D01*
X00612617D01*
Y00622539D01*
X00610078Y00620000D01*
X00607539D01*
X00605000Y00622539D01*
X00620235Y00620000D02*
Y00635235D01*
X00627853D01*
X00630392Y00632696D01*
Y00627617D01*
X00627853Y00625078D01*
X00620235D01*
X00635470Y00620000D02*
X00640548D01*
X00638009D01*
Y00635235D01*
X00635470Y00632696D01*
X00860540Y00947775D02*
Y00932540D01*
X00868158D01*
X00870697Y00935079D01*
Y00945236D01*
X00868158Y00947775D01*
X00860540D01*
X00885932Y00932540D02*
X00875775D01*
X00885932Y00942697D01*
Y00945236D01*
X00883393Y00947775D01*
X00878314D01*
X00875775Y00945236D01*
X00931000Y00921235D02*
Y00906000D01*
X00938617D01*
X00941157Y00908539D01*
Y00918696D01*
X00938617Y00921235D01*
X00931000D01*
X00946235Y00906000D02*
X00951313D01*
X00948774D01*
Y00921235D01*
X00946235Y00918696D01*
X00691771Y00618464D02*
X00690078Y00620157D01*
X00686693D01*
X00685000Y00618464D01*
Y00611693D01*
X00686693Y00610000D01*
X00690078D01*
X00691771Y00611693D01*
X00695157Y00618464D02*
X00696850Y00620157D01*
X00700235D01*
X00701928Y00618464D01*
Y00616771D01*
X00700235Y00615078D01*
X00698542D01*
X00700235D01*
X00701928Y00613386D01*
Y00611693D01*
X00700235Y00610000D01*
X00696850D01*
X00695157Y00611693D01*
X00705313Y00618464D02*
X00707006Y00620157D01*
X00710392D01*
X00712085Y00618464D01*
Y00616771D01*
X00710392Y00615078D01*
X00708699D01*
X00710392D01*
X00712085Y00613386D01*
Y00611693D01*
X00710392Y00610000D01*
X00707006D01*
X00705313Y00611693D01*
X00971771Y00823464D02*
X00970078Y00825157D01*
X00966693D01*
X00965000Y00823464D01*
Y00816693D01*
X00966693Y00815000D01*
X00970078D01*
X00971771Y00816693D01*
X00981928Y00815000D02*
X00975157D01*
X00981928Y00821771D01*
Y00823464D01*
X00980235Y00825157D01*
X00976850D01*
X00975157Y00823464D01*
X00985313Y00815000D02*
X00988699D01*
X00987006D01*
Y00825157D01*
X00985313Y00823464D01*
X00883511Y00703288D02*
X00885192Y00704993D01*
X00885168Y00708379D01*
X00883464Y00710060D01*
X00876693Y00710012D01*
X00875012Y00708307D01*
X00875036Y00704922D01*
X00876740Y00703241D01*
X00875119Y00693073D02*
X00875071Y00699844D01*
X00881890Y00693120D01*
X00883583Y00693132D01*
X00885264Y00694837D01*
X00885240Y00698222D01*
X00883535Y00699903D01*
X00883606Y00689746D02*
X00885311Y00688066D01*
X00885335Y00684680D01*
X00883654Y00682975D01*
X00876883Y00682928D01*
X00875178Y00684609D01*
X00875155Y00687994D01*
X00876835Y00689699D01*
X00883606Y00689746D01*
X00701771Y00743464D02*
X00700078Y00745157D01*
X00696693D01*
X00695000Y00743464D01*
Y00736693D01*
X00696693Y00735000D01*
X00700078D01*
X00701771Y00736693D01*
X00705157Y00735000D02*
X00708542D01*
X00706850D01*
Y00745157D01*
X00705157Y00743464D01*
X00713621Y00736693D02*
X00715313Y00735000D01*
X00718699D01*
X00720392Y00736693D01*
Y00743464D01*
X00718699Y00745157D01*
X00715313D01*
X00713621Y00743464D01*
Y00741771D01*
X00715313Y00740078D01*
X00720392D01*
X00701771Y00773464D02*
X00700078Y00775157D01*
X00696693D01*
X00695000Y00773464D01*
Y00766693D01*
X00696693Y00765000D01*
X00700078D01*
X00701771Y00766693D01*
X00705157Y00765000D02*
X00708542D01*
X00706850D01*
Y00775157D01*
X00705157Y00773464D01*
X00713621D02*
X00715313Y00775157D01*
X00718699D01*
X00720392Y00773464D01*
Y00771771D01*
X00718699Y00770078D01*
X00720392Y00768386D01*
Y00766693D01*
X00718699Y00765000D01*
X00715313D01*
X00713621Y00766693D01*
Y00768386D01*
X00715313Y00770078D01*
X00713621Y00771771D01*
Y00773464D01*
X00715313Y00770078D02*
X00718699D01*
X00701771Y00803464D02*
X00700078Y00805157D01*
X00696693D01*
X00695000Y00803464D01*
Y00796693D01*
X00696693Y00795000D01*
X00700078D01*
X00701771Y00796693D01*
X00705157Y00795000D02*
X00708542D01*
X00706850D01*
Y00805157D01*
X00705157Y00803464D01*
X00713621Y00805157D02*
X00720392D01*
Y00803464D01*
X00713621Y00796693D01*
Y00795000D01*
X00701771Y00833464D02*
X00700078Y00835157D01*
X00696693D01*
X00695000Y00833464D01*
Y00826693D01*
X00696693Y00825000D01*
X00700078D01*
X00701771Y00826693D01*
X00705157Y00825000D02*
X00708542D01*
X00706850D01*
Y00835157D01*
X00705157Y00833464D01*
X00720392Y00835157D02*
X00717006Y00833464D01*
X00713621Y00830078D01*
Y00826693D01*
X00715313Y00825000D01*
X00718699D01*
X00720392Y00826693D01*
Y00828386D01*
X00718699Y00830078D01*
X00713621D01*
X00666771Y00818464D02*
X00665078Y00820157D01*
X00661693D01*
X00660000Y00818464D01*
Y00811693D01*
X00661693Y00810000D01*
X00665078D01*
X00666771Y00811693D01*
X00670157Y00810000D02*
X00673542Y00810000D01*
X00671850Y00810000D01*
Y00820157D01*
X00670157Y00818464D01*
X00685392Y00820157D02*
X00678621D01*
Y00815078D01*
X00682006Y00816771D01*
X00683699D01*
X00685392Y00815078D01*
Y00811693D01*
X00683699Y00810000D01*
X00680313D01*
X00678621Y00811693D01*
X00696771Y00938464D02*
X00695078Y00940157D01*
X00691693D01*
X00690000Y00938464D01*
Y00931693D01*
X00691693Y00930000D01*
X00695078D01*
X00696771Y00931693D01*
X00700157Y00930000D02*
X00703542D01*
X00701850D01*
Y00940157D01*
X00700157Y00938464D01*
X00713699Y00930000D02*
Y00940157D01*
X00708621Y00935078D01*
X00715392D01*
X00661771Y00938464D02*
X00660078Y00940157D01*
X00656693D01*
X00655000Y00938464D01*
Y00931693D01*
X00656693Y00930000D01*
X00660078D01*
X00661771Y00931693D01*
X00665157Y00930000D02*
X00668542D01*
X00666850D01*
Y00940157D01*
X00665157Y00938464D01*
X00673621D02*
X00675313Y00940157D01*
X00678699D01*
X00680392Y00938464D01*
Y00936771D01*
X00678699Y00935078D01*
X00677006D01*
X00678699D01*
X00680392Y00933386D01*
Y00931693D01*
X00678699Y00930000D01*
X00675313D01*
X00673621Y00931693D01*
X00840771Y00910464D02*
X00839078Y00912157D01*
X00835693D01*
X00834000Y00910464D01*
Y00903693D01*
X00835693Y00902000D01*
X00839078D01*
X00840771Y00903693D01*
X00844157Y00902000D02*
X00847542D01*
X00845850D01*
Y00912157D01*
X00844157Y00910464D01*
X00859392Y00902000D02*
X00852621D01*
X00859392Y00908771D01*
Y00910464D01*
X00857699Y00912157D01*
X00854314D01*
X00852621Y00910464D01*
X00771771Y00743464D02*
X00770078Y00745157D01*
X00766693D01*
X00765000Y00743464D01*
Y00736693D01*
X00766693Y00735000D01*
X00770078D01*
X00771771Y00736693D01*
X00775157Y00735000D02*
X00778542D01*
X00776850D01*
Y00745157D01*
X00775157Y00743464D01*
X00783621Y00735000D02*
X00787006D01*
X00785313D01*
Y00745157D01*
X00783621Y00743464D01*
X00801771D02*
X00800078Y00745157D01*
X00796693D01*
X00795000Y00743464D01*
Y00736693D01*
X00796693Y00735000D01*
X00800078D01*
X00801771Y00736693D01*
X00805157Y00735000D02*
X00808542D01*
X00806850D01*
Y00745157D01*
X00805157Y00743464D01*
X00813621D02*
X00815313Y00745157D01*
X00818699D01*
X00820392Y00743464D01*
Y00736693D01*
X00818699Y00735000D01*
X00815313D01*
X00813621Y00736693D01*
Y00743464D01*
X00836771D02*
X00835078Y00745157D01*
X00831693D01*
X00830000Y00743464D01*
Y00736693D01*
X00831693Y00735000D01*
X00835078D01*
X00836771Y00736693D01*
X00840157D02*
X00841850Y00735000D01*
X00845235D01*
X00846928Y00736693D01*
Y00743464D01*
X00845235Y00745157D01*
X00841850D01*
X00840157Y00743464D01*
Y00741771D01*
X00841850Y00740078D01*
X00846928D01*
X00863771Y00758464D02*
X00862078Y00760157D01*
X00858693D01*
X00857000Y00758464D01*
Y00751693D01*
X00858693Y00750000D01*
X00862078D01*
X00863771Y00751693D01*
X00867157Y00758464D02*
X00868849Y00760157D01*
X00872235D01*
X00873928Y00758464D01*
Y00756771D01*
X00872235Y00755078D01*
X00873928Y00753386D01*
Y00751693D01*
X00872235Y00750000D01*
X00868849D01*
X00867157Y00751693D01*
Y00753386D01*
X00868849Y00755078D01*
X00867157Y00756771D01*
Y00758464D01*
X00868849Y00755078D02*
X00872235D01*
X00889771Y00758464D02*
X00888078Y00760157D01*
X00884693D01*
X00883000Y00758464D01*
Y00751693D01*
X00884693Y00750000D01*
X00888078D01*
X00889771Y00751693D01*
X00893157Y00760157D02*
X00899928D01*
Y00758464D01*
X00893157Y00751693D01*
Y00750000D01*
X00858543Y00810516D02*
X00856443Y00812648D01*
X00852211Y00812680D01*
X00850079Y00810580D01*
X00850016Y00802116D01*
X00852116Y00799984D01*
X00856348Y00799952D01*
X00858480Y00802052D01*
X00871254Y00812537D02*
X00867007Y00810453D01*
X00862743Y00806253D01*
X00862711Y00802021D01*
X00864811Y00799889D01*
X00869043Y00799857D01*
X00871175Y00801957D01*
X00871191Y00804073D01*
X00869091Y00806205D01*
X00862743Y00806253D01*
X00858464Y00853580D02*
X00856348Y00855696D01*
X00852116D01*
X00850000Y00853580D01*
Y00845116D01*
X00852116Y00843000D01*
X00856348D01*
X00858464Y00845116D01*
X00871160Y00855696D02*
X00862696D01*
Y00849348D01*
X00866928Y00851464D01*
X00869044D01*
X00871160Y00849348D01*
Y00845116D01*
X00869044Y00843000D01*
X00864812D01*
X00862696Y00845116D01*
X00858464Y00892580D02*
X00856348Y00894696D01*
X00852116D01*
X00850000Y00892580D01*
Y00884116D01*
X00852116Y00882000D01*
X00856348D01*
X00858464Y00884116D01*
X00869044Y00882000D02*
Y00894696D01*
X00862696Y00888348D01*
X00871160D01*
X00942771Y00804464D02*
X00941078Y00806157D01*
X00937693D01*
X00936000Y00804464D01*
Y00797693D01*
X00937693Y00796000D01*
X00941078D01*
X00942771Y00797693D01*
X00946157Y00804464D02*
X00947850Y00806157D01*
X00951235D01*
X00952928Y00804464D01*
Y00802771D01*
X00951235Y00801078D01*
X00949542D01*
X00951235D01*
X00952928Y00799386D01*
Y00797693D01*
X00951235Y00796000D01*
X00947850D01*
X00946157Y00797693D01*
X00899464Y00865580D02*
X00897348Y00867696D01*
X00893116D01*
X00891000Y00865580D01*
Y00857116D01*
X00893116Y00855000D01*
X00897348D01*
X00899464Y00857116D01*
X00912160Y00855000D02*
X00903696D01*
X00912160Y00863464D01*
Y00865580D01*
X00910044Y00867696D01*
X00905812D01*
X00903696Y00865580D01*
X00847580Y00943536D02*
X00849696Y00945652D01*
Y00949884D01*
X00847580Y00952000D01*
X00839116D01*
X00837000Y00949884D01*
Y00945652D01*
X00839116Y00943536D01*
X00837000Y00939304D02*
Y00935072D01*
Y00937188D01*
X00849696D01*
X00847580Y00939304D01*
D38*
X01045100Y01107500D02*
G03*
X01045100Y01107500I-00001250J00000000D01*
G01*
X00895100Y01107500D02*
G03*
X00895100Y01107500I-00001250J00000000D01*
G01*
X00745100D02*
G03*
X00745100Y01107500I-00001250J00000000D01*
G01*
X00897250Y00937750D02*
G03*
X00897250Y00937750I-00001250J00000000D01*
G01*
X00995750Y00743500D02*
G03*
X00995750Y00743500I-00001250J00000000D01*
G01*
D39*
X00776952Y00890485D02*
G03*
X00783048Y00890485I00003048J00000000D01*
G01*
X00751113Y00749515D02*
X00808887D01*
X00751113Y00890485D02*
X00808887D01*
D40*
X00741000Y00684500D02*
Y00685500D01*
X00749000Y00684500D02*
Y00685500D01*
X00716000Y00684500D02*
Y00685500D01*
X00724000Y00684500D02*
Y00685500D01*
X00691000Y00684500D02*
Y00685500D01*
X00699000Y00684500D02*
Y00685500D01*
X00666000Y00684500D02*
Y00685500D01*
X00674000Y00684500D02*
Y00685500D01*
X01064000Y01099500D02*
Y01100500D01*
X01056000Y01099500D02*
Y01100500D01*
X00919500Y01090500D02*
X00920500D01*
X00919500Y01099500D02*
X00920500D01*
X00666000Y00724500D02*
Y00725500D01*
X00674000Y00724500D02*
Y00725500D01*
X00666000Y00754500D02*
Y00755500D01*
X00674000Y00754500D02*
Y00755500D01*
X00699500Y00849000D02*
X00700500D01*
X00699500Y00841000D02*
X00700500D01*
X00747500Y00923000D02*
X00748500D01*
X00747500Y00931000D02*
X00748500D01*
X00706000Y00894500D02*
Y00895500D01*
X00714000Y00894500D02*
Y00895500D01*
X00686000Y00894500D02*
Y00895500D01*
X00694000Y00894500D02*
Y00895500D01*
X00942500Y01053500D02*
Y01081500D01*
X01047500D01*
Y01053500D02*
Y01081500D01*
X00792500Y01053500D02*
Y01081500D01*
X00897500D01*
Y01053500D02*
Y01081500D01*
X00642500Y01053500D02*
Y01081500D01*
X00747500D01*
Y01053500D02*
Y01081500D01*
X00910000Y00882500D02*
Y00927500D01*
X00882000Y00882500D02*
Y00927500D01*
X00907750D02*
X00910000D01*
X00907750Y00882500D02*
X00910000D01*
X00882000Y00927500D02*
X00884250D01*
X00882000Y00882500D02*
X00884250D01*
X00861000Y00694500D02*
Y00695500D01*
X00869000Y00694500D02*
Y00695500D01*
X00663750Y00789500D02*
Y00790500D01*
X00676250Y00789500D02*
Y00790500D01*
X00666000Y00909500D02*
Y00910500D01*
X00674000Y00909500D02*
Y00910500D01*
X00771500Y00699500D02*
Y00710500D01*
X00788500Y00699500D02*
Y00710500D01*
X00801500Y00699500D02*
Y00710500D01*
X00818500Y00699500D02*
Y00710500D01*
X00831500Y00699500D02*
Y00710500D01*
X00848500Y00699500D02*
Y00710500D01*
X00869000Y00729500D02*
Y00730500D01*
X00861000Y00729500D02*
Y00730500D01*
X00894000Y00729500D02*
Y00730500D01*
X00886000Y00729500D02*
Y00730500D01*
X00769500Y01099000D02*
X00770500D01*
X00769500Y01091000D02*
X00770500D01*
X00951000Y00901000D02*
X00955500Y00896500D01*
Y00872000D02*
Y00896500D01*
X00929000Y00901000D02*
X00951000D01*
X00955500Y00822000D02*
Y00848000D01*
X00924500Y00896500D02*
X00929000Y00901000D01*
X00924500Y00872000D02*
Y00896500D01*
Y00822000D02*
X00955500D01*
X00924500D02*
Y00848000D01*
X01010000Y00743500D02*
X01040000D01*
Y00676500D02*
Y00743500D01*
X01010000Y00676500D02*
Y00743500D01*
Y00676500D02*
X01040000D01*
X00669500Y00618500D02*
X00670500D01*
X00669500Y00611500D02*
X00670500D01*
X00669500Y00631500D02*
X00670500D01*
X00669500Y00638500D02*
X00670500D01*
X00669500Y00651500D02*
X00670500D01*
X00669500Y00658500D02*
X00670500D01*
X00801500Y00950500D02*
X00812500D01*
X00801500Y00933500D02*
X00812500D01*
X00709500Y00726250D02*
X00710500D01*
X00709500Y00713750D02*
X00710500D01*
X00709500Y00759000D02*
X00710500D01*
X00709500Y00751000D02*
X00710500D01*
X00709500Y00789000D02*
X00710500D01*
X00709500Y00781000D02*
X00710500D01*
X00709500Y00819000D02*
X00710500D01*
X00709500Y00811000D02*
X00710500D01*
X00901500Y00814000D02*
X00902500D01*
X00901500Y00806000D02*
X00902500D01*
X00816500Y00910000D02*
X00817500D01*
X00816500Y00902000D02*
X00817500D01*
X00902500Y00849000D02*
X00903500D01*
X00902500Y00841000D02*
X00903500D01*
X00699500Y00924000D02*
X00700500D01*
X00699500Y00916000D02*
X00700500D01*
X00669500Y00874000D02*
X00670500D01*
X00669500Y00866000D02*
X00670500D01*
X00859500Y00780960D02*
X00860500D01*
X00859500Y00794460D02*
X00860500D01*
X00859500Y00834750D02*
X00860500D01*
X00859500Y00821250D02*
X00860500D01*
X00859500Y00876750D02*
X00860500D01*
X00859500Y00863250D02*
X00860500D01*
D41*
X00652232Y00565160D02*
Y00614690D01*
X00647232Y00565160D02*
X00652232D01*
X00647232Y00545000D02*
X00652232D01*
X00647232D02*
Y00565160D01*
X00652232Y00495500D02*
Y00545000D01*
X00607060Y00614690D02*
X00652232D01*
X00607060Y00495500D02*
X00652232D01*
X00607060D02*
Y00614690D01*
X00652232Y00730160D02*
Y00800000D01*
X00647232Y00730160D02*
X00652232D01*
X00647232Y00710000D02*
X00652232D01*
Y00640000D02*
Y00710000D01*
X00647232D02*
Y00730160D01*
X00607060Y00800000D02*
X00652232D01*
X00607060Y00640000D02*
X00652232D01*
X00607060D02*
Y00800000D01*
Y00825000D02*
X00652232D01*
X00607060D02*
Y00925000D01*
X00652232Y00885160D02*
Y00925000D01*
Y00825000D02*
Y00865000D01*
X00647232D02*
Y00885160D01*
X00652232D01*
X00647232Y00865000D02*
X00652232D01*
X00607060Y00925000D02*
X00652232D01*
X01060100Y00567300D02*
Y00592700D01*
Y00567300D02*
X01072800D01*
Y00491100D02*
Y00567300D01*
X00717200Y00491100D02*
X01072800D01*
X00717200D02*
Y00668900D01*
X01072800D01*
Y00592700D02*
Y00668900D01*
X01060100Y00592700D02*
X01072800D01*
X00681952Y00505000D02*
X00688000Y00511000D01*
Y00498904D02*
Y00511000D01*
X00681952Y00505000D02*
X00688000Y00498904D01*
X00681952Y00505000D02*
Y00512000D01*
Y00497888D02*
Y00505000D01*
X00660870Y00515000D02*
X00674840D01*
X00660870Y00494840D02*
Y00515000D01*
Y00494840D02*
X00674840D01*
X00695000Y00515000D02*
X00709000D01*
Y00494840D02*
Y00515000D01*
X00695000Y00494840D02*
X00709000D01*
X00681952Y00530000D02*
X00688000Y00536000D01*
Y00523904D02*
Y00536000D01*
X00681952Y00530000D02*
X00688000Y00523904D01*
X00681952Y00530000D02*
Y00537000D01*
Y00522888D02*
Y00530000D01*
X00660870Y00540000D02*
X00674840D01*
X00660870Y00519840D02*
Y00540000D01*
Y00519840D02*
X00674840D01*
X00695000Y00540000D02*
X00709000D01*
Y00519840D02*
Y00540000D01*
X00695000Y00519840D02*
X00709000D01*
X00681952Y00555000D02*
X00688000Y00561000D01*
Y00548904D02*
Y00561000D01*
X00681952Y00555000D02*
X00688000Y00548904D01*
X00681952Y00555000D02*
Y00562000D01*
Y00547888D02*
Y00555000D01*
X00660870Y00565000D02*
X00674840D01*
X00660870Y00544840D02*
Y00565000D01*
Y00544840D02*
X00674840D01*
X00695000Y00565000D02*
X00709000D01*
Y00544840D02*
Y00565000D01*
X00695000Y00544840D02*
X00709000D01*
X00681952Y00580000D02*
X00688000Y00586000D01*
Y00573904D02*
Y00586000D01*
X00681952Y00580000D02*
X00688000Y00573904D01*
X00681952Y00580000D02*
Y00587000D01*
Y00572888D02*
Y00580000D01*
X00660870Y00590000D02*
X00674840D01*
X00660870Y00569840D02*
Y00590000D01*
Y00569840D02*
X00674840D01*
X00695000Y00590000D02*
X00709000D01*
Y00569840D02*
Y00590000D01*
X00695000Y00569840D02*
X00709000D01*
D42*
X00752187Y00885888D02*
X00760651Y00877424D01*
X00752187D02*
X00760651Y00885888D01*
X00752187Y00881656D02*
X00760651D01*
X00756419Y00877424D02*
Y00885888D01*
M02*
