G04 Layer_Physical_Order=1*
G04 Layer_Color=255*
%FSAX44Y44*%
%MOMM*%
G71*
G01*
G75*
%ADD10R,3.6100X6.3500*%
%ADD11R,1.2700X0.3048*%
%ADD12R,0.7000X0.9000*%
%ADD13R,1.3500X1.9000*%
%ADD14R,0.9000X1.0000*%
%ADD15R,2.4000X2.6000*%
%ADD16R,1.3500X1.5500*%
%ADD17R,1.0000X0.9000*%
%ADD18R,1.9000X1.3500*%
%ADD19R,1.4500X1.1500*%
%ADD20R,1.1500X1.4500*%
%ADD21R,2.6000X2.4000*%
%ADD22R,2.3000X2.3000*%
%ADD23R,1.5500X2.4000*%
%ADD24R,1.2192X1.4224*%
G04:AMPARAMS|DCode=25|XSize=2.7mm|YSize=8mm|CornerRadius=1.35mm|HoleSize=0mm|Usage=FLASHONLY|Rotation=0.000|XOffset=0mm|YOffset=0mm|HoleType=Round|Shape=RoundedRectangle|*
%AMROUNDEDRECTD25*
21,1,2.7000,5.3000,0,0,0.0*
21,1,0.0000,8.0000,0,0,0.0*
1,1,2.7000,0.0000,-2.6500*
1,1,2.7000,0.0000,-2.6500*
1,1,2.7000,0.0000,2.6500*
1,1,2.7000,0.0000,2.6500*
%
%ADD25ROUNDEDRECTD25*%
%ADD26R,1.1000X1.1000*%
%ADD27R,2.5000X3.3000*%
%ADD28R,2.5000X1.0000*%
%ADD29R,10.6000X8.8000*%
%ADD30R,1.0500X4.1500*%
%ADD31C,0.2540*%
%ADD32C,1.6002*%
%ADD33C,1.4478*%
%ADD34C,1.2700*%
%ADD35C,0.7620*%
%ADD36C,0.5080*%
G36*
X00964396Y00837079D02*
Y00833362D01*
X00964650Y00832086D01*
X00965372Y00831004D01*
X00971004Y00825372D01*
X00972086Y00824650D01*
X00973362Y00824396D01*
X00991836D01*
X00992267Y00823126D01*
X00992045Y00822955D01*
X00990706Y00821211D01*
X00989865Y00819180D01*
X00989578Y00817000D01*
X00989865Y00814820D01*
X00990228Y00813943D01*
X00978934Y00802649D01*
X00977943Y00802745D01*
X00977802Y00802970D01*
X00977341Y00803906D01*
X00978133Y00805819D01*
X00978420Y00807998D01*
X00978133Y00810178D01*
X00977292Y00812209D01*
X00975953Y00813954D01*
X00974209Y00815292D01*
X00972178Y00816133D01*
X00969998Y00816420D01*
X00967818Y00816133D01*
X00967664Y00816070D01*
X00967284Y00816460D01*
X00958000D01*
Y00819000D01*
X00955460D01*
Y00827570D01*
X00955096Y00827420D01*
X00954040Y00828125D01*
Y00834960D01*
X00940000D01*
Y00840040D01*
X00954040D01*
Y00845776D01*
X00955213Y00846262D01*
X00964396Y00837079D01*
D02*
G37*
G36*
X01044458Y00909807D02*
X01046282Y00909051D01*
X01047849Y00907849D01*
X01049051Y00906282D01*
X01049807Y00904458D01*
X01050000Y00902992D01*
Y00902500D01*
Y00837500D01*
Y00837008D01*
X01049807Y00835542D01*
X01049051Y00833718D01*
X01047849Y00832151D01*
X01046282Y00830949D01*
X01044458Y00830193D01*
X01042992Y00830000D01*
X01023000D01*
Y00910000D01*
X01042992D01*
X01044458Y00909807D01*
D02*
G37*
G36*
X00923150Y00823784D02*
X00923873Y00822702D01*
X00925202Y00821372D01*
X00926284Y00820650D01*
X00927560Y00820396D01*
X00937889D01*
X00952644Y00805641D01*
X00953726Y00804918D01*
X00955002Y00804664D01*
X00962341D01*
X00962704Y00803787D01*
X00962924Y00803501D01*
X00962444Y00802040D01*
X00961722Y00801557D01*
X00959039Y00798874D01*
X00937941D01*
X00937379Y00800013D01*
X00937765Y00800517D01*
X00938570Y00802460D01*
X00921430D01*
X00922235Y00800517D01*
X00922621Y00800013D01*
X00922059Y00798874D01*
X00903249D01*
X00902762Y00800047D01*
X00904358Y00801643D01*
X00904904Y00802460D01*
X00907460D01*
Y00810000D01*
X00910000D01*
Y00812540D01*
X00917040D01*
Y00817540D01*
X00917880Y00818462D01*
X00919382Y00819615D01*
X00920720Y00821359D01*
X00921562Y00823390D01*
X00921710Y00824514D01*
X00922996Y00824556D01*
X00923150Y00823784D01*
D02*
G37*
G36*
X00684632Y00639653D02*
X00685021Y00639071D01*
X00693126Y00630966D01*
Y00598605D01*
X00688643Y00594121D01*
X00687920Y00593040D01*
X00687666Y00591764D01*
Y00490751D01*
X00686881Y00489794D01*
X00656879D01*
X00656318Y00490933D01*
X00656765Y00491517D01*
X00657570Y00493460D01*
X00640430D01*
X00641235Y00491517D01*
X00641682Y00490933D01*
X00641121Y00489794D01*
X00628063D01*
Y00505601D01*
X00629202Y00506162D01*
X00629684Y00505793D01*
X00632248Y00504731D01*
X00632460Y00504703D01*
Y00515000D01*
X00635000D01*
Y00517540D01*
X00645302D01*
X00645771Y00518088D01*
X00646345Y00518474D01*
X00647819Y00517864D01*
X00649999Y00517577D01*
X00652178Y00517864D01*
X00654210Y00518705D01*
X00655954Y00520044D01*
X00657292Y00521788D01*
X00658134Y00523819D01*
X00658421Y00525999D01*
X00658134Y00528179D01*
X00657292Y00530210D01*
X00655954Y00531954D01*
X00654210Y00533293D01*
X00653333Y00533656D01*
Y00540001D01*
X00653079Y00541277D01*
X00652356Y00542359D01*
X00644035Y00550680D01*
X00644744Y00552389D01*
X00645087Y00555000D01*
X00644744Y00557611D01*
X00643736Y00560044D01*
X00642133Y00562133D01*
X00640044Y00563736D01*
X00638571Y00564346D01*
Y00565720D01*
X00640044Y00566330D01*
X00642133Y00567933D01*
X00643736Y00570023D01*
X00644744Y00572455D01*
X00645087Y00575066D01*
X00644744Y00577677D01*
X00644641Y00577926D01*
X00665910Y00599194D01*
X00667113Y00598601D01*
X00667033Y00598000D01*
X00667339Y00595679D01*
X00668235Y00593517D01*
X00669660Y00591660D01*
X00670621Y00590922D01*
X00670190Y00589652D01*
X00661124D01*
Y00582540D01*
X00669760D01*
X00678396D01*
Y00589370D01*
X00680483Y00590235D01*
X00682340Y00591660D01*
X00683765Y00593517D01*
X00684570Y00595460D01*
X00676000D01*
Y00600540D01*
X00684570D01*
X00683765Y00602483D01*
X00682340Y00604340D01*
X00680483Y00605765D01*
X00678321Y00606661D01*
X00678101Y00606690D01*
X00678185Y00607960D01*
X00683040D01*
Y00612460D01*
X00677000D01*
Y00615000D01*
X00674460D01*
Y00622040D01*
X00673334D01*
Y00627960D01*
X00674460D01*
Y00635000D01*
X00677000D01*
Y00637540D01*
X00683040D01*
Y00639666D01*
X00684619D01*
X00684632Y00639653D01*
D02*
G37*
G36*
X00997000Y00830000D02*
X00977008D01*
X00975542Y00830193D01*
X00973718Y00830949D01*
X00972151Y00832151D01*
X00970949Y00833718D01*
X00970193Y00835542D01*
X00970000Y00837008D01*
Y00837500D01*
Y00902500D01*
Y00902992D01*
X00970193Y00904458D01*
X00970949Y00906282D01*
X00972151Y00907849D01*
X00973718Y00909051D01*
X00975542Y00909807D01*
X00977008Y00910000D01*
X00977500Y00910000D01*
Y00910000D01*
X00997000D01*
Y00830000D01*
D02*
G37*
G36*
X01047612Y01034104D02*
X01054815Y01030026D01*
X01059244Y01026243D01*
X01063026Y01021815D01*
X01066069Y01016849D01*
X01068298Y01011469D01*
X01069657Y01005806D01*
X01070000Y01001454D01*
Y01000000D01*
X01070000D01*
X01070000Y00920000D01*
X01026782D01*
X01026414Y00921413D01*
X01025010Y00925565D01*
X01022553Y00930547D01*
X01019467Y00935166D01*
X01016192Y00938865D01*
X01015000Y00940000D01*
X01012373Y00942502D01*
X01003633Y00948984D01*
X00996507Y00952923D01*
X00988984Y00956039D01*
X00981160Y00958293D01*
X00973132Y00959657D01*
X00967034Y00959999D01*
X00965000Y00959999D01*
X00640000Y00960000D01*
Y01034270D01*
Y01034415D01*
X00640171Y01034828D01*
X00640584Y01035000D01*
X01045000D01*
X01047612Y01034104D01*
D02*
G37*
G36*
X00645700Y00850966D02*
X00684960D01*
Y00847540D01*
X00692000D01*
Y00842460D01*
X00684960D01*
Y00840494D01*
X00672154D01*
X00670878Y00840240D01*
X00669796Y00839518D01*
X00668736Y00838457D01*
X00667369Y00838887D01*
X00666667Y00840582D01*
X00665242Y00842439D01*
X00663385Y00843864D01*
X00661442Y00844669D01*
Y00836098D01*
X00658902D01*
Y00833558D01*
X00650331D01*
X00651136Y00831615D01*
X00651301Y00831400D01*
X00650614Y00830210D01*
X00649000Y00830422D01*
X00646820Y00830135D01*
X00644789Y00829294D01*
X00643045Y00827955D01*
X00641706Y00826211D01*
X00641343Y00825334D01*
X00628302D01*
X00627740Y00826473D01*
X00628080Y00826917D01*
X00628885Y00828860D01*
X00620315D01*
Y00833940D01*
X00628885D01*
X00628360Y00835207D01*
X00629403Y00836008D01*
X00629684Y00835792D01*
X00632248Y00834730D01*
X00632460Y00834703D01*
Y00845000D01*
X00635000D01*
Y00847540D01*
X00645298D01*
X00645270Y00847752D01*
X00644365Y00849937D01*
X00644957Y00850866D01*
X00645223Y00851061D01*
X00645700Y00850966D01*
D02*
G37*
G36*
X00913283Y00899547D02*
X00913235Y00899483D01*
X00912430Y00897540D01*
X00921000D01*
Y00895000D01*
X00923540D01*
Y00886430D01*
X00925230Y00887130D01*
X00926500Y00886592D01*
Y00878872D01*
X00919348D01*
X00918072Y00878618D01*
X00916990Y00877896D01*
X00911021Y00871926D01*
X00910298Y00870845D01*
X00910044Y00869569D01*
Y00862428D01*
X00910298Y00861152D01*
X00910791Y00860414D01*
X00910295Y00859144D01*
X00904571D01*
X00889678Y00874037D01*
X00890164Y00875210D01*
X00893460D01*
Y00889750D01*
X00896000D01*
Y00892290D01*
X00906290D01*
Y00900686D01*
X00912722D01*
X00913283Y00899547D01*
D02*
G37*
G36*
X00706666Y00808000D02*
X00706920Y00806724D01*
X00707643Y00805642D01*
X00710642Y00802643D01*
X00711724Y00801920D01*
X00713000Y00801666D01*
X00718502D01*
X00719045Y00800396D01*
X00718312Y00798627D01*
X00718025Y00796447D01*
X00718312Y00794268D01*
X00718725Y00793270D01*
X00717877Y00792000D01*
X00711500D01*
Y00778000D01*
X00714666D01*
Y00762000D01*
X00713135D01*
X00713080Y00762276D01*
X00712357Y00763357D01*
X00710358Y00765358D01*
X00709276Y00766080D01*
X00708000Y00766334D01*
X00696000D01*
X00694724Y00766080D01*
X00693643Y00765358D01*
X00688849Y00760564D01*
X00677151D01*
X00677000Y00760715D01*
Y00765285D01*
X00688490Y00776775D01*
X00689999Y00776576D01*
X00692178Y00776863D01*
X00693690Y00777489D01*
X00694960Y00777460D01*
X00694960Y00777460D01*
X00694960Y00777460D01*
X00699460D01*
Y00785000D01*
Y00792540D01*
X00694960D01*
X00694960Y00792540D01*
X00693690Y00792507D01*
X00692178Y00793133D01*
X00689999Y00793420D01*
X00687819Y00793133D01*
X00685817Y00792305D01*
X00685696Y00792353D01*
X00684668Y00793033D01*
X00684742Y00793408D01*
Y00796347D01*
X00686012Y00797027D01*
X00687459Y00796428D01*
Y00804998D01*
X00689999D01*
Y00807538D01*
X00699300D01*
X00699622Y00808000D01*
X00706666D01*
Y00808000D01*
D02*
G37*
G36*
X00637540Y00649703D02*
X00637752Y00649731D01*
X00640316Y00650793D01*
X00641776Y00651913D01*
X00643046Y00651287D01*
Y00646380D01*
X00643300Y00645104D01*
X00644023Y00644023D01*
X00645069Y00643323D01*
X00645705Y00641788D01*
X00647043Y00640043D01*
X00648788Y00638705D01*
X00650819Y00637864D01*
X00652999Y00637577D01*
X00655179Y00637864D01*
X00656230Y00638299D01*
X00657500Y00637451D01*
Y00628500D01*
X00659666D01*
Y00621500D01*
X00657500D01*
Y00608500D01*
X00664126D01*
X00664612Y00607327D01*
X00640634Y00583349D01*
X00640044Y00583802D01*
X00638571Y00584412D01*
Y00585787D01*
X00640044Y00586396D01*
X00642133Y00587999D01*
X00643736Y00590089D01*
X00644744Y00592521D01*
X00645087Y00595132D01*
X00644744Y00597743D01*
X00643736Y00600176D01*
X00642133Y00602265D01*
X00640044Y00603868D01*
X00637611Y00604876D01*
X00635000Y00605219D01*
X00632389Y00604876D01*
X00629956Y00603868D01*
X00629202Y00603289D01*
X00628063Y00603851D01*
Y00609348D01*
X00640942Y00622227D01*
X00641819Y00621864D01*
X00643999Y00621577D01*
X00646179Y00621864D01*
X00648210Y00622705D01*
X00649954Y00624044D01*
X00651292Y00625788D01*
X00652134Y00627819D01*
X00652421Y00629999D01*
X00652134Y00632178D01*
X00651292Y00634210D01*
X00649954Y00635954D01*
X00648210Y00637293D01*
X00646179Y00638134D01*
X00643999Y00638421D01*
X00641819Y00638134D01*
X00639788Y00637293D01*
X00638043Y00635954D01*
X00636705Y00634210D01*
X00635864Y00632178D01*
X00635577Y00629999D01*
X00635864Y00627819D01*
X00636227Y00626942D01*
X00625696Y00616412D01*
X00624523Y00616898D01*
Y00654430D01*
X00625792Y00654684D01*
X00627482Y00652482D01*
X00629684Y00650793D01*
X00632248Y00649731D01*
X00632460Y00649703D01*
Y00660000D01*
X00637540D01*
Y00649703D01*
D02*
G37*
G36*
X00744313Y00748436D02*
X00747059D01*
Y00719604D01*
X00747313Y00718328D01*
X00747947Y00717379D01*
X00747863Y00717178D01*
X00747576Y00714999D01*
X00747670Y00714289D01*
X00746833Y00713334D01*
X00726750D01*
Y00726951D01*
X00727460Y00727573D01*
X00729781Y00727879D01*
X00731943Y00728775D01*
X00733800Y00730200D01*
X00735225Y00732057D01*
X00736030Y00734000D01*
X00727460D01*
Y00739080D01*
X00736030D01*
X00735225Y00741023D01*
X00733800Y00742880D01*
X00731943Y00744305D01*
X00729781Y00745201D01*
X00729723Y00745209D01*
X00729315Y00746411D01*
X00731792Y00748888D01*
X00732883Y00748436D01*
Y00748436D01*
X00739233D01*
Y00752500D01*
X00744313D01*
Y00748436D01*
D02*
G37*
G36*
X00694960Y00755586D02*
Y00749068D01*
X00693821Y00748506D01*
X00693483Y00748765D01*
X00691540Y00749570D01*
Y00743540D01*
X00697570D01*
X00696765Y00745483D01*
X00696223Y00746190D01*
X00696849Y00747460D01*
X00699460D01*
Y00755000D01*
X00704540D01*
Y00747460D01*
X00709040D01*
Y00750878D01*
X00710000Y00751666D01*
X00711500D01*
Y00748000D01*
X00719814D01*
X00720300Y00746827D01*
X00713308Y00739835D01*
X00712586Y00738753D01*
X00712332Y00737477D01*
Y00729250D01*
X00711250D01*
Y00710750D01*
X00716376D01*
X00716862Y00709577D01*
X00703619Y00696334D01*
X00702000D01*
Y00699500D01*
X00688000D01*
Y00689586D01*
X00687673Y00689425D01*
X00686730Y00689079D01*
X00684830Y00689866D01*
X00682650Y00690153D01*
X00680470Y00689866D01*
X00678439Y00689025D01*
X00678139Y00688794D01*
X00677000Y00689356D01*
Y00699500D01*
X00673334D01*
Y00701619D01*
X00680358Y00708643D01*
X00681080Y00709724D01*
X00681334Y00711000D01*
Y00723000D01*
X00681080Y00724276D01*
X00680358Y00725358D01*
X00678357Y00727357D01*
X00677540Y00727904D01*
Y00730460D01*
X00670000D01*
Y00735540D01*
X00677540D01*
Y00740040D01*
X00677540D01*
X00677000Y00740500D01*
Y00753500D01*
X00678106Y00753896D01*
X00690230D01*
X00691506Y00754150D01*
X00692588Y00754873D01*
X00693787Y00756072D01*
X00694960Y00755586D01*
D02*
G37*
G36*
X00799560Y00708646D02*
X00816691D01*
X00816860Y00708304D01*
X00817190Y00707376D01*
X00816430Y00705540D01*
X00825000D01*
Y00703000D01*
X00827540D01*
Y00693652D01*
X00827960Y00693353D01*
Y00691540D01*
X00840000D01*
X00852040D01*
Y00693586D01*
X00853213Y00694072D01*
X00858000Y00689285D01*
Y00680500D01*
X00872000D01*
Y00689285D01*
X00872381Y00689666D01*
X00883979D01*
X00884410Y00688396D01*
X00884045Y00688115D01*
X00882706Y00686371D01*
X00881865Y00684340D01*
X00881578Y00682160D01*
X00881865Y00679980D01*
X00882626Y00678144D01*
X00882122Y00676874D01*
X00775841D01*
X00774178Y00678537D01*
X00774664Y00679710D01*
X00777460D01*
Y00689000D01*
Y00698290D01*
X00767960D01*
X00767952Y00699557D01*
Y00708418D01*
X00768230Y00708646D01*
X00790440D01*
X00790541Y00708666D01*
X00799459D01*
X00799560Y00708646D01*
D02*
G37*
G36*
X00761929Y00908552D02*
X00762182Y00908173D01*
X00788666Y00881689D01*
Y00861010D01*
X00788920Y00859734D01*
X00789642Y00858653D01*
X00792832Y00855463D01*
X00792346Y00854290D01*
X00784000D01*
Y00851750D01*
X00782540D01*
Y00822540D01*
X00800590D01*
Y00827036D01*
X00801763Y00827522D01*
X00804142Y00825143D01*
X00805224Y00824420D01*
X00806500Y00824166D01*
X00809877D01*
Y00813976D01*
Y00803976D01*
Y00793976D01*
Y00781564D01*
X00809337D01*
Y00775834D01*
X00804476D01*
X00803874Y00776436D01*
X00802793Y00777159D01*
X00801517Y00777412D01*
X00796705D01*
X00796187Y00778187D01*
X00794265Y00779471D01*
X00791998Y00779922D01*
X00789732Y00779471D01*
X00787810Y00778187D01*
X00786525Y00776265D01*
X00786075Y00773998D01*
X00786525Y00771731D01*
X00787810Y00769810D01*
X00789732Y00768526D01*
X00791998Y00768075D01*
X00793267Y00767032D01*
X00793525Y00765732D01*
X00794810Y00763810D01*
X00796731Y00762526D01*
X00798998Y00762075D01*
X00801265Y00762526D01*
X00802800Y00763551D01*
X00803479Y00763419D01*
X00803911Y00762218D01*
X00803891Y00762034D01*
X00803181Y00761324D01*
X00802458Y00760242D01*
X00802384Y00759868D01*
X00801657Y00759141D01*
X00801187Y00759187D01*
X00799265Y00760471D01*
X00796998Y00760922D01*
X00794732Y00760471D01*
X00792810Y00759187D01*
X00791525Y00757265D01*
X00791075Y00754998D01*
X00791525Y00752731D01*
X00792810Y00750810D01*
X00794732Y00749526D01*
X00796508Y00749172D01*
X00796076Y00747000D01*
X00796527Y00744733D01*
X00797811Y00742811D01*
X00799733Y00741527D01*
X00802000Y00741076D01*
X00804267Y00741527D01*
X00806189Y00742811D01*
X00807473Y00744733D01*
X00807924Y00747000D01*
X00807822Y00747509D01*
X00808794Y00748481D01*
X00809877Y00748976D01*
Y00748976D01*
X00809877Y00748976D01*
X00817036D01*
X00823141Y00742871D01*
X00822733Y00741668D01*
X00822679Y00741661D01*
X00820517Y00740765D01*
X00818660Y00739340D01*
X00817235Y00737483D01*
X00816430Y00735540D01*
X00825000D01*
Y00730460D01*
X00815953D01*
X00815520Y00729750D01*
X00798500D01*
Y00724334D01*
X00791500D01*
Y00729750D01*
X00768500D01*
Y00726068D01*
X00767327Y00725582D01*
X00760807Y00732102D01*
Y00767533D01*
X00760553Y00768809D01*
X00760215Y00769316D01*
X00760893Y00770586D01*
X00765625D01*
X00766811Y00768811D01*
X00768733Y00767527D01*
X00771000Y00767076D01*
X00773267Y00767527D01*
X00775189Y00768811D01*
X00776473Y00770733D01*
X00776924Y00773000D01*
X00776473Y00775267D01*
X00775189Y00777189D01*
X00773267Y00778473D01*
X00771000Y00778924D01*
X00770778Y00778880D01*
X00769880Y00779778D01*
X00769924Y00780000D01*
X00769473Y00782267D01*
X00768189Y00784189D01*
X00767813Y00784440D01*
X00768198Y00785710D01*
X00776000D01*
Y00788250D01*
X00777460D01*
Y00820000D01*
Y00851750D01*
X00776000D01*
Y00854290D01*
X00760148D01*
X00760080Y00854633D01*
X00759358Y00855715D01*
X00750214Y00864858D01*
X00750123Y00864919D01*
Y00875081D01*
X00750214Y00875142D01*
X00752750Y00877678D01*
X00753473Y00878760D01*
X00753727Y00880036D01*
Y00883655D01*
X00763357Y00893285D01*
X00764080Y00894367D01*
X00764334Y00895643D01*
Y00900987D01*
X00764080Y00902263D01*
X00763357Y00903345D01*
X00758750Y00907953D01*
X00759236Y00909126D01*
X00761355D01*
X00761929Y00908552D01*
D02*
G37*
G36*
X01018286Y00789122D02*
Y00740791D01*
X01010713Y00733218D01*
X01009540Y00733704D01*
Y00740540D01*
X00997040D01*
Y00733000D01*
X00994500D01*
Y00730460D01*
X00979460D01*
Y00725460D01*
X00982875D01*
X00983361Y00724286D01*
X00977372Y00718298D01*
X00976650Y00717216D01*
X00976396Y00715940D01*
Y00704060D01*
X00976650Y00702784D01*
X00977372Y00701702D01*
X00978702Y00700373D01*
X00979784Y00699650D01*
X00981060Y00699396D01*
X00991166D01*
Y00694000D01*
X00980000D01*
Y00690334D01*
X00958578D01*
X00954394Y00694518D01*
X00953313Y00695240D01*
X00952037Y00695494D01*
X00947131D01*
X00943930Y00698695D01*
Y00722980D01*
X00915930D01*
Y00696334D01*
X00872540D01*
Y00700460D01*
X00865000D01*
X00856363D01*
X00856287Y00700428D01*
X00845638Y00711077D01*
X00846124Y00712250D01*
X00851500D01*
Y00728989D01*
X00852770Y00729515D01*
X00858000Y00724285D01*
Y00715500D01*
X00872000D01*
Y00728500D01*
X00863215D01*
X00861388Y00730327D01*
X00861874Y00731500D01*
X00872000D01*
Y00733626D01*
X00873173Y00734112D01*
X00883000Y00724285D01*
Y00715500D01*
X00897000D01*
Y00728500D01*
X00888215D01*
X00886388Y00730327D01*
X00886874Y00731500D01*
X00897000D01*
Y00744500D01*
X00883000D01*
Y00743374D01*
X00881827Y00742888D01*
X00878979Y00745736D01*
X00878890Y00746182D01*
X00878168Y00747264D01*
X00862939Y00762493D01*
X00863425Y00763666D01*
X00895000D01*
X00896276Y00763920D01*
X00897357Y00764642D01*
X00914217Y00781502D01*
X00915390Y00781016D01*
Y00774520D01*
X00929930D01*
Y00771980D01*
D01*
Y00774520D01*
X00944470D01*
Y00780112D01*
X00945740Y00780752D01*
X00946126Y00780467D01*
Y00777534D01*
X00946380Y00776258D01*
X00947103Y00775176D01*
X00976176Y00746103D01*
X00977258Y00745380D01*
X00978534Y00745126D01*
X00993466D01*
X00994742Y00745380D01*
X00995824Y00746103D01*
X01006898Y00757176D01*
X01007620Y00758258D01*
X01007874Y00759534D01*
Y00787159D01*
X01009943Y00789228D01*
X01010820Y00788865D01*
X01013000Y00788578D01*
X01015180Y00788865D01*
X01017016Y00789625D01*
X01018286Y00789122D01*
D02*
G37*
G36*
X00899248Y00659937D02*
X00898699Y00658612D01*
X00898381Y00656200D01*
X00898699Y00653788D01*
X00899630Y00651541D01*
X00901111Y00649611D01*
X00903041Y00648130D01*
X00905288Y00647199D01*
X00905759Y00647137D01*
X00906167Y00645934D01*
X00895834Y00635601D01*
X00895111Y00634519D01*
X00894857Y00633243D01*
Y00576061D01*
X00895111Y00574785D01*
X00895834Y00573704D01*
X00901404Y00568133D01*
X00902485Y00567411D01*
X00903761Y00567157D01*
X00915828D01*
X00950048Y00532937D01*
X00949499Y00531612D01*
X00949181Y00529200D01*
X00949499Y00526788D01*
X00950430Y00524540D01*
X00950719Y00524164D01*
X00950157Y00523025D01*
X00941443D01*
X00940881Y00524164D01*
X00941170Y00524540D01*
X00942101Y00526788D01*
X00942419Y00529200D01*
X00942101Y00531612D01*
X00941170Y00533859D01*
X00939689Y00535789D01*
X00937759Y00537270D01*
X00935512Y00538201D01*
X00933100Y00538519D01*
X00930688Y00538201D01*
X00928441Y00537270D01*
X00926511Y00535789D01*
X00925030Y00533859D01*
X00924099Y00531612D01*
X00923781Y00529200D01*
X00924099Y00526788D01*
X00924648Y00525463D01*
X00919519Y00520334D01*
X00905381D01*
X00895143Y00530572D01*
Y00558539D01*
X00894889Y00559814D01*
X00894166Y00560896D01*
X00888596Y00566466D01*
X00887515Y00567189D01*
X00886239Y00567443D01*
X00869272D01*
X00868253Y00568713D01*
X00868422Y00570000D01*
X00868135Y00572180D01*
X00867294Y00574211D01*
X00865955Y00575955D01*
X00865221Y00576519D01*
X00865110Y00578205D01*
X00873213Y00586307D01*
X00874170Y00585468D01*
X00873758Y00584931D01*
X00872773Y00582553D01*
X00872771Y00582540D01*
X00879760D01*
Y00589529D01*
X00879747Y00589527D01*
X00877368Y00588542D01*
X00876832Y00588130D01*
X00875992Y00589087D01*
X00885977Y00599072D01*
X00886700Y00600154D01*
X00886954Y00601429D01*
Y00613571D01*
X00886700Y00614846D01*
X00885977Y00615928D01*
X00860234Y00641672D01*
Y00647581D01*
X00861559Y00648130D01*
X00863489Y00649611D01*
X00864970Y00651541D01*
X00865901Y00653788D01*
X00866219Y00656200D01*
X00865901Y00658612D01*
X00864970Y00660859D01*
X00863489Y00662789D01*
X00861559Y00664270D01*
X00859312Y00665201D01*
X00857831Y00665396D01*
X00857915Y00666666D01*
X00881285D01*
X00881368Y00665396D01*
X00879888Y00665201D01*
X00877641Y00664270D01*
X00875711Y00662789D01*
X00874230Y00660859D01*
X00873299Y00658612D01*
X00872981Y00656200D01*
X00873299Y00653788D01*
X00874230Y00651541D01*
X00875711Y00649611D01*
X00877641Y00648130D01*
X00879888Y00647199D01*
X00882300Y00646881D01*
X00884712Y00647199D01*
X00886959Y00648130D01*
X00888889Y00649611D01*
X00890370Y00651541D01*
X00891301Y00653788D01*
X00891619Y00656200D01*
X00891301Y00658612D01*
X00890370Y00660859D01*
X00888889Y00662789D01*
X00886959Y00664270D01*
X00884712Y00665201D01*
X00883232Y00665396D01*
X00883315Y00666666D01*
X00892519D01*
X00899248Y00659937D01*
D02*
G37*
G36*
X00995820Y00808865D02*
X00997023Y00808707D01*
X00997666Y00807810D01*
Y00762381D01*
X00990619Y00755334D01*
X00988396D01*
X00987965Y00756604D01*
X00989340Y00757660D01*
X00990765Y00759517D01*
X00991570Y00761460D01*
X00983000D01*
Y00766540D01*
X00991570D01*
X00990765Y00768483D01*
X00990277Y00769120D01*
X00990903Y00770390D01*
X00993560D01*
Y00782390D01*
X00978020D01*
Y00787470D01*
X00993560D01*
Y00799470D01*
X00986844D01*
X00986358Y00800643D01*
X00994943Y00809228D01*
X00995820Y00808865D01*
D02*
G37*
G36*
X00740495Y00957961D02*
X00740747Y00956691D01*
X00739789Y00956294D01*
X00738045Y00954955D01*
X00736706Y00953211D01*
X00735865Y00951180D01*
X00735578Y00949000D01*
X00735865Y00946820D01*
X00736706Y00944789D01*
X00738045Y00943045D01*
X00739789Y00941706D01*
X00741820Y00940865D01*
X00744000Y00940578D01*
X00744666Y00939994D01*
Y00934000D01*
X00733500D01*
Y00920000D01*
X00737324D01*
X00737428Y00919844D01*
X00757666Y00899606D01*
Y00897024D01*
X00751214Y00890572D01*
X00750123Y00891024D01*
Y00891024D01*
X00742964D01*
X00738859Y00895129D01*
X00739267Y00896332D01*
X00739321Y00896339D01*
X00741483Y00897235D01*
X00743340Y00898660D01*
X00744765Y00900517D01*
X00745570Y00902460D01*
X00737000D01*
Y00905000D01*
X00734460D01*
Y00913570D01*
X00732517Y00912765D01*
X00730660Y00911340D01*
X00729235Y00909483D01*
X00728339Y00907321D01*
X00728296Y00906992D01*
X00726911Y00906207D01*
X00726273Y00906334D01*
X00717000D01*
Y00909500D01*
X00703000D01*
Y00898334D01*
X00699381D01*
X00697000Y00900715D01*
Y00909500D01*
X00688215D01*
X00686428Y00911287D01*
X00686914Y00912460D01*
X00689460D01*
Y00917460D01*
X00684960D01*
Y00914414D01*
X00683787Y00913928D01*
X00677357Y00920358D01*
X00677000Y00920596D01*
Y00924500D01*
X00666874D01*
X00666388Y00925673D01*
X00672381Y00931666D01*
X00691619D01*
X00694572Y00928714D01*
X00694540Y00928637D01*
Y00922540D01*
X00699040D01*
Y00922586D01*
X00700213Y00923072D01*
X00701500Y00921785D01*
Y00913000D01*
X00714500D01*
Y00927000D01*
X00705715D01*
X00695358Y00937357D01*
X00694276Y00938080D01*
X00693000Y00938334D01*
X00671000D01*
X00669724Y00938080D01*
X00668643Y00937357D01*
X00657643Y00926357D01*
X00656920Y00925276D01*
X00656666Y00924000D01*
Y00895000D01*
X00656920Y00893724D01*
X00657643Y00892643D01*
X00658724Y00891920D01*
X00660000Y00891666D01*
X00680619D01*
X00683000Y00889285D01*
Y00882040D01*
X00671706D01*
X00670430Y00881786D01*
X00669349Y00881064D01*
X00667643Y00879358D01*
X00666920Y00878276D01*
X00666666Y00877000D01*
X00658334D01*
Y00885066D01*
X00658080Y00886342D01*
X00657358Y00887423D01*
X00644035Y00900746D01*
X00644744Y00902455D01*
X00645087Y00905066D01*
X00644744Y00907677D01*
X00643736Y00910110D01*
X00642133Y00912199D01*
X00640044Y00913802D01*
X00637611Y00914810D01*
X00635000Y00915153D01*
X00632389Y00914810D01*
X00629956Y00913802D01*
X00627867Y00912199D01*
X00626604Y00910553D01*
X00625334Y00910984D01*
Y00945309D01*
X00626604Y00945935D01*
X00627517Y00945235D01*
X00629460Y00944430D01*
Y00953000D01*
X00632000D01*
Y00955540D01*
X00640570D01*
X00640094Y00956691D01*
X00640942Y00957961D01*
X00740495Y00957961D01*
D02*
G37*
G36*
X00855799Y00954113D02*
X00847938Y00946252D01*
X00847881Y00946240D01*
X00846800Y00945518D01*
X00833463Y00932181D01*
X00832290Y00932667D01*
Y00939460D01*
X00823000D01*
X00813710D01*
Y00929960D01*
X00824118D01*
X00824503Y00928690D01*
X00824122Y00928436D01*
X00820561Y00924874D01*
X00819838Y00923792D01*
X00819584Y00922517D01*
Y00917480D01*
X00819838Y00916204D01*
X00820561Y00915122D01*
X00820970Y00914713D01*
X00820484Y00913540D01*
X00818656D01*
X00818196Y00914229D01*
X00816798Y00915628D01*
X00816104Y00916091D01*
Y00920230D01*
X00815850Y00921506D01*
X00815127Y00922588D01*
X00799750Y00937965D01*
Y00941035D01*
X00812440Y00953725D01*
X00813710Y00953199D01*
Y00944540D01*
X00823000D01*
X00832290D01*
Y00954040D01*
X00832290D01*
X00832348Y00955286D01*
X00855313D01*
X00855799Y00954113D01*
D02*
G37*
G36*
X00852184Y01151252D02*
Y01150131D01*
X00852514Y01146779D01*
X00853819Y01142478D01*
X00855937Y01138514D01*
X00858788Y01135040D01*
X00862263Y01132189D01*
X00866226Y01130070D01*
X00872753Y01128436D01*
X00875000D01*
Y01085000D01*
X00798303D01*
Y01176232D01*
Y01177134D01*
X00798657Y01179826D01*
X00800045Y01183175D01*
X00802252Y01186051D01*
X00805128Y01188258D01*
X00808477Y01189646D01*
X00811169Y01190000D01*
X00852184D01*
Y01151252D01*
D02*
G37*
G36*
X00702184D02*
Y01150131D01*
X00702514Y01146779D01*
X00703819Y01142478D01*
X00705937Y01138514D01*
X00708788Y01135040D01*
X00712263Y01132189D01*
X00716226Y01130070D01*
X00722753Y01128436D01*
X00725000D01*
Y01085000D01*
X00648303D01*
Y01176232D01*
Y01177134D01*
X00648657Y01179826D01*
X00650045Y01183175D01*
X00652252Y01186051D01*
X00655128Y01188258D01*
X00658477Y01189646D01*
X00661169Y01190000D01*
X00702184D01*
Y01151252D01*
D02*
G37*
G36*
X01085000Y01145000D02*
X01085000Y00490000D01*
X01070000Y00475000D01*
X01061387D01*
X01060901Y00476173D01*
X01079437Y00494710D01*
X01080160Y00495792D01*
X01080414Y00497067D01*
Y00625772D01*
X01080160Y00627048D01*
X01079437Y00628130D01*
X01062114Y00645453D01*
X01062523Y00646655D01*
X01062653Y00646673D01*
X01065032Y00647658D01*
X01067074Y00649225D01*
X01068642Y00651268D01*
X01069627Y00653647D01*
X01069629Y00653660D01*
X01060100D01*
X01050571D01*
X01050573Y00653647D01*
X01050836Y00653010D01*
X01050131Y00651954D01*
X01044303D01*
X01043428Y00653127D01*
X01043701Y00653788D01*
X01044019Y00656200D01*
X01043701Y00658612D01*
X01042770Y00660859D01*
X01041289Y00662789D01*
X01039359Y00664270D01*
X01037112Y00665201D01*
X01034700Y00665519D01*
X01032288Y00665201D01*
X01030041Y00664270D01*
X01028111Y00662789D01*
X01026630Y00660859D01*
X01025699Y00658612D01*
X01025381Y00656200D01*
X01025699Y00653788D01*
X01026630Y00651541D01*
X01028111Y00649611D01*
X01029488Y00648554D01*
X01028847Y00647444D01*
X01027180Y00648135D01*
X01025000Y00648422D01*
X01022820Y00648135D01*
X01020789Y00647294D01*
X01019045Y00645955D01*
X01017706Y00644211D01*
X01016865Y00642180D01*
X01016578Y00640000D01*
X01016865Y00637820D01*
X01017706Y00635789D01*
X01019045Y00634045D01*
X01020789Y00632706D01*
X01022820Y00631865D01*
X01025000Y00631578D01*
X01025793Y00631682D01*
X01070206Y00587270D01*
Y00551169D01*
X01069033Y00550682D01*
X01024334Y00595381D01*
Y00603343D01*
X01025211Y00603706D01*
X01026955Y00605045D01*
X01028294Y00606789D01*
X01029135Y00608820D01*
X01029422Y00611000D01*
X01029135Y00613180D01*
X01028294Y00615211D01*
X01026955Y00616955D01*
X01025211Y00618294D01*
X01023180Y00619135D01*
X01021000Y00619422D01*
X01018820Y00619135D01*
X01016789Y00618294D01*
X01015045Y00616955D01*
X01013706Y00615211D01*
X01012865Y00613180D01*
X01012578Y00611000D01*
X01012865Y00608820D01*
X01013706Y00606789D01*
X01015045Y00605045D01*
X01016789Y00603706D01*
X01017666Y00603343D01*
Y00594000D01*
X01017920Y00592724D01*
X01018643Y00591642D01*
X01066275Y00544010D01*
Y00512143D01*
X01065136Y00511581D01*
X01064759Y00511870D01*
X01062512Y00512801D01*
X01060100Y00513119D01*
X01057688Y00512801D01*
X01055441Y00511870D01*
X01053511Y00510389D01*
X01052030Y00508459D01*
X01051099Y00506212D01*
X01050781Y00503800D01*
X01051099Y00501388D01*
X01052030Y00499141D01*
X01053511Y00497211D01*
X01055441Y00495730D01*
X01057688Y00494799D01*
X01058159Y00494737D01*
X01058567Y00493534D01*
X01051287Y00486254D01*
X00947329D01*
X00946843Y00487427D01*
X00954763Y00495348D01*
X00956088Y00494799D01*
X00958500Y00494481D01*
X00960912Y00494799D01*
X00963159Y00495730D01*
X00965089Y00497211D01*
X00966570Y00499141D01*
X00967501Y00501388D01*
X00967819Y00503800D01*
X00967501Y00506212D01*
X00966570Y00508459D01*
X00965089Y00510389D01*
X00963159Y00511870D01*
X00960912Y00512801D01*
X00958500Y00513119D01*
X00956088Y00512801D01*
X00953841Y00511870D01*
X00951911Y00510389D01*
X00950430Y00508459D01*
X00949499Y00506212D01*
X00949181Y00503800D01*
X00949499Y00501388D01*
X00950048Y00500063D01*
X00939779Y00489794D01*
X00912303D01*
X00912178Y00491064D01*
X00912915Y00491211D01*
X00913996Y00491933D01*
X00922529Y00500466D01*
X00924481D01*
X00925030Y00499141D01*
X00926511Y00497211D01*
X00928441Y00495730D01*
X00930688Y00494799D01*
X00933100Y00494481D01*
X00935512Y00494799D01*
X00937759Y00495730D01*
X00939689Y00497211D01*
X00941170Y00499141D01*
X00942101Y00501388D01*
X00942419Y00503800D01*
X00942101Y00506212D01*
X00941170Y00508459D01*
X00939689Y00510389D01*
X00937759Y00511870D01*
X00935512Y00512801D01*
X00933100Y00513119D01*
X00930688Y00512801D01*
X00928441Y00511870D01*
X00926511Y00510389D01*
X00925030Y00508459D01*
X00924481Y00507134D01*
X00921148D01*
X00919872Y00506880D01*
X00918790Y00506157D01*
X00917966Y00505333D01*
X00916763Y00505741D01*
X00916701Y00506212D01*
X00915770Y00508459D01*
X00915365Y00508987D01*
X00915927Y00510126D01*
X00922366D01*
X00923642Y00510380D01*
X00924724Y00511102D01*
X00929978Y00516357D01*
X00962439D01*
X00963715Y00516611D01*
X00964796Y00517333D01*
X00970367Y00522904D01*
X00971089Y00523985D01*
X00971343Y00525261D01*
Y00533139D01*
X00971089Y00534414D01*
X00970367Y00535496D01*
X00914338Y00591525D01*
X00914630Y00593028D01*
X00915954Y00594044D01*
X00917292Y00595788D01*
X00918133Y00597819D01*
X00918420Y00599999D01*
X00918133Y00602179D01*
X00917292Y00604210D01*
X00915954Y00605954D01*
X00914209Y00607293D01*
X00912178Y00608134D01*
X00909998Y00608421D01*
X00907818Y00608134D01*
X00905787Y00607293D01*
X00904043Y00605954D01*
X00902795Y00604328D01*
X00902398Y00604332D01*
X00901525Y00604681D01*
Y00631862D01*
X00918554Y00648891D01*
X00922666Y00644779D01*
Y00618657D01*
X00921789Y00618294D01*
X00920045Y00616955D01*
X00918706Y00615211D01*
X00917865Y00613180D01*
X00917578Y00611000D01*
X00917865Y00608820D01*
X00918706Y00606789D01*
X00920045Y00605045D01*
X00921789Y00603706D01*
X00923820Y00602865D01*
X00926000Y00602578D01*
X00928180Y00602865D01*
X00930211Y00603706D01*
X00931955Y00605045D01*
X00933294Y00606789D01*
X00934135Y00608820D01*
X00934422Y00611000D01*
X00934135Y00613180D01*
X00933294Y00615211D01*
X00931955Y00616955D01*
X00930211Y00618294D01*
X00929334Y00618657D01*
Y00646160D01*
X00929285Y00646405D01*
X00930398Y00647319D01*
X00930688Y00647199D01*
X00933100Y00646881D01*
X00935512Y00647199D01*
X00937759Y00648130D01*
X00939689Y00649611D01*
X00941170Y00651541D01*
X00942101Y00653788D01*
X00942419Y00656200D01*
X00942101Y00658612D01*
X00941170Y00660859D01*
X00939689Y00662789D01*
X00937759Y00664270D01*
X00935512Y00665201D01*
X00933100Y00665519D01*
X00930688Y00665201D01*
X00928441Y00664270D01*
X00926511Y00662789D01*
X00925353Y00661281D01*
X00924305Y00661548D01*
X00924066Y00661690D01*
X00923829Y00662881D01*
X00923107Y00663962D01*
X00907631Y00679437D01*
X00906550Y00680160D01*
X00905274Y00680414D01*
X00899155D01*
X00898318Y00681369D01*
X00898422Y00682160D01*
X00898135Y00684340D01*
X00897294Y00686371D01*
X00895955Y00688115D01*
X00895590Y00688396D01*
X00896021Y00689666D01*
X00915319D01*
X00927612Y00677372D01*
X00928694Y00676650D01*
X00929970Y00676396D01*
X00934539D01*
X00935815Y00676650D01*
X00936897Y00677372D01*
X00944810Y00685286D01*
X00949190D01*
X00957103Y00677372D01*
X00958185Y00676650D01*
X00959461Y00676396D01*
X01014730D01*
X01015475Y00675784D01*
Y00664543D01*
X01014336Y00663981D01*
X01013959Y00664270D01*
X01011712Y00665201D01*
X01009300Y00665519D01*
X01006888Y00665201D01*
X01004641Y00664270D01*
X01002711Y00662789D01*
X01001230Y00660859D01*
X01000299Y00658612D01*
X00999981Y00656200D01*
X01000299Y00653788D01*
X01001230Y00651541D01*
X01002711Y00649611D01*
X01004641Y00648130D01*
X01006888Y00647199D01*
X01007359Y00647137D01*
X01007767Y00645934D01*
X00995642Y00633810D01*
X00994920Y00632728D01*
X00994666Y00631452D01*
Y00515100D01*
X00994920Y00513824D01*
X00995642Y00512742D01*
X01000848Y00507537D01*
X01000299Y00506212D01*
X00999981Y00503800D01*
X01000299Y00501388D01*
X01001230Y00499141D01*
X01002711Y00497211D01*
X01004641Y00495730D01*
X01006888Y00494799D01*
X01009300Y00494481D01*
X01011712Y00494799D01*
X01013959Y00495730D01*
X01015889Y00497211D01*
X01017370Y00499141D01*
X01018301Y00501388D01*
X01018619Y00503800D01*
X01018301Y00506212D01*
X01017370Y00508459D01*
X01015889Y00510389D01*
X01013959Y00511870D01*
X01011712Y00512801D01*
X01009300Y00513119D01*
X01006888Y00512801D01*
X01005563Y00512252D01*
X01001334Y00516481D01*
Y00518411D01*
X01002537Y00518820D01*
X01002660Y00518660D01*
X01004517Y00517235D01*
X01006460Y00516430D01*
Y00525000D01*
Y00533570D01*
X01004517Y00532765D01*
X01002660Y00531340D01*
X01002537Y00531180D01*
X01001334Y00531589D01*
Y00630071D01*
X01021167Y00649904D01*
X01021889Y00650985D01*
X01022143Y00652261D01*
Y00691191D01*
X01021889Y00692467D01*
X01021167Y00693549D01*
X01009319Y00705396D01*
X01009770Y00706666D01*
X01041000D01*
Y00691500D01*
X01070000D01*
Y00728500D01*
X01045354D01*
Y00770930D01*
X01057020D01*
Y00798930D01*
X01027020D01*
Y00770930D01*
X01038686D01*
Y00723480D01*
X01038940Y00722204D01*
X01039662Y00721123D01*
X01041000Y00719785D01*
Y00713334D01*
X01009000D01*
Y00717000D01*
X00987164D01*
X00986678Y00718173D01*
X00990900Y00722396D01*
X01007940D01*
X01009216Y00722650D01*
X01010298Y00723372D01*
X01023978Y00737052D01*
X01024700Y00738134D01*
X01024954Y00739410D01*
Y00800571D01*
X01024700Y00801846D01*
X01023978Y00802928D01*
X01023334Y00803571D01*
Y00827961D01*
X01036136D01*
X01036500Y00827925D01*
X01036864Y00827961D01*
X01042992D01*
X01043123Y00827987D01*
X01043258Y00827978D01*
X01044724Y00828171D01*
X01044977Y00828257D01*
X01045238Y00828309D01*
X01047063Y00829065D01*
X01047285Y00829213D01*
X01047524Y00829331D01*
X01049090Y00830533D01*
X01049266Y00830734D01*
X01049467Y00830910D01*
X01050669Y00832476D01*
X01050787Y00832715D01*
X01050935Y00832937D01*
X01051691Y00834762D01*
X01051743Y00835023D01*
X01051829Y00835276D01*
X01052022Y00836742D01*
X01052013Y00836877D01*
X01052039Y00837008D01*
Y00843136D01*
X01052075Y00843500D01*
Y00866582D01*
X01053214Y00867144D01*
X01053787Y00866704D01*
X01055818Y00865863D01*
X01057998Y00865576D01*
X01060178Y00865863D01*
X01062209Y00866704D01*
X01062527Y00866949D01*
X01063666Y00866387D01*
Y00856000D01*
X01063920Y00854724D01*
X01064281Y00854184D01*
X01063865Y00853180D01*
X01063578Y00851000D01*
X01063865Y00848820D01*
X01064706Y00846789D01*
X01066045Y00845045D01*
X01067789Y00843706D01*
X01069820Y00842865D01*
X01072000Y00842578D01*
X01074180Y00842865D01*
X01076211Y00843706D01*
X01077955Y00845045D01*
X01079294Y00846789D01*
X01080135Y00848820D01*
X01080422Y00851000D01*
X01080135Y00853180D01*
X01079294Y00855211D01*
X01077955Y00856955D01*
X01076211Y00858294D01*
X01074180Y00859135D01*
X01072000Y00859422D01*
X01071289Y00859328D01*
X01070334Y00860166D01*
Y00881343D01*
X01071211Y00881706D01*
X01072955Y00883045D01*
X01074294Y00884789D01*
X01075135Y00886820D01*
X01075422Y00889000D01*
X01075135Y00891180D01*
X01074294Y00893211D01*
X01072955Y00894955D01*
X01071211Y00896294D01*
X01069180Y00897135D01*
X01067000Y00897422D01*
X01064820Y00897135D01*
X01062789Y00896294D01*
X01062471Y00896050D01*
X01061332Y00896611D01*
Y00903407D01*
X01074628Y00916702D01*
X01075350Y00917784D01*
X01075604Y00919060D01*
Y01029730D01*
X01075350Y01031006D01*
X01074628Y01032088D01*
X01024938Y01081777D01*
X01025459Y01083052D01*
X01025780Y01083116D01*
X01026442Y01083558D01*
X01026884Y01084220D01*
X01026989Y01084750D01*
X01040350D01*
Y01104666D01*
X01053000D01*
Y01101500D01*
X01067000D01*
Y01114500D01*
X01053000D01*
Y01111334D01*
X01040350D01*
Y01130250D01*
X01025885D01*
X01025780Y01130320D01*
X01025000Y01130475D01*
X01023004D01*
X01016966Y01131987D01*
X01013401Y01133893D01*
X01010237Y01136489D01*
X01007641Y01139653D01*
X01005712Y01143262D01*
X01004524Y01147179D01*
X01004223Y01150231D01*
Y01190000D01*
X01004068Y01190780D01*
X01003626Y01191442D01*
X01002964Y01191884D01*
X01002184Y01192039D01*
X00961169D01*
X00961037Y01192013D01*
X00960902Y01192022D01*
X00958211Y01191667D01*
X00957958Y01191582D01*
X00957697Y01191530D01*
X00954347Y01190142D01*
X00954125Y01189994D01*
X00953886Y01189876D01*
X00951010Y01187669D01*
X00950834Y01187469D01*
X00950634Y01187293D01*
X00948427Y01184417D01*
X00948309Y01184177D01*
X00948161Y01183956D01*
X00946773Y01180606D01*
X00946721Y01180345D01*
X00946636Y01180092D01*
X00946281Y01177400D01*
X00946290Y01177266D01*
X00946264Y01177134D01*
Y01176232D01*
Y01085000D01*
X00946419Y01084220D01*
X00946861Y01083558D01*
X00947523Y01083116D01*
X00948303Y01082961D01*
X01014324D01*
X01044612Y01052673D01*
X01044126Y01051500D01*
X00940000D01*
Y01037039D01*
X00917246D01*
X00917082Y01037373D01*
X00916742Y01038309D01*
X00917534Y01040219D01*
X00917821Y01042398D01*
X00917534Y01044578D01*
X00916692Y01046609D01*
X00915354Y01048354D01*
X00913609Y01049692D01*
X00911578Y01050534D01*
X00909398Y01050820D01*
X00907219Y01050534D01*
X00906342Y01050170D01*
X00874685Y01081827D01*
X00875290Y01083018D01*
X00875780Y01083116D01*
X00876442Y01083558D01*
X00876884Y01084220D01*
X00876990Y01084750D01*
X00890350D01*
Y01093876D01*
X00891523Y01094362D01*
X00893242Y01092643D01*
X00894324Y01091920D01*
X00895600Y01091666D01*
X00903500D01*
Y01087500D01*
X00918500D01*
Y01102500D01*
X00903500D01*
Y01098334D01*
X00896981D01*
X00890350Y01104965D01*
Y01130250D01*
X00875885D01*
X00875780Y01130320D01*
X00875000Y01130475D01*
X00873004D01*
X00866966Y01131987D01*
X00863401Y01133893D01*
X00860237Y01136489D01*
X00857641Y01139653D01*
X00855712Y01143262D01*
X00854524Y01147179D01*
X00854223Y01150231D01*
Y01190000D01*
X00854068Y01190780D01*
X00853626Y01191442D01*
X00852964Y01191884D01*
X00852184Y01192039D01*
X00811169D01*
X00811037Y01192013D01*
X00810902Y01192022D01*
X00808211Y01191667D01*
X00807958Y01191582D01*
X00807697Y01191530D01*
X00804347Y01190142D01*
X00804125Y01189994D01*
X00803886Y01189876D01*
X00801010Y01187669D01*
X00800834Y01187469D01*
X00800634Y01187293D01*
X00798427Y01184417D01*
X00798309Y01184177D01*
X00798161Y01183956D01*
X00796773Y01180606D01*
X00796721Y01180345D01*
X00796636Y01180092D01*
X00796281Y01177400D01*
X00796290Y01177266D01*
X00796264Y01177134D01*
Y01176232D01*
Y01085000D01*
X00796419Y01084220D01*
X00796861Y01083558D01*
X00797523Y01083116D01*
X00798303Y01082961D01*
X00864121D01*
X00894409Y01052673D01*
X00893923Y01051500D01*
X00790000D01*
Y01050205D01*
X00789672Y01050043D01*
X00788730Y01049697D01*
X00786830Y01050485D01*
X00784650Y01050772D01*
X00782470Y01050485D01*
X00780439Y01049643D01*
X00778695Y01048305D01*
X00777473Y01046712D01*
X00763003D01*
X00726416Y01083299D01*
X00726442Y01083558D01*
X00726884Y01084220D01*
X00726990Y01084750D01*
X00740350D01*
Y01093876D01*
X00741523Y01094362D01*
X00743242Y01092643D01*
X00744324Y01091920D01*
X00745600Y01091666D01*
X00755500D01*
Y01088000D01*
X00768500D01*
Y01102000D01*
X00755500D01*
Y01098334D01*
X00746981D01*
X00740350Y01104965D01*
Y01130250D01*
X00725885D01*
X00725780Y01130320D01*
X00725000Y01130475D01*
X00723004D01*
X00716966Y01131987D01*
X00713401Y01133893D01*
X00710237Y01136489D01*
X00707641Y01139653D01*
X00705712Y01143262D01*
X00704524Y01147179D01*
X00704223Y01150231D01*
Y01190000D01*
X00704068Y01190780D01*
X00703626Y01191442D01*
X00702964Y01191884D01*
X00702184Y01192039D01*
X00661169D01*
X00661037Y01192013D01*
X00660902Y01192022D01*
X00658211Y01191667D01*
X00657958Y01191582D01*
X00657697Y01191530D01*
X00654347Y01190142D01*
X00654125Y01189994D01*
X00653886Y01189876D01*
X00651010Y01187669D01*
X00650834Y01187469D01*
X00650634Y01187293D01*
X00648427Y01184417D01*
X00648309Y01184177D01*
X00648161Y01183956D01*
X00646773Y01180606D01*
X00646721Y01180345D01*
X00646636Y01180092D01*
X00646281Y01177400D01*
X00646290Y01177266D01*
X00646264Y01177134D01*
Y01176232D01*
Y01085000D01*
X00646419Y01084220D01*
X00646861Y01083558D01*
X00647523Y01083116D01*
X00648303Y01082961D01*
X00717324D01*
X00747612Y01052673D01*
X00747126Y01051500D01*
X00640000D01*
Y01036923D01*
X00639804Y01036883D01*
X00639391Y01036712D01*
X00638729Y01036270D01*
X00638729Y01036270D01*
X00638287Y01035609D01*
X00638116Y01035195D01*
X00637961Y01034415D01*
Y00975866D01*
X00619642Y00957548D01*
X00618920Y00956466D01*
X00618666Y00955191D01*
Y00914691D01*
X00617396Y00914065D01*
X00616483Y00914765D01*
X00614540Y00915570D01*
Y00907000D01*
Y00898430D01*
X00616483Y00899235D01*
X00617396Y00899935D01*
X00618666Y00899308D01*
Y00846657D01*
X00609338Y00837328D01*
X00608615Y00836246D01*
X00608361Y00834971D01*
Y00827830D01*
X00608615Y00826554D01*
X00609338Y00825472D01*
X00615167Y00819642D01*
X00616249Y00818920D01*
X00617525Y00818666D01*
X00641343D01*
X00641706Y00817789D01*
X00643045Y00816045D01*
X00644789Y00814706D01*
X00646820Y00813865D01*
X00649000Y00813578D01*
X00651180Y00813865D01*
X00653211Y00814706D01*
X00654955Y00816045D01*
X00656294Y00817789D01*
X00657135Y00819820D01*
X00657422Y00822000D01*
X00657135Y00824180D01*
X00656294Y00826211D01*
X00656253Y00826264D01*
X00656267Y00826314D01*
X00656995Y00827383D01*
X00658902Y00827132D01*
X00659138Y00826924D01*
Y00816860D01*
X00654102Y00811824D01*
X00653380Y00810742D01*
X00653126Y00809466D01*
Y00759235D01*
X00652171Y00758398D01*
X00651999Y00758421D01*
X00649819Y00758134D01*
X00647788Y00757292D01*
X00646043Y00755954D01*
X00644914Y00754482D01*
X00643805Y00755122D01*
X00644744Y00757389D01*
X00645087Y00760000D01*
X00644744Y00762611D01*
X00643736Y00765044D01*
X00642133Y00767133D01*
X00640044Y00768736D01*
X00638651Y00769313D01*
Y00770687D01*
X00640044Y00771264D01*
X00642133Y00772867D01*
X00643736Y00774956D01*
X00644744Y00777389D01*
X00645087Y00780000D01*
X00644744Y00782611D01*
X00643736Y00785044D01*
X00642133Y00787133D01*
X00640044Y00788736D01*
X00637611Y00789744D01*
X00635000Y00790087D01*
X00632389Y00789744D01*
X00629956Y00788736D01*
X00627867Y00787133D01*
X00626264Y00785044D01*
X00625256Y00782611D01*
X00624913Y00780000D01*
X00625256Y00777389D01*
X00626264Y00774956D01*
X00627867Y00772867D01*
X00629956Y00771264D01*
X00631349Y00770687D01*
Y00769313D01*
X00629956Y00768736D01*
X00627867Y00767133D01*
X00626264Y00765044D01*
X00625256Y00762611D01*
X00624913Y00760000D01*
X00625256Y00757389D01*
X00626264Y00754956D01*
X00627867Y00752867D01*
X00629956Y00751264D01*
X00631189Y00750753D01*
Y00749379D01*
X00629956Y00748868D01*
X00627867Y00747265D01*
X00626264Y00745176D01*
X00625256Y00742743D01*
X00624913Y00740132D01*
X00625256Y00737521D01*
X00626264Y00735089D01*
X00627867Y00732999D01*
X00629956Y00731396D01*
X00631429Y00730786D01*
Y00729412D01*
X00629956Y00728802D01*
X00627867Y00727199D01*
X00626264Y00725110D01*
X00625256Y00722677D01*
X00624913Y00720066D01*
X00625256Y00717455D01*
X00626264Y00715023D01*
X00627867Y00712933D01*
X00627918Y00712159D01*
X00611752Y00695992D01*
X00611029Y00694910D01*
X00610775Y00693634D01*
Y00481021D01*
X00610441Y00480755D01*
X00609569Y00480431D01*
X00600000Y00490000D01*
Y00955000D01*
X00630000Y00985000D01*
Y01180000D01*
X00645000Y01195000D01*
X01035000D01*
X01085000Y01145000D01*
D02*
G37*
G36*
X01002184Y01151252D02*
Y01150131D01*
X01002514Y01146779D01*
X01003819Y01142478D01*
X01005937Y01138514D01*
X01008788Y01135040D01*
X01012263Y01132189D01*
X01016226Y01130070D01*
X01022753Y01128436D01*
X01025000D01*
Y01085000D01*
X00948303D01*
Y01176232D01*
Y01177134D01*
X00948657Y01179826D01*
X00950045Y01183175D01*
X00952252Y01186051D01*
X00955128Y01188258D01*
X00958477Y01189646D01*
X00961169Y01190000D01*
X01002184D01*
Y01151252D01*
D02*
G37*
%LPC*%
G36*
X00651540Y00504570D02*
Y00498540D01*
X00657570D01*
X00656765Y00500483D01*
X00655340Y00502340D01*
X00653483Y00503765D01*
X00651540Y00504570D01*
D02*
G37*
G36*
X00683040Y00632460D02*
X00679540D01*
Y00627960D01*
X00683040D01*
Y00632460D01*
D02*
G37*
G36*
X00678396Y00502460D02*
X00672300D01*
Y00495348D01*
X00678396D01*
Y00502460D01*
D02*
G37*
G36*
X00646460Y00504570D02*
X00644517Y00503765D01*
X00642660Y00502340D01*
X00641235Y00500483D01*
X00640430Y00498540D01*
X00646460D01*
Y00504570D01*
D02*
G37*
G36*
X00645298Y00512460D02*
X00637540D01*
Y00504703D01*
X00637752Y00504731D01*
X00640316Y00505793D01*
X00642518Y00507482D01*
X00644208Y00509684D01*
X00645270Y00512248D01*
X00645298Y00512460D01*
D02*
G37*
G36*
X01035460Y00606570D02*
X01033517Y00605765D01*
X01031660Y00604340D01*
X01030235Y00602483D01*
X01029430Y00600540D01*
X01035460D01*
Y00606570D01*
D02*
G37*
G36*
X00667220Y00514652D02*
X00661124D01*
Y00507540D01*
X00667220D01*
Y00514652D01*
D02*
G37*
G36*
X00683040Y00622040D02*
X00679540D01*
Y00617540D01*
X00683040D01*
Y00622040D01*
D02*
G37*
G36*
X01040540Y00606570D02*
Y00600540D01*
X01046570D01*
X01045765Y00602483D01*
X01044340Y00604340D01*
X01042483Y00605765D01*
X01040540Y00606570D01*
D02*
G37*
G36*
X00958500Y00665519D02*
X00956088Y00665201D01*
X00953841Y00664270D01*
X00951911Y00662789D01*
X00950430Y00660859D01*
X00949499Y00658612D01*
X00949181Y00656200D01*
X00949499Y00653788D01*
X00950430Y00651541D01*
X00951911Y00649611D01*
X00953841Y00648130D01*
X00956088Y00647199D01*
X00958500Y00646881D01*
X00960912Y00647199D01*
X00963159Y00648130D01*
X00965089Y00649611D01*
X00966570Y00651541D01*
X00967501Y00653788D01*
X00967819Y00656200D01*
X00967501Y00658612D01*
X00966570Y00660859D01*
X00965089Y00662789D01*
X00963159Y00664270D01*
X00960912Y00665201D01*
X00958500Y00665519D01*
D02*
G37*
G36*
X00852040Y00686460D02*
X00842540D01*
Y00679710D01*
X00852040D01*
Y00686460D01*
D02*
G37*
G36*
X00837460D02*
X00827960D01*
Y00679710D01*
X00837460D01*
Y00686460D01*
D02*
G37*
G36*
X00822040D02*
X00812540D01*
Y00679710D01*
X00822040D01*
Y00686460D01*
D02*
G37*
G36*
X00782540Y00698290D02*
Y00691540D01*
X00792040D01*
Y00698290D01*
X00782540D01*
D02*
G37*
G36*
X00983900Y00513119D02*
X00981488Y00512801D01*
X00979241Y00511870D01*
X00977311Y00510389D01*
X00975830Y00508459D01*
X00974899Y00506212D01*
X00974581Y00503800D01*
X00974899Y00501388D01*
X00975830Y00499141D01*
X00977311Y00497211D01*
X00979241Y00495730D01*
X00981488Y00494799D01*
X00983900Y00494481D01*
X00986312Y00494799D01*
X00988559Y00495730D01*
X00990489Y00497211D01*
X00991970Y00499141D01*
X00992901Y00501388D01*
X00993219Y00503800D01*
X00992901Y00506212D01*
X00991970Y00508459D01*
X00990489Y00510389D01*
X00988559Y00511870D01*
X00986312Y00512801D01*
X00983900Y00513119D01*
D02*
G37*
G36*
X00807460Y00698290D02*
X00797960D01*
Y00691540D01*
X00807460D01*
Y00698290D01*
D02*
G37*
G36*
Y00686460D02*
X00797960D01*
Y00679710D01*
X00807460D01*
Y00686460D01*
D02*
G37*
G36*
X01057560Y00665729D02*
X01057547Y00665727D01*
X01055168Y00664742D01*
X01053126Y00663174D01*
X01051558Y00661132D01*
X01050573Y00658753D01*
X01050571Y00658740D01*
X01057560D01*
Y00665729D01*
D02*
G37*
G36*
X00667220Y00502460D02*
X00661124D01*
Y00495348D01*
X00667220D01*
Y00502460D01*
D02*
G37*
G36*
X00983900Y00665519D02*
X00981488Y00665201D01*
X00979241Y00664270D01*
X00977311Y00662789D01*
X00975830Y00660859D01*
X00974899Y00658612D01*
X00974581Y00656200D01*
X00974899Y00653788D01*
X00975830Y00651541D01*
X00977311Y00649611D01*
X00979241Y00648130D01*
X00981488Y00647199D01*
X00983900Y00646881D01*
X00986312Y00647199D01*
X00988559Y00648130D01*
X00990489Y00649611D01*
X00991970Y00651541D01*
X00992901Y00653788D01*
X00993219Y00656200D01*
X00992901Y00658612D01*
X00991970Y00660859D01*
X00990489Y00662789D01*
X00988559Y00664270D01*
X00986312Y00665201D01*
X00983900Y00665519D01*
D02*
G37*
G36*
X00792040Y00686460D02*
X00782540D01*
Y00679710D01*
X00792040D01*
Y00686460D01*
D02*
G37*
G36*
X01034700Y00513119D02*
X01032288Y00512801D01*
X01030041Y00511870D01*
X01028111Y00510389D01*
X01026630Y00508459D01*
X01025699Y00506212D01*
X01025381Y00503800D01*
X01025699Y00501388D01*
X01026630Y00499141D01*
X01028111Y00497211D01*
X01030041Y00495730D01*
X01032288Y00494799D01*
X01034700Y00494481D01*
X01037112Y00494799D01*
X01039359Y00495730D01*
X01041289Y00497211D01*
X01042770Y00499141D01*
X01043701Y00501388D01*
X01044019Y00503800D01*
X01043701Y00506212D01*
X01042770Y00508459D01*
X01041289Y00510389D01*
X01039359Y00511870D01*
X01037112Y00512801D01*
X01034700Y00513119D01*
D02*
G37*
G36*
X01062640Y00665729D02*
Y00658740D01*
X01069629D01*
X01069627Y00658753D01*
X01068642Y00661132D01*
X01067074Y00663174D01*
X01065032Y00664742D01*
X01062653Y00665727D01*
X01062640Y00665729D01*
D02*
G37*
G36*
X01046570Y00595460D02*
X01040540D01*
Y00589430D01*
X01042483Y00590235D01*
X01044340Y00591660D01*
X01045765Y00593517D01*
X01046570Y00595460D01*
D02*
G37*
G36*
X00904695Y00542087D02*
X00902751Y00541282D01*
X00900894Y00539857D01*
X00899469Y00538000D01*
X00898664Y00536057D01*
X00904695D01*
Y00542087D01*
D02*
G37*
G36*
X00678396Y00539652D02*
X00672300D01*
Y00532540D01*
X00678396D01*
Y00539652D01*
D02*
G37*
G36*
X00667220D02*
X00661124D01*
Y00532540D01*
X00667220D01*
Y00539652D01*
D02*
G37*
G36*
X00907700Y00563919D02*
X00905288Y00563601D01*
X00903041Y00562670D01*
X00901111Y00561189D01*
X00899630Y00559259D01*
X00898699Y00557012D01*
X00898381Y00554600D01*
X00898699Y00552188D01*
X00899630Y00549940D01*
X00901111Y00548010D01*
X00903041Y00546530D01*
X00905288Y00545599D01*
X00907700Y00545281D01*
X00910112Y00545599D01*
X00912359Y00546530D01*
X00914289Y00548010D01*
X00915770Y00549940D01*
X00916701Y00552188D01*
X00917019Y00554600D01*
X00916701Y00557012D01*
X00915770Y00559259D01*
X00914289Y00561189D01*
X00912359Y00562670D01*
X00910112Y00563601D01*
X00907700Y00563919D01*
D02*
G37*
G36*
X00983900Y00538519D02*
X00981488Y00538201D01*
X00979241Y00537270D01*
X00977311Y00535789D01*
X00975830Y00533859D01*
X00974899Y00531612D01*
X00974581Y00529200D01*
X00974899Y00526788D01*
X00975830Y00524540D01*
X00977311Y00522611D01*
X00979241Y00521130D01*
X00981488Y00520199D01*
X00983900Y00519881D01*
X00986312Y00520199D01*
X00988559Y00521130D01*
X00990489Y00522611D01*
X00991970Y00524540D01*
X00992901Y00526788D01*
X00993219Y00529200D01*
X00992901Y00531612D01*
X00991970Y00533859D01*
X00990489Y00535789D01*
X00988559Y00537270D01*
X00986312Y00538201D01*
X00983900Y00538519D01*
D02*
G37*
G36*
X00909775Y00542087D02*
Y00536057D01*
X00915805D01*
X00915000Y00538000D01*
X00913575Y00539857D01*
X00911718Y00541282D01*
X00909775Y00542087D01*
D02*
G37*
G36*
X00678396Y00527460D02*
X00672300D01*
Y00520348D01*
X00678396D01*
Y00527460D01*
D02*
G37*
G36*
X01034700Y00538519D02*
X01032288Y00538201D01*
X01030041Y00537270D01*
X01028111Y00535789D01*
X01026630Y00533859D01*
X01025699Y00531612D01*
X01025381Y00529200D01*
X01025699Y00526788D01*
X01026630Y00524540D01*
X01028111Y00522611D01*
X01030041Y00521130D01*
X01032288Y00520199D01*
X01034700Y00519881D01*
X01037112Y00520199D01*
X01039359Y00521130D01*
X01041289Y00522611D01*
X01042770Y00524540D01*
X01043701Y00526788D01*
X01044019Y00529200D01*
X01043701Y00531612D01*
X01042770Y00533859D01*
X01041289Y00535789D01*
X01039359Y00537270D01*
X01037112Y00538201D01*
X01034700Y00538519D01*
D02*
G37*
G36*
X00667220Y00527460D02*
X00661124D01*
Y00520348D01*
X00667220D01*
Y00527460D01*
D02*
G37*
G36*
X01011540Y00533570D02*
Y00527540D01*
X01017570D01*
X01016765Y00529483D01*
X01015340Y00531340D01*
X01013483Y00532765D01*
X01011540Y00533570D01*
D02*
G37*
G36*
X00915805Y00530977D02*
X00909775D01*
Y00524946D01*
X00911718Y00525751D01*
X00913575Y00527176D01*
X00915000Y00529033D01*
X00915805Y00530977D01*
D02*
G37*
G36*
X00904695D02*
X00898664D01*
X00899469Y00529033D01*
X00900894Y00527176D01*
X00902751Y00525751D01*
X00904695Y00524946D01*
Y00530977D01*
D02*
G37*
G36*
X00879760Y00577460D02*
X00872771D01*
X00872773Y00577447D01*
X00873758Y00575068D01*
X00875325Y00573025D01*
X00877368Y00571458D01*
X00879747Y00570473D01*
X00879760Y00570471D01*
Y00577460D01*
D02*
G37*
G36*
X00678396Y00577460D02*
X00672300D01*
Y00570348D01*
X00678396D01*
Y00577460D01*
D02*
G37*
G36*
X00667220D02*
X00661124D01*
Y00570348D01*
X00667220D01*
Y00577460D01*
D02*
G37*
G36*
X01035460Y00595460D02*
X01029430D01*
X01030235Y00593517D01*
X01031660Y00591660D01*
X01033517Y00590235D01*
X01035460Y00589430D01*
Y00595460D01*
D02*
G37*
G36*
X00884840Y00589529D02*
Y00582540D01*
X00891829D01*
X00891827Y00582553D01*
X00890842Y00584931D01*
X00889274Y00586974D01*
X00887232Y00588542D01*
X00884853Y00589527D01*
X00884840Y00589529D01*
D02*
G37*
G36*
X00891829Y00577460D02*
X00884840D01*
Y00570471D01*
X00884853Y00570473D01*
X00887232Y00571458D01*
X00889274Y00573025D01*
X00890842Y00575068D01*
X00891827Y00577447D01*
X00891829Y00577460D01*
D02*
G37*
G36*
X01017570Y00522460D02*
X01011540D01*
Y00516430D01*
X01013483Y00517235D01*
X01015340Y00518660D01*
X01016765Y00520517D01*
X01017570Y00522460D01*
D02*
G37*
G36*
X00678396Y00552460D02*
X00672300D01*
Y00545348D01*
X00678396D01*
Y00552460D01*
D02*
G37*
G36*
X00667220D02*
X00661124D01*
Y00545348D01*
X00667220D01*
Y00552460D01*
D02*
G37*
G36*
X00678396Y00564652D02*
X00672300D01*
Y00557540D01*
X00678396D01*
Y00564652D01*
D02*
G37*
G36*
Y00514652D02*
X00672300D01*
Y00507540D01*
X00678396D01*
Y00514652D01*
D02*
G37*
G36*
X00667220Y00564652D02*
X00661124D01*
Y00557540D01*
X00667220D01*
Y00564652D01*
D02*
G37*
G36*
X00609460Y00904460D02*
X00603430D01*
X00604235Y00902517D01*
X00605660Y00900660D01*
X00607517Y00899235D01*
X00609460Y00898430D01*
Y00904460D01*
D02*
G37*
G36*
X00918460Y00892460D02*
X00912430D01*
X00913235Y00890517D01*
X00914660Y00888660D01*
X00916517Y00887235D01*
X00918460Y00886430D01*
Y00892460D01*
D02*
G37*
G36*
X00906290Y00887210D02*
X00898540D01*
Y00875210D01*
X00906290D01*
Y00887210D01*
D02*
G37*
G36*
X00699040Y00917460D02*
X00694540D01*
Y00912460D01*
X00699040D01*
Y00917460D01*
D02*
G37*
G36*
X00609460Y00915570D02*
X00607517Y00914765D01*
X00605660Y00913340D01*
X00604235Y00911483D01*
X00603430Y00909540D01*
X00609460D01*
Y00915570D01*
D02*
G37*
G36*
X00739540Y00913570D02*
Y00907540D01*
X00745570D01*
X00744765Y00909483D01*
X00743340Y00911340D01*
X00741483Y00912765D01*
X00739540Y00913570D01*
D02*
G37*
G36*
X00767540Y00874570D02*
Y00868540D01*
X00773570D01*
X00772765Y00870483D01*
X00771340Y00872340D01*
X00769483Y00873765D01*
X00767540Y00874570D01*
D02*
G37*
G36*
X00656362Y00844669D02*
X00654418Y00843864D01*
X00652561Y00842439D01*
X00651136Y00840582D01*
X00650331Y00838638D01*
X00656362D01*
Y00844669D01*
D02*
G37*
G36*
X00645298Y00842460D02*
X00637540D01*
Y00834703D01*
X00637752Y00834730D01*
X00640316Y00835792D01*
X00642518Y00837482D01*
X00644208Y00839684D01*
X00645270Y00842248D01*
X00645298Y00842460D01*
D02*
G37*
G36*
X00960540Y00827570D02*
Y00821540D01*
X00966570D01*
X00965765Y00823483D01*
X00964340Y00825340D01*
X00962483Y00826765D01*
X00960540Y00827570D01*
D02*
G37*
G36*
X00762460Y00874570D02*
X00760517Y00873765D01*
X00758660Y00872340D01*
X00757235Y00870483D01*
X00756430Y00868540D01*
X00762460D01*
Y00874570D01*
D02*
G37*
G36*
X00773570Y00863460D02*
X00767540D01*
Y00857430D01*
X00769483Y00858235D01*
X00771340Y00859660D01*
X00772765Y00861517D01*
X00773570Y00863460D01*
D02*
G37*
G36*
X00762460D02*
X00756430D01*
X00757235Y00861517D01*
X00758660Y00859660D01*
X00760517Y00858235D01*
X00762460Y00857430D01*
Y00863460D01*
D02*
G37*
G36*
X00768460Y01165570D02*
X00766517Y01164765D01*
X00764660Y01163340D01*
X00763235Y01161483D01*
X00762430Y01159540D01*
X00768460D01*
Y01165570D01*
D02*
G37*
G36*
X00929570Y01155460D02*
X00923540D01*
Y01149430D01*
X00925483Y01150235D01*
X00927340Y01151660D01*
X00928765Y01153517D01*
X00929570Y01155460D01*
D02*
G37*
G36*
X00918460D02*
X00912430D01*
X00913235Y01153517D01*
X00914660Y01151660D01*
X00916517Y01150235D01*
X00918460Y01149430D01*
Y01155460D01*
D02*
G37*
G36*
X00923540Y01166570D02*
Y01160540D01*
X00929570D01*
X00928765Y01162483D01*
X00927340Y01164340D01*
X00925483Y01165765D01*
X00923540Y01166570D01*
D02*
G37*
G36*
X00918460D02*
X00916517Y01165765D01*
X00914660Y01164340D01*
X00913235Y01162483D01*
X00912430Y01160540D01*
X00918460D01*
Y01166570D01*
D02*
G37*
G36*
X00773540Y01165570D02*
Y01159540D01*
X00779570D01*
X00778765Y01161483D01*
X00777340Y01163340D01*
X00775483Y01164765D01*
X00773540Y01165570D01*
D02*
G37*
G36*
X00779570Y01154460D02*
X00773540D01*
Y01148430D01*
X00775483Y01149235D01*
X00777340Y01150660D01*
X00778765Y01152517D01*
X00779570Y01154460D01*
D02*
G37*
G36*
X01067000Y01098500D02*
X01053000D01*
Y01085500D01*
X01056666D01*
Y01073000D01*
X01056920Y01071724D01*
X01057643Y01070642D01*
X01062062Y01066223D01*
X01062045Y01065955D01*
X01060706Y01064211D01*
X01059865Y01062180D01*
X01059578Y01060000D01*
X01059865Y01057820D01*
X01060706Y01055789D01*
X01062045Y01054045D01*
X01063789Y01052706D01*
X01065820Y01051865D01*
X01068000Y01051578D01*
X01070180Y01051865D01*
X01072211Y01052706D01*
X01073955Y01054045D01*
X01075294Y01055789D01*
X01076135Y01057820D01*
X01076422Y01060000D01*
X01076135Y01062180D01*
X01075294Y01064211D01*
X01073955Y01065955D01*
X01072211Y01067294D01*
X01070180Y01068135D01*
X01069489Y01068226D01*
X01063334Y01074381D01*
Y01085500D01*
X01067000D01*
Y01098500D01*
D02*
G37*
G36*
X00640570Y00950460D02*
X00634540D01*
Y00944430D01*
X00636483Y00945235D01*
X00638340Y00946660D01*
X00639765Y00948517D01*
X00640570Y00950460D01*
D02*
G37*
G36*
X00689460Y00927540D02*
X00684960D01*
Y00922540D01*
X00689460D01*
Y00927540D01*
D02*
G37*
G36*
X00768460Y01154460D02*
X00762430D01*
X00763235Y01152517D01*
X00764660Y01150660D01*
X00766517Y01149235D01*
X00768460Y01148430D01*
Y01154460D01*
D02*
G37*
G36*
X00784500Y01102000D02*
X00771500D01*
Y01088000D01*
X00774666D01*
Y01079381D01*
X00772057Y01076772D01*
X00771180Y01077135D01*
X00769000Y01077422D01*
X00766820Y01077135D01*
X00764789Y01076294D01*
X00763045Y01074955D01*
X00761706Y01073211D01*
X00760865Y01071180D01*
X00760578Y01069000D01*
X00760865Y01066820D01*
X00761706Y01064789D01*
X00763045Y01063045D01*
X00764789Y01061706D01*
X00766820Y01060865D01*
X00769000Y01060578D01*
X00771180Y01060865D01*
X00773211Y01061706D01*
X00774955Y01063045D01*
X00776294Y01064789D01*
X00777135Y01066820D01*
X00777422Y01069000D01*
X00777135Y01071180D01*
X00776772Y01072057D01*
X00780358Y01075642D01*
X00781080Y01076724D01*
X00781334Y01078000D01*
Y01088000D01*
X00784500D01*
Y01102000D01*
D02*
G37*
G36*
X00936500Y01102500D02*
X00921500D01*
Y01087500D01*
X00925666D01*
Y01067163D01*
X00924711Y01066326D01*
X00923998Y01066420D01*
X00921818Y01066133D01*
X00919787Y01065292D01*
X00918043Y01063953D01*
X00916704Y01062209D01*
X00915863Y01060178D01*
X00915576Y01057998D01*
X00915863Y01055818D01*
X00916704Y01053787D01*
X00918043Y01052043D01*
X00919787Y01050704D01*
X00921818Y01049863D01*
X00923998Y01049576D01*
X00926178Y01049863D01*
X00928209Y01050704D01*
X00929953Y01052043D01*
X00931292Y01053787D01*
X00932133Y01055818D01*
X00932420Y01057998D01*
X00932133Y01060178D01*
X00931718Y01061181D01*
X00932080Y01061724D01*
X00932334Y01063000D01*
Y01087500D01*
X00936500D01*
Y01102500D01*
D02*
G37*
G36*
X00991960Y00740540D02*
X00979460D01*
Y00735540D01*
X00991960D01*
Y00740540D01*
D02*
G37*
G36*
X00697570Y00738460D02*
X00691540D01*
Y00732430D01*
X00693483Y00733235D01*
X00695340Y00734660D01*
X00696765Y00736517D01*
X00697570Y00738460D01*
D02*
G37*
G36*
X00686460D02*
X00680430D01*
X00681235Y00736517D01*
X00682660Y00734660D01*
X00684517Y00733235D01*
X00686460Y00732430D01*
Y00738460D01*
D02*
G37*
G36*
Y00749570D02*
X00684517Y00748765D01*
X00682660Y00747340D01*
X00681235Y00745483D01*
X00680430Y00743540D01*
X00686460D01*
Y00749570D01*
D02*
G37*
G36*
X00954570Y00748460D02*
X00948540D01*
Y00742430D01*
X00950483Y00743235D01*
X00952340Y00744660D01*
X00953765Y00746517D01*
X00954570Y00748460D01*
D02*
G37*
G36*
X00943460D02*
X00937430D01*
X00938235Y00746517D01*
X00939660Y00744660D01*
X00941517Y00743235D01*
X00943460Y00742430D01*
Y00748460D01*
D02*
G37*
G36*
X00709290Y00729790D02*
X00703540D01*
Y00722540D01*
X00709290D01*
Y00729790D01*
D02*
G37*
G36*
X00872540Y00710040D02*
X00867540D01*
Y00705540D01*
X00872540D01*
Y00710040D01*
D02*
G37*
G36*
X00862460D02*
X00857460D01*
Y00705540D01*
X00862460D01*
Y00710040D01*
D02*
G37*
G36*
X00822460Y00700460D02*
X00816430D01*
X00816802Y00699560D01*
X00815954Y00698290D01*
X00812540D01*
Y00691540D01*
X00822040D01*
Y00693353D01*
X00822460Y00693652D01*
Y00700460D01*
D02*
G37*
G36*
X00698460Y00729790D02*
X00692710D01*
Y00722540D01*
X00698460D01*
Y00729790D01*
D02*
G37*
G36*
X00709290Y00717460D02*
X00703540D01*
Y00710210D01*
X00709290D01*
Y00717460D01*
D02*
G37*
G36*
X00698460D02*
X00692710D01*
Y00710210D01*
X00698460D01*
Y00717460D01*
D02*
G37*
G36*
X00927460Y00813570D02*
X00925517Y00812765D01*
X00923660Y00811340D01*
X00922235Y00809483D01*
X00921430Y00807540D01*
X00927460D01*
Y00813570D01*
D02*
G37*
G36*
X00917040Y00807460D02*
X00912540D01*
Y00802460D01*
X00917040D01*
Y00807460D01*
D02*
G37*
G36*
X01077570Y00804460D02*
X01071540D01*
Y00798430D01*
X01073483Y00799235D01*
X01075340Y00800660D01*
X01076765Y00802517D01*
X01077570Y00804460D01*
D02*
G37*
G36*
X01071540Y00815570D02*
Y00809540D01*
X01077570D01*
X01076765Y00811483D01*
X01075340Y00813340D01*
X01073483Y00814765D01*
X01071540Y00815570D01*
D02*
G37*
G36*
X01066460D02*
X01064517Y00814765D01*
X01062660Y00813340D01*
X01061235Y00811483D01*
X01060430Y00809540D01*
X01066460D01*
Y00815570D01*
D02*
G37*
G36*
X00932540Y00813570D02*
Y00807540D01*
X00938570D01*
X00937765Y00809483D01*
X00936340Y00811340D01*
X00934483Y00812765D01*
X00932540Y00813570D01*
D02*
G37*
G36*
X01066460Y00804460D02*
X01060430D01*
X01061235Y00802517D01*
X01062660Y00800660D01*
X01064517Y00799235D01*
X01066460Y00798430D01*
Y00804460D01*
D02*
G37*
G36*
X00709040Y00782460D02*
X00704540D01*
Y00777460D01*
X00709040D01*
Y00782460D01*
D02*
G37*
G36*
X00927390Y00769440D02*
X00915390D01*
Y00756440D01*
X00927390D01*
Y00769440D01*
D02*
G37*
G36*
X00944470D02*
X00932470D01*
Y00756440D01*
X00937532D01*
X00938105Y00755170D01*
X00937430Y00753540D01*
X00954570D01*
X00953765Y00755483D01*
X00952340Y00757340D01*
X00950483Y00758765D01*
X00948321Y00759661D01*
X00946000Y00759967D01*
X00945425Y00759891D01*
X00944470Y00760728D01*
Y00769440D01*
D02*
G37*
G36*
X00698569Y00802458D02*
X00692539D01*
Y00796428D01*
X00694482Y00797233D01*
X00696339Y00798658D01*
X00697764Y00800515D01*
X00698569Y00802458D01*
D02*
G37*
G36*
X00709040Y00792540D02*
X00704540D01*
Y00787540D01*
X00709040D01*
Y00792540D01*
D02*
G37*
G36*
X00800590Y00817460D02*
X00782540D01*
Y00788250D01*
X00784000D01*
Y00785710D01*
X00800590D01*
Y00817460D01*
D02*
G37*
%LPD*%
D10*
X00780000Y00820000D02*
D03*
D11*
X00818227Y00887500D02*
D03*
Y00882500D02*
D03*
Y00877500D02*
D03*
Y00872500D02*
D03*
Y00867500D02*
D03*
Y00862500D02*
D03*
Y00857500D02*
D03*
Y00852500D02*
D03*
Y00847500D02*
D03*
Y00842500D02*
D03*
Y00837500D02*
D03*
Y00832500D02*
D03*
Y00827500D02*
D03*
Y00822500D02*
D03*
Y00817500D02*
D03*
Y00812500D02*
D03*
Y00807500D02*
D03*
Y00802500D02*
D03*
Y00797500D02*
D03*
Y00792500D02*
D03*
Y00787500D02*
D03*
Y00782500D02*
D03*
Y00777500D02*
D03*
Y00772500D02*
D03*
Y00767500D02*
D03*
Y00762500D02*
D03*
Y00757500D02*
D03*
Y00752500D02*
D03*
X00741773D02*
D03*
Y00757500D02*
D03*
Y00762500D02*
D03*
Y00767500D02*
D03*
Y00772500D02*
D03*
Y00777500D02*
D03*
Y00782500D02*
D03*
Y00787500D02*
D03*
Y00792500D02*
D03*
Y00797500D02*
D03*
Y00802500D02*
D03*
Y00807500D02*
D03*
Y00812500D02*
D03*
Y00817500D02*
D03*
Y00822500D02*
D03*
Y00827500D02*
D03*
Y00832500D02*
D03*
Y00837500D02*
D03*
Y00842500D02*
D03*
Y00847500D02*
D03*
Y00852500D02*
D03*
Y00857500D02*
D03*
Y00862500D02*
D03*
Y00867500D02*
D03*
Y00872500D02*
D03*
Y00877500D02*
D03*
Y00882500D02*
D03*
Y00887500D02*
D03*
D12*
X00663000Y00655000D02*
D03*
X00677000D02*
D03*
X00663000Y00635000D02*
D03*
X00677000D02*
D03*
X00663000Y00615000D02*
D03*
X00677000D02*
D03*
D13*
X00791000Y00942000D02*
D03*
X00823000D02*
D03*
D14*
X00895000Y00845000D02*
D03*
X00911000D02*
D03*
X00825000Y00906000D02*
D03*
X00809000D02*
D03*
X00692000Y00920000D02*
D03*
X00708000D02*
D03*
X00702000Y00815000D02*
D03*
X00718000D02*
D03*
X00702000Y00785000D02*
D03*
X00718000D02*
D03*
X00702000Y00755000D02*
D03*
X00718000D02*
D03*
X00910000Y00810000D02*
D03*
X00894000D02*
D03*
X00740000Y00927000D02*
D03*
X00756000D02*
D03*
X00678000Y00870000D02*
D03*
X00662000D02*
D03*
X00708000Y00845000D02*
D03*
X00692000D02*
D03*
X00778000Y01095000D02*
D03*
X00762000D02*
D03*
D15*
X00929930Y00771980D02*
D03*
Y00707980D02*
D03*
D16*
X00870000Y00870000D02*
D03*
X00850000D02*
D03*
X00870000Y00828000D02*
D03*
X00850000D02*
D03*
X00850000Y00787710D02*
D03*
X00870000D02*
D03*
D17*
X00890000Y00738000D02*
D03*
Y00722000D02*
D03*
X00865000Y00738000D02*
D03*
Y00722000D02*
D03*
X00670000Y00902000D02*
D03*
Y00918000D02*
D03*
X00865000Y00687000D02*
D03*
Y00703000D02*
D03*
X00690000Y00903000D02*
D03*
Y00887000D02*
D03*
X00710000Y00903000D02*
D03*
Y00887000D02*
D03*
X00670000Y00763000D02*
D03*
Y00747000D02*
D03*
X00670000Y00733000D02*
D03*
Y00717000D02*
D03*
X01060000Y01092000D02*
D03*
Y01108000D02*
D03*
X00670000Y00693000D02*
D03*
Y00677000D02*
D03*
X00695000Y00693000D02*
D03*
Y00677000D02*
D03*
X00720000Y00693000D02*
D03*
Y00677000D02*
D03*
X00745000Y00693000D02*
D03*
Y00677000D02*
D03*
D18*
X00840000Y00689000D02*
D03*
Y00721000D02*
D03*
X00810000Y00689000D02*
D03*
Y00721000D02*
D03*
X00780000Y00689000D02*
D03*
Y00721000D02*
D03*
D19*
X00670000Y00781000D02*
D03*
Y00799000D02*
D03*
D20*
X00719000Y00720000D02*
D03*
X00701000D02*
D03*
D21*
X00978020Y00784930D02*
D03*
X01042020D02*
D03*
D22*
X00940000Y00882500D02*
D03*
Y00837500D02*
D03*
D23*
X00896000Y00920250D02*
D03*
Y00889750D02*
D03*
D24*
X00669760Y00580000D02*
D03*
X00700000D02*
D03*
X00669760Y00555000D02*
D03*
X00700000D02*
D03*
X00669760Y00530000D02*
D03*
X00700000D02*
D03*
X00669760Y00505000D02*
D03*
X00700000D02*
D03*
D25*
X00983500Y00870000D02*
D03*
X01036500D02*
D03*
D26*
X00929000Y01095000D02*
D03*
X00911000D02*
D03*
D27*
X01055500Y00710000D02*
D03*
D28*
X00994500D02*
D03*
Y00733000D02*
D03*
Y00687000D02*
D03*
D29*
X00695000Y01005500D02*
D03*
X00845000D02*
D03*
X00995000Y01005500D02*
D03*
D30*
X00656900Y01107500D02*
D03*
X00669600D02*
D03*
X00682300D02*
D03*
X00707700D02*
D03*
X00720400D02*
D03*
X00733100D02*
D03*
X00806900D02*
D03*
X00819600D02*
D03*
X00832300D02*
D03*
X00857700D02*
D03*
X00870400D02*
D03*
X00883100D02*
D03*
X00956900Y01107500D02*
D03*
X00969600D02*
D03*
X00982300D02*
D03*
X01007700D02*
D03*
X01020400D02*
D03*
X01033100D02*
D03*
D31*
X00696460Y00597224D02*
Y00632347D01*
X00687379Y00641428D02*
X00696460Y00632347D01*
X00687379Y00641428D02*
Y00641621D01*
X00695000Y00664807D02*
X00708366Y00651441D01*
X00686000Y00643000D02*
X00687379Y00641621D01*
X00672000Y00643000D02*
X00686000D01*
X00671460Y00646540D02*
X00694457D01*
X00695999Y00644999D01*
X00682617Y00671571D02*
X00704619Y00649569D01*
Y00641428D02*
Y00649569D01*
X00700000Y00636810D02*
X00704619Y00641428D01*
X00700000Y00580000D02*
Y00636810D01*
X00680620Y00671571D02*
X00682617D01*
X00715000Y00545000D02*
Y00672000D01*
X00718540Y00532122D02*
Y00660540D01*
X00700000Y00513582D02*
X00718540Y00532122D01*
X00700000Y00530000D02*
X00715000Y00545000D01*
X00881000Y00534000D02*
X00895000Y00520000D01*
Y00503052D02*
Y00520000D01*
Y00503052D02*
X00903761Y00494291D01*
X00904000Y00517000D02*
X00920900D01*
X00891809Y00529191D02*
X00904000Y00517000D01*
X00891809Y00529191D02*
Y00558539D01*
X00776811Y00578620D02*
X00808570D01*
X00762141Y00563951D02*
X00776811Y00578620D01*
X00670000Y00608000D02*
Y00641000D01*
X00637066Y00575066D02*
X00670000Y00608000D01*
X00635000Y00575066D02*
X00637066D01*
X00771004Y00927298D02*
X00773302Y00925000D01*
X00768626Y00921078D02*
X00790517D01*
X00764000Y00925704D02*
X00768626Y00921078D01*
X00756000Y00916000D02*
X00786000D01*
X00773302Y00925000D02*
X00794987D01*
X00764000Y00925704D02*
Y00933000D01*
X00794987Y00925000D02*
X00798000Y00921988D01*
Y00892000D02*
Y00921988D01*
X00795177Y00929817D02*
X00802230Y00922764D01*
X00777084Y00929817D02*
X00795177D01*
X00802230Y00900060D02*
Y00922764D01*
X00791000Y00942000D02*
X00812770Y00920230D01*
X00832076Y00926078D02*
X00849157Y00943160D01*
X00849562D01*
X00861402Y00955000D01*
X00850624Y00939620D02*
X00876630D01*
X00831002Y00919998D02*
X00850624Y00939620D01*
X00853086Y00936080D02*
X00875164D01*
X00844080Y00927074D02*
X00853086Y00936080D01*
X00844080Y00924074D02*
Y00927074D01*
X00855540Y00932540D02*
X00863657D01*
X00847620Y00924620D02*
X00855540Y00932540D01*
X00847620Y00896633D02*
Y00924620D01*
X00857810Y00929000D02*
X00862190D01*
X00851160Y00922350D02*
X00857810Y00929000D01*
X00851160Y00895166D02*
Y00922350D01*
X00835631Y00879637D02*
X00851160Y00895166D01*
X00832091Y00881103D02*
X00847620Y00896633D01*
X00833924Y00913918D02*
X00844080Y00924074D01*
X00862190Y00929000D02*
X00878900Y00912290D01*
X00875164Y00936080D02*
X00885980Y00925264D01*
X00863657Y00932540D02*
X00882440Y00913757D01*
X00826480Y00926078D02*
X00832076D01*
X00826480Y00913918D02*
X00833924D01*
X00822918Y00917480D02*
X00826480Y00913918D01*
X00885980Y00907310D02*
Y00925264D01*
X00876630Y00939620D02*
X00896000Y00920250D01*
X00878900Y00904377D02*
Y00912290D01*
X00882440Y00905844D02*
Y00913757D01*
X00886100Y00905900D02*
Y00907189D01*
X00885980Y00907310D02*
X00886100Y00907189D01*
X00882560Y00876440D02*
Y00905723D01*
X00882440Y00905844D02*
X00882560Y00905723D01*
X00879020Y00874973D02*
Y00904257D01*
X00878900Y00904377D02*
X00879020Y00904257D01*
X00860000Y00919000D02*
X00870000Y00909000D01*
X00822918Y00917480D02*
Y00922517D01*
X00826480Y00926078D01*
X00888460Y00852270D02*
X00901724D01*
X00888230Y00852039D02*
X00888460Y00852270D01*
X00888230Y00839060D02*
Y00852039D01*
Y00839060D02*
X00893289Y00834000D01*
X00876430Y00847380D02*
X00884618D01*
Y00819382D02*
Y00847380D01*
X00859342Y00809620D02*
X00861721Y00811998D01*
X00867000Y00816000D02*
X00870000Y00819000D01*
X00860716Y00816000D02*
X00867000D01*
X00857876Y00813160D02*
X00860716Y00816000D01*
X00818887Y00813160D02*
X00857876D01*
X00840647Y00806080D02*
X00868927D01*
X00858466Y00802540D02*
X00861006Y00800000D01*
X00842113Y00802540D02*
X00858466D01*
X00857000Y00799000D02*
X00860000Y00796000D01*
X00843579Y00799000D02*
X00857000D01*
X00856900Y00640291D02*
Y00656200D01*
X00664000Y00725000D02*
X00676000D01*
X00662540Y00726460D02*
X00664000Y00725000D01*
X00662540Y00726460D02*
Y00751648D01*
X00670000Y00810000D02*
X00685000Y00825000D01*
X00670000Y00799000D02*
Y00810000D01*
X00681379Y00809188D02*
X00694461Y00822270D01*
X00681379Y00801428D02*
Y00809188D01*
X00656460Y00757728D02*
Y00809466D01*
X00660000Y00759194D02*
Y00808000D01*
X00656460Y00757728D02*
X00662540Y00751648D01*
X00660000Y00759194D02*
X00664194Y00755000D01*
X00659000Y00722000D02*
Y00742997D01*
X00651999Y00749998D02*
X00659000Y00742997D01*
Y00722000D02*
X00664000Y00717000D01*
X00670000D01*
X00678000Y00711000D02*
Y00723000D01*
X00670000Y00703000D02*
X00678000Y00711000D01*
X00670000Y00693000D02*
Y00703000D01*
X00676000Y00725000D02*
X00678000Y00723000D01*
X00767999Y00938902D02*
Y00941998D01*
X00759379Y00937622D02*
X00764000Y00933000D01*
X00759379Y00937622D02*
Y00945569D01*
X01072270Y00919060D02*
Y01029730D01*
X00994500Y01107500D02*
X01072270Y01029730D01*
X00982300Y01107500D02*
X00994500D01*
X00844297Y01107500D02*
X00909398Y01042398D01*
X00777781Y00947998D02*
X00778998D01*
X00775161Y00950618D02*
X00777781Y00947998D01*
X00764428Y00950618D02*
X00775161D01*
X00656444Y00857840D02*
X00702846D01*
X00902000Y00804000D02*
Y00817000D01*
X00899000Y00801000D02*
X00902000Y00804000D01*
X00874007Y00801000D02*
X00899000D01*
X00949460Y00777534D02*
X00978534Y00748460D01*
X00980000Y00752000D02*
X00992000D01*
X00949460Y00777534D02*
Y00782540D01*
X00953000Y00779000D02*
X00980000Y00752000D01*
X00953000Y00779000D02*
Y00784006D01*
X00944000Y00788000D02*
X00949460Y00782540D01*
X00945006Y00792000D02*
X00953000Y00784006D01*
X00916000Y00788000D02*
X00944000D01*
X00914994Y00792000D02*
X00945006D01*
X00897144Y00774150D02*
X00914994Y00792000D01*
X00860844Y00774150D02*
X00897144D01*
X00895000Y00767000D02*
X00916000Y00788000D01*
X00858723Y00767000D02*
X00895000D01*
X00895540Y00795540D02*
X00960420D01*
X00877691Y00777690D02*
X00895540Y00795540D01*
X00960420D02*
X00964080Y00799200D01*
X00978534Y00748460D02*
X00993466D01*
X00971270Y00912270D02*
X00997940D01*
X00966587Y00907587D02*
X00971270Y00912270D01*
X00917663Y00907587D02*
X00966587D01*
X00997940Y00912270D02*
X00999270Y00910940D01*
Y00870000D02*
Y00910940D01*
Y00870000D02*
X01036500D01*
X01003000Y00898000D02*
Y00912217D01*
Y00898000D02*
X01005002Y00895998D01*
X00999407Y00915810D02*
X01003000Y00912217D01*
X00955000Y00874000D02*
Y00897000D01*
X00947980Y00904020D02*
X00955000Y00897000D01*
X00887980Y00904020D02*
X00947980D01*
X00955000Y00874000D02*
X00962000Y00867000D01*
X00938191Y00868000D02*
X00967730Y00838460D01*
X00923703Y00868000D02*
X00938191D01*
X00921998Y00869705D02*
X00923703Y00868000D01*
X00919348Y00875538D02*
X00929770D01*
X00913378Y00869569D02*
X00919348Y00875538D01*
X00904270Y00837730D02*
X00917770D01*
X00903000Y00839000D02*
X00904270Y00837730D01*
X00903000Y00839000D02*
Y00845000D01*
X00919236Y00834190D02*
X00921310Y00836264D01*
X00909856Y00834190D02*
X00919236D01*
X00909666Y00834000D02*
X00909856Y00834190D01*
X00917770Y00837730D02*
Y00850940D01*
X00921310Y00836264D02*
Y00854496D01*
X00893289Y00834000D02*
X00909666D01*
X00894000Y00845000D02*
X00903000D01*
X00868927Y00806080D02*
X00874007Y00801000D01*
X00902000Y00817000D02*
X00910570Y00825570D01*
X00670000Y00877000D02*
X00671706Y00878706D01*
X00670000Y00870000D02*
Y00877000D01*
X00662000Y00870000D02*
X00670000D01*
X00713000Y00805000D02*
X00722810D01*
X00710000Y00808000D02*
X00713000Y00805000D01*
X00710000Y00808000D02*
Y00815000D01*
X00702000D02*
X00710000D01*
X00681408Y00793408D02*
Y00801399D01*
X00678000Y00790000D02*
X00681408Y00793408D01*
X00670000Y00790000D02*
X00678000D01*
X00670000Y00781000D02*
Y00790000D01*
X00664194Y00755000D02*
X00670000D01*
Y00747000D02*
Y00755000D01*
X00696000Y00763000D02*
X00708000D01*
X00690230Y00757230D02*
X00696000Y00763000D01*
X00675770Y00757230D02*
X00690230D01*
X00708000Y00763000D02*
X00710000Y00761000D01*
Y00755000D02*
Y00761000D01*
Y00755000D02*
X00718000D01*
X00756380Y00676601D02*
Y00680620D01*
X00759920Y00678067D02*
Y00682086D01*
X00772994Y00670000D02*
X00893900D01*
X00763460Y00679534D02*
Y00683553D01*
X00760760Y00661660D02*
Y00672221D01*
X00756380Y00676601D02*
X00760760Y00672221D01*
X00769998Y00653454D02*
Y00667989D01*
X00759920Y00678067D02*
X00769998Y00667989D01*
X00763460Y00679534D02*
X00772994Y00670000D01*
X00774460Y00673540D02*
X00903808D01*
X00767000Y00681000D02*
X00774460Y00673540D01*
X00767000Y00681000D02*
Y00692217D01*
X00749006Y00693000D02*
X00759920Y00682086D01*
X00752000Y00685000D02*
X00756380Y00680620D01*
X00759350Y00687663D02*
X00763460Y00683553D01*
X00764619Y00694598D02*
X00767000Y00692217D01*
X00759350Y00687663D02*
Y00700650D01*
X00738000Y00685000D02*
X00752000D01*
X00745000Y00693000D02*
X00749006D01*
X00722000Y00710000D02*
X00747807D01*
X00705000Y00693000D02*
X00722000Y00710000D01*
X00695000Y00693000D02*
X00705000D01*
X00705999Y00665999D02*
Y00681001D01*
X00702000Y00685000D02*
X00705999Y00681001D01*
X00690290Y00685000D02*
X00702000D01*
X00682650Y00677360D02*
X00690290Y00685000D01*
X00675571Y00676620D02*
X00680620Y00671571D01*
X00695000Y00664807D02*
Y00677000D01*
X00663000Y00655000D02*
X00671460Y00646540D01*
X00670000Y00641000D02*
X00672000Y00643000D01*
X00700614Y00555614D02*
Y00570618D01*
X00700000Y00555000D02*
X00700614Y00555614D01*
X00728056Y00670056D02*
Y00672346D01*
X00718540Y00660540D02*
X00728056Y00670056D01*
X00727920Y00677518D02*
X00731482Y00681080D01*
X00727920Y00672482D02*
Y00677518D01*
Y00672482D02*
X00728056Y00672346D01*
X00715000Y00672000D02*
X00720000Y00677000D01*
X00736000Y00687000D02*
X00738000Y00685000D01*
X00736000Y00687000D02*
Y00698000D01*
X00720000D02*
X00736000D01*
X00738425Y00679174D02*
X00742827D01*
X00736518Y00681080D02*
X00738425Y00679174D01*
X00731482Y00681080D02*
X00736518D01*
X00742827Y00679174D02*
X00745000Y00677000D01*
X00768230Y00711980D02*
X00790440D01*
X00768230D02*
Y00718929D01*
X00790440Y00711980D02*
X00790460Y00712000D01*
X00799540D01*
X00799560Y00711980D01*
X00820440D01*
X00820460Y00712000D01*
X00861006Y00800000D02*
X00870000D01*
X00860000Y00780000D02*
Y00796000D01*
X00837061Y00807500D02*
X00839181Y00809620D01*
X00837067Y00802500D02*
X00840647Y00806080D01*
X00837073Y00797500D02*
X00842113Y00802540D01*
X00818227Y00812500D02*
X00818887Y00813160D01*
X00839181Y00809620D02*
X00859342D01*
X00837080Y00792500D02*
X00843579Y00799000D01*
X00849790Y00785204D02*
Y00787500D01*
X00818227D02*
X00849790D01*
Y00785204D02*
X00860844Y00774150D01*
X00837499Y00782500D02*
X00843959Y00776040D01*
X00818227Y00782500D02*
X00837499D01*
X00843959Y00776040D02*
X00849682D01*
X00858723Y00767000D01*
X00848216Y00772500D02*
X00875810Y00744907D01*
X00803095Y00772500D02*
X00848216D01*
X00860000Y00780000D02*
X00862310Y00777690D01*
X00818227Y00767500D02*
X00848210D01*
X00872270Y00743440D01*
X00831613Y00763160D02*
X00844037D01*
X00851160Y00756037D01*
X00833080Y00759620D02*
X00842570D01*
X00847620Y00754570D01*
X00809078Y00757500D02*
X00818227D01*
X00832091Y00869300D02*
Y00881103D01*
X00835631Y00867834D02*
Y00879637D01*
X00842000Y00881000D02*
X00858000D01*
X00839171Y00878171D02*
X00842000Y00881000D01*
X00839171Y00866158D02*
Y00878171D01*
X00827000Y00905000D02*
X00835000Y00897000D01*
X00828000Y00879000D02*
Y00890290D01*
X00815838Y00902451D02*
X00828000Y00890290D01*
X00818227Y00872500D02*
Y00877500D01*
X00826500D01*
X00828000Y00879000D01*
X00828717Y00860920D02*
X00835631Y00867834D01*
X00838961Y00866158D02*
X00839171D01*
X00830460Y00857657D02*
X00838961Y00866158D01*
X00843998Y00853698D02*
Y00853998D01*
X00830291Y00867500D02*
X00832091Y00869300D01*
X00809607Y00865036D02*
Y00869964D01*
Y00865036D02*
X00809643Y00865000D01*
X00809607Y00864964D02*
X00809643Y00865000D01*
X00809607Y00860036D02*
Y00864964D01*
Y00860036D02*
X00809643Y00860000D01*
X00809607Y00859964D02*
X00809643Y00860000D01*
X00809607Y00855036D02*
Y00859964D01*
X00806000Y00839997D02*
Y00884000D01*
X00835378Y00857569D02*
X00840428Y00862618D01*
X00835378Y00854975D02*
Y00857569D01*
X00827903Y00847500D02*
X00835378Y00854975D01*
X00818227Y00847500D02*
X00827903D01*
X00798000Y00892000D02*
X00806000Y00884000D01*
X00792000Y00861010D02*
X00800320Y00852690D01*
Y00833680D02*
Y00852690D01*
X00807000Y00891000D02*
X00809607Y00888393D01*
Y00880036D02*
Y00888393D01*
X00860000Y00862290D02*
Y00879000D01*
X00858000Y00881000D02*
X00860000Y00879000D01*
X00844520Y00867520D02*
X00847000Y00870000D01*
X00844520Y00866501D02*
Y00867520D01*
X00840637Y00862618D02*
X00844520Y00866501D01*
X00840428Y00862618D02*
X00840637D01*
X00862310Y00859980D02*
X00870020D01*
X00860000Y00862290D02*
X00862310Y00859980D01*
X00744000Y00949000D02*
X00748000Y00945000D01*
Y00918994D02*
Y00945000D01*
Y00918994D02*
X00754534Y00912460D01*
X00739786Y00922202D02*
X00761000Y00900987D01*
X00750357Y00885000D02*
X00750393Y00884964D01*
X00750357Y00885000D02*
X00761000Y00895643D01*
Y00900987D01*
X00739786Y00922202D02*
Y00927270D01*
X00750393Y00880036D02*
Y00884964D01*
X00812770Y00913270D02*
Y00920230D01*
X00747857Y00877500D02*
X00750393Y00880036D01*
X00741773Y00877500D02*
X00747857D01*
X00740567Y00878706D02*
X00741773Y00877500D01*
X00886100Y00905900D02*
X00887980Y00904020D01*
X00798998Y00767999D02*
X00799751Y00767246D01*
X00791998Y00773998D02*
X00792078Y00774079D01*
X00801517D01*
X00863998Y00538002D02*
X00882300Y00519700D01*
X00863998Y00538002D02*
Y00549999D01*
X00821991Y00499861D02*
Y00503009D01*
X00800000Y00525000D02*
X00821991Y00503009D01*
X00757000Y00525000D02*
X00800000D01*
X00806000Y00783643D02*
Y00794000D01*
X00754534Y00912460D02*
X00762736D01*
X00764540Y00910656D01*
Y00910530D02*
Y00910656D01*
Y00910530D02*
X00792000Y00883070D01*
X00790517Y00921078D02*
X00794078Y00917517D01*
Y00885998D02*
Y00917517D01*
X00759379Y00945569D02*
X00764428Y00950618D01*
X00778000Y01078000D02*
Y01095000D01*
X00769000Y01069000D02*
X00778000Y01078000D01*
X00682300Y01107500D02*
X00697500D01*
X00783622Y01043378D02*
X00784650Y01042349D01*
X00761622Y01043378D02*
X00783622D01*
X00697500Y01107500D02*
X00761622Y01043378D01*
X00910570Y00825570D02*
X00913427D01*
X00927560Y00823730D02*
X00939270D01*
X00926230Y00825060D02*
X00927560Y00823730D01*
X00749000Y00581190D02*
X00755999Y00588189D01*
X00818227Y00857500D02*
X00826920D01*
X00929000Y01063000D02*
Y01095000D01*
X00861998Y00843997D02*
Y00843997D01*
X00872270Y00739730D02*
Y00743440D01*
X00875810Y00744190D02*
X00882000Y00738000D01*
X00875810Y00744190D02*
Y00744907D01*
X00882000Y00738000D02*
X00890000D01*
X00862310Y00777690D02*
X00877691D01*
X00999270Y00851270D02*
X01008998Y00860998D01*
X00967730Y00833362D02*
X00973362Y00827730D01*
X00872270Y00739730D02*
X00890000Y00722000D01*
X00818227Y00752500D02*
X00837500D01*
X01060000Y01073000D02*
Y01092000D01*
X00870000Y00870000D02*
X00880000Y00860000D01*
X00780700Y00503800D02*
Y00515833D01*
X00780153Y00516380D02*
X00780700Y00515833D01*
X00926000Y00611000D02*
Y00646160D01*
X00920749Y00651411D02*
X00926000Y00646160D01*
X00920749Y00651411D02*
Y00661605D01*
X00905274Y00677080D02*
X00920749Y00661605D01*
X00895080Y00677080D02*
X00905274D01*
X00890000Y00682160D02*
X00895080Y00677080D01*
X00916700Y00693000D02*
X00929970Y00679730D01*
X00871000Y00693000D02*
X00916700D01*
X00865000Y00687000D02*
X00871000Y00693000D01*
X00962439Y00519691D02*
X00968009Y00525261D01*
X00907700Y00503800D02*
X00909998Y00506098D01*
X00950571Y00688620D02*
X00959461Y00679730D01*
X00934539D02*
X00943429Y00688620D01*
X00929970Y00679730D02*
X00934539D01*
X00959461D02*
X01014730D01*
X00957197Y00687000D02*
X00994500D01*
X00952037Y00692160D02*
X00957197Y00687000D01*
X00945750Y00692160D02*
X00952037D01*
X00929930Y00707980D02*
X00945750Y00692160D01*
X00943429Y00688620D02*
X00950571D01*
X00903808Y00673540D02*
X00917209Y00660139D01*
Y00652261D02*
Y00660139D01*
X00898191Y00633243D02*
X00917209Y00652261D01*
X00691000Y00490751D02*
X00843851D01*
X00827561Y00494291D02*
X00835439D01*
X00821991Y00499861D02*
X00827561Y00494291D01*
X01054232Y00648620D02*
X01077080Y00625772D01*
Y00497067D02*
Y00625772D01*
X00614109Y00693634D02*
X00630746Y00710271D01*
X00638316D01*
X01025000Y00637191D02*
Y00640000D01*
Y00637191D02*
X01073540Y00588651D01*
Y00498534D02*
Y00588651D01*
X00617649Y00677175D02*
X00630746Y00690271D01*
X00638382D01*
X00635000Y00700000D02*
X00641556Y00693445D01*
X01069609Y00500391D02*
X01070000Y00500000D01*
X01069748D02*
X01070000D01*
X00621189Y00660715D02*
X00630746Y00670271D01*
X00638382D01*
X00635000Y00680000D02*
X00641556Y00673445D01*
X00883620Y00601429D02*
Y00613571D01*
X00856900Y00640291D02*
X00883620Y00613571D01*
X00968009Y00525261D02*
Y00533139D01*
X00909998Y00591149D02*
X00968009Y00533139D01*
X00909998Y00591149D02*
Y00599999D01*
X00806100Y00656200D02*
X00812117Y00650183D01*
X00821991Y00660057D02*
Y00660139D01*
X00827561Y00665709D01*
X00835439D01*
X00841009Y00660139D01*
Y00643991D02*
Y00660139D01*
Y00643991D02*
X00850000Y00635000D01*
X00749063Y00781294D02*
X00756437Y00773920D01*
X00741773Y00792500D02*
X00751500D01*
X00741773Y00797500D02*
X00756500D01*
X00752500Y00802500D02*
X00757000Y00807000D01*
X00741773Y00802500D02*
X00752500D01*
X00757000Y00816643D02*
Y00817000D01*
X01015000Y00680000D02*
Y00687210D01*
X01014730Y00679730D02*
X01015000Y00680000D01*
X00998040Y00704170D02*
X01015000Y00687210D01*
X00998040Y00704170D02*
Y00704196D01*
X01018809Y00652261D02*
Y00691191D01*
X01000000Y00710000D02*
X01018809Y00691191D01*
X00995966Y00706270D02*
X00998040Y00704196D01*
X00990770Y00706270D02*
X00994500Y00710000D01*
X00700000Y00505000D02*
Y00513582D01*
X00700614Y00570618D02*
X00707036D01*
X00989519Y00725730D02*
X01007940D01*
X00979730Y00715940D02*
X00989519Y00725730D01*
X00979730Y00704060D02*
Y00715940D01*
Y00704060D02*
X00981060Y00702730D01*
X00994500D01*
Y00687000D02*
Y00702730D01*
X01042020Y00723480D02*
Y00784930D01*
Y00723480D02*
X01055500Y00710000D01*
X00745600Y01095000D02*
X00762000D01*
X00733100Y01107500D02*
X00745600Y01095000D01*
X00895600Y01095000D02*
X00911000D01*
X00883100Y01107500D02*
X00895600Y01095000D01*
X01033600Y01108000D02*
X01060000D01*
X01033100Y01107500D02*
X01033600Y01108000D01*
X00663000Y00615000D02*
Y00635000D01*
X00677000Y00655000D02*
Y00657810D01*
X00670000Y00918000D02*
X00675000D01*
X00693000Y00935000D02*
X00708000Y00920000D01*
X00635000Y00885000D02*
X00650000Y00870000D01*
X00683000Y00870000D02*
X00695000D01*
X00670000Y00763000D02*
X00675770Y00757230D01*
X00670000Y00763000D02*
X00689999Y00782999D01*
Y00784998D01*
X00718000Y00755000D02*
Y00785000D01*
X00726859D01*
X00689999Y00804998D02*
X00693778D01*
X00735695Y00812500D02*
X00741773D01*
X00734489Y00811294D02*
X00735695Y00812500D01*
X00731550Y00818374D02*
X00731556D01*
X00635000Y00905066D02*
X00655000Y00885066D01*
Y00864290D02*
Y00885066D01*
X00650000Y00864284D02*
Y00870000D01*
X00818227Y00752500D02*
X00840000Y00730727D01*
Y00721000D02*
Y00730727D01*
X00780000Y00721000D02*
X00810000D01*
X00893900Y00670000D02*
X00907700Y00656200D01*
X00725000Y00801805D02*
X00733153Y00809958D01*
X00725000Y00801805D02*
X00726447Y00800358D01*
X00917209Y00570491D02*
X00958500Y00529200D01*
X00903761Y00570491D02*
X00917209D01*
X00898191Y00576061D02*
X00903761Y00570491D01*
X00898191Y00576061D02*
Y00633243D01*
X00741773Y00767500D02*
X00741773Y00767500D01*
X00741773Y00772500D02*
X00752506D01*
X00741773Y00767500D02*
X00751443D01*
X00810000Y00721000D02*
X00840000D01*
X00641731Y00713686D02*
Y00718534D01*
X00640199Y00720066D02*
X00641731Y00718534D01*
X00635000Y00720066D02*
X00640199D01*
X00658902Y00836098D02*
X00661098D01*
X00935000Y00858710D02*
Y00859000D01*
X00926230Y00849940D02*
X00935000Y00858710D01*
X00967730Y00833362D02*
Y00838460D01*
X00818227Y00757500D02*
X00830960D01*
X00835900Y00833409D02*
X00837469D01*
X00880000Y00856000D02*
Y00860000D01*
X00818227Y00837500D02*
X00827800D01*
X00843998Y00853698D01*
X00707036Y00570618D02*
X00708366Y00571948D01*
Y00651441D01*
X00903761Y00494291D02*
X00911639D01*
X00921148Y00503800D01*
X00933100D01*
X00871380Y00852430D02*
X00876430Y00847380D01*
X00870000Y00828000D02*
Y00834000D01*
X00873998Y00837998D01*
X00875998D01*
X01016380Y00958620D02*
X01030000Y00945000D01*
X00905000Y00920250D02*
X00917663Y00907587D01*
X00861905Y00843905D02*
X00861998Y00843997D01*
X00871380Y00852430D02*
Y00858620D01*
X00870020Y00859980D02*
X00871380Y00858620D01*
X00861402Y00955000D02*
X00894000D01*
X00870000Y00870000D02*
Y00909000D01*
X00964080Y00799200D02*
X00980200D01*
X00973362Y00827730D02*
X00997940D01*
X00999270Y00829060D01*
Y00851270D01*
X00980200Y00799200D02*
X00998000Y00817000D01*
X01021620Y00739410D02*
Y00800571D01*
X01007940Y00725730D02*
X01021620Y00739410D01*
X01036500Y00863500D02*
Y00870000D01*
X01020000Y00802190D02*
X01021620Y00800571D01*
X01020000Y00847000D02*
X01036500Y00863500D01*
X01006620Y00813429D02*
Y00842620D01*
X01020000Y00802190D02*
Y00847000D01*
X01006620Y00842620D02*
X01009000Y00845000D01*
X01067000Y00856000D02*
Y00889000D01*
Y00856000D02*
X01072000Y00851000D01*
X01057998Y00873998D02*
Y00904788D01*
X01072270Y00919060D01*
X00750393Y00719604D02*
Y00759964D01*
X00865891Y00564109D02*
X00886239D01*
X00891809Y00558539D01*
X00856430Y00578620D02*
X00860810D01*
X00883620Y00601429D01*
X00847391Y00569581D02*
X00856430Y00578620D01*
X00835439Y00494291D02*
X00847391Y00506243D01*
X00831500Y00503800D02*
X00840000Y00512300D01*
X00847391Y00506243D02*
Y00569581D01*
X00882300Y00503800D02*
Y00519700D01*
X00920900Y00517000D02*
X00933100Y00529200D01*
X00909998Y00506098D02*
Y00513460D01*
X00922366D01*
X00928879Y00519973D01*
X00928879D01*
X00929161Y00519691D01*
X00962439D01*
X00663000Y00635000D02*
Y00655000D01*
X00646380Y00669380D02*
X00670000Y00693000D01*
Y00677000D02*
X00670380Y00676620D01*
X00675571D01*
X00682650Y00677360D02*
Y00681731D01*
X00649459Y00709539D02*
X00649999Y00708999D01*
X00638405Y00756595D02*
X00638405D01*
X00635000Y00760000D02*
X00638405Y00756595D01*
X00649459Y00709539D02*
Y00740199D01*
X00621189Y00483811D02*
Y00660715D01*
X00617649Y00482345D02*
Y00677175D01*
X00614109Y00480878D02*
Y00693634D01*
X00624729Y00486460D02*
Y00610729D01*
X00669811Y00664999D02*
X00671999D01*
X00691000Y00591764D02*
X00696460Y00597224D01*
X00847620Y00739380D02*
X00865000Y00722000D01*
X00851160Y00751840D02*
Y00756037D01*
Y00751840D02*
X00865000Y00738000D01*
X00847620Y00739380D02*
Y00754570D01*
X00837500Y00752500D02*
X00839000Y00751000D01*
X00710000Y00903000D02*
X00726273D01*
X00741773Y00887500D01*
X00756000Y00922040D02*
X00756000Y00922040D01*
X00756000Y00922040D02*
Y00927000D01*
X01071000Y01060000D02*
X01072000Y01061000D01*
X01068000Y01060000D02*
X01071000D01*
X00672309Y01005500D02*
X00695000D01*
X00622000Y00955191D02*
X00672309Y01005500D01*
X00622000Y00845276D02*
Y00955191D01*
X00611695Y00834971D02*
X00622000Y00845276D01*
X01001000Y00807810D02*
X01006620Y00813429D01*
X01004540Y00788540D02*
X01013000Y00797000D01*
X00992000Y00752000D02*
X01001000Y00761000D01*
Y00807810D01*
X00993466Y00748460D02*
X01004540Y00759534D01*
Y00788540D01*
X00955002Y00807998D02*
X00969998D01*
X00939270Y00823730D02*
X00955002Y00807998D01*
X00894000Y00845000D02*
X00894000Y00845000D01*
X00926230Y00825060D02*
Y00849940D01*
X00921998Y00865998D02*
Y00869705D01*
X00911000Y00845000D02*
Y00852270D01*
X00913378Y00862428D02*
X00921310Y00854496D01*
X00913378Y00862428D02*
Y00869569D01*
X00929770Y00872270D02*
X00940000Y00882500D01*
X00901724Y00852270D02*
X00911000D01*
X00912900Y00855810D02*
X00917770Y00850940D01*
X00903190Y00855810D02*
X00912900D01*
X00879020Y00874973D02*
X00901724Y00852270D01*
X00882560Y00876440D02*
X00903190Y00855810D01*
X00896000Y00920250D02*
X00905000D01*
X00940000Y00882500D02*
X00953380Y00869120D01*
Y00863429D02*
Y00869120D01*
Y00863429D02*
X00958429Y00858380D01*
X00965571D01*
X00970620Y00863429D01*
Y00870000D02*
X00983500D01*
X00829540Y00712000D02*
X00829560Y00711980D01*
X00820460Y00712000D02*
X00829540D01*
X00829560Y00711980D02*
X00840020D01*
X00865000Y00687000D01*
X00768620Y00533620D02*
X00805000Y00570000D01*
X00829000Y00531000D02*
Y00558190D01*
X00808570Y00578620D02*
X00829000Y00558190D01*
X00843570Y00628620D02*
X00867190Y00605000D01*
X00875000D01*
X00821380Y00628620D02*
X00843570D01*
X00820000Y00630000D02*
X00821380Y00628620D01*
X00840000Y00512300D02*
Y00620000D01*
X00998000Y00515100D02*
X01009300Y00503800D01*
X00998000Y00515100D02*
Y00631452D01*
X01018809Y00652261D01*
X01069609Y00500391D02*
Y00545391D01*
X01021000Y00594000D02*
Y00611000D01*
Y00594000D02*
X01069609Y00545391D01*
X00939000Y00938000D02*
Y00940996D01*
X00817727Y00762000D02*
X00818227Y00762500D01*
X00927000Y00947000D02*
X00930803D01*
X00894000Y00955000D02*
X00899000Y00950000D01*
X00939850Y00923987D02*
Y00924959D01*
X00930380Y00934429D02*
X00939850Y00924959D01*
X00930380Y00934429D02*
Y00941571D01*
X00939000Y00940996D02*
X00940924Y00942920D01*
X00944074D01*
X00971184Y00915810D01*
X00930380Y00941571D02*
X00935430Y00946620D01*
X00933963Y00950160D02*
X00982840D01*
X00935430Y00946620D02*
X00945380D01*
X00930803Y00947000D02*
X00933963Y00950160D01*
X00982840D02*
X00990380Y00942620D01*
X01005002Y00895998D02*
X01014998D01*
X00945380Y00946620D02*
X00960002Y00931998D01*
X00971184Y00915810D02*
X00999407D01*
X01014998Y00895998D02*
X01014998Y00895998D01*
Y00890998D02*
Y00895998D01*
X00911000Y00936000D02*
X00920920Y00945920D01*
Y00949518D01*
X00925102Y00953700D01*
X00984306D01*
X00991846Y00946160D01*
X00998037D01*
X01011424Y00932772D01*
Y00910575D02*
Y00932772D01*
X01012610Y00909386D02*
X01012614D01*
X01011998Y00909998D02*
X01012610Y00909386D01*
X00859020Y00819310D02*
Y00841020D01*
X00870000Y00819000D02*
Y00825000D01*
X00861721Y00811998D02*
X00876998D01*
X00828998Y00919998D02*
X00831002D01*
X00809607Y00880036D02*
X00809640Y00880003D01*
Y00879997D02*
Y00880003D01*
X00809607Y00879964D02*
X00809640Y00879997D01*
X00809607Y00875036D02*
Y00879964D01*
Y00875036D02*
X00809640Y00875003D01*
Y00874997D02*
Y00875003D01*
X00809607Y00874964D02*
X00809640Y00874997D01*
X00809607Y00850036D02*
X00809643Y00850000D01*
X00809607Y00849964D02*
X00809643Y00850000D01*
X00809607Y00845036D02*
Y00849964D01*
Y00870036D02*
Y00874964D01*
Y00870036D02*
X00809643Y00870000D01*
X00809607Y00869964D02*
X00809643Y00870000D01*
X00818227Y00852500D02*
X00827897D01*
X00809607Y00855036D02*
X00809643Y00855000D01*
X00809607Y00854965D02*
X00809643Y00855000D01*
X00809607Y00850036D02*
Y00854965D01*
X00741773Y00787500D02*
X00750920D01*
X00751500Y00792500D02*
X00757000Y00787000D01*
X00780000Y00820000D02*
X00806000Y00794000D01*
X00802000Y00747000D02*
X00802598D01*
X00809078Y00753480D01*
X00796998Y00754998D02*
X00802229D01*
X00806000Y00839997D02*
X00806998Y00838998D01*
X00812620Y00958620D02*
X01016380D01*
X00796000Y00942000D02*
X00812620Y00958620D01*
X00791000Y00942000D02*
X00796000D01*
X00847000Y00870000D02*
X00850000D01*
X00827897Y00852500D02*
X00830460Y00855063D01*
Y00857657D01*
X00826920Y00857500D02*
Y00860920D01*
Y00862500D01*
X00818227D02*
X00826920D01*
X00818227Y00867500D02*
X00830291D01*
X00826920Y00860920D02*
X00828717D01*
X00757000Y00837000D02*
Y00853357D01*
X00750393Y00842754D02*
Y00849964D01*
X00741773Y00842500D02*
Y00842754D01*
X00750393Y00833880D02*
Y00839964D01*
Y00833880D02*
X00764273Y00820000D01*
X00780000D01*
X00735500Y00882500D02*
X00741773D01*
X00730000Y00835000D02*
X00733182D01*
X00729620Y00888380D02*
Y00888570D01*
Y00888380D02*
X00735500Y00882500D01*
X00710000Y00887000D02*
X00712000Y00885000D01*
X00681430Y00833620D02*
X00714337D01*
X00670000Y00902000D02*
X00674000D01*
X00660000Y00895000D02*
X00682000D01*
X00690000Y00887000D01*
X00823000Y00927604D02*
Y00942000D01*
X00819378Y00923983D02*
X00823000Y00927604D01*
X00819378Y00908622D02*
Y00923983D01*
Y00908622D02*
X00823000Y00905000D01*
X00827000D01*
X00718296Y00814704D02*
X00727887D01*
X00731006Y00817824D01*
Y00817830D01*
X00731550Y00818374D01*
X00754998Y00714999D02*
X00755999D01*
X00750393Y00719604D02*
X00754998Y00714999D01*
X00747807Y00710000D02*
X00751428Y00706379D01*
X00756780Y00575220D02*
Y00581480D01*
Y00575220D02*
X00759000Y00573000D01*
X00739409Y00519691D02*
X00755300Y00503800D01*
X00711500Y00848500D02*
X00717000Y00854000D01*
X00770080Y00773920D02*
X00771000Y00773000D01*
X00756437Y00773920D02*
X00770080D01*
X00763080Y00780920D02*
X00764000Y00780000D01*
X00756500Y00797500D02*
X00757000Y00797000D01*
X00720000Y00693000D02*
Y00698000D01*
X00715666Y00723334D02*
X00719000Y00720000D01*
X00715666Y00723334D02*
Y00737477D01*
X00734000Y00665548D02*
Y00675000D01*
Y00665548D02*
X00739409Y00660139D01*
Y00519691D02*
Y00660139D01*
X00755300Y00656200D02*
X00760760Y00661660D01*
X00745460Y00630650D02*
X00754429Y00639620D01*
X00762587Y00560410D02*
X00769998Y00552999D01*
X00666809Y00668000D02*
X00669811Y00664999D01*
X00677000Y00657810D01*
X00990770Y00706270D02*
X00995966D01*
X00994500Y00710000D02*
X01000000D01*
X01055500D01*
X00741773Y00842754D02*
X00750393D01*
X00982300Y01107500D02*
X00987400Y01102400D01*
X00832300Y01107500D02*
X00844297D01*
X00638382Y00670271D02*
X00641556Y00673445D01*
X00638382Y00690271D02*
X00641556Y00693445D01*
X00812117Y00650183D02*
X00821991Y00660057D01*
X01011424Y00910575D02*
X01012614Y00909386D01*
X00847000Y00825000D02*
X00850000D01*
X00970620Y00863429D02*
Y00870000D01*
X01060000Y01073000D02*
X01072000Y01061000D01*
X00859020Y00841020D02*
X00861998Y00843997D01*
X00920998Y01054998D02*
X00929000Y01063000D01*
X00638316Y00710271D02*
X00641731Y00713686D01*
X01042280Y00648620D02*
X01054232D01*
X00637380Y00755571D02*
X00638405Y00756595D01*
X00755999Y00588189D02*
Y00628999D01*
X00756780Y00581480D02*
X00831500Y00656200D01*
X00785000Y00629000D02*
Y00638452D01*
X00769998Y00653454D02*
X00785000Y00638452D01*
X00770998Y00638999D02*
X00770999D01*
X00754429Y00639620D02*
X00770377D01*
X00770998Y00638999D01*
X00748380Y00521429D02*
X00753429Y00516380D01*
X00748380Y00521429D02*
Y00528571D01*
X00753429Y00533620D01*
Y00516380D02*
X00780153D01*
X00753429Y00533620D02*
X00768620D01*
X00756000Y00916000D02*
Y00922040D01*
X00787002Y00914998D02*
X00787998D01*
X00815838Y00902451D02*
Y00911872D01*
X00814440Y00913270D02*
X00815838Y00911872D01*
X00812770Y00913270D02*
X00814440D01*
X00809000Y00904284D02*
Y00906000D01*
X00807000Y00891000D02*
Y00895289D01*
X00802230Y00900060D02*
X00807000Y00895289D01*
X00767999Y00938902D02*
X00777084Y00929817D01*
X00792000Y00861010D02*
Y00883070D01*
X00794078Y00885998D02*
X00798998Y00881078D01*
Y00863998D02*
Y00881078D01*
X00611695Y00827830D02*
Y00834971D01*
X00649999Y00525999D02*
Y00540001D01*
X00635000Y00555000D02*
X00649999Y00540001D01*
X00745460Y00569343D02*
X00754393Y00560410D01*
X00749000Y00570810D02*
Y00581190D01*
Y00570810D02*
X00755859Y00563951D01*
X00762141D01*
X00745460Y00569343D02*
Y00630650D01*
X00754393Y00560410D02*
X00762587D01*
X01034700Y00656200D02*
X01042280Y00648620D01*
X00860000Y00570000D02*
X00865891Y00564109D01*
X00681379Y00801428D02*
X00681408Y00801399D01*
X00718000Y00815000D02*
X00718296Y00814704D01*
X00884618Y00819382D02*
X00894000Y00810000D01*
X00809000Y00904284D02*
X00818227Y00895057D01*
Y00887500D02*
Y00895057D01*
X00960002Y00931998D02*
X00990998D01*
X00990380Y00942620D02*
X00996571D01*
X01002804Y00936386D01*
Y00924430D02*
Y00936386D01*
X01055853Y00475840D02*
X01077080Y00497067D01*
X00614109Y00480878D02*
X00619147Y00475840D01*
X01054386Y00479380D02*
X01073540Y00498534D01*
X00617649Y00482345D02*
X00620614Y00479380D01*
X01052668Y00482920D02*
X01069748Y00500000D01*
X00621189Y00483811D02*
X00622080Y00482920D01*
X00941160Y00486460D02*
X00958500Y00503800D01*
X00619147Y00475840D02*
X01055853D01*
X00620614Y00479380D02*
X01054386D01*
X00622080Y00482920D02*
X01052668D01*
X00624729Y00486460D02*
X00941160D01*
X00691000Y00490751D02*
Y00591764D01*
X00843851Y00490751D02*
X00856900Y00503800D01*
X00786000Y00916000D02*
X00787002Y00914998D01*
X00635000Y00865000D02*
X00645700Y00854300D01*
X00650000Y00864284D02*
X00656444Y00857840D01*
X00645700Y00854300D02*
X00704313D01*
X00695000Y00870000D02*
X00695000Y00870000D01*
X00741773Y00852500D02*
X00747857D01*
X00750393Y00849964D01*
X00741773Y00842500D02*
X00747857D01*
X00750393Y00839964D01*
X00733182Y00835000D02*
X00735682Y00832500D01*
X00741773D01*
X00836560D02*
X00837469Y00833409D01*
X00818227Y00832500D02*
X00836560D01*
X00646380Y00646380D02*
X00652617D01*
X00652999Y00645999D01*
X00624729Y00610729D02*
X00643999Y00629999D01*
X00646380Y00646380D02*
Y00669380D01*
X00634087Y00755571D02*
X00637380D01*
X00634087D02*
X00649459Y00740199D01*
X00870000Y00787710D02*
Y00800000D01*
X00806000Y00783643D02*
X00812143Y00777500D01*
X00818227D01*
X00801517Y00774079D02*
X00803095Y00772500D01*
X00818227Y00792500D02*
X00837080D01*
X00799751Y00767246D02*
X00817487D01*
X00809231Y00762000D02*
X00817727D01*
X00830960Y00757500D02*
X00833080Y00759620D01*
X00818227Y00762500D02*
X00830954D01*
X00831613Y00763160D01*
X00809078Y00753480D02*
Y00757500D01*
X00802229Y00754998D02*
X00805538Y00758308D01*
Y00758966D01*
X00807612Y00761040D01*
X00808271D01*
X00809231Y00762000D01*
X00722877Y00805067D02*
X00723256D01*
X00726447Y00796447D02*
Y00800358D01*
X00726859Y00785000D02*
X00734359Y00777500D01*
X00741773D01*
X00715666Y00737477D02*
X00735688Y00757500D01*
X00741773D01*
Y00762500D02*
X00747857D01*
X00750393Y00759964D01*
X00754482Y00780920D02*
X00763080D01*
X00750920Y00784482D02*
Y00787500D01*
Y00784482D02*
X00754482Y00780920D01*
X00749063Y00781294D02*
Y00781332D01*
X00747895Y00782500D02*
X00749063Y00781332D01*
X00741773Y00782500D02*
X00747895D01*
X00741773Y00807500D02*
X00747857D01*
X00757000Y00816643D01*
X00694461Y00822270D02*
X00729734D01*
X00735688Y00867500D02*
X00741773D01*
X00734216Y00866040D02*
X00734229D01*
X00735688Y00867500D01*
X00809607Y00845036D02*
X00812142Y00842500D01*
X00818227D01*
X00800320Y00833680D02*
X00806500Y00827500D01*
X00818227D01*
Y00797500D02*
X00837073D01*
X00818227Y00802500D02*
X00837067D01*
X00818227Y00807500D02*
X00837061D01*
X00818227Y00822500D02*
X00844500D01*
X00847000Y00825000D01*
X00819433Y00817980D02*
X00857690D01*
X00859020Y00819310D01*
X00722810Y00805000D02*
X00722877Y00805067D01*
X00751428Y00706379D02*
X00753621D01*
X00759350Y00700650D01*
X00764619Y00694598D02*
Y00718569D01*
X00768158Y00719000D02*
X00768230Y00718929D01*
X00768158Y00719000D02*
Y00720035D01*
X00757473Y00730721D02*
X00768158Y00720035D01*
X00752506Y00772500D02*
X00757473Y00767533D01*
X00751443Y00767500D02*
X00753933Y00765010D01*
Y00729255D02*
Y00765010D01*
X00757473Y00730721D02*
Y00767533D01*
X00753933Y00729255D02*
X00764619Y00718569D01*
X00611695Y00827830D02*
X00617525Y00822000D01*
X00649000D01*
X00674000Y00902000D02*
X00676000Y00904000D01*
X00675000Y00918000D02*
X00690000Y00903000D01*
X00660000Y00895000D02*
Y00924000D01*
X00671000Y00935000D01*
X00693000D01*
X00702846Y00857840D02*
X00709840Y00864834D01*
X00704313Y00854300D02*
X00708079Y00858066D01*
X00701380Y00861380D02*
X00711676Y00871676D01*
X00712000Y00885000D02*
X00721000D01*
X00747857Y00862500D02*
X00757000Y00853357D01*
X00708079Y00858066D02*
X00717940D01*
X00718006Y00858000D01*
X00709840Y00864834D02*
X00723000D01*
X00711676Y00871676D02*
X00726115D01*
X00726939Y00872500D01*
X00741773D01*
X00723000Y00864834D02*
X00733010D01*
X00734216Y00866040D01*
X00732195Y00854000D02*
X00733153Y00854958D01*
Y00854965D01*
X00735688Y00857500D01*
X00741773D01*
X00735682Y00862500D02*
X00747857D01*
X00717430Y00876380D02*
X00724570D01*
X00726897Y00878706D01*
X00740567D01*
X00671706D02*
X00715103D01*
X00717430Y00876380D01*
X00690000Y00903000D02*
X00698000Y00895000D01*
X00723191D01*
X00729620Y00888570D01*
X00662472Y00827478D02*
X00672154Y00837160D01*
X00656460Y00809466D02*
X00662472Y00815478D01*
Y00827478D01*
X00660000Y00808000D02*
X00667000Y00815000D01*
Y00819191D01*
X00681430Y00833620D01*
X00672154Y00837160D02*
X00712870D01*
X00718006Y00858000D02*
X00731182D01*
X00735682Y00862500D01*
X00717000Y00854000D02*
X00732195D01*
X00723256Y00805067D02*
X00735688Y00817500D01*
X00741773D01*
X00731556Y00818374D02*
X00734222Y00821040D01*
X00734229D01*
X00735689Y00822500D01*
X00741773D01*
X00729734Y00822270D02*
X00734964Y00827500D01*
X00741773D01*
X00727999Y00832999D02*
X00730000Y00835000D01*
X00735688Y00837500D02*
X00741773D01*
X00714337Y00833620D02*
X00723717Y00843000D01*
X00730188D01*
X00735688Y00837500D01*
X00712870Y00837160D02*
X00722710Y00847000D01*
X00741773D01*
X00655000Y00864290D02*
X00657910Y00861380D01*
X00701380D01*
D32*
X00635000Y00555000D02*
D03*
Y00515000D02*
D03*
Y00595132D02*
D03*
Y00575066D02*
D03*
Y00535000D02*
D03*
Y00760000D02*
D03*
Y00740132D02*
D03*
Y00720066D02*
D03*
Y00780000D02*
D03*
Y00700000D02*
D03*
Y00680000D02*
D03*
Y00660000D02*
D03*
Y00845000D02*
D03*
Y00865000D02*
D03*
Y00885000D02*
D03*
Y00905066D02*
D03*
D33*
X01060100Y00656200D02*
D03*
X01034700D02*
D03*
X01009300D02*
D03*
X00983900D02*
D03*
X00958500D02*
D03*
X00933100D02*
D03*
X00907700D02*
D03*
X00882300D02*
D03*
X00856900D02*
D03*
X00831500D02*
D03*
X00806100D02*
D03*
X00780700D02*
D03*
X00755300D02*
D03*
X00729900D02*
D03*
Y00630800D02*
D03*
Y00605400D02*
D03*
Y00580000D02*
D03*
Y00503800D02*
D03*
X00755300D02*
D03*
X00780700D02*
D03*
X00806100D02*
D03*
X00831500D02*
D03*
X00856900D02*
D03*
X00882300D02*
D03*
X00907700D02*
D03*
X00933100D02*
D03*
X00958500D02*
D03*
X00983900D02*
D03*
X01009300D02*
D03*
X01034700D02*
D03*
Y00529200D02*
D03*
X00983900D02*
D03*
X00958500D02*
D03*
X00933100D02*
D03*
X00882300Y00554600D02*
D03*
X00907700D02*
D03*
X00882300Y00580000D02*
D03*
X00907700D02*
D03*
X00729900Y00529200D02*
D03*
X01060100Y00503800D02*
D03*
X00729900Y00554600D02*
D03*
D34*
X00695999Y00644999D02*
D03*
X00860000Y00919000D02*
D03*
X00909398Y01042398D02*
D03*
X00835000Y00897000D02*
D03*
X00843998Y00853998D02*
D03*
X00765000Y00866000D02*
D03*
X00744000Y00949000D02*
D03*
X00767999Y00941998D02*
D03*
X00769000Y01069000D02*
D03*
X00784650Y01042349D02*
D03*
X00930000Y00805000D02*
D03*
X00913427Y00825570D02*
D03*
X01008998Y00860998D02*
D03*
X00805000Y00570000D02*
D03*
X00926000Y00611000D02*
D03*
X00890000Y00682160D02*
D03*
X01025000Y00640000D02*
D03*
X00909998Y00599999D02*
D03*
X00850000Y00635000D02*
D03*
X00955000Y01115000D02*
D03*
Y01100000D02*
D03*
X00970000Y01115000D02*
D03*
Y01100000D02*
D03*
X00985000D02*
D03*
Y01115000D02*
D03*
X01000000Y01100000D02*
D03*
Y01115000D02*
D03*
X01015000D02*
D03*
Y01100000D02*
D03*
X00805000Y01115000D02*
D03*
Y01100000D02*
D03*
X00820000Y01115000D02*
D03*
Y01100000D02*
D03*
X00835000D02*
D03*
Y01115000D02*
D03*
X00850000Y01100000D02*
D03*
Y01115000D02*
D03*
X00865000D02*
D03*
Y01100000D02*
D03*
X00715000D02*
D03*
Y01115000D02*
D03*
X00700000D02*
D03*
Y01100000D02*
D03*
X00685000Y01115000D02*
D03*
Y01100000D02*
D03*
X00670000D02*
D03*
Y01115000D02*
D03*
X00655000Y01100000D02*
D03*
Y01115000D02*
D03*
X01045000Y00945000D02*
D03*
X01060000D02*
D03*
Y00930000D02*
D03*
X01030000D02*
D03*
Y00945000D02*
D03*
X01045000Y00930000D02*
D03*
X00689999Y00784998D02*
D03*
X00685000Y00825000D02*
D03*
X00689999Y00804998D02*
D03*
X00658902Y00836098D02*
D03*
X00935000Y00859000D02*
D03*
X00835900Y00833409D02*
D03*
X00880000Y00856000D02*
D03*
X00705999Y00665999D02*
D03*
X00875998Y00837998D02*
D03*
X00962000Y00867000D02*
D03*
X00923998Y01057998D02*
D03*
X00861905Y00843905D02*
D03*
X00969998Y00807998D02*
D03*
X00998000Y00817000D02*
D03*
X01013000Y00797000D02*
D03*
X01067000Y00889000D02*
D03*
X01009000Y00845000D02*
D03*
X01072000Y00851000D02*
D03*
X01057998Y00873998D02*
D03*
X00727460Y00736540D02*
D03*
X00689000Y00741000D02*
D03*
X00860000Y00570000D02*
D03*
X00829000Y00531000D02*
D03*
X00881000Y00534000D02*
D03*
X00863998Y00549999D02*
D03*
X00907235Y00533517D02*
D03*
X00682650Y00681731D02*
D03*
X00649999Y00708999D02*
D03*
X00651999Y00749998D02*
D03*
X00649999Y00525999D02*
D03*
X00649000Y00496000D02*
D03*
X00643999Y00629999D02*
D03*
X00676000Y00598000D02*
D03*
X00671999Y00664999D02*
D03*
X00839000Y00751000D02*
D03*
X00620315Y00831400D02*
D03*
X00737000Y00905000D02*
D03*
X00632000Y00953000D02*
D03*
X01068000Y01060000D02*
D03*
X00612000Y00907000D02*
D03*
X00771000Y01157000D02*
D03*
X00921000Y01158000D02*
D03*
X01069000Y00807000D02*
D03*
X00946000Y00751000D02*
D03*
X00983000Y00764000D02*
D03*
X00958000Y00819000D02*
D03*
X00921998Y00865998D02*
D03*
X00921000Y00895000D02*
D03*
X00825000Y00703000D02*
D03*
X00875000Y00605000D02*
D03*
X00820000Y00630000D02*
D03*
X00840000Y00620000D02*
D03*
X01009000Y00525000D02*
D03*
X01038000Y00598000D02*
D03*
X01021000Y00611000D02*
D03*
X00939000Y00938000D02*
D03*
X00899000Y00950000D02*
D03*
X00939850Y00923987D02*
D03*
X01002804Y00924430D02*
D03*
X01014998Y00890998D02*
D03*
X01011998Y00909998D02*
D03*
X00876998Y00811998D02*
D03*
X00825000Y00733000D02*
D03*
X00755999Y00714999D02*
D03*
X00759000Y00573000D02*
D03*
X00769998Y00552999D02*
D03*
X00755999Y00628999D02*
D03*
X00785000Y00629000D02*
D03*
X00770999Y00638999D02*
D03*
X00757000Y00525000D02*
D03*
X00990998Y00931998D02*
D03*
X00695000Y00870000D02*
D03*
X00652999Y00645999D02*
D03*
X00726447Y00796447D02*
D03*
X00649000Y00822000D02*
D03*
X00676000Y00904000D02*
D03*
X00721000Y00885000D02*
D03*
X00727999Y00832999D02*
D03*
D35*
X00771004Y00927298D02*
D03*
X00778998Y00947998D02*
D03*
X00791998Y00773998D02*
D03*
X00798998Y00767999D02*
D03*
X00757000Y00807000D02*
D03*
Y00817000D02*
D03*
X00927000Y00947000D02*
D03*
X00911000Y00936000D02*
D03*
X00828998Y00919998D02*
D03*
X00757000Y00787000D02*
D03*
X00802000Y00747000D02*
D03*
X00796998Y00754998D02*
D03*
X00806998Y00838998D02*
D03*
X00757000Y00837000D02*
D03*
X00771000Y00773000D02*
D03*
X00764000Y00780000D02*
D03*
X00757000Y00797000D02*
D03*
X00734000Y00675000D02*
D03*
X00787998Y00914998D02*
D03*
X00798998Y00863998D02*
D03*
X00723000Y00864834D02*
D03*
X00730000Y00872000D02*
D03*
D36*
X00791811Y00847559D02*
D03*
Y00792441D02*
D03*
X00783937D02*
D03*
X00776063D02*
D03*
X00768189D02*
D03*
Y00800315D02*
D03*
X00776063D02*
D03*
X00783937D02*
D03*
X00791811D02*
D03*
Y00808189D02*
D03*
X00783937D02*
D03*
X00776063D02*
D03*
X00768189D02*
D03*
X00791811Y00816063D02*
D03*
X00783937D02*
D03*
X00776063D02*
D03*
X00768189D02*
D03*
X00791811Y00823937D02*
D03*
X00783937D02*
D03*
X00776063D02*
D03*
X00768189D02*
D03*
X00791811Y00831811D02*
D03*
X00783937D02*
D03*
X00776063D02*
D03*
X00768189D02*
D03*
X00791811Y00839685D02*
D03*
X00783937D02*
D03*
X00776063D02*
D03*
X00768189D02*
D03*
X00783937Y00847559D02*
D03*
X00768189D02*
D03*
X00776063D02*
D03*
M02*
