G04 Layer_Color=16711935*
%FSAX44Y44*%
%MOMM*%
G71*
G01*
G75*
%ADD46R,1.1032X1.2032*%
%ADD49R,1.2032X1.1032*%
%ADD50R,2.1032X1.5532*%
%ADD61R,10.8032X9.0032*%
%ADD62R,1.1516X4.2516*%
%ADD63C,1.8034*%
%ADD64C,1.6510*%
%ADD65C,0.9144*%
%ADD66C,0.6604*%
%ADD67C,0.7112*%
%ADD68R,7.5832X2.6432*%
G36*
X00725133Y01006010D02*
X00725264Y01005984D01*
X00725390Y01005941D01*
X00725509Y01005882D01*
X00725620Y01005808D01*
X00725720Y01005720D01*
X00725808Y01005620D01*
X00725882Y01005509D01*
X00725941Y01005390D01*
X00725984Y01005264D01*
X00726010Y01005133D01*
X00726018Y01005000D01*
Y00930000D01*
X00726010Y00929867D01*
X00725984Y00929736D01*
X00725941Y00929610D01*
X00725882Y00929491D01*
X00725808Y00929380D01*
X00725720Y00929280D01*
X00725620Y00929192D01*
X00725509Y00929118D01*
X00725390Y00929059D01*
X00725264Y00929016D01*
X00725133Y00928990D01*
X00725000Y00928982D01*
X00650000D01*
X00649867Y00928990D01*
X00649736Y00929016D01*
X00649610Y00929059D01*
X00649491Y00929118D01*
X00649380Y00929192D01*
X00649280Y00929280D01*
X00649192Y00929380D01*
X00649118Y00929491D01*
X00649059Y00929610D01*
X00649016Y00929736D01*
X00648990Y00929867D01*
X00648982Y00930000D01*
Y01005000D01*
X00648990Y01005133D01*
X00649016Y01005264D01*
X00649059Y01005390D01*
X00649118Y01005509D01*
X00649192Y01005620D01*
X00649280Y01005720D01*
X00649380Y01005808D01*
X00649491Y01005882D01*
X00649610Y01005941D01*
X00649736Y01005984D01*
X00649867Y01006010D01*
X00650000Y01006018D01*
X00725000D01*
X00725133Y01006010D01*
D02*
G37*
G36*
X01070133Y00956010D02*
X01070264Y00955984D01*
X01070390Y00955941D01*
X01070509Y00955882D01*
X01070620Y00955808D01*
X01070720Y00955720D01*
X01070808Y00955620D01*
X01070882Y00955509D01*
X01070941Y00955390D01*
X01070984Y00955264D01*
X01071010Y00955133D01*
X01071018Y00955000D01*
X01071018Y00909344D01*
Y00908731D01*
X01071009Y00908598D01*
X01070769Y00906772D01*
X01070743Y00906641D01*
X01070700Y00906515D01*
X01069759Y00904242D01*
X01069700Y00904122D01*
X01069626Y00904012D01*
X01068128Y00902060D01*
X01068040Y00901960D01*
X01067940Y00901872D01*
X01065988Y00900374D01*
X01065878Y00900300D01*
X01065758Y00900241D01*
X01063485Y00899300D01*
X01063359Y00899257D01*
X01063228Y00899231D01*
X01061401Y00898990D01*
X01061401Y00898990D01*
X01061311Y00898985D01*
X01061268Y00898982D01*
X01061268D01*
X01061268D01*
X01060655Y00898982D01*
X01031149D01*
X01031016Y00898990D01*
X01028684Y00899298D01*
X01028553Y00899324D01*
X01028427Y00899366D01*
X01025525Y00900569D01*
X01025405Y00900628D01*
X01025294Y00900702D01*
X01022802Y00902614D01*
X01022702Y00902702D01*
X01022614Y00902802D01*
X01020702Y00905294D01*
X01020628Y00905405D01*
X01020569Y00905525D01*
X01019366Y00908427D01*
X01019324Y00908553D01*
X01019298Y00908684D01*
X01018990Y00911016D01*
X01018982Y00911149D01*
Y00911931D01*
X01018982Y00911931D01*
X01018984Y00911969D01*
X01018985Y00912007D01*
X01019138Y00914072D01*
X01018833Y00920327D01*
X01017797Y00925537D01*
X01016086Y00930576D01*
X01013733Y00935349D01*
X01010776Y00939773D01*
X01007268Y00943774D01*
X01003268Y00947282D01*
X00999732Y00949637D01*
X00998503Y00950333D01*
X00998502Y00950333D01*
X00998208Y00950499D01*
X00998204Y00950502D01*
X00998199Y00950505D01*
X00998147Y00950540D01*
X00998097Y00950573D01*
X00998093Y00950576D01*
X00998088Y00950579D01*
X00998042Y00950620D01*
X00997996Y00950660D01*
X00997992Y00950664D01*
X00997988Y00950667D01*
X00997949Y00950712D01*
X00997907Y00950759D01*
X00997904Y00950764D01*
X00997900Y00950768D01*
X00997286Y00951571D01*
X00997269Y00951598D01*
X00997249Y00951624D01*
X00997232Y00951654D01*
X00997213Y00951682D01*
X00997198Y00951711D01*
X00997182Y00951739D01*
X00997169Y00951771D01*
X00997154Y00951802D01*
X00997144Y00951832D01*
X00997131Y00951862D01*
X00997122Y00951895D01*
X00997112Y00951928D01*
X00997105Y00951960D01*
X00997097Y00951991D01*
X00996940Y00952779D01*
X00996940Y00952780D01*
X00996923Y00952912D01*
Y00953045D01*
Y00953045D01*
X00996940Y00953177D01*
X00997097Y00953966D01*
X00997131Y00954094D01*
X00997182Y00954217D01*
X00997249Y00954333D01*
X00997696Y00955002D01*
X00997726Y00955041D01*
X00997755Y00955082D01*
X00997767Y00955094D01*
X00997777Y00955107D01*
X00997812Y00955143D01*
X00997846Y00955179D01*
X00997859Y00955189D01*
X00997871Y00955201D01*
X00997911Y00955232D01*
X00997949Y00955263D01*
X00997963Y00955272D01*
X00997977Y00955282D01*
X00998020Y00955307D01*
X00998062Y00955334D01*
X00999118Y00955898D01*
X00999164Y00955919D01*
X00999208Y00955941D01*
X00999224Y00955946D01*
X00999239Y00955953D01*
X00999287Y00955967D01*
X00999334Y00955983D01*
X00999351Y00955987D01*
X00999367Y00955992D01*
X00999416Y00956000D01*
X00999465Y00956009D01*
X00999482Y00956011D01*
X00999498Y00956013D01*
X00999548Y00956015D01*
X00999598Y00956018D01*
X01000000D01*
X01000000Y00956018D01*
X01070000Y00956018D01*
X01070133Y00956010D01*
D02*
G37*
G36*
X01025133Y01006010D02*
X01025264Y01005984D01*
X01025390Y01005941D01*
X01025509Y01005882D01*
X01025620Y01005808D01*
X01025720Y01005720D01*
X01025808Y01005620D01*
X01025882Y01005509D01*
X01025941Y01005390D01*
X01025984Y01005264D01*
X01026010Y01005133D01*
X01026018Y01005000D01*
Y00960000D01*
X01026010Y00959867D01*
X01025984Y00959736D01*
X01025941Y00959610D01*
X01025882Y00959491D01*
X01025808Y00959380D01*
X01025720Y00959280D01*
X01025620Y00959192D01*
X01025509Y00959118D01*
X01025390Y00959059D01*
X01025264Y00959016D01*
X01025133Y00958990D01*
X01025000Y00958982D01*
X00995000Y00958982D01*
X00995000Y00958982D01*
X00993648Y00958982D01*
X00989601Y00957968D01*
X00987195Y00956682D01*
X00985066Y00954934D01*
X00983318Y00952805D01*
X00982032Y00950399D01*
X00981018Y00946352D01*
X00981018Y00945000D01*
Y00900000D01*
X00981018Y00900000D01*
Y00899017D01*
X00981015Y00898967D01*
X00981013Y00898918D01*
X00980724Y00895980D01*
X00980719Y00895947D01*
X00980715Y00895913D01*
X00980708Y00895881D01*
X00980702Y00895848D01*
X00980693Y00895816D01*
X00980685Y00895784D01*
X00979541Y00892014D01*
X00979530Y00891983D01*
X00979520Y00891951D01*
X00979506Y00891920D01*
X00979494Y00891889D01*
X00979479Y00891860D01*
X00979465Y00891829D01*
X00977608Y00888355D01*
X00977590Y00888326D01*
X00977574Y00888297D01*
X00977555Y00888270D01*
X00977538Y00888242D01*
X00977516Y00888216D01*
X00977497Y00888189D01*
X00974998Y00885144D01*
X00974975Y00885119D01*
X00974954Y00885093D01*
X00974929Y00885071D01*
X00974907Y00885046D01*
X00974881Y00885025D01*
X00974856Y00885002D01*
X00971811Y00882503D01*
X00971784Y00882484D01*
X00971758Y00882462D01*
X00971730Y00882445D01*
X00971703Y00882426D01*
X00971674Y00882410D01*
X00971645Y00882392D01*
X00968171Y00880535D01*
X00968140Y00880521D01*
X00968111Y00880506D01*
X00968080Y00880494D01*
X00968049Y00880480D01*
X00968018Y00880471D01*
X00967986Y00880459D01*
X00964216Y00879315D01*
X00964184Y00879307D01*
X00964152Y00879298D01*
X00964119Y00879292D01*
X00964087Y00879285D01*
X00964054Y00879282D01*
X00964020Y00879276D01*
X00961082Y00878987D01*
X00961032Y00878985D01*
X00960983Y00878982D01*
X00960000D01*
X00800000Y00878982D01*
X00799411D01*
X00797655Y00878751D01*
X00795470Y00877846D01*
X00793594Y00876406D01*
X00792154Y00874530D01*
X00791249Y00872345D01*
X00791018Y00870589D01*
Y00870000D01*
X00791018Y00860000D01*
X00791018Y00859999D01*
X00791018Y00859005D01*
X00791015Y00858955D01*
X00791013Y00858905D01*
X00791010Y00858889D01*
X00791009Y00858873D01*
X00791000Y00858824D01*
X00790992Y00858774D01*
X00790987Y00858758D01*
X00790983Y00858742D01*
X00790967Y00858694D01*
X00790953Y00858647D01*
X00790946Y00858632D01*
X00790941Y00858616D01*
X00790919Y00858571D01*
X00790898Y00858525D01*
X00789503Y00855915D01*
X00789485Y00855887D01*
X00789469Y00855857D01*
X00789450Y00855831D01*
X00789432Y00855802D01*
X00789411Y00855776D01*
X00789392Y00855749D01*
X00789369Y00855725D01*
X00789348Y00855699D01*
X00789323Y00855676D01*
X00789301Y00855652D01*
X00789275Y00855631D01*
X00789251Y00855608D01*
X00789223Y00855589D01*
X00789198Y00855567D01*
X00789169Y00855550D01*
X00789142Y00855530D01*
X00789113Y00855515D01*
X00789085Y00855497D01*
X00786475Y00854102D01*
X00786429Y00854081D01*
X00786384Y00854059D01*
X00786368Y00854054D01*
X00786353Y00854047D01*
X00786306Y00854033D01*
X00786258Y00854016D01*
X00786242Y00854013D01*
X00786226Y00854008D01*
X00786176Y00854000D01*
X00786127Y00853990D01*
X00786111Y00853989D01*
X00786094Y00853987D01*
X00786044Y00853985D01*
X00785994Y00853982D01*
X00785000Y00853982D01*
X00785000D01*
D01*
X00745000Y00853982D01*
X00744999Y00853982D01*
X00744508Y00853982D01*
X00744474Y00853984D01*
X00744441D01*
X00744408Y00853988D01*
X00744375Y00853991D01*
X00744342Y00853997D01*
X00744309Y00854001D01*
X00742850Y00854292D01*
X00742816Y00854301D01*
X00742722Y00854326D01*
X00742650Y00854356D01*
X00742599Y00854377D01*
X00742483Y00854444D01*
X00742483Y00854444D01*
X00740830Y00855548D01*
X00740829Y00855549D01*
X00740724Y00855630D01*
X00740630Y00855724D01*
X00740549Y00855830D01*
X00739444Y00857484D01*
X00739377Y00857599D01*
X00739326Y00857722D01*
X00739292Y00857850D01*
X00739001Y00859309D01*
X00738997Y00859342D01*
X00738990Y00859375D01*
X00738988Y00859408D01*
X00738984Y00859441D01*
Y00859474D01*
X00738982Y00859508D01*
Y00860000D01*
X00738982Y00870000D01*
Y00870589D01*
X00738751Y00872345D01*
X00737846Y00874530D01*
X00736406Y00876406D01*
X00734530Y00877846D01*
X00732345Y00878751D01*
X00730589Y00878982D01*
X00650000D01*
X00649867Y00878990D01*
X00649736Y00879016D01*
X00649610Y00879059D01*
X00649491Y00879118D01*
X00649380Y00879192D01*
X00649280Y00879280D01*
X00649192Y00879380D01*
X00649118Y00879491D01*
X00649059Y00879610D01*
X00649016Y00879736D01*
X00648990Y00879867D01*
X00648982Y00880000D01*
Y00910000D01*
X00648990Y00910133D01*
X00649016Y00910264D01*
X00649059Y00910390D01*
X00649118Y00910509D01*
X00649192Y00910620D01*
X00649280Y00910720D01*
X00649380Y00910808D01*
X00649491Y00910882D01*
X00649610Y00910941D01*
X00649736Y00910984D01*
X00649867Y00911010D01*
X00650000Y00911018D01*
X00930000D01*
D01*
X00930933Y00911018D01*
X00933721Y00911293D01*
X00937299Y00912378D01*
X00940597Y00914141D01*
X00943487Y00916513D01*
X00945859Y00919403D01*
X00947622Y00922701D01*
X00948707Y00926279D01*
X00948982Y00929067D01*
X00948982Y00930000D01*
D01*
Y00930000D01*
X00948982Y01005000D01*
X00948990Y01005133D01*
X00949016Y01005264D01*
X00949059Y01005390D01*
X00949118Y01005509D01*
X00949192Y01005620D01*
X00949280Y01005720D01*
X00949380Y01005808D01*
X00949491Y01005882D01*
X00949610Y01005941D01*
X00949736Y01005984D01*
X00949867Y01006010D01*
X00950000Y01006018D01*
X01025000D01*
X01025133Y01006010D01*
D02*
G37*
G36*
X00875133D02*
X00875264Y01005984D01*
X00875390Y01005941D01*
X00875509Y01005882D01*
X00875620Y01005808D01*
X00875720Y01005720D01*
X00875808Y01005620D01*
X00875882Y01005509D01*
X00875941Y01005390D01*
X00875984Y01005264D01*
X00876010Y01005133D01*
X00876018Y01005000D01*
Y00930000D01*
X00876010Y00929867D01*
X00875984Y00929736D01*
X00875941Y00929610D01*
X00875882Y00929491D01*
X00875808Y00929380D01*
X00875720Y00929280D01*
X00875620Y00929192D01*
X00875509Y00929118D01*
X00875390Y00929059D01*
X00875264Y00929016D01*
X00875133Y00928990D01*
X00875000Y00928982D01*
X00800000D01*
X00799867Y00928990D01*
X00799736Y00929016D01*
X00799610Y00929059D01*
X00799491Y00929118D01*
X00799380Y00929192D01*
X00799280Y00929280D01*
X00799192Y00929380D01*
X00799118Y00929491D01*
X00799059Y00929610D01*
X00799016Y00929736D01*
X00798990Y00929867D01*
X00798982Y00930000D01*
Y01005000D01*
X00798990Y01005133D01*
X00799016Y01005264D01*
X00799059Y01005390D01*
X00799118Y01005509D01*
X00799192Y01005620D01*
X00799280Y01005720D01*
X00799380Y01005808D01*
X00799491Y01005882D01*
X00799610Y01005941D01*
X00799736Y01005984D01*
X00799867Y01006010D01*
X00800000Y01006018D01*
X00875000D01*
X00875133Y01006010D01*
D02*
G37*
D46*
X00762000Y00955000D02*
D03*
X00778000D02*
D03*
X00762000Y00920000D02*
D03*
X00778000D02*
D03*
X00912000Y00955000D02*
D03*
X00928000D02*
D03*
X00912000Y00920000D02*
D03*
X00928000D02*
D03*
X00778000Y00995000D02*
D03*
X00762000D02*
D03*
X00928000D02*
D03*
X00912000D02*
D03*
D49*
X00935000Y00547000D02*
D03*
Y00563000D02*
D03*
X00955000Y00547000D02*
D03*
Y00563000D02*
D03*
X00975000Y00547000D02*
D03*
Y00563000D02*
D03*
X00995000Y00547000D02*
D03*
Y00563000D02*
D03*
X01015000Y00547000D02*
D03*
Y00563000D02*
D03*
X01060000Y00982000D02*
D03*
Y00998000D02*
D03*
D50*
X00845000Y00704000D02*
D03*
Y00736000D02*
D03*
X00875000Y00704000D02*
D03*
Y00736000D02*
D03*
X00905000Y00704000D02*
D03*
Y00736000D02*
D03*
X00935000Y00704000D02*
D03*
Y00736000D02*
D03*
X00965000Y00704000D02*
D03*
Y00736000D02*
D03*
X00995000Y00704000D02*
D03*
Y00736000D02*
D03*
D61*
X00695000Y01084500D02*
D03*
X00845000D02*
D03*
X00995000D02*
D03*
D62*
X00656900Y00982500D02*
D03*
X00669600D02*
D03*
X00682300D02*
D03*
X00707700D02*
D03*
X00720400D02*
D03*
X00733100D02*
D03*
X00806900D02*
D03*
X00819600D02*
D03*
X00832300D02*
D03*
X00857700D02*
D03*
X00870400D02*
D03*
X00883100D02*
D03*
X00956900D02*
D03*
X00969600D02*
D03*
X00982300D02*
D03*
X01007700D02*
D03*
X01020400D02*
D03*
X01033100D02*
D03*
D63*
X00635000Y00555000D02*
D03*
Y00515000D02*
D03*
Y00595132D02*
D03*
Y00575066D02*
D03*
Y00535000D02*
D03*
Y00760000D02*
D03*
Y00740132D02*
D03*
Y00720066D02*
D03*
Y00780000D02*
D03*
Y00700000D02*
D03*
Y00680000D02*
D03*
Y00660000D02*
D03*
Y00845000D02*
D03*
Y00865000D02*
D03*
Y00885000D02*
D03*
Y00905066D02*
D03*
D64*
X01060100Y00656200D02*
D03*
X01034700D02*
D03*
X01009300D02*
D03*
X00983900D02*
D03*
X00958500D02*
D03*
X00933100D02*
D03*
X00907700D02*
D03*
X00882300D02*
D03*
X00856900D02*
D03*
X00831500D02*
D03*
X00806100D02*
D03*
X00780700D02*
D03*
X00755300D02*
D03*
X00729900D02*
D03*
Y00630800D02*
D03*
Y00605400D02*
D03*
Y00580000D02*
D03*
Y00503800D02*
D03*
X00755300D02*
D03*
X00780700D02*
D03*
X00806100D02*
D03*
X00831500D02*
D03*
X00856900D02*
D03*
X00882300D02*
D03*
X00907700D02*
D03*
X00933100D02*
D03*
X00958500D02*
D03*
X00983900D02*
D03*
X01009300D02*
D03*
X01034700D02*
D03*
Y00529200D02*
D03*
X00983900D02*
D03*
X00958500D02*
D03*
X00933100D02*
D03*
X00882300Y00554600D02*
D03*
X00907700D02*
D03*
X00882300Y00580000D02*
D03*
X00907700D02*
D03*
X00729900Y00529200D02*
D03*
X01060100Y00503800D02*
D03*
X00729900Y00554600D02*
D03*
D65*
X00695999Y00644999D02*
D03*
X00860000Y00919000D02*
D03*
X00835000Y00897000D02*
D03*
X00843998Y00853998D02*
D03*
X00765000Y00866000D02*
D03*
X00744000Y00949000D02*
D03*
X00767999Y00941998D02*
D03*
X00769000Y01069000D02*
D03*
X00930000Y00805000D02*
D03*
X00913427Y00825570D02*
D03*
X01008998Y00860998D02*
D03*
X00805000Y00570000D02*
D03*
X00926000Y00611000D02*
D03*
X00890000Y00682160D02*
D03*
X01025000Y00640000D02*
D03*
X00909998Y00599999D02*
D03*
X00850000Y00635000D02*
D03*
X00955000Y01115000D02*
D03*
Y01100000D02*
D03*
X00970000Y01115000D02*
D03*
Y01100000D02*
D03*
X00985000D02*
D03*
Y01115000D02*
D03*
X01000000Y01100000D02*
D03*
Y01115000D02*
D03*
X01015000D02*
D03*
Y01100000D02*
D03*
X00805000Y01115000D02*
D03*
Y01100000D02*
D03*
X00820000Y01115000D02*
D03*
Y01100000D02*
D03*
X00835000D02*
D03*
Y01115000D02*
D03*
X00850000Y01100000D02*
D03*
Y01115000D02*
D03*
X00865000D02*
D03*
Y01100000D02*
D03*
X00715000D02*
D03*
Y01115000D02*
D03*
X00700000D02*
D03*
Y01100000D02*
D03*
X00685000Y01115000D02*
D03*
Y01100000D02*
D03*
X00670000D02*
D03*
Y01115000D02*
D03*
X00655000Y01100000D02*
D03*
Y01115000D02*
D03*
X01045000Y00945000D02*
D03*
X01060000D02*
D03*
Y00930000D02*
D03*
X01030000D02*
D03*
Y00945000D02*
D03*
X01045000Y00930000D02*
D03*
X00689999Y00784998D02*
D03*
X00685000Y00825000D02*
D03*
X00689999Y00804998D02*
D03*
X00658902Y00836098D02*
D03*
X00935000Y00859000D02*
D03*
X00835900Y00833409D02*
D03*
X00880000Y00856000D02*
D03*
X00705999Y00665999D02*
D03*
X00875998Y00837998D02*
D03*
X00962000Y00867000D02*
D03*
X00861905Y00843905D02*
D03*
X00969998Y00807998D02*
D03*
X00998000Y00817000D02*
D03*
X01013000Y00797000D02*
D03*
X01067000Y00889000D02*
D03*
X01009000Y00845000D02*
D03*
X01072000Y00851000D02*
D03*
X01057998Y00873998D02*
D03*
X00727460Y00736540D02*
D03*
X00689000Y00741000D02*
D03*
X00860000Y00570000D02*
D03*
X00829000Y00531000D02*
D03*
X00881000Y00534000D02*
D03*
X00863998Y00549999D02*
D03*
X00907235Y00533517D02*
D03*
X00682650Y00681731D02*
D03*
X00649999Y00708999D02*
D03*
X00651999Y00749998D02*
D03*
X00649999Y00525999D02*
D03*
X00649000Y00496000D02*
D03*
X00643999Y00629999D02*
D03*
X00676000Y00598000D02*
D03*
X00671999Y00664999D02*
D03*
X00839000Y00751000D02*
D03*
X00620315Y00831400D02*
D03*
X00737000Y00905000D02*
D03*
X00632000Y00953000D02*
D03*
X01068000Y01060000D02*
D03*
X00612000Y00907000D02*
D03*
X00771000Y01157000D02*
D03*
X00921000Y01158000D02*
D03*
X01069000Y00807000D02*
D03*
X00946000Y00751000D02*
D03*
X00983000Y00764000D02*
D03*
X00958000Y00819000D02*
D03*
X00921998Y00865998D02*
D03*
X00921000Y00895000D02*
D03*
X00825000Y00703000D02*
D03*
X00875000Y00605000D02*
D03*
X00820000Y00630000D02*
D03*
X00840000Y00620000D02*
D03*
X01009000Y00525000D02*
D03*
X01038000Y00598000D02*
D03*
X01021000Y00611000D02*
D03*
X00939000Y00938000D02*
D03*
X00899000Y00950000D02*
D03*
X00939850Y00923987D02*
D03*
X01002804Y00924430D02*
D03*
X01014998Y00890998D02*
D03*
X01011998Y00909998D02*
D03*
X00876998Y00811998D02*
D03*
X00825000Y00733000D02*
D03*
X00755999Y00714999D02*
D03*
X00759000Y00573000D02*
D03*
X00769998Y00552999D02*
D03*
X00755999Y00628999D02*
D03*
X00785000Y00629000D02*
D03*
X00770999Y00638999D02*
D03*
X00757000Y00525000D02*
D03*
X00990998Y00931998D02*
D03*
X00695000Y00870000D02*
D03*
X00652999Y00645999D02*
D03*
X00726447Y00796447D02*
D03*
X00649000Y00822000D02*
D03*
X00676000Y00904000D02*
D03*
X00721000Y00885000D02*
D03*
X00727999Y00832999D02*
D03*
X00923998Y01057998D02*
D03*
X00784650Y01042349D02*
D03*
X00909398Y01042398D02*
D03*
D66*
X00771004Y00927298D02*
D03*
X00778998Y00947998D02*
D03*
X00791998Y00773998D02*
D03*
X00798998Y00767999D02*
D03*
X00757000Y00807000D02*
D03*
Y00817000D02*
D03*
X00927000Y00947000D02*
D03*
X00911000Y00936000D02*
D03*
X00828998Y00919998D02*
D03*
X00757000Y00787000D02*
D03*
X00802000Y00747000D02*
D03*
X00796998Y00754998D02*
D03*
X00806998Y00838998D02*
D03*
X00757000Y00837000D02*
D03*
X00771000Y00773000D02*
D03*
X00764000Y00780000D02*
D03*
X00757000Y00797000D02*
D03*
X00734000Y00675000D02*
D03*
X00787998Y00914998D02*
D03*
X00798998Y00863998D02*
D03*
X00723000Y00864834D02*
D03*
X00730000Y00872000D02*
D03*
D67*
X00791811Y00847559D02*
D03*
Y00792441D02*
D03*
X00783937D02*
D03*
X00776063D02*
D03*
X00768189D02*
D03*
Y00800315D02*
D03*
X00776063D02*
D03*
X00783937D02*
D03*
X00791811D02*
D03*
Y00808189D02*
D03*
X00783937D02*
D03*
X00776063D02*
D03*
X00768189D02*
D03*
X00791811Y00816063D02*
D03*
X00783937D02*
D03*
X00776063D02*
D03*
X00768189D02*
D03*
X00791811Y00823937D02*
D03*
X00783937D02*
D03*
X00776063D02*
D03*
X00768189D02*
D03*
X00791811Y00831811D02*
D03*
X00783937D02*
D03*
X00776063D02*
D03*
X00768189D02*
D03*
X00791811Y00839685D02*
D03*
X00783937D02*
D03*
X00776063D02*
D03*
X00768189D02*
D03*
X00783937Y00847559D02*
D03*
X00768189D02*
D03*
X00776063D02*
D03*
D68*
X00690000Y00944800D02*
D03*
Y00895200D02*
D03*
X00840000Y00944800D02*
D03*
Y00895200D02*
D03*
M02*
