G04 Layer_Color=8388736*
%FSAX44Y44*%
%MOMM*%
G71*
G01*
G75*
%ADD43R,1.3716X0.4064*%
%ADD44R,0.9032X1.1032*%
%ADD45R,1.5532X2.1032*%
%ADD46R,1.1032X1.2032*%
%ADD47R,2.6032X2.8032*%
%ADD48R,1.5532X1.7532*%
%ADD49R,1.2032X1.1032*%
%ADD50R,2.1032X1.5532*%
%ADD51R,1.6532X1.3532*%
%ADD52R,1.3532X1.6532*%
%ADD53R,2.8032X2.6032*%
%ADD54R,2.5032X2.5032*%
%ADD55R,1.7532X2.6032*%
%ADD56R,1.4224X1.6256*%
G04:AMPARAMS|DCode=57|XSize=2.9032mm|YSize=8.2032mm|CornerRadius=1.4516mm|HoleSize=0mm|Usage=FLASHONLY|Rotation=0.000|XOffset=0mm|YOffset=0mm|HoleType=Round|Shape=RoundedRectangle|*
%AMROUNDEDRECTD57*
21,1,2.9032,5.3000,0,0,0.0*
21,1,0.0000,8.2032,0,0,0.0*
1,1,2.9032,0.0000,-2.6500*
1,1,2.9032,0.0000,-2.6500*
1,1,2.9032,0.0000,2.6500*
1,1,2.9032,0.0000,2.6500*
%
%ADD57ROUNDEDRECTD57*%
%ADD58R,1.3032X1.3032*%
%ADD59R,2.7032X3.5032*%
%ADD60R,2.7032X1.2032*%
%ADD61R,10.8032X9.0032*%
%ADD62R,1.1516X4.2516*%
%ADD63C,1.8034*%
%ADD64C,1.6510*%
%ADD65C,0.9144*%
%ADD66C,0.6604*%
%ADD67C,0.7112*%
G36*
X00784000Y00852385D02*
X00798685D01*
Y00849559D01*
Y00845559D01*
Y00841685D01*
Y00837685D01*
Y00833811D01*
Y00829811D01*
Y00825937D01*
Y00821937D01*
Y00818063D01*
Y00814063D01*
Y00810189D01*
Y00806189D01*
Y00802315D01*
Y00798315D01*
Y00794441D01*
Y00790441D01*
Y00787615D01*
X00784000D01*
Y00784450D01*
X00776000D01*
Y00787615D01*
X00761315D01*
Y00790441D01*
Y00794441D01*
Y00798315D01*
Y00802315D01*
Y00806189D01*
Y00810189D01*
Y00814063D01*
Y00818063D01*
Y00821937D01*
Y00825937D01*
Y00829811D01*
Y00833811D01*
Y00837685D01*
Y00841685D01*
Y00845559D01*
Y00849559D01*
Y00852385D01*
X00776000D01*
Y00855550D01*
X00784000D01*
Y00852385D01*
D02*
G37*
%LPC*%
G36*
X00785937Y00810189D02*
X00781937D01*
Y00806189D01*
X00785937D01*
Y00810189D01*
D02*
G37*
G36*
X00778063D02*
X00774063D01*
Y00806189D01*
X00778063D01*
Y00810189D01*
D02*
G37*
G36*
X00770189D02*
X00766189D01*
Y00806189D01*
X00770189D01*
Y00810189D01*
D02*
G37*
G36*
X00793811D02*
X00789811D01*
Y00806189D01*
X00793811D01*
Y00810189D01*
D02*
G37*
G36*
X00785937Y00818063D02*
X00781937D01*
Y00814063D01*
X00785937D01*
Y00818063D01*
D02*
G37*
G36*
X00778063D02*
X00774063D01*
Y00814063D01*
X00778063D01*
Y00818063D01*
D02*
G37*
G36*
X00770189D02*
X00766189D01*
Y00814063D01*
X00770189D01*
Y00818063D01*
D02*
G37*
G36*
X00793811Y00802315D02*
X00789811D01*
Y00798315D01*
X00793811D01*
Y00802315D01*
D02*
G37*
G36*
X00785937Y00794441D02*
X00781937D01*
Y00790441D01*
X00785937D01*
Y00794441D01*
D02*
G37*
G36*
X00778063D02*
X00774063D01*
Y00790441D01*
X00778063D01*
Y00794441D01*
D02*
G37*
G36*
X00770189D02*
X00766189D01*
Y00790441D01*
X00770189D01*
Y00794441D01*
D02*
G37*
G36*
X00793811D02*
X00789811D01*
Y00790441D01*
X00793811D01*
Y00794441D01*
D02*
G37*
G36*
X00785937Y00802315D02*
X00781937D01*
Y00798315D01*
X00785937D01*
Y00802315D01*
D02*
G37*
G36*
X00778063D02*
X00774063D01*
Y00798315D01*
X00778063D01*
Y00802315D01*
D02*
G37*
G36*
X00770189D02*
X00766189D01*
Y00798315D01*
X00770189D01*
Y00802315D01*
D02*
G37*
G36*
X00793811Y00818063D02*
X00789811D01*
Y00814063D01*
X00793811D01*
Y00818063D01*
D02*
G37*
G36*
X00785937Y00841685D02*
X00781937D01*
Y00837685D01*
X00785937D01*
Y00841685D01*
D02*
G37*
G36*
X00793811D02*
X00789811D01*
Y00837685D01*
X00793811D01*
Y00841685D01*
D02*
G37*
G36*
X00770189D02*
X00766189D01*
Y00837685D01*
X00770189D01*
Y00841685D01*
D02*
G37*
G36*
X00778063D02*
X00774063D01*
Y00837685D01*
X00778063D01*
Y00841685D01*
D02*
G37*
G36*
X00785937Y00849559D02*
X00781937D01*
Y00845559D01*
X00785937D01*
Y00849559D01*
D02*
G37*
G36*
X00793811D02*
X00789811D01*
Y00845559D01*
X00793811D01*
Y00849559D01*
D02*
G37*
G36*
X00770189D02*
X00766189D01*
Y00845559D01*
X00770189D01*
Y00849559D01*
D02*
G37*
G36*
X00778063D02*
X00774063D01*
Y00845559D01*
X00778063D01*
Y00849559D01*
D02*
G37*
G36*
X00785937Y00825937D02*
X00781937D01*
Y00821937D01*
X00785937D01*
Y00825937D01*
D02*
G37*
G36*
X00793811D02*
X00789811D01*
Y00821937D01*
X00793811D01*
Y00825937D01*
D02*
G37*
G36*
X00770189D02*
X00766189D01*
Y00821937D01*
X00770189D01*
Y00825937D01*
D02*
G37*
G36*
X00778063D02*
X00774063D01*
Y00821937D01*
X00778063D01*
Y00825937D01*
D02*
G37*
G36*
X00785937Y00833811D02*
X00781937D01*
Y00829811D01*
X00785937D01*
Y00833811D01*
D02*
G37*
G36*
X00793811D02*
X00789811D01*
Y00829811D01*
X00793811D01*
Y00833811D01*
D02*
G37*
G36*
X00770189D02*
X00766189D01*
Y00829811D01*
X00770189D01*
Y00833811D01*
D02*
G37*
G36*
X00778063D02*
X00774063D01*
Y00829811D01*
X00778063D01*
Y00833811D01*
D02*
G37*
%LPD*%
G36*
X01045035Y01036015D02*
X01045070Y01036015D01*
X01045101Y01036011D01*
X01045133Y01036009D01*
X01045167Y01036002D01*
X01045201Y01035998D01*
X01045232Y01035989D01*
X01045263Y01035983D01*
X01045296Y01035972D01*
X01045330Y01035963D01*
X01047943Y01035067D01*
X01047968Y01035056D01*
X01047994Y01035048D01*
X01048029Y01035031D01*
X01048065Y01035016D01*
X01048089Y01035002D01*
X01048114Y01034990D01*
X01055317Y01030912D01*
X01055343Y01030895D01*
X01055370Y01030880D01*
X01055399Y01030858D01*
X01055428Y01030839D01*
X01055452Y01030818D01*
X01055477Y01030800D01*
X01059905Y01027018D01*
X01059915Y01027008D01*
X01059925Y01027000D01*
X01059962Y01026962D01*
X01060001Y01026925D01*
X01060009Y01026914D01*
X01060018Y01026905D01*
X01063800Y01022476D01*
X01063808Y01022465D01*
X01063818Y01022456D01*
X01063848Y01022412D01*
X01063880Y01022370D01*
X01063887Y01022358D01*
X01063894Y01022347D01*
X01066937Y01017381D01*
X01066943Y01017370D01*
X01066951Y01017358D01*
X01066975Y01017310D01*
X01066999Y01017263D01*
X01067004Y01017251D01*
X01067010Y01017239D01*
X01069239Y01011858D01*
X01069243Y01011846D01*
X01069248Y01011834D01*
X01069264Y01011783D01*
X01069281Y01011732D01*
X01069284Y01011719D01*
X01069288Y01011706D01*
X01070647Y01006044D01*
X01070650Y01006031D01*
X01070653Y01006018D01*
X01070661Y01005965D01*
X01070670Y01005912D01*
X01070670Y01005899D01*
X01070672Y01005886D01*
X01071015Y01001534D01*
X01071015Y01001494D01*
X01071018Y01001454D01*
Y01000000D01*
X01071018Y01000000D01*
X01071018Y00920000D01*
X01071009Y00919867D01*
X01070983Y00919736D01*
X01070941Y00919610D01*
X01070882Y00919491D01*
X01070808Y00919380D01*
X01070720Y00919280D01*
X01070620Y00919192D01*
X01070509Y00919118D01*
X01070390Y00919059D01*
X01070264Y00919016D01*
X01070133Y00918990D01*
X01070000Y00918982D01*
X01026782D01*
X01026778Y00918982D01*
X01026775Y00918982D01*
X01026711Y00918987D01*
X01026649Y00918990D01*
X01026646Y00918991D01*
X01026642Y00918991D01*
X01026579Y00919005D01*
X01026518Y00919016D01*
X01026515Y00919018D01*
X01026512Y00919018D01*
X01026453Y00919038D01*
X01026392Y00919059D01*
X01026389Y00919061D01*
X01026386Y00919062D01*
X01026331Y00919090D01*
X01026273Y00919118D01*
X01026270Y00919120D01*
X01026267Y00919122D01*
X01026214Y00919158D01*
X01026162Y00919192D01*
X01026160Y00919194D01*
X01026157Y00919196D01*
X01026109Y00919239D01*
X01026062Y00919280D01*
X01026060Y00919283D01*
X01026057Y00919285D01*
X01026016Y00919332D01*
X01025974Y00919380D01*
X01025972Y00919383D01*
X01025970Y00919386D01*
X01025935Y00919440D01*
X01025900Y00919491D01*
X01025899Y00919494D01*
X01025897Y00919497D01*
X01025869Y00919554D01*
X01025841Y00919610D01*
X01025840Y00919614D01*
X01025839Y00919617D01*
X01025819Y00919676D01*
X01025798Y00919736D01*
X01025798Y00919740D01*
X01025797Y00919743D01*
X01025438Y00921121D01*
X01024067Y00925175D01*
X01021669Y00930037D01*
X01018659Y00934542D01*
X01015458Y00938158D01*
X01014298Y00939263D01*
X01014298Y00939263D01*
D01*
X01011716Y00941722D01*
X01003081Y00948126D01*
X00996064Y00952004D01*
X00988647Y00955076D01*
X00980933Y00957299D01*
X00973018Y00958644D01*
X00967006Y00958981D01*
X00965000Y00958981D01*
X00965000D01*
X00965000D01*
X00640000Y00958982D01*
X00639867Y00958990D01*
X00639737Y00959016D01*
X00639610Y00959059D01*
X00639491Y00959118D01*
X00639380Y00959192D01*
X00639280Y00959280D01*
X00639192Y00959380D01*
X00639118Y00959491D01*
X00639059Y00959610D01*
X00639016Y00959736D01*
X00638991Y00959867D01*
X00638982Y00960000D01*
Y01034270D01*
Y01034415D01*
D01*
Y01034415D01*
X00638991Y01034548D01*
X00639016Y01034679D01*
X00639031Y01034721D01*
X00639059Y01034805D01*
X00639059Y01034805D01*
X00639230Y01035218D01*
X00639230Y01035218D01*
X00639289Y01035337D01*
D01*
X00639290Y01035338D01*
X00639363Y01035448D01*
X00639439Y01035534D01*
X00639451Y01035548D01*
X00639451D01*
Y01035548D01*
X00639465Y01035561D01*
X00639551Y01035636D01*
X00639662Y01035710D01*
X00639662Y01035710D01*
D01*
X00639782Y01035769D01*
X00639782Y01035769D01*
X00640195Y01035940D01*
X00640195Y01035940D01*
X00640278Y01035968D01*
X00640321Y01035983D01*
X00640452Y01036009D01*
X00640584Y01036018D01*
X00640584D01*
D01*
X01045000D01*
X01045035Y01036015D01*
D02*
G37*
G36*
X00997133Y00911010D02*
X00997263Y00910984D01*
X00997390Y00910941D01*
X00997509Y00910882D01*
X00997620Y00910808D01*
X00997720Y00910720D01*
X00997808Y00910620D01*
X00997882Y00910509D01*
X00997941Y00910390D01*
X00997983Y00910264D01*
X00998009Y00910133D01*
X00998018Y00910000D01*
Y00830000D01*
X00998009Y00829867D01*
X00997983Y00829736D01*
X00997941Y00829610D01*
X00997882Y00829491D01*
X00997808Y00829380D01*
X00997720Y00829280D01*
X00997620Y00829192D01*
X00997509Y00829118D01*
X00997390Y00829059D01*
X00997263Y00829016D01*
X00997133Y00828990D01*
X00997000Y00828982D01*
X00977008D01*
X00976876Y00828990D01*
X00975409Y00829184D01*
X00975279Y00829210D01*
X00975153Y00829252D01*
X00973328Y00830008D01*
X00973208Y00830067D01*
X00973098Y00830141D01*
X00971531Y00831343D01*
X00971431Y00831431D01*
Y00831431D01*
X00971431D01*
X00971343Y00831531D01*
X00970141Y00833098D01*
X00970067Y00833209D01*
X00970037Y00833269D01*
X00970008Y00833328D01*
X00969252Y00835152D01*
X00969252Y00835153D01*
X00969224Y00835236D01*
X00969210Y00835279D01*
X00969184Y00835409D01*
Y00835409D01*
X00968990Y00836876D01*
X00968982Y00837008D01*
Y00837500D01*
Y00902500D01*
Y00902992D01*
X00968990Y00903124D01*
X00969184Y00904591D01*
X00969210Y00904722D01*
X00969252Y00904848D01*
X00970008Y00906672D01*
X00970067Y00906792D01*
X00970141Y00906902D01*
X00971343Y00908469D01*
X00971431Y00908569D01*
X00971531Y00908657D01*
X00971531Y00908657D01*
X00973098Y00909859D01*
X00973153Y00909896D01*
X00973208Y00909933D01*
X00973328Y00909992D01*
X00975152Y00910748D01*
X00975278Y00910790D01*
X00975409Y00910816D01*
X00976876Y00911010D01*
X00977008Y00911018D01*
X00977008D01*
X00977009D01*
X00977500Y00911018D01*
X00977500Y00911018D01*
X00997000D01*
X00997133Y00911010D01*
D02*
G37*
G36*
X01043124D02*
X01044591Y00910816D01*
X01044721Y00910790D01*
X01044847Y00910748D01*
X01046672Y00909992D01*
X01046792Y00909933D01*
X01046847Y00909896D01*
X01046902Y00909859D01*
X01048469Y00908657D01*
X01048569Y00908569D01*
X01048657Y00908469D01*
X01049859Y00906902D01*
X01049933Y00906792D01*
X01049992Y00906672D01*
X01050748Y00904847D01*
X01050790Y00904721D01*
X01050816Y00904591D01*
X01051010Y00903124D01*
X01051018Y00902992D01*
Y00902500D01*
Y00837500D01*
Y00837008D01*
X01051010Y00836876D01*
X01050816Y00835409D01*
Y00835409D01*
X01050790Y00835279D01*
X01050776Y00835236D01*
X01050748Y00835153D01*
X01050748Y00835152D01*
X01049992Y00833328D01*
X01049963Y00833269D01*
X01049933Y00833209D01*
X01049859Y00833098D01*
X01048657Y00831531D01*
X01048569Y00831431D01*
X01048569D01*
Y00831431D01*
X01048469Y00831343D01*
X01046902Y00830141D01*
X01046792Y00830067D01*
X01046672Y00830008D01*
X01044847Y00829252D01*
X01044721Y00829210D01*
X01044591Y00829184D01*
X01043124Y00828990D01*
X01042992Y00828982D01*
X01023000D01*
X01022867Y00828990D01*
X01022737Y00829016D01*
X01022610Y00829059D01*
X01022491Y00829118D01*
X01022380Y00829192D01*
X01022280Y00829280D01*
X01022192Y00829380D01*
X01022118Y00829491D01*
X01022059Y00829610D01*
X01022017Y00829736D01*
X01021991Y00829867D01*
X01021982Y00830000D01*
Y00910000D01*
X01021991Y00910133D01*
X01022017Y00910264D01*
X01022059Y00910390D01*
X01022118Y00910509D01*
X01022192Y00910620D01*
X01022280Y00910720D01*
X01022380Y00910808D01*
X01022491Y00910882D01*
X01022610Y00910941D01*
X01022737Y00910984D01*
X01022867Y00911010D01*
X01023000Y00911018D01*
X01042992D01*
X01043124Y00911010D01*
D02*
G37*
G36*
X01002317Y01191010D02*
X01002447Y01190984D01*
X01002573Y01190941D01*
X01002693Y01190882D01*
X01002804Y01190808D01*
X01002904Y01190720D01*
X01002991Y01190620D01*
X01003065Y01190509D01*
X01003124Y01190390D01*
X01003167Y01190264D01*
X01003193Y01190133D01*
X01003202Y01190000D01*
Y01151252D01*
Y01150181D01*
X01003517Y01146979D01*
X01004764Y01142870D01*
X01006788Y01139083D01*
X01009512Y01135764D01*
X01012831Y01133040D01*
X01016596Y01131028D01*
X01022878Y01129454D01*
X01025000D01*
X01025133Y01129445D01*
X01025264Y01129419D01*
X01025390Y01129376D01*
X01025509Y01129317D01*
X01025620Y01129243D01*
X01025720Y01129156D01*
X01025808Y01129055D01*
X01025882Y01128945D01*
X01025941Y01128825D01*
X01025984Y01128699D01*
X01026010Y01128569D01*
X01026018Y01128436D01*
Y01085000D01*
X01026010Y01084867D01*
X01025984Y01084736D01*
X01025941Y01084610D01*
X01025882Y01084491D01*
X01025808Y01084380D01*
X01025720Y01084280D01*
X01025620Y01084192D01*
X01025509Y01084118D01*
X01025390Y01084059D01*
X01025264Y01084016D01*
X01025133Y01083990D01*
X01025000Y01083982D01*
X00948303D01*
X00948170Y01083990D01*
X00948039Y01084016D01*
X00947913Y01084059D01*
X00947794Y01084118D01*
X00947683Y01084192D01*
X00947583Y01084280D01*
X00947495Y01084380D01*
X00947421Y01084491D01*
X00947362Y01084610D01*
X00947319Y01084736D01*
X00947293Y01084867D01*
X00947285Y01085000D01*
Y01176232D01*
Y01177134D01*
X00947293Y01177267D01*
X00947648Y01179959D01*
X00947674Y01180090D01*
X00947717Y01180216D01*
X00949104Y01183565D01*
X00949163Y01183684D01*
X00949187Y01183721D01*
X00949237Y01183795D01*
X00951444Y01186671D01*
X00951532Y01186771D01*
X00951632Y01186859D01*
X00954508Y01189066D01*
X00954619Y01189140D01*
X00954738Y01189199D01*
X00958087Y01190586D01*
X00958087Y01190586D01*
X00958170Y01190615D01*
X00958213Y01190629D01*
X00958344Y01190655D01*
X00958344D01*
X00961036Y01191010D01*
X00961169Y01191018D01*
X00961169D01*
D01*
X01002184D01*
X01002317Y01191010D01*
D02*
G37*
G36*
X00852317D02*
X00852447Y01190984D01*
X00852573Y01190941D01*
X00852693Y01190882D01*
X00852804Y01190808D01*
X00852904Y01190720D01*
X00852991Y01190620D01*
X00853065Y01190509D01*
X00853124Y01190390D01*
X00853167Y01190264D01*
X00853193Y01190133D01*
X00853202Y01190000D01*
Y01151252D01*
Y01150181D01*
X00853517Y01146979D01*
X00854764Y01142870D01*
X00856788Y01139083D01*
X00859512Y01135764D01*
X00862831Y01133040D01*
X00866596Y01131028D01*
X00872878Y01129454D01*
X00875000D01*
X00875133Y01129445D01*
X00875264Y01129419D01*
X00875390Y01129376D01*
X00875509Y01129317D01*
X00875620Y01129243D01*
X00875720Y01129156D01*
X00875808Y01129055D01*
X00875882Y01128945D01*
X00875941Y01128825D01*
X00875984Y01128699D01*
X00876010Y01128569D01*
X00876018Y01128436D01*
Y01085000D01*
X00876010Y01084867D01*
X00875984Y01084736D01*
X00875941Y01084610D01*
X00875882Y01084491D01*
X00875808Y01084380D01*
X00875720Y01084280D01*
X00875620Y01084192D01*
X00875509Y01084118D01*
X00875390Y01084059D01*
X00875264Y01084016D01*
X00875133Y01083990D01*
X00875000Y01083982D01*
X00798303D01*
X00798170Y01083990D01*
X00798039Y01084016D01*
X00797913Y01084059D01*
X00797794Y01084118D01*
X00797683Y01084192D01*
X00797583Y01084280D01*
X00797495Y01084380D01*
X00797421Y01084491D01*
X00797362Y01084610D01*
X00797319Y01084736D01*
X00797293Y01084867D01*
X00797285Y01085000D01*
Y01176232D01*
Y01177134D01*
X00797293Y01177267D01*
X00797648Y01179959D01*
X00797674Y01180090D01*
X00797717Y01180216D01*
X00799104Y01183565D01*
X00799163Y01183684D01*
X00799187Y01183721D01*
X00799237Y01183795D01*
X00801444Y01186671D01*
X00801532Y01186771D01*
X00801632Y01186859D01*
X00804508Y01189066D01*
X00804619Y01189140D01*
X00804738Y01189199D01*
X00808087Y01190586D01*
X00808087Y01190586D01*
X00808170Y01190615D01*
X00808213Y01190629D01*
X00808344Y01190655D01*
X00808344D01*
X00811036Y01191010D01*
X00811169Y01191018D01*
X00811169D01*
D01*
X00852184D01*
X00852317Y01191010D01*
D02*
G37*
G36*
X00702317D02*
X00702447Y01190984D01*
X00702573Y01190941D01*
X00702693Y01190882D01*
X00702804Y01190808D01*
X00702904Y01190720D01*
X00702991Y01190620D01*
X00703065Y01190509D01*
X00703124Y01190390D01*
X00703167Y01190264D01*
X00703193Y01190133D01*
X00703202Y01190000D01*
Y01151252D01*
Y01150181D01*
X00703517Y01146979D01*
X00704764Y01142870D01*
X00706788Y01139083D01*
X00709512Y01135764D01*
X00712831Y01133040D01*
X00716596Y01131028D01*
X00722878Y01129454D01*
X00725000D01*
X00725133Y01129445D01*
X00725264Y01129419D01*
X00725390Y01129376D01*
X00725509Y01129317D01*
X00725620Y01129243D01*
X00725720Y01129156D01*
X00725808Y01129055D01*
X00725882Y01128945D01*
X00725941Y01128825D01*
X00725984Y01128699D01*
X00726010Y01128569D01*
X00726018Y01128436D01*
Y01085000D01*
X00726010Y01084867D01*
X00725984Y01084736D01*
X00725941Y01084610D01*
X00725882Y01084491D01*
X00725808Y01084380D01*
X00725720Y01084280D01*
X00725620Y01084192D01*
X00725509Y01084118D01*
X00725390Y01084059D01*
X00725264Y01084016D01*
X00725133Y01083990D01*
X00725000Y01083982D01*
X00648303D01*
X00648170Y01083990D01*
X00648039Y01084016D01*
X00647913Y01084059D01*
X00647794Y01084118D01*
X00647683Y01084192D01*
X00647583Y01084280D01*
X00647495Y01084380D01*
X00647421Y01084491D01*
X00647362Y01084610D01*
X00647319Y01084736D01*
X00647293Y01084867D01*
X00647285Y01085000D01*
Y01176232D01*
Y01177134D01*
X00647293Y01177267D01*
X00647648Y01179959D01*
X00647674Y01180090D01*
X00647717Y01180216D01*
X00649104Y01183565D01*
X00649163Y01183684D01*
X00649187Y01183721D01*
X00649237Y01183795D01*
X00651444Y01186671D01*
X00651532Y01186771D01*
X00651632Y01186859D01*
X00654508Y01189066D01*
X00654619Y01189140D01*
X00654738Y01189199D01*
X00658087Y01190586D01*
X00658087Y01190586D01*
X00658170Y01190615D01*
X00658213Y01190629D01*
X00658344Y01190655D01*
X00658344D01*
X00661036Y01191010D01*
X00661169Y01191018D01*
X00661169D01*
D01*
X00702184D01*
X00702317Y01191010D01*
D02*
G37*
D43*
X00818227Y00887500D02*
D03*
Y00882500D02*
D03*
Y00877500D02*
D03*
Y00872500D02*
D03*
Y00867500D02*
D03*
Y00862500D02*
D03*
Y00857500D02*
D03*
Y00852500D02*
D03*
Y00847500D02*
D03*
Y00842500D02*
D03*
Y00837500D02*
D03*
Y00832500D02*
D03*
Y00827500D02*
D03*
Y00822500D02*
D03*
Y00817500D02*
D03*
Y00812500D02*
D03*
Y00807500D02*
D03*
Y00802500D02*
D03*
Y00797500D02*
D03*
Y00792500D02*
D03*
Y00787500D02*
D03*
Y00782500D02*
D03*
Y00777500D02*
D03*
Y00772500D02*
D03*
Y00767500D02*
D03*
Y00762500D02*
D03*
Y00757500D02*
D03*
Y00752500D02*
D03*
X00741773D02*
D03*
Y00757500D02*
D03*
Y00762500D02*
D03*
Y00767500D02*
D03*
Y00772500D02*
D03*
Y00777500D02*
D03*
Y00782500D02*
D03*
Y00787500D02*
D03*
Y00792500D02*
D03*
Y00797500D02*
D03*
Y00802500D02*
D03*
Y00807500D02*
D03*
Y00812500D02*
D03*
Y00817500D02*
D03*
Y00822500D02*
D03*
Y00827500D02*
D03*
Y00832500D02*
D03*
Y00837500D02*
D03*
Y00842500D02*
D03*
Y00847500D02*
D03*
Y00852500D02*
D03*
Y00857500D02*
D03*
Y00862500D02*
D03*
Y00867500D02*
D03*
Y00872500D02*
D03*
Y00877500D02*
D03*
Y00882500D02*
D03*
Y00887500D02*
D03*
D44*
X00663000Y00655000D02*
D03*
X00677000D02*
D03*
X00663000Y00635000D02*
D03*
X00677000D02*
D03*
X00663000Y00615000D02*
D03*
X00677000D02*
D03*
D45*
X00791000Y00942000D02*
D03*
X00823000D02*
D03*
D46*
X00895000Y00845000D02*
D03*
X00911000D02*
D03*
X00825000Y00906000D02*
D03*
X00809000D02*
D03*
X00692000Y00920000D02*
D03*
X00708000D02*
D03*
X00702000Y00815000D02*
D03*
X00718000D02*
D03*
X00702000Y00785000D02*
D03*
X00718000D02*
D03*
X00702000Y00755000D02*
D03*
X00718000D02*
D03*
X00910000Y00810000D02*
D03*
X00894000D02*
D03*
X00740000Y00927000D02*
D03*
X00756000D02*
D03*
X00678000Y00870000D02*
D03*
X00662000D02*
D03*
X00708000Y00845000D02*
D03*
X00692000D02*
D03*
X00778000Y01095000D02*
D03*
X00762000D02*
D03*
D47*
X00929930Y00771980D02*
D03*
Y00707980D02*
D03*
D48*
X00870000Y00870000D02*
D03*
X00850000D02*
D03*
X00870000Y00828000D02*
D03*
X00850000D02*
D03*
X00850000Y00787710D02*
D03*
X00870000D02*
D03*
D49*
X00890000Y00738000D02*
D03*
Y00722000D02*
D03*
X00865000Y00738000D02*
D03*
Y00722000D02*
D03*
X00670000Y00902000D02*
D03*
Y00918000D02*
D03*
X00865000Y00687000D02*
D03*
Y00703000D02*
D03*
X00690000Y00903000D02*
D03*
Y00887000D02*
D03*
X00710000Y00903000D02*
D03*
Y00887000D02*
D03*
X00670000Y00763000D02*
D03*
Y00747000D02*
D03*
X00670000Y00733000D02*
D03*
Y00717000D02*
D03*
X01060000Y01092000D02*
D03*
Y01108000D02*
D03*
X00670000Y00693000D02*
D03*
Y00677000D02*
D03*
X00695000Y00693000D02*
D03*
Y00677000D02*
D03*
X00720000Y00693000D02*
D03*
Y00677000D02*
D03*
X00745000Y00693000D02*
D03*
Y00677000D02*
D03*
D50*
X00840000Y00689000D02*
D03*
Y00721000D02*
D03*
X00810000Y00689000D02*
D03*
Y00721000D02*
D03*
X00780000Y00689000D02*
D03*
Y00721000D02*
D03*
D51*
X00670000Y00781000D02*
D03*
Y00799000D02*
D03*
D52*
X00719000Y00720000D02*
D03*
X00701000D02*
D03*
D53*
X00978020Y00784930D02*
D03*
X01042020D02*
D03*
D54*
X00940000Y00882500D02*
D03*
Y00837500D02*
D03*
D55*
X00896000Y00920250D02*
D03*
Y00889750D02*
D03*
D56*
X00669760Y00580000D02*
D03*
X00700000D02*
D03*
X00669760Y00555000D02*
D03*
X00700000D02*
D03*
X00669760Y00530000D02*
D03*
X00700000D02*
D03*
X00669760Y00505000D02*
D03*
X00700000D02*
D03*
D57*
X00983500Y00870000D02*
D03*
X01036500D02*
D03*
D58*
X00929000Y01095000D02*
D03*
X00911000D02*
D03*
D59*
X01055500Y00710000D02*
D03*
D60*
X00994500D02*
D03*
Y00733000D02*
D03*
Y00687000D02*
D03*
D61*
X00695000Y01005500D02*
D03*
X00845000D02*
D03*
X00995000Y01005500D02*
D03*
D62*
X00656900Y01107500D02*
D03*
X00669600D02*
D03*
X00682300D02*
D03*
X00707700D02*
D03*
X00720400D02*
D03*
X00733100D02*
D03*
X00806900D02*
D03*
X00819600D02*
D03*
X00832300D02*
D03*
X00857700D02*
D03*
X00870400D02*
D03*
X00883100D02*
D03*
X00956900Y01107500D02*
D03*
X00969600D02*
D03*
X00982300D02*
D03*
X01007700D02*
D03*
X01020400D02*
D03*
X01033100D02*
D03*
D63*
X00635000Y00555000D02*
D03*
Y00515000D02*
D03*
Y00595132D02*
D03*
Y00575066D02*
D03*
Y00535000D02*
D03*
Y00760000D02*
D03*
Y00740132D02*
D03*
Y00720066D02*
D03*
Y00780000D02*
D03*
Y00700000D02*
D03*
Y00680000D02*
D03*
Y00660000D02*
D03*
Y00845000D02*
D03*
Y00865000D02*
D03*
Y00885000D02*
D03*
Y00905066D02*
D03*
D64*
X01060100Y00656200D02*
D03*
X01034700D02*
D03*
X01009300D02*
D03*
X00983900D02*
D03*
X00958500D02*
D03*
X00933100D02*
D03*
X00907700D02*
D03*
X00882300D02*
D03*
X00856900D02*
D03*
X00831500D02*
D03*
X00806100D02*
D03*
X00780700D02*
D03*
X00755300D02*
D03*
X00729900D02*
D03*
Y00630800D02*
D03*
Y00605400D02*
D03*
Y00580000D02*
D03*
Y00503800D02*
D03*
X00755300D02*
D03*
X00780700D02*
D03*
X00806100D02*
D03*
X00831500D02*
D03*
X00856900D02*
D03*
X00882300D02*
D03*
X00907700D02*
D03*
X00933100D02*
D03*
X00958500D02*
D03*
X00983900D02*
D03*
X01009300D02*
D03*
X01034700D02*
D03*
Y00529200D02*
D03*
X00983900D02*
D03*
X00958500D02*
D03*
X00933100D02*
D03*
X00882300Y00554600D02*
D03*
X00907700D02*
D03*
X00882300Y00580000D02*
D03*
X00907700D02*
D03*
X00729900Y00529200D02*
D03*
X01060100Y00503800D02*
D03*
X00729900Y00554600D02*
D03*
D65*
X00695999Y00644999D02*
D03*
X00860000Y00919000D02*
D03*
X00835000Y00897000D02*
D03*
X00843998Y00853998D02*
D03*
X00765000Y00866000D02*
D03*
X00744000Y00949000D02*
D03*
X00767999Y00941998D02*
D03*
X00769000Y01069000D02*
D03*
X00930000Y00805000D02*
D03*
X00913427Y00825570D02*
D03*
X01008998Y00860998D02*
D03*
X00805000Y00570000D02*
D03*
X00926000Y00611000D02*
D03*
X00890000Y00682160D02*
D03*
X01025000Y00640000D02*
D03*
X00909998Y00599999D02*
D03*
X00850000Y00635000D02*
D03*
X00955000Y01115000D02*
D03*
Y01100000D02*
D03*
X00970000Y01115000D02*
D03*
Y01100000D02*
D03*
X00985000D02*
D03*
Y01115000D02*
D03*
X01000000Y01100000D02*
D03*
Y01115000D02*
D03*
X01015000D02*
D03*
Y01100000D02*
D03*
X00805000Y01115000D02*
D03*
Y01100000D02*
D03*
X00820000Y01115000D02*
D03*
Y01100000D02*
D03*
X00835000D02*
D03*
Y01115000D02*
D03*
X00850000Y01100000D02*
D03*
Y01115000D02*
D03*
X00865000D02*
D03*
Y01100000D02*
D03*
X00715000D02*
D03*
Y01115000D02*
D03*
X00700000D02*
D03*
Y01100000D02*
D03*
X00685000Y01115000D02*
D03*
Y01100000D02*
D03*
X00670000D02*
D03*
Y01115000D02*
D03*
X00655000Y01100000D02*
D03*
Y01115000D02*
D03*
X01045000Y00945000D02*
D03*
X01060000D02*
D03*
Y00930000D02*
D03*
X01030000D02*
D03*
Y00945000D02*
D03*
X01045000Y00930000D02*
D03*
X00689999Y00784998D02*
D03*
X00685000Y00825000D02*
D03*
X00689999Y00804998D02*
D03*
X00658902Y00836098D02*
D03*
X00935000Y00859000D02*
D03*
X00835900Y00833409D02*
D03*
X00880000Y00856000D02*
D03*
X00705999Y00665999D02*
D03*
X00875998Y00837998D02*
D03*
X00962000Y00867000D02*
D03*
X00861905Y00843905D02*
D03*
X00969998Y00807998D02*
D03*
X00998000Y00817000D02*
D03*
X01013000Y00797000D02*
D03*
X01067000Y00889000D02*
D03*
X01009000Y00845000D02*
D03*
X01072000Y00851000D02*
D03*
X01057998Y00873998D02*
D03*
X00727460Y00736540D02*
D03*
X00689000Y00741000D02*
D03*
X00860000Y00570000D02*
D03*
X00829000Y00531000D02*
D03*
X00881000Y00534000D02*
D03*
X00863998Y00549999D02*
D03*
X00907235Y00533517D02*
D03*
X00682650Y00681731D02*
D03*
X00649999Y00708999D02*
D03*
X00651999Y00749998D02*
D03*
X00649999Y00525999D02*
D03*
X00649000Y00496000D02*
D03*
X00643999Y00629999D02*
D03*
X00676000Y00598000D02*
D03*
X00671999Y00664999D02*
D03*
X00839000Y00751000D02*
D03*
X00620315Y00831400D02*
D03*
X00737000Y00905000D02*
D03*
X00632000Y00953000D02*
D03*
X01068000Y01060000D02*
D03*
X00612000Y00907000D02*
D03*
X00771000Y01157000D02*
D03*
X00921000Y01158000D02*
D03*
X01069000Y00807000D02*
D03*
X00946000Y00751000D02*
D03*
X00983000Y00764000D02*
D03*
X00958000Y00819000D02*
D03*
X00921998Y00865998D02*
D03*
X00921000Y00895000D02*
D03*
X00825000Y00703000D02*
D03*
X00875000Y00605000D02*
D03*
X00820000Y00630000D02*
D03*
X00840000Y00620000D02*
D03*
X01009000Y00525000D02*
D03*
X01038000Y00598000D02*
D03*
X01021000Y00611000D02*
D03*
X00939000Y00938000D02*
D03*
X00899000Y00950000D02*
D03*
X00939850Y00923987D02*
D03*
X01002804Y00924430D02*
D03*
X01014998Y00890998D02*
D03*
X01011998Y00909998D02*
D03*
X00876998Y00811998D02*
D03*
X00825000Y00733000D02*
D03*
X00755999Y00714999D02*
D03*
X00759000Y00573000D02*
D03*
X00769998Y00552999D02*
D03*
X00755999Y00628999D02*
D03*
X00785000Y00629000D02*
D03*
X00770999Y00638999D02*
D03*
X00757000Y00525000D02*
D03*
X00990998Y00931998D02*
D03*
X00695000Y00870000D02*
D03*
X00652999Y00645999D02*
D03*
X00726447Y00796447D02*
D03*
X00649000Y00822000D02*
D03*
X00676000Y00904000D02*
D03*
X00721000Y00885000D02*
D03*
X00727999Y00832999D02*
D03*
X00923998Y01057998D02*
D03*
X00784650Y01042349D02*
D03*
X00909398Y01042398D02*
D03*
D66*
X00771004Y00927298D02*
D03*
X00778998Y00947998D02*
D03*
X00791998Y00773998D02*
D03*
X00798998Y00767999D02*
D03*
X00757000Y00807000D02*
D03*
Y00817000D02*
D03*
X00927000Y00947000D02*
D03*
X00911000Y00936000D02*
D03*
X00828998Y00919998D02*
D03*
X00757000Y00787000D02*
D03*
X00802000Y00747000D02*
D03*
X00796998Y00754998D02*
D03*
X00806998Y00838998D02*
D03*
X00757000Y00837000D02*
D03*
X00771000Y00773000D02*
D03*
X00764000Y00780000D02*
D03*
X00757000Y00797000D02*
D03*
X00734000Y00675000D02*
D03*
X00787998Y00914998D02*
D03*
X00798998Y00863998D02*
D03*
X00723000Y00864834D02*
D03*
X00730000Y00872000D02*
D03*
D67*
X00791811Y00847559D02*
D03*
Y00792441D02*
D03*
X00783937D02*
D03*
X00776063D02*
D03*
X00768189D02*
D03*
Y00800315D02*
D03*
X00776063D02*
D03*
X00783937D02*
D03*
X00791811D02*
D03*
Y00808189D02*
D03*
X00783937D02*
D03*
X00776063D02*
D03*
X00768189D02*
D03*
X00791811Y00816063D02*
D03*
X00783937D02*
D03*
X00776063D02*
D03*
X00768189D02*
D03*
X00791811Y00823937D02*
D03*
X00783937D02*
D03*
X00776063D02*
D03*
X00768189D02*
D03*
X00791811Y00831811D02*
D03*
X00783937D02*
D03*
X00776063D02*
D03*
X00768189D02*
D03*
X00791811Y00839685D02*
D03*
X00783937D02*
D03*
X00776063D02*
D03*
X00768189D02*
D03*
X00783937Y00847559D02*
D03*
X00768189D02*
D03*
X00776063D02*
D03*
M02*
