M48
;Layer_Color=9474304
;FILE_FORMAT=2:4
INCH
;TYPE=PLATED
T1F00S00C0.0100
T2F00S00C0.0240
T3F00S00C0.0280
T4F00S00C0.0315
T5F00S00C0.0380
T6F00S00C0.2010
%
T01
X062618Y026173
Y026409
Y026646
Y026882
Y027118
Y027354
Y027591
Y027827
X062854
X063091
X063327
Y027591
Y027354
X063091
Y027591
X062854
Y027354
Y027118
X063091
Y026882
X062854
Y026646
X063091
Y026409
X062854
Y026173
X063091
X063327
Y026409
Y026646
Y026882
Y027118
X062382
Y026882
X062146
Y027118
X061909
Y026882
X061673
Y027118
Y027354
Y027591
Y027827
X061909
X062146
X062382
Y027591
Y027354
X062146
Y027591
X061909
Y027354
Y026646
X062146
Y026409
X061909
X061673
Y026646
Y026173
X061909
X062146
X062382
Y026409
Y026646
T02
X065500Y025050
X065628Y026422
X066450Y026100
X065700Y027750
X065350Y029100
X065600Y029800
X063600Y030900
X063050Y031150
X062280Y030480
X057700Y031200
X058400Y028340
X052400Y026600
Y026075
Y019800
X053691Y020200
Y019100
Y018000
Y016900
X052200Y038841
Y039300
Y039800
T03
X063100Y021200
X065300Y022400
X065600Y024300
X063100Y024600
X063850Y029700
X064800Y029100
X068100Y028450
X066850Y021150
X061300Y020800
X061200Y019100
X059500Y019800
X059200Y021300
X057600Y019700
X055941Y020341
X055400Y020700
X055500Y019500
X058600Y018100
X058500Y025500
X057100
X056700Y024800
Y027100
X058000
X059100Y027600
X059000Y029200
X059600Y030700
X057800Y030300
X056800Y030200
X057251Y028149
X056000Y028200
X055391Y027609
X053500Y026800
X052400Y025300
Y021150
X060700Y024525
X061400Y023900
X061477Y029343
X061356Y029923
X061000Y036800
Y037500
X060300
X059600
X058900
Y036800
X059600
X060300
Y039500
X059600
X058900
X058000Y038500
X056800Y039900
X055400Y037500
X054700
X054000
X053300
Y036800
X054000
X054700
X055400
X057700Y034600
X061000Y039500
X061800Y039400
X052100Y038300
X063500Y038500
X064400Y037500
X065100
X065800
X066500
Y036800
X065800
X065100
X064400
X062700Y036000
X063200Y034600
X064400Y039500
X065100
X065800
X066500
X067400Y039600
T04
X067200Y024738
Y025525
Y026307
Y027097
Y027887
Y028675
Y029462
X053200Y024484
Y023694
Y022906
Y022119
T05
X062800Y017000
Y018000
X063800
X064800
Y017000
X065800
X066800
Y018000
X067800Y017000
X063800
Y023000
X062800
X064800
X065800
X066800
X067800
X061800
X060800
X059800
X058800
X057800
X056800
X055800
X054800
Y022000
Y021000
Y020000
Y019000
Y018000
Y017000
X055800
X056800
X057800
X058800
X059800
X060800
X061800
T06
X052900Y015000
X067600
M30
