G04 Layer_Color=128*
%FSAX24Y24*%
%MOIN*%
G70*
G01*
G75*
%ADD12R,0.0354X0.0276*%
%ADD13R,0.0394X0.0354*%
%ADD15R,0.0354X0.0394*%
%ADD24R,0.0413X0.1634*%
%ADD25R,0.4173X0.3465*%
%ADD40O,0.0177X0.0551*%
%ADD41R,0.0335X0.0157*%
%ADD42R,0.0276X0.0354*%
%ADD43R,0.0453X0.1063*%
%ADD44R,0.0748X0.0532*%
%ADD45R,0.1299X0.0984*%
%ADD46R,0.0394X0.0984*%
%ADD47R,0.0906X0.0906*%
%ADD48R,0.2906X0.0961*%
%ADD49O,0.0177X0.0630*%
%ADD50R,0.0532X0.0748*%
D12*
X053600Y040504D02*
D03*
Y039953D02*
D03*
X055900Y039724D02*
D03*
Y040276D02*
D03*
X056400Y039876D02*
D03*
Y039324D02*
D03*
X062700Y024624D02*
D03*
Y025176D02*
D03*
X056400Y038324D02*
D03*
Y038876D02*
D03*
X061900Y038324D02*
D03*
Y038876D02*
D03*
X063200Y033976D02*
D03*
Y033424D02*
D03*
X063200Y034824D02*
D03*
Y035376D02*
D03*
X057700Y033976D02*
D03*
Y033424D02*
D03*
X057700Y034824D02*
D03*
Y035376D02*
D03*
X052200Y033976D02*
D03*
Y033424D02*
D03*
X062600Y028424D02*
D03*
Y028976D02*
D03*
D13*
X068200Y030985D02*
D03*
Y031615D02*
D03*
X057300Y030985D02*
D03*
Y031615D02*
D03*
X062800Y030985D02*
D03*
Y031615D02*
D03*
X064300Y019515D02*
D03*
Y018885D02*
D03*
X065000Y019515D02*
D03*
Y018885D02*
D03*
X065700Y019515D02*
D03*
Y018885D02*
D03*
X066400Y019515D02*
D03*
Y018885D02*
D03*
X067100Y019515D02*
D03*
Y018885D02*
D03*
D15*
X052785Y020200D02*
D03*
X053415D02*
D03*
X052785Y019100D02*
D03*
X053415D02*
D03*
X052785Y018000D02*
D03*
X053415D02*
D03*
X052785Y016900D02*
D03*
X053415D02*
D03*
X055785Y019500D02*
D03*
X056415D02*
D03*
X056415Y018800D02*
D03*
X055785D02*
D03*
X059477Y027600D02*
D03*
X060107D02*
D03*
D24*
X061700Y031039D02*
D03*
X061200D02*
D03*
X060700D02*
D03*
X059700D02*
D03*
X059200D02*
D03*
X058700D02*
D03*
X064200D02*
D03*
X064700D02*
D03*
X065200D02*
D03*
X066200D02*
D03*
X066700D02*
D03*
X067200D02*
D03*
X053200D02*
D03*
X053700D02*
D03*
X054200D02*
D03*
X055200D02*
D03*
X055700D02*
D03*
X056200D02*
D03*
D25*
X060200Y035055D02*
D03*
X065700D02*
D03*
X054700D02*
D03*
D40*
X055184Y038693D02*
D03*
X054928D02*
D03*
X054672D02*
D03*
X054416D02*
D03*
X055184Y040307D02*
D03*
X054928D02*
D03*
X054672D02*
D03*
X054416D02*
D03*
D41*
X064263Y024600D02*
D03*
X063337D02*
D03*
D42*
X055824Y018100D02*
D03*
X056376D02*
D03*
D43*
X056909Y029300D02*
D03*
X058091D02*
D03*
X056909Y028000D02*
D03*
X058091D02*
D03*
D44*
X059400Y028270D02*
D03*
Y029530D02*
D03*
X063600Y029700D02*
D03*
Y028440D02*
D03*
X064900Y029700D02*
D03*
Y028440D02*
D03*
X055700Y028630D02*
D03*
Y027370D02*
D03*
D45*
X059500Y024299D02*
D03*
D46*
X060406Y026701D02*
D03*
X059500D02*
D03*
X058594D02*
D03*
D47*
X057100Y024414D02*
D03*
Y026186D02*
D03*
D48*
X065400Y039476D02*
D03*
Y037524D02*
D03*
X059900Y039476D02*
D03*
Y037524D02*
D03*
D49*
X057884Y037654D02*
D03*
X057628D02*
D03*
X057372D02*
D03*
X057116D02*
D03*
X057884Y039346D02*
D03*
X057628D02*
D03*
X057372D02*
D03*
X057116D02*
D03*
X063384Y037654D02*
D03*
X063128D02*
D03*
X062872D02*
D03*
X062616D02*
D03*
X063384Y039346D02*
D03*
X063128D02*
D03*
X062872D02*
D03*
X062616D02*
D03*
D50*
X054420Y024150D02*
D03*
X055680D02*
D03*
X054420Y026450D02*
D03*
X055680D02*
D03*
X054420Y025300D02*
D03*
X055680D02*
D03*
M02*
