G04 Layer_Color=16711935*
%FSAX25Y25*%
%MOIN*%
G70*
G01*
G75*
%ADD45C,0.07480*%
%ADD85R,0.02847X0.02847*%
%ADD86R,0.02847X0.02847*%
%ADD99R,0.02572X0.02965*%
%ADD100R,0.02965X0.02572*%
%ADD113C,0.07100*%
%ADD114C,0.13005*%
%ADD115O,0.05524X0.08674*%
%ADD116C,0.01800*%
%ADD117R,0.03950X0.06312*%
%ADD118R,0.22847X0.10406*%
%ADD119R,0.04304X0.10406*%
%ADD120R,0.09855X0.09855*%
%ADD121R,0.04147X0.02375*%
%ADD122O,0.01784X0.06902*%
%ADD123O,0.06902X0.01784*%
%ADD124R,0.07100X0.06300*%
%ADD125O,0.02572X0.07099*%
%ADD126R,0.21666X0.06115*%
%ADD127R,0.04383X0.05603*%
%ADD128R,0.06902X0.10249*%
%ADD129R,0.08280X0.06115*%
%ADD130R,0.11430X0.05328*%
%ADD131R,0.05501X0.03005*%
%ADD132R,0.02572X0.04147*%
%ADD133R,0.04147X0.02572*%
%ADD134R,0.04567X0.02402*%
%ADD135R,0.12800X0.16800*%
G36*
X0579199Y0375401D02*
X0594199Y0375401D01*
X0594200Y0375401D01*
X0594692Y0375401D01*
X0594705Y0375400D01*
X0594718D01*
X0594731Y0375398D01*
X0594744Y0375397D01*
X0594757Y0375395D01*
X0594770Y0375393D01*
X0595736Y0375201D01*
X0595748Y0375198D01*
X0595761Y0375195D01*
X0595774Y0375191D01*
X0595786Y0375187D01*
X0595798Y0375182D01*
X0595811Y0375178D01*
X0596721Y0374801D01*
X0596733Y0374796D01*
X0596745Y0374791D01*
X0596756Y0374784D01*
X0596768Y0374778D01*
X0596779Y0374771D01*
X0596790Y0374764D01*
X0597609Y0374217D01*
X0597620Y0374209D01*
X0597631Y0374202D01*
X0597640Y0374193D01*
X0597651Y0374185D01*
X0597660Y0374176D01*
X0597670Y0374167D01*
X0598366Y0373471D01*
X0598375Y0373461D01*
X0598384Y0373452D01*
X0598392Y0373441D01*
X0598401Y0373431D01*
X0598408Y0373421D01*
X0598416Y0373410D01*
X0598963Y0372591D01*
X0598970Y0372580D01*
X0598977Y0372569D01*
X0598983Y0372557D01*
X0598990Y0372546D01*
X0598995Y0372534D01*
X0599000Y0372522D01*
X0599377Y0371612D01*
X0599382Y0371599D01*
X0599387Y0371587D01*
X0599390Y0371575D01*
X0599394Y0371562D01*
X0599397Y0371549D01*
X0599400Y0371537D01*
X0599592Y0370571D01*
X0599594Y0370558D01*
X0599597Y0370545D01*
X0599597Y0370532D01*
X0599599Y0370519D01*
Y0370506D01*
X0599600Y0370493D01*
X0599600Y0370000D01*
X0599600Y0356000D01*
X0599597Y0355948D01*
X0599586Y0355896D01*
X0599570Y0355847D01*
X0599546Y0355800D01*
X0599517Y0355756D01*
X0599483Y0355717D01*
X0597483Y0353717D01*
X0597443Y0353682D01*
X0597400Y0353653D01*
X0597353Y0353630D01*
X0597303Y0353613D01*
X0597252Y0353603D01*
X0597199Y0353599D01*
X0576199D01*
X0576147Y0353603D01*
X0576095Y0353613D01*
X0576046Y0353630D01*
X0575999Y0353653D01*
X0575955Y0353682D01*
X0575916Y0353717D01*
X0573916Y0355716D01*
X0573881Y0355756D01*
X0573852Y0355800D01*
X0573829Y0355847D01*
X0573812Y0355896D01*
X0573802Y0355948D01*
X0573798Y0356000D01*
X0573798Y0370000D01*
D01*
X0573798Y0370492D01*
X0573799Y0370505D01*
Y0370519D01*
X0573801Y0370532D01*
X0573802Y0370545D01*
X0573804Y0370558D01*
X0573806Y0370571D01*
X0573998Y0371537D01*
X0574001Y0371549D01*
X0574004Y0371562D01*
X0574008Y0371575D01*
X0574012Y0371587D01*
X0574017Y0371599D01*
X0574021Y0371612D01*
X0574398Y0372522D01*
X0574403Y0372534D01*
X0574409Y0372546D01*
X0574415Y0372557D01*
X0574421Y0372569D01*
X0574428Y0372580D01*
X0574435Y0372591D01*
X0574982Y0373410D01*
X0574990Y0373421D01*
X0574997Y0373431D01*
X0575006Y0373441D01*
X0575014Y0373452D01*
X0575023Y0373461D01*
X0575032Y0373471D01*
X0575728Y0374167D01*
X0575738Y0374176D01*
X0575747Y0374185D01*
X0575758Y0374193D01*
X0575768Y0374202D01*
X0575778Y0374209D01*
X0575789Y0374217D01*
X0576608Y0374764D01*
X0576619Y0374771D01*
X0576630Y0374778D01*
X0576642Y0374784D01*
X0576653Y0374791D01*
X0576665Y0374796D01*
X0576677Y0374801D01*
X0577587Y0375178D01*
X0577600Y0375183D01*
X0577612Y0375187D01*
X0577625Y0375191D01*
X0577637Y0375195D01*
X0577650Y0375198D01*
X0577662Y0375201D01*
X0578628Y0375393D01*
X0578642Y0375395D01*
X0578654Y0375397D01*
X0578667Y0375398D01*
X0578680Y0375400D01*
X0578693D01*
X0578707Y0375401D01*
X0579199Y0375401D01*
D02*
G37*
G36*
X0626199Y0391901D02*
X0641199Y0391901D01*
X0641200Y0391901D01*
X0641692Y0391901D01*
X0641705Y0391900D01*
X0641718D01*
X0641731Y0391898D01*
X0641744Y0391897D01*
X0641757Y0391895D01*
X0641770Y0391893D01*
X0642736Y0391701D01*
X0642748Y0391698D01*
X0642761Y0391695D01*
X0642774Y0391691D01*
X0642786Y0391687D01*
X0642799Y0391682D01*
X0642811Y0391678D01*
X0643721Y0391301D01*
X0643733Y0391295D01*
X0643745Y0391290D01*
X0643756Y0391284D01*
X0643768Y0391278D01*
X0643779Y0391271D01*
X0643790Y0391264D01*
X0644609Y0390717D01*
X0644620Y0390709D01*
X0644630Y0390702D01*
X0644640Y0390693D01*
X0644651Y0390685D01*
X0644660Y0390676D01*
X0644670Y0390667D01*
X0645366Y0389971D01*
X0645375Y0389961D01*
X0645384Y0389952D01*
X0645392Y0389941D01*
X0645401Y0389931D01*
X0645408Y0389920D01*
X0645416Y0389910D01*
X0645963Y0389091D01*
X0645970Y0389080D01*
X0645977Y0389069D01*
X0645983Y0389057D01*
X0645990Y0389046D01*
X0645995Y0389034D01*
X0646000Y0389022D01*
X0646377Y0388112D01*
X0646382Y0388099D01*
X0646387Y0388087D01*
X0646390Y0388075D01*
X0646394Y0388062D01*
X0646397Y0388049D01*
X0646400Y0388037D01*
X0646592Y0387071D01*
X0646594Y0387058D01*
X0646596Y0387045D01*
X0646597Y0387032D01*
X0646599Y0387019D01*
Y0387006D01*
X0646600Y0386992D01*
X0646600Y0386500D01*
X0646600Y0372500D01*
X0646597Y0372448D01*
X0646586Y0372396D01*
X0646569Y0372347D01*
X0646546Y0372300D01*
X0646517Y0372256D01*
X0646483Y0372217D01*
X0644483Y0370217D01*
X0644443Y0370182D01*
X0644400Y0370153D01*
X0644353Y0370130D01*
X0644303Y0370113D01*
X0644251Y0370103D01*
X0644199Y0370099D01*
X0623199D01*
X0623147Y0370103D01*
X0623095Y0370113D01*
X0623046Y0370130D01*
X0622999Y0370153D01*
X0622955Y0370182D01*
X0622916Y0370217D01*
X0620916Y0372217D01*
X0620881Y0372256D01*
X0620852Y0372300D01*
X0620829Y0372346D01*
X0620812Y0372396D01*
X0620802Y0372448D01*
X0620798Y0372500D01*
X0620798Y0386500D01*
D01*
X0620798Y0386992D01*
X0620799Y0387005D01*
Y0387019D01*
X0620801Y0387032D01*
X0620802Y0387045D01*
X0620804Y0387058D01*
X0620806Y0387071D01*
X0620998Y0388037D01*
X0621001Y0388049D01*
X0621004Y0388062D01*
X0621008Y0388075D01*
X0621012Y0388087D01*
X0621017Y0388099D01*
X0621021Y0388112D01*
X0621398Y0389022D01*
X0621404Y0389034D01*
X0621409Y0389046D01*
X0621415Y0389057D01*
X0621421Y0389069D01*
X0621428Y0389080D01*
X0621435Y0389091D01*
X0621982Y0389910D01*
X0621990Y0389920D01*
X0621997Y0389931D01*
X0622006Y0389941D01*
X0622014Y0389952D01*
X0622023Y0389961D01*
X0622032Y0389971D01*
X0622728Y0390667D01*
X0622738Y0390676D01*
X0622747Y0390685D01*
X0622758Y0390693D01*
X0622768Y0390702D01*
X0622779Y0390709D01*
X0622789Y0390717D01*
X0623608Y0391264D01*
X0623619Y0391271D01*
X0623630Y0391278D01*
X0623642Y0391284D01*
X0623653Y0391290D01*
X0623666Y0391296D01*
X0623677Y0391301D01*
X0624587Y0391678D01*
X0624600Y0391683D01*
X0624612Y0391687D01*
X0624624Y0391691D01*
X0624637Y0391695D01*
X0624650Y0391698D01*
X0624662Y0391701D01*
X0625628Y0391893D01*
X0625641Y0391895D01*
X0625654Y0391897D01*
X0625667Y0391898D01*
X0625680Y0391900D01*
X0625694D01*
X0625707Y0391901D01*
X0626199Y0391901D01*
D02*
G37*
D45*
X0541229Y0271970D02*
D03*
D85*
X0585699Y0300650D02*
D03*
Y0297500D02*
D03*
X0575699Y0300575D02*
D03*
Y0297425D02*
D03*
X0604000Y0258425D02*
D03*
Y0261575D02*
D03*
X0547699Y0303425D02*
D03*
Y0306575D02*
D03*
X0575699Y0306575D02*
D03*
Y0303425D02*
D03*
X0550199Y0286650D02*
D03*
Y0283500D02*
D03*
X0605199Y0281500D02*
D03*
Y0284650D02*
D03*
X0613199Y0229925D02*
D03*
Y0233075D02*
D03*
X0627699Y0303549D02*
D03*
Y0300400D02*
D03*
D86*
X0633774Y0314500D02*
D03*
X0630624D02*
D03*
X0586774D02*
D03*
X0583624D02*
D03*
X0564624Y0244000D02*
D03*
X0567774D02*
D03*
X0539774Y0314500D02*
D03*
X0536624D02*
D03*
X0558199Y0292500D02*
D03*
X0555050D02*
D03*
X0563124Y0240500D02*
D03*
X0566274D02*
D03*
X0604624Y0255500D02*
D03*
X0607774D02*
D03*
X0607575Y0265000D02*
D03*
X0604425D02*
D03*
X0628124Y0296974D02*
D03*
X0631274D02*
D03*
D99*
X0578699Y0232000D02*
D03*
X0575156D02*
D03*
X0570742D02*
D03*
X0567199D02*
D03*
X0624471Y0222000D02*
D03*
X0620927D02*
D03*
D100*
X0543699Y0290272D02*
D03*
Y0286728D02*
D03*
Y0253728D02*
D03*
Y0257272D02*
D03*
X0535699Y0253728D02*
D03*
Y0257272D02*
D03*
X0627199Y0294043D02*
D03*
Y0290500D02*
D03*
X0631199Y0303746D02*
D03*
Y0300203D02*
D03*
Y0293746D02*
D03*
Y0290203D02*
D03*
X0608199Y0292728D02*
D03*
Y0296272D02*
D03*
X0610199Y0283272D02*
D03*
Y0279728D02*
D03*
D113*
X0660559Y0244000D02*
D03*
X0652685D02*
D03*
X0636989D02*
D03*
X0629089D02*
D03*
X0621189D02*
D03*
X0613315D02*
D03*
X0605441D02*
D03*
X0644811D02*
D03*
X0582837Y0222000D02*
D03*
X0574937D02*
D03*
X0567063D02*
D03*
X0559189D02*
D03*
X0612937D02*
D03*
X0605063D02*
D03*
X0632063D02*
D03*
X0639937D02*
D03*
D114*
X0538699D02*
D03*
X0660199D02*
D03*
X0625699Y0403000D02*
D03*
X0578699D02*
D03*
D115*
X0531199Y0397528D02*
D03*
Y0368000D02*
D03*
D116*
X0540699Y0286500D02*
D03*
X0532699Y0254500D02*
D03*
X0548199Y0246500D02*
D03*
X0545199Y0243500D02*
D03*
X0543699Y0289500D02*
D03*
X0546699D02*
D03*
X0546653Y0286576D02*
D03*
X0536699Y0323500D02*
D03*
X0586199D02*
D03*
X0534199Y0308000D02*
D03*
X0590199Y0234500D02*
D03*
X0587199D02*
D03*
X0584199D02*
D03*
X0581199D02*
D03*
X0576499Y0260500D02*
D03*
X0583699Y0264000D02*
D03*
X0648199Y0293500D02*
D03*
X0645199D02*
D03*
X0629199Y0342500D02*
D03*
Y0345000D02*
D03*
X0631699D02*
D03*
X0570199Y0287500D02*
D03*
X0539774Y0314500D02*
D03*
X0633199Y0260500D02*
D03*
X0630199D02*
D03*
X0556199Y0336500D02*
D03*
X0558699D02*
D03*
X0561199D02*
D03*
X0563699D02*
D03*
X0566199D02*
D03*
X0558699Y0334000D02*
D03*
X0561199D02*
D03*
X0563699D02*
D03*
X0566199D02*
D03*
Y0331500D02*
D03*
X0563699D02*
D03*
X0558699D02*
D03*
X0556199D02*
D03*
Y0329000D02*
D03*
Y0321500D02*
D03*
Y0324000D02*
D03*
X0558699Y0329000D02*
D03*
Y0326500D02*
D03*
Y0324000D02*
D03*
Y0321500D02*
D03*
X0561199D02*
D03*
X0563699D02*
D03*
X0566199D02*
D03*
Y0329000D02*
D03*
Y0326500D02*
D03*
Y0324000D02*
D03*
X0563699D02*
D03*
X0561199D02*
D03*
Y0326500D02*
D03*
X0563699Y0329000D02*
D03*
Y0326500D02*
D03*
X0556199D02*
D03*
X0561199Y0329000D02*
D03*
Y0331500D02*
D03*
X0556199Y0334000D02*
D03*
X0603199Y0336500D02*
D03*
X0605699D02*
D03*
X0608199D02*
D03*
X0610699D02*
D03*
X0613199D02*
D03*
X0605699Y0334000D02*
D03*
X0608199D02*
D03*
X0610699D02*
D03*
X0613199D02*
D03*
Y0331500D02*
D03*
X0610699D02*
D03*
X0605699D02*
D03*
X0603199D02*
D03*
Y0329000D02*
D03*
Y0321500D02*
D03*
Y0324000D02*
D03*
X0605699Y0329000D02*
D03*
Y0326500D02*
D03*
Y0324000D02*
D03*
Y0321500D02*
D03*
X0608199D02*
D03*
X0610699D02*
D03*
X0613199D02*
D03*
Y0329000D02*
D03*
Y0326500D02*
D03*
Y0324000D02*
D03*
X0610699D02*
D03*
X0608199D02*
D03*
Y0326500D02*
D03*
X0610699Y0329000D02*
D03*
Y0326500D02*
D03*
X0603199D02*
D03*
X0608199Y0329000D02*
D03*
Y0331500D02*
D03*
X0603199Y0334000D02*
D03*
X0608199Y0296272D02*
D03*
X0572199Y0309000D02*
D03*
X0569699D02*
D03*
X0567199D02*
D03*
X0575699Y0300575D02*
D03*
X0555199Y0303500D02*
D03*
Y0301000D02*
D03*
Y0298500D02*
D03*
Y0289500D02*
D03*
X0558199Y0292500D02*
D03*
X0560699Y0283500D02*
D03*
X0575699Y0237500D02*
D03*
X0581199Y0243500D02*
D03*
X0584499Y0288293D02*
D03*
X0589199Y0287500D02*
D03*
X0585199Y0300500D02*
D03*
Y0297500D02*
D03*
X0607575Y0265000D02*
D03*
X0589971Y0313500D02*
D03*
X0589199Y0310500D02*
D03*
X0592199Y0317500D02*
D03*
X0536624Y0314500D02*
D03*
X0659699Y0347500D02*
D03*
X0657199D02*
D03*
X0654699D02*
D03*
X0652199D02*
D03*
X0649699D02*
D03*
X0659699Y0345000D02*
D03*
Y0342500D02*
D03*
X0612699Y0347500D02*
D03*
X0610199D02*
D03*
X0607699D02*
D03*
X0605199D02*
D03*
X0602699D02*
D03*
X0612699Y0345000D02*
D03*
Y0342500D02*
D03*
X0565699D02*
D03*
Y0345000D02*
D03*
X0555699Y0347500D02*
D03*
X0558199D02*
D03*
X0560699D02*
D03*
X0563199D02*
D03*
X0565699D02*
D03*
X0576928Y0318728D02*
D03*
X0650199Y0334000D02*
D03*
X0655199Y0331500D02*
D03*
Y0329000D02*
D03*
X0650199Y0326500D02*
D03*
X0657699D02*
D03*
Y0329000D02*
D03*
X0655199Y0326500D02*
D03*
Y0324000D02*
D03*
X0657699D02*
D03*
X0660199D02*
D03*
Y0326500D02*
D03*
Y0329000D02*
D03*
Y0321500D02*
D03*
X0657699D02*
D03*
X0655199D02*
D03*
X0652699D02*
D03*
Y0324000D02*
D03*
Y0326500D02*
D03*
Y0329000D02*
D03*
X0650199Y0324000D02*
D03*
Y0321500D02*
D03*
Y0329000D02*
D03*
Y0331500D02*
D03*
X0652699D02*
D03*
X0657699D02*
D03*
X0660199D02*
D03*
Y0334000D02*
D03*
X0657699D02*
D03*
X0655199D02*
D03*
X0652699D02*
D03*
X0660199Y0336500D02*
D03*
X0657699D02*
D03*
X0655199D02*
D03*
X0652699D02*
D03*
X0650199D02*
D03*
X0631699Y0342500D02*
D03*
X0634199D02*
D03*
Y0345000D02*
D03*
X0582199Y0342500D02*
D03*
X0584699D02*
D03*
X0587199D02*
D03*
Y0345000D02*
D03*
X0584699D02*
D03*
X0582199D02*
D03*
X0535199Y0342500D02*
D03*
X0537699D02*
D03*
X0540199D02*
D03*
Y0345000D02*
D03*
X0537699D02*
D03*
X0535199D02*
D03*
X0538224Y0331050D02*
D03*
X0585224D02*
D03*
X0600199Y0250500D02*
D03*
X0597199D02*
D03*
X0607774Y0255500D02*
D03*
X0604624D02*
D03*
X0604000Y0261575D02*
D03*
X0605199Y0281500D02*
D03*
Y0284650D02*
D03*
X0563199Y0240500D02*
D03*
X0581199D02*
D03*
X0575699Y0243500D02*
D03*
Y0240500D02*
D03*
X0581199Y0237500D02*
D03*
X0562999Y0263777D02*
D03*
X0567699Y0262000D02*
D03*
X0565099D02*
D03*
X0560999Y0262100D02*
D03*
X0540599Y0254900D02*
D03*
X0548199Y0240500D02*
D03*
Y0243500D02*
D03*
X0545199Y0240500D02*
D03*
X0551199Y0246500D02*
D03*
X0548199Y0237500D02*
D03*
X0551699Y0233500D02*
D03*
X0551199Y0243500D02*
D03*
X0554199Y0246500D02*
D03*
Y0243500D02*
D03*
X0557199D02*
D03*
Y0240500D02*
D03*
X0560199D02*
D03*
Y0237500D02*
D03*
X0567199Y0232000D02*
D03*
X0575156D02*
D03*
X0551199Y0237500D02*
D03*
Y0240500D02*
D03*
X0569199Y0237500D02*
D03*
X0566199D02*
D03*
X0572199D02*
D03*
X0590199Y0240500D02*
D03*
X0587199D02*
D03*
X0584199D02*
D03*
X0583699Y0278000D02*
D03*
X0586699D02*
D03*
X0589795Y0277904D02*
D03*
X0578699Y0284000D02*
D03*
X0622199Y0318500D02*
D03*
X0593199Y0264500D02*
D03*
X0588699Y0284000D02*
D03*
X0583699D02*
D03*
X0530199Y0333500D02*
D03*
X0654443Y0309500D02*
D03*
X0637199Y0303500D02*
D03*
Y0306500D02*
D03*
X0634199D02*
D03*
Y0303500D02*
D03*
X0631199D02*
D03*
Y0306500D02*
D03*
X0628199D02*
D03*
Y0303500D02*
D03*
X0631346Y0295647D02*
D03*
X0661199Y0269500D02*
D03*
Y0266500D02*
D03*
Y0287500D02*
D03*
X0625199Y0297500D02*
D03*
X0622199Y0300500D02*
D03*
X0616199Y0303500D02*
D03*
X0619199D02*
D03*
X0622199D02*
D03*
X0625199D02*
D03*
Y0306500D02*
D03*
X0622199D02*
D03*
X0619199D02*
D03*
X0616199D02*
D03*
X0667199Y0266500D02*
D03*
X0664199D02*
D03*
Y0275500D02*
D03*
X0667199D02*
D03*
Y0278500D02*
D03*
X0664199D02*
D03*
Y0281500D02*
D03*
X0667199D02*
D03*
Y0284500D02*
D03*
X0664199D02*
D03*
X0663199Y0302500D02*
D03*
X0660199D02*
D03*
Y0305500D02*
D03*
X0663199Y0308500D02*
D03*
X0660199D02*
D03*
X0666199Y0311500D02*
D03*
X0663199D02*
D03*
X0660199D02*
D03*
X0633199Y0287500D02*
D03*
X0642199Y0293500D02*
D03*
X0639199D02*
D03*
X0636199D02*
D03*
X0654199Y0290500D02*
D03*
X0651199D02*
D03*
X0648199D02*
D03*
X0645199D02*
D03*
X0642199D02*
D03*
X0639199D02*
D03*
X0636199D02*
D03*
X0633199D02*
D03*
X0630199Y0287500D02*
D03*
X0636199D02*
D03*
X0639199D02*
D03*
Y0284500D02*
D03*
X0636199D02*
D03*
X0633199D02*
D03*
X0630199D02*
D03*
X0636199Y0281500D02*
D03*
X0633199D02*
D03*
X0630199D02*
D03*
X0639199D02*
D03*
Y0278500D02*
D03*
X0636199D02*
D03*
X0633199D02*
D03*
X0630199D02*
D03*
X0636199Y0275500D02*
D03*
X0633199D02*
D03*
X0630199D02*
D03*
X0657199Y0284574D02*
D03*
X0630199Y0263500D02*
D03*
X0633199D02*
D03*
X0636199Y0263642D02*
D03*
X0639199Y0266500D02*
D03*
X0636199D02*
D03*
X0633199D02*
D03*
X0630199D02*
D03*
Y0269500D02*
D03*
X0633199D02*
D03*
X0636199D02*
D03*
X0639199D02*
D03*
X0630199Y0272500D02*
D03*
X0633199D02*
D03*
X0639199D02*
D03*
X0636199D02*
D03*
X0639199Y0263500D02*
D03*
Y0260500D02*
D03*
X0636199D02*
D03*
X0590199Y0237500D02*
D03*
X0587199D02*
D03*
X0584199D02*
D03*
X0557199Y0246500D02*
D03*
X0560199D02*
D03*
Y0243500D02*
D03*
X0572199Y0240500D02*
D03*
X0569199D02*
D03*
X0563199Y0237500D02*
D03*
X0554199Y0240500D02*
D03*
Y0237500D02*
D03*
X0557199D02*
D03*
X0600199Y0247500D02*
D03*
X0597199D02*
D03*
Y0241500D02*
D03*
Y0238500D02*
D03*
X0600199D02*
D03*
Y0241500D02*
D03*
Y0244500D02*
D03*
X0597199D02*
D03*
X0627471Y0362000D02*
D03*
X0533471D02*
D03*
X0640955Y0354000D02*
D03*
X0593955D02*
D03*
X0580471Y0362000D02*
D03*
X0653231Y0299468D02*
D03*
X0657168D02*
D03*
X0653231Y0295532D02*
D03*
X0657168D02*
D03*
X0546756Y0354000D02*
D03*
X0613199Y0233000D02*
D03*
Y0230000D02*
D03*
X0541699Y0405000D02*
D03*
Y0408000D02*
D03*
X0588699D02*
D03*
Y0405000D02*
D03*
X0635699Y0408000D02*
D03*
Y0405000D02*
D03*
X0554573Y0408000D02*
D03*
Y0405000D02*
D03*
X0601573Y0408000D02*
D03*
Y0405000D02*
D03*
X0648573Y0408000D02*
D03*
Y0405000D02*
D03*
X0624199Y0367500D02*
D03*
X0626699D02*
D03*
X0624199Y0365000D02*
D03*
X0626699D02*
D03*
X0579699D02*
D03*
X0577199D02*
D03*
X0579699Y0367500D02*
D03*
X0577199D02*
D03*
Y0370000D02*
D03*
X0579699D02*
D03*
X0589199Y0349500D02*
D03*
X0636199D02*
D03*
Y0352000D02*
D03*
X0542199Y0349500D02*
D03*
Y0352000D02*
D03*
X0575699Y0385500D02*
D03*
X0585699Y0388000D02*
D03*
X0583199D02*
D03*
X0580699D02*
D03*
X0578199D02*
D03*
X0575699D02*
D03*
X0573199D02*
D03*
X0570699D02*
D03*
X0585699Y0385500D02*
D03*
X0583199D02*
D03*
X0580699D02*
D03*
X0578199D02*
D03*
X0573199D02*
D03*
X0570699D02*
D03*
Y0383000D02*
D03*
X0573199D02*
D03*
X0575699D02*
D03*
X0578199D02*
D03*
X0580699D02*
D03*
X0583199D02*
D03*
X0585699D02*
D03*
Y0380500D02*
D03*
X0583199D02*
D03*
X0580699D02*
D03*
X0578199D02*
D03*
X0575699D02*
D03*
X0573199D02*
D03*
X0570699D02*
D03*
Y0378000D02*
D03*
X0585699D02*
D03*
X0573199D02*
D03*
X0575699D02*
D03*
X0583199D02*
D03*
X0580699D02*
D03*
X0578199D02*
D03*
X0625199Y0383000D02*
D03*
X0632699Y0388000D02*
D03*
X0622699Y0385500D02*
D03*
X0630199Y0388000D02*
D03*
X0627699D02*
D03*
X0625199D02*
D03*
X0622699D02*
D03*
X0620199D02*
D03*
X0617699D02*
D03*
X0632699Y0385500D02*
D03*
X0630199D02*
D03*
X0627699D02*
D03*
X0625199D02*
D03*
X0620199D02*
D03*
X0617699D02*
D03*
Y0383000D02*
D03*
X0620199D02*
D03*
X0622699D02*
D03*
X0627699D02*
D03*
X0630199D02*
D03*
X0632699D02*
D03*
Y0380500D02*
D03*
X0630199D02*
D03*
X0627699D02*
D03*
X0625199D02*
D03*
X0622699D02*
D03*
X0620199D02*
D03*
X0617699D02*
D03*
Y0378000D02*
D03*
Y0375500D02*
D03*
X0632699Y0378000D02*
D03*
Y0375500D02*
D03*
X0620199D02*
D03*
Y0378000D02*
D03*
X0622699D02*
D03*
Y0375500D02*
D03*
X0630199Y0378000D02*
D03*
Y0375500D02*
D03*
X0627699Y0378000D02*
D03*
Y0375500D02*
D03*
X0625199Y0378000D02*
D03*
Y0375500D02*
D03*
X0578199Y0390500D02*
D03*
X0580699D02*
D03*
X0583199D02*
D03*
X0585699D02*
D03*
X0575699D02*
D03*
X0573199D02*
D03*
X0570699D02*
D03*
X0617699D02*
D03*
X0620199D02*
D03*
X0622699D02*
D03*
X0625199D02*
D03*
X0630199D02*
D03*
X0632699D02*
D03*
X0627699D02*
D03*
X0577199Y0372500D02*
D03*
X0579699D02*
D03*
X0531699Y0390500D02*
D03*
Y0388000D02*
D03*
Y0385500D02*
D03*
Y0383000D02*
D03*
Y0378000D02*
D03*
Y0375500D02*
D03*
Y0380500D02*
D03*
X0536699Y0388000D02*
D03*
Y0380500D02*
D03*
X0534199D02*
D03*
Y0375500D02*
D03*
X0536699D02*
D03*
X0539199D02*
D03*
Y0378000D02*
D03*
X0536699D02*
D03*
X0534199D02*
D03*
X0539199Y0380500D02*
D03*
X0534199Y0383000D02*
D03*
X0536699D02*
D03*
X0539199D02*
D03*
Y0385500D02*
D03*
X0536699D02*
D03*
X0534199D02*
D03*
X0539199Y0388000D02*
D03*
X0534199D02*
D03*
Y0390500D02*
D03*
X0536699D02*
D03*
X0539199D02*
D03*
X0632699Y0373000D02*
D03*
X0630199D02*
D03*
X0627699D02*
D03*
X0625199D02*
D03*
X0622699D02*
D03*
X0570699Y0375500D02*
D03*
X0573199D02*
D03*
X0534199Y0299000D02*
D03*
Y0288200D02*
D03*
X0533427Y0236500D02*
D03*
X0660699Y0252500D02*
D03*
X0594199Y0221000D02*
D03*
X0596699Y0304500D02*
D03*
X0610199Y0283272D02*
D03*
X0613719Y0288437D02*
D03*
X0614046Y0283059D02*
D03*
X0536199Y0233500D02*
D03*
X0594199Y0247500D02*
D03*
Y0250500D02*
D03*
X0570742Y0232000D02*
D03*
X0578699D02*
D03*
X0668699Y0390500D02*
D03*
X0666199D02*
D03*
Y0388000D02*
D03*
Y0385500D02*
D03*
X0668699D02*
D03*
Y0383000D02*
D03*
X0666199D02*
D03*
Y0378000D02*
D03*
X0668699D02*
D03*
Y0375500D02*
D03*
X0666199D02*
D03*
Y0380500D02*
D03*
X0668699D02*
D03*
Y0388000D02*
D03*
X0663699Y0380500D02*
D03*
Y0375500D02*
D03*
Y0378000D02*
D03*
Y0383000D02*
D03*
Y0385500D02*
D03*
Y0388000D02*
D03*
Y0390500D02*
D03*
X0580699Y0264000D02*
D03*
Y0261376D02*
D03*
X0619199Y0300500D02*
D03*
X0616199D02*
D03*
X0619199Y0297500D02*
D03*
X0622199D02*
D03*
X0624199Y0293500D02*
D03*
X0613199Y0303500D02*
D03*
Y0300500D02*
D03*
Y0297500D02*
D03*
X0622199Y0275500D02*
D03*
X0619199D02*
D03*
X0616199D02*
D03*
X0589199Y0352000D02*
D03*
X0606364Y0308000D02*
D03*
X0610025Y0307951D02*
D03*
D117*
X0538385Y0282206D02*
D03*
X0544094D02*
D03*
X0538385Y0261734D02*
D03*
X0544094D02*
D03*
D118*
X0564504Y0326236D02*
D03*
Y0345764D02*
D03*
X0658504D02*
D03*
Y0326236D02*
D03*
X0611504Y0345764D02*
D03*
Y0326236D02*
D03*
D119*
X0548224Y0345764D02*
D03*
Y0326236D02*
D03*
X0642224D02*
D03*
Y0345764D02*
D03*
X0595224Y0326236D02*
D03*
Y0345764D02*
D03*
D120*
X0635199Y0264642D02*
D03*
Y0282358D02*
D03*
D121*
X0572073Y0240500D02*
D03*
X0581325D02*
D03*
D122*
X0562435Y0292252D02*
D03*
X0564404D02*
D03*
X0566372D02*
D03*
X0568341D02*
D03*
X0570309D02*
D03*
X0572278D02*
D03*
X0574246D02*
D03*
X0576215D02*
D03*
X0578183D02*
D03*
X0580152D02*
D03*
X0582120D02*
D03*
X0584089D02*
D03*
X0586057D02*
D03*
X0588026D02*
D03*
X0589994D02*
D03*
X0591963D02*
D03*
Y0248748D02*
D03*
X0589994D02*
D03*
X0588026D02*
D03*
X0586057D02*
D03*
X0584089D02*
D03*
X0582120D02*
D03*
X0580152D02*
D03*
X0578183D02*
D03*
X0576215D02*
D03*
X0574246D02*
D03*
X0572278D02*
D03*
X0570309D02*
D03*
X0568341D02*
D03*
X0566372D02*
D03*
X0564404D02*
D03*
X0562435D02*
D03*
D123*
X0598951Y0285264D02*
D03*
Y0283295D02*
D03*
Y0281327D02*
D03*
Y0279358D02*
D03*
Y0277390D02*
D03*
Y0275421D02*
D03*
Y0273453D02*
D03*
Y0271484D02*
D03*
Y0269516D02*
D03*
Y0267547D02*
D03*
Y0265579D02*
D03*
Y0263610D02*
D03*
Y0261642D02*
D03*
Y0259673D02*
D03*
Y0257705D02*
D03*
Y0255736D02*
D03*
X0555447D02*
D03*
Y0257705D02*
D03*
Y0259673D02*
D03*
Y0261642D02*
D03*
Y0263610D02*
D03*
Y0265579D02*
D03*
Y0267547D02*
D03*
Y0269516D02*
D03*
Y0271484D02*
D03*
Y0273453D02*
D03*
Y0275421D02*
D03*
Y0277390D02*
D03*
Y0279358D02*
D03*
Y0281327D02*
D03*
Y0283295D02*
D03*
Y0285264D02*
D03*
D124*
X0553549Y0300750D02*
D03*
X0569849D02*
D03*
Y0310250D02*
D03*
X0553549D02*
D03*
D125*
X0628161Y0336465D02*
D03*
X0630721D02*
D03*
X0633280D02*
D03*
X0635839D02*
D03*
X0628161Y0319535D02*
D03*
X0630721D02*
D03*
X0633280D02*
D03*
X0635839D02*
D03*
X0534161Y0336465D02*
D03*
X0536721D02*
D03*
X0539280D02*
D03*
X0541839D02*
D03*
X0534161Y0319535D02*
D03*
X0536721D02*
D03*
X0539280D02*
D03*
X0541839D02*
D03*
X0581161Y0336465D02*
D03*
X0583720D02*
D03*
X0586279D02*
D03*
X0588839D02*
D03*
X0581161Y0319535D02*
D03*
X0583720D02*
D03*
X0586279D02*
D03*
X0588839D02*
D03*
D126*
X0657199Y0361559D02*
D03*
Y0381441D02*
D03*
X0610199Y0361559D02*
D03*
Y0381441D02*
D03*
X0563199Y0361618D02*
D03*
Y0381500D02*
D03*
D127*
X0541762Y0406500D02*
D03*
X0554636D02*
D03*
X0588762D02*
D03*
X0601636D02*
D03*
X0635762D02*
D03*
X0648636D02*
D03*
D128*
X0542199Y0378508D02*
D03*
Y0366500D02*
D03*
D129*
X0665199Y0293902D02*
D03*
Y0306500D02*
D03*
D130*
X0653199Y0304906D02*
D03*
Y0293094D02*
D03*
X0640699Y0304906D02*
D03*
Y0293094D02*
D03*
D131*
X0645699Y0270000D02*
D03*
Y0275000D02*
D03*
Y0280000D02*
D03*
Y0285000D02*
D03*
X0665601Y0270000D02*
D03*
Y0275000D02*
D03*
Y0280000D02*
D03*
Y0285000D02*
D03*
D132*
X0616278Y0296654D02*
D03*
X0613719Y0288347D02*
D03*
X0618837D02*
D03*
D133*
X0622353Y0280500D02*
D03*
X0614046Y0283059D02*
D03*
Y0277941D02*
D03*
D134*
X0618081Y0235339D02*
D03*
X0628317D02*
D03*
Y0227661D02*
D03*
Y0230221D02*
D03*
Y0232780D02*
D03*
X0618081D02*
D03*
Y0230221D02*
D03*
Y0227661D02*
D03*
D135*
X0652650Y0277500D02*
D03*
M02*
