G04 Layer_Color=128*
%FSAX25Y25*%
%MOIN*%
G70*
G01*
G75*
%ADD12R,0.02047X0.02047*%
%ADD13R,0.02047X0.02047*%
%ADD26R,0.01772X0.02165*%
%ADD27R,0.02165X0.01772*%
%ADD58R,0.03150X0.05512*%
%ADD59R,0.22047X0.09606*%
%ADD60R,0.03504X0.09606*%
%ADD61R,0.09055X0.09055*%
%ADD62R,0.03347X0.01575*%
%ADD63O,0.00984X0.06102*%
%ADD64O,0.06102X0.00984*%
%ADD65R,0.06300X0.05500*%
%ADD66O,0.01772X0.06299*%
%ADD67R,0.20866X0.05315*%
%ADD68R,0.03583X0.04803*%
%ADD69R,0.06102X0.09449*%
%ADD70R,0.07480X0.05315*%
%ADD71R,0.10630X0.04528*%
%ADD72R,0.04701X0.02205*%
%ADD73R,0.01772X0.03347*%
%ADD74R,0.03347X0.01772*%
%ADD75R,0.03937X0.01772*%
D12*
X0585699Y0300650D02*
D03*
Y0297500D02*
D03*
X0575699Y0300575D02*
D03*
Y0297425D02*
D03*
X0604000Y0258425D02*
D03*
Y0261575D02*
D03*
X0547699Y0303425D02*
D03*
Y0306575D02*
D03*
X0575699Y0306575D02*
D03*
Y0303425D02*
D03*
X0550199Y0286650D02*
D03*
Y0283500D02*
D03*
X0605199Y0281500D02*
D03*
Y0284650D02*
D03*
X0613199Y0229925D02*
D03*
Y0233075D02*
D03*
X0627699Y0303549D02*
D03*
Y0300400D02*
D03*
D13*
X0633774Y0314500D02*
D03*
X0630624D02*
D03*
X0586774D02*
D03*
X0583624D02*
D03*
X0564624Y0244000D02*
D03*
X0567774D02*
D03*
X0539774Y0314500D02*
D03*
X0536624D02*
D03*
X0558199Y0292500D02*
D03*
X0555050D02*
D03*
X0563124Y0240500D02*
D03*
X0566274D02*
D03*
X0604624Y0255500D02*
D03*
X0607774D02*
D03*
X0607575Y0265000D02*
D03*
X0604425D02*
D03*
X0628124Y0296974D02*
D03*
X0631274D02*
D03*
D26*
X0578699Y0232000D02*
D03*
X0575156D02*
D03*
X0570742D02*
D03*
X0567199D02*
D03*
X0624471Y0222000D02*
D03*
X0620927D02*
D03*
D27*
X0543699Y0290272D02*
D03*
Y0286728D02*
D03*
Y0253728D02*
D03*
Y0257272D02*
D03*
X0535699Y0253728D02*
D03*
Y0257272D02*
D03*
X0627199Y0294043D02*
D03*
Y0290500D02*
D03*
X0631199Y0303746D02*
D03*
Y0300203D02*
D03*
Y0293746D02*
D03*
Y0290203D02*
D03*
X0608199Y0292728D02*
D03*
Y0296272D02*
D03*
X0610199Y0283272D02*
D03*
Y0279728D02*
D03*
D58*
X0538385Y0282206D02*
D03*
X0544094D02*
D03*
X0538385Y0261734D02*
D03*
X0544094D02*
D03*
D59*
X0564504Y0326236D02*
D03*
Y0345764D02*
D03*
X0658504D02*
D03*
Y0326236D02*
D03*
X0611504Y0345764D02*
D03*
Y0326236D02*
D03*
D60*
X0548224Y0345764D02*
D03*
Y0326236D02*
D03*
X0642224D02*
D03*
Y0345764D02*
D03*
X0595224Y0326236D02*
D03*
Y0345764D02*
D03*
D61*
X0635199Y0264642D02*
D03*
Y0282358D02*
D03*
D62*
X0572073Y0240500D02*
D03*
X0581325D02*
D03*
D63*
X0562435Y0292252D02*
D03*
X0564404D02*
D03*
X0566372D02*
D03*
X0568341D02*
D03*
X0570309D02*
D03*
X0572278D02*
D03*
X0574246D02*
D03*
X0576215D02*
D03*
X0578183D02*
D03*
X0580152D02*
D03*
X0582120D02*
D03*
X0584089D02*
D03*
X0586057D02*
D03*
X0588026D02*
D03*
X0589994D02*
D03*
X0591963D02*
D03*
Y0248748D02*
D03*
X0589994D02*
D03*
X0588026D02*
D03*
X0586057D02*
D03*
X0584089D02*
D03*
X0582120D02*
D03*
X0580152D02*
D03*
X0578183D02*
D03*
X0576215D02*
D03*
X0574246D02*
D03*
X0572278D02*
D03*
X0570309D02*
D03*
X0568341D02*
D03*
X0566372D02*
D03*
X0564404D02*
D03*
X0562435D02*
D03*
D64*
X0598951Y0285264D02*
D03*
Y0283295D02*
D03*
Y0281327D02*
D03*
Y0279358D02*
D03*
Y0277390D02*
D03*
Y0275421D02*
D03*
Y0273453D02*
D03*
Y0271484D02*
D03*
Y0269516D02*
D03*
Y0267547D02*
D03*
Y0265579D02*
D03*
Y0263610D02*
D03*
Y0261642D02*
D03*
Y0259673D02*
D03*
Y0257705D02*
D03*
Y0255736D02*
D03*
X0555447D02*
D03*
Y0257705D02*
D03*
Y0259673D02*
D03*
Y0261642D02*
D03*
Y0263610D02*
D03*
Y0265579D02*
D03*
Y0267547D02*
D03*
Y0269516D02*
D03*
Y0271484D02*
D03*
Y0273453D02*
D03*
Y0275421D02*
D03*
Y0277390D02*
D03*
Y0279358D02*
D03*
Y0281327D02*
D03*
Y0283295D02*
D03*
Y0285264D02*
D03*
D65*
X0553549Y0300750D02*
D03*
X0569849D02*
D03*
Y0310250D02*
D03*
X0553549D02*
D03*
D66*
X0628161Y0336465D02*
D03*
X0630721D02*
D03*
X0633280D02*
D03*
X0635839D02*
D03*
X0628161Y0319535D02*
D03*
X0630721D02*
D03*
X0633280D02*
D03*
X0635839D02*
D03*
X0534161Y0336465D02*
D03*
X0536721D02*
D03*
X0539280D02*
D03*
X0541839D02*
D03*
X0534161Y0319535D02*
D03*
X0536721D02*
D03*
X0539280D02*
D03*
X0541839D02*
D03*
X0581161Y0336465D02*
D03*
X0583720D02*
D03*
X0586279D02*
D03*
X0588839D02*
D03*
X0581161Y0319535D02*
D03*
X0583720D02*
D03*
X0586279D02*
D03*
X0588839D02*
D03*
D67*
X0657199Y0361559D02*
D03*
Y0381441D02*
D03*
X0610199Y0361559D02*
D03*
Y0381441D02*
D03*
X0563199Y0361618D02*
D03*
Y0381500D02*
D03*
D68*
X0541762Y0406500D02*
D03*
X0554636D02*
D03*
X0588762D02*
D03*
X0601636D02*
D03*
X0635762D02*
D03*
X0648636D02*
D03*
D69*
X0542199Y0378508D02*
D03*
Y0366500D02*
D03*
D70*
X0665199Y0293902D02*
D03*
Y0306500D02*
D03*
D71*
X0653199Y0304906D02*
D03*
Y0293094D02*
D03*
X0640699Y0304906D02*
D03*
Y0293094D02*
D03*
D72*
X0645699Y0270000D02*
D03*
Y0275000D02*
D03*
Y0280000D02*
D03*
Y0285000D02*
D03*
X0665601Y0270000D02*
D03*
Y0275000D02*
D03*
Y0280000D02*
D03*
Y0285000D02*
D03*
D73*
X0616278Y0296654D02*
D03*
X0613719Y0288347D02*
D03*
X0618837D02*
D03*
D74*
X0622353Y0280500D02*
D03*
X0614046Y0283059D02*
D03*
Y0277941D02*
D03*
D75*
X0618081Y0235339D02*
D03*
X0628317D02*
D03*
Y0227661D02*
D03*
Y0230221D02*
D03*
Y0232780D02*
D03*
X0618081D02*
D03*
Y0230221D02*
D03*
Y0227661D02*
D03*
M02*
