G04 Layer_Physical_Order=1*
G04 Layer_Color=255*
%FSAX25Y25*%
%MOIN*%
G70*
G01*
G75*
%ADD10R,0.02559X0.02165*%
%ADD11R,0.02165X0.02559*%
%ADD12R,0.02047X0.02047*%
%ADD13R,0.02047X0.02047*%
%ADD14R,0.02756X0.03543*%
%ADD15R,0.03543X0.03937*%
%ADD16R,0.07500X0.07500*%
%ADD17R,0.07500X0.07100*%
%ADD18R,0.05600X0.01400*%
%ADD19R,0.06693X0.04331*%
%ADD20R,0.05118X0.02756*%
%ADD21R,0.03347X0.04331*%
%ADD22R,0.04331X0.06693*%
%ADD23R,0.04331X0.03347*%
%ADD24R,0.02756X0.05118*%
%ADD25R,0.05600X0.04800*%
%ADD26R,0.01772X0.02165*%
%ADD27R,0.02165X0.01772*%
%ADD28R,0.03150X0.08189*%
%ADD29R,0.02756X0.01181*%
%ADD30R,0.01181X0.03150*%
%ADD31R,0.13307X0.09646*%
%ADD32R,0.05315X0.20866*%
%ADD33R,0.03937X0.03543*%
%ADD34R,0.12800X0.12300*%
%ADD35R,0.06811X0.07284*%
%ADD36O,0.06102X0.01772*%
G04:AMPARAMS|DCode=37|XSize=82.68mil|YSize=228.35mil|CornerRadius=41.34mil|HoleSize=0mil|Usage=FLASHONLY|Rotation=270.000|XOffset=0mil|YOffset=0mil|HoleType=Round|Shape=RoundedRectangle|*
%AMROUNDEDRECTD37*
21,1,0.08268,0.14567,0,0,270.0*
21,1,0.00000,0.22835,0,0,270.0*
1,1,0.08268,-0.07284,0.00000*
1,1,0.08268,-0.07284,0.00000*
1,1,0.08268,0.07284,0.00000*
1,1,0.08268,0.07284,0.00000*
%
%ADD37ROUNDEDRECTD37*%
%ADD38R,0.10236X0.03740*%
%ADD39R,0.03740X0.10236*%
%ADD40C,0.01000*%
%ADD41C,0.01500*%
%ADD42C,0.04000*%
%ADD43C,0.02000*%
%ADD44C,0.01200*%
%ADD45C,0.07480*%
%ADD46C,0.06300*%
%ADD47C,0.12205*%
%ADD48O,0.04724X0.07874*%
%ADD49C,0.02000*%
G36*
X0556199Y0302500D02*
X0557199Y0301500D01*
X0558128D01*
Y0302319D01*
X0557223D01*
Y0302881D01*
X0561700D01*
Y0304324D01*
X0571417D01*
X0571608Y0303862D01*
X0569262Y0301516D01*
X0568974Y0301086D01*
X0568874Y0300579D01*
Y0288756D01*
X0568504Y0288202D01*
X0568364Y0287500D01*
X0568419Y0287226D01*
X0568008Y0286725D01*
X0564927D01*
X0561700Y0289952D01*
Y0293418D01*
X0559751D01*
X0559497Y0293798D01*
X0558901Y0294196D01*
X0558199Y0294335D01*
X0557497Y0294196D01*
X0556901Y0293798D01*
X0556648Y0293418D01*
X0556557D01*
Y0293282D01*
X0556504Y0293202D01*
X0556364Y0292500D01*
X0556504Y0291798D01*
X0556557Y0291718D01*
Y0288886D01*
X0554342D01*
Y0290271D01*
X0555082D01*
Y0293642D01*
X0555082D01*
Y0293814D01*
X0555082D01*
Y0297186D01*
X0554401D01*
Y0297500D01*
X0554199D01*
Y0304500D01*
X0556199D01*
Y0302500D01*
D02*
G37*
G36*
X0639199Y0306000D02*
X0639516Y0305683D01*
Y0305242D01*
X0639957D01*
X0640078Y0305121D01*
Y0300780D01*
X0640078Y0300780D01*
X0640153Y0300401D01*
X0640134Y0300308D01*
X0639862Y0299901D01*
X0631479D01*
X0631049Y0299816D01*
X0630686Y0299573D01*
X0630686Y0299573D01*
X0625827Y0294714D01*
X0625353Y0294654D01*
X0624823Y0295007D01*
X0624199Y0295131D01*
X0623575Y0295007D01*
X0623046Y0294654D01*
X0622692Y0294124D01*
X0622568Y0293500D01*
X0622692Y0292876D01*
X0623046Y0292347D01*
X0623575Y0291993D01*
X0624199Y0291869D01*
X0624823Y0291993D01*
X0625353Y0292347D01*
X0625374Y0292378D01*
X0626199D01*
X0626199Y0292378D01*
X0626628Y0292464D01*
X0626992Y0292707D01*
X0629358Y0295073D01*
X0629910Y0294917D01*
X0630193Y0294494D01*
X0630722Y0294140D01*
X0631132Y0294058D01*
X0631320Y0293540D01*
X0628740Y0290959D01*
X0628550Y0290500D01*
X0628550Y0274500D01*
X0628315Y0274149D01*
X0613199Y0274149D01*
X0612740Y0273959D01*
X0612550Y0273500D01*
Y0264500D01*
X0609501D01*
X0609184Y0264886D01*
X0609206Y0265000D01*
X0609082Y0265624D01*
X0608728Y0266154D01*
X0608199Y0266507D01*
X0607575Y0266631D01*
X0606951Y0266507D01*
X0606421Y0266154D01*
X0606068Y0265624D01*
X0605943Y0265000D01*
X0605966Y0264886D01*
X0605649Y0264500D01*
X0600199D01*
Y0304500D01*
X0609699Y0304500D01*
X0613699Y0308500D01*
X0627199Y0308500D01*
X0636699D01*
D01*
X0639199D01*
Y0306000D01*
D02*
G37*
G36*
X0575423Y0308918D02*
X0575216Y0308418D01*
X0572698D01*
Y0306975D01*
X0561700D01*
Y0308418D01*
X0556557D01*
Y0308398D01*
X0553375D01*
Y0305449D01*
X0553175D01*
Y0303551D01*
X0552714Y0303360D01*
X0548577Y0307496D01*
X0548299Y0307682D01*
Y0310174D01*
X0574166D01*
X0575423Y0308918D01*
D02*
G37*
G36*
X0570000Y0321000D02*
X0552000D01*
X0552000Y0340500D01*
X0570000D01*
X0570000Y0321000D01*
D02*
G37*
G36*
X0587117Y0329743D02*
Y0329086D01*
X0587117D01*
Y0328914D01*
X0587117D01*
Y0325542D01*
X0590883D01*
Y0325997D01*
X0598184D01*
Y0321000D01*
X0598234Y0320749D01*
X0598194Y0320613D01*
X0597938Y0320249D01*
X0595192D01*
Y0314318D01*
X0595490D01*
X0595681Y0313856D01*
X0591242Y0309417D01*
X0590853Y0309736D01*
X0590895Y0309798D01*
X0591034Y0310500D01*
X0590951Y0310917D01*
X0591307Y0311417D01*
X0591857D01*
Y0312500D01*
X0589971D01*
Y0314500D01*
X0591857D01*
Y0315223D01*
X0592196Y0315661D01*
X0592313Y0315687D01*
X0592901Y0315804D01*
X0593497Y0316202D01*
X0593895Y0316798D01*
X0594034Y0317500D01*
X0593895Y0318202D01*
X0593497Y0318798D01*
X0592901Y0319196D01*
X0592199Y0319335D01*
X0591809Y0319258D01*
X0591657Y0319383D01*
Y0319383D01*
X0588613D01*
X0588285Y0319383D01*
X0587785Y0319383D01*
X0584742D01*
X0584450Y0319762D01*
Y0328859D01*
X0584950Y0329269D01*
X0585224Y0329214D01*
X0585927Y0329354D01*
X0586522Y0329752D01*
X0586617Y0329894D01*
X0587117Y0329743D01*
D02*
G37*
G36*
X0664000Y0321000D02*
X0646000D01*
X0646000Y0340500D01*
X0664000D01*
X0664000Y0321000D01*
D02*
G37*
G36*
X0617000D02*
X0599000D01*
X0599000Y0340500D01*
X0617000D01*
X0617000Y0321000D01*
D02*
G37*
G36*
X0566199Y0258500D02*
Y0252500D01*
X0570699D01*
Y0249500D01*
X0542199D01*
X0542199Y0258500D01*
X0544199Y0260500D01*
X0564199D01*
X0566199Y0258500D01*
D02*
G37*
G36*
X0573699Y0248500D02*
X0573699Y0235500D01*
X0545199Y0235500D01*
X0542199Y0238500D01*
X0542199Y0248500D01*
X0573699Y0248500D01*
D02*
G37*
G36*
X0595199Y0256500D02*
X0601199Y0250500D01*
X0601199Y0237500D01*
X0596199D01*
Y0245500D01*
X0585199D01*
Y0249500D01*
X0581199Y0253500D01*
X0575699D01*
Y0256500D01*
X0595199Y0256500D01*
D02*
G37*
G36*
X0668199Y0308500D02*
X0664199D01*
X0663199Y0307500D01*
Y0300500D01*
X0661199D01*
X0658199Y0303500D01*
Y0311500D01*
X0660199Y0313500D01*
X0668199D01*
Y0308500D01*
D02*
G37*
G36*
X0640199Y0273500D02*
X0640199Y0259500D01*
X0613199D01*
Y0273500D01*
X0640199Y0273500D01*
D02*
G37*
G36*
X0572498Y0300350D02*
X0575270D01*
Y0299350D01*
X0576270D01*
Y0296382D01*
X0577374D01*
Y0293418D01*
X0572698D01*
Y0289952D01*
X0571986Y0289241D01*
X0571525Y0289432D01*
Y0300030D01*
X0572036Y0300541D01*
X0572498Y0300350D01*
D02*
G37*
G36*
X0634117Y0329086D02*
X0634117D01*
Y0328914D01*
X0634117D01*
Y0325542D01*
X0637883D01*
Y0325997D01*
X0645184D01*
Y0321000D01*
X0645234Y0320749D01*
X0645194Y0320613D01*
X0644938Y0320249D01*
X0642192D01*
Y0314318D01*
X0650485D01*
Y0314318D01*
X0650854D01*
Y0314318D01*
X0651410D01*
X0651428Y0313825D01*
X0650920Y0313725D01*
X0650490Y0313437D01*
X0649010Y0311958D01*
X0647498D01*
X0647317Y0311958D01*
X0647317Y0311958D01*
X0647023Y0311898D01*
Y0311898D01*
X0643375D01*
Y0311898D01*
X0643082Y0311958D01*
X0643082Y0311958D01*
X0642900Y0311958D01*
X0639316D01*
Y0309412D01*
X0639199Y0309316D01*
X0636699D01*
X0636699Y0309316D01*
X0636699Y0309316D01*
X0627199D01*
X0613699Y0309316D01*
X0613699Y0309316D01*
X0613387Y0309254D01*
X0613122Y0309077D01*
X0613122Y0309077D01*
X0609361Y0305316D01*
X0600199Y0305316D01*
X0599887Y0305254D01*
X0599622Y0305077D01*
X0599445Y0304812D01*
X0599383Y0304500D01*
Y0264500D01*
X0599445Y0264188D01*
X0599622Y0263923D01*
X0599887Y0263746D01*
X0600199Y0263684D01*
X0605649D01*
X0605688Y0263692D01*
X0605729Y0263688D01*
X0605843Y0263723D01*
X0605961Y0263746D01*
X0605995Y0263769D01*
X0606033Y0263781D01*
X0606126Y0263857D01*
X0606226Y0263923D01*
X0606248Y0263957D01*
X0606279Y0263983D01*
X0606597Y0264369D01*
X0606616Y0264405D01*
X0606644Y0264433D01*
X0606690Y0264544D01*
X0606747Y0264650D01*
X0606750Y0264690D01*
X0606766Y0264727D01*
Y0264847D01*
X0606778Y0264966D01*
X0606772Y0264985D01*
X0606836Y0265306D01*
X0607009Y0265565D01*
X0607269Y0265739D01*
X0607575Y0265800D01*
X0607881Y0265739D01*
X0608140Y0265565D01*
X0608314Y0265306D01*
X0608378Y0264985D01*
X0608372Y0264966D01*
X0608384Y0264847D01*
Y0264727D01*
X0608399Y0264690D01*
X0608403Y0264650D01*
X0608460Y0264544D01*
X0608505Y0264433D01*
X0608534Y0264405D01*
X0608553Y0264369D01*
X0608870Y0263983D01*
X0608902Y0263957D01*
X0608924Y0263923D01*
X0609024Y0263857D01*
X0609116Y0263781D01*
X0609155Y0263769D01*
X0609189Y0263746D01*
X0609306Y0263723D01*
X0609421Y0263688D01*
X0609461Y0263692D01*
X0609501Y0263684D01*
X0612383D01*
Y0259500D01*
X0612445Y0259188D01*
X0612622Y0258923D01*
X0612887Y0258746D01*
X0613199Y0258684D01*
X0630101D01*
X0630199Y0258665D01*
X0630298Y0258684D01*
X0633101D01*
X0633199Y0258665D01*
X0633298Y0258684D01*
X0636101D01*
X0636199Y0258665D01*
X0636298Y0258684D01*
X0639101D01*
X0639199Y0258665D01*
X0639298Y0258684D01*
X0640199D01*
X0640511Y0258746D01*
X0640776Y0258923D01*
X0640953Y0259188D01*
X0641015Y0259500D01*
Y0260402D01*
X0641034Y0260500D01*
X0641015Y0260598D01*
X0641015Y0263402D01*
X0641034Y0263500D01*
X0641015Y0263598D01*
Y0266402D01*
X0641034Y0266500D01*
X0641015Y0266599D01*
Y0269401D01*
X0641034Y0269500D01*
X0641015Y0269599D01*
X0641015Y0272401D01*
X0641034Y0272500D01*
X0641015Y0272599D01*
Y0273500D01*
X0640953Y0273812D01*
X0640776Y0274077D01*
X0640511Y0274254D01*
X0640199Y0274316D01*
X0639298D01*
X0639199Y0274335D01*
X0639101Y0274316D01*
X0636298D01*
X0636199Y0274335D01*
X0636101Y0274316D01*
X0633298D01*
X0633199Y0274335D01*
X0633101Y0274316D01*
X0630298D01*
X0630199Y0274335D01*
X0630101Y0274316D01*
X0629835D01*
X0629766Y0274343D01*
X0629633Y0274500D01*
X0629199D01*
X0629199Y0290500D01*
X0632113Y0293414D01*
X0632135Y0293503D01*
X0632132Y0293522D01*
X0632136Y0293540D01*
X0632108Y0293678D01*
X0632087Y0293818D01*
X0632063Y0293885D01*
X0632049Y0293952D01*
X0632644Y0294350D01*
X0633009Y0294895D01*
X0642497D01*
X0642622Y0294661D01*
X0643769D01*
X0643813Y0294632D01*
X0644471Y0294501D01*
X0646636D01*
Y0294500D01*
X0654199D01*
Y0297500D01*
Y0302142D01*
X0650794D01*
X0650794Y0302142D01*
X0650294Y0302140D01*
X0650017Y0302554D01*
X0649459Y0302927D01*
X0648802Y0303057D01*
X0646792D01*
X0646525Y0303325D01*
Y0305097D01*
X0647023Y0305102D01*
X0647317Y0305043D01*
Y0305043D01*
X0647498Y0305043D01*
X0651082D01*
Y0308414D01*
X0651082D01*
Y0308586D01*
X0651082D01*
Y0310280D01*
X0651565Y0310763D01*
X0652065Y0310556D01*
Y0310500D01*
X0654443D01*
X0656821D01*
Y0311175D01*
X0657383D01*
Y0303500D01*
X0657383Y0303500D01*
X0657445Y0303188D01*
X0657622Y0302923D01*
X0657942Y0302604D01*
X0657751Y0302142D01*
X0656199D01*
Y0297500D01*
Y0292858D01*
X0659605D01*
X0659605Y0292858D01*
X0660105Y0292860D01*
X0660381Y0292446D01*
X0660407Y0292181D01*
X0656262Y0288036D01*
X0655974Y0287606D01*
X0655874Y0287098D01*
Y0285830D01*
X0655504Y0285276D01*
X0655364Y0284574D01*
X0655504Y0283872D01*
X0655901Y0283276D01*
X0656497Y0282878D01*
X0657199Y0282739D01*
X0657901Y0282878D01*
X0658497Y0283276D01*
X0658895Y0283872D01*
X0659034Y0284574D01*
X0658895Y0285276D01*
X0658525Y0285830D01*
Y0286549D01*
X0659007Y0287032D01*
X0659486Y0286887D01*
X0659504Y0286798D01*
X0659901Y0286202D01*
X0660497Y0285804D01*
X0661199Y0285665D01*
X0661579Y0285740D01*
X0661825Y0285279D01*
X0655622Y0279077D01*
X0655445Y0278812D01*
X0655383Y0278500D01*
X0655383Y0278500D01*
X0655383Y0263500D01*
X0655445Y0263188D01*
X0655622Y0262923D01*
X0655887Y0262746D01*
X0656199Y0262684D01*
X0669199D01*
X0669511Y0262746D01*
X0669776Y0262923D01*
X0669953Y0263188D01*
X0670015Y0263500D01*
Y0285500D01*
X0669953Y0285812D01*
X0669776Y0286077D01*
X0669511Y0286254D01*
X0669199Y0286316D01*
X0667298D01*
X0667199Y0286335D01*
X0667101Y0286316D01*
X0664596Y0286316D01*
X0664389Y0286816D01*
X0669301Y0291728D01*
X0669589Y0292158D01*
X0669690Y0292665D01*
Y0294335D01*
X0669589Y0294842D01*
X0669301Y0295272D01*
X0667422Y0297151D01*
X0667416Y0297158D01*
X0667383Y0297206D01*
X0667313Y0297500D01*
X0667383Y0297794D01*
X0667416Y0297842D01*
X0667422Y0297849D01*
X0669136Y0299563D01*
X0669424Y0299993D01*
X0669525Y0300500D01*
Y0303500D01*
X0669424Y0304007D01*
X0669136Y0304437D01*
X0668968Y0304606D01*
Y0308072D01*
X0668968Y0308072D01*
X0669015Y0308500D01*
Y0312019D01*
X0670078Y0313082D01*
X0670160Y0313078D01*
X0670578Y0312921D01*
Y0218465D01*
X0663235Y0211122D01*
X0535664D01*
X0528321Y0218465D01*
Y0331500D01*
X0531649D01*
Y0330467D01*
X0531750Y0329960D01*
X0532037Y0329530D01*
X0536807Y0324760D01*
X0536616Y0324298D01*
X0535199D01*
Y0319748D01*
X0534199D01*
Y0318748D01*
X0529449D01*
Y0315198D01*
X0534534D01*
X0534851Y0314811D01*
X0534789Y0314500D01*
X0534839Y0314250D01*
X0534428Y0313750D01*
X0529449D01*
Y0310000D01*
X0534199D01*
X0538949D01*
Y0313750D01*
X0538820D01*
X0538410Y0314250D01*
X0538460Y0314500D01*
X0538398Y0314811D01*
X0538715Y0315198D01*
X0538949D01*
Y0316168D01*
X0539449Y0316375D01*
X0544745Y0311080D01*
X0544553Y0310618D01*
X0541099D01*
Y0307618D01*
Y0305059D01*
Y0300500D01*
X0540899D01*
Y0299800D01*
X0544699D01*
Y0298800D01*
X0545699D01*
Y0297100D01*
X0547316D01*
Y0293814D01*
X0547316D01*
Y0293642D01*
X0547316D01*
Y0291607D01*
X0546930Y0291289D01*
X0546699Y0291335D01*
X0545997Y0291196D01*
X0545537Y0290889D01*
X0545199Y0290832D01*
X0544861Y0290889D01*
X0544401Y0291196D01*
X0543699Y0291335D01*
X0542997Y0291196D01*
X0542401Y0290798D01*
X0542004Y0290202D01*
X0541864Y0289500D01*
X0542004Y0288798D01*
X0542401Y0288202D01*
X0542582Y0288082D01*
X0542567Y0287845D01*
X0542057Y0287708D01*
X0541997Y0287798D01*
X0541401Y0288196D01*
X0540699Y0288335D01*
X0539997Y0288196D01*
X0539449Y0287830D01*
X0539225Y0287884D01*
X0538949Y0288021D01*
Y0292750D01*
X0535199D01*
Y0288200D01*
Y0283650D01*
X0538949D01*
Y0284979D01*
X0539225Y0285116D01*
X0539449Y0285170D01*
X0539997Y0284804D01*
X0540699Y0284665D01*
X0541401Y0284804D01*
X0541997Y0285202D01*
X0542228Y0285548D01*
X0542728Y0285397D01*
Y0282746D01*
X0542829Y0282238D01*
X0543116Y0281808D01*
X0560616Y0264309D01*
X0560471Y0263830D01*
X0560297Y0263796D01*
X0559743Y0263425D01*
X0544243D01*
X0543736Y0263325D01*
X0543306Y0263037D01*
X0539662Y0259393D01*
X0539375Y0258963D01*
X0539274Y0258456D01*
Y0258286D01*
X0538999Y0257900D01*
X0536199D01*
Y0254500D01*
Y0251100D01*
X0538999D01*
Y0253223D01*
X0539499Y0253470D01*
X0539897Y0253204D01*
X0540599Y0253065D01*
X0540883Y0253121D01*
X0541383Y0252711D01*
Y0249500D01*
X0541445Y0249188D01*
X0541571Y0249000D01*
X0541445Y0248812D01*
X0541383Y0248500D01*
X0541384Y0238500D01*
X0541446Y0238188D01*
X0541622Y0237923D01*
X0544220Y0235326D01*
X0544013Y0234825D01*
X0538657D01*
Y0238383D01*
X0538296D01*
Y0239394D01*
X0538799D01*
Y0245795D01*
X0531599D01*
Y0239394D01*
X0535645D01*
Y0238720D01*
X0535285Y0238383D01*
X0535113D01*
Y0238383D01*
X0534785Y0238383D01*
X0531742D01*
Y0237217D01*
X0531732Y0237202D01*
X0531592Y0236500D01*
X0531732Y0235798D01*
X0531742Y0235783D01*
Y0234617D01*
X0534225D01*
X0534487Y0234117D01*
X0534364Y0233500D01*
X0534504Y0232798D01*
X0534901Y0232202D01*
X0535497Y0231804D01*
X0536199Y0231665D01*
X0536901Y0231804D01*
X0537455Y0232174D01*
X0550443D01*
X0550997Y0231804D01*
X0551699Y0231665D01*
X0552401Y0231804D01*
X0552997Y0232202D01*
X0553395Y0232798D01*
X0553534Y0233500D01*
X0553398Y0234184D01*
X0553388Y0234274D01*
X0553656Y0234684D01*
X0573699Y0234684D01*
X0574011Y0234746D01*
X0574276Y0234923D01*
X0574453Y0235188D01*
X0574515Y0235500D01*
X0574515Y0248500D01*
Y0249858D01*
X0574699Y0250233D01*
X0574699Y0250500D01*
X0576699Y0252500D01*
X0579475D01*
Y0252684D01*
X0580861D01*
X0584281Y0249265D01*
Y0247853D01*
X0584383D01*
Y0245500D01*
X0584445Y0245188D01*
X0584622Y0244923D01*
X0584887Y0244746D01*
X0585199Y0244684D01*
X0594891D01*
X0595364Y0244500D01*
X0595383Y0244402D01*
Y0242370D01*
X0595199D01*
X0595199Y0236630D01*
X0596317D01*
Y0236684D01*
X0597101D01*
X0597199Y0236665D01*
X0597298Y0236684D01*
X0600101D01*
X0600199Y0236665D01*
X0600298Y0236684D01*
X0601199D01*
X0601511Y0236746D01*
X0601776Y0236923D01*
X0601953Y0237188D01*
X0602015Y0237500D01*
Y0238402D01*
X0602034Y0238500D01*
X0602015Y0238598D01*
X0602015Y0240827D01*
X0602366Y0240987D01*
X0602515Y0241014D01*
X0603348Y0240375D01*
X0604358Y0239957D01*
X0604441Y0239946D01*
Y0244000D01*
Y0248054D01*
X0604358Y0248043D01*
X0603348Y0247625D01*
X0602757Y0247171D01*
X0602145Y0247269D01*
X0602023Y0247445D01*
X0602034Y0247500D01*
X0602015Y0247598D01*
X0602015Y0250402D01*
X0602034Y0250500D01*
X0601895Y0251202D01*
X0601497Y0251798D01*
X0600901Y0252196D01*
X0600597Y0252256D01*
X0595776Y0257077D01*
X0595776Y0257077D01*
X0595511Y0257254D01*
X0595279Y0257300D01*
X0595279Y0258414D01*
X0595279Y0258914D01*
Y0262351D01*
X0594525D01*
Y0263244D01*
X0594895Y0263798D01*
X0595034Y0264500D01*
X0594895Y0265202D01*
X0594497Y0265798D01*
X0593901Y0266196D01*
X0593199Y0266335D01*
X0592497Y0266196D01*
X0591901Y0265798D01*
X0591503Y0265202D01*
X0591364Y0264500D01*
X0591503Y0263798D01*
X0591874Y0263244D01*
Y0262351D01*
X0591120D01*
X0591082Y0262579D01*
X0587345D01*
Y0262779D01*
X0586262D01*
Y0260500D01*
X0584262D01*
Y0262779D01*
X0583223D01*
X0583179Y0262779D01*
X0582723Y0262884D01*
Y0263399D01*
X0582199D01*
Y0260317D01*
X0579882Y0260317D01*
X0577699Y0262500D01*
X0575398Y0262500D01*
X0574199Y0261301D01*
X0574199Y0258801D01*
X0572199D01*
Y0263301D01*
Y0265000D01*
X0582199D01*
Y0266024D01*
X0571250D01*
Y0265824D01*
X0568301D01*
X0568301Y0265824D01*
Y0265824D01*
X0567945Y0266128D01*
X0554342Y0279732D01*
Y0281771D01*
X0556557D01*
Y0281582D01*
X0561700D01*
Y0282004D01*
X0561731Y0282025D01*
X0572698D01*
Y0281582D01*
X0577842D01*
Y0281853D01*
X0578342Y0282236D01*
X0578699Y0282165D01*
X0578974Y0282219D01*
X0579474Y0281809D01*
Y0280900D01*
X0579574Y0280393D01*
X0579862Y0279963D01*
X0581874Y0277951D01*
X0582004Y0277298D01*
X0582401Y0276702D01*
X0582997Y0276304D01*
X0583699Y0276165D01*
X0584401Y0276304D01*
X0584997Y0276702D01*
X0585401D01*
X0585997Y0276304D01*
X0586699Y0276165D01*
X0587401Y0276304D01*
X0587997Y0276702D01*
X0588285D01*
X0588523Y0276589D01*
X0589093Y0276208D01*
X0589795Y0276069D01*
X0590498Y0276208D01*
X0591093Y0276606D01*
X0591491Y0277202D01*
X0591621Y0277855D01*
X0593836Y0280070D01*
X0594124Y0280501D01*
X0594225Y0281008D01*
Y0306388D01*
X0598911Y0311074D01*
X0622862D01*
X0623369Y0311175D01*
X0623799Y0311463D01*
X0631062Y0318725D01*
X0631349Y0319155D01*
X0631450Y0319662D01*
Y0331500D01*
X0634117D01*
Y0329086D01*
D02*
G37*
G36*
X0563199Y0411000D02*
X0563593Y0411000D01*
X0564366Y0410846D01*
X0565094Y0410545D01*
X0565749Y0410107D01*
X0566306Y0409550D01*
X0566744Y0408895D01*
X0567045Y0408167D01*
X0567199Y0407394D01*
Y0407000D01*
X0567199Y0393000D01*
X0567199D01*
X0567199Y0366000D01*
X0573000Y0360199D01*
X0573000Y0351500D01*
X0573199D01*
Y0315500D01*
X0571199Y0315500D01*
Y0350000D01*
X0549000D01*
X0549000Y0385000D01*
X0544199Y0389801D01*
X0544199Y0393000D01*
X0548799Y0393000D01*
X0544199D01*
X0544199Y0407000D01*
D01*
Y0407000D01*
Y0407000D01*
X0544199Y0407394D01*
X0544353Y0408167D01*
X0544654Y0408895D01*
X0545092Y0409550D01*
X0545649Y0410107D01*
X0546304Y0410545D01*
X0547032Y0410846D01*
X0547805Y0411000D01*
X0548199Y0411000D01*
X0563199Y0411000D01*
X0563199Y0411000D01*
D02*
G37*
G36*
X0669199Y0263500D02*
X0656199D01*
X0656199Y0278500D01*
X0663199Y0285500D01*
X0669199Y0285500D01*
Y0263500D01*
D02*
G37*
G36*
X0546620Y0411378D02*
X0546056Y0411145D01*
X0546009Y0411098D01*
X0545944Y0411085D01*
X0545288Y0410647D01*
X0545252Y0410592D01*
X0545190Y0410566D01*
X0544633Y0410009D01*
X0544607Y0409948D01*
X0544552Y0409911D01*
X0544114Y0409256D01*
X0544101Y0409190D01*
X0544054Y0409143D01*
X0543753Y0408415D01*
X0543346Y0408395D01*
X0543247Y0408422D01*
X0543206Y0408624D01*
X0542853Y0409154D01*
X0542323Y0409507D01*
X0541699Y0409631D01*
X0541075Y0409507D01*
X0540546Y0409154D01*
X0540192Y0408624D01*
X0540068Y0408000D01*
X0540192Y0407376D01*
X0540546Y0406847D01*
X0540690Y0406750D01*
Y0406250D01*
X0540546Y0406153D01*
X0540192Y0405624D01*
X0540068Y0405000D01*
X0540192Y0404376D01*
X0540546Y0403847D01*
X0541075Y0403493D01*
X0541699Y0403369D01*
X0542323Y0403493D01*
X0542853Y0403847D01*
X0543050Y0404141D01*
X0543550Y0403990D01*
X0543550Y0393000D01*
X0543550Y0393000D01*
X0543550Y0389801D01*
X0543740Y0389342D01*
X0548350Y0384731D01*
Y0383377D01*
X0544699D01*
X0544699Y0383377D01*
X0544172Y0383272D01*
X0543726Y0382973D01*
X0541726Y0380973D01*
X0541428Y0380527D01*
X0541323Y0380000D01*
Y0366903D01*
X0540911Y0366492D01*
X0540699Y0366579D01*
Y0366280D01*
X0538919Y0364500D01*
X0534645Y0364500D01*
Y0370973D01*
X0534118Y0371500D01*
Y0371458D01*
X0533618Y0371288D01*
X0533312Y0371688D01*
X0532693Y0372162D01*
X0531972Y0372461D01*
X0531199Y0372563D01*
X0530426Y0372461D01*
X0529705Y0372162D01*
X0529086Y0371688D01*
X0528821Y0371341D01*
X0528321Y0371511D01*
Y0393403D01*
X0528643Y0393513D01*
X0528821Y0393540D01*
X0529503Y0393016D01*
X0530199Y0392728D01*
Y0397528D01*
Y0402327D01*
X0529503Y0402039D01*
X0528821Y0401515D01*
X0528643Y0401543D01*
X0528321Y0401652D01*
Y0404035D01*
X0536164Y0411878D01*
X0546521D01*
X0546620Y0411378D01*
D02*
G37*
G36*
X0640620D02*
X0640056Y0411145D01*
X0640009Y0411098D01*
X0639944Y0411085D01*
X0639288Y0410647D01*
X0639252Y0410592D01*
X0639190Y0410566D01*
X0638633Y0410009D01*
X0638607Y0409948D01*
X0638552Y0409911D01*
X0638114Y0409256D01*
X0638101Y0409190D01*
X0638054Y0409143D01*
X0637753Y0408415D01*
X0637346Y0408395D01*
X0637247Y0408422D01*
X0637206Y0408624D01*
X0636853Y0409154D01*
X0636323Y0409507D01*
X0635699Y0409631D01*
X0635075Y0409507D01*
X0634546Y0409154D01*
X0634192Y0408624D01*
X0634068Y0408000D01*
X0634192Y0407376D01*
X0634546Y0406847D01*
X0634690Y0406750D01*
Y0406250D01*
X0634546Y0406153D01*
X0634192Y0405624D01*
X0634068Y0405000D01*
X0634192Y0404376D01*
X0634546Y0403847D01*
X0635075Y0403493D01*
X0635699Y0403369D01*
X0636323Y0403493D01*
X0636853Y0403847D01*
X0637050Y0404141D01*
X0637550Y0403990D01*
X0637550Y0393000D01*
X0637550Y0393000D01*
X0637550Y0389801D01*
X0637740Y0389342D01*
X0642350Y0384731D01*
Y0383377D01*
X0638699D01*
X0638699Y0383377D01*
X0638172Y0383272D01*
X0637726Y0382973D01*
X0635726Y0380973D01*
X0635428Y0380527D01*
X0635323Y0380000D01*
Y0366903D01*
X0635199Y0366780D01*
Y0366780D01*
X0633419Y0365000D01*
X0628699Y0365000D01*
Y0369145D01*
X0628118D01*
Y0369077D01*
X0627618Y0368810D01*
X0627323Y0369007D01*
X0626699Y0369131D01*
X0626075Y0369007D01*
X0625828Y0368842D01*
X0625449Y0368692D01*
X0625070Y0368842D01*
X0624823Y0369007D01*
X0624199Y0369131D01*
X0623575Y0369007D01*
X0623382Y0368878D01*
X0622882Y0369145D01*
X0622199D01*
Y0363884D01*
X0622442Y0363683D01*
Y0360317D01*
X0622806D01*
Y0359683D01*
X0622442D01*
Y0356317D01*
X0622806D01*
Y0352000D01*
X0620649D01*
X0620649Y0360199D01*
X0620459Y0360658D01*
X0617587Y0363530D01*
X0617611Y0363588D01*
X0616199Y0365000D01*
Y0365074D01*
X0616089Y0365028D01*
X0614849Y0366269D01*
X0614849Y0393000D01*
X0614849Y0393000D01*
X0614849Y0407394D01*
X0614823Y0407455D01*
X0614836Y0407521D01*
X0614682Y0408293D01*
X0614645Y0408349D01*
Y0408415D01*
X0614344Y0409143D01*
X0614297Y0409190D01*
X0614284Y0409256D01*
X0613846Y0409911D01*
X0613791Y0409948D01*
X0613765Y0410009D01*
X0613208Y0410566D01*
X0613147Y0410592D01*
X0613110Y0410647D01*
X0612455Y0411085D01*
X0612389Y0411098D01*
X0612342Y0411145D01*
X0611778Y0411378D01*
X0611878Y0411878D01*
X0640521D01*
X0640620Y0411378D01*
D02*
G37*
G36*
X0593620D02*
X0593056Y0411145D01*
X0593009Y0411098D01*
X0592944Y0411085D01*
X0592288Y0410647D01*
X0592251Y0410592D01*
X0592190Y0410566D01*
X0591633Y0410009D01*
X0591607Y0409948D01*
X0591552Y0409911D01*
X0591114Y0409256D01*
X0591101Y0409190D01*
X0591054Y0409143D01*
X0590753Y0408415D01*
X0590346Y0408395D01*
X0590246Y0408422D01*
X0590206Y0408624D01*
X0589853Y0409154D01*
X0589323Y0409507D01*
X0588699Y0409631D01*
X0588075Y0409507D01*
X0587546Y0409154D01*
X0587192Y0408624D01*
X0587068Y0408000D01*
X0587192Y0407376D01*
X0587546Y0406847D01*
X0587690Y0406750D01*
Y0406250D01*
X0587546Y0406153D01*
X0587192Y0405624D01*
X0587068Y0405000D01*
X0587192Y0404376D01*
X0587546Y0403847D01*
X0588075Y0403493D01*
X0588699Y0403369D01*
X0589323Y0403493D01*
X0589853Y0403847D01*
X0590050Y0404141D01*
X0590550Y0403990D01*
X0590550Y0393000D01*
X0590550Y0393000D01*
X0590550Y0389801D01*
X0590740Y0389342D01*
X0595351Y0384731D01*
Y0383377D01*
X0591699D01*
X0591699Y0383377D01*
X0591172Y0383272D01*
X0590726Y0382973D01*
X0588726Y0380973D01*
X0588427Y0380527D01*
X0588323Y0380000D01*
Y0366903D01*
X0588199Y0366780D01*
Y0366780D01*
X0586419Y0365000D01*
X0581699Y0365000D01*
Y0374146D01*
X0581118D01*
Y0374078D01*
X0580618Y0373810D01*
X0580323Y0374007D01*
X0579699Y0374131D01*
X0579075Y0374007D01*
X0578828Y0373842D01*
X0578449Y0373692D01*
X0578070Y0373842D01*
X0577823Y0374007D01*
X0577199Y0374131D01*
X0576575Y0374007D01*
X0576382Y0373878D01*
X0575882Y0374146D01*
X0575199D01*
Y0363884D01*
X0575442Y0363683D01*
Y0360317D01*
X0575806D01*
Y0359683D01*
X0575442D01*
Y0356317D01*
X0575806D01*
Y0352000D01*
X0573649D01*
X0573649Y0360199D01*
X0573459Y0360658D01*
X0570587Y0363530D01*
X0570611Y0363588D01*
X0569199Y0365000D01*
Y0365074D01*
X0569089Y0365028D01*
X0567849Y0366269D01*
X0567849Y0393000D01*
X0567848Y0393000D01*
X0567848Y0407394D01*
X0567823Y0407455D01*
X0567836Y0407521D01*
X0567682Y0408293D01*
X0567645Y0408349D01*
Y0408415D01*
X0567344Y0409143D01*
X0567297Y0409190D01*
X0567284Y0409256D01*
X0566846Y0409911D01*
X0566791Y0409948D01*
X0566765Y0410009D01*
X0566208Y0410566D01*
X0566147Y0410592D01*
X0566110Y0410647D01*
X0565455Y0411085D01*
X0565389Y0411098D01*
X0565342Y0411145D01*
X0564778Y0411378D01*
X0564878Y0411878D01*
X0593521D01*
X0593620Y0411378D01*
D02*
G37*
G36*
X0610199Y0411000D02*
X0610593Y0411000D01*
X0611366Y0410846D01*
X0612094Y0410545D01*
X0612749Y0410107D01*
X0613306Y0409550D01*
X0613744Y0408895D01*
X0614045Y0408167D01*
X0614199Y0407394D01*
Y0407000D01*
X0614199Y0393000D01*
X0614199D01*
X0614199Y0366000D01*
X0620000Y0360199D01*
X0620000Y0351500D01*
X0620199D01*
Y0315500D01*
X0618199Y0315500D01*
Y0350000D01*
X0596000D01*
X0596000Y0385000D01*
X0591199Y0389801D01*
X0591199Y0393000D01*
X0609599Y0393000D01*
X0591199D01*
X0591199Y0407000D01*
D01*
Y0407000D01*
Y0407000D01*
X0591199Y0407394D01*
X0591353Y0408167D01*
X0591654Y0408895D01*
X0592092Y0409550D01*
X0592649Y0410107D01*
X0593304Y0410545D01*
X0594032Y0410846D01*
X0594805Y0411000D01*
X0595199Y0411000D01*
X0610199Y0411000D01*
X0610199Y0411000D01*
D02*
G37*
G36*
X0638199Y0348500D02*
X0635199D01*
Y0351500D01*
X0634199Y0352500D01*
Y0355500D01*
X0638199D01*
Y0348500D01*
D02*
G37*
G36*
X0591199D02*
X0588199D01*
Y0351500D01*
X0587199Y0352500D01*
Y0355500D01*
X0591199D01*
Y0348500D01*
D02*
G37*
G36*
X0544199D02*
X0541199D01*
Y0351500D01*
X0540199Y0352500D01*
Y0355500D01*
X0544199D01*
Y0348500D01*
D02*
G37*
G36*
X0657199Y0411000D02*
X0657593Y0411000D01*
X0658366Y0410846D01*
X0659094Y0410545D01*
X0659749Y0410107D01*
X0660306Y0409550D01*
X0660744Y0408895D01*
X0661045Y0408167D01*
X0661199Y0407394D01*
Y0407000D01*
X0661199Y0393000D01*
X0661199D01*
X0661199Y0366000D01*
X0667000Y0360199D01*
X0667000Y0351500D01*
X0667199D01*
Y0315500D01*
X0665199Y0315500D01*
Y0350000D01*
X0643000D01*
X0643000Y0385000D01*
X0638199Y0389801D01*
X0638199Y0393000D01*
X0656599Y0393000D01*
X0638199D01*
X0638199Y0407000D01*
D01*
Y0407000D01*
Y0407000D01*
X0638199Y0407394D01*
X0638353Y0408167D01*
X0638654Y0408895D01*
X0639092Y0409550D01*
X0639649Y0410107D01*
X0640304Y0410545D01*
X0641032Y0410846D01*
X0641805Y0411000D01*
X0642199Y0411000D01*
X0657199Y0411000D01*
X0657199Y0411000D01*
D02*
G37*
G36*
X0670578Y0404035D02*
Y0352000D01*
X0667649D01*
X0667649Y0360199D01*
X0667459Y0360658D01*
X0664587Y0363530D01*
X0664611Y0363588D01*
X0663199Y0365000D01*
Y0365074D01*
X0663089Y0365028D01*
X0661849Y0366269D01*
X0661849Y0393000D01*
X0661848Y0393000D01*
X0661848Y0407394D01*
X0661823Y0407455D01*
X0661836Y0407521D01*
X0661682Y0408293D01*
X0661645Y0408349D01*
Y0408415D01*
X0661344Y0409143D01*
X0661297Y0409190D01*
X0661284Y0409256D01*
X0660846Y0409911D01*
X0660791Y0409948D01*
X0660765Y0410009D01*
X0660208Y0410566D01*
X0660147Y0410592D01*
X0660110Y0410647D01*
X0659455Y0411085D01*
X0659389Y0411098D01*
X0659342Y0411145D01*
X0658778Y0411378D01*
X0658878Y0411878D01*
X0662735D01*
X0670578Y0404035D01*
D02*
G37*
%LPC*%
G36*
X0561900Y0302319D02*
X0560128D01*
Y0301500D01*
X0560699D01*
Y0300350D01*
X0561900D01*
Y0302319D01*
D02*
G37*
G36*
Y0298350D02*
X0560699D01*
Y0297500D01*
X0560128D01*
Y0296382D01*
X0561900D01*
Y0298350D01*
D02*
G37*
G36*
X0558128Y0297500D02*
X0556357D01*
Y0296382D01*
X0558128D01*
Y0297500D01*
D02*
G37*
G36*
X0613719Y0290069D02*
X0613094Y0289944D01*
X0612565Y0289591D01*
X0612211Y0289061D01*
X0612087Y0288437D01*
X0612211Y0287813D01*
X0612565Y0287284D01*
X0613094Y0286930D01*
X0613719Y0286806D01*
X0614343Y0286930D01*
X0614872Y0287284D01*
X0615226Y0287813D01*
X0615350Y0288437D01*
X0615226Y0289061D01*
X0614872Y0289591D01*
X0614343Y0289944D01*
X0613719Y0290069D01*
D02*
G37*
G36*
X0605199Y0286281D02*
X0604575Y0286157D01*
X0604046Y0285803D01*
X0603692Y0285274D01*
X0603568Y0284650D01*
X0603692Y0284025D01*
X0604046Y0283496D01*
X0604226Y0283376D01*
Y0282774D01*
X0604046Y0282653D01*
X0603692Y0282124D01*
X0603568Y0281500D01*
X0603692Y0280876D01*
X0604046Y0280346D01*
X0604575Y0279993D01*
X0605199Y0279869D01*
X0605823Y0279993D01*
X0606353Y0280346D01*
X0606706Y0280876D01*
X0606831Y0281500D01*
X0606706Y0282124D01*
X0606353Y0282653D01*
X0606172Y0282774D01*
Y0283376D01*
X0606353Y0283496D01*
X0606706Y0284025D01*
X0606831Y0284650D01*
X0606706Y0285274D01*
X0606353Y0285803D01*
X0605823Y0286157D01*
X0605199Y0286281D01*
D02*
G37*
G36*
X0614046Y0284690D02*
X0613421Y0284566D01*
X0612892Y0284213D01*
X0612538Y0283683D01*
X0612414Y0283059D01*
X0612538Y0282435D01*
X0612892Y0281906D01*
X0613421Y0281552D01*
X0614046Y0281428D01*
X0614670Y0281552D01*
X0615199Y0281906D01*
X0615553Y0282435D01*
X0615677Y0283059D01*
X0615553Y0283683D01*
X0615199Y0284213D01*
X0614670Y0284566D01*
X0614046Y0284690D01*
D02*
G37*
G36*
X0610199Y0284903D02*
X0609575Y0284779D01*
X0609046Y0284425D01*
X0608692Y0283896D01*
X0608568Y0283272D01*
X0608692Y0282647D01*
X0609046Y0282118D01*
X0609575Y0281765D01*
X0610199Y0281640D01*
X0610823Y0281765D01*
X0611353Y0282118D01*
X0611706Y0282647D01*
X0611831Y0283272D01*
X0611706Y0283896D01*
X0611353Y0284425D01*
X0610823Y0284779D01*
X0610199Y0284903D01*
D02*
G37*
G36*
X0608199Y0297903D02*
X0607575Y0297779D01*
X0607046Y0297425D01*
X0606692Y0296896D01*
X0606568Y0296272D01*
X0606692Y0295647D01*
X0607046Y0295118D01*
X0607575Y0294764D01*
X0608199Y0294640D01*
X0608823Y0294764D01*
X0609353Y0295118D01*
X0609706Y0295647D01*
X0609831Y0296272D01*
X0609706Y0296896D01*
X0609353Y0297425D01*
X0608823Y0297779D01*
X0608199Y0297903D01*
D02*
G37*
G36*
X0574270Y0298350D02*
X0572498D01*
Y0296382D01*
X0574270D01*
Y0298350D01*
D02*
G37*
G36*
X0534199Y0253500D02*
X0531399D01*
Y0251100D01*
X0534199D01*
Y0253500D01*
D02*
G37*
G36*
X0583581Y0248339D02*
X0583581Y0244500D01*
X0583581D01*
Y0248339D01*
D02*
G37*
G36*
X0649366Y0263500D02*
X0646709D01*
Y0263067D01*
X0649366D01*
Y0263500D01*
D02*
G37*
G36*
X0642650Y0273500D02*
X0642052D01*
Y0263067D01*
X0644709D01*
Y0263500D01*
X0642650D01*
X0642650Y0273500D01*
D02*
G37*
G36*
X0541229Y0276549D02*
X0540044Y0276393D01*
X0538940Y0275936D01*
X0537991Y0275208D01*
X0537263Y0274260D01*
X0536806Y0273155D01*
X0536650Y0271970D01*
X0536806Y0270785D01*
X0537263Y0269680D01*
X0537991Y0268732D01*
X0538940Y0268004D01*
X0540044Y0267547D01*
X0541229Y0267391D01*
X0542414Y0267547D01*
X0543519Y0268004D01*
X0544467Y0268732D01*
X0545195Y0269680D01*
X0545652Y0270785D01*
X0545808Y0271970D01*
X0545652Y0273155D01*
X0545195Y0274260D01*
X0544467Y0275208D01*
X0543519Y0275936D01*
X0542414Y0276393D01*
X0541229Y0276549D01*
D02*
G37*
G36*
X0604624Y0257335D02*
X0603922Y0257196D01*
X0603327Y0256798D01*
X0602929Y0256202D01*
X0602789Y0255500D01*
X0602929Y0254798D01*
X0603327Y0254202D01*
X0603922Y0253804D01*
X0604624Y0253665D01*
X0605327Y0253804D01*
X0605922Y0254202D01*
X0606320Y0254798D01*
X0606460Y0255500D01*
X0606320Y0256202D01*
X0605922Y0256798D01*
X0605327Y0257196D01*
X0604624Y0257335D01*
D02*
G37*
G36*
X0534199Y0257900D02*
X0531399D01*
Y0255500D01*
X0534199D01*
Y0257900D01*
D02*
G37*
G36*
X0606441Y0248054D02*
Y0244000D01*
Y0239946D01*
X0606524Y0239957D01*
X0607534Y0240375D01*
X0608401Y0241040D01*
X0609066Y0241907D01*
X0609216Y0242268D01*
X0609757D01*
X0609865Y0242008D01*
X0610498Y0241183D01*
X0611323Y0240550D01*
X0612284Y0240152D01*
X0613315Y0240016D01*
X0614346Y0240152D01*
X0615307Y0240550D01*
X0616132Y0241183D01*
X0616765Y0242008D01*
X0616981Y0242530D01*
X0617523D01*
X0617739Y0242008D01*
X0618372Y0241183D01*
X0619197Y0240550D01*
X0620158Y0240152D01*
X0621189Y0240016D01*
X0622220Y0240152D01*
X0623181Y0240550D01*
X0624006Y0241183D01*
X0624639Y0242008D01*
X0624868Y0242561D01*
X0625410D01*
X0625639Y0242008D01*
X0626272Y0241183D01*
X0627097Y0240550D01*
X0628058Y0240152D01*
X0629089Y0240016D01*
X0630120Y0240152D01*
X0631081Y0240550D01*
X0631906Y0241183D01*
X0632539Y0242008D01*
X0632768Y0242561D01*
X0633310D01*
X0633539Y0242008D01*
X0634172Y0241183D01*
X0634997Y0240550D01*
X0635958Y0240152D01*
X0636989Y0240016D01*
X0638020Y0240152D01*
X0638981Y0240550D01*
X0639806Y0241183D01*
X0640439Y0242008D01*
X0640629Y0242467D01*
X0641171D01*
X0641361Y0242008D01*
X0641994Y0241183D01*
X0642819Y0240550D01*
X0643780Y0240152D01*
X0644811Y0240016D01*
X0645842Y0240152D01*
X0646803Y0240550D01*
X0647628Y0241183D01*
X0648261Y0242008D01*
X0648477Y0242530D01*
X0649019D01*
X0649235Y0242008D01*
X0649868Y0241183D01*
X0650693Y0240550D01*
X0651654Y0240152D01*
X0652685Y0240016D01*
X0653716Y0240152D01*
X0654677Y0240550D01*
X0655502Y0241183D01*
X0656135Y0242008D01*
X0656352Y0242530D01*
X0656893D01*
X0657109Y0242008D01*
X0657742Y0241183D01*
X0658567Y0240550D01*
X0659528Y0240152D01*
X0660559Y0240016D01*
X0661590Y0240152D01*
X0662551Y0240550D01*
X0663376Y0241183D01*
X0664009Y0242008D01*
X0664407Y0242969D01*
X0664543Y0244000D01*
X0664407Y0245031D01*
X0664009Y0245992D01*
X0663376Y0246817D01*
X0662551Y0247450D01*
X0661590Y0247848D01*
X0660559Y0247984D01*
X0659528Y0247848D01*
X0658567Y0247450D01*
X0657742Y0246817D01*
X0657109Y0245992D01*
X0656893Y0245470D01*
X0656352D01*
X0656135Y0245992D01*
X0655502Y0246817D01*
X0654677Y0247450D01*
X0653716Y0247848D01*
X0652685Y0247984D01*
X0651654Y0247848D01*
X0650693Y0247450D01*
X0649868Y0246817D01*
X0649235Y0245992D01*
X0649019Y0245470D01*
X0648477D01*
X0648261Y0245992D01*
X0647628Y0246817D01*
X0646803Y0247450D01*
X0645842Y0247848D01*
X0644811Y0247984D01*
X0643780Y0247848D01*
X0642819Y0247450D01*
X0641994Y0246817D01*
X0641361Y0245992D01*
X0641171Y0245533D01*
X0640629D01*
X0640439Y0245992D01*
X0639806Y0246817D01*
X0638981Y0247450D01*
X0638020Y0247848D01*
X0636989Y0247984D01*
X0635958Y0247848D01*
X0634997Y0247450D01*
X0634172Y0246817D01*
X0633539Y0245992D01*
X0633310Y0245439D01*
X0632768D01*
X0632539Y0245992D01*
X0631906Y0246817D01*
X0631081Y0247450D01*
X0630120Y0247848D01*
X0629089Y0247984D01*
X0628058Y0247848D01*
X0627097Y0247450D01*
X0626272Y0246817D01*
X0625639Y0245992D01*
X0625410Y0245439D01*
X0624868D01*
X0624639Y0245992D01*
X0624006Y0246817D01*
X0623181Y0247450D01*
X0622220Y0247848D01*
X0621189Y0247984D01*
X0620158Y0247848D01*
X0619197Y0247450D01*
X0618372Y0246817D01*
X0617739Y0245992D01*
X0617523Y0245470D01*
X0616981D01*
X0616765Y0245992D01*
X0616132Y0246817D01*
X0615307Y0247450D01*
X0614346Y0247848D01*
X0613315Y0247984D01*
X0612284Y0247848D01*
X0611323Y0247450D01*
X0610498Y0246817D01*
X0609865Y0245992D01*
X0609757Y0245732D01*
X0609216D01*
X0609066Y0246093D01*
X0608401Y0246960D01*
X0607534Y0247625D01*
X0606524Y0248043D01*
X0606441Y0248054D01*
D02*
G37*
G36*
X0667237Y0221000D02*
X0661199D01*
Y0214962D01*
X0661591Y0215000D01*
X0662930Y0215406D01*
X0664164Y0216066D01*
X0665246Y0216954D01*
X0666133Y0218035D01*
X0666793Y0219269D01*
X0667199Y0220608D01*
X0667237Y0221000D01*
D02*
G37*
G36*
X0558189D02*
X0555135D01*
X0555146Y0220917D01*
X0555564Y0219907D01*
X0556229Y0219040D01*
X0557096Y0218375D01*
X0558106Y0217957D01*
X0558189Y0217946D01*
Y0221000D01*
D02*
G37*
G36*
X0537699Y0229038D02*
X0537307Y0229000D01*
X0535968Y0228593D01*
X0534734Y0227934D01*
X0533653Y0227046D01*
X0532765Y0225965D01*
X0532106Y0224731D01*
X0531700Y0223392D01*
X0531661Y0223000D01*
X0537699D01*
Y0229038D01*
D02*
G37*
G36*
Y0221000D02*
X0531661D01*
X0531700Y0220608D01*
X0532106Y0219269D01*
X0532765Y0218035D01*
X0533653Y0216954D01*
X0534734Y0216066D01*
X0535968Y0215406D01*
X0537307Y0215000D01*
X0537699Y0214962D01*
Y0221000D01*
D02*
G37*
G36*
X0545737D02*
X0539699D01*
Y0214962D01*
X0540091Y0215000D01*
X0541430Y0215406D01*
X0542664Y0216066D01*
X0543746Y0216954D01*
X0544633Y0218035D01*
X0545293Y0219269D01*
X0545699Y0220608D01*
X0545737Y0221000D01*
D02*
G37*
G36*
X0659199D02*
X0653161D01*
X0653199Y0220608D01*
X0653606Y0219269D01*
X0654265Y0218035D01*
X0655153Y0216954D01*
X0656234Y0216066D01*
X0657468Y0215406D01*
X0658807Y0215000D01*
X0659199Y0214962D01*
Y0221000D01*
D02*
G37*
G36*
X0539699Y0229038D02*
Y0223000D01*
X0545737D01*
X0545699Y0223392D01*
X0545293Y0224731D01*
X0544633Y0225965D01*
X0543746Y0227046D01*
X0542664Y0227934D01*
X0541430Y0228593D01*
X0540091Y0229000D01*
X0539699Y0229038D01*
D02*
G37*
G36*
X0639937Y0225984D02*
X0638906Y0225848D01*
X0637945Y0225450D01*
X0637120Y0224817D01*
X0636487Y0223992D01*
X0636271Y0223470D01*
X0635729D01*
X0635513Y0223992D01*
X0634880Y0224817D01*
X0634055Y0225450D01*
X0633094Y0225848D01*
X0632063Y0225984D01*
X0631032Y0225848D01*
X0630071Y0225450D01*
X0629246Y0224817D01*
X0628613Y0223992D01*
X0628215Y0223031D01*
X0628079Y0222000D01*
X0628215Y0220969D01*
X0628385Y0220557D01*
X0626408Y0218580D01*
X0615747D01*
X0615586Y0219054D01*
X0615754Y0219183D01*
X0616387Y0220008D01*
X0616785Y0220969D01*
X0616921Y0222000D01*
X0616785Y0223031D01*
X0616387Y0223992D01*
X0615754Y0224817D01*
X0614929Y0225450D01*
X0613968Y0225848D01*
X0612937Y0225984D01*
X0611906Y0225848D01*
X0610945Y0225450D01*
X0610120Y0224817D01*
X0609487Y0223992D01*
X0609271Y0223470D01*
X0608729D01*
X0608513Y0223992D01*
X0607880Y0224817D01*
X0607055Y0225450D01*
X0606094Y0225848D01*
X0605063Y0225984D01*
X0604032Y0225848D01*
X0603071Y0225450D01*
X0602246Y0224817D01*
X0601613Y0223992D01*
X0601215Y0223031D01*
X0601079Y0222000D01*
X0601215Y0220969D01*
X0601613Y0220008D01*
X0602246Y0219183D01*
X0603071Y0218550D01*
X0604032Y0218152D01*
X0605063Y0218016D01*
X0606094Y0218152D01*
X0606506Y0218322D01*
X0608946Y0215882D01*
X0609458Y0215540D01*
X0610063Y0215420D01*
X0627063D01*
X0627668Y0215540D01*
X0628181Y0215882D01*
X0630620Y0218322D01*
X0631032Y0218152D01*
X0632063Y0218016D01*
X0633094Y0218152D01*
X0634055Y0218550D01*
X0634880Y0219183D01*
X0635513Y0220008D01*
X0635729Y0220530D01*
X0636271D01*
X0636487Y0220008D01*
X0637120Y0219183D01*
X0637945Y0218550D01*
X0638906Y0218152D01*
X0639937Y0218016D01*
X0640968Y0218152D01*
X0641929Y0218550D01*
X0642754Y0219183D01*
X0643387Y0220008D01*
X0643785Y0220969D01*
X0643921Y0222000D01*
X0643785Y0223031D01*
X0643387Y0223992D01*
X0642754Y0224817D01*
X0641929Y0225450D01*
X0640968Y0225848D01*
X0639937Y0225984D01*
D02*
G37*
G36*
X0613199Y0234835D02*
X0612497Y0234696D01*
X0611901Y0234298D01*
X0611504Y0233702D01*
X0611364Y0233000D01*
X0611504Y0232298D01*
X0611901Y0231702D01*
X0612497Y0231304D01*
X0613199Y0231165D01*
X0613901Y0231304D01*
X0614497Y0231702D01*
X0614895Y0232298D01*
X0615034Y0233000D01*
X0614895Y0233702D01*
X0614497Y0234298D01*
X0613901Y0234696D01*
X0613199Y0234835D01*
D02*
G37*
G36*
X0578699Y0233835D02*
X0577997Y0233696D01*
X0577401Y0233298D01*
X0577228Y0233038D01*
X0576627D01*
X0576453Y0233298D01*
X0575858Y0233696D01*
X0575156Y0233835D01*
X0574453Y0233696D01*
X0573858Y0233298D01*
X0573460Y0232702D01*
X0573321Y0232000D01*
X0573460Y0231298D01*
X0573830Y0230744D01*
Y0225817D01*
X0572945Y0225450D01*
X0572120Y0224817D01*
X0571487Y0223992D01*
X0571271Y0223470D01*
X0570729D01*
X0570513Y0223992D01*
X0569880Y0224817D01*
X0569055Y0225450D01*
X0568525Y0225670D01*
Y0230744D01*
X0568670Y0230962D01*
X0569272D01*
X0569445Y0230702D01*
X0570040Y0230304D01*
X0570742Y0230165D01*
X0571445Y0230304D01*
X0572040Y0230702D01*
X0572438Y0231298D01*
X0572578Y0232000D01*
X0572438Y0232702D01*
X0572040Y0233298D01*
X0571445Y0233696D01*
X0570742Y0233835D01*
X0570040Y0233696D01*
X0569445Y0233298D01*
X0569272Y0233038D01*
X0568670D01*
X0568497Y0233298D01*
X0567901Y0233696D01*
X0567199Y0233835D01*
X0566497Y0233696D01*
X0565901Y0233298D01*
X0565504Y0232702D01*
X0565364Y0232000D01*
X0565504Y0231298D01*
X0565874Y0230744D01*
Y0225783D01*
X0565071Y0225450D01*
X0564246Y0224817D01*
X0563613Y0223992D01*
X0563505Y0223732D01*
X0562964D01*
X0562814Y0224093D01*
X0562149Y0224960D01*
X0561282Y0225625D01*
X0560272Y0226043D01*
X0560189Y0226054D01*
Y0222000D01*
Y0217946D01*
X0560272Y0217957D01*
X0561282Y0218375D01*
X0562149Y0219040D01*
X0562814Y0219907D01*
X0562964Y0220268D01*
X0563505D01*
X0563613Y0220008D01*
X0564246Y0219183D01*
X0565071Y0218550D01*
X0566032Y0218152D01*
X0567063Y0218016D01*
X0568094Y0218152D01*
X0569055Y0218550D01*
X0569880Y0219183D01*
X0570513Y0220008D01*
X0570729Y0220530D01*
X0571271D01*
X0571487Y0220008D01*
X0572120Y0219183D01*
X0572945Y0218550D01*
X0573906Y0218152D01*
X0574937Y0218016D01*
X0575968Y0218152D01*
X0576929Y0218550D01*
X0577754Y0219183D01*
X0578387Y0220008D01*
X0578616Y0220561D01*
X0579158D01*
X0579387Y0220008D01*
X0580020Y0219183D01*
X0580845Y0218550D01*
X0581806Y0218152D01*
X0582837Y0218016D01*
X0583868Y0218152D01*
X0584829Y0218550D01*
X0585654Y0219183D01*
X0586287Y0220008D01*
X0586685Y0220969D01*
X0586821Y0222000D01*
X0586685Y0223031D01*
X0586287Y0223992D01*
X0585654Y0224817D01*
X0584829Y0225450D01*
X0583868Y0225848D01*
X0582837Y0225984D01*
X0581806Y0225848D01*
X0580845Y0225450D01*
X0580020Y0224817D01*
X0579387Y0223992D01*
X0579158Y0223439D01*
X0578616D01*
X0578387Y0223992D01*
X0577754Y0224817D01*
X0576929Y0225450D01*
X0576481Y0225636D01*
Y0230744D01*
X0576627Y0230962D01*
X0577228D01*
X0577401Y0230702D01*
X0577997Y0230304D01*
X0578699Y0230165D01*
X0579401Y0230304D01*
X0579997Y0230702D01*
X0580395Y0231298D01*
X0580534Y0232000D01*
X0580395Y0232702D01*
X0579997Y0233298D01*
X0579401Y0233696D01*
X0578699Y0233835D01*
D02*
G37*
G36*
X0558189Y0226054D02*
X0558106Y0226043D01*
X0557096Y0225625D01*
X0556229Y0224960D01*
X0555564Y0224093D01*
X0555146Y0223083D01*
X0555135Y0223000D01*
X0558189D01*
Y0226054D01*
D02*
G37*
G36*
X0659199Y0229038D02*
X0658807Y0229000D01*
X0657468Y0228593D01*
X0656234Y0227934D01*
X0655153Y0227046D01*
X0654265Y0225965D01*
X0653606Y0224731D01*
X0653199Y0223392D01*
X0653161Y0223000D01*
X0659199D01*
Y0229038D01*
D02*
G37*
G36*
X0661199D02*
Y0223000D01*
X0667237D01*
X0667199Y0223392D01*
X0666793Y0224731D01*
X0666133Y0225965D01*
X0665246Y0227046D01*
X0664164Y0227934D01*
X0662930Y0228593D01*
X0661591Y0229000D01*
X0661199Y0229038D01*
D02*
G37*
G36*
X0533199Y0308000D02*
X0529449D01*
Y0304250D01*
X0533199D01*
Y0308000D01*
D02*
G37*
G36*
X0538949D02*
X0535199D01*
Y0304250D01*
X0538949D01*
Y0308000D01*
D02*
G37*
G36*
X0606364Y0309835D02*
X0605661Y0309696D01*
X0605066Y0309298D01*
X0604668Y0308702D01*
X0604529Y0308000D01*
X0604668Y0307298D01*
X0605066Y0306702D01*
X0605661Y0306304D01*
X0606364Y0306165D01*
X0607066Y0306304D01*
X0607662Y0306702D01*
X0608059Y0307298D01*
X0608199Y0308000D01*
X0608059Y0308702D01*
X0607662Y0309298D01*
X0607066Y0309696D01*
X0606364Y0309835D01*
D02*
G37*
G36*
X0533199Y0303750D02*
X0529449D01*
Y0300000D01*
X0533199D01*
Y0303750D01*
D02*
G37*
G36*
X0538949D02*
X0535199D01*
Y0300000D01*
X0538949D01*
Y0303750D01*
D02*
G37*
G36*
X0653443Y0308500D02*
X0652065D01*
Y0306728D01*
X0653443D01*
Y0308500D01*
D02*
G37*
G36*
X0656821D02*
X0655443D01*
Y0306728D01*
X0656821D01*
Y0308500D01*
D02*
G37*
G36*
X0533199Y0324298D02*
X0529449D01*
Y0320748D01*
X0533199D01*
Y0324298D01*
D02*
G37*
G36*
X0533199Y0287200D02*
X0529449D01*
Y0283650D01*
X0533199D01*
Y0287200D01*
D02*
G37*
G36*
Y0292750D02*
X0529449D01*
Y0289200D01*
X0533199D01*
Y0292750D01*
D02*
G37*
G36*
Y0298000D02*
X0529449D01*
Y0294250D01*
X0533199D01*
Y0298000D01*
D02*
G37*
G36*
X0543699Y0297800D02*
X0540899D01*
Y0297100D01*
X0543699D01*
Y0297800D01*
D02*
G37*
G36*
X0538949Y0298000D02*
X0535199D01*
Y0294250D01*
X0538949D01*
Y0298000D01*
D02*
G37*
G36*
X0532199Y0402327D02*
Y0398528D01*
X0534590D01*
Y0399102D01*
X0534475Y0399980D01*
X0534136Y0400798D01*
X0533597Y0401500D01*
X0532895Y0402039D01*
X0532199Y0402327D01*
D02*
G37*
G36*
X0534590Y0396528D02*
X0532199D01*
Y0392728D01*
X0532895Y0393016D01*
X0533597Y0393555D01*
X0534136Y0394257D01*
X0534475Y0395075D01*
X0534590Y0395953D01*
Y0396528D01*
D02*
G37*
G36*
X0625699Y0409735D02*
X0624385Y0409605D01*
X0623122Y0409222D01*
X0621957Y0408600D01*
X0620937Y0407762D01*
X0620099Y0406742D01*
X0619477Y0405577D01*
X0619094Y0404314D01*
X0618964Y0403000D01*
X0619094Y0401686D01*
X0619477Y0400423D01*
X0620099Y0399258D01*
X0620937Y0398238D01*
X0621957Y0397400D01*
X0623122Y0396778D01*
X0624385Y0396395D01*
X0625699Y0396265D01*
X0627013Y0396395D01*
X0628276Y0396778D01*
X0629441Y0397400D01*
X0630461Y0398238D01*
X0631299Y0399258D01*
X0631921Y0400423D01*
X0632304Y0401686D01*
X0632434Y0403000D01*
X0632304Y0404314D01*
X0631921Y0405577D01*
X0631299Y0406742D01*
X0630461Y0407762D01*
X0629441Y0408600D01*
X0628276Y0409222D01*
X0627013Y0409605D01*
X0625699Y0409735D01*
D02*
G37*
G36*
X0578699D02*
X0577385Y0409605D01*
X0576122Y0409222D01*
X0574958Y0408600D01*
X0573937Y0407762D01*
X0573099Y0406742D01*
X0572477Y0405577D01*
X0572094Y0404314D01*
X0571964Y0403000D01*
X0572094Y0401686D01*
X0572477Y0400423D01*
X0573099Y0399258D01*
X0573937Y0398238D01*
X0574958Y0397400D01*
X0576122Y0396778D01*
X0577385Y0396395D01*
X0578699Y0396265D01*
X0580013Y0396395D01*
X0581276Y0396778D01*
X0582441Y0397400D01*
X0583461Y0398238D01*
X0584299Y0399258D01*
X0584921Y0400423D01*
X0585304Y0401686D01*
X0585434Y0403000D01*
X0585304Y0404314D01*
X0584921Y0405577D01*
X0584299Y0406742D01*
X0583461Y0407762D01*
X0582441Y0408600D01*
X0581276Y0409222D01*
X0580013Y0409605D01*
X0578699Y0409735D01*
D02*
G37*
%LPD*%
D10*
X0593199Y0260469D02*
D03*
Y0256532D02*
D03*
D11*
X0589199Y0260500D02*
D03*
X0585262D02*
D03*
D12*
X0555199Y0306575D02*
D03*
Y0303425D02*
D03*
X0645199Y0306925D02*
D03*
Y0310075D02*
D03*
X0580699Y0261376D02*
D03*
Y0258226D02*
D03*
D13*
X0573274Y0264000D02*
D03*
X0570124D02*
D03*
X0546274Y0359000D02*
D03*
X0543124D02*
D03*
X0593274D02*
D03*
X0590124D02*
D03*
X0640274Y0358500D02*
D03*
X0637124D02*
D03*
D14*
X0640955Y0354000D02*
D03*
X0635443D02*
D03*
X0593955D02*
D03*
X0588443D02*
D03*
X0546955D02*
D03*
X0541443D02*
D03*
X0659955Y0309500D02*
D03*
X0654443D02*
D03*
D15*
X0559128Y0305650D02*
D03*
Y0299350D02*
D03*
X0575270Y0305650D02*
D03*
Y0299350D02*
D03*
Y0284350D02*
D03*
Y0290650D02*
D03*
X0559128Y0284350D02*
D03*
Y0290650D02*
D03*
D16*
X0534199Y0299000D02*
D03*
Y0309000D02*
D03*
D17*
Y0288200D02*
D03*
Y0319748D02*
D03*
D18*
X0544699Y0301400D02*
D03*
Y0304000D02*
D03*
Y0306559D02*
D03*
Y0298800D02*
D03*
Y0309118D02*
D03*
D19*
X0663661Y0352716D02*
D03*
X0655000D02*
D03*
X0646339D02*
D03*
Y0317284D02*
D03*
X0655000D02*
D03*
X0663661D02*
D03*
X0616661D02*
D03*
X0608000D02*
D03*
X0599339D02*
D03*
Y0352716D02*
D03*
X0608000D02*
D03*
X0616661D02*
D03*
X0569661D02*
D03*
X0561000D02*
D03*
X0552339D02*
D03*
Y0317284D02*
D03*
X0561000D02*
D03*
X0569661D02*
D03*
D20*
X0655000Y0343858D02*
D03*
X0608000D02*
D03*
X0561000D02*
D03*
D21*
X0648209Y0338347D02*
D03*
X0652736D02*
D03*
X0657264D02*
D03*
X0661791D02*
D03*
Y0327323D02*
D03*
X0657264D02*
D03*
X0652736D02*
D03*
X0648209D02*
D03*
X0601209D02*
D03*
X0605736D02*
D03*
X0610264D02*
D03*
X0614791D02*
D03*
Y0338347D02*
D03*
X0610264D02*
D03*
X0605736D02*
D03*
X0601209D02*
D03*
X0554209D02*
D03*
X0558736D02*
D03*
X0563264D02*
D03*
X0567791D02*
D03*
Y0327323D02*
D03*
X0563264D02*
D03*
X0558736D02*
D03*
X0554209D02*
D03*
D22*
X0666716Y0385661D02*
D03*
Y0377000D02*
D03*
Y0368339D02*
D03*
X0631284D02*
D03*
Y0377000D02*
D03*
Y0385661D02*
D03*
X0584283D02*
D03*
Y0377000D02*
D03*
Y0368339D02*
D03*
X0619717D02*
D03*
Y0377000D02*
D03*
Y0385661D02*
D03*
X0572717D02*
D03*
Y0377000D02*
D03*
Y0368339D02*
D03*
X0537284D02*
D03*
Y0377000D02*
D03*
Y0385661D02*
D03*
D23*
X0656677Y0370209D02*
D03*
Y0374736D02*
D03*
Y0379264D02*
D03*
Y0383791D02*
D03*
X0645653D02*
D03*
Y0379264D02*
D03*
Y0374736D02*
D03*
Y0370209D02*
D03*
X0598654D02*
D03*
Y0374736D02*
D03*
Y0379264D02*
D03*
Y0383791D02*
D03*
X0609677D02*
D03*
Y0379264D02*
D03*
Y0374736D02*
D03*
Y0370209D02*
D03*
X0562677D02*
D03*
Y0374736D02*
D03*
Y0379264D02*
D03*
Y0383791D02*
D03*
X0551653D02*
D03*
Y0379264D02*
D03*
Y0374736D02*
D03*
Y0370209D02*
D03*
D24*
X0640142Y0377000D02*
D03*
X0593142D02*
D03*
X0546142D02*
D03*
D25*
X0535199Y0242595D02*
D03*
Y0254500D02*
D03*
D26*
X0533427Y0236500D02*
D03*
X0536971D02*
D03*
X0586427Y0317500D02*
D03*
X0589971D02*
D03*
X0589971Y0313500D02*
D03*
X0586427D02*
D03*
X0626928Y0354000D02*
D03*
X0630471D02*
D03*
X0627471Y0358000D02*
D03*
X0623927D02*
D03*
X0623927Y0362000D02*
D03*
X0627471D02*
D03*
X0579927Y0354000D02*
D03*
X0583471D02*
D03*
X0580471Y0358000D02*
D03*
X0576928D02*
D03*
X0576928Y0362000D02*
D03*
X0580471D02*
D03*
X0533471Y0358000D02*
D03*
X0529927D02*
D03*
X0532928Y0354000D02*
D03*
X0536471D02*
D03*
X0529927Y0362000D02*
D03*
X0533471D02*
D03*
D27*
X0553199Y0291957D02*
D03*
Y0295500D02*
D03*
X0549199Y0291957D02*
D03*
Y0295500D02*
D03*
X0555199Y0283457D02*
D03*
Y0287000D02*
D03*
X0641199Y0306728D02*
D03*
Y0310272D02*
D03*
X0649199Y0306728D02*
D03*
Y0310272D02*
D03*
X0636000Y0327228D02*
D03*
Y0330772D02*
D03*
X0589000Y0327228D02*
D03*
Y0330772D02*
D03*
X0542000Y0327228D02*
D03*
Y0330772D02*
D03*
D28*
X0573199Y0255801D02*
D03*
D29*
X0577097Y0251864D02*
D03*
X0569302D02*
D03*
Y0253832D02*
D03*
Y0255801D02*
D03*
Y0257769D02*
D03*
Y0259738D02*
D03*
X0577097D02*
D03*
Y0257769D02*
D03*
Y0255801D02*
D03*
Y0253832D02*
D03*
D30*
X0542423Y0349776D02*
D03*
X0539274D02*
D03*
X0536124D02*
D03*
X0532975D02*
D03*
X0542423Y0334224D02*
D03*
X0539274D02*
D03*
X0536124D02*
D03*
X0532975D02*
D03*
X0589424Y0349776D02*
D03*
X0586274D02*
D03*
X0583124D02*
D03*
X0579975D02*
D03*
X0589424Y0334224D02*
D03*
X0586274D02*
D03*
X0583124D02*
D03*
X0579975D02*
D03*
X0636423Y0349776D02*
D03*
X0633274D02*
D03*
X0630124D02*
D03*
X0626975D02*
D03*
X0636423Y0334224D02*
D03*
X0633274D02*
D03*
X0630124D02*
D03*
X0626975D02*
D03*
D31*
X0537699Y0342000D02*
D03*
X0584699D02*
D03*
X0631699D02*
D03*
D32*
X0665591Y0274500D02*
D03*
X0645709D02*
D03*
D33*
X0666199Y0311799D02*
D03*
Y0305500D02*
D03*
D34*
X0620349Y0266900D02*
D03*
Y0302100D02*
D03*
D35*
X0655199Y0297500D02*
D03*
D36*
X0646636Y0301339D02*
D03*
Y0298780D02*
D03*
Y0296220D02*
D03*
Y0293661D02*
D03*
X0663762Y0301339D02*
D03*
Y0298780D02*
D03*
Y0296220D02*
D03*
Y0293661D02*
D03*
D37*
X0554199Y0256177D02*
D03*
Y0240823D02*
D03*
D38*
X0590199Y0239500D02*
D03*
Y0250524D02*
D03*
D39*
X0580711Y0242801D02*
D03*
X0569687D02*
D03*
D40*
X0574937Y0222000D02*
X0575156Y0222219D01*
Y0232000D01*
X0543699Y0289500D02*
X0544053Y0289146D01*
Y0282746D02*
Y0289146D01*
X0549199Y0280737D02*
Y0291957D01*
X0580742Y0257769D02*
X0581199Y0258226D01*
X0577097Y0257769D02*
X0580742D01*
X0560128Y0283350D02*
X0576270D01*
X0623927Y0320228D02*
Y0362000D01*
X0540199Y0317500D02*
Y0323242D01*
X0541799Y0318163D02*
Y0323905D01*
X0532975Y0330467D02*
Y0334224D01*
X0536124Y0329580D02*
Y0334224D01*
Y0329580D02*
X0541799Y0323905D01*
X0532975Y0330467D02*
X0540199Y0323242D01*
X0576499Y0260500D02*
X0576539D01*
X0577199Y0259840D01*
X0585262Y0260500D02*
Y0262437D01*
X0583699Y0264000D02*
X0585262Y0262437D01*
X0559075Y0283410D02*
X0560128Y0283350D01*
X0571069Y0285400D02*
X0572299Y0286630D01*
X0564378Y0285400D02*
X0571069D01*
X0559128Y0290650D02*
X0564378Y0285400D01*
X0570199Y0287500D02*
Y0300579D01*
X0572299Y0287679D02*
X0575270Y0290650D01*
X0572299Y0286630D02*
Y0287679D01*
X0558235Y0283457D02*
X0559075Y0283410D01*
X0570199Y0300579D02*
X0575270Y0305650D01*
X0636095Y0327323D02*
X0648209D01*
X0542000Y0327228D02*
X0554114D01*
X0589094Y0327323D02*
X0601209D01*
X0645199Y0306925D02*
X0645396Y0306728D01*
X0649199D01*
X0645199Y0302776D02*
Y0306925D01*
Y0302776D02*
X0646636Y0301339D01*
X0559128Y0305650D02*
X0575270D01*
X0553076Y0295624D02*
Y0301124D01*
X0547640Y0306559D02*
X0553076Y0301124D01*
X0544699Y0306559D02*
X0547640D01*
X0555199Y0287000D02*
Y0289500D01*
X0544053Y0282746D02*
X0562999Y0263800D01*
X0553016Y0279183D02*
Y0291774D01*
X0558203Y0306575D02*
X0559128Y0305650D01*
X0555199Y0306575D02*
X0558203D01*
X0555199Y0283457D02*
X0558235D01*
X0586427Y0310272D02*
X0589199Y0307500D01*
Y0287500D02*
Y0307500D01*
X0582399Y0285533D02*
X0583699Y0284233D01*
X0582399Y0285533D02*
Y0308342D01*
X0579975Y0310766D02*
X0582399Y0308342D01*
X0575378Y0313100D02*
X0580799Y0307679D01*
Y0280900D02*
Y0307679D01*
X0577497Y0308718D02*
X0578699Y0307516D01*
Y0284000D02*
Y0307516D01*
X0583699Y0284000D02*
Y0284233D01*
X0586599Y0278100D02*
X0586699Y0278000D01*
X0586599Y0295542D02*
X0587299Y0296242D01*
X0586599Y0278100D02*
Y0295542D01*
X0587299Y0296242D02*
Y0306400D01*
X0589795Y0277904D02*
X0592899Y0281008D01*
X0588699Y0284000D02*
X0591299Y0286600D01*
X0583124Y0310575D02*
X0587299Y0306400D01*
X0589971Y0317500D02*
X0592199D01*
X0576928Y0318728D02*
Y0358000D01*
X0549199Y0280737D02*
X0565099Y0264837D01*
Y0262000D02*
Y0264837D01*
X0567699Y0262000D02*
Y0264500D01*
X0553016Y0279183D02*
X0567699Y0264500D01*
X0593168Y0260500D02*
X0593199Y0260469D01*
X0589199Y0260500D02*
X0593168D01*
X0570199Y0260635D02*
Y0264000D01*
X0569302Y0259738D02*
X0570199Y0260635D01*
X0562999Y0263777D02*
Y0263800D01*
X0544243Y0262100D02*
X0560999D01*
X0540599Y0258456D02*
X0544243Y0262100D01*
X0540599Y0254900D02*
Y0258456D01*
Y0254900D02*
X0540699Y0254800D01*
X0567199Y0222136D02*
Y0232000D01*
X0567063Y0222000D02*
X0567199Y0222136D01*
X0580799Y0280900D02*
X0583699Y0278000D01*
X0622199Y0318500D02*
X0623927Y0320228D01*
X0593199Y0260469D02*
Y0264500D01*
X0586427Y0310272D02*
Y0313500D01*
X0583124Y0310575D02*
Y0334224D01*
X0586427Y0317500D02*
X0586427Y0317500D01*
X0586427Y0313500D02*
Y0317500D01*
X0553076Y0295624D02*
X0553199Y0295500D01*
X0547699Y0304000D02*
X0549199Y0302500D01*
Y0295500D02*
Y0302500D01*
X0553016Y0291774D02*
X0553199Y0291957D01*
X0544699Y0304000D02*
X0547699D01*
X0579975Y0310766D02*
Y0334224D01*
X0577456Y0308718D02*
X0577497D01*
X0576775Y0309399D02*
X0577456Y0308718D01*
X0576775Y0309399D02*
Y0309441D01*
X0574715Y0311500D02*
X0576775Y0309441D01*
X0546862Y0313100D02*
X0575378D01*
X0546199Y0311500D02*
X0574715D01*
X0630124Y0319662D02*
Y0334224D01*
X0622862Y0312400D02*
X0630124Y0319662D01*
X0626975Y0318776D02*
Y0334224D01*
X0622199Y0314000D02*
X0626975Y0318776D01*
X0541799Y0318163D02*
X0546862Y0313100D01*
X0540199Y0317500D02*
X0546199Y0311500D01*
X0668364Y0292665D02*
Y0294335D01*
X0666479Y0296220D02*
X0668364Y0294335D01*
X0664213Y0296220D02*
X0666479D01*
X0649199Y0310272D02*
X0651428Y0312500D01*
X0649199Y0310272D02*
X0649199Y0310272D01*
X0649002Y0306925D02*
X0649199Y0306728D01*
X0643199Y0298780D02*
X0646636D01*
X0631479D02*
X0643199D01*
X0641199Y0300780D02*
X0643199Y0298780D01*
X0641199Y0300780D02*
Y0306728D01*
X0631920Y0296220D02*
X0646636D01*
X0631346Y0295647D02*
X0631920Y0296220D01*
X0663199Y0287500D02*
X0668364Y0292665D01*
X0661199Y0287500D02*
X0663199D01*
X0657199Y0284574D02*
Y0287098D01*
X0663762Y0293661D01*
Y0298780D02*
X0666479D01*
X0668199Y0300500D01*
Y0303500D01*
X0666199Y0305500D02*
X0668199Y0303500D01*
X0538965Y0350084D02*
X0539274Y0349776D01*
X0588699Y0359000D02*
X0590124D01*
X0585965Y0356266D02*
X0588699Y0359000D01*
X0585965Y0350084D02*
Y0356266D01*
X0590124Y0359000D02*
X0590425D01*
X0596654Y0382000D02*
Y0383791D01*
Y0381000D02*
Y0382000D01*
X0635238Y0358500D02*
X0637124D01*
X0632965Y0350084D02*
Y0356227D01*
X0635238Y0358500D01*
X0585965Y0350084D02*
X0586274Y0349776D01*
X0632965Y0350084D02*
X0633274Y0349776D01*
X0635724Y0331047D02*
X0636000Y0330772D01*
X0645653Y0382000D02*
Y0383791D01*
Y0364079D02*
Y0370209D01*
X0640575Y0359000D02*
X0645653Y0364079D01*
X0596654Y0381000D02*
X0598654D01*
Y0364079D02*
Y0370209D01*
X0593575Y0359000D02*
X0598654Y0364079D01*
X0546575Y0359000D02*
X0551653Y0364079D01*
X0636000Y0327228D02*
X0636095Y0327323D01*
X0589000Y0330772D02*
X0589424Y0331195D01*
Y0334224D01*
X0542000Y0330772D02*
X0542423Y0331195D01*
Y0334224D01*
X0636423Y0331195D02*
Y0334224D01*
X0636000Y0330772D02*
X0636423Y0331195D01*
X0576928Y0358000D02*
Y0362000D01*
X0576928Y0362000D02*
X0576928Y0362000D01*
X0529927Y0358000D02*
Y0362000D01*
X0529927Y0362000D02*
X0529927Y0362000D01*
Y0333772D02*
Y0358000D01*
Y0333772D02*
X0530199Y0333500D01*
X0591299Y0286600D02*
Y0307600D01*
X0597699Y0314000D01*
X0592899Y0306937D02*
X0598362Y0312400D01*
X0592899Y0281008D02*
Y0306937D01*
X0651428Y0312500D02*
X0660199D01*
Y0311500D02*
Y0312500D01*
X0536971Y0236500D02*
Y0240823D01*
X0535199Y0242595D02*
X0536971Y0240823D01*
X0536199Y0233500D02*
X0551699D01*
X0597699Y0314000D02*
X0622199D01*
X0598362Y0312400D02*
X0622862D01*
X0541738Y0359000D02*
X0543124D01*
X0538965Y0356227D02*
X0541738Y0359000D01*
X0538965Y0350084D02*
Y0356227D01*
X0626199Y0293500D02*
X0631479Y0298780D01*
X0624199Y0293500D02*
X0626199D01*
X0577097Y0259738D02*
X0577199Y0259840D01*
X0641199Y0310272D02*
X0649199D01*
X0620650Y0302100D02*
X0624478D01*
D41*
X0633274Y0334224D02*
Y0339726D01*
X0584699Y0342000D02*
X0586274Y0340425D01*
Y0334224D02*
Y0340425D01*
X0537699Y0342000D02*
X0539274Y0340425D01*
Y0334224D02*
Y0340425D01*
X0605063Y0222000D02*
X0610063Y0217000D01*
X0627063D01*
X0632063Y0222000D01*
X0542699Y0380000D02*
X0544699Y0382000D01*
X0589699Y0366333D02*
Y0380000D01*
X0591699Y0382000D02*
X0596654D01*
X0589699Y0380000D02*
X0591699Y0382000D01*
X0636699Y0366333D02*
Y0380000D01*
X0638699Y0382000D02*
X0645653D01*
X0636699Y0380000D02*
X0638699Y0382000D01*
X0544699D02*
X0551699D01*
X0579975Y0349776D02*
Y0356609D01*
X0589699Y0366333D01*
X0596654Y0382000D02*
X0598699D01*
X0626975Y0349776D02*
Y0356609D01*
X0636699Y0366333D01*
X0542699D02*
Y0380000D01*
X0532975Y0349776D02*
Y0356609D01*
X0542699Y0366333D01*
X0631000Y0342000D02*
X0633274Y0339726D01*
D42*
X0561000Y0317284D02*
X0569661D01*
X0552339D02*
X0561000D01*
X0608000D02*
X0616661D01*
X0599339D02*
X0608000D01*
X0646339D02*
X0655000D01*
X0663661D01*
D43*
X0552597Y0343858D02*
X0560000D01*
X0549699Y0340960D02*
X0552597Y0343858D01*
X0542423Y0334224D02*
X0544923D01*
X0549699Y0339000D01*
Y0340960D01*
X0599597Y0343858D02*
X0607000D01*
X0596699Y0340960D02*
X0599597Y0343858D01*
X0589424Y0334224D02*
X0591924D01*
X0596699Y0339000D01*
Y0340960D01*
X0593142Y0366452D02*
Y0377000D01*
X0583124Y0356435D02*
X0593142Y0366452D01*
X0643699Y0339000D02*
Y0340960D01*
X0638924Y0334224D02*
X0643699Y0339000D01*
X0636423Y0334224D02*
X0638924D01*
X0630124Y0356435D02*
X0640142Y0366452D01*
Y0377000D01*
X0643699Y0340960D02*
X0646597Y0343858D01*
X0654000D01*
X0583124Y0349776D02*
Y0356435D01*
X0630124Y0349776D02*
Y0356435D01*
X0668799Y0314399D02*
Y0354000D01*
X0666199Y0311799D02*
X0668799Y0314399D01*
X0546142Y0366452D02*
Y0377000D01*
X0536124Y0349776D02*
Y0356435D01*
X0546142Y0366452D01*
X0618050Y0299500D02*
X0620650Y0302100D01*
D44*
X0533000Y0342000D02*
X0534575Y0340425D01*
X0573199Y0253832D02*
Y0255801D01*
X0569302Y0253832D02*
X0573199D01*
X0541244Y0354000D02*
X0541724Y0353520D01*
X0635244Y0354000D02*
X0635724Y0353520D01*
X0582000Y0342000D02*
X0583575Y0340425D01*
D45*
X0541229Y0271970D02*
D03*
D46*
X0660559Y0244000D02*
D03*
X0652685D02*
D03*
X0636989D02*
D03*
X0629089D02*
D03*
X0621189D02*
D03*
X0613315D02*
D03*
X0605441D02*
D03*
X0644811D02*
D03*
X0582837Y0222000D02*
D03*
X0574937D02*
D03*
X0567063D02*
D03*
X0559189D02*
D03*
X0612937D02*
D03*
X0605063D02*
D03*
X0632063D02*
D03*
X0639937D02*
D03*
D47*
X0538699D02*
D03*
X0660199D02*
D03*
X0625699Y0403000D02*
D03*
X0578699D02*
D03*
D48*
X0531199Y0397528D02*
D03*
Y0368000D02*
D03*
D49*
X0540699Y0286500D02*
D03*
X0532699Y0254500D02*
D03*
X0548199Y0246500D02*
D03*
X0545199Y0243500D02*
D03*
X0543699Y0289500D02*
D03*
X0546699D02*
D03*
X0546653Y0286576D02*
D03*
X0536699Y0323500D02*
D03*
X0586199D02*
D03*
X0534199Y0308000D02*
D03*
X0590199Y0234500D02*
D03*
X0587199D02*
D03*
X0584199D02*
D03*
X0581199D02*
D03*
X0576499Y0260500D02*
D03*
X0583699Y0264000D02*
D03*
X0648199Y0293500D02*
D03*
X0645199D02*
D03*
X0629199Y0342500D02*
D03*
Y0345000D02*
D03*
X0631699D02*
D03*
X0570199Y0287500D02*
D03*
X0539774Y0314500D02*
D03*
X0633199Y0260500D02*
D03*
X0630199D02*
D03*
X0556199Y0336500D02*
D03*
X0558699D02*
D03*
X0561199D02*
D03*
X0563699D02*
D03*
X0566199D02*
D03*
X0558699Y0334000D02*
D03*
X0561199D02*
D03*
X0563699D02*
D03*
X0566199D02*
D03*
Y0331500D02*
D03*
X0563699D02*
D03*
X0558699D02*
D03*
X0556199D02*
D03*
Y0329000D02*
D03*
Y0321500D02*
D03*
Y0324000D02*
D03*
X0558699Y0329000D02*
D03*
Y0326500D02*
D03*
Y0324000D02*
D03*
Y0321500D02*
D03*
X0561199D02*
D03*
X0563699D02*
D03*
X0566199D02*
D03*
Y0329000D02*
D03*
Y0326500D02*
D03*
Y0324000D02*
D03*
X0563699D02*
D03*
X0561199D02*
D03*
Y0326500D02*
D03*
X0563699Y0329000D02*
D03*
Y0326500D02*
D03*
X0556199D02*
D03*
X0561199Y0329000D02*
D03*
Y0331500D02*
D03*
X0556199Y0334000D02*
D03*
X0603199Y0336500D02*
D03*
X0605699D02*
D03*
X0608199D02*
D03*
X0610699D02*
D03*
X0613199D02*
D03*
X0605699Y0334000D02*
D03*
X0608199D02*
D03*
X0610699D02*
D03*
X0613199D02*
D03*
Y0331500D02*
D03*
X0610699D02*
D03*
X0605699D02*
D03*
X0603199D02*
D03*
Y0329000D02*
D03*
Y0321500D02*
D03*
Y0324000D02*
D03*
X0605699Y0329000D02*
D03*
Y0326500D02*
D03*
Y0324000D02*
D03*
Y0321500D02*
D03*
X0608199D02*
D03*
X0610699D02*
D03*
X0613199D02*
D03*
Y0329000D02*
D03*
Y0326500D02*
D03*
Y0324000D02*
D03*
X0610699D02*
D03*
X0608199D02*
D03*
Y0326500D02*
D03*
X0610699Y0329000D02*
D03*
Y0326500D02*
D03*
X0603199D02*
D03*
X0608199Y0329000D02*
D03*
Y0331500D02*
D03*
X0603199Y0334000D02*
D03*
X0608199Y0296272D02*
D03*
X0572199Y0309000D02*
D03*
X0569699D02*
D03*
X0567199D02*
D03*
X0575699Y0300575D02*
D03*
X0555199Y0303500D02*
D03*
Y0301000D02*
D03*
Y0298500D02*
D03*
Y0289500D02*
D03*
X0558199Y0292500D02*
D03*
X0560699Y0283500D02*
D03*
X0575699Y0237500D02*
D03*
X0581199Y0243500D02*
D03*
X0584499Y0288293D02*
D03*
X0589199Y0287500D02*
D03*
X0585199Y0300500D02*
D03*
Y0297500D02*
D03*
X0607575Y0265000D02*
D03*
X0589971Y0313500D02*
D03*
X0589199Y0310500D02*
D03*
X0592199Y0317500D02*
D03*
X0536624Y0314500D02*
D03*
X0659699Y0347500D02*
D03*
X0657199D02*
D03*
X0654699D02*
D03*
X0652199D02*
D03*
X0649699D02*
D03*
X0659699Y0345000D02*
D03*
Y0342500D02*
D03*
X0612699Y0347500D02*
D03*
X0610199D02*
D03*
X0607699D02*
D03*
X0605199D02*
D03*
X0602699D02*
D03*
X0612699Y0345000D02*
D03*
Y0342500D02*
D03*
X0565699D02*
D03*
Y0345000D02*
D03*
X0555699Y0347500D02*
D03*
X0558199D02*
D03*
X0560699D02*
D03*
X0563199D02*
D03*
X0565699D02*
D03*
X0576928Y0318728D02*
D03*
X0650199Y0334000D02*
D03*
X0655199Y0331500D02*
D03*
Y0329000D02*
D03*
X0650199Y0326500D02*
D03*
X0657699D02*
D03*
Y0329000D02*
D03*
X0655199Y0326500D02*
D03*
Y0324000D02*
D03*
X0657699D02*
D03*
X0660199D02*
D03*
Y0326500D02*
D03*
Y0329000D02*
D03*
Y0321500D02*
D03*
X0657699D02*
D03*
X0655199D02*
D03*
X0652699D02*
D03*
Y0324000D02*
D03*
Y0326500D02*
D03*
Y0329000D02*
D03*
X0650199Y0324000D02*
D03*
Y0321500D02*
D03*
Y0329000D02*
D03*
Y0331500D02*
D03*
X0652699D02*
D03*
X0657699D02*
D03*
X0660199D02*
D03*
Y0334000D02*
D03*
X0657699D02*
D03*
X0655199D02*
D03*
X0652699D02*
D03*
X0660199Y0336500D02*
D03*
X0657699D02*
D03*
X0655199D02*
D03*
X0652699D02*
D03*
X0650199D02*
D03*
X0631699Y0342500D02*
D03*
X0634199D02*
D03*
Y0345000D02*
D03*
X0582199Y0342500D02*
D03*
X0584699D02*
D03*
X0587199D02*
D03*
Y0345000D02*
D03*
X0584699D02*
D03*
X0582199D02*
D03*
X0535199Y0342500D02*
D03*
X0537699D02*
D03*
X0540199D02*
D03*
Y0345000D02*
D03*
X0537699D02*
D03*
X0535199D02*
D03*
X0538224Y0331050D02*
D03*
X0585224D02*
D03*
X0600199Y0250500D02*
D03*
X0597199D02*
D03*
X0607774Y0255500D02*
D03*
X0604624D02*
D03*
X0604000Y0261575D02*
D03*
X0605199Y0281500D02*
D03*
Y0284650D02*
D03*
X0563199Y0240500D02*
D03*
X0581199D02*
D03*
X0575699Y0243500D02*
D03*
Y0240500D02*
D03*
X0581199Y0237500D02*
D03*
X0562999Y0263777D02*
D03*
X0567699Y0262000D02*
D03*
X0565099D02*
D03*
X0560999Y0262100D02*
D03*
X0540599Y0254900D02*
D03*
X0548199Y0240500D02*
D03*
Y0243500D02*
D03*
X0545199Y0240500D02*
D03*
X0551199Y0246500D02*
D03*
X0548199Y0237500D02*
D03*
X0551699Y0233500D02*
D03*
X0551199Y0243500D02*
D03*
X0554199Y0246500D02*
D03*
Y0243500D02*
D03*
X0557199D02*
D03*
Y0240500D02*
D03*
X0560199D02*
D03*
Y0237500D02*
D03*
X0567199Y0232000D02*
D03*
X0575156D02*
D03*
X0551199Y0237500D02*
D03*
Y0240500D02*
D03*
X0569199Y0237500D02*
D03*
X0566199D02*
D03*
X0572199D02*
D03*
X0590199Y0240500D02*
D03*
X0587199D02*
D03*
X0584199D02*
D03*
X0583699Y0278000D02*
D03*
X0586699D02*
D03*
X0589795Y0277904D02*
D03*
X0578699Y0284000D02*
D03*
X0622199Y0318500D02*
D03*
X0593199Y0264500D02*
D03*
X0588699Y0284000D02*
D03*
X0583699D02*
D03*
X0530199Y0333500D02*
D03*
X0654443Y0309500D02*
D03*
X0637199Y0303500D02*
D03*
Y0306500D02*
D03*
X0634199D02*
D03*
Y0303500D02*
D03*
X0631199D02*
D03*
Y0306500D02*
D03*
X0628199D02*
D03*
Y0303500D02*
D03*
X0631346Y0295647D02*
D03*
X0661199Y0269500D02*
D03*
Y0266500D02*
D03*
Y0287500D02*
D03*
X0625199Y0297500D02*
D03*
X0622199Y0300500D02*
D03*
X0616199Y0303500D02*
D03*
X0619199D02*
D03*
X0622199D02*
D03*
X0625199D02*
D03*
Y0306500D02*
D03*
X0622199D02*
D03*
X0619199D02*
D03*
X0616199D02*
D03*
X0667199Y0266500D02*
D03*
X0664199D02*
D03*
Y0275500D02*
D03*
X0667199D02*
D03*
Y0278500D02*
D03*
X0664199D02*
D03*
Y0281500D02*
D03*
X0667199D02*
D03*
Y0284500D02*
D03*
X0664199D02*
D03*
X0663199Y0302500D02*
D03*
X0660199D02*
D03*
Y0305500D02*
D03*
X0663199Y0308500D02*
D03*
X0660199D02*
D03*
X0666199Y0311500D02*
D03*
X0663199D02*
D03*
X0660199D02*
D03*
X0633199Y0287500D02*
D03*
X0642199Y0293500D02*
D03*
X0639199D02*
D03*
X0636199D02*
D03*
X0654199Y0290500D02*
D03*
X0651199D02*
D03*
X0648199D02*
D03*
X0645199D02*
D03*
X0642199D02*
D03*
X0639199D02*
D03*
X0636199D02*
D03*
X0633199D02*
D03*
X0630199Y0287500D02*
D03*
X0636199D02*
D03*
X0639199D02*
D03*
Y0284500D02*
D03*
X0636199D02*
D03*
X0633199D02*
D03*
X0630199D02*
D03*
X0636199Y0281500D02*
D03*
X0633199D02*
D03*
X0630199D02*
D03*
X0639199D02*
D03*
Y0278500D02*
D03*
X0636199D02*
D03*
X0633199D02*
D03*
X0630199D02*
D03*
X0636199Y0275500D02*
D03*
X0633199D02*
D03*
X0630199D02*
D03*
X0657199Y0284574D02*
D03*
X0630199Y0263500D02*
D03*
X0633199D02*
D03*
X0636199Y0263642D02*
D03*
X0639199Y0266500D02*
D03*
X0636199D02*
D03*
X0633199D02*
D03*
X0630199D02*
D03*
Y0269500D02*
D03*
X0633199D02*
D03*
X0636199D02*
D03*
X0639199D02*
D03*
X0630199Y0272500D02*
D03*
X0633199D02*
D03*
X0639199D02*
D03*
X0636199D02*
D03*
X0639199Y0263500D02*
D03*
Y0260500D02*
D03*
X0636199D02*
D03*
X0590199Y0237500D02*
D03*
X0587199D02*
D03*
X0584199D02*
D03*
X0557199Y0246500D02*
D03*
X0560199D02*
D03*
Y0243500D02*
D03*
X0572199Y0240500D02*
D03*
X0569199D02*
D03*
X0563199Y0237500D02*
D03*
X0554199Y0240500D02*
D03*
Y0237500D02*
D03*
X0557199D02*
D03*
X0600199Y0247500D02*
D03*
X0597199D02*
D03*
Y0241500D02*
D03*
Y0238500D02*
D03*
X0600199D02*
D03*
Y0241500D02*
D03*
Y0244500D02*
D03*
X0597199D02*
D03*
X0627471Y0362000D02*
D03*
X0533471D02*
D03*
X0640955Y0354000D02*
D03*
X0593955D02*
D03*
X0580471Y0362000D02*
D03*
X0653231Y0299468D02*
D03*
X0657168D02*
D03*
X0653231Y0295532D02*
D03*
X0657168D02*
D03*
X0546756Y0354000D02*
D03*
X0613199Y0233000D02*
D03*
Y0230000D02*
D03*
X0541699Y0405000D02*
D03*
Y0408000D02*
D03*
X0588699D02*
D03*
Y0405000D02*
D03*
X0635699Y0408000D02*
D03*
Y0405000D02*
D03*
X0554573Y0408000D02*
D03*
Y0405000D02*
D03*
X0601573Y0408000D02*
D03*
Y0405000D02*
D03*
X0648573Y0408000D02*
D03*
Y0405000D02*
D03*
X0624199Y0367500D02*
D03*
X0626699D02*
D03*
X0624199Y0365000D02*
D03*
X0626699D02*
D03*
X0579699D02*
D03*
X0577199D02*
D03*
X0579699Y0367500D02*
D03*
X0577199D02*
D03*
Y0370000D02*
D03*
X0579699D02*
D03*
X0589199Y0349500D02*
D03*
X0636199D02*
D03*
Y0352000D02*
D03*
X0542199Y0349500D02*
D03*
Y0352000D02*
D03*
X0575699Y0385500D02*
D03*
X0585699Y0388000D02*
D03*
X0583199D02*
D03*
X0580699D02*
D03*
X0578199D02*
D03*
X0575699D02*
D03*
X0573199D02*
D03*
X0570699D02*
D03*
X0585699Y0385500D02*
D03*
X0583199D02*
D03*
X0580699D02*
D03*
X0578199D02*
D03*
X0573199D02*
D03*
X0570699D02*
D03*
Y0383000D02*
D03*
X0573199D02*
D03*
X0575699D02*
D03*
X0578199D02*
D03*
X0580699D02*
D03*
X0583199D02*
D03*
X0585699D02*
D03*
Y0380500D02*
D03*
X0583199D02*
D03*
X0580699D02*
D03*
X0578199D02*
D03*
X0575699D02*
D03*
X0573199D02*
D03*
X0570699D02*
D03*
Y0378000D02*
D03*
X0585699D02*
D03*
X0573199D02*
D03*
X0575699D02*
D03*
X0583199D02*
D03*
X0580699D02*
D03*
X0578199D02*
D03*
X0625199Y0383000D02*
D03*
X0632699Y0388000D02*
D03*
X0622699Y0385500D02*
D03*
X0630199Y0388000D02*
D03*
X0627699D02*
D03*
X0625199D02*
D03*
X0622699D02*
D03*
X0620199D02*
D03*
X0617699D02*
D03*
X0632699Y0385500D02*
D03*
X0630199D02*
D03*
X0627699D02*
D03*
X0625199D02*
D03*
X0620199D02*
D03*
X0617699D02*
D03*
Y0383000D02*
D03*
X0620199D02*
D03*
X0622699D02*
D03*
X0627699D02*
D03*
X0630199D02*
D03*
X0632699D02*
D03*
Y0380500D02*
D03*
X0630199D02*
D03*
X0627699D02*
D03*
X0625199D02*
D03*
X0622699D02*
D03*
X0620199D02*
D03*
X0617699D02*
D03*
Y0378000D02*
D03*
Y0375500D02*
D03*
X0632699Y0378000D02*
D03*
Y0375500D02*
D03*
X0620199D02*
D03*
Y0378000D02*
D03*
X0622699D02*
D03*
Y0375500D02*
D03*
X0630199Y0378000D02*
D03*
Y0375500D02*
D03*
X0627699Y0378000D02*
D03*
Y0375500D02*
D03*
X0625199Y0378000D02*
D03*
Y0375500D02*
D03*
X0578199Y0390500D02*
D03*
X0580699D02*
D03*
X0583199D02*
D03*
X0585699D02*
D03*
X0575699D02*
D03*
X0573199D02*
D03*
X0570699D02*
D03*
X0617699D02*
D03*
X0620199D02*
D03*
X0622699D02*
D03*
X0625199D02*
D03*
X0630199D02*
D03*
X0632699D02*
D03*
X0627699D02*
D03*
X0577199Y0372500D02*
D03*
X0579699D02*
D03*
X0531699Y0390500D02*
D03*
Y0388000D02*
D03*
Y0385500D02*
D03*
Y0383000D02*
D03*
Y0378000D02*
D03*
Y0375500D02*
D03*
Y0380500D02*
D03*
X0536699Y0388000D02*
D03*
Y0380500D02*
D03*
X0534199D02*
D03*
Y0375500D02*
D03*
X0536699D02*
D03*
X0539199D02*
D03*
Y0378000D02*
D03*
X0536699D02*
D03*
X0534199D02*
D03*
X0539199Y0380500D02*
D03*
X0534199Y0383000D02*
D03*
X0536699D02*
D03*
X0539199D02*
D03*
Y0385500D02*
D03*
X0536699D02*
D03*
X0534199D02*
D03*
X0539199Y0388000D02*
D03*
X0534199D02*
D03*
Y0390500D02*
D03*
X0536699D02*
D03*
X0539199D02*
D03*
X0632699Y0373000D02*
D03*
X0630199D02*
D03*
X0627699D02*
D03*
X0625199D02*
D03*
X0622699D02*
D03*
X0570699Y0375500D02*
D03*
X0573199D02*
D03*
X0534199Y0299000D02*
D03*
Y0288200D02*
D03*
X0533427Y0236500D02*
D03*
X0660699Y0252500D02*
D03*
X0594199Y0221000D02*
D03*
X0596699Y0304500D02*
D03*
X0610199Y0283272D02*
D03*
X0613719Y0288437D02*
D03*
X0614046Y0283059D02*
D03*
X0536199Y0233500D02*
D03*
X0594199Y0247500D02*
D03*
Y0250500D02*
D03*
X0570742Y0232000D02*
D03*
X0578699D02*
D03*
X0668699Y0390500D02*
D03*
X0666199D02*
D03*
Y0388000D02*
D03*
Y0385500D02*
D03*
X0668699D02*
D03*
Y0383000D02*
D03*
X0666199D02*
D03*
Y0378000D02*
D03*
X0668699D02*
D03*
Y0375500D02*
D03*
X0666199D02*
D03*
Y0380500D02*
D03*
X0668699D02*
D03*
Y0388000D02*
D03*
X0663699Y0380500D02*
D03*
Y0375500D02*
D03*
Y0378000D02*
D03*
Y0383000D02*
D03*
Y0385500D02*
D03*
Y0388000D02*
D03*
Y0390500D02*
D03*
X0580699Y0264000D02*
D03*
Y0261376D02*
D03*
X0619199Y0300500D02*
D03*
X0616199D02*
D03*
X0619199Y0297500D02*
D03*
X0622199D02*
D03*
X0624199Y0293500D02*
D03*
X0613199Y0303500D02*
D03*
Y0300500D02*
D03*
Y0297500D02*
D03*
X0622199Y0275500D02*
D03*
X0619199D02*
D03*
X0616199D02*
D03*
X0589199Y0352000D02*
D03*
X0606364Y0308000D02*
D03*
X0610025Y0307951D02*
D03*
M02*
