G04 Layer_Physical_Order=4*
G04 Layer_Color=16711680*
%FSAX25Y25*%
%MOIN*%
G70*
G01*
G75*
%ADD12R,0.02047X0.02047*%
%ADD13R,0.02047X0.02047*%
%ADD26R,0.01772X0.02165*%
%ADD27R,0.02165X0.01772*%
%ADD40C,0.01000*%
%ADD41C,0.01500*%
%ADD43C,0.02000*%
%ADD45C,0.07480*%
%ADD46C,0.06300*%
%ADD47C,0.12205*%
%ADD48O,0.04724X0.07874*%
%ADD49C,0.02000*%
%ADD58R,0.03150X0.05512*%
%ADD59R,0.22047X0.09606*%
%ADD60R,0.03504X0.09606*%
%ADD61R,0.09055X0.09055*%
%ADD62R,0.03347X0.01575*%
%ADD63O,0.00984X0.06102*%
%ADD64O,0.06102X0.00984*%
%ADD65R,0.06300X0.05500*%
%ADD66O,0.01772X0.06299*%
%ADD67R,0.20866X0.05315*%
%ADD68R,0.03583X0.04803*%
%ADD69R,0.06102X0.09449*%
%ADD70R,0.07480X0.05315*%
%ADD71R,0.10630X0.04528*%
%ADD72R,0.04701X0.02205*%
%ADD73R,0.01772X0.03347*%
%ADD74R,0.03347X0.01772*%
%ADD75R,0.03937X0.01772*%
%ADD76R,0.12000X0.16000*%
G36*
X0622699Y0331500D02*
X0622699Y0321000D01*
X0600199Y0321000D01*
Y0338000D01*
X0616199Y0338000D01*
X0622699Y0331500D01*
D02*
G37*
G36*
X0575699D02*
X0575699Y0321000D01*
X0553199Y0321000D01*
Y0338000D01*
X0569199Y0338000D01*
X0575699Y0331500D01*
D02*
G37*
G36*
X0573658Y0245028D02*
X0573742Y0244972D01*
X0574246Y0244871D01*
X0574751Y0244972D01*
X0574835Y0245028D01*
X0575231Y0245231D01*
X0575626Y0245028D01*
X0575711Y0244972D01*
X0576215Y0244871D01*
X0576358Y0244900D01*
X0576858Y0244509D01*
Y0236533D01*
X0575833Y0235508D01*
X0573358D01*
X0573206Y0236008D01*
X0573497Y0236202D01*
X0573895Y0236798D01*
X0574034Y0237500D01*
X0573895Y0238202D01*
X0573754Y0238413D01*
X0574021Y0238913D01*
X0574546D01*
Y0242087D01*
X0573063D01*
X0572901Y0242196D01*
X0572199Y0242335D01*
X0571497Y0242196D01*
X0571335Y0242087D01*
X0570063D01*
X0569901Y0242196D01*
X0569798Y0242216D01*
Y0244463D01*
X0570297Y0244874D01*
X0570309Y0244871D01*
X0570814Y0244972D01*
X0570898Y0245028D01*
X0571294Y0245231D01*
X0571689Y0245028D01*
X0571774Y0244972D01*
X0572278Y0244871D01*
X0572782Y0244972D01*
X0572866Y0245028D01*
X0573262Y0245231D01*
X0573658Y0245028D01*
D02*
G37*
G36*
X0599383Y0337500D02*
Y0321000D01*
X0599445Y0320688D01*
X0599622Y0320423D01*
X0599887Y0320246D01*
X0600199Y0320184D01*
X0601928D01*
X0602497Y0319804D01*
X0603199Y0319665D01*
X0603901Y0319804D01*
X0604449Y0320170D01*
X0604997Y0319804D01*
X0605699Y0319665D01*
X0606401Y0319804D01*
X0606949Y0320170D01*
X0607497Y0319804D01*
X0608199Y0319665D01*
X0608901Y0319804D01*
X0609449Y0320170D01*
X0609997Y0319804D01*
X0610699Y0319665D01*
X0611401Y0319804D01*
X0611949Y0320170D01*
X0612497Y0319804D01*
X0613199Y0319665D01*
X0613901Y0319804D01*
X0614470Y0320184D01*
X0620648D01*
X0620826Y0319684D01*
X0620504Y0319202D01*
X0620429Y0318826D01*
X0600936D01*
X0600429Y0318725D01*
X0599999Y0318437D01*
X0591416Y0309854D01*
X0590955Y0310100D01*
X0591034Y0310500D01*
X0590895Y0311202D01*
X0590497Y0311798D01*
X0589901Y0312196D01*
X0589236Y0312328D01*
X0589192Y0312343D01*
X0588798Y0312765D01*
Y0313500D01*
X0586774D01*
Y0315500D01*
X0588798D01*
Y0315519D01*
X0588839Y0315553D01*
X0589496Y0315684D01*
X0590054Y0316056D01*
X0590226Y0316313D01*
X0590827D01*
X0590901Y0316202D01*
X0591497Y0315804D01*
X0592199Y0315665D01*
X0592901Y0315804D01*
X0593497Y0316202D01*
X0593895Y0316798D01*
X0594034Y0317500D01*
X0593895Y0318202D01*
X0593497Y0318798D01*
X0592901Y0319196D01*
X0592199Y0319335D01*
X0591497Y0319196D01*
X0591057Y0318902D01*
X0590557Y0319114D01*
Y0321799D01*
X0590427Y0322457D01*
X0590164Y0322850D01*
Y0323590D01*
X0591484Y0324911D01*
X0592672D01*
Y0320633D01*
X0597776D01*
Y0331839D01*
X0592672D01*
Y0327562D01*
X0590935D01*
X0590428Y0327461D01*
X0589998Y0327173D01*
X0587901Y0325077D01*
X0587614Y0324647D01*
X0587513Y0324139D01*
Y0323773D01*
X0587280Y0323649D01*
Y0322501D01*
X0587250Y0322457D01*
X0587119Y0321799D01*
Y0319535D01*
X0585280D01*
Y0323399D01*
X0585000Y0323212D01*
X0584721Y0323399D01*
Y0319535D01*
X0582880D01*
Y0321799D01*
X0582750Y0322457D01*
X0582721Y0322501D01*
Y0323399D01*
X0582361Y0323159D01*
X0582299Y0323066D01*
X0581819Y0323387D01*
X0581161Y0323518D01*
X0581001Y0323486D01*
X0580501Y0323897D01*
Y0331927D01*
X0581073Y0332500D01*
X0581161Y0332482D01*
X0581819Y0332613D01*
X0581895Y0332663D01*
X0582086Y0332621D01*
X0582423Y0332415D01*
X0582496Y0332046D01*
X0582783Y0331616D01*
X0583399Y0331001D01*
X0583529Y0330347D01*
X0583927Y0329752D01*
X0584522Y0329354D01*
X0585224Y0329214D01*
X0585927Y0329354D01*
X0586522Y0329752D01*
X0586920Y0330347D01*
X0587060Y0331050D01*
X0586920Y0331752D01*
X0586715Y0332059D01*
X0586937Y0332612D01*
X0586943Y0332617D01*
X0587168Y0332767D01*
X0587559Y0332955D01*
X0587950Y0332767D01*
X0588181Y0332613D01*
X0588839Y0332482D01*
X0589496Y0332613D01*
X0590054Y0332985D01*
X0590427Y0333543D01*
X0590557Y0334201D01*
Y0335139D01*
X0593164D01*
X0593671Y0335240D01*
X0594101Y0335527D01*
X0596162Y0337588D01*
X0596437Y0338000D01*
X0598883D01*
X0599383Y0337500D01*
D02*
G37*
G36*
X0552383Y0321000D02*
X0552446Y0320688D01*
X0552622Y0320423D01*
X0552887Y0320246D01*
X0553199Y0320184D01*
X0554928D01*
X0555497Y0319804D01*
X0556199Y0319665D01*
X0556901Y0319804D01*
X0557449Y0320170D01*
X0557997Y0319804D01*
X0558699Y0319665D01*
X0559401Y0319804D01*
X0559949Y0320170D01*
X0560497Y0319804D01*
X0561199Y0319665D01*
X0561901Y0319804D01*
X0562449Y0320170D01*
X0562997Y0319804D01*
X0563699Y0319665D01*
X0564401Y0319804D01*
X0564949Y0320170D01*
X0565497Y0319804D01*
X0566199Y0319665D01*
X0566901Y0319804D01*
X0567470Y0320184D01*
X0575134D01*
X0575401Y0319684D01*
X0575232Y0319431D01*
X0575092Y0318728D01*
X0575232Y0318026D01*
X0575602Y0317472D01*
Y0316888D01*
X0575140Y0316696D01*
X0574899Y0316937D01*
X0574469Y0317225D01*
X0573962Y0317325D01*
X0545699D01*
X0545192Y0317225D01*
X0544762Y0316937D01*
X0542260Y0314435D01*
X0541797Y0314626D01*
Y0315519D01*
X0541839Y0315553D01*
X0542496Y0315684D01*
X0543054Y0316056D01*
X0543427Y0316614D01*
X0543557Y0317272D01*
Y0321799D01*
X0543427Y0322457D01*
X0543164Y0322850D01*
Y0323590D01*
X0544484Y0324911D01*
X0545672D01*
Y0320633D01*
X0550776D01*
Y0331839D01*
X0545672D01*
Y0327562D01*
X0543935D01*
X0543428Y0327461D01*
X0542998Y0327173D01*
X0540901Y0325077D01*
X0540614Y0324647D01*
X0540513Y0324139D01*
Y0323773D01*
X0540279Y0323649D01*
Y0322501D01*
X0540250Y0322457D01*
X0540120Y0321799D01*
Y0319535D01*
X0538279D01*
Y0323399D01*
X0538000Y0323212D01*
X0537720Y0323399D01*
Y0319535D01*
X0535881D01*
Y0321799D01*
X0535750Y0322457D01*
X0535720Y0322501D01*
Y0323399D01*
X0535361Y0323159D01*
X0535299Y0323066D01*
X0534819Y0323387D01*
X0534161Y0323518D01*
X0534001Y0323486D01*
X0533501Y0323897D01*
Y0331958D01*
X0534048Y0332505D01*
X0534161Y0332482D01*
X0534819Y0332613D01*
X0534895Y0332663D01*
X0535086Y0332621D01*
X0535423Y0332415D01*
X0535496Y0332046D01*
X0535783Y0331616D01*
X0536399Y0331001D01*
X0536529Y0330347D01*
X0536927Y0329752D01*
X0537522Y0329354D01*
X0538224Y0329214D01*
X0538927Y0329354D01*
X0539522Y0329752D01*
X0539920Y0330347D01*
X0540060Y0331050D01*
X0539920Y0331752D01*
X0539715Y0332059D01*
X0539937Y0332612D01*
X0539943Y0332617D01*
X0540168Y0332767D01*
X0540559Y0332955D01*
X0540950Y0332767D01*
X0541181Y0332613D01*
X0541839Y0332482D01*
X0542496Y0332613D01*
X0543054Y0332985D01*
X0543427Y0333543D01*
X0543557Y0334201D01*
Y0335139D01*
X0546164D01*
X0546671Y0335240D01*
X0547101Y0335527D01*
X0549162Y0337588D01*
X0549437Y0338000D01*
X0552383D01*
Y0321000D01*
D02*
G37*
G36*
X0669699Y0331500D02*
X0669699Y0321000D01*
X0647199Y0321000D01*
Y0338000D01*
X0663199Y0338000D01*
X0669699Y0331500D01*
D02*
G37*
G36*
X0582234Y0276953D02*
X0582401Y0276702D01*
X0582997Y0276304D01*
X0583650Y0276174D01*
X0584732Y0275093D01*
Y0252987D01*
X0584232Y0252596D01*
X0584089Y0252625D01*
X0583585Y0252524D01*
X0583500Y0252468D01*
X0583105Y0252266D01*
X0582709Y0252468D01*
X0582624Y0252524D01*
X0582120Y0252625D01*
X0581616Y0252524D01*
X0581532Y0252468D01*
X0581136Y0252266D01*
X0580740Y0252468D01*
X0580656Y0252524D01*
X0580152Y0252625D01*
X0579648Y0252524D01*
X0579563Y0252468D01*
X0579168Y0252266D01*
X0578772Y0252468D01*
X0578687Y0252524D01*
X0578183Y0252625D01*
X0578040Y0252596D01*
X0577540Y0252987D01*
Y0255786D01*
X0579536Y0257783D01*
X0579824Y0258213D01*
X0579925Y0258720D01*
Y0275351D01*
X0581590Y0277016D01*
X0582234Y0276953D01*
D02*
G37*
G36*
X0565699Y0311250D02*
X0569849D01*
Y0310250D01*
X0570849D01*
Y0306500D01*
X0573675D01*
Y0304751D01*
X0572524D01*
X0572017Y0304650D01*
X0571587Y0304362D01*
X0571525Y0304300D01*
X0565899D01*
Y0298225D01*
X0562348D01*
X0559525Y0301049D01*
Y0305600D01*
X0559424Y0306107D01*
X0559136Y0306537D01*
X0557499Y0308174D01*
Y0313074D01*
X0565699D01*
Y0311250D01*
D02*
G37*
G36*
X0658650Y0286500D02*
Y0267951D01*
X0650199Y0259500D01*
X0629199D01*
Y0273500D01*
X0639199D01*
X0643199Y0277500D01*
Y0286500D01*
X0658650Y0286500D01*
D02*
G37*
G36*
X0668199Y0273500D02*
X0663199D01*
Y0286500D01*
X0668199D01*
Y0273500D01*
D02*
G37*
G36*
X0652199Y0307500D02*
X0658199D01*
Y0301500D01*
X0634199D01*
X0633199Y0302500D01*
X0633199Y0302500D01*
X0626199D01*
X0623199Y0299500D01*
X0623199Y0299500D01*
X0614199D01*
X0614199Y0308500D01*
X0651199D01*
X0651199Y0308500D01*
X0652199Y0307500D01*
D02*
G37*
G36*
X0627764Y0249977D02*
Y0247726D01*
X0627097Y0247450D01*
X0626272Y0246817D01*
X0625639Y0245992D01*
X0625410Y0245439D01*
X0624868D01*
X0624639Y0245992D01*
X0624006Y0246817D01*
X0623181Y0247450D01*
X0622220Y0247848D01*
X0621189Y0247984D01*
X0620158Y0247848D01*
X0619197Y0247450D01*
X0618372Y0246817D01*
X0617739Y0245992D01*
X0617523Y0245470D01*
X0616981D01*
X0616765Y0245992D01*
X0616132Y0246817D01*
X0615307Y0247450D01*
X0614346Y0247848D01*
X0613315Y0247984D01*
X0612284Y0247848D01*
X0611323Y0247450D01*
X0610498Y0246817D01*
X0609865Y0245992D01*
X0609757Y0245732D01*
X0609216D01*
X0609066Y0246093D01*
X0608401Y0246960D01*
X0607534Y0247625D01*
X0606524Y0248043D01*
X0606441Y0248054D01*
Y0244000D01*
X0604441D01*
Y0248054D01*
X0604358Y0248043D01*
X0603348Y0247625D01*
X0602481Y0246960D01*
X0602421Y0246882D01*
X0601954Y0247094D01*
X0602034Y0247500D01*
X0601895Y0248202D01*
X0601497Y0248798D01*
Y0249202D01*
X0601895Y0249798D01*
X0602034Y0250500D01*
X0601895Y0251202D01*
X0601497Y0251798D01*
X0600901Y0252196D01*
X0600199Y0252335D01*
X0599497Y0252196D01*
X0599037Y0251889D01*
X0598699Y0251832D01*
X0598361Y0251889D01*
X0597901Y0252196D01*
X0597199Y0252335D01*
X0596497Y0252196D01*
X0596037Y0251889D01*
X0595699Y0251832D01*
X0595361Y0251889D01*
X0594901Y0252196D01*
X0594199Y0252335D01*
X0593497Y0252196D01*
X0593100Y0251931D01*
X0592895Y0252239D01*
X0592467Y0252524D01*
X0591963Y0252625D01*
X0591820Y0252596D01*
X0591320Y0252987D01*
Y0263173D01*
X0591820Y0263324D01*
X0591901Y0263202D01*
X0592497Y0262804D01*
X0593199Y0262665D01*
X0593901Y0262804D01*
X0594449Y0263170D01*
X0594711Y0263128D01*
X0594985Y0263034D01*
X0594986Y0263028D01*
X0595316Y0262534D01*
X0595343Y0262398D01*
X0595175Y0262146D01*
X0595075Y0261642D01*
X0595175Y0261138D01*
X0595231Y0261053D01*
X0595434Y0260658D01*
X0595231Y0260262D01*
X0595175Y0260177D01*
X0595075Y0259673D01*
X0595175Y0259169D01*
X0595231Y0259085D01*
X0595434Y0258689D01*
X0595231Y0258293D01*
X0595175Y0258209D01*
X0595075Y0257705D01*
X0595175Y0257201D01*
X0595231Y0257116D01*
X0595434Y0256720D01*
X0595231Y0256325D01*
X0595175Y0256240D01*
X0595075Y0255736D01*
X0595175Y0255232D01*
X0595461Y0254805D01*
X0595888Y0254519D01*
X0596392Y0254419D01*
X0598911D01*
X0598951Y0254411D01*
X0602801D01*
Y0253676D01*
X0604566D01*
X0604624Y0253665D01*
X0604683Y0253676D01*
X0605750D01*
Y0253476D01*
X0606774D01*
Y0255500D01*
Y0257524D01*
X0605824D01*
Y0259551D01*
X0606024D01*
Y0260575D01*
X0604000D01*
Y0262575D01*
X0606024D01*
Y0262976D01*
X0606575D01*
Y0265000D01*
Y0267024D01*
X0605551D01*
Y0266824D01*
X0604252D01*
X0603847Y0266904D01*
X0603190D01*
X0602799Y0267404D01*
X0602828Y0267547D01*
X0602727Y0268051D01*
X0602671Y0268136D01*
X0602469Y0268531D01*
X0602671Y0268927D01*
X0602727Y0269012D01*
X0602828Y0269516D01*
X0602727Y0270020D01*
X0602671Y0270104D01*
X0602469Y0270500D01*
X0602671Y0270896D01*
X0602727Y0270980D01*
X0602828Y0271484D01*
X0602799Y0271627D01*
X0603190Y0272127D01*
X0605613D01*
X0627764Y0249977D01*
D02*
G37*
G36*
X0669199Y0300500D02*
X0659199D01*
Y0313500D01*
X0669199D01*
Y0300500D01*
D02*
G37*
G36*
X0646383Y0337500D02*
Y0321000D01*
X0646446Y0320688D01*
X0646622Y0320423D01*
X0646887Y0320246D01*
X0647199Y0320184D01*
X0648928D01*
X0649497Y0319804D01*
X0650199Y0319665D01*
X0650901Y0319804D01*
X0651449Y0320170D01*
X0651997Y0319804D01*
X0652699Y0319665D01*
X0653401Y0319804D01*
X0653949Y0320170D01*
X0654497Y0319804D01*
X0655199Y0319665D01*
X0655901Y0319804D01*
X0656449Y0320170D01*
X0656997Y0319804D01*
X0657699Y0319665D01*
X0658401Y0319804D01*
X0658949Y0320170D01*
X0659497Y0319804D01*
X0660199Y0319665D01*
X0660901Y0319804D01*
X0661470Y0320184D01*
X0669699D01*
X0670011Y0320246D01*
X0670078Y0320291D01*
X0670578Y0320043D01*
Y0218465D01*
X0663235Y0211122D01*
X0535664D01*
X0528321Y0218465D01*
Y0331604D01*
X0528821Y0331856D01*
X0528874Y0331817D01*
Y0314237D01*
X0528974Y0313730D01*
X0529262Y0313300D01*
X0532999Y0309563D01*
X0533429Y0309275D01*
X0533936Y0309174D01*
X0542462D01*
X0542969Y0309275D01*
X0543399Y0309563D01*
X0546911Y0313074D01*
X0549599D01*
Y0310349D01*
X0547648Y0308398D01*
X0545876D01*
Y0305449D01*
X0545676D01*
Y0304425D01*
X0547699D01*
Y0303425D01*
X0548699D01*
Y0301402D01*
X0549399D01*
Y0297000D01*
X0552549D01*
Y0300750D01*
X0554549D01*
Y0297000D01*
X0557699D01*
Y0298472D01*
X0558161Y0298664D01*
X0560862Y0295963D01*
X0560992Y0295876D01*
X0561218Y0295315D01*
X0561118Y0294811D01*
Y0293826D01*
X0560023D01*
Y0294324D01*
X0558258D01*
X0558199Y0294335D01*
X0558141Y0294324D01*
X0557073D01*
Y0294524D01*
X0556049D01*
Y0292500D01*
Y0290476D01*
X0557073D01*
Y0290676D01*
X0558141D01*
X0558199Y0290665D01*
X0558258Y0290676D01*
X0560023D01*
Y0291175D01*
X0561118D01*
Y0289693D01*
X0561218Y0289189D01*
X0561504Y0288761D01*
X0561931Y0288476D01*
X0562435Y0288375D01*
X0562940Y0288476D01*
X0563024Y0288532D01*
X0563420Y0288734D01*
X0563815Y0288532D01*
X0563900Y0288476D01*
X0564404Y0288375D01*
X0564908Y0288476D01*
X0564993Y0288532D01*
X0565388Y0288734D01*
X0565784Y0288532D01*
X0565868Y0288476D01*
X0566372Y0288375D01*
X0566877Y0288476D01*
X0566961Y0288532D01*
X0567357Y0288734D01*
X0567752Y0288532D01*
X0567837Y0288476D01*
X0568077Y0288428D01*
X0568103Y0288414D01*
X0568426Y0287958D01*
X0568440Y0287885D01*
X0568364Y0287500D01*
X0568504Y0286798D01*
X0568901Y0286202D01*
X0569497Y0285804D01*
X0570199Y0285665D01*
X0570901Y0285804D01*
X0571497Y0286202D01*
X0571880Y0286775D01*
X0572937D01*
X0573445Y0286876D01*
X0573875Y0287163D01*
X0574805Y0288094D01*
X0575278Y0288047D01*
X0577498Y0285827D01*
X0577449Y0285329D01*
X0577401Y0285298D01*
X0577004Y0284702D01*
X0576874Y0284049D01*
X0571341Y0278516D01*
X0571053Y0278086D01*
X0570952Y0277579D01*
Y0261275D01*
X0570490Y0261083D01*
X0569525Y0262049D01*
X0569395Y0262702D01*
X0568997Y0263298D01*
X0568401Y0263696D01*
X0567699Y0263835D01*
X0566997Y0263696D01*
X0566401Y0263298D01*
X0566397D01*
X0565801Y0263696D01*
X0565099Y0263835D01*
X0564833Y0263782D01*
X0564695Y0264479D01*
X0564325Y0265033D01*
Y0267069D01*
X0564224Y0267576D01*
X0563936Y0268006D01*
X0559521Y0272422D01*
X0559487Y0272444D01*
X0559223Y0272949D01*
X0559324Y0273453D01*
X0559223Y0273957D01*
X0559167Y0274041D01*
X0558965Y0274437D01*
X0559167Y0274833D01*
X0559223Y0274917D01*
X0559324Y0275421D01*
X0559223Y0275925D01*
X0559593Y0276164D01*
X0559596Y0276165D01*
X0559596Y0276165D01*
X0560026Y0276452D01*
X0561636Y0278063D01*
X0561924Y0278493D01*
X0562025Y0279000D01*
Y0282244D01*
X0562395Y0282798D01*
X0562534Y0283500D01*
X0562395Y0284202D01*
X0561997Y0284798D01*
X0561401Y0285196D01*
X0560699Y0285335D01*
X0559997Y0285196D01*
X0559793Y0285059D01*
X0559562Y0285160D01*
X0559309Y0285337D01*
X0559223Y0285768D01*
X0558938Y0286195D01*
X0558510Y0286481D01*
X0558006Y0286581D01*
X0555488D01*
X0555447Y0286589D01*
X0552587D01*
X0552023Y0287154D01*
Y0288473D01*
X0549600D01*
X0548525Y0289549D01*
X0548395Y0290202D01*
X0547997Y0290798D01*
X0547401Y0291196D01*
X0546699Y0291335D01*
X0546082Y0291213D01*
X0545582Y0291474D01*
Y0291957D01*
X0541816D01*
Y0288586D01*
X0541816D01*
Y0288414D01*
X0541316Y0288212D01*
X0540699Y0288335D01*
X0539997Y0288196D01*
X0539401Y0287798D01*
X0539004Y0287202D01*
X0538874Y0286549D01*
X0538087Y0285762D01*
X0536010D01*
Y0278650D01*
X0540760D01*
Y0284614D01*
X0541223Y0284766D01*
X0541719Y0284461D01*
Y0278650D01*
X0545933D01*
X0546140Y0278150D01*
X0545299Y0277309D01*
X0545012Y0276879D01*
X0544911Y0276372D01*
Y0275364D01*
X0544411Y0275252D01*
X0543519Y0275936D01*
X0542414Y0276393D01*
X0541229Y0276549D01*
X0540044Y0276393D01*
X0538940Y0275936D01*
X0537991Y0275208D01*
X0537263Y0274260D01*
X0536806Y0273155D01*
X0536650Y0271970D01*
X0536806Y0270785D01*
X0537263Y0269680D01*
X0537991Y0268732D01*
X0538940Y0268004D01*
X0540044Y0267547D01*
X0541143Y0267402D01*
X0541408Y0266961D01*
X0540262Y0265814D01*
X0539974Y0265384D01*
X0539956Y0265290D01*
X0536010D01*
Y0261233D01*
X0534762Y0259985D01*
X0534475Y0259555D01*
X0534374Y0259048D01*
Y0258958D01*
X0533816D01*
Y0255586D01*
X0533816D01*
Y0255414D01*
X0533816D01*
Y0252043D01*
X0534374D01*
Y0238588D01*
X0533874Y0238246D01*
X0533427Y0238335D01*
X0532725Y0238196D01*
X0532130Y0237798D01*
X0531732Y0237202D01*
X0531592Y0236500D01*
X0531732Y0235798D01*
X0532130Y0235202D01*
X0532725Y0234804D01*
X0533427Y0234665D01*
X0533874Y0234753D01*
X0534374Y0234412D01*
Y0234000D01*
X0534418Y0233775D01*
X0534364Y0233500D01*
X0534504Y0232798D01*
X0534901Y0232202D01*
X0535497Y0231804D01*
X0536199Y0231665D01*
X0536901Y0231804D01*
X0537497Y0232202D01*
X0537624Y0232392D01*
X0538121Y0232441D01*
X0541453Y0229109D01*
X0541188Y0228667D01*
X0540091Y0229000D01*
X0539699Y0229038D01*
Y0223000D01*
X0545737D01*
X0545699Y0223392D01*
X0545311Y0224670D01*
X0545429Y0224826D01*
X0545705Y0225020D01*
X0546186Y0224924D01*
X0555637D01*
X0555858Y0224476D01*
X0555564Y0224093D01*
X0555146Y0223083D01*
X0555135Y0223000D01*
X0559189D01*
Y0222000D01*
X0560189D01*
Y0217946D01*
X0560272Y0217957D01*
X0561282Y0218375D01*
X0562149Y0219040D01*
X0562814Y0219907D01*
X0562964Y0220268D01*
X0563505D01*
X0563613Y0220008D01*
X0564246Y0219183D01*
X0565071Y0218550D01*
X0566032Y0218152D01*
X0567063Y0218016D01*
X0568094Y0218152D01*
X0569055Y0218550D01*
X0569880Y0219183D01*
X0570513Y0220008D01*
X0570729Y0220530D01*
X0571271D01*
X0571487Y0220008D01*
X0572120Y0219183D01*
X0572945Y0218550D01*
X0573906Y0218152D01*
X0574937Y0218016D01*
X0575968Y0218152D01*
X0576929Y0218550D01*
X0577754Y0219183D01*
X0578387Y0220008D01*
X0578616Y0220561D01*
X0579158D01*
X0579387Y0220008D01*
X0580020Y0219183D01*
X0580845Y0218550D01*
X0581806Y0218152D01*
X0582837Y0218016D01*
X0583868Y0218152D01*
X0584829Y0218550D01*
X0585654Y0219183D01*
X0586287Y0220008D01*
X0586685Y0220969D01*
X0586821Y0222000D01*
X0586685Y0223031D01*
X0586287Y0223992D01*
X0585955Y0224425D01*
X0586202Y0224924D01*
X0601698D01*
X0601944Y0224425D01*
X0601613Y0223992D01*
X0601215Y0223031D01*
X0601079Y0222000D01*
X0601215Y0220969D01*
X0601613Y0220008D01*
X0602246Y0219183D01*
X0603071Y0218550D01*
X0604032Y0218152D01*
X0605063Y0218016D01*
X0606094Y0218152D01*
X0607055Y0218550D01*
X0607880Y0219183D01*
X0608513Y0220008D01*
X0608729Y0220530D01*
X0609271D01*
X0609487Y0220008D01*
X0610120Y0219183D01*
X0610945Y0218550D01*
X0611906Y0218152D01*
X0612937Y0218016D01*
X0613968Y0218152D01*
X0614380Y0218322D01*
X0616819Y0215882D01*
X0617332Y0215540D01*
X0617937Y0215420D01*
X0634937D01*
X0635542Y0215540D01*
X0636055Y0215882D01*
X0638494Y0218322D01*
X0638906Y0218152D01*
X0639937Y0218016D01*
X0640968Y0218152D01*
X0641929Y0218550D01*
X0642754Y0219183D01*
X0643387Y0220008D01*
X0643785Y0220969D01*
X0643921Y0222000D01*
X0643785Y0223031D01*
X0643387Y0223992D01*
X0642754Y0224817D01*
X0641929Y0225450D01*
X0640968Y0225848D01*
X0640528Y0225906D01*
X0632537Y0233897D01*
X0632024Y0234240D01*
X0631420Y0234360D01*
X0631086D01*
Y0237024D01*
X0625549D01*
Y0233653D01*
Y0231094D01*
Y0228535D01*
Y0225976D01*
X0630032D01*
X0630132Y0225476D01*
X0630071Y0225450D01*
X0629246Y0224817D01*
X0628613Y0223992D01*
X0628442Y0223580D01*
X0626157D01*
Y0223883D01*
X0622785D01*
Y0223883D01*
X0622613D01*
Y0223883D01*
X0619242D01*
Y0223580D01*
X0616558D01*
X0616387Y0223992D01*
X0616055Y0224425D01*
X0616302Y0224924D01*
X0616670D01*
X0617177Y0225025D01*
X0617607Y0225313D01*
X0618270Y0225976D01*
X0620850D01*
Y0228335D01*
X0621049D01*
Y0229221D01*
X0620850D01*
Y0229347D01*
X0618081D01*
Y0231094D01*
X0620850D01*
Y0231221D01*
X0621049D01*
Y0232106D01*
X0620850D01*
Y0237024D01*
X0615312D01*
Y0236664D01*
X0610891D01*
X0610700Y0237126D01*
X0611748Y0238175D01*
X0616689D01*
X0617196Y0238275D01*
X0617626Y0238563D01*
X0619491Y0240428D01*
X0620158Y0240152D01*
X0621189Y0240016D01*
X0622220Y0240152D01*
X0623181Y0240550D01*
X0624006Y0241183D01*
X0624639Y0242008D01*
X0624868Y0242561D01*
X0625410D01*
X0625639Y0242008D01*
X0626272Y0241183D01*
X0627097Y0240550D01*
X0628058Y0240152D01*
X0629089Y0240016D01*
X0630120Y0240152D01*
X0631081Y0240550D01*
X0631906Y0241183D01*
X0632539Y0242008D01*
X0632768Y0242561D01*
X0633310D01*
X0633539Y0242008D01*
X0634172Y0241183D01*
X0634997Y0240550D01*
X0635958Y0240152D01*
X0636989Y0240016D01*
X0638020Y0240152D01*
X0638981Y0240550D01*
X0639806Y0241183D01*
X0640439Y0242008D01*
X0640629Y0242467D01*
X0641171D01*
X0641361Y0242008D01*
X0641994Y0241183D01*
X0642819Y0240550D01*
X0643780Y0240152D01*
X0644811Y0240016D01*
X0645842Y0240152D01*
X0646803Y0240550D01*
X0647628Y0241183D01*
X0648261Y0242008D01*
X0648477Y0242530D01*
X0649019D01*
X0649235Y0242008D01*
X0649868Y0241183D01*
X0650693Y0240550D01*
X0651654Y0240152D01*
X0652685Y0240016D01*
X0653716Y0240152D01*
X0654677Y0240550D01*
X0655502Y0241183D01*
X0656135Y0242008D01*
X0656352Y0242530D01*
X0656893D01*
X0657109Y0242008D01*
X0657742Y0241183D01*
X0658567Y0240550D01*
X0659528Y0240152D01*
X0660559Y0240016D01*
X0661590Y0240152D01*
X0662551Y0240550D01*
X0663376Y0241183D01*
X0664009Y0242008D01*
X0664407Y0242969D01*
X0664543Y0244000D01*
X0664407Y0245031D01*
X0664009Y0245992D01*
X0663376Y0246817D01*
X0662551Y0247450D01*
X0661590Y0247848D01*
X0660559Y0247984D01*
X0659528Y0247848D01*
X0658567Y0247450D01*
X0657742Y0246817D01*
X0657109Y0245992D01*
X0656893Y0245470D01*
X0656352D01*
X0656135Y0245992D01*
X0655502Y0246817D01*
X0654677Y0247450D01*
X0653716Y0247848D01*
X0652685Y0247984D01*
X0651654Y0247848D01*
X0650987Y0247572D01*
X0646122Y0252437D01*
X0645692Y0252725D01*
X0645185Y0252825D01*
X0635452D01*
X0630103Y0258175D01*
X0630147Y0258396D01*
X0630294Y0258678D01*
X0630301Y0258684D01*
X0633101D01*
X0633199Y0258665D01*
X0633298Y0258684D01*
X0636101D01*
X0636199Y0258665D01*
X0636298Y0258684D01*
X0639101D01*
X0639199Y0258665D01*
X0639298Y0258684D01*
X0650199D01*
X0650511Y0258746D01*
X0650776Y0258923D01*
X0650776Y0258923D01*
X0658979Y0267126D01*
X0659439Y0266880D01*
X0659364Y0266500D01*
X0659504Y0265798D01*
X0659901Y0265202D01*
X0660497Y0264804D01*
X0661199Y0264665D01*
X0661901Y0264804D01*
X0662361Y0265111D01*
X0662699Y0265168D01*
X0663037Y0265111D01*
X0663497Y0264804D01*
X0664199Y0264665D01*
X0664901Y0264804D01*
X0665361Y0265111D01*
X0665699Y0265168D01*
X0666037Y0265111D01*
X0666497Y0264804D01*
X0667199Y0264665D01*
X0667901Y0264804D01*
X0668497Y0265202D01*
X0668895Y0265798D01*
X0669034Y0266500D01*
X0668895Y0267202D01*
X0668631Y0267598D01*
X0668751Y0268098D01*
X0668751D01*
Y0271902D01*
X0663910D01*
X0663658Y0272221D01*
X0663861Y0272684D01*
X0668199D01*
X0668511Y0272746D01*
X0668776Y0272923D01*
X0668953Y0273188D01*
X0669015Y0273500D01*
Y0275401D01*
X0669034Y0275500D01*
X0669015Y0275599D01*
Y0278401D01*
X0669034Y0278500D01*
X0669015Y0278598D01*
Y0281401D01*
X0669034Y0281500D01*
X0669015Y0281598D01*
Y0284401D01*
X0669034Y0284500D01*
X0669015Y0284598D01*
Y0286500D01*
X0668953Y0286812D01*
X0668776Y0287077D01*
X0668511Y0287254D01*
X0668199Y0287316D01*
X0663508D01*
X0663129Y0287463D01*
X0662978Y0287782D01*
X0662895Y0288202D01*
X0662497Y0288798D01*
X0661901Y0289196D01*
X0661199Y0289335D01*
X0660497Y0289196D01*
X0659901Y0288798D01*
X0659504Y0288202D01*
X0659379Y0287576D01*
X0659123Y0287378D01*
X0658901Y0287266D01*
X0658650Y0287316D01*
X0643199Y0287316D01*
X0642887Y0287254D01*
X0642622Y0287077D01*
X0642446Y0286812D01*
X0642383Y0286500D01*
Y0277838D01*
X0642199Y0277654D01*
Y0277500D01*
X0639199Y0274500D01*
X0639046D01*
X0638861Y0274316D01*
X0636298D01*
X0636199Y0274335D01*
X0636101Y0274316D01*
X0633298D01*
X0633199Y0274335D01*
X0633101Y0274316D01*
X0630298D01*
X0630199Y0274335D01*
X0630101Y0274316D01*
X0629702D01*
X0629518Y0274500D01*
X0629199D01*
Y0274819D01*
X0628525Y0275493D01*
Y0288814D01*
X0629082D01*
X0629116Y0288329D01*
Y0288317D01*
X0629199D01*
Y0291500D01*
X0632199D01*
X0633082Y0292383D01*
Y0295145D01*
X0633083Y0295151D01*
X0633098D01*
Y0295224D01*
X0633182Y0295647D01*
X0633098Y0296070D01*
Y0298798D01*
X0633082D01*
Y0300811D01*
X0633544Y0301002D01*
X0633622Y0300923D01*
X0633887Y0300746D01*
X0634199Y0300684D01*
X0634199Y0300684D01*
X0658199D01*
X0658383Y0300533D01*
Y0300500D01*
X0658446Y0300188D01*
X0658622Y0299923D01*
X0658887Y0299746D01*
X0659199Y0299684D01*
X0669199D01*
X0669511Y0299746D01*
X0669776Y0299923D01*
X0669953Y0300188D01*
X0670015Y0300500D01*
Y0313500D01*
X0669953Y0313812D01*
X0669776Y0314077D01*
X0669511Y0314254D01*
X0669199Y0314316D01*
X0659199D01*
X0658887Y0314254D01*
X0658622Y0314077D01*
X0658446Y0313812D01*
X0658383Y0313500D01*
Y0311598D01*
X0658364Y0311500D01*
X0658383Y0311402D01*
Y0308789D01*
X0658254Y0308457D01*
X0657891Y0308316D01*
X0652537D01*
X0651776Y0309077D01*
X0651511Y0309254D01*
X0651199Y0309316D01*
X0651199Y0309316D01*
X0614199D01*
X0613887Y0309254D01*
X0613622Y0309077D01*
X0613446Y0308812D01*
X0613383Y0308500D01*
X0613383Y0305486D01*
X0613199Y0305335D01*
X0612497Y0305196D01*
X0611901Y0304798D01*
X0611504Y0304202D01*
X0611364Y0303500D01*
X0611504Y0302798D01*
X0611901Y0302202D01*
Y0301798D01*
X0611504Y0301202D01*
X0611364Y0300500D01*
X0611504Y0299798D01*
X0611901Y0299202D01*
Y0298798D01*
X0611504Y0298202D01*
X0611364Y0297500D01*
X0611504Y0296798D01*
X0611901Y0296202D01*
X0612497Y0295804D01*
X0613199Y0295665D01*
X0613901Y0295804D01*
X0614092Y0295932D01*
X0614592Y0295664D01*
Y0294536D01*
X0614482Y0294149D01*
X0614144Y0294054D01*
X0610435D01*
X0610082Y0294407D01*
X0610082Y0294914D01*
Y0297957D01*
X0608916D01*
X0608901Y0297967D01*
X0608199Y0298107D01*
X0607497Y0297967D01*
X0607482Y0297957D01*
X0606316D01*
Y0294914D01*
X0606316Y0294586D01*
X0606316Y0294086D01*
Y0291042D01*
X0610082D01*
Y0291403D01*
X0611551D01*
X0611833Y0291020D01*
Y0289347D01*
X0613719D01*
Y0288347D01*
X0614718D01*
Y0285673D01*
X0615604D01*
Y0289051D01*
X0616066Y0289242D01*
X0617151Y0288158D01*
Y0285873D01*
X0619435D01*
X0621027Y0284281D01*
Y0282186D01*
X0619879D01*
Y0278814D01*
X0624826D01*
Y0282186D01*
X0623678D01*
Y0284830D01*
X0623577Y0285338D01*
X0623290Y0285768D01*
X0620522Y0288535D01*
Y0290820D01*
X0618238D01*
X0615392Y0293666D01*
X0615370Y0293680D01*
X0615522Y0294180D01*
X0616719D01*
X0618337Y0292563D01*
X0618767Y0292275D01*
X0619274Y0292175D01*
X0622943D01*
X0623497Y0291804D01*
X0624199Y0291665D01*
X0624816Y0291788D01*
X0625316Y0291526D01*
Y0288814D01*
X0625874D01*
Y0274944D01*
X0625975Y0274437D01*
X0626262Y0274007D01*
X0628383Y0271885D01*
Y0269599D01*
X0628364Y0269500D01*
X0628383Y0269402D01*
Y0266599D01*
X0628364Y0266500D01*
X0628383Y0266402D01*
Y0263598D01*
X0628364Y0263500D01*
X0628383Y0263402D01*
Y0260601D01*
X0628377Y0260595D01*
X0628095Y0260447D01*
X0627874Y0260404D01*
X0612485Y0275793D01*
X0612676Y0276255D01*
X0614004D01*
X0614415Y0275755D01*
X0614364Y0275500D01*
X0614504Y0274798D01*
X0614901Y0274202D01*
X0615497Y0273804D01*
X0616199Y0273665D01*
X0616901Y0273804D01*
X0617361Y0274111D01*
X0617699Y0274168D01*
X0618037Y0274111D01*
X0618497Y0273804D01*
X0619199Y0273665D01*
X0619901Y0273804D01*
X0620361Y0274111D01*
X0620699Y0274168D01*
X0621037Y0274111D01*
X0621497Y0273804D01*
X0622199Y0273665D01*
X0622901Y0273804D01*
X0623497Y0274202D01*
X0623895Y0274798D01*
X0624034Y0275500D01*
X0623895Y0276202D01*
X0623497Y0276798D01*
X0622901Y0277196D01*
X0622199Y0277335D01*
X0621497Y0277196D01*
X0621037Y0276889D01*
X0620699Y0276832D01*
X0620361Y0276889D01*
X0619901Y0277196D01*
X0619199Y0277335D01*
X0618497Y0277196D01*
X0618037Y0276889D01*
X0617699Y0276832D01*
X0617361Y0276889D01*
X0616901Y0277196D01*
X0616519Y0277272D01*
Y0279627D01*
X0612175D01*
X0612082Y0279720D01*
Y0281173D01*
X0613046D01*
Y0283059D01*
Y0284945D01*
X0612282D01*
Y0285157D01*
X0611199D01*
Y0283272D01*
X0609199D01*
Y0285157D01*
X0609025D01*
Y0285753D01*
X0608924Y0286260D01*
X0608636Y0286690D01*
X0606889Y0288437D01*
X0606459Y0288725D01*
X0605952Y0288825D01*
X0601187D01*
X0600680Y0288725D01*
X0600250Y0288437D01*
X0598394Y0286581D01*
X0596392D01*
X0595888Y0286481D01*
X0595461Y0286195D01*
X0595175Y0285768D01*
X0595075Y0285264D01*
X0595175Y0284760D01*
X0595343Y0284507D01*
X0595316Y0284371D01*
X0595266Y0284295D01*
X0595515D01*
X0595888Y0284046D01*
X0596392Y0283946D01*
X0598911D01*
X0598951Y0283938D01*
Y0282652D01*
X0598911Y0282644D01*
X0596392D01*
X0595888Y0282544D01*
X0595515Y0282295D01*
X0595266D01*
X0595316Y0282220D01*
X0595343Y0282083D01*
X0595175Y0281831D01*
X0595075Y0281327D01*
X0595175Y0280823D01*
X0595231Y0280738D01*
X0595434Y0280343D01*
X0595231Y0279947D01*
X0595175Y0279862D01*
X0595075Y0279358D01*
X0595175Y0278854D01*
X0595231Y0278770D01*
X0595434Y0278374D01*
X0595231Y0277978D01*
X0595175Y0277894D01*
X0595075Y0277390D01*
X0595175Y0276886D01*
X0595231Y0276801D01*
X0595434Y0276406D01*
X0595231Y0276010D01*
X0595175Y0275925D01*
X0595075Y0275421D01*
X0595175Y0274917D01*
X0595231Y0274833D01*
X0595434Y0274437D01*
X0595231Y0274041D01*
X0595175Y0273957D01*
X0595075Y0273453D01*
X0595175Y0272949D01*
X0595231Y0272864D01*
X0595434Y0272468D01*
X0595231Y0272073D01*
X0595175Y0271988D01*
X0595075Y0271484D01*
X0595175Y0270980D01*
X0595231Y0270896D01*
X0595434Y0270500D01*
X0595231Y0270104D01*
X0595175Y0270020D01*
X0595075Y0269516D01*
X0595175Y0269012D01*
X0595231Y0268927D01*
X0595434Y0268531D01*
X0595231Y0268136D01*
X0595175Y0268051D01*
X0595075Y0267547D01*
X0595103Y0267404D01*
X0594712Y0266904D01*
X0594278D01*
X0593771Y0266803D01*
X0593341Y0266516D01*
X0593150Y0266325D01*
X0592497Y0266196D01*
X0591901Y0265798D01*
X0591820Y0265676D01*
X0591320Y0265827D01*
Y0276946D01*
X0591491Y0277202D01*
X0591631Y0277904D01*
X0591491Y0278606D01*
X0591093Y0279202D01*
X0590498Y0279599D01*
X0589795Y0279739D01*
X0589093Y0279599D01*
X0588498Y0279202D01*
X0588209D01*
X0587972Y0279314D01*
X0587401Y0279696D01*
X0586699Y0279835D01*
X0585997Y0279696D01*
X0585401Y0279298D01*
X0584997D01*
X0584746Y0279465D01*
X0584683Y0280109D01*
X0587248Y0282675D01*
X0587443D01*
X0587997Y0282304D01*
X0588699Y0282165D01*
X0589401Y0282304D01*
X0589997Y0282702D01*
X0590395Y0283298D01*
X0590534Y0284000D01*
X0590395Y0284702D01*
X0589997Y0285298D01*
X0589979Y0285310D01*
X0589954Y0285467D01*
X0590020Y0285884D01*
X0590497Y0286202D01*
X0590895Y0286798D01*
X0591034Y0287500D01*
X0590895Y0288202D01*
X0590836Y0288291D01*
X0591178Y0288633D01*
X0591374Y0288532D01*
X0591459Y0288476D01*
X0591963Y0288375D01*
X0592467Y0288476D01*
X0592895Y0288761D01*
X0593180Y0289189D01*
X0593280Y0289693D01*
Y0292212D01*
X0593288Y0292252D01*
Y0305715D01*
X0602148Y0314575D01*
X0610411D01*
X0610602Y0314113D01*
X0606315Y0309825D01*
X0605661Y0309696D01*
X0605066Y0309298D01*
X0604668Y0308702D01*
X0604529Y0308000D01*
X0604668Y0307298D01*
X0605066Y0306702D01*
X0605661Y0306304D01*
X0606364Y0306165D01*
X0607066Y0306304D01*
X0607662Y0306702D01*
X0608059Y0307298D01*
X0608189Y0307951D01*
X0613213Y0312975D01*
X0623474D01*
X0623981Y0313075D01*
X0624411Y0313363D01*
X0625899Y0314851D01*
X0627187Y0313563D01*
X0627618Y0313275D01*
X0628125Y0313175D01*
X0628801D01*
Y0312676D01*
X0631750D01*
Y0312476D01*
X0632774D01*
Y0314500D01*
X0633774D01*
Y0315500D01*
X0635798D01*
Y0315519D01*
X0635839Y0315553D01*
X0636496Y0315684D01*
X0637054Y0316056D01*
X0637427Y0316614D01*
X0637557Y0317272D01*
Y0321799D01*
X0637427Y0322457D01*
X0637164Y0322850D01*
Y0323590D01*
X0638484Y0324911D01*
X0639672D01*
Y0320633D01*
X0644776D01*
Y0331839D01*
X0639672D01*
Y0327562D01*
X0637935D01*
X0637428Y0327461D01*
X0636998Y0327173D01*
X0634901Y0325077D01*
X0634614Y0324647D01*
X0634513Y0324139D01*
Y0323773D01*
X0634279Y0323649D01*
Y0322501D01*
X0634250Y0322457D01*
X0634120Y0321799D01*
Y0319535D01*
X0632279D01*
Y0323399D01*
X0632000Y0323212D01*
X0631720Y0323399D01*
Y0319535D01*
X0629881D01*
Y0321799D01*
X0629750Y0322457D01*
X0629720Y0322501D01*
Y0323399D01*
X0629361Y0323159D01*
X0629299Y0323066D01*
X0628819Y0323387D01*
X0628161Y0323518D01*
X0627725Y0323431D01*
X0627225Y0323756D01*
Y0328651D01*
X0629711Y0331137D01*
X0629921Y0331278D01*
X0631226Y0332582D01*
X0631378Y0332613D01*
X0631609Y0332767D01*
X0632000Y0332955D01*
X0632391Y0332767D01*
X0632622Y0332613D01*
X0633280Y0332482D01*
X0633937Y0332613D01*
X0634168Y0332767D01*
X0634559Y0332955D01*
X0634950Y0332767D01*
X0635181Y0332613D01*
X0635839Y0332482D01*
X0636496Y0332613D01*
X0637054Y0332985D01*
X0637427Y0333543D01*
X0637557Y0334201D01*
Y0335139D01*
X0640164D01*
X0640671Y0335240D01*
X0641101Y0335527D01*
X0643162Y0337588D01*
X0643437Y0338000D01*
X0645883D01*
X0646383Y0337500D01*
D02*
G37*
G36*
X0579199Y0375000D02*
X0594199Y0375000D01*
X0594199Y0375000D01*
X0594692Y0375000D01*
X0595658Y0374808D01*
X0596567Y0374431D01*
X0597386Y0373884D01*
X0598083Y0373187D01*
X0598542Y0372500D01*
X0619912D01*
X0620384Y0372500D01*
X0620446Y0372188D01*
X0620622Y0371923D01*
X0620622Y0371923D01*
X0622622Y0369923D01*
X0622622Y0369923D01*
X0622887Y0369746D01*
X0623199Y0369684D01*
X0623199Y0369684D01*
X0644199D01*
X0644511Y0369746D01*
X0644776Y0369923D01*
X0644776Y0369923D01*
X0646776Y0371923D01*
X0646953Y0372188D01*
X0647015Y0372500D01*
X0647015Y0372500D01*
X0670578D01*
Y0352046D01*
X0670528Y0351567D01*
X0670528D01*
Y0340500D01*
X0644776D01*
Y0351367D01*
X0639672D01*
Y0340500D01*
X0597776D01*
Y0351367D01*
X0592672D01*
Y0340500D01*
X0550776D01*
Y0351367D01*
X0545672D01*
Y0340500D01*
X0528321D01*
Y0362992D01*
Y0363876D01*
Y0371000D01*
X0534248D01*
X0534136Y0371270D01*
X0533597Y0371973D01*
X0533527Y0372026D01*
X0533688Y0372500D01*
X0537762D01*
X0538148Y0372224D01*
X0538148Y0372000D01*
Y0371000D01*
X0546042D01*
X0546250Y0370791D01*
Y0372000D01*
X0546250Y0372224D01*
X0546636Y0372500D01*
X0574856D01*
X0575315Y0373187D01*
X0576012Y0373884D01*
X0576831Y0374431D01*
X0577741Y0374808D01*
X0578707Y0375000D01*
X0579199Y0375000D01*
D02*
G37*
G36*
X0670578Y0404035D02*
Y0373316D01*
X0647015D01*
X0646936Y0373300D01*
X0646856D01*
X0646808Y0373280D01*
X0646757Y0373274D01*
X0646731Y0373259D01*
X0646703Y0373254D01*
X0646636Y0373209D01*
X0646562Y0373178D01*
X0646525Y0373142D01*
X0646480Y0373116D01*
X0646462Y0373093D01*
X0646438Y0373077D01*
X0646393Y0373010D01*
X0646337Y0372953D01*
X0646317Y0372905D01*
X0646285Y0372865D01*
X0646278Y0372836D01*
X0646261Y0372812D01*
X0646246Y0372733D01*
X0646215Y0372659D01*
X0646199Y0372580D01*
Y0372500D01*
X0646142Y0372443D01*
X0646142Y0372443D01*
X0645199Y0371500D01*
D01*
X0644199Y0370500D01*
X0623199D01*
X0621199Y0372500D01*
Y0372580D01*
X0621183Y0372659D01*
X0621153Y0372733D01*
X0621137Y0372812D01*
X0621093Y0372879D01*
X0621062Y0372953D01*
X0621005Y0373010D01*
X0620960Y0373077D01*
X0620893Y0373121D01*
X0620837Y0373178D01*
X0620762Y0373209D01*
X0620696Y0373253D01*
X0620617Y0373269D01*
X0620543Y0373300D01*
X0620462D01*
X0620384Y0373316D01*
X0619913Y0373316D01*
X0619913Y0373316D01*
X0619912Y0373316D01*
X0598778D01*
X0598623Y0373548D01*
X0598568Y0373585D01*
X0598542Y0373647D01*
X0597846Y0374343D01*
X0597784Y0374368D01*
X0597747Y0374424D01*
X0596928Y0374971D01*
X0596863Y0374984D01*
X0596816Y0375031D01*
X0595906Y0375408D01*
X0595840D01*
X0595784Y0375445D01*
X0594818Y0375637D01*
X0594753Y0375624D01*
X0594692Y0375649D01*
X0594199Y0375649D01*
X0594199Y0375649D01*
X0579199Y0375649D01*
X0578707Y0375649D01*
X0578645Y0375624D01*
X0578580Y0375637D01*
X0577614Y0375445D01*
X0577559Y0375408D01*
X0577492D01*
X0576582Y0375031D01*
X0576535Y0374984D01*
X0576470Y0374971D01*
X0575651Y0374424D01*
X0575614Y0374369D01*
X0575553Y0374343D01*
X0574856Y0373647D01*
X0574831Y0373585D01*
X0574775Y0373548D01*
X0574620Y0373316D01*
X0546636D01*
X0546355Y0373564D01*
X0546297Y0373645D01*
X0546250Y0373750D01*
Y0374000D01*
X0538148D01*
Y0373750D01*
X0538101Y0373645D01*
X0538043Y0373564D01*
X0537762Y0373316D01*
X0533688D01*
X0533661Y0373310D01*
X0533634Y0373314D01*
X0533506Y0373280D01*
X0533376Y0373254D01*
X0533353Y0373238D01*
X0533327Y0373232D01*
X0533221Y0373151D01*
X0533111Y0373077D01*
X0533096Y0373054D01*
X0533074Y0373038D01*
X0533008Y0372923D01*
X0532934Y0372812D01*
X0532929Y0372786D01*
X0532915Y0372762D01*
X0532870Y0372630D01*
X0532304Y0372338D01*
X0532257Y0372343D01*
X0531972Y0372461D01*
X0531199Y0372563D01*
X0530426Y0372461D01*
X0529705Y0372162D01*
X0529086Y0371688D01*
X0529057Y0371649D01*
X0528321D01*
Y0393403D01*
X0528321D01*
Y0401652D01*
X0528321Y0401652D01*
Y0404035D01*
X0536164Y0411878D01*
X0662735D01*
X0670578Y0404035D01*
D02*
G37*
G36*
X0611376Y0233059D02*
X0611364Y0233000D01*
X0611376Y0232942D01*
Y0231949D01*
X0611175D01*
Y0230925D01*
X0613199D01*
Y0228925D01*
X0611175D01*
Y0227902D01*
X0610811Y0227575D01*
X0604302D01*
X0604111Y0228037D01*
X0610087Y0234013D01*
X0611376D01*
Y0233059D01*
D02*
G37*
G36*
X0584702Y0241671D02*
X0590653D01*
X0591274Y0241051D01*
Y0237837D01*
X0591374Y0237330D01*
X0591662Y0236900D01*
X0594699Y0233863D01*
X0595129Y0233575D01*
X0595636Y0233474D01*
X0605146D01*
X0605337Y0233013D01*
X0601500Y0229175D01*
X0574859D01*
X0574668Y0229637D01*
X0575148Y0230117D01*
X0576842D01*
Y0230117D01*
X0577013D01*
Y0230117D01*
X0580385D01*
Y0231283D01*
X0580395Y0231298D01*
X0580534Y0232000D01*
X0580395Y0232702D01*
X0580385Y0232717D01*
Y0233883D01*
X0578610D01*
X0578418Y0234345D01*
X0579121Y0235047D01*
X0579408Y0235477D01*
X0579509Y0235984D01*
Y0238713D01*
X0580325D01*
Y0240500D01*
X0581325D01*
Y0241500D01*
X0584207D01*
X0584498Y0241712D01*
X0584702Y0241671D01*
D02*
G37*
%LPC*%
G36*
X0568849Y0309250D02*
X0565699D01*
Y0306500D01*
X0568849D01*
Y0309250D01*
D02*
G37*
G36*
X0609797Y0257524D02*
X0608774D01*
Y0256500D01*
X0609797D01*
Y0257524D01*
D02*
G37*
G36*
Y0254500D02*
X0608774D01*
Y0253476D01*
X0609797D01*
Y0254500D01*
D02*
G37*
G36*
X0609598Y0267024D02*
X0608575D01*
Y0266000D01*
X0609598D01*
Y0267024D01*
D02*
G37*
G36*
Y0264000D02*
X0608575D01*
Y0262976D01*
X0609598D01*
Y0264000D01*
D02*
G37*
G36*
X0545737Y0221000D02*
X0539699D01*
Y0214962D01*
X0540091Y0215000D01*
X0541430Y0215406D01*
X0542664Y0216066D01*
X0543746Y0216954D01*
X0544633Y0218035D01*
X0545293Y0219269D01*
X0545699Y0220608D01*
X0545737Y0221000D01*
D02*
G37*
G36*
X0537699D02*
X0531661D01*
X0531700Y0220608D01*
X0532106Y0219269D01*
X0532765Y0218035D01*
X0533653Y0216954D01*
X0534734Y0216066D01*
X0535968Y0215406D01*
X0537307Y0215000D01*
X0537699Y0214962D01*
Y0221000D01*
D02*
G37*
G36*
X0659199D02*
X0653161D01*
X0653199Y0220608D01*
X0653606Y0219269D01*
X0654265Y0218035D01*
X0655153Y0216954D01*
X0656234Y0216066D01*
X0657468Y0215406D01*
X0658807Y0215000D01*
X0659199Y0214962D01*
Y0221000D01*
D02*
G37*
G36*
Y0229038D02*
X0658807Y0229000D01*
X0657468Y0228593D01*
X0656234Y0227934D01*
X0655153Y0227046D01*
X0654265Y0225965D01*
X0653606Y0224731D01*
X0653199Y0223392D01*
X0653161Y0223000D01*
X0659199D01*
Y0229038D01*
D02*
G37*
G36*
X0661199D02*
Y0223000D01*
X0667237D01*
X0667199Y0223392D01*
X0666793Y0224731D01*
X0666133Y0225965D01*
X0665246Y0227046D01*
X0664164Y0227934D01*
X0662930Y0228593D01*
X0661591Y0229000D01*
X0661199Y0229038D01*
D02*
G37*
G36*
X0667237Y0221000D02*
X0661199D01*
Y0214962D01*
X0661591Y0215000D01*
X0662930Y0215406D01*
X0664164Y0216066D01*
X0665246Y0216954D01*
X0666133Y0218035D01*
X0666793Y0219269D01*
X0667199Y0220608D01*
X0667237Y0221000D01*
D02*
G37*
G36*
X0558189D02*
X0555135D01*
X0555146Y0220917D01*
X0555564Y0219907D01*
X0556229Y0219040D01*
X0557096Y0218375D01*
X0558106Y0217957D01*
X0558189Y0217946D01*
Y0221000D01*
D02*
G37*
G36*
X0537699Y0229038D02*
X0537307Y0229000D01*
X0535968Y0228593D01*
X0534734Y0227934D01*
X0533653Y0227046D01*
X0532765Y0225965D01*
X0532106Y0224731D01*
X0531700Y0223392D01*
X0531661Y0223000D01*
X0537699D01*
Y0229038D01*
D02*
G37*
G36*
X0616719Y0282059D02*
X0615046D01*
Y0281173D01*
X0616719D01*
Y0282059D01*
D02*
G37*
G36*
X0669939Y0290500D02*
X0666199D01*
Y0290244D01*
X0669939D01*
Y0290500D01*
D02*
G37*
G36*
X0554049Y0291500D02*
X0553026D01*
Y0290476D01*
X0554049D01*
Y0291500D01*
D02*
G37*
G36*
X0664199Y0290500D02*
X0661199D01*
X0660943Y0290244D01*
X0664199D01*
Y0290500D01*
D02*
G37*
G36*
X0616719Y0284945D02*
X0615046D01*
Y0284059D01*
X0616719D01*
Y0284945D01*
D02*
G37*
G36*
X0612718Y0287347D02*
X0611833D01*
Y0285673D01*
X0612718D01*
Y0287347D01*
D02*
G37*
G36*
X0635798Y0313500D02*
X0634774D01*
Y0312476D01*
X0635798D01*
Y0313500D01*
D02*
G37*
G36*
X0554049Y0294524D02*
X0553026D01*
Y0293500D01*
X0554049D01*
Y0294524D01*
D02*
G37*
G36*
X0546699Y0302425D02*
X0545676D01*
Y0301402D01*
X0546699D01*
Y0302425D01*
D02*
G37*
G36*
X0589199Y0353835D02*
X0588497Y0353696D01*
X0587901Y0353298D01*
X0587504Y0352702D01*
X0587364Y0352000D01*
X0587504Y0351298D01*
X0587870Y0350750D01*
X0587504Y0350202D01*
X0587364Y0349500D01*
X0587504Y0348798D01*
X0587901Y0348202D01*
X0588497Y0347804D01*
X0589199Y0347665D01*
X0589901Y0347804D01*
X0590497Y0348202D01*
X0590895Y0348798D01*
X0591034Y0349500D01*
X0590895Y0350202D01*
X0590529Y0350750D01*
X0590895Y0351298D01*
X0591034Y0352000D01*
X0590895Y0352702D01*
X0590497Y0353298D01*
X0589901Y0353696D01*
X0589199Y0353835D01*
D02*
G37*
G36*
X0636199D02*
X0635497Y0353696D01*
X0634901Y0353298D01*
X0634504Y0352702D01*
X0634364Y0352000D01*
X0634504Y0351298D01*
X0634869Y0350750D01*
X0634504Y0350202D01*
X0634364Y0349500D01*
X0634504Y0348798D01*
X0634901Y0348202D01*
X0635497Y0347804D01*
X0636199Y0347665D01*
X0636901Y0347804D01*
X0637497Y0348202D01*
X0637895Y0348798D01*
X0638034Y0349500D01*
X0637895Y0350202D01*
X0637529Y0350750D01*
X0637895Y0351298D01*
X0638034Y0352000D01*
X0637895Y0352702D01*
X0637497Y0353298D01*
X0636901Y0353696D01*
X0636199Y0353835D01*
D02*
G37*
G36*
X0542199D02*
X0541497Y0353696D01*
X0540901Y0353298D01*
X0540504Y0352702D01*
X0540364Y0352000D01*
X0540504Y0351298D01*
X0540870Y0350750D01*
X0540504Y0350202D01*
X0540364Y0349500D01*
X0540504Y0348798D01*
X0540901Y0348202D01*
X0541497Y0347804D01*
X0542199Y0347665D01*
X0542901Y0347804D01*
X0543497Y0348202D01*
X0543895Y0348798D01*
X0544034Y0349500D01*
X0543895Y0350202D01*
X0543529Y0350750D01*
X0543895Y0351298D01*
X0544034Y0352000D01*
X0543895Y0352702D01*
X0543497Y0353298D01*
X0542901Y0353696D01*
X0542199Y0353835D01*
D02*
G37*
G36*
X0625699Y0409735D02*
X0624385Y0409605D01*
X0623122Y0409222D01*
X0621957Y0408600D01*
X0620937Y0407762D01*
X0620099Y0406742D01*
X0619477Y0405577D01*
X0619094Y0404314D01*
X0618964Y0403000D01*
X0619094Y0401686D01*
X0619477Y0400423D01*
X0620099Y0399258D01*
X0620937Y0398238D01*
X0621957Y0397400D01*
X0623122Y0396778D01*
X0624385Y0396395D01*
X0625699Y0396265D01*
X0627013Y0396395D01*
X0628276Y0396778D01*
X0629441Y0397400D01*
X0630461Y0398238D01*
X0631299Y0399258D01*
X0631921Y0400423D01*
X0632304Y0401686D01*
X0632434Y0403000D01*
X0632304Y0404314D01*
X0631921Y0405577D01*
X0631299Y0406742D01*
X0630461Y0407762D01*
X0629441Y0408600D01*
X0628276Y0409222D01*
X0627013Y0409605D01*
X0625699Y0409735D01*
D02*
G37*
G36*
X0541699Y0409631D02*
X0541075Y0409507D01*
X0541066Y0409502D01*
X0539371D01*
Y0403498D01*
X0541066D01*
X0541075Y0403493D01*
X0541699Y0403369D01*
X0542323Y0403493D01*
X0542332Y0403498D01*
X0544153D01*
Y0409502D01*
X0542332D01*
X0542323Y0409507D01*
X0541699Y0409631D01*
D02*
G37*
G36*
X0578699Y0409735D02*
X0577385Y0409605D01*
X0576122Y0409222D01*
X0574958Y0408600D01*
X0573937Y0407762D01*
X0573099Y0406742D01*
X0572477Y0405577D01*
X0572094Y0404314D01*
X0571964Y0403000D01*
X0572094Y0401686D01*
X0572477Y0400423D01*
X0573099Y0399258D01*
X0573937Y0398238D01*
X0574958Y0397400D01*
X0576122Y0396778D01*
X0577385Y0396395D01*
X0578699Y0396265D01*
X0580013Y0396395D01*
X0581276Y0396778D01*
X0582441Y0397400D01*
X0583461Y0398238D01*
X0584299Y0399258D01*
X0584921Y0400423D01*
X0585304Y0401686D01*
X0585434Y0403000D01*
X0585304Y0404314D01*
X0584921Y0405577D01*
X0584299Y0406742D01*
X0583461Y0407762D01*
X0582441Y0408600D01*
X0581276Y0409222D01*
X0580013Y0409605D01*
X0578699Y0409735D01*
D02*
G37*
G36*
X0635699Y0409631D02*
X0635075Y0409507D01*
X0635066Y0409502D01*
X0633371D01*
Y0403498D01*
X0635066D01*
X0635075Y0403493D01*
X0635699Y0403369D01*
X0636323Y0403493D01*
X0636332Y0403498D01*
X0638153D01*
Y0409502D01*
X0636332D01*
X0636323Y0409507D01*
X0635699Y0409631D01*
D02*
G37*
G36*
X0648573D02*
X0647949Y0409507D01*
X0647940Y0409502D01*
X0646245D01*
Y0403498D01*
X0647940D01*
X0647949Y0403493D01*
X0648573Y0403369D01*
X0649197Y0403493D01*
X0649206Y0403498D01*
X0651027D01*
Y0409502D01*
X0649206D01*
X0649197Y0409507D01*
X0648573Y0409631D01*
D02*
G37*
G36*
X0601573D02*
X0600949Y0409507D01*
X0600941Y0409502D01*
X0599245D01*
Y0403498D01*
X0600941D01*
X0600949Y0403493D01*
X0601573Y0403369D01*
X0602197Y0403493D01*
X0602206Y0403498D01*
X0604028D01*
Y0409502D01*
X0602206D01*
X0602197Y0409507D01*
X0601573Y0409631D01*
D02*
G37*
G36*
X0554573D02*
X0553949Y0409507D01*
X0553940Y0409502D01*
X0552245D01*
Y0403498D01*
X0553940D01*
X0553949Y0403493D01*
X0554573Y0403369D01*
X0555197Y0403493D01*
X0555206Y0403498D01*
X0557027D01*
Y0409502D01*
X0555206D01*
X0555197Y0409507D01*
X0554573Y0409631D01*
D02*
G37*
G36*
X0588699D02*
X0588075Y0409507D01*
X0588066Y0409502D01*
X0586371D01*
Y0403498D01*
X0588066D01*
X0588075Y0403493D01*
X0588699Y0403369D01*
X0589323Y0403493D01*
X0589332Y0403498D01*
X0591153D01*
Y0409502D01*
X0589332D01*
X0589323Y0409507D01*
X0588699Y0409631D01*
D02*
G37*
G36*
X0583998Y0239500D02*
X0582325D01*
Y0238713D01*
X0583998D01*
Y0239500D01*
D02*
G37*
%LPD*%
D12*
X0585699Y0300650D02*
D03*
Y0297500D02*
D03*
X0575699Y0300575D02*
D03*
Y0297425D02*
D03*
X0604000Y0258425D02*
D03*
Y0261575D02*
D03*
X0547699Y0303425D02*
D03*
Y0306575D02*
D03*
X0575699Y0306575D02*
D03*
Y0303425D02*
D03*
X0550199Y0286650D02*
D03*
Y0283500D02*
D03*
X0605199Y0281500D02*
D03*
Y0284650D02*
D03*
X0613199Y0229925D02*
D03*
Y0233075D02*
D03*
X0627699Y0303549D02*
D03*
Y0300400D02*
D03*
D13*
X0633774Y0314500D02*
D03*
X0630624D02*
D03*
X0586774D02*
D03*
X0583624D02*
D03*
X0564624Y0244000D02*
D03*
X0567774D02*
D03*
X0539774Y0314500D02*
D03*
X0536624D02*
D03*
X0558199Y0292500D02*
D03*
X0555050D02*
D03*
X0563124Y0240500D02*
D03*
X0566274D02*
D03*
X0604624Y0255500D02*
D03*
X0607774D02*
D03*
X0607575Y0265000D02*
D03*
X0604425D02*
D03*
X0628124Y0296974D02*
D03*
X0631274D02*
D03*
D26*
X0578699Y0232000D02*
D03*
X0575156D02*
D03*
X0570742D02*
D03*
X0567199D02*
D03*
X0624471Y0222000D02*
D03*
X0620927D02*
D03*
D27*
X0543699Y0290272D02*
D03*
Y0286728D02*
D03*
Y0253728D02*
D03*
Y0257272D02*
D03*
X0535699Y0253728D02*
D03*
Y0257272D02*
D03*
X0627199Y0294043D02*
D03*
Y0290500D02*
D03*
X0631199Y0303746D02*
D03*
Y0300203D02*
D03*
Y0293746D02*
D03*
Y0290203D02*
D03*
X0608199Y0292728D02*
D03*
Y0296272D02*
D03*
X0610199Y0283272D02*
D03*
Y0279728D02*
D03*
D40*
X0535699Y0259048D02*
X0538385Y0261734D01*
X0535699Y0257272D02*
Y0259048D01*
Y0257043D02*
Y0257272D01*
X0543699Y0282601D02*
X0544094Y0282206D01*
X0543699Y0282601D02*
Y0286728D01*
X0538345Y0284146D02*
X0540699Y0286500D01*
X0538345Y0282236D02*
Y0284146D01*
X0540599Y0254900D02*
X0541771Y0253728D01*
X0543699D01*
X0544094Y0257666D02*
Y0261734D01*
X0543699Y0257272D02*
X0544094Y0257666D01*
X0535699Y0234000D02*
Y0253728D01*
Y0234000D02*
X0536199Y0233500D01*
X0543099Y0236630D02*
Y0244875D01*
X0541499Y0235967D02*
Y0245537D01*
X0539899Y0234800D02*
Y0246200D01*
X0541499Y0245537D02*
X0549436Y0253474D01*
X0543099Y0244875D02*
X0551036Y0252812D01*
Y0271884D01*
X0549436Y0253474D02*
Y0272737D01*
X0539899Y0246200D02*
X0547836Y0254137D01*
Y0275709D01*
X0546670Y0286576D02*
X0549746Y0283500D01*
X0549549Y0286650D02*
X0550199D01*
X0546699Y0289500D02*
X0549549Y0286650D01*
X0546653Y0286576D02*
X0546670D01*
X0546653D02*
X0546699Y0286621D01*
X0541199Y0264877D02*
X0546236Y0269914D01*
X0541199Y0258500D02*
Y0264877D01*
X0538299Y0255600D02*
X0541199Y0258500D01*
X0538299Y0234137D02*
Y0255600D01*
X0554443Y0309356D02*
Y0310575D01*
X0576199Y0292268D02*
Y0297500D01*
X0534599Y0312100D02*
X0541799D01*
X0532199Y0314500D02*
X0534599Y0312100D01*
X0533936Y0310500D02*
X0542462D01*
X0530199Y0314237D02*
X0533936Y0310500D01*
X0636989Y0244000D02*
Y0244889D01*
X0606457Y0275421D02*
X0636989Y0244889D01*
X0629089Y0244000D02*
Y0250526D01*
X0606162Y0273453D02*
X0629089Y0250526D01*
X0606751Y0277390D02*
X0634241Y0249900D01*
X0634903Y0251500D02*
X0645185D01*
X0607045Y0279358D02*
X0634903Y0251500D01*
X0583699Y0278000D02*
X0586057Y0275642D01*
X0588026Y0248748D02*
Y0276673D01*
X0586699Y0278000D02*
X0588026Y0276673D01*
X0589994Y0248748D02*
Y0277705D01*
X0589795Y0277904D02*
X0589994Y0277705D01*
X0574246Y0248748D02*
Y0274547D01*
X0583699Y0284000D01*
X0572278Y0248748D02*
Y0277579D01*
X0578699Y0284000D01*
X0576215Y0248748D02*
Y0256336D01*
X0586057Y0248748D02*
Y0275642D01*
X0567699Y0262000D02*
X0570309Y0259390D01*
Y0248748D02*
Y0259390D01*
X0565099Y0261630D02*
X0568341Y0258388D01*
Y0248748D02*
Y0258388D01*
X0582120Y0245579D02*
X0584702Y0242997D01*
X0560199Y0262900D02*
Y0267606D01*
X0576215Y0288984D02*
X0579007Y0286192D01*
X0594278Y0265579D02*
X0598951D01*
X0585365Y0244597D02*
X0591865D01*
X0570199Y0287500D02*
X0570800Y0288101D01*
X0572937D01*
X0574246Y0289410D01*
Y0292252D01*
X0543935Y0326236D02*
X0548224D01*
X0608199Y0292728D02*
X0614455D01*
X0618837Y0288347D01*
X0622353Y0280500D02*
Y0284830D01*
X0618837Y0288347D02*
X0622353Y0284830D01*
X0611986Y0277941D02*
X0614046D01*
X0610199Y0279728D02*
X0611986Y0277941D01*
X0572278Y0292252D02*
Y0296421D01*
X0568899Y0299800D02*
X0572278Y0296421D01*
X0568899Y0299800D02*
X0569849Y0300750D01*
X0570099Y0301000D02*
X0572524Y0303425D01*
X0575699D01*
X0569849Y0310250D02*
X0572024D01*
X0550374Y0300750D02*
X0553549D01*
X0547699Y0303425D02*
X0550374Y0300750D01*
X0551374Y0310250D02*
X0553549D01*
X0547699Y0306575D02*
X0551374Y0310250D01*
X0555050Y0289650D02*
X0555199Y0289500D01*
X0555050Y0289650D02*
Y0292500D01*
X0562187D02*
X0562435Y0292252D01*
X0558199Y0292500D02*
X0562187D01*
X0560699Y0279000D02*
Y0283500D01*
X0559089Y0277390D02*
X0560699Y0279000D01*
X0555447Y0277390D02*
X0559089D01*
X0549746Y0283500D02*
X0550199D01*
X0550404Y0283295D01*
X0555447D01*
X0552038Y0285264D02*
X0555447D01*
X0550652Y0286650D02*
X0552038Y0285264D01*
X0550199Y0286650D02*
X0550652D01*
X0578183Y0235984D02*
Y0248748D01*
X0576382Y0234183D02*
X0578183Y0235984D01*
X0552382Y0234183D02*
X0576382D01*
X0584089Y0245873D02*
Y0248748D01*
Y0245873D02*
X0585365Y0244597D01*
X0584702Y0242997D02*
X0591202D01*
X0582120Y0245579D02*
Y0248748D01*
X0587892Y0286192D02*
X0589199Y0287500D01*
X0579007Y0286192D02*
X0587892D01*
X0584089Y0288610D02*
X0584407Y0288293D01*
X0584292Y0288500D02*
X0584499Y0288293D01*
X0584407D02*
X0584499D01*
X0584089Y0288610D02*
Y0292252D01*
X0586699Y0284000D02*
X0588699D01*
X0585199Y0297500D02*
X0585699D01*
X0586057Y0297142D01*
Y0292252D02*
Y0297142D01*
X0603847Y0265579D02*
X0604425Y0265000D01*
X0598951Y0265579D02*
X0603847D01*
X0586774Y0314500D02*
X0587774Y0313500D01*
X0589971D01*
X0586699Y0310500D02*
X0589199D01*
X0583624Y0313575D02*
X0586699Y0310500D01*
X0583624Y0313575D02*
Y0314500D01*
X0633280Y0314994D02*
X0633774Y0314500D01*
X0633280Y0314994D02*
Y0319535D01*
X0630721D02*
X0633280D01*
X0586279Y0314994D02*
X0586774Y0314500D01*
X0586279Y0314994D02*
Y0319535D01*
X0583720D02*
X0586279D01*
X0539280Y0314994D02*
Y0319535D01*
Y0314994D02*
X0539774Y0314500D01*
X0536721Y0319535D02*
X0539280D01*
X0635839Y0336465D02*
X0640164D01*
X0642224Y0338525D01*
Y0345764D01*
X0635839Y0319535D02*
Y0324139D01*
X0637935Y0326236D01*
X0642224D01*
X0588839Y0336465D02*
X0593164D01*
X0595224Y0338525D02*
Y0345764D01*
X0588839Y0319535D02*
Y0324139D01*
X0590935Y0326236D01*
X0595224D01*
X0541839Y0324139D02*
X0543935Y0326236D01*
X0541839Y0319535D02*
Y0324139D01*
X0548224Y0338525D02*
Y0345764D01*
X0546164Y0336465D02*
X0548224Y0338525D01*
X0541839Y0336465D02*
X0546164D01*
X0588026Y0292252D02*
Y0306462D01*
X0579176Y0315312D02*
X0588026Y0306462D01*
X0576928Y0315297D02*
Y0318728D01*
X0580152Y0292252D02*
Y0309810D01*
X0578183Y0292252D02*
Y0309516D01*
X0579176Y0315312D02*
Y0332476D01*
X0536721Y0332554D02*
X0538224Y0331050D01*
Y0331475D01*
X0536721Y0332554D02*
Y0336465D01*
X0583720Y0332554D02*
X0585224Y0331050D01*
Y0331475D01*
X0583720Y0332554D02*
Y0336465D01*
X0604388Y0255736D02*
X0604624Y0255500D01*
X0598951Y0255736D02*
X0604388D01*
X0598951Y0263610D02*
X0601965D01*
X0604000Y0261575D01*
X0603279Y0257705D02*
X0604000Y0258425D01*
X0598951Y0257705D02*
X0603279D01*
X0607699Y0282228D02*
X0610199Y0279728D01*
X0607699Y0282228D02*
Y0285753D01*
X0602494Y0283295D02*
X0603849Y0284650D01*
X0598951Y0283295D02*
X0602494D01*
X0603849Y0284650D02*
X0605199D01*
X0598951Y0281327D02*
X0605026D01*
X0605199Y0281500D01*
X0605952Y0287500D02*
X0607699Y0285753D01*
X0601187Y0287500D02*
X0605952D01*
X0598951Y0285264D02*
X0601187Y0287500D01*
X0564404Y0244220D02*
Y0248748D01*
Y0244220D02*
X0564624Y0244000D01*
X0562435Y0241189D02*
Y0248748D01*
Y0241189D02*
X0563124Y0240500D01*
X0575199Y0244000D02*
X0575699Y0243500D01*
X0567774Y0244000D02*
X0575199D01*
X0566748Y0242974D02*
X0567774Y0244000D01*
X0566748Y0240974D02*
Y0242974D01*
X0566274Y0240500D02*
X0566748Y0240974D01*
X0562999Y0263777D02*
Y0267069D01*
X0555447Y0271484D02*
X0558583D01*
X0558289Y0269516D02*
X0560199Y0267606D01*
X0555447Y0269516D02*
X0558289D01*
X0558583Y0271484D02*
X0562999Y0267069D01*
X0546236Y0276372D02*
X0551191Y0281327D01*
X0547836Y0275709D02*
X0551485Y0279358D01*
X0546236Y0269914D02*
Y0276372D01*
X0552120Y0275421D02*
X0555447D01*
X0549436Y0272737D02*
X0552120Y0275421D01*
X0552605Y0273453D02*
X0555447D01*
X0551036Y0271884D02*
X0552605Y0273453D01*
X0560199Y0262900D02*
X0560999Y0262100D01*
X0565099Y0261630D02*
Y0262000D01*
X0551485Y0279358D02*
X0555447D01*
X0551699Y0233500D02*
X0552382Y0234183D01*
X0548679Y0231050D02*
X0566249D01*
X0567199Y0232000D01*
X0548017Y0229450D02*
X0572606D01*
X0546186Y0226250D02*
X0616670D01*
X0551191Y0281327D02*
X0555447D01*
X0572606Y0229450D02*
X0575156Y0232000D01*
X0554443Y0309356D02*
X0558199Y0305600D01*
Y0300500D02*
Y0305600D01*
Y0300500D02*
X0561799Y0296900D01*
X0592599Y0237837D02*
X0595636Y0234800D01*
X0594199Y0238500D02*
X0596299Y0236400D01*
X0592599Y0237837D02*
Y0241600D01*
X0594199Y0238500D02*
Y0242263D01*
X0591202Y0242997D02*
X0592599Y0241600D01*
X0616689Y0239500D02*
X0621189Y0244000D01*
X0591865Y0244597D02*
X0594199Y0242263D01*
X0593199Y0264500D02*
X0594278Y0265579D01*
X0570309Y0292252D02*
Y0295390D01*
X0568799Y0296900D02*
X0570309Y0295390D01*
X0561799Y0296900D02*
X0568799D01*
X0576199Y0292268D02*
X0576215Y0292252D01*
Y0288984D02*
Y0292252D01*
X0631274Y0294594D02*
Y0296974D01*
X0631199Y0293746D02*
Y0294594D01*
X0623474Y0314300D02*
X0625899Y0316726D01*
X0628125Y0314500D01*
X0630624D01*
X0645185Y0251500D02*
X0652685Y0244000D01*
X0640099Y0249900D02*
X0644811Y0245188D01*
Y0244000D02*
Y0245188D01*
X0630721Y0333951D02*
Y0336465D01*
X0628984Y0332215D02*
X0630721Y0333951D01*
X0628914Y0332215D02*
X0628984D01*
X0625899Y0329200D02*
X0628914Y0332215D01*
X0625899Y0316967D02*
Y0329200D01*
X0536721Y0336465D02*
X0539280D01*
X0583720D02*
X0586279D01*
X0630721D02*
X0633280D01*
X0624299Y0330600D02*
X0628161Y0334462D01*
X0622569Y0315900D02*
X0624299Y0317630D01*
Y0330600D01*
X0621199Y0317500D02*
X0622199Y0318500D01*
X0576016Y0297317D02*
X0576199Y0297500D01*
X0628161Y0334462D02*
Y0336465D01*
X0581161Y0334462D02*
Y0336465D01*
X0579176Y0332476D02*
X0581161Y0334462D01*
X0534161Y0334492D02*
Y0336465D01*
X0532176Y0332507D02*
X0534161Y0334492D01*
X0530199Y0314237D02*
Y0333500D01*
X0532199Y0314500D02*
Y0316402D01*
X0532211Y0316414D01*
Y0316414D01*
X0532176Y0316449D02*
X0532211Y0316414D01*
X0532176Y0316449D02*
Y0332507D01*
X0631199Y0296974D02*
Y0300203D01*
X0661199Y0272650D02*
Y0287500D01*
X0629643Y0272500D02*
X0630199D01*
X0627199Y0274944D02*
X0629643Y0272500D01*
X0627199Y0274944D02*
Y0290500D01*
X0661199Y0272650D02*
X0663849Y0270000D01*
X0665601D01*
X0613199Y0233000D02*
X0613420Y0232780D01*
X0618081D01*
X0613420Y0230221D02*
X0618081D01*
X0613199Y0230000D02*
X0613420Y0230221D01*
X0616670Y0226250D02*
X0618081Y0227661D01*
X0611199Y0239500D02*
X0616689D01*
X0596299Y0236400D02*
X0605715D01*
X0613315Y0244000D01*
X0595636Y0234800D02*
X0606499D01*
X0611199Y0239500D01*
X0546849Y0227850D02*
X0602049D01*
X0609538Y0235339D01*
X0618081D01*
X0591963Y0292252D02*
Y0306264D01*
X0601599Y0315900D01*
X0622569D01*
X0589994Y0306558D02*
X0600936Y0317500D01*
X0589994Y0292252D02*
Y0306558D01*
X0600936Y0317500D02*
X0621199D01*
X0598951Y0273453D02*
X0606162D01*
X0598951Y0279358D02*
X0607045D01*
X0598951Y0277390D02*
X0606751D01*
X0598951Y0275421D02*
X0606457D01*
X0634241Y0249900D02*
X0640099D01*
X0543099Y0236630D02*
X0548679Y0231050D01*
X0541499Y0235967D02*
X0548017Y0229450D01*
X0539899Y0234800D02*
X0546849Y0227850D01*
X0538299Y0234137D02*
X0546186Y0226250D01*
X0536199Y0233500D02*
X0536299Y0233600D01*
X0593164Y0336465D02*
X0595224Y0338525D01*
X0627199Y0294043D02*
X0628124Y0294969D01*
Y0296974D01*
X0627699Y0300400D02*
X0628124Y0299974D01*
Y0296974D02*
Y0299974D01*
X0576215Y0256336D02*
X0578599Y0258720D01*
Y0275900D01*
X0586699Y0284000D01*
X0582120Y0292252D02*
Y0310104D01*
X0576928Y0315297D02*
X0582120Y0310104D01*
X0541799Y0312100D02*
X0545699Y0316000D01*
X0573962D01*
X0580152Y0309810D01*
X0542462Y0310500D02*
X0546362Y0314400D01*
X0573299D01*
X0578183Y0309516D01*
X0616199Y0296575D02*
X0616278Y0296654D01*
X0616199Y0296575D02*
X0619274Y0293500D01*
X0624199D01*
X0606364Y0308000D02*
X0612664Y0314300D01*
X0623474D01*
X0585047Y0300075D02*
X0585500D01*
X0572024Y0310250D02*
X0575699Y0306575D01*
X0585199Y0300500D02*
Y0300898D01*
D41*
X0612937Y0222000D02*
X0620927D01*
X0624471D02*
X0632063D01*
X0612937D02*
X0617937Y0217000D01*
X0634937D01*
X0639937Y0222000D01*
Y0224262D01*
X0631420Y0232780D02*
X0639937Y0224262D01*
X0628317Y0232780D02*
X0631420D01*
X0632063Y0222000D02*
Y0229136D01*
X0630979Y0230221D02*
X0632063Y0229136D01*
X0628317Y0230221D02*
X0630979D01*
D43*
X0657618Y0296532D02*
Y0298468D01*
D45*
X0541229Y0271970D02*
D03*
D46*
X0660559Y0244000D02*
D03*
X0652685D02*
D03*
X0636989D02*
D03*
X0629089D02*
D03*
X0621189D02*
D03*
X0613315D02*
D03*
X0605441D02*
D03*
X0644811D02*
D03*
X0582837Y0222000D02*
D03*
X0574937D02*
D03*
X0567063D02*
D03*
X0559189D02*
D03*
X0612937D02*
D03*
X0605063D02*
D03*
X0632063D02*
D03*
X0639937D02*
D03*
D47*
X0538699D02*
D03*
X0660199D02*
D03*
X0625699Y0403000D02*
D03*
X0578699D02*
D03*
D48*
X0531199Y0397528D02*
D03*
Y0368000D02*
D03*
D49*
X0540699Y0286500D02*
D03*
X0532699Y0254500D02*
D03*
X0548199Y0246500D02*
D03*
X0545199Y0243500D02*
D03*
X0543699Y0289500D02*
D03*
X0546699D02*
D03*
X0546653Y0286576D02*
D03*
X0536699Y0323500D02*
D03*
X0586199D02*
D03*
X0534199Y0308000D02*
D03*
X0590199Y0234500D02*
D03*
X0587199D02*
D03*
X0584199D02*
D03*
X0581199D02*
D03*
X0576499Y0260500D02*
D03*
X0583699Y0264000D02*
D03*
X0648199Y0293500D02*
D03*
X0645199D02*
D03*
X0629199Y0342500D02*
D03*
Y0345000D02*
D03*
X0631699D02*
D03*
X0570199Y0287500D02*
D03*
X0539774Y0314500D02*
D03*
X0633199Y0260500D02*
D03*
X0630199D02*
D03*
X0556199Y0336500D02*
D03*
X0558699D02*
D03*
X0561199D02*
D03*
X0563699D02*
D03*
X0566199D02*
D03*
X0558699Y0334000D02*
D03*
X0561199D02*
D03*
X0563699D02*
D03*
X0566199D02*
D03*
Y0331500D02*
D03*
X0563699D02*
D03*
X0558699D02*
D03*
X0556199D02*
D03*
Y0329000D02*
D03*
Y0321500D02*
D03*
Y0324000D02*
D03*
X0558699Y0329000D02*
D03*
Y0326500D02*
D03*
Y0324000D02*
D03*
Y0321500D02*
D03*
X0561199D02*
D03*
X0563699D02*
D03*
X0566199D02*
D03*
Y0329000D02*
D03*
Y0326500D02*
D03*
Y0324000D02*
D03*
X0563699D02*
D03*
X0561199D02*
D03*
Y0326500D02*
D03*
X0563699Y0329000D02*
D03*
Y0326500D02*
D03*
X0556199D02*
D03*
X0561199Y0329000D02*
D03*
Y0331500D02*
D03*
X0556199Y0334000D02*
D03*
X0603199Y0336500D02*
D03*
X0605699D02*
D03*
X0608199D02*
D03*
X0610699D02*
D03*
X0613199D02*
D03*
X0605699Y0334000D02*
D03*
X0608199D02*
D03*
X0610699D02*
D03*
X0613199D02*
D03*
Y0331500D02*
D03*
X0610699D02*
D03*
X0605699D02*
D03*
X0603199D02*
D03*
Y0329000D02*
D03*
Y0321500D02*
D03*
Y0324000D02*
D03*
X0605699Y0329000D02*
D03*
Y0326500D02*
D03*
Y0324000D02*
D03*
Y0321500D02*
D03*
X0608199D02*
D03*
X0610699D02*
D03*
X0613199D02*
D03*
Y0329000D02*
D03*
Y0326500D02*
D03*
Y0324000D02*
D03*
X0610699D02*
D03*
X0608199D02*
D03*
Y0326500D02*
D03*
X0610699Y0329000D02*
D03*
Y0326500D02*
D03*
X0603199D02*
D03*
X0608199Y0329000D02*
D03*
Y0331500D02*
D03*
X0603199Y0334000D02*
D03*
X0608199Y0296272D02*
D03*
X0572199Y0309000D02*
D03*
X0569699D02*
D03*
X0567199D02*
D03*
X0575699Y0300575D02*
D03*
X0555199Y0303500D02*
D03*
Y0301000D02*
D03*
Y0298500D02*
D03*
Y0289500D02*
D03*
X0558199Y0292500D02*
D03*
X0560699Y0283500D02*
D03*
X0575699Y0237500D02*
D03*
X0581199Y0243500D02*
D03*
X0584499Y0288293D02*
D03*
X0589199Y0287500D02*
D03*
X0585199Y0300500D02*
D03*
Y0297500D02*
D03*
X0607575Y0265000D02*
D03*
X0589971Y0313500D02*
D03*
X0589199Y0310500D02*
D03*
X0592199Y0317500D02*
D03*
X0536624Y0314500D02*
D03*
X0659699Y0347500D02*
D03*
X0657199D02*
D03*
X0654699D02*
D03*
X0652199D02*
D03*
X0649699D02*
D03*
X0659699Y0345000D02*
D03*
Y0342500D02*
D03*
X0612699Y0347500D02*
D03*
X0610199D02*
D03*
X0607699D02*
D03*
X0605199D02*
D03*
X0602699D02*
D03*
X0612699Y0345000D02*
D03*
Y0342500D02*
D03*
X0565699D02*
D03*
Y0345000D02*
D03*
X0555699Y0347500D02*
D03*
X0558199D02*
D03*
X0560699D02*
D03*
X0563199D02*
D03*
X0565699D02*
D03*
X0576928Y0318728D02*
D03*
X0650199Y0334000D02*
D03*
X0655199Y0331500D02*
D03*
Y0329000D02*
D03*
X0650199Y0326500D02*
D03*
X0657699D02*
D03*
Y0329000D02*
D03*
X0655199Y0326500D02*
D03*
Y0324000D02*
D03*
X0657699D02*
D03*
X0660199D02*
D03*
Y0326500D02*
D03*
Y0329000D02*
D03*
Y0321500D02*
D03*
X0657699D02*
D03*
X0655199D02*
D03*
X0652699D02*
D03*
Y0324000D02*
D03*
Y0326500D02*
D03*
Y0329000D02*
D03*
X0650199Y0324000D02*
D03*
Y0321500D02*
D03*
Y0329000D02*
D03*
Y0331500D02*
D03*
X0652699D02*
D03*
X0657699D02*
D03*
X0660199D02*
D03*
Y0334000D02*
D03*
X0657699D02*
D03*
X0655199D02*
D03*
X0652699D02*
D03*
X0660199Y0336500D02*
D03*
X0657699D02*
D03*
X0655199D02*
D03*
X0652699D02*
D03*
X0650199D02*
D03*
X0631699Y0342500D02*
D03*
X0634199D02*
D03*
Y0345000D02*
D03*
X0582199Y0342500D02*
D03*
X0584699D02*
D03*
X0587199D02*
D03*
Y0345000D02*
D03*
X0584699D02*
D03*
X0582199D02*
D03*
X0535199Y0342500D02*
D03*
X0537699D02*
D03*
X0540199D02*
D03*
Y0345000D02*
D03*
X0537699D02*
D03*
X0535199D02*
D03*
X0538224Y0331050D02*
D03*
X0585224D02*
D03*
X0600199Y0250500D02*
D03*
X0597199D02*
D03*
X0607774Y0255500D02*
D03*
X0604624D02*
D03*
X0604000Y0261575D02*
D03*
X0605199Y0281500D02*
D03*
Y0284650D02*
D03*
X0563199Y0240500D02*
D03*
X0581199D02*
D03*
X0575699Y0243500D02*
D03*
Y0240500D02*
D03*
X0581199Y0237500D02*
D03*
X0562999Y0263777D02*
D03*
X0567699Y0262000D02*
D03*
X0565099D02*
D03*
X0560999Y0262100D02*
D03*
X0540599Y0254900D02*
D03*
X0548199Y0240500D02*
D03*
Y0243500D02*
D03*
X0545199Y0240500D02*
D03*
X0551199Y0246500D02*
D03*
X0548199Y0237500D02*
D03*
X0551699Y0233500D02*
D03*
X0551199Y0243500D02*
D03*
X0554199Y0246500D02*
D03*
Y0243500D02*
D03*
X0557199D02*
D03*
Y0240500D02*
D03*
X0560199D02*
D03*
Y0237500D02*
D03*
X0567199Y0232000D02*
D03*
X0575156D02*
D03*
X0551199Y0237500D02*
D03*
Y0240500D02*
D03*
X0569199Y0237500D02*
D03*
X0566199D02*
D03*
X0572199D02*
D03*
X0590199Y0240500D02*
D03*
X0587199D02*
D03*
X0584199D02*
D03*
X0583699Y0278000D02*
D03*
X0586699D02*
D03*
X0589795Y0277904D02*
D03*
X0578699Y0284000D02*
D03*
X0622199Y0318500D02*
D03*
X0593199Y0264500D02*
D03*
X0588699Y0284000D02*
D03*
X0583699D02*
D03*
X0530199Y0333500D02*
D03*
X0654443Y0309500D02*
D03*
X0637199Y0303500D02*
D03*
Y0306500D02*
D03*
X0634199D02*
D03*
Y0303500D02*
D03*
X0631199D02*
D03*
Y0306500D02*
D03*
X0628199D02*
D03*
Y0303500D02*
D03*
X0631346Y0295647D02*
D03*
X0661199Y0269500D02*
D03*
Y0266500D02*
D03*
Y0287500D02*
D03*
X0625199Y0297500D02*
D03*
X0622199Y0300500D02*
D03*
X0616199Y0303500D02*
D03*
X0619199D02*
D03*
X0622199D02*
D03*
X0625199D02*
D03*
Y0306500D02*
D03*
X0622199D02*
D03*
X0619199D02*
D03*
X0616199D02*
D03*
X0667199Y0266500D02*
D03*
X0664199D02*
D03*
Y0275500D02*
D03*
X0667199D02*
D03*
Y0278500D02*
D03*
X0664199D02*
D03*
Y0281500D02*
D03*
X0667199D02*
D03*
Y0284500D02*
D03*
X0664199D02*
D03*
X0663199Y0302500D02*
D03*
X0660199D02*
D03*
Y0305500D02*
D03*
X0663199Y0308500D02*
D03*
X0660199D02*
D03*
X0666199Y0311500D02*
D03*
X0663199D02*
D03*
X0660199D02*
D03*
X0633199Y0287500D02*
D03*
X0642199Y0293500D02*
D03*
X0639199D02*
D03*
X0636199D02*
D03*
X0654199Y0290500D02*
D03*
X0651199D02*
D03*
X0648199D02*
D03*
X0645199D02*
D03*
X0642199D02*
D03*
X0639199D02*
D03*
X0636199D02*
D03*
X0633199D02*
D03*
X0630199Y0287500D02*
D03*
X0636199D02*
D03*
X0639199D02*
D03*
Y0284500D02*
D03*
X0636199D02*
D03*
X0633199D02*
D03*
X0630199D02*
D03*
X0636199Y0281500D02*
D03*
X0633199D02*
D03*
X0630199D02*
D03*
X0639199D02*
D03*
Y0278500D02*
D03*
X0636199D02*
D03*
X0633199D02*
D03*
X0630199D02*
D03*
X0636199Y0275500D02*
D03*
X0633199D02*
D03*
X0630199D02*
D03*
X0657199Y0284574D02*
D03*
X0630199Y0263500D02*
D03*
X0633199D02*
D03*
X0636199Y0263642D02*
D03*
X0639199Y0266500D02*
D03*
X0636199D02*
D03*
X0633199D02*
D03*
X0630199D02*
D03*
Y0269500D02*
D03*
X0633199D02*
D03*
X0636199D02*
D03*
X0639199D02*
D03*
X0630199Y0272500D02*
D03*
X0633199D02*
D03*
X0639199D02*
D03*
X0636199D02*
D03*
X0639199Y0263500D02*
D03*
Y0260500D02*
D03*
X0636199D02*
D03*
X0590199Y0237500D02*
D03*
X0587199D02*
D03*
X0584199D02*
D03*
X0557199Y0246500D02*
D03*
X0560199D02*
D03*
Y0243500D02*
D03*
X0572199Y0240500D02*
D03*
X0569199D02*
D03*
X0563199Y0237500D02*
D03*
X0554199Y0240500D02*
D03*
Y0237500D02*
D03*
X0557199D02*
D03*
X0600199Y0247500D02*
D03*
X0597199D02*
D03*
Y0241500D02*
D03*
Y0238500D02*
D03*
X0600199D02*
D03*
Y0241500D02*
D03*
Y0244500D02*
D03*
X0597199D02*
D03*
X0627471Y0362000D02*
D03*
X0533471D02*
D03*
X0640955Y0354000D02*
D03*
X0593955D02*
D03*
X0580471Y0362000D02*
D03*
X0653231Y0299468D02*
D03*
X0657168D02*
D03*
X0653231Y0295532D02*
D03*
X0657168D02*
D03*
X0546756Y0354000D02*
D03*
X0613199Y0233000D02*
D03*
Y0230000D02*
D03*
X0541699Y0405000D02*
D03*
Y0408000D02*
D03*
X0588699D02*
D03*
Y0405000D02*
D03*
X0635699Y0408000D02*
D03*
Y0405000D02*
D03*
X0554573Y0408000D02*
D03*
Y0405000D02*
D03*
X0601573Y0408000D02*
D03*
Y0405000D02*
D03*
X0648573Y0408000D02*
D03*
Y0405000D02*
D03*
X0624199Y0367500D02*
D03*
X0626699D02*
D03*
X0624199Y0365000D02*
D03*
X0626699D02*
D03*
X0579699D02*
D03*
X0577199D02*
D03*
X0579699Y0367500D02*
D03*
X0577199D02*
D03*
Y0370000D02*
D03*
X0579699D02*
D03*
X0589199Y0349500D02*
D03*
X0636199D02*
D03*
Y0352000D02*
D03*
X0542199Y0349500D02*
D03*
Y0352000D02*
D03*
X0575699Y0385500D02*
D03*
X0585699Y0388000D02*
D03*
X0583199D02*
D03*
X0580699D02*
D03*
X0578199D02*
D03*
X0575699D02*
D03*
X0573199D02*
D03*
X0570699D02*
D03*
X0585699Y0385500D02*
D03*
X0583199D02*
D03*
X0580699D02*
D03*
X0578199D02*
D03*
X0573199D02*
D03*
X0570699D02*
D03*
Y0383000D02*
D03*
X0573199D02*
D03*
X0575699D02*
D03*
X0578199D02*
D03*
X0580699D02*
D03*
X0583199D02*
D03*
X0585699D02*
D03*
Y0380500D02*
D03*
X0583199D02*
D03*
X0580699D02*
D03*
X0578199D02*
D03*
X0575699D02*
D03*
X0573199D02*
D03*
X0570699D02*
D03*
Y0378000D02*
D03*
X0585699D02*
D03*
X0573199D02*
D03*
X0575699D02*
D03*
X0583199D02*
D03*
X0580699D02*
D03*
X0578199D02*
D03*
X0625199Y0383000D02*
D03*
X0632699Y0388000D02*
D03*
X0622699Y0385500D02*
D03*
X0630199Y0388000D02*
D03*
X0627699D02*
D03*
X0625199D02*
D03*
X0622699D02*
D03*
X0620199D02*
D03*
X0617699D02*
D03*
X0632699Y0385500D02*
D03*
X0630199D02*
D03*
X0627699D02*
D03*
X0625199D02*
D03*
X0620199D02*
D03*
X0617699D02*
D03*
Y0383000D02*
D03*
X0620199D02*
D03*
X0622699D02*
D03*
X0627699D02*
D03*
X0630199D02*
D03*
X0632699D02*
D03*
Y0380500D02*
D03*
X0630199D02*
D03*
X0627699D02*
D03*
X0625199D02*
D03*
X0622699D02*
D03*
X0620199D02*
D03*
X0617699D02*
D03*
Y0378000D02*
D03*
Y0375500D02*
D03*
X0632699Y0378000D02*
D03*
Y0375500D02*
D03*
X0620199D02*
D03*
Y0378000D02*
D03*
X0622699D02*
D03*
Y0375500D02*
D03*
X0630199Y0378000D02*
D03*
Y0375500D02*
D03*
X0627699Y0378000D02*
D03*
Y0375500D02*
D03*
X0625199Y0378000D02*
D03*
Y0375500D02*
D03*
X0578199Y0390500D02*
D03*
X0580699D02*
D03*
X0583199D02*
D03*
X0585699D02*
D03*
X0575699D02*
D03*
X0573199D02*
D03*
X0570699D02*
D03*
X0617699D02*
D03*
X0620199D02*
D03*
X0622699D02*
D03*
X0625199D02*
D03*
X0630199D02*
D03*
X0632699D02*
D03*
X0627699D02*
D03*
X0577199Y0372500D02*
D03*
X0579699D02*
D03*
X0531699Y0390500D02*
D03*
Y0388000D02*
D03*
Y0385500D02*
D03*
Y0383000D02*
D03*
Y0378000D02*
D03*
Y0375500D02*
D03*
Y0380500D02*
D03*
X0536699Y0388000D02*
D03*
Y0380500D02*
D03*
X0534199D02*
D03*
Y0375500D02*
D03*
X0536699D02*
D03*
X0539199D02*
D03*
Y0378000D02*
D03*
X0536699D02*
D03*
X0534199D02*
D03*
X0539199Y0380500D02*
D03*
X0534199Y0383000D02*
D03*
X0536699D02*
D03*
X0539199D02*
D03*
Y0385500D02*
D03*
X0536699D02*
D03*
X0534199D02*
D03*
X0539199Y0388000D02*
D03*
X0534199D02*
D03*
Y0390500D02*
D03*
X0536699D02*
D03*
X0539199D02*
D03*
X0632699Y0373000D02*
D03*
X0630199D02*
D03*
X0627699D02*
D03*
X0625199D02*
D03*
X0622699D02*
D03*
X0570699Y0375500D02*
D03*
X0573199D02*
D03*
X0534199Y0299000D02*
D03*
Y0288200D02*
D03*
X0533427Y0236500D02*
D03*
X0660699Y0252500D02*
D03*
X0594199Y0221000D02*
D03*
X0596699Y0304500D02*
D03*
X0610199Y0283272D02*
D03*
X0613719Y0288437D02*
D03*
X0614046Y0283059D02*
D03*
X0536199Y0233500D02*
D03*
X0594199Y0247500D02*
D03*
Y0250500D02*
D03*
X0570742Y0232000D02*
D03*
X0578699D02*
D03*
X0668699Y0390500D02*
D03*
X0666199D02*
D03*
Y0388000D02*
D03*
Y0385500D02*
D03*
X0668699D02*
D03*
Y0383000D02*
D03*
X0666199D02*
D03*
Y0378000D02*
D03*
X0668699D02*
D03*
Y0375500D02*
D03*
X0666199D02*
D03*
Y0380500D02*
D03*
X0668699D02*
D03*
Y0388000D02*
D03*
X0663699Y0380500D02*
D03*
Y0375500D02*
D03*
Y0378000D02*
D03*
Y0383000D02*
D03*
Y0385500D02*
D03*
Y0388000D02*
D03*
Y0390500D02*
D03*
X0580699Y0264000D02*
D03*
Y0261376D02*
D03*
X0619199Y0300500D02*
D03*
X0616199D02*
D03*
X0619199Y0297500D02*
D03*
X0622199D02*
D03*
X0624199Y0293500D02*
D03*
X0613199Y0303500D02*
D03*
Y0300500D02*
D03*
Y0297500D02*
D03*
X0622199Y0275500D02*
D03*
X0619199D02*
D03*
X0616199D02*
D03*
X0589199Y0352000D02*
D03*
X0606364Y0308000D02*
D03*
X0610025Y0307951D02*
D03*
D58*
X0538385Y0282206D02*
D03*
X0544094D02*
D03*
X0538385Y0261734D02*
D03*
X0544094D02*
D03*
D59*
X0564504Y0326236D02*
D03*
Y0345764D02*
D03*
X0658504D02*
D03*
Y0326236D02*
D03*
X0611504Y0345764D02*
D03*
Y0326236D02*
D03*
D60*
X0548224Y0345764D02*
D03*
Y0326236D02*
D03*
X0642224D02*
D03*
Y0345764D02*
D03*
X0595224Y0326236D02*
D03*
Y0345764D02*
D03*
D61*
X0635199Y0264642D02*
D03*
Y0282358D02*
D03*
D62*
X0572073Y0240500D02*
D03*
X0581325D02*
D03*
D63*
X0562435Y0292252D02*
D03*
X0564404D02*
D03*
X0566372D02*
D03*
X0568341D02*
D03*
X0570309D02*
D03*
X0572278D02*
D03*
X0574246D02*
D03*
X0576215D02*
D03*
X0578183D02*
D03*
X0580152D02*
D03*
X0582120D02*
D03*
X0584089D02*
D03*
X0586057D02*
D03*
X0588026D02*
D03*
X0589994D02*
D03*
X0591963D02*
D03*
Y0248748D02*
D03*
X0589994D02*
D03*
X0588026D02*
D03*
X0586057D02*
D03*
X0584089D02*
D03*
X0582120D02*
D03*
X0580152D02*
D03*
X0578183D02*
D03*
X0576215D02*
D03*
X0574246D02*
D03*
X0572278D02*
D03*
X0570309D02*
D03*
X0568341D02*
D03*
X0566372D02*
D03*
X0564404D02*
D03*
X0562435D02*
D03*
D64*
X0598951Y0285264D02*
D03*
Y0283295D02*
D03*
Y0281327D02*
D03*
Y0279358D02*
D03*
Y0277390D02*
D03*
Y0275421D02*
D03*
Y0273453D02*
D03*
Y0271484D02*
D03*
Y0269516D02*
D03*
Y0267547D02*
D03*
Y0265579D02*
D03*
Y0263610D02*
D03*
Y0261642D02*
D03*
Y0259673D02*
D03*
Y0257705D02*
D03*
Y0255736D02*
D03*
X0555447D02*
D03*
Y0257705D02*
D03*
Y0259673D02*
D03*
Y0261642D02*
D03*
Y0263610D02*
D03*
Y0265579D02*
D03*
Y0267547D02*
D03*
Y0269516D02*
D03*
Y0271484D02*
D03*
Y0273453D02*
D03*
Y0275421D02*
D03*
Y0277390D02*
D03*
Y0279358D02*
D03*
Y0281327D02*
D03*
Y0283295D02*
D03*
Y0285264D02*
D03*
D65*
X0553549Y0300750D02*
D03*
X0569849D02*
D03*
Y0310250D02*
D03*
X0553549D02*
D03*
D66*
X0628161Y0336465D02*
D03*
X0630721D02*
D03*
X0633280D02*
D03*
X0635839D02*
D03*
X0628161Y0319535D02*
D03*
X0630721D02*
D03*
X0633280D02*
D03*
X0635839D02*
D03*
X0534161Y0336465D02*
D03*
X0536721D02*
D03*
X0539280D02*
D03*
X0541839D02*
D03*
X0534161Y0319535D02*
D03*
X0536721D02*
D03*
X0539280D02*
D03*
X0541839D02*
D03*
X0581161Y0336465D02*
D03*
X0583720D02*
D03*
X0586279D02*
D03*
X0588839D02*
D03*
X0581161Y0319535D02*
D03*
X0583720D02*
D03*
X0586279D02*
D03*
X0588839D02*
D03*
D67*
X0657199Y0361559D02*
D03*
Y0381441D02*
D03*
X0610199Y0361559D02*
D03*
Y0381441D02*
D03*
X0563199Y0361618D02*
D03*
Y0381500D02*
D03*
D68*
X0541762Y0406500D02*
D03*
X0554636D02*
D03*
X0588762D02*
D03*
X0601636D02*
D03*
X0635762D02*
D03*
X0648636D02*
D03*
D69*
X0542199Y0378508D02*
D03*
Y0366500D02*
D03*
D70*
X0665199Y0293902D02*
D03*
Y0306500D02*
D03*
D71*
X0653199Y0304906D02*
D03*
Y0293094D02*
D03*
X0640699Y0304906D02*
D03*
Y0293094D02*
D03*
D72*
X0645699Y0270000D02*
D03*
Y0275000D02*
D03*
Y0280000D02*
D03*
Y0285000D02*
D03*
X0665601Y0270000D02*
D03*
Y0275000D02*
D03*
Y0280000D02*
D03*
Y0285000D02*
D03*
D73*
X0616278Y0296654D02*
D03*
X0613719Y0288347D02*
D03*
X0618837D02*
D03*
D74*
X0622353Y0280500D02*
D03*
X0614046Y0283059D02*
D03*
Y0277941D02*
D03*
D75*
X0618081Y0235339D02*
D03*
X0628317D02*
D03*
Y0227661D02*
D03*
Y0230221D02*
D03*
Y0232780D02*
D03*
X0618081D02*
D03*
Y0230221D02*
D03*
Y0227661D02*
D03*
D76*
X0652650Y0277500D02*
D03*
M02*
