M48
;Layer_Color=9474304
;FILE_FORMAT=2:4
INCH
;TYPE=PLATED
T1F00S00C0.0079
T2F00S00C0.0130
T3F00S00C0.0180
T4F00S00C0.0240
T5F00S00C0.0280
T6F00S00C0.0315
T7F00S00C0.0472
T8F00S00C0.1575
%
T01
X065903Y029003
X066297
Y029397
X065903
T02
X065903Y029003
X066297
Y029397
X065903
X059400Y025400
X059003
T03
X062700Y031000
X063100
X066000Y027800
X066591Y028105
X062200Y028100
X061000Y028800
X059477Y029200
X059700Y030700
X057700
X057620Y029600
X057220
X057120Y030000
X056500Y029700
X056320Y030700
X055420Y030100
X054220Y030400
X053820
X054000Y028100
X054297Y027575
X055120Y027500
X055520
X055920
X055420Y027900
X055443Y028261
X056220Y028200
X056750Y028259
X056710Y027900
X057350Y027800
Y025300
X058350Y024800
X059691Y025000
X060420Y024950
X060820
X062457Y026100
X060100Y027400
X062300Y031000
X054920Y025300
X054752Y024960
X054132Y024052
X055100Y022700
X055600
X056600Y023500
X057499Y031399
X059000Y031500
Y031900
X059176Y035400
X057777Y036200
X054276Y035400
X052877Y036200
X052770Y031400
X053200
X062677Y036200
X064076Y035400
T04
X053545Y024239
X055470Y023480
X057650Y023300
X052920Y029600
X053000Y034400
X053600
X057900
X058500
X059820Y037244
X055120
X065120
X063400Y034400
X062800
T05
X062520Y022800
X063800Y026300
X064400
Y026900
X063800
X063900Y028000
Y028600
X064500
X065100
X067100Y028200
Y027600
Y027000
X066779Y029821
Y030400
X066000
X066320Y024500
X061950Y029300
X058800Y022400
X060000Y032600
Y033200
X060600
X061200
Y032600
X060600
X056300
X055700
X055100
Y033200
X055700
X056300
X056920Y037200
X057520
X058120
Y038000
X057520
X056920
Y038800
X058120
X061820
Y038000
X062420
Y037200
X061820
X053320Y038000
X052720
X053320Y038800
Y039600
X052720
X063020Y038800
Y038000
Y037200
X066720
X067320
Y038000
X066720
Y038800
X067320
X066100Y033200
Y032600
X065500
Y033200
X064900
Y032600
T06
X063506Y021500
X064294
X063999Y023700
X064781
X065568
X066356
X063209
X062419
X061631
X060844
X060806Y021500
X061594
X058284
X057494
X056706
X055919
T07
X052620Y036816
Y038784
T08
X066400Y021600
X053400
X057600Y040100
X062500
M30
