M48
;Layer_Color=9474304
;FILE_FORMAT=2:4
INCH
;TYPE=PLATED
T1F00S00C0.0100
T2F00S00C0.0180
T3F00S00C0.0280
T4F00S00C0.0380
%
T01
X030244Y031198
X030554
X030864
X031174
Y031508
X030864
X030554
X030244
Y031818
X030554
X030864
X031174
Y032128
X030864
X030554
X030244
Y032438
X030554
X030864
X031174
Y032748
X030864
X030554
X030244
Y033058
X030554
X030864
X031174
Y033368
X030864
X030554
X030244
T02
X031575Y029409
X031378Y029724
X031457Y030236
X031181Y030472
X030354Y030433
X030079Y030709
X029803Y030984
X028898Y026575
X029803Y031378
Y031772
Y032165
Y032953
X028465Y034049
X028740Y034331
X030354Y036508
X030669Y037323
X031024Y036024
X032638Y036220
X031457Y034016
X031772Y033031
X035866Y036850
X036496Y037283
T03
X032638Y020906
X034016Y021653
X033858Y022441
X034449Y023819
X035827Y023622
X036457Y024055
X040197
X040866Y023543
X040354Y025197
X039724Y020669
X035718Y021005
X034685Y021024
X031693Y022441
X032283Y024803
X033071Y024409
X033465Y025000
X035039Y026857
X032480Y027677
Y028858
X033031Y029567
X037244
X038701Y030079
X029764Y028150
X028640Y028998
X027126Y029173
X027165Y030905
X025000Y030709
Y029921
Y029139
Y028349
Y027559
Y026772
Y025984
X025709Y025433
X025354Y024803
X025000Y023430
Y022640
Y021850
Y021063
Y020276
X025591Y020709
X025551Y019528
X026614Y023543
X027402Y025394
X027795Y026220
X026457Y026181
X026876Y026840
X025591Y027913
X025669Y029527
X029764Y024764
X030354Y025157
X030906Y024764
X029882Y022559
X030315Y021772
X029803Y020669
X028600Y031356
X028661Y032795
X026969Y032480
X027165Y031693
X025551Y032362
X025941Y032917
X025000Y033268
Y034055
Y034843
Y035633
X024094Y035709
X024882Y037520
X026614Y035591
X027362Y034252
X028386Y034843
X029016Y035630
X029291Y037362
X030236Y037087
X030118Y034094
X024422Y032732
X025787Y043307
X026378
X026969
X027559
X028150
Y043898
X027559
X026969
X026378
X025787
X030354Y045551
X030276Y042087
X030892Y041037
X031693Y043307
Y043898
X032283
Y043307
X032874
Y043898
X033465
Y043307
X034055
Y043898
X037598
Y043307
X038189
Y043898
X038780
Y043307
X039370
Y043898
X039961
Y043307
X042047Y041732
X041732Y037205
X041142
X040551
Y036614
X041142
X041732
X042008Y035000
X041653Y034409
X042205Y033504
X042087Y031772
X039882Y031378
X039291Y032165
X038189Y031811
X037717Y032244
X036614Y031693
X035962Y032503
X036299Y034094
X036811Y033819
X037874Y034134
X039724Y033898
X039724Y033268
X039961Y035079
X039842Y035827
X039480Y036395
X039016Y036693
X036969Y036929
X037002Y036377
X036260Y035236
X035394Y037402
X033858Y036181
X032874Y035315
X033228Y033622
X033933Y033225
X034488Y032992
X034646Y033701
X034527Y031968
X032909Y032811
X035803Y041039
X036378Y041653
X036260Y045591
T04
X031736Y019835
X032736
X033736
X034736
X035736
X036736
X037736
X038736
X039736
X040736
Y020835
X038736
X037736
X036736
X035736Y021835
X034736
Y022835
X035736
Y025835
X036736
X037736
X038736
X039736
X040736
X041736
Y019835
X034736Y025835
X033736
X032736
X031736
X030736
X029736
X028736
Y024835
Y023835
Y022835
Y021835
Y020835
Y019835
X029736
X030736
M30
