G04 Layer_Physical_Order=2*
G04 Layer_Color=16711680*
%FSAX44Y44*%
%MOMM*%
G71*
G01*
G75*
%ADD10R,1.0500X4.1500*%
%ADD11R,10.6000X8.8000*%
%ADD14R,1.0000X0.9000*%
%ADD16R,0.9000X1.0000*%
%ADD25R,1.9000X1.3500*%
%ADD31C,0.2540*%
%ADD32C,1.4478*%
%ADD33C,1.6002*%
%ADD34C,1.2700*%
%ADD35C,0.7620*%
%ADD36C,0.5080*%
%ADD37R,7.3800X2.4400*%
G36*
X01085000Y01145000D02*
X01085000Y00490000D01*
X01070000Y00475000D01*
X00615000D01*
X00600000Y00490000D01*
Y00955000D01*
X00630000Y00985000D01*
Y01180000D01*
X00645000Y01195000D01*
X01035000D01*
X01085000Y01145000D01*
D02*
G37*
%LPC*%
G36*
X00822460Y00700460D02*
X00816430D01*
X00817235Y00698517D01*
X00818660Y00696660D01*
X00820517Y00695235D01*
X00822460Y00694430D01*
Y00700460D01*
D02*
G37*
G36*
X00857040Y00701460D02*
X00847540D01*
Y00694710D01*
X00857040D01*
Y00701460D01*
D02*
G37*
G36*
X01069629Y00653660D02*
X01062640D01*
Y00646671D01*
X01062653Y00646673D01*
X01065032Y00647658D01*
X01067074Y00649225D01*
X01068642Y00651268D01*
X01069627Y00653647D01*
X01069629Y00653660D01*
D02*
G37*
G36*
X01062640Y00665729D02*
Y00658740D01*
X01069629D01*
X01069627Y00658753D01*
X01068642Y00661132D01*
X01067074Y00663174D01*
X01065032Y00664742D01*
X01062653Y00665727D01*
X01062640Y00665729D01*
D02*
G37*
G36*
X00902460Y00701460D02*
X00892960D01*
Y00694710D01*
X00902460D01*
Y00701460D01*
D02*
G37*
G36*
X00917040D02*
X00907540D01*
Y00694710D01*
X00917040D01*
Y00701460D01*
D02*
G37*
G36*
X00872460D02*
X00862960D01*
Y00694710D01*
X00872460D01*
Y00701460D01*
D02*
G37*
G36*
X00887040D02*
X00877540D01*
Y00694710D01*
X00887040D01*
Y00701460D01*
D02*
G37*
G36*
X01035460Y00606570D02*
X01033517Y00605765D01*
X01031660Y00604340D01*
X01030235Y00602483D01*
X01029430Y00600540D01*
X01035460D01*
Y00606570D01*
D02*
G37*
G36*
X01002540Y00554040D02*
X00997540D01*
Y00549540D01*
X01002540D01*
Y00554040D01*
D02*
G37*
G36*
X00727360Y00577460D02*
X00720371D01*
X00720373Y00577447D01*
X00721358Y00575068D01*
X00722925Y00573025D01*
X00724968Y00571458D01*
X00727347Y00570473D01*
X00727360Y00570471D01*
Y00577460D01*
D02*
G37*
G36*
X00982540Y00554040D02*
X00977540D01*
Y00549540D01*
X00982540D01*
Y00554040D01*
D02*
G37*
G36*
X00992460D02*
X00987460D01*
Y00549540D01*
X00992460D01*
Y00554040D01*
D02*
G37*
G36*
X00684570Y00595460D02*
X00678540D01*
Y00589430D01*
X00680483Y00590235D01*
X00682340Y00591660D01*
X00683765Y00593517D01*
X00684570Y00595460D01*
D02*
G37*
G36*
X01035460D02*
X01029430D01*
X01030235Y00593517D01*
X01031660Y00591660D01*
X01033517Y00590235D01*
X01035460Y00589430D01*
Y00595460D01*
D02*
G37*
G36*
X00739429Y00577460D02*
X00732440D01*
Y00570471D01*
X00732453Y00570473D01*
X00734832Y00571458D01*
X00736874Y00573025D01*
X00738442Y00575068D01*
X00739427Y00577447D01*
X00739429Y00577460D01*
D02*
G37*
G36*
X00673460Y00595460D02*
X00667430D01*
X00668235Y00593517D01*
X00669660Y00591660D01*
X00671517Y00590235D01*
X00673460Y00589430D01*
Y00595460D01*
D02*
G37*
G36*
X00917040Y00713290D02*
X00907540D01*
Y00706540D01*
X00917040D01*
Y00713290D01*
D02*
G37*
G36*
X00932460D02*
X00922960D01*
Y00706540D01*
X00932460D01*
Y00713290D01*
D02*
G37*
G36*
X00887040D02*
X00877540D01*
Y00706540D01*
X00887040D01*
Y00713290D01*
D02*
G37*
G36*
X00902460D02*
X00892960D01*
Y00706540D01*
X00902460D01*
Y00713290D01*
D02*
G37*
G36*
X00977040D02*
X00967540D01*
Y00706540D01*
X00977040D01*
Y00713290D01*
D02*
G37*
G36*
X00992460D02*
X00982960D01*
Y00706540D01*
X00992460D01*
Y00713290D01*
D02*
G37*
G36*
X00947040D02*
X00937540D01*
Y00706540D01*
X00947040D01*
Y00713290D01*
D02*
G37*
G36*
X00962460D02*
X00952960D01*
Y00706540D01*
X00962460D01*
Y00713290D01*
D02*
G37*
G36*
X00872460D02*
X00862960D01*
Y00706540D01*
X00872460D01*
Y00713290D01*
D02*
G37*
G36*
X00962460Y00701460D02*
X00952960D01*
Y00694710D01*
X00962460D01*
Y00701460D01*
D02*
G37*
G36*
X00977040D02*
X00967540D01*
Y00694710D01*
X00977040D01*
Y00701460D01*
D02*
G37*
G36*
X00932460D02*
X00922960D01*
Y00694710D01*
X00932460D01*
Y00701460D01*
D02*
G37*
G36*
X00947040D02*
X00937540D01*
Y00694710D01*
X00947040D01*
Y00701460D01*
D02*
G37*
G36*
X00822460Y00711570D02*
X00820517Y00710765D01*
X00818660Y00709340D01*
X00817235Y00707483D01*
X00816430Y00705540D01*
X00822460D01*
Y00711570D01*
D02*
G37*
G36*
X00857040Y00713290D02*
X00847540D01*
Y00706540D01*
X00857040D01*
Y00713290D01*
D02*
G37*
G36*
X00992460Y00701460D02*
X00982960D01*
Y00694710D01*
X00992460D01*
Y00701460D01*
D02*
G37*
G36*
X01007040D02*
X00997540D01*
Y00694710D01*
X01007040D01*
Y00701460D01*
D02*
G37*
G36*
X00933100Y00538519D02*
X00930688Y00538201D01*
X00928441Y00537270D01*
X00926511Y00535789D01*
X00925030Y00533859D01*
X00924099Y00531612D01*
X00923781Y00529200D01*
X00924099Y00526788D01*
X00925030Y00524540D01*
X00926511Y00522611D01*
X00928441Y00521130D01*
X00930688Y00520199D01*
X00933100Y00519881D01*
X00935512Y00520199D01*
X00937759Y00521130D01*
X00939689Y00522611D01*
X00941170Y00524540D01*
X00942101Y00526788D01*
X00942419Y00529200D01*
X00942101Y00531612D01*
X00941170Y00533859D01*
X00939689Y00535789D01*
X00937759Y00537270D01*
X00935512Y00538201D01*
X00933100Y00538519D01*
D02*
G37*
G36*
X00958500D02*
X00956088Y00538201D01*
X00953841Y00537270D01*
X00951911Y00535789D01*
X00950430Y00533859D01*
X00949499Y00531612D01*
X00949181Y00529200D01*
X00949499Y00526788D01*
X00950430Y00524540D01*
X00951911Y00522611D01*
X00953841Y00521130D01*
X00956088Y00520199D01*
X00958500Y00519881D01*
X00960912Y00520199D01*
X00963159Y00521130D01*
X00965089Y00522611D01*
X00966570Y00524540D01*
X00967501Y00526788D01*
X00967819Y00529200D01*
X00967501Y00531612D01*
X00966570Y00533859D01*
X00965089Y00535789D01*
X00963159Y00537270D01*
X00960912Y00538201D01*
X00958500Y00538519D01*
D02*
G37*
G36*
Y00513119D02*
X00956088Y00512801D01*
X00953841Y00511870D01*
X00951911Y00510389D01*
X00950430Y00508459D01*
X00949499Y00506212D01*
X00949181Y00503800D01*
X00949499Y00501388D01*
X00950430Y00499141D01*
X00951911Y00497211D01*
X00953841Y00495730D01*
X00956088Y00494799D01*
X00958500Y00494481D01*
X00960912Y00494799D01*
X00963159Y00495730D01*
X00965089Y00497211D01*
X00966570Y00499141D01*
X00967501Y00501388D01*
X00967819Y00503800D01*
X00967501Y00506212D01*
X00966570Y00508459D01*
X00965089Y00510389D01*
X00963159Y00511870D01*
X00960912Y00512801D01*
X00958500Y00513119D01*
D02*
G37*
G36*
X01006460Y00522460D02*
X01000430D01*
X01001235Y00520517D01*
X01002660Y00518660D01*
X01004517Y00517235D01*
X01006460Y00516430D01*
Y00522460D01*
D02*
G37*
G36*
X00915805Y00530977D02*
X00909775D01*
Y00524946D01*
X00911718Y00525751D01*
X00913575Y00527176D01*
X00915000Y00529033D01*
X00915805Y00530977D01*
D02*
G37*
G36*
X01006460Y00533570D02*
X01004517Y00532765D01*
X01002660Y00531340D01*
X01001235Y00529483D01*
X01000430Y00527540D01*
X01006460D01*
Y00533570D01*
D02*
G37*
G36*
X00983900Y00538519D02*
X00981488Y00538201D01*
X00979241Y00537270D01*
X00977311Y00535789D01*
X00975830Y00533859D01*
X00974899Y00531612D01*
X00974581Y00529200D01*
X00974899Y00526788D01*
X00975830Y00524540D01*
X00977311Y00522611D01*
X00979241Y00521130D01*
X00981488Y00520199D01*
X00983900Y00519881D01*
X00986312Y00520199D01*
X00988559Y00521130D01*
X00990489Y00522611D01*
X00991970Y00524540D01*
X00992901Y00526788D01*
X00993219Y00529200D01*
X00992901Y00531612D01*
X00991970Y00533859D01*
X00990489Y00535789D01*
X00988559Y00537270D01*
X00986312Y00538201D01*
X00983900Y00538519D01*
D02*
G37*
G36*
X00904695Y00530977D02*
X00898664D01*
X00899469Y00529033D01*
X00900894Y00527176D01*
X00902751Y00525751D01*
X00904695Y00524946D01*
Y00530977D01*
D02*
G37*
G36*
X00933100Y00513119D02*
X00930688Y00512801D01*
X00928441Y00511870D01*
X00926511Y00510389D01*
X00925030Y00508459D01*
X00924099Y00506212D01*
X00923781Y00503800D01*
X00924099Y00501388D01*
X00925030Y00499141D01*
X00926511Y00497211D01*
X00928441Y00495730D01*
X00930688Y00494799D01*
X00933100Y00494481D01*
X00935512Y00494799D01*
X00937759Y00495730D01*
X00939689Y00497211D01*
X00941170Y00499141D01*
X00942101Y00501388D01*
X00942419Y00503800D01*
X00942101Y00506212D01*
X00941170Y00508459D01*
X00939689Y00510389D01*
X00937759Y00511870D01*
X00935512Y00512801D01*
X00933100Y00513119D01*
D02*
G37*
G36*
X00755300D02*
X00752888Y00512801D01*
X00750641Y00511870D01*
X00748711Y00510389D01*
X00747230Y00508459D01*
X00746299Y00506212D01*
X00745981Y00503800D01*
X00746299Y00501388D01*
X00747230Y00499141D01*
X00748711Y00497211D01*
X00750641Y00495730D01*
X00752888Y00494799D01*
X00755300Y00494481D01*
X00757712Y00494799D01*
X00759959Y00495730D01*
X00761889Y00497211D01*
X00763370Y00499141D01*
X00764301Y00501388D01*
X00764619Y00503800D01*
X00764301Y00506212D01*
X00763370Y00508459D01*
X00761889Y00510389D01*
X00759959Y00511870D01*
X00757712Y00512801D01*
X00755300Y00513119D01*
D02*
G37*
G36*
X00780700D02*
X00778288Y00512801D01*
X00776041Y00511870D01*
X00774111Y00510389D01*
X00772630Y00508459D01*
X00771699Y00506212D01*
X00771381Y00503800D01*
X00771699Y00501388D01*
X00772630Y00499141D01*
X00774111Y00497211D01*
X00776041Y00495730D01*
X00778288Y00494799D01*
X00780700Y00494481D01*
X00783112Y00494799D01*
X00785359Y00495730D01*
X00787289Y00497211D01*
X00788770Y00499141D01*
X00789701Y00501388D01*
X00790019Y00503800D01*
X00789701Y00506212D01*
X00788770Y00508459D01*
X00787289Y00510389D01*
X00785359Y00511870D01*
X00783112Y00512801D01*
X00780700Y00513119D01*
D02*
G37*
G36*
X00657570Y00493460D02*
X00651540D01*
Y00487430D01*
X00653483Y00488235D01*
X00655340Y00489660D01*
X00656765Y00491517D01*
X00657570Y00493460D01*
D02*
G37*
G36*
X00729900Y00513119D02*
X00727488Y00512801D01*
X00725241Y00511870D01*
X00723311Y00510389D01*
X00721830Y00508459D01*
X00720899Y00506212D01*
X00720581Y00503800D01*
X00720899Y00501388D01*
X00721830Y00499141D01*
X00723311Y00497211D01*
X00725241Y00495730D01*
X00727488Y00494799D01*
X00729900Y00494481D01*
X00732312Y00494799D01*
X00734559Y00495730D01*
X00736489Y00497211D01*
X00737970Y00499141D01*
X00738901Y00501388D01*
X00739219Y00503800D01*
X00738901Y00506212D01*
X00737970Y00508459D01*
X00736489Y00510389D01*
X00734559Y00511870D01*
X00732312Y00512801D01*
X00729900Y00513119D01*
D02*
G37*
G36*
X00882300D02*
X00879888Y00512801D01*
X00877641Y00511870D01*
X00875711Y00510389D01*
X00874230Y00508459D01*
X00873299Y00506212D01*
X00872981Y00503800D01*
X00873299Y00501388D01*
X00874230Y00499141D01*
X00875711Y00497211D01*
X00877641Y00495730D01*
X00879888Y00494799D01*
X00882300Y00494481D01*
X00884712Y00494799D01*
X00886959Y00495730D01*
X00888889Y00497211D01*
X00890370Y00499141D01*
X00891301Y00501388D01*
X00891619Y00503800D01*
X00891301Y00506212D01*
X00890370Y00508459D01*
X00888889Y00510389D01*
X00886959Y00511870D01*
X00884712Y00512801D01*
X00882300Y00513119D01*
D02*
G37*
G36*
X00907700D02*
X00905288Y00512801D01*
X00903041Y00511870D01*
X00901111Y00510389D01*
X00899630Y00508459D01*
X00898699Y00506212D01*
X00898381Y00503800D01*
X00898699Y00501388D01*
X00899630Y00499141D01*
X00901111Y00497211D01*
X00903041Y00495730D01*
X00905288Y00494799D01*
X00907700Y00494481D01*
X00910112Y00494799D01*
X00912359Y00495730D01*
X00914289Y00497211D01*
X00915770Y00499141D01*
X00916701Y00501388D01*
X00917019Y00503800D01*
X00916701Y00506212D01*
X00915770Y00508459D01*
X00914289Y00510389D01*
X00912359Y00511870D01*
X00910112Y00512801D01*
X00907700Y00513119D01*
D02*
G37*
G36*
X00831500D02*
X00829088Y00512801D01*
X00826841Y00511870D01*
X00824911Y00510389D01*
X00823430Y00508459D01*
X00822499Y00506212D01*
X00822181Y00503800D01*
X00822499Y00501388D01*
X00823430Y00499141D01*
X00824911Y00497211D01*
X00826841Y00495730D01*
X00829088Y00494799D01*
X00831500Y00494481D01*
X00833912Y00494799D01*
X00836159Y00495730D01*
X00838089Y00497211D01*
X00839570Y00499141D01*
X00840501Y00501388D01*
X00840819Y00503800D01*
X00840501Y00506212D01*
X00839570Y00508459D01*
X00838089Y00510389D01*
X00836159Y00511870D01*
X00833912Y00512801D01*
X00831500Y00513119D01*
D02*
G37*
G36*
X00856900D02*
X00854488Y00512801D01*
X00852241Y00511870D01*
X00850311Y00510389D01*
X00848830Y00508459D01*
X00847899Y00506212D01*
X00847581Y00503800D01*
X00847899Y00501388D01*
X00848830Y00499141D01*
X00850311Y00497211D01*
X00852241Y00495730D01*
X00854488Y00494799D01*
X00856900Y00494481D01*
X00859312Y00494799D01*
X00861559Y00495730D01*
X00863489Y00497211D01*
X00864970Y00499141D01*
X00865901Y00501388D01*
X00866219Y00503800D01*
X00865901Y00506212D01*
X00864970Y00508459D01*
X00863489Y00510389D01*
X00861559Y00511870D01*
X00859312Y00512801D01*
X00856900Y00513119D01*
D02*
G37*
G36*
X00729900Y00563919D02*
X00727488Y00563601D01*
X00725241Y00562670D01*
X00723311Y00561189D01*
X00721830Y00559259D01*
X00720899Y00557012D01*
X00720581Y00554600D01*
X00720899Y00552188D01*
X00721830Y00549940D01*
X00723311Y00548010D01*
X00725241Y00546530D01*
X00727488Y00545599D01*
X00729900Y00545281D01*
X00732312Y00545599D01*
X00734559Y00546530D01*
X00736489Y00548010D01*
X00737970Y00549940D01*
X00738901Y00552188D01*
X00739219Y00554600D01*
X00738901Y00557012D01*
X00737970Y00559259D01*
X00736489Y00561189D01*
X00734559Y00562670D01*
X00732312Y00563601D01*
X00729900Y00563919D01*
D02*
G37*
G36*
X00932460Y00554040D02*
X00927460D01*
Y00549540D01*
X00932460D01*
Y00554040D01*
D02*
G37*
G36*
X01002540Y00544460D02*
X00997540D01*
Y00539960D01*
X01002540D01*
Y00544460D01*
D02*
G37*
G36*
X01012460D02*
X01007460D01*
Y00539960D01*
X01012460D01*
Y00544460D01*
D02*
G37*
G36*
X00962540Y00554040D02*
X00957540D01*
Y00549540D01*
X00962540D01*
Y00554040D01*
D02*
G37*
G36*
X00972460D02*
X00967460D01*
Y00549540D01*
X00972460D01*
Y00554040D01*
D02*
G37*
G36*
X00942540D02*
X00937540D01*
Y00549540D01*
X00942540D01*
Y00554040D01*
D02*
G37*
G36*
X00952460D02*
X00947460D01*
Y00549540D01*
X00952460D01*
Y00554040D01*
D02*
G37*
G36*
X00992460Y00544460D02*
X00987460D01*
Y00539960D01*
X00992460D01*
Y00544460D01*
D02*
G37*
G36*
X00932460D02*
X00927460D01*
Y00539960D01*
X00932460D01*
Y00544460D01*
D02*
G37*
G36*
X00942540D02*
X00937540D01*
Y00539960D01*
X00942540D01*
Y00544460D01*
D02*
G37*
G36*
X00904695Y00542087D02*
X00902751Y00541282D01*
X00900894Y00539857D01*
X00899469Y00538000D01*
X00898664Y00536057D01*
X00904695D01*
Y00542087D01*
D02*
G37*
G36*
X00909775D02*
Y00536057D01*
X00915805D01*
X00915000Y00538000D01*
X00913575Y00539857D01*
X00911718Y00541282D01*
X00909775Y00542087D01*
D02*
G37*
G36*
X00972460Y00544460D02*
X00967460D01*
Y00539960D01*
X00972460D01*
Y00544460D01*
D02*
G37*
G36*
X00982540D02*
X00977540D01*
Y00539960D01*
X00982540D01*
Y00544460D01*
D02*
G37*
G36*
X00952460D02*
X00947460D01*
Y00539960D01*
X00952460D01*
Y00544460D01*
D02*
G37*
G36*
X00962540D02*
X00957540D01*
Y00539960D01*
X00962540D01*
Y00544460D01*
D02*
G37*
G36*
X01007040Y00713290D02*
X00997540D01*
Y00706540D01*
X01007040D01*
Y00713290D01*
D02*
G37*
G36*
X00609460Y00915570D02*
X00607517Y00914765D01*
X00605660Y00913340D01*
X00604235Y00911483D01*
X00603430Y00909540D01*
X00609460D01*
Y00915570D01*
D02*
G37*
G36*
X00620570Y00904460D02*
X00614540D01*
Y00898430D01*
X00616483Y00899235D01*
X00618340Y00900660D01*
X00619765Y00902517D01*
X00620570Y00904460D01*
D02*
G37*
G36*
X00614540Y00915570D02*
Y00909540D01*
X00620570D01*
X00619765Y00911483D01*
X00618340Y00913340D01*
X00616483Y00914765D01*
X00614540Y00915570D01*
D02*
G37*
G36*
X00640570Y00950460D02*
X00634540D01*
Y00944430D01*
X00636483Y00945235D01*
X00638340Y00946660D01*
X00639765Y00948517D01*
X00640570Y00950460D01*
D02*
G37*
G36*
X00629460D02*
X00623430D01*
X00624235Y00948517D01*
X00625660Y00946660D01*
X00627517Y00945235D01*
X00629460Y00944430D01*
Y00950460D01*
D02*
G37*
G36*
X00609460Y00904460D02*
X00603430D01*
X00604235Y00902517D01*
X00605660Y00900660D01*
X00607517Y00899235D01*
X00609460Y00898430D01*
Y00904460D01*
D02*
G37*
G36*
X00617775Y00828860D02*
X00611745D01*
X00612550Y00826917D01*
X00613975Y00825060D01*
X00615832Y00823635D01*
X00617775Y00822830D01*
Y00828860D01*
D02*
G37*
G36*
X01071540Y00815570D02*
Y00809540D01*
X01077570D01*
X01076765Y00811483D01*
X01075340Y00813340D01*
X01073483Y00814765D01*
X01071540Y00815570D01*
D02*
G37*
G36*
X00628885Y00828860D02*
X00622855D01*
Y00822830D01*
X00624798Y00823635D01*
X00626655Y00825060D01*
X00628080Y00826917D01*
X00628885Y00828860D01*
D02*
G37*
G36*
X00632460Y00842460D02*
X00624702D01*
X00624730Y00842248D01*
X00625598Y00840152D01*
X00625144Y00839592D01*
X00624598Y00839248D01*
X00622855Y00839970D01*
Y00833940D01*
X00628885D01*
X00628360Y00835207D01*
X00629403Y00836008D01*
X00629684Y00835792D01*
X00632248Y00834730D01*
X00632460Y00834703D01*
Y00842460D01*
D02*
G37*
G36*
X00617775Y00839970D02*
X00615832Y00839165D01*
X00613975Y00837740D01*
X00612550Y00835883D01*
X00611745Y00833940D01*
X00617775D01*
Y00839970D01*
D02*
G37*
G36*
X00629460Y00961570D02*
X00627517Y00960765D01*
X00625660Y00959340D01*
X00624235Y00957483D01*
X00623430Y00955540D01*
X00629460D01*
Y00961570D01*
D02*
G37*
G36*
X00768460Y01165570D02*
X00766517Y01164765D01*
X00764660Y01163340D01*
X00763235Y01161483D01*
X00762430Y01159540D01*
X00768460D01*
Y01165570D01*
D02*
G37*
G36*
X00929570Y01155460D02*
X00923540D01*
Y01149430D01*
X00925483Y01150235D01*
X00927340Y01151660D01*
X00928765Y01153517D01*
X00929570Y01155460D01*
D02*
G37*
G36*
X00773540Y01165570D02*
Y01159540D01*
X00779570D01*
X00778765Y01161483D01*
X00777340Y01163340D01*
X00775483Y01164765D01*
X00773540Y01165570D01*
D02*
G37*
G36*
X00923540Y01166570D02*
Y01160540D01*
X00929570D01*
X00928765Y01162483D01*
X00927340Y01164340D01*
X00925483Y01165765D01*
X00923540Y01166570D01*
D02*
G37*
G36*
X00918460D02*
X00916517Y01165765D01*
X00914660Y01164340D01*
X00913235Y01162483D01*
X00912430Y01160540D01*
X00918460D01*
Y01166570D01*
D02*
G37*
G36*
Y01155460D02*
X00912430D01*
X00913235Y01153517D01*
X00914660Y01151660D01*
X00916517Y01150235D01*
X00918460Y01149430D01*
Y01155460D01*
D02*
G37*
G36*
X00750000Y01130500D02*
X00640000D01*
Y01038500D01*
X00750000D01*
Y01130500D01*
D02*
G37*
G36*
X00634540Y00961570D02*
Y00955540D01*
X00640570D01*
X00639765Y00957483D01*
X00638340Y00959340D01*
X00636483Y00960765D01*
X00634540Y00961570D01*
D02*
G37*
G36*
X00898000Y01136334D02*
X00791000D01*
X00789724Y01136080D01*
X00788643Y01135358D01*
X00775263Y01121977D01*
X00774540Y01120896D01*
X00774286Y01119620D01*
Y01076878D01*
X00773016Y01076375D01*
X00771180Y01077135D01*
X00769000Y01077422D01*
X00766820Y01077135D01*
X00764789Y01076294D01*
X00763045Y01074955D01*
X00761706Y01073211D01*
X00760865Y01071180D01*
X00760578Y01069000D01*
X00760865Y01066820D01*
X00761706Y01064789D01*
X00763045Y01063045D01*
X00764789Y01061706D01*
X00765666Y01061343D01*
Y01002000D01*
X00755500D01*
Y00998334D01*
X00745600D01*
X00744324Y00998081D01*
X00743243Y00997358D01*
X00741523Y00995638D01*
X00740350Y00996124D01*
Y01005250D01*
X00726990D01*
X00726884Y01005780D01*
X00726442Y01006442D01*
X00725780Y01006884D01*
X00725000Y01007039D01*
X00650000D01*
X00649220Y01006884D01*
X00648558Y01006442D01*
X00648116Y01005780D01*
X00647961Y01005000D01*
Y00930000D01*
X00648116Y00929220D01*
X00648558Y00928558D01*
X00649220Y00928116D01*
X00650000Y00927961D01*
X00658376D01*
X00658862Y00926787D01*
X00645372Y00913298D01*
X00644650Y00912216D01*
X00644458Y00911254D01*
X00643623Y00910919D01*
X00643126Y00910905D01*
X00642133Y00912199D01*
X00640044Y00913802D01*
X00637611Y00914810D01*
X00635000Y00915153D01*
X00632389Y00914810D01*
X00629956Y00913802D01*
X00627867Y00912199D01*
X00626264Y00910110D01*
X00625256Y00907677D01*
X00624913Y00905066D01*
X00625256Y00902455D01*
X00626264Y00900022D01*
X00627867Y00897933D01*
X00629956Y00896330D01*
X00631429Y00895720D01*
Y00894346D01*
X00629956Y00893736D01*
X00627867Y00892133D01*
X00626264Y00890044D01*
X00625256Y00887611D01*
X00624913Y00885000D01*
X00625256Y00882389D01*
X00626264Y00879956D01*
X00627867Y00877867D01*
X00629956Y00876264D01*
X00631349Y00875687D01*
Y00874313D01*
X00629956Y00873736D01*
X00627867Y00872133D01*
X00626264Y00870044D01*
X00625256Y00867611D01*
X00624913Y00865000D01*
X00625256Y00862389D01*
X00626264Y00859956D01*
X00627867Y00857867D01*
X00629956Y00856264D01*
X00630643Y00855980D01*
Y00854605D01*
X00629684Y00854208D01*
X00627482Y00852518D01*
X00625792Y00850316D01*
X00624730Y00847752D01*
X00624702Y00847540D01*
X00635000D01*
Y00845000D01*
X00637540D01*
Y00834703D01*
X00637752Y00834730D01*
X00640316Y00835792D01*
X00642518Y00837482D01*
X00643126Y00838275D01*
X00644396Y00837843D01*
Y00836111D01*
X00632643Y00824358D01*
X00631920Y00823276D01*
X00631666Y00822000D01*
Y00789444D01*
X00629956Y00788736D01*
X00627867Y00787133D01*
X00626264Y00785044D01*
X00625256Y00782611D01*
X00624913Y00780000D01*
X00625256Y00777389D01*
X00626264Y00774956D01*
X00627867Y00772867D01*
X00629956Y00771264D01*
X00631349Y00770687D01*
Y00769313D01*
X00629956Y00768736D01*
X00627867Y00767133D01*
X00626264Y00765044D01*
X00625256Y00762611D01*
X00624913Y00760000D01*
X00625256Y00757389D01*
X00626264Y00754956D01*
X00627867Y00752867D01*
X00629956Y00751264D01*
X00631189Y00750753D01*
Y00749379D01*
X00629956Y00748868D01*
X00627867Y00747265D01*
X00626264Y00745176D01*
X00625256Y00742743D01*
X00624913Y00740132D01*
X00625256Y00737521D01*
X00626264Y00735089D01*
X00627867Y00732999D01*
X00629956Y00731396D01*
X00631429Y00730786D01*
Y00729412D01*
X00629956Y00728802D01*
X00627867Y00727199D01*
X00626264Y00725110D01*
X00625256Y00722677D01*
X00624913Y00720066D01*
X00625256Y00717455D01*
X00626264Y00715023D01*
X00627867Y00712933D01*
X00629956Y00711330D01*
X00631429Y00710720D01*
Y00709346D01*
X00629956Y00708736D01*
X00627867Y00707133D01*
X00626264Y00705044D01*
X00625256Y00702611D01*
X00624913Y00700000D01*
X00625256Y00697389D01*
X00626264Y00694957D01*
X00627867Y00692867D01*
X00629956Y00691264D01*
X00631349Y00690687D01*
Y00689313D01*
X00629956Y00688736D01*
X00627867Y00687133D01*
X00626264Y00685044D01*
X00625256Y00682611D01*
X00624913Y00680000D01*
X00625256Y00677389D01*
X00626264Y00674957D01*
X00627867Y00672867D01*
X00629956Y00671264D01*
X00630643Y00670980D01*
Y00669605D01*
X00629684Y00669208D01*
X00627482Y00667518D01*
X00625792Y00665316D01*
X00624730Y00662752D01*
X00624702Y00662540D01*
X00635000D01*
Y00657460D01*
X00624702D01*
X00624730Y00657248D01*
X00625792Y00654684D01*
X00627482Y00652482D01*
X00629684Y00650793D01*
X00630236Y00650564D01*
X00630484Y00649318D01*
X00627499Y00646334D01*
X00617649D01*
X00616373Y00646080D01*
X00615291Y00645358D01*
X00614569Y00644276D01*
X00614315Y00643000D01*
Y00507345D01*
X00614569Y00506069D01*
X00615291Y00504987D01*
X00621447Y00498832D01*
X00622529Y00498109D01*
X00623805Y00497855D01*
X00639314D01*
X00640152Y00496900D01*
X00640033Y00496000D01*
X00640339Y00493679D01*
X00641235Y00491517D01*
X00642660Y00489660D01*
X00644517Y00488235D01*
X00646460Y00487430D01*
Y00496000D01*
X00649000D01*
Y00498540D01*
X00657570D01*
X00656765Y00500483D01*
X00655340Y00502340D01*
X00654208Y00503209D01*
X00654639Y00504479D01*
X00664806D01*
X00690182Y00479103D01*
X00691264Y00478380D01*
X00692540Y00478126D01*
X01061466D01*
X01062742Y00478380D01*
X01063824Y00479103D01*
X01071966Y00487245D01*
X01072689Y00488327D01*
X01072943Y00489603D01*
Y00558519D01*
X01073080Y00558724D01*
X01073334Y00560000D01*
X01073080Y00561276D01*
X01072357Y00562357D01*
X01057465Y00577250D01*
Y00645402D01*
X01057560Y00645486D01*
Y00656200D01*
Y00665729D01*
X01057547Y00665727D01*
X01055168Y00664742D01*
X01053126Y00663174D01*
X01051558Y00661132D01*
X01051022Y00659837D01*
X01049524Y00659539D01*
X01040996Y00668066D01*
X01039915Y00668789D01*
X01038639Y00669043D01*
X01005361D01*
X01004085Y00668789D01*
X01003004Y00668066D01*
X00997433Y00662496D01*
X00997270Y00662251D01*
X00994074Y00659056D01*
X00992589Y00659366D01*
X00991970Y00660859D01*
X00990489Y00662789D01*
X00988559Y00664270D01*
X00986312Y00665201D01*
X00983900Y00665519D01*
X00981488Y00665201D01*
X00979241Y00664270D01*
X00977311Y00662789D01*
X00975830Y00660859D01*
X00974899Y00658612D01*
X00974581Y00656200D01*
X00974899Y00653788D01*
X00975830Y00651541D01*
X00977311Y00649611D01*
X00979241Y00648130D01*
X00980590Y00647571D01*
X00980820Y00646415D01*
X00981543Y00645333D01*
X00982624Y00644611D01*
X00982657Y00644604D01*
X00982532Y00643334D01*
X00976081D01*
X00966952Y00652463D01*
X00967501Y00653788D01*
X00967819Y00656200D01*
X00967501Y00658612D01*
X00966570Y00660859D01*
X00965089Y00662789D01*
X00963159Y00664270D01*
X00960912Y00665201D01*
X00958500Y00665519D01*
X00956088Y00665201D01*
X00953841Y00664270D01*
X00951911Y00662789D01*
X00950430Y00660859D01*
X00949499Y00658612D01*
X00949181Y00656200D01*
X00949499Y00653788D01*
X00950430Y00651541D01*
X00951911Y00649611D01*
X00953841Y00648130D01*
X00956088Y00647199D01*
X00958500Y00646881D01*
X00960912Y00647199D01*
X00962237Y00647748D01*
X00972342Y00637643D01*
X00973424Y00636920D01*
X00974700Y00636666D01*
X01017343D01*
X01017706Y00635789D01*
X01019045Y00634045D01*
X01020789Y00632706D01*
X01022820Y00631865D01*
X01025000Y00631578D01*
X01027180Y00631865D01*
X01029211Y00632706D01*
X01030955Y00634045D01*
X01032294Y00635789D01*
X01033054Y00637625D01*
X01034308Y00638167D01*
X01047257Y00625219D01*
Y00602201D01*
X01045987Y00601949D01*
X01045765Y00602483D01*
X01044340Y00604340D01*
X01042483Y00605765D01*
X01040540Y00606570D01*
Y00598000D01*
Y00589430D01*
X01042483Y00590235D01*
X01044340Y00591660D01*
X01045765Y00593517D01*
X01045987Y00594052D01*
X01047257Y00593799D01*
Y00488334D01*
X00697381D01*
X00672004Y00513711D01*
X00670923Y00514434D01*
X00669647Y00514687D01*
X00645906D01*
X00645632Y00515000D01*
X00645298Y00517535D01*
X00645771Y00518088D01*
X00646345Y00518474D01*
X00647819Y00517864D01*
X00649999Y00517577D01*
X00652178Y00517864D01*
X00653055Y00518227D01*
X00653949Y00517333D01*
X00655031Y00516611D01*
X00656307Y00516357D01*
X00733839D01*
X00735115Y00516611D01*
X00736196Y00517333D01*
X00740529Y00521666D01*
X00749343D01*
X00749706Y00520789D01*
X00751045Y00519045D01*
X00752789Y00517706D01*
X00754820Y00516865D01*
X00757000Y00516578D01*
X00759180Y00516865D01*
X00761211Y00517706D01*
X00762955Y00519045D01*
X00764294Y00520789D01*
X00765135Y00522820D01*
X00765422Y00525000D01*
X00765135Y00527180D01*
X00764294Y00529211D01*
X00762955Y00530955D01*
X00761211Y00532294D01*
X00759180Y00533135D01*
X00757000Y00533422D01*
X00754820Y00533135D01*
X00752789Y00532294D01*
X00751045Y00530955D01*
X00749706Y00529211D01*
X00749343Y00528334D01*
X00740386D01*
X00739219Y00529200D01*
X00739176Y00529525D01*
X00738901Y00531612D01*
X00737970Y00533859D01*
X00736489Y00535789D01*
X00734559Y00537270D01*
X00732312Y00538201D01*
X00729900Y00538519D01*
X00727488Y00538201D01*
X00725241Y00537270D01*
X00723311Y00535789D01*
X00721830Y00533859D01*
X00720899Y00531612D01*
X00720581Y00529200D01*
X00720899Y00526788D01*
X00721830Y00524540D01*
X00722119Y00524164D01*
X00721557Y00523025D01*
X00659030D01*
X00658196Y00524295D01*
X00658421Y00525999D01*
X00658134Y00528179D01*
X00657292Y00530210D01*
X00655954Y00531954D01*
X00654210Y00533293D01*
X00652178Y00534134D01*
X00649999Y00534421D01*
X00647819Y00534134D01*
X00646164Y00533448D01*
X00644974Y00534138D01*
X00645087Y00535000D01*
X00644744Y00537611D01*
X00644035Y00539321D01*
X00650358Y00545643D01*
X00651080Y00546724D01*
X00651334Y00548000D01*
Y00596619D01*
X00658001Y00603286D01*
X00667378D01*
X00668041Y00602016D01*
X00667430Y00600540D01*
X00684570D01*
X00683959Y00602016D01*
X00684622Y00603286D01*
X00707999D01*
X00723028Y00588257D01*
X00722945Y00586989D01*
X00722925Y00586974D01*
X00721358Y00584931D01*
X00720373Y00582553D01*
X00720371Y00582540D01*
X00729900D01*
X00739429D01*
X00739427Y00582553D01*
X00739126Y00583281D01*
X00740202Y00584001D01*
X00750651Y00573552D01*
X00750578Y00573000D01*
X00750865Y00570820D01*
X00751706Y00568789D01*
X00753045Y00567045D01*
X00754789Y00565706D01*
X00756820Y00564865D01*
X00759000Y00564578D01*
X00761180Y00564865D01*
X00763211Y00565706D01*
X00763446Y00565887D01*
X00765105Y00565559D01*
X00765263Y00565322D01*
X00768246Y00562339D01*
X00768125Y00561983D01*
X00767703Y00561086D01*
X00765787Y00560293D01*
X00764043Y00558954D01*
X00762705Y00557210D01*
X00761863Y00555179D01*
X00761576Y00552999D01*
X00761863Y00550819D01*
X00762705Y00548788D01*
X00764043Y00547044D01*
X00765787Y00545705D01*
X00766664Y00545342D01*
Y00539901D01*
X00766918Y00538625D01*
X00767641Y00537544D01*
X00797648Y00507537D01*
X00797099Y00506212D01*
X00796781Y00503800D01*
X00797099Y00501388D01*
X00798030Y00499141D01*
X00799511Y00497211D01*
X00801441Y00495730D01*
X00803688Y00494799D01*
X00806100Y00494481D01*
X00808512Y00494799D01*
X00810759Y00495730D01*
X00812689Y00497211D01*
X00814170Y00499141D01*
X00815101Y00501388D01*
X00815419Y00503800D01*
X00815101Y00506212D01*
X00814170Y00508459D01*
X00812689Y00510389D01*
X00810759Y00511870D01*
X00808512Y00512801D01*
X00806100Y00513119D01*
X00803688Y00512801D01*
X00802363Y00512252D01*
X00773333Y00541282D01*
Y00545342D01*
X00774210Y00545705D01*
X00775954Y00547044D01*
X00777292Y00548788D01*
X00778085Y00550703D01*
X00778982Y00551125D01*
X00779339Y00551246D01*
X00791563Y00539021D01*
X00792645Y00538299D01*
X00793921Y00538045D01*
X00822585D01*
X00822906Y00536775D01*
X00821706Y00535211D01*
X00820865Y00533180D01*
X00820578Y00531000D01*
X00820865Y00528820D01*
X00821706Y00526789D01*
X00823045Y00525045D01*
X00824789Y00523706D01*
X00826820Y00522865D01*
X00829000Y00522578D01*
X00831180Y00522865D01*
X00833211Y00523706D01*
X00834955Y00525045D01*
X00836294Y00526789D01*
X00836852Y00528137D01*
X00839381Y00530666D01*
X00873343D01*
X00873706Y00529789D01*
X00875045Y00528045D01*
X00876789Y00526706D01*
X00878820Y00525865D01*
X00881000Y00525578D01*
X00883180Y00525865D01*
X00885211Y00526706D01*
X00886955Y00528045D01*
X00888294Y00529789D01*
X00889135Y00531820D01*
X00889422Y00534000D01*
X00889135Y00536180D01*
X00888294Y00538211D01*
X00886955Y00539955D01*
X00885211Y00541294D01*
X00883180Y00542135D01*
X00881000Y00542422D01*
X00878820Y00542135D01*
X00876789Y00541294D01*
X00875045Y00539955D01*
X00873706Y00538211D01*
X00873343Y00537334D01*
X00871197D01*
X00870812Y00538604D01*
X00871437Y00539021D01*
X00878563Y00546148D01*
X00879888Y00545599D01*
X00882300Y00545281D01*
X00884712Y00545599D01*
X00886959Y00546530D01*
X00888889Y00548010D01*
X00890370Y00549940D01*
X00891301Y00552188D01*
X00891619Y00554600D01*
X00891301Y00557012D01*
X00890752Y00558337D01*
X00893190Y00560775D01*
X00899357D01*
X00899919Y00559636D01*
X00899630Y00559259D01*
X00898699Y00557012D01*
X00898381Y00554600D01*
X00898699Y00552188D01*
X00899630Y00549940D01*
X00901111Y00548010D01*
X00903041Y00546530D01*
X00905288Y00545599D01*
X00907700Y00545281D01*
X00910112Y00545599D01*
X00912359Y00546530D01*
X00914289Y00548010D01*
X00915770Y00549940D01*
X00916701Y00552188D01*
X00917019Y00554600D01*
X00916701Y00557012D01*
X00915770Y00559259D01*
X00915481Y00559636D01*
X00916043Y00560775D01*
X00928000D01*
Y00556500D01*
X00942000D01*
Y00560775D01*
X00948000D01*
Y00556500D01*
X00962000D01*
Y00560775D01*
X00968000D01*
Y00556500D01*
X00982000D01*
Y00560775D01*
X00988000D01*
Y00556500D01*
X01002000D01*
Y00560775D01*
X01008000D01*
Y00556500D01*
X01011666D01*
Y00554040D01*
X01007460D01*
Y00549540D01*
X01015000D01*
Y00547000D01*
X01017540D01*
Y00539960D01*
X01018936D01*
Y00536605D01*
X01018102Y00535771D01*
X01017380Y00534690D01*
X01017126Y00533414D01*
Y00531100D01*
X01015856Y00530669D01*
X01015340Y00531340D01*
X01013483Y00532765D01*
X01011540Y00533570D01*
Y00525000D01*
Y00516430D01*
X01013483Y00517235D01*
X01015340Y00518660D01*
X01015856Y00519331D01*
X01017126Y00518900D01*
Y00516341D01*
X01013037Y00512252D01*
X01011712Y00512801D01*
X01009300Y00513119D01*
X01006888Y00512801D01*
X01004641Y00511870D01*
X01002711Y00510389D01*
X01001230Y00508459D01*
X01000299Y00506212D01*
X00999981Y00503800D01*
X01000299Y00501388D01*
X01001230Y00499141D01*
X01001998Y00498139D01*
X01001372Y00496869D01*
X00995546D01*
X00992352Y00500063D01*
X00992901Y00501388D01*
X00993219Y00503800D01*
X00992901Y00506212D01*
X00991970Y00508459D01*
X00990489Y00510389D01*
X00988559Y00511870D01*
X00986312Y00512801D01*
X00983900Y00513119D01*
X00981488Y00512801D01*
X00979241Y00511870D01*
X00977311Y00510389D01*
X00975830Y00508459D01*
X00974899Y00506212D01*
X00974581Y00503800D01*
X00974899Y00501388D01*
X00975830Y00499141D01*
X00977311Y00497211D01*
X00979241Y00495730D01*
X00981488Y00494799D01*
X00983900Y00494481D01*
X00986312Y00494799D01*
X00987637Y00495348D01*
X00991807Y00491178D01*
X00992889Y00490455D01*
X00994165Y00490201D01*
X01012483D01*
X01013759Y00490455D01*
X01014841Y00491178D01*
X01024537Y00500874D01*
X01026035Y00500576D01*
X01026630Y00499141D01*
X01028111Y00497211D01*
X01030041Y00495730D01*
X01032288Y00494799D01*
X01034700Y00494481D01*
X01037112Y00494799D01*
X01039359Y00495730D01*
X01041289Y00497211D01*
X01042770Y00499141D01*
X01043701Y00501388D01*
X01044019Y00503800D01*
X01043701Y00506212D01*
X01042770Y00508459D01*
X01041289Y00510389D01*
X01039359Y00511870D01*
X01037112Y00512801D01*
X01034700Y00513119D01*
X01032288Y00512801D01*
X01030041Y00511870D01*
X01028604Y00510768D01*
X01027334Y00511391D01*
Y00521609D01*
X01028604Y00522232D01*
X01030041Y00521130D01*
X01032288Y00520199D01*
X01034700Y00519881D01*
X01037112Y00520199D01*
X01039359Y00521130D01*
X01041289Y00522611D01*
X01042770Y00524540D01*
X01043701Y00526788D01*
X01044019Y00529200D01*
X01043701Y00531612D01*
X01042770Y00533859D01*
X01041289Y00535789D01*
X01039359Y00537270D01*
X01037112Y00538201D01*
X01036664Y00538260D01*
X01036047Y00539622D01*
X01036080Y00539672D01*
X01036334Y00540948D01*
Y00557710D01*
X01036080Y00558986D01*
X01035358Y00560068D01*
X01023298Y00572128D01*
X01022216Y00572850D01*
X01020940Y00573104D01*
X01007463D01*
X00934633Y00645934D01*
X00935041Y00647137D01*
X00935512Y00647199D01*
X00936837Y00647748D01*
X00975942Y00608643D01*
X00977024Y00607920D01*
X00978300Y00607666D01*
X01013343D01*
X01013706Y00606789D01*
X01015045Y00605045D01*
X01016789Y00603706D01*
X01018820Y00602865D01*
X01021000Y00602578D01*
X01023180Y00602865D01*
X01025211Y00603706D01*
X01026955Y00605045D01*
X01028294Y00606789D01*
X01029135Y00608820D01*
X01029422Y00611000D01*
X01029135Y00613180D01*
X01028294Y00615211D01*
X01026955Y00616955D01*
X01025211Y00618294D01*
X01023180Y00619135D01*
X01021000Y00619422D01*
X01018820Y00619135D01*
X01016789Y00618294D01*
X01015045Y00616955D01*
X01013706Y00615211D01*
X01013343Y00614334D01*
X00979681D01*
X00941552Y00652463D01*
X00942101Y00653788D01*
X00942419Y00656200D01*
X00942101Y00658612D01*
X00941170Y00660859D01*
X00939689Y00662789D01*
X00937759Y00664270D01*
X00935512Y00665201D01*
X00933100Y00665519D01*
X00930688Y00665201D01*
X00928441Y00664270D01*
X00926511Y00662789D01*
X00925030Y00660859D01*
X00924099Y00658612D01*
X00924037Y00658141D01*
X00922834Y00657733D01*
X00920543Y00660024D01*
Y00660139D01*
X00920289Y00661414D01*
X00919566Y00662496D01*
X00913996Y00668066D01*
X00912915Y00668789D01*
X00911639Y00669043D01*
X00892626D01*
X00890063Y00671606D01*
X00888981Y00672329D01*
X00887705Y00672583D01*
X00868692D01*
X00866129Y00675146D01*
X00865047Y00675869D01*
X00863771Y00676123D01*
X00849765D01*
X00846986Y00678902D01*
X00847472Y00680075D01*
X00881852D01*
X00881865Y00679980D01*
X00882706Y00677949D01*
X00884045Y00676205D01*
X00885789Y00674866D01*
X00887820Y00674025D01*
X00890000Y00673738D01*
X00892180Y00674025D01*
X00894211Y00674866D01*
X00895955Y00676205D01*
X00897294Y00677949D01*
X00898135Y00679980D01*
X00898422Y00682160D01*
X00898135Y00684340D01*
X00897294Y00686371D01*
X00895955Y00688115D01*
X00894211Y00689454D01*
X00892180Y00690295D01*
X00890000Y00690582D01*
X00887820Y00690295D01*
X00885789Y00689454D01*
X00884045Y00688115D01*
X00882992Y00686743D01*
X00823757D01*
X00821194Y00689306D01*
X00820112Y00690029D01*
X00818837Y00690283D01*
X00800432D01*
X00791654Y00699061D01*
Y00725902D01*
X00791400Y00727178D01*
X00790677Y00728260D01*
X00784254Y00734683D01*
Y00759150D01*
X00788695Y00763590D01*
X00792079Y00760206D01*
X00792810Y00759187D01*
X00791525Y00757265D01*
X00791075Y00754998D01*
X00791525Y00752731D01*
X00792810Y00750810D01*
X00794732Y00749526D01*
X00796508Y00749172D01*
X00796076Y00747000D01*
X00796527Y00744733D01*
X00797811Y00742811D01*
X00799733Y00741527D01*
X00802000Y00741076D01*
X00804267Y00741527D01*
X00806189Y00742811D01*
X00806760Y00743666D01*
X00822810D01*
X00824085Y00743920D01*
X00825167Y00744642D01*
X00829692Y00749167D01*
X00830946Y00748625D01*
X00831706Y00746789D01*
X00833045Y00745045D01*
X00833500Y00744695D01*
Y00738612D01*
X00832230Y00738181D01*
X00831340Y00739340D01*
X00829483Y00740765D01*
X00827540Y00741570D01*
Y00733000D01*
Y00724430D01*
X00829483Y00725235D01*
X00831340Y00726660D01*
X00832230Y00727819D01*
X00833500Y00727388D01*
Y00727250D01*
X00856500D01*
Y00732666D01*
X00863500D01*
Y00727250D01*
X00886500D01*
Y00732666D01*
X00893500D01*
Y00727250D01*
X00916500D01*
Y00732666D01*
X00923500D01*
Y00727250D01*
X00946500D01*
Y00732666D01*
X00953500D01*
Y00727250D01*
X00976500D01*
Y00732666D01*
X00983500D01*
Y00727250D01*
X01006500D01*
Y00744750D01*
X00983500D01*
Y00739334D01*
X00976500D01*
Y00744750D01*
X00954494D01*
X00954011Y00744750D01*
X00953330Y00745950D01*
X00953765Y00746517D01*
X00954570Y00748460D01*
X00937430D01*
X00938235Y00746517D01*
X00938716Y00745889D01*
X00938154Y00744750D01*
X00923500D01*
Y00739334D01*
X00916500D01*
Y00744750D01*
X00893500D01*
Y00739334D01*
X00886500D01*
Y00744750D01*
X00863500D01*
Y00739334D01*
X00856500D01*
Y00744750D01*
X00846330D01*
X00845704Y00746020D01*
X00846294Y00746789D01*
X00846657Y00747666D01*
X00847000D01*
X00848276Y00747920D01*
X00849358Y00748643D01*
X00905381Y00804666D01*
X00920809D01*
X00921105Y00804454D01*
X00921339Y00802679D01*
X00922235Y00800517D01*
X00923660Y00798660D01*
X00925517Y00797235D01*
X00927460Y00796430D01*
Y00805000D01*
X00930000D01*
Y00807540D01*
X00938570D01*
X00937765Y00809483D01*
X00937500Y00809829D01*
X00937707Y00811082D01*
X00937978Y00811263D01*
X00948061Y00821346D01*
X00949264Y00820753D01*
X00949033Y00819000D01*
X00949339Y00816679D01*
X00950235Y00814517D01*
X00951660Y00812660D01*
X00953517Y00811235D01*
X00955460Y00810430D01*
Y00819000D01*
X00958000D01*
Y00821540D01*
X00966570D01*
X00965959Y00823016D01*
X00966622Y00824286D01*
X00976999D01*
X00980642Y00820642D01*
X00981724Y00819920D01*
X00983000Y00819666D01*
X00984276Y00819920D01*
X00985358Y00820642D01*
X00987001Y00822286D01*
X00990122D01*
X00990626Y00821016D01*
X00989865Y00819180D01*
X00989578Y00817000D01*
X00989865Y00814820D01*
X00990626Y00812984D01*
X00990122Y00811714D01*
X00977497D01*
X00977292Y00812209D01*
X00975953Y00813954D01*
X00974209Y00815292D01*
X00972178Y00816133D01*
X00969998Y00816420D01*
X00967818Y00816133D01*
X00967664Y00816070D01*
X00967284Y00816460D01*
X00960540D01*
Y00810430D01*
X00960689Y00810491D01*
X00961783Y00809570D01*
X00961576Y00807998D01*
X00961863Y00805819D01*
X00962704Y00803787D01*
X00964043Y00802043D01*
X00965787Y00800705D01*
X00967818Y00799863D01*
X00969998Y00799576D01*
X00972178Y00799863D01*
X00974209Y00800705D01*
X00975953Y00802043D01*
X00977292Y00803787D01*
X00977813Y00805046D01*
X01001571D01*
X01002846Y00805300D01*
X01003928Y00806022D01*
X01008031Y00810126D01*
X01019466D01*
X01020742Y00810380D01*
X01021824Y00811103D01*
X01062462Y00851741D01*
X01063602Y00851180D01*
X01063578Y00851000D01*
X01063865Y00848820D01*
X01064228Y00847943D01*
X01019223Y00802938D01*
X01018955Y00802955D01*
X01017211Y00804294D01*
X01015180Y00805135D01*
X01013000Y00805422D01*
X01010820Y00805135D01*
X01008789Y00804294D01*
X01007045Y00802955D01*
X01005706Y00801211D01*
X01004865Y00799180D01*
X01004578Y00797000D01*
X01004865Y00794820D01*
X01005706Y00792789D01*
X01007045Y00791045D01*
X01008789Y00789706D01*
X01010820Y00788865D01*
X01013000Y00788578D01*
X01015180Y00788865D01*
X01017211Y00789706D01*
X01018955Y00791045D01*
X01020294Y00792789D01*
X01021135Y00794820D01*
X01021226Y00795511D01*
X01068943Y00843228D01*
X01069820Y00842865D01*
X01072000Y00842578D01*
X01074180Y00842865D01*
X01076211Y00843706D01*
X01077955Y00845045D01*
X01079294Y00846789D01*
X01080135Y00848820D01*
X01080422Y00851000D01*
X01080135Y00853180D01*
X01079294Y00855211D01*
X01077955Y00856955D01*
X01076211Y00858294D01*
X01074863Y00858852D01*
X01074358Y00859358D01*
X01073276Y00860080D01*
X01072710Y00860193D01*
X01072292Y00861571D01*
X01081898Y00871176D01*
X01082620Y00872258D01*
X01082874Y00873534D01*
Y01060650D01*
X01082620Y01061926D01*
X01081898Y01063008D01*
X01073928Y01070977D01*
X01072846Y01071700D01*
X01071571Y01071954D01*
X01064429D01*
X01063154Y01071700D01*
X01062072Y01070977D01*
X01057022Y01065928D01*
X01056300Y01064846D01*
X01056046Y01063570D01*
Y01046761D01*
X01051270Y01041985D01*
X01050000Y01042511D01*
Y01130500D01*
X00940000D01*
Y01041564D01*
X00937963D01*
X00929237Y01050290D01*
X00929320Y01051557D01*
X00929953Y01052043D01*
X00931292Y01053787D01*
X00932133Y01055818D01*
X00932420Y01057998D01*
X00932133Y01060178D01*
X00931292Y01062209D01*
X00929953Y01063953D01*
X00928209Y01065292D01*
X00926178Y01066133D01*
X00923998Y01066420D01*
X00921818Y01066133D01*
X00919787Y01065292D01*
X00918043Y01063953D01*
X00916704Y01062209D01*
X00915863Y01060178D01*
X00915676Y01058756D01*
X00914923Y01058217D01*
X00905750D01*
Y01128584D01*
X00905497Y01129860D01*
X00904774Y01130941D01*
X00900358Y01135358D01*
X00899276Y01136080D01*
X00898000Y01136334D01*
D02*
G37*
G36*
X00779570Y01154460D02*
X00773540D01*
Y01148430D01*
X00775483Y01149235D01*
X00777340Y01150660D01*
X00778765Y01152517D01*
X00779570Y01154460D01*
D02*
G37*
G36*
X00768460D02*
X00762430D01*
X00763235Y01152517D01*
X00764660Y01150660D01*
X00766517Y01149235D01*
X00768460Y01148430D01*
Y01154460D01*
D02*
G37*
G36*
X00948540Y00759570D02*
Y00753540D01*
X00954570D01*
X00953765Y00755483D01*
X00952340Y00757340D01*
X00950483Y00758765D01*
X00948540Y00759570D01*
D02*
G37*
G36*
X01066460Y00804460D02*
X01060430D01*
X01061235Y00802517D01*
X01062660Y00800660D01*
X01064517Y00799235D01*
X01066460Y00798430D01*
Y00804460D01*
D02*
G37*
G36*
X00943460Y00759570D02*
X00941517Y00758765D01*
X00939660Y00757340D01*
X00938235Y00755483D01*
X00937430Y00753540D01*
X00943460D01*
Y00759570D01*
D02*
G37*
G36*
X01077570Y00804460D02*
X01071540D01*
Y00798430D01*
X01073483Y00799235D01*
X01075340Y00800660D01*
X01076765Y00802517D01*
X01077570Y00804460D01*
D02*
G37*
G36*
X00980460Y00761460D02*
X00974430D01*
X00975235Y00759517D01*
X00976660Y00757660D01*
X00978517Y00756235D01*
X00980460Y00755430D01*
Y00761460D01*
D02*
G37*
G36*
X00938570Y00802460D02*
X00932540D01*
Y00796430D01*
X00934483Y00797235D01*
X00936340Y00798660D01*
X00937765Y00800517D01*
X00938570Y00802460D01*
D02*
G37*
G36*
X00985540Y00772570D02*
Y00766540D01*
X00991570D01*
X00990765Y00768483D01*
X00989340Y00770340D01*
X00987483Y00771765D01*
X00985540Y00772570D01*
D02*
G37*
G36*
X00991570Y00761460D02*
X00985540D01*
Y00755430D01*
X00987483Y00756235D01*
X00989340Y00757660D01*
X00990765Y00759517D01*
X00991570Y00761460D01*
D02*
G37*
G36*
X00980460Y00772570D02*
X00978517Y00771765D01*
X00976660Y00770340D01*
X00975235Y00768483D01*
X00974430Y00766540D01*
X00980460D01*
Y00772570D01*
D02*
G37*
G36*
X00822460Y00730460D02*
X00816430D01*
X00817235Y00728517D01*
X00818660Y00726660D01*
X00820517Y00725235D01*
X00822460Y00724430D01*
Y00730460D01*
D02*
G37*
G36*
X00842460Y00713290D02*
X00832960D01*
Y00709316D01*
X00831690Y00708885D01*
X00831340Y00709340D01*
X00829483Y00710765D01*
X00827540Y00711570D01*
Y00703000D01*
Y00694430D01*
X00829483Y00695235D01*
X00831340Y00696660D01*
X00831690Y00697115D01*
X00832960Y00696684D01*
Y00694710D01*
X00842460D01*
Y00704000D01*
Y00713290D01*
D02*
G37*
G36*
X01066460Y00815570D02*
X01064517Y00814765D01*
X01062660Y00813340D01*
X01061235Y00811483D01*
X01060430Y00809540D01*
X01066460D01*
Y00815570D01*
D02*
G37*
G36*
X00822460Y00741570D02*
X00820517Y00740765D01*
X00818660Y00739340D01*
X00817235Y00737483D01*
X00816430Y00735540D01*
X00822460D01*
Y00741570D01*
D02*
G37*
%LPD*%
G36*
X00797584Y00836896D02*
Y00836480D01*
X00797838Y00835204D01*
X00798561Y00834122D01*
X00800124Y00832559D01*
Y00793538D01*
X00800126Y00793530D01*
Y00792841D01*
X00797928Y00790643D01*
X00796757Y00791268D01*
X00796991Y00792441D01*
X00796596Y00794423D01*
X00795925Y00795427D01*
X00795575Y00796378D01*
X00795925Y00797329D01*
X00796224Y00797775D01*
X00791811D01*
Y00802855D01*
X00796224D01*
X00795925Y00803301D01*
X00795575Y00804252D01*
X00795925Y00805203D01*
X00796224Y00805649D01*
X00791811D01*
Y00810729D01*
X00796224D01*
X00795925Y00811175D01*
X00795575Y00812126D01*
X00795925Y00813077D01*
X00796224Y00813523D01*
X00791811D01*
Y00818603D01*
X00796224D01*
X00795925Y00819049D01*
X00795575Y00820000D01*
X00795925Y00820951D01*
X00796224Y00821397D01*
X00791811D01*
Y00826477D01*
X00796224D01*
X00795925Y00826923D01*
X00795575Y00827874D01*
X00795925Y00828825D01*
X00796224Y00829271D01*
X00791811D01*
Y00834351D01*
X00796224D01*
X00795925Y00834797D01*
X00795575Y00835748D01*
X00795925Y00836699D01*
X00796314Y00837281D01*
X00797584Y00836896D01*
D02*
G37*
G36*
X00867990Y00653842D02*
X00869072Y00653120D01*
X00870348Y00652866D01*
X00873681D01*
X00874230Y00651541D01*
X00875711Y00649611D01*
X00877641Y00648130D01*
X00879888Y00647199D01*
X00882300Y00646881D01*
X00884712Y00647199D01*
X00886959Y00648130D01*
X00887336Y00648419D01*
X00888475Y00647857D01*
Y00618188D01*
X00888729Y00616912D01*
X00889452Y00615830D01*
X00902226Y00603056D01*
X00901863Y00602179D01*
X00901576Y00599999D01*
X00901863Y00597819D01*
X00902704Y00595788D01*
X00903990Y00594113D01*
X00903870Y00593405D01*
X00903571Y00592805D01*
X00902485Y00592589D01*
X00901404Y00591866D01*
X00892876Y00583339D01*
X00891378Y00583637D01*
X00890842Y00584931D01*
X00889274Y00586974D01*
X00887232Y00588542D01*
X00884853Y00589527D01*
X00884840Y00589529D01*
Y00580000D01*
X00882300D01*
Y00577460D01*
X00872771D01*
X00872773Y00577447D01*
X00873758Y00575068D01*
X00874215Y00574473D01*
X00873653Y00573334D01*
X00872190D01*
X00870915Y00573080D01*
X00869833Y00572357D01*
X00869308Y00571833D01*
X00868054Y00572375D01*
X00867294Y00574211D01*
X00865955Y00575955D01*
X00864211Y00577294D01*
X00863334Y00577657D01*
Y00610291D01*
X00864507Y00610778D01*
X00867228Y00608057D01*
X00866865Y00607180D01*
X00866578Y00605000D01*
X00866865Y00602820D01*
X00867706Y00600789D01*
X00869045Y00599045D01*
X00870789Y00597706D01*
X00872820Y00596865D01*
X00875000Y00596578D01*
X00877180Y00596865D01*
X00879211Y00597706D01*
X00880955Y00599045D01*
X00882294Y00600789D01*
X00883135Y00602820D01*
X00883422Y00605000D01*
X00883135Y00607180D01*
X00882294Y00609211D01*
X00880955Y00610955D01*
X00879211Y00612294D01*
X00877180Y00613135D01*
X00875000Y00613422D01*
X00872820Y00613135D01*
X00871943Y00612772D01*
X00861954Y00622761D01*
Y00638571D01*
X00861700Y00639846D01*
X00860977Y00640928D01*
X00856137Y00645769D01*
X00856699Y00646908D01*
X00856900Y00646881D01*
X00859312Y00647199D01*
X00861559Y00648130D01*
X00863489Y00649611D01*
X00864970Y00651541D01*
X00865901Y00653788D01*
X00865963Y00654259D01*
X00867166Y00654667D01*
X00867990Y00653842D01*
D02*
G37*
G36*
X00786477Y00788028D02*
X00786923Y00788327D01*
X00787874Y00788677D01*
X00788825Y00788327D01*
X00789829Y00787656D01*
X00791811Y00787262D01*
X00792984Y00787495D01*
X00793609Y00786324D01*
X00789641Y00782356D01*
X00788918Y00781274D01*
X00788664Y00779998D01*
Y00778758D01*
X00787810Y00778187D01*
X00786525Y00776265D01*
X00786075Y00773998D01*
X00786525Y00771731D01*
X00786544Y00771704D01*
X00786337Y00770663D01*
X00781587Y00765913D01*
X00780414Y00766399D01*
Y00775518D01*
X00780160Y00776794D01*
X00779437Y00777876D01*
X00770741Y00786573D01*
X00770940Y00788169D01*
X00771175Y00788327D01*
X00772126Y00788677D01*
X00773077Y00788327D01*
X00773523Y00788028D01*
Y00792441D01*
X00778603D01*
Y00788028D01*
X00779049Y00788327D01*
X00780000Y00788677D01*
X00780951Y00788327D01*
X00781397Y00788028D01*
Y00792441D01*
X00786477D01*
Y00788028D01*
D02*
G37*
G36*
X01070000Y00909344D02*
Y00908731D01*
X01069760Y00906905D01*
X01068818Y00904632D01*
X01067320Y00902680D01*
X01065368Y00901182D01*
X01063095Y00900240D01*
X01061268Y00900000D01*
X01060655Y00900000D01*
X01031149D01*
X01028817Y00900307D01*
X01025914Y00901509D01*
X01023422Y00903422D01*
X01021509Y00905914D01*
X01020307Y00908817D01*
X01020000Y00911149D01*
Y00911931D01*
X01020000Y00911931D01*
X01020158Y00914059D01*
X01019846Y00920451D01*
X01018782Y00925801D01*
X01017029Y00930966D01*
X01014616Y00935859D01*
X01011586Y00940394D01*
X01007989Y00944495D01*
X01003888Y00948092D01*
X01000266Y00950505D01*
X00999004Y00951219D01*
X00998710Y00951385D01*
X00998096Y00952189D01*
X00997939Y00952978D01*
X00998096Y00953767D01*
X00998542Y00954436D01*
X00999598Y00955000D01*
X01000000D01*
Y00955000D01*
X01070000Y00955000D01*
X01070000Y00909344D01*
D02*
G37*
G36*
X00875000Y00930000D02*
X00800000D01*
Y01005000D01*
X00875000D01*
Y00930000D01*
D02*
G37*
G36*
X01025000Y00960000D02*
X00996181Y00960000D01*
X00980000Y00943819D01*
Y00900000D01*
X00980000Y00900000D01*
Y00899017D01*
X00979711Y00896079D01*
X00978936Y00893525D01*
Y00875651D01*
X00971421Y00868136D01*
X00970219Y00868545D01*
X00970135Y00869180D01*
X00969294Y00871211D01*
X00967955Y00872955D01*
X00966211Y00874294D01*
X00964180Y00875135D01*
X00962000Y00875422D01*
X00959820Y00875135D01*
X00957789Y00874294D01*
X00956045Y00872955D01*
X00954706Y00871211D01*
X00953865Y00869180D01*
X00953578Y00867000D01*
X00953865Y00864820D01*
X00954228Y00863943D01*
X00942554Y00852270D01*
X00941962Y00852327D01*
X00941443Y00853402D01*
X00941440Y00853677D01*
X00942294Y00854789D01*
X00943135Y00856820D01*
X00943422Y00859000D01*
X00943135Y00861180D01*
X00942294Y00863211D01*
X00940955Y00864955D01*
X00939211Y00866294D01*
X00937180Y00867135D01*
X00935000Y00867422D01*
X00932820Y00867135D01*
X00931617Y00866637D01*
X00930236Y00867400D01*
X00930133Y00868178D01*
X00929292Y00870209D01*
X00927953Y00871954D01*
X00926209Y00873292D01*
X00924178Y00874133D01*
X00921998Y00874420D01*
X00919818Y00874133D01*
X00917787Y00873292D01*
X00916043Y00871954D01*
X00914704Y00870209D01*
X00913863Y00868178D01*
X00913834Y00867954D01*
X00842430D01*
X00841154Y00867700D01*
X00840072Y00866977D01*
X00833021Y00859926D01*
X00832298Y00858845D01*
X00832044Y00857569D01*
Y00840850D01*
X00831689Y00840703D01*
X00829945Y00839364D01*
X00828606Y00837620D01*
X00827765Y00835589D01*
X00827478Y00833409D01*
X00827765Y00831229D01*
X00828606Y00829198D01*
X00829945Y00827454D01*
X00831689Y00826115D01*
X00833720Y00825274D01*
X00835900Y00824987D01*
X00838080Y00825274D01*
X00840111Y00826115D01*
X00841855Y00827454D01*
X00843194Y00829198D01*
X00844035Y00831229D01*
X00844322Y00833409D01*
X00844035Y00835589D01*
X00843194Y00837620D01*
X00841855Y00839364D01*
X00840111Y00840703D01*
X00838712Y00841282D01*
Y00846120D01*
X00839982Y00846624D01*
X00841818Y00845863D01*
X00843998Y00845576D01*
X00846178Y00845863D01*
X00848209Y00846705D01*
X00849954Y00848043D01*
X00851292Y00849787D01*
X00852133Y00851818D01*
X00852245Y00852666D01*
X00857918D01*
X00858170Y00851396D01*
X00857694Y00851198D01*
X00855949Y00849860D01*
X00854611Y00848116D01*
X00853770Y00846085D01*
X00853483Y00843905D01*
X00853770Y00841725D01*
X00854611Y00839694D01*
X00855949Y00837950D01*
X00857694Y00836611D01*
X00859725Y00835770D01*
X00861905Y00835483D01*
X00864085Y00835770D01*
X00866116Y00836611D01*
X00866600Y00836983D01*
X00867774Y00836497D01*
X00867863Y00835818D01*
X00868705Y00833787D01*
X00870043Y00832043D01*
X00871787Y00830705D01*
X00873819Y00829863D01*
X00875998Y00829576D01*
X00878178Y00829863D01*
X00880209Y00830705D01*
X00881954Y00832043D01*
X00883292Y00833787D01*
X00883655Y00834664D01*
X00893290D01*
X00893776Y00833491D01*
X00880055Y00819770D01*
X00879178Y00820134D01*
X00876998Y00820420D01*
X00874818Y00820134D01*
X00872787Y00819292D01*
X00871043Y00817954D01*
X00869705Y00816209D01*
X00868863Y00814178D01*
X00868576Y00811998D01*
X00868863Y00809819D01*
X00869624Y00807982D01*
X00869120Y00806712D01*
X00856378D01*
X00855102Y00806459D01*
X00854021Y00805736D01*
X00824922Y00776637D01*
X00824200Y00775556D01*
X00823946Y00774280D01*
Y00760982D01*
X00819678Y00756714D01*
X00803274D01*
X00802963Y00757314D01*
X00803725Y00758584D01*
X00814578D01*
X00815854Y00758838D01*
X00816936Y00759561D01*
X00819017Y00761643D01*
X00819740Y00762724D01*
X00819994Y00764000D01*
Y00877000D01*
X00819740Y00878276D01*
X00819129Y00879190D01*
X00819320Y00879882D01*
X00819388Y00880000D01*
X00800000D01*
X00799344D01*
X00798422Y00879878D01*
X00797643Y00879358D01*
X00790161Y00871876D01*
X00790000Y00870655D01*
Y00870000D01*
X00790000Y00860000D01*
X00790000Y00860000D01*
X00790000Y00859005D01*
X00788605Y00856395D01*
X00785994Y00855000D01*
X00785000Y00855000D01*
X00764249Y00855000D01*
X00763839Y00854726D01*
X00761021Y00851909D01*
X00760299Y00850827D01*
X00760045Y00849551D01*
Y00844760D01*
X00758008Y00842723D01*
X00757000Y00842924D01*
X00754733Y00842473D01*
X00752811Y00841189D01*
X00751527Y00839267D01*
X00751076Y00837000D01*
X00751527Y00834733D01*
X00752811Y00832811D01*
X00754733Y00831527D01*
X00757000Y00831076D01*
X00759267Y00831527D01*
X00761189Y00832811D01*
X00762473Y00834733D01*
X00762625Y00835499D01*
X00763975Y00835773D01*
X00764272Y00835333D01*
X00764075Y00834797D01*
X00763776Y00834351D01*
X00768189D01*
Y00829271D01*
X00763776D01*
X00764075Y00828825D01*
X00764425Y00827874D01*
X00764075Y00826923D01*
X00763776Y00826477D01*
X00768189D01*
Y00821397D01*
X00763776D01*
X00764075Y00820951D01*
X00764425Y00820000D01*
X00764075Y00819049D01*
X00763872Y00818745D01*
X00762523Y00819013D01*
X00762473Y00819267D01*
X00761189Y00821189D01*
X00759267Y00822473D01*
X00757000Y00822924D01*
X00754733Y00822473D01*
X00752811Y00821189D01*
X00751527Y00819267D01*
X00751076Y00817000D01*
X00751277Y00815992D01*
X00748347Y00813063D01*
X00747174Y00813549D01*
Y00843160D01*
X00746920Y00844436D01*
X00746198Y00845518D01*
X00733334Y00858381D01*
Y00867240D01*
X00734189Y00867811D01*
X00735473Y00869733D01*
X00735924Y00872000D01*
X00735473Y00874267D01*
X00734189Y00876189D01*
X00732267Y00877473D01*
X00730000Y00877924D01*
X00727932Y00877512D01*
X00727905Y00877536D01*
X00727340Y00878660D01*
X00728369Y00880000D01*
X00723540D01*
Y00876430D01*
X00724908Y00876996D01*
X00725633Y00875922D01*
X00724527Y00874267D01*
X00724076Y00872000D01*
X00724155Y00871605D01*
X00723257Y00870707D01*
X00723000Y00870758D01*
X00720733Y00870307D01*
X00718811Y00869023D01*
X00717527Y00867101D01*
X00717076Y00864834D01*
X00717527Y00862567D01*
X00718811Y00860645D01*
X00719666Y00860074D01*
Y00850188D01*
X00719920Y00848913D01*
X00720642Y00847831D01*
X00726166Y00842307D01*
X00725624Y00841053D01*
X00723788Y00840293D01*
X00722044Y00838954D01*
X00720705Y00837210D01*
X00719864Y00835179D01*
X00719577Y00832999D01*
X00719864Y00830819D01*
X00720705Y00828788D01*
X00722044Y00827044D01*
X00723788Y00825705D01*
X00724665Y00825342D01*
Y00807086D01*
X00724892Y00805946D01*
X00724848Y00805531D01*
X00724467Y00804689D01*
X00724224Y00804564D01*
X00722236Y00803741D01*
X00720492Y00802403D01*
X00719154Y00800658D01*
X00718312Y00798627D01*
X00718025Y00796447D01*
X00718312Y00794268D01*
X00719154Y00792236D01*
X00720492Y00790492D01*
X00722236Y00789154D01*
X00724268Y00788312D01*
X00726447Y00788025D01*
X00727192Y00788123D01*
X00728193Y00787208D01*
Y00746150D01*
X00727460Y00745507D01*
X00725139Y00745201D01*
X00722977Y00744305D01*
X00721120Y00742880D01*
X00719695Y00741023D01*
X00718890Y00739080D01*
X00727460D01*
Y00734000D01*
X00718890D01*
X00719695Y00732057D01*
X00721120Y00730200D01*
X00722977Y00728775D01*
X00723831Y00728421D01*
X00724079Y00727175D01*
X00686202Y00689298D01*
X00684830Y00689866D01*
X00682650Y00690153D01*
X00680470Y00689866D01*
X00678439Y00689025D01*
X00676695Y00687686D01*
X00676603Y00687566D01*
X00675333Y00687998D01*
Y00710800D01*
X00675334Y00710807D01*
X00675080Y00712083D01*
X00674358Y00713164D01*
X00665299Y00722222D01*
X00664898Y00722824D01*
X00653985Y00733736D01*
X00653384Y00734138D01*
X00649713Y00737809D01*
Y00740596D01*
X00650983Y00741710D01*
X00651999Y00741576D01*
X00654178Y00741863D01*
X00656210Y00742705D01*
X00657954Y00744043D01*
X00659292Y00745788D01*
X00660134Y00747819D01*
X00660421Y00749998D01*
X00660339Y00750623D01*
X00686942Y00777227D01*
X00687819Y00776863D01*
X00689999Y00776576D01*
X00692178Y00776863D01*
X00694210Y00777705D01*
X00695954Y00779043D01*
X00697292Y00780787D01*
X00698134Y00782819D01*
X00698421Y00784998D01*
X00698134Y00787178D01*
X00697292Y00789209D01*
X00695954Y00790954D01*
X00694210Y00792292D01*
X00692178Y00793133D01*
X00689999Y00793420D01*
X00687819Y00793133D01*
X00685788Y00792292D01*
X00684043Y00790954D01*
X00682705Y00789209D01*
X00681863Y00787178D01*
X00681577Y00784998D01*
X00681863Y00782819D01*
X00682227Y00781942D01*
X00656983Y00756698D01*
X00656210Y00757292D01*
X00654178Y00758134D01*
X00653042Y00758283D01*
X00652302Y00759315D01*
X00652334Y00759475D01*
Y00814343D01*
X00653211Y00814706D01*
X00654955Y00816045D01*
X00656294Y00817789D01*
X00657135Y00819820D01*
X00657422Y00822000D01*
X00657135Y00824180D01*
X00656294Y00826211D01*
X00656253Y00826264D01*
X00656267Y00826314D01*
X00656362Y00826452D01*
Y00836098D01*
Y00844669D01*
X00654418Y00843864D01*
X00652561Y00842439D01*
X00652334Y00842143D01*
X00651064Y00842574D01*
Y00880000D01*
X00650000D01*
Y00910000D01*
X00653080D01*
X00652618Y00911114D01*
X00665901Y00924396D01*
X00729955D01*
X00731231Y00924650D01*
X00732313Y00925372D01*
X00738606Y00931666D01*
X00761425D01*
X00762070Y00931021D01*
X00763152Y00930298D01*
X00764428Y00930044D01*
X00764440D01*
X00765374Y00928774D01*
X00765128Y00927540D01*
X00764540D01*
Y00920000D01*
Y00912460D01*
X00769040D01*
Y00920764D01*
X00770022Y00921570D01*
X00771004Y00921374D01*
X00771500Y00920967D01*
Y00913000D01*
X00782472D01*
X00782525Y00912731D01*
X00783810Y00910809D01*
X00785021Y00910000D01*
X00790976D01*
X00792187Y00910809D01*
X00793471Y00912731D01*
X00793922Y00914998D01*
X00793795Y00915636D01*
X00794693Y00916664D01*
X00824239D01*
X00824810Y00915809D01*
X00826731Y00914525D01*
X00828998Y00914074D01*
X00831265Y00914525D01*
X00833187Y00915809D01*
X00834471Y00917731D01*
X00834922Y00919998D01*
X00834471Y00922265D01*
X00833896Y00923126D01*
X00834575Y00924396D01*
X00849889D01*
X00852228Y00922057D01*
X00851865Y00921180D01*
X00851578Y00919000D01*
X00851865Y00916820D01*
X00852706Y00914789D01*
X00854045Y00913045D01*
X00855789Y00911706D01*
X00856987Y00911210D01*
X00856746Y00910000D01*
X00863254D01*
X00863013Y00911210D01*
X00864211Y00911706D01*
X00865955Y00913045D01*
X00867294Y00914789D01*
X00868135Y00916820D01*
X00868422Y00919000D01*
X00868135Y00921180D01*
X00867294Y00923211D01*
X00865955Y00924955D01*
X00864211Y00926294D01*
X00863252Y00926691D01*
X00863505Y00927961D01*
X00875000D01*
X00875780Y00928116D01*
X00876442Y00928558D01*
X00876884Y00929220D01*
X00877039Y00930000D01*
Y00930600D01*
X00878900D01*
Y00942286D01*
X00888189D01*
X00891453Y00939023D01*
X00892535Y00938300D01*
X00893811Y00938046D01*
X00902570D01*
X00903846Y00938300D01*
X00904373Y00938652D01*
X00905442Y00937838D01*
X00905076Y00936000D01*
X00905527Y00933733D01*
X00906811Y00931811D01*
X00908733Y00930527D01*
X00911000Y00930076D01*
X00912008Y00930277D01*
X00913572Y00928713D01*
X00913086Y00927540D01*
X00904960D01*
Y00922540D01*
X00912000D01*
Y00920000D01*
X00914540D01*
Y00912460D01*
X00919040D01*
Y00921585D01*
X00920213Y00922071D01*
X00921500Y00920785D01*
Y00913000D01*
X00934500D01*
Y00916131D01*
X00934827Y00916293D01*
X00935770Y00916639D01*
X00937670Y00915852D01*
X00939850Y00915564D01*
X00942030Y00915852D01*
X00944061Y00916693D01*
X00945805Y00918031D01*
X00947144Y00919776D01*
X00947985Y00921807D01*
X00948272Y00923987D01*
X00947985Y00926166D01*
X00947144Y00928198D01*
X00945805Y00929942D01*
X00945053Y00930519D01*
X00944955Y00932045D01*
X00946294Y00933789D01*
X00947135Y00935820D01*
X00947422Y00938000D01*
X00947135Y00940180D01*
X00946294Y00942211D01*
X00944955Y00943955D01*
X00943211Y00945294D01*
X00941180Y00946135D01*
X00939000Y00946422D01*
X00936820Y00946135D01*
X00934789Y00945294D01*
X00933701Y00944459D01*
X00932563Y00945186D01*
X00932924Y00947000D01*
X00932920Y00947018D01*
X00933726Y00948000D01*
X00934500D01*
Y00962000D01*
X00923334D01*
Y00988000D01*
X00934500D01*
Y00991666D01*
X00936790D01*
X00938066Y00991920D01*
X00939147Y00992643D01*
X00947937Y01001432D01*
X00949110Y01000946D01*
Y00985040D01*
X00950000D01*
Y01005000D01*
X01025000D01*
Y00960000D01*
D02*
G37*
G36*
X00725000Y00930000D02*
X00650000D01*
Y01005000D01*
X00725000D01*
Y00930000D01*
D02*
G37*
%LPC*%
G36*
X00759460Y00927540D02*
X00754960D01*
Y00922540D01*
X00759460D01*
Y00927540D01*
D02*
G37*
G36*
Y00917460D02*
X00754960D01*
Y00912460D01*
X00759460D01*
Y00917460D01*
D02*
G37*
G36*
X00686460Y00738460D02*
X00680430D01*
X00681235Y00736517D01*
X00682660Y00734660D01*
X00684517Y00733235D01*
X00686460Y00732430D01*
Y00738460D01*
D02*
G37*
G36*
X00697570D02*
X00691540D01*
Y00732430D01*
X00693483Y00733235D01*
X00695340Y00734660D01*
X00696765Y00736517D01*
X00697570Y00738460D01*
D02*
G37*
G36*
X00950000Y00979960D02*
X00949110D01*
Y00959210D01*
X00950000D01*
X00950000Y00979960D01*
D02*
G37*
G36*
X00691540Y00749570D02*
Y00743540D01*
X00697570D01*
X00696765Y00745483D01*
X00695340Y00747340D01*
X00693483Y00748765D01*
X00691540Y00749570D01*
D02*
G37*
G36*
X00686460D02*
X00684517Y00748765D01*
X00682660Y00747340D01*
X00681235Y00745483D01*
X00680430Y00743540D01*
X00686460D01*
Y00749570D01*
D02*
G37*
G36*
X00909460Y00917460D02*
X00904960D01*
Y00912460D01*
X00909460D01*
Y00917460D01*
D02*
G37*
G36*
X00682460Y00833570D02*
X00680517Y00832765D01*
X00678660Y00831340D01*
X00677235Y00829483D01*
X00676430Y00827540D01*
X00682460D01*
Y00833570D01*
D02*
G37*
G36*
X00879760Y00589529D02*
X00879747Y00589527D01*
X00877368Y00588542D01*
X00875325Y00586974D01*
X00873758Y00584931D01*
X00872773Y00582553D01*
X00872771Y00582540D01*
X00879760D01*
Y00589529D01*
D02*
G37*
G36*
X00687540Y00833570D02*
Y00827540D01*
X00693570D01*
X00692765Y00829483D01*
X00691340Y00831340D01*
X00689483Y00832765D01*
X00687540Y00833570D01*
D02*
G37*
G36*
X00692460Y00867460D02*
X00686430D01*
X00687235Y00865517D01*
X00688660Y00863660D01*
X00690517Y00862235D01*
X00692460Y00861430D01*
Y00867460D01*
D02*
G37*
G36*
X00661442Y00844669D02*
Y00838638D01*
X00667472D01*
X00666667Y00840582D01*
X00665242Y00842439D01*
X00663385Y00843864D01*
X00661442Y00844669D01*
D02*
G37*
G36*
X00693570Y00822460D02*
X00687540D01*
Y00816430D01*
X00689483Y00817235D01*
X00691340Y00818660D01*
X00692765Y00820517D01*
X00693570Y00822460D01*
D02*
G37*
G36*
X00682460D02*
X00676430D01*
X00677235Y00820517D01*
X00678660Y00818660D01*
X00680517Y00817235D01*
X00682460Y00816430D01*
Y00822460D01*
D02*
G37*
G36*
X00692539Y00813569D02*
Y00807538D01*
X00698569D01*
X00697764Y00809482D01*
X00696339Y00811339D01*
X00694482Y00812764D01*
X00692539Y00813569D01*
D02*
G37*
G36*
X00667472Y00833558D02*
X00661442D01*
Y00827528D01*
X00663385Y00828333D01*
X00665242Y00829758D01*
X00666667Y00831615D01*
X00667472Y00833558D01*
D02*
G37*
G36*
X00687459Y00813569D02*
X00685515Y00812764D01*
X00683658Y00811339D01*
X00682233Y00809482D01*
X00681428Y00807538D01*
X00687459D01*
Y00813569D01*
D02*
G37*
G36*
X00673460Y00912570D02*
X00671517Y00911765D01*
X00669660Y00910340D01*
X00669398Y00910000D01*
X00673460D01*
Y00912570D01*
D02*
G37*
G36*
X00687459Y00802458D02*
X00681428D01*
X00682233Y00800515D01*
X00683658Y00798658D01*
X00685515Y00797233D01*
X00687459Y00796428D01*
Y00802458D01*
D02*
G37*
G36*
X00678540Y00912570D02*
Y00910000D01*
X00682602D01*
X00682340Y00910340D01*
X00680483Y00911765D01*
X00678540Y00912570D01*
D02*
G37*
G36*
X00739540Y00913570D02*
Y00910000D01*
X00744369D01*
X00743340Y00911340D01*
X00741483Y00912765D01*
X00739540Y00913570D01*
D02*
G37*
G36*
X00734460D02*
X00732517Y00912765D01*
X00730660Y00911340D01*
X00730260Y00910819D01*
X00729496Y00910000D01*
X00734460D01*
Y00913570D01*
D02*
G37*
G36*
X00692460Y00878570D02*
X00690517Y00877765D01*
X00688660Y00876340D01*
X00687235Y00874483D01*
X00686430Y00872540D01*
X00692460D01*
Y00878570D01*
D02*
G37*
G36*
X00703570Y00867460D02*
X00697540D01*
Y00861430D01*
X00699483Y00862235D01*
X00701340Y00863660D01*
X00702765Y00865517D01*
X00703570Y00867460D01*
D02*
G37*
G36*
X00697540Y00878570D02*
Y00872540D01*
X00703570D01*
X00702765Y00874483D01*
X00701340Y00876340D01*
X00699483Y00877765D01*
X00697540Y00878570D01*
D02*
G37*
G36*
X00698569Y00802458D02*
X00692539D01*
Y00796428D01*
X00694482Y00797233D01*
X00696339Y00798658D01*
X00697764Y00800515D01*
X00698569Y00802458D01*
D02*
G37*
G36*
X00718460Y00880000D02*
X00713631D01*
X00714660Y00878660D01*
X00716517Y00877235D01*
X00718460Y00876430D01*
Y00880000D01*
D02*
G37*
%LPD*%
D10*
X01033100Y00982500D02*
D03*
X01020400D02*
D03*
X01007700D02*
D03*
X00982300D02*
D03*
X00969600D02*
D03*
X00956900D02*
D03*
X00883100D02*
D03*
X00870400D02*
D03*
X00857700D02*
D03*
X00832300D02*
D03*
X00819600D02*
D03*
X00806900D02*
D03*
X00733100D02*
D03*
X00720400D02*
D03*
X00707700D02*
D03*
X00682300D02*
D03*
X00669600D02*
D03*
X00656900D02*
D03*
D11*
X00995000Y01084500D02*
D03*
X00845000D02*
D03*
X00695000D02*
D03*
D14*
X01060000Y00998000D02*
D03*
Y00982000D02*
D03*
X01015000Y00563000D02*
D03*
Y00547000D02*
D03*
X00995000Y00563000D02*
D03*
Y00547000D02*
D03*
X00975000Y00563000D02*
D03*
Y00547000D02*
D03*
X00955000Y00563000D02*
D03*
Y00547000D02*
D03*
X00935000Y00563000D02*
D03*
Y00547000D02*
D03*
D16*
X00912000Y00995000D02*
D03*
X00928000D02*
D03*
X00762000D02*
D03*
X00778000D02*
D03*
X00928000Y00920000D02*
D03*
X00912000D02*
D03*
X00928000Y00955000D02*
D03*
X00912000D02*
D03*
X00778000Y00920000D02*
D03*
X00762000D02*
D03*
X00778000Y00955000D02*
D03*
X00762000D02*
D03*
D25*
X00995000Y00736000D02*
D03*
Y00704000D02*
D03*
X00965000Y00736000D02*
D03*
Y00704000D02*
D03*
X00935000Y00736000D02*
D03*
Y00704000D02*
D03*
X00905000Y00736000D02*
D03*
Y00704000D02*
D03*
X00875000Y00736000D02*
D03*
Y00704000D02*
D03*
X00845000Y00736000D02*
D03*
Y00704000D02*
D03*
D31*
X00700200Y00955000D02*
G03*
X00690000Y00944800I00000000J-00010200D01*
G01*
X00850200Y00955000D02*
G03*
X00840000Y00944800I00000000J-00010200D01*
G01*
X00727999Y00807086D02*
Y00832999D01*
Y00807086D02*
X00735067Y00800018D01*
X00730000Y00857000D02*
Y00872000D01*
X00723000Y00850188D02*
Y00864834D01*
Y00850188D02*
X00738607Y00834581D01*
X00647730Y00834730D02*
Y00910940D01*
X00635000Y00822000D02*
X00647730Y00834730D01*
X00635000Y00780000D02*
Y00822000D01*
X00649000Y00759475D02*
Y00822000D01*
X00844549Y00652642D02*
Y00661605D01*
X00836905Y00669249D02*
X00844549Y00661605D01*
X00841009Y00652261D02*
Y00660139D01*
X00835439Y00665709D02*
X00841009Y00660139D01*
X00846918Y00669249D02*
X00862305D01*
X00848384Y00672789D02*
X00863771D01*
X00815609Y00656581D02*
X00860000Y00612191D01*
X00839838Y00676329D02*
X00846918Y00669249D01*
X00862305D02*
X00865883Y00665671D01*
X00863771Y00672789D02*
X00867311Y00669249D01*
X00815045Y00665709D02*
X00835439D01*
X00840466Y00651718D02*
X00841009Y00652261D01*
X00845451Y00665709D02*
X00860839D01*
X00870348Y00656200D01*
X00838371Y00672789D02*
X00845451Y00665709D01*
X00841304Y00679869D02*
X00848384Y00672789D01*
X00819444Y00676329D02*
X00839838D01*
X00820910Y00679869D02*
X00841304D01*
X00822376Y00683409D02*
X00888751D01*
X00811505Y00669249D02*
X00815045Y00665709D01*
X00816511Y00669249D02*
X00836905D01*
X00812971Y00672789D02*
X00816511Y00669249D01*
X00814438Y00676329D02*
X00817978Y00672789D01*
X00838371D01*
X00815904Y00679869D02*
X00819444Y00676329D01*
X00817370Y00683409D02*
X00820910Y00679869D01*
X00818837Y00686949D02*
X00822376Y00683409D01*
X00757920Y00730620D02*
Y00786080D01*
Y00730620D02*
X00768543Y00719997D01*
X00754380Y00728808D02*
X00765003Y00718185D01*
X00764920Y00734283D02*
Y00779080D01*
Y00734283D02*
X00777700Y00721503D01*
X00747300Y00723497D02*
Y00778089D01*
X00743460Y00719657D02*
X00747300Y00723497D01*
X00743840Y00781549D02*
X00747300Y00778089D01*
X00750840Y00722031D02*
Y00779555D01*
X00754380Y00728808D02*
Y00781022D01*
X00747000Y00718191D02*
X00750840Y00722031D01*
X00772390Y00731819D02*
Y00771610D01*
X00776854Y00732362D02*
Y00761471D01*
X00780920Y00733302D02*
Y00760531D01*
Y00733302D02*
X00788320Y00725902D01*
X00781240Y00693325D02*
Y00722969D01*
X00784780Y00695220D02*
Y00724436D01*
X00788320Y00697680D02*
Y00725902D01*
X00765003Y00694543D02*
Y00718185D01*
X00726447Y00793935D02*
Y00796447D01*
X00643999Y00629999D02*
X00655808D01*
X00647465Y00645999D02*
X00652999D01*
X00642649Y00647840D02*
X00659000Y00664191D01*
X00784650Y01003131D02*
X00797730Y00990051D01*
X00784650Y01003131D02*
Y01042349D01*
X00902367Y00847380D02*
X00907067Y00852080D01*
X00861905Y00843905D02*
X00865380Y00847380D01*
X00902367D01*
X00920620Y00864620D02*
X00921998Y00865998D01*
X00842430Y00864620D02*
X00920620D01*
X00835378Y00857569D02*
X00842430Y00864620D01*
X00835378Y00833931D02*
X00835900Y00833409D01*
X00651999Y00749998D02*
X00654999D01*
X00689999Y00784998D01*
X00767620Y00567680D02*
X00793921Y00541379D01*
X00806297Y00546700D02*
X00863300D01*
X00742537Y00610460D02*
X00806297Y00546700D01*
X00990998Y00876998D02*
Y00931998D01*
X00982270Y00874270D02*
Y00941374D01*
X01037540Y00957730D02*
X01040620Y00960810D01*
X00998626Y00957730D02*
X01037540D01*
X00982270Y00941374D02*
X00998626Y00957730D01*
X00645428Y00616379D02*
X00713425D01*
X00651868Y00612000D02*
X00712797D01*
X00656620Y00606620D02*
X00709380D01*
X00648000Y00598000D02*
X00656620Y00606620D01*
X00784770Y00918227D02*
X00787998Y00914998D01*
X00800000Y00877000D02*
X00816660D01*
X00792270Y00869270D02*
X00800000Y00877000D01*
X00792270Y00856850D02*
Y00869270D01*
X00739148Y00525000D02*
X00757000D01*
X00733839Y00519691D02*
X00739148Y00525000D01*
X00635000Y00535000D02*
X00648000Y00548000D01*
Y00598000D01*
X00709380Y00606620D02*
X00726491Y00589509D01*
X00739409D01*
X00755918Y00573000D01*
X00759000D01*
X00764809Y00645188D02*
X00770999Y00638999D01*
X00771191Y00652261D02*
X00785832Y00637620D01*
X00752428Y00620379D02*
X00788569D01*
X00757378Y00640428D02*
X00768807Y00629000D01*
X00785832Y00637620D02*
X00788570D01*
X00788569Y00620379D02*
X00793620Y00625429D01*
X00788570Y00637620D02*
X00793620Y00632570D01*
Y00625429D02*
Y00632570D01*
X00768807Y00629000D02*
X00785000D01*
X00739754Y00614000D02*
X00834000D01*
X00840000Y00620000D01*
X00747378Y00625428D02*
X00752428Y00620379D01*
X00745791Y00652261D02*
X00757378Y00640674D01*
X00764809Y00645188D02*
Y00660139D01*
X00757378Y00640428D02*
Y00640674D01*
X00771191Y00652261D02*
Y00662809D01*
X00734809Y00642000D02*
X00747378Y00629431D01*
Y00625428D02*
Y00629431D01*
X00755999Y00628999D02*
Y00633002D01*
X00742309Y00646691D02*
X00755999Y00633002D01*
X00987424Y00647691D02*
X00999791Y00660057D01*
X00983900Y00647691D02*
X00987424D01*
X01072000Y00857000D02*
X01075000Y00854000D01*
X01072000Y00851000D02*
Y00857000D01*
Y00851000D02*
X01075000Y00854000D01*
X01072000Y00851000D02*
Y00851000D01*
X01018000Y00797000D02*
X01072000Y00851000D01*
X00842570Y00759620D02*
X00846592Y00755598D01*
X00832000Y00528000D02*
X00838000Y00534000D01*
X00682650Y00681031D02*
X00727727Y00726108D01*
X00693200Y00892000D02*
X00762000D01*
X00761461Y00714999D02*
X00761463Y00715000D01*
X00758230Y00711767D02*
X00761461Y00714999D01*
X00891809Y00564109D02*
X01013891D01*
X00769998Y00539901D02*
X00806100Y00503800D01*
X00769998Y00539901D02*
Y00552999D01*
X00759239Y00665709D02*
X00764809Y00660139D01*
X00727920Y00672482D02*
X00731482Y00668920D01*
X00727920Y00672482D02*
Y00677518D01*
X00747000Y00671000D02*
Y00718191D01*
Y00671000D02*
X00748751Y00669249D01*
X00764751D01*
X00771191Y00662809D01*
X00743460Y00684460D02*
Y00719657D01*
X00734000Y00675000D02*
X00743460Y00684460D01*
X00735305Y00618449D02*
X00739754Y00614000D01*
X00716361Y00618449D02*
X00735305D01*
X00738288Y00610460D02*
X00742537D01*
X00733839Y00614909D02*
X00738288Y00610460D01*
X00725961Y00614909D02*
X00733839D01*
X00745791Y00652261D02*
Y00660139D01*
X00715994Y00642000D02*
X00734809D01*
X00721512Y00610460D02*
X00725961Y00614909D01*
X00705999Y00657001D02*
X00716309Y00646691D01*
X00689999Y00644811D02*
X00716361Y00618449D01*
X00719343Y00610460D02*
X00721512D01*
X00728380Y00606920D02*
X00753680Y00581620D01*
X00717877Y00606920D02*
X00728380D01*
X00712797Y00612000D02*
X00717877Y00606920D01*
X00713425Y00616379D02*
X00719343Y00610460D01*
X00705999Y00657001D02*
Y00665999D01*
X00734000Y00683598D02*
Y00715203D01*
X00743540Y00724743D01*
X00738607Y00747596D02*
Y00834581D01*
X00730000Y00726108D02*
Y00726889D01*
X00727727Y00726108D02*
X00730000D01*
X00726447Y00793935D02*
X00731527Y00788855D01*
Y00744663D02*
Y00788855D01*
X00747380Y00783015D02*
X00750840Y00779555D01*
X00747380Y00783015D02*
Y00807380D01*
X00750920Y00789518D02*
X00757000Y00795598D01*
X00750920Y00784482D02*
Y00789518D01*
Y00784482D02*
X00754380Y00781022D01*
X00757000Y00787000D02*
X00757920Y00786080D01*
X00757000Y00795598D02*
Y00797000D01*
X00764000Y00780000D02*
X00764920Y00779080D01*
X00771000Y00773000D02*
X00772390Y00771610D01*
X00763379Y00789220D02*
X00777080Y00775518D01*
Y00761697D02*
Y00775518D01*
X00767620Y00567680D02*
Y00576571D01*
X00753680Y00581620D02*
X00762570D01*
X00767620Y00576571D01*
X00768543Y00696010D02*
Y00719997D01*
X00755999Y00714999D02*
X00761461D01*
X00776854Y00732362D02*
X00784780Y00724436D01*
X00772390Y00731819D02*
X00781240Y00722969D01*
X00777700Y00691859D02*
Y00721503D01*
X00757000Y00837000D02*
X00763379Y00843379D01*
X00806998Y00795005D02*
Y00838998D01*
X00835378Y00833931D02*
Y00857569D01*
X00780920Y00760531D02*
X00788695Y00768306D01*
X00776854Y00761471D02*
X00777080Y00761697D01*
X00827280Y00759601D02*
Y00774280D01*
X00798617Y00753380D02*
X00821059D01*
X00796998Y00754998D02*
X00798617Y00753380D01*
X00821059D02*
X00827280Y00759601D01*
X00802000Y00747000D02*
X00822810D01*
X00835430Y00759620D01*
X00827280Y00774280D02*
X00856378Y00803378D01*
X00882378D01*
X00846592Y00755598D02*
X00902534Y00811540D01*
X00846592Y00755598D02*
Y00755598D01*
X00835430Y00759620D02*
X00842570D01*
X00647730Y00910940D02*
X00664520Y00927730D01*
X01002080Y00900080D02*
X01011998Y00909998D01*
X00904000Y00808000D02*
X00920809D01*
X00847000Y00751000D02*
X00904000Y00808000D01*
X00902903Y00823903D02*
X00910428Y00816378D01*
X00882378Y00803378D02*
X00902903Y00823903D01*
X00876998Y00811998D02*
X00910000Y00845000D01*
X00978380Y00827620D02*
X00983000Y00823000D01*
X00927534Y00836540D02*
X00955546D01*
X00915998Y00830998D02*
X00926000Y00841000D01*
X00955000D01*
X01011428Y00899618D02*
X01014618D01*
X01006378Y00894569D02*
X01011428Y00899618D01*
X01006378Y00870569D02*
Y00894569D01*
X01014618Y00899618D02*
X01030000Y00915000D01*
X01014998Y00890998D02*
X01015998D01*
X01020998Y00895998D01*
X00953000Y00845000D02*
X00982270Y00874270D01*
X01030000Y00915000D02*
Y00930000D01*
X01020998Y00895998D02*
X01025000Y00891996D01*
X00939850Y00923987D02*
Y00929146D01*
X00911000Y00936000D02*
X00927000Y00920000D01*
X00899000Y00950000D02*
Y01032000D01*
X00927000Y00920000D02*
X00928000D01*
X00925966Y00934429D02*
X00930380D01*
X00927402Y00938000D02*
X00939000D01*
X00955000Y00841000D02*
X00990998Y00876998D01*
X00910000Y00845000D02*
X00953000D01*
X00943540Y00848540D02*
X00962000Y00867000D01*
X00908534Y00848540D02*
X00943540D01*
X00897992Y00837998D02*
X00908534Y00848540D01*
X00921080Y00852080D02*
X00928000Y00859000D01*
X00907067Y00852080D02*
X00921080D01*
X00939616Y00929380D02*
X00939850Y00929146D01*
X00935430Y00929380D02*
X00939616D01*
X00930380Y00934429D02*
X00935430Y00929380D01*
X00933100Y00656200D02*
X00978300Y00611000D01*
X01021000D01*
X01050591Y00485000D02*
Y00626600D01*
X01054131Y00575869D02*
Y00648721D01*
X01028570Y00648620D02*
X01050591Y00626600D01*
Y00652261D02*
X01054131Y00648721D01*
X01033000Y00540948D02*
Y00557710D01*
X01020940Y00569770D02*
X01033000Y00557710D01*
X01006082Y00569770D02*
X01020940D01*
X00806900Y00630000D02*
X00820000D01*
X00780700Y00656200D02*
X00806900Y00630000D01*
X00858620Y00621380D02*
X00875000Y00605000D01*
X00860000Y00570000D02*
Y00612191D01*
X00815609Y00656581D02*
Y00660139D01*
X00810039Y00665709D02*
X00815609Y00660139D01*
X00788831Y00665709D02*
X00810039D01*
X00758230Y00696310D02*
Y00711767D01*
X00928000Y00859000D02*
X00935000D01*
X00983000Y00823000D02*
X00985620Y00825620D01*
X01001571D01*
X00970380Y00808380D02*
X01001571D01*
X01006650Y00813460D01*
X00839000Y00751000D02*
X00847000D01*
X01074460Y01054423D02*
Y01056540D01*
X01071000Y01060000D02*
X01074460Y01056540D01*
X01064429Y01068620D02*
X01071571D01*
X01059380Y01063570D02*
X01064429Y01068620D01*
X01068000Y01060000D02*
X01071000D01*
X00902416Y01054883D02*
X00914923D01*
X00839000Y00742000D02*
Y00751000D01*
X00888751Y00683409D02*
X00890000Y00682160D01*
X00840466Y00651718D02*
X00841009Y00651175D01*
X00840466Y00651718D02*
X00840466D01*
X00841009Y00643991D02*
Y00651175D01*
X00867311Y00669249D02*
X00887705D01*
X00865883Y00665671D02*
X00878323D01*
X00692540Y00481460D02*
X01061466D01*
X00666187Y00507813D02*
X00692540Y00481460D01*
X00647345Y00507813D02*
X00666187D01*
X00669647Y00511353D02*
X00696000Y00485000D01*
X00645271Y00511353D02*
X00669647D01*
X00689999Y00644811D02*
Y00651999D01*
X00671999Y00664999D02*
Y00710805D01*
X00672000Y00710807D01*
X00628880Y00643000D02*
X00635609Y00649729D01*
X00631839Y00624962D02*
X00635000Y00621801D01*
Y00595132D02*
Y00621801D01*
Y00595132D02*
X00651868Y00612000D01*
X00621729Y00639000D02*
X00629886D01*
X00617649Y00643000D02*
X00628880D01*
X00640721Y00501189D02*
X00647345Y00507813D01*
X00645271Y00510746D02*
Y00511353D01*
X00621189Y00508811D02*
Y00638460D01*
X00649999Y00525999D02*
X00656307Y00519691D01*
X00733839D01*
X00643379Y00753853D02*
X00649000Y00759475D01*
X00643379Y00746279D02*
Y00753853D01*
Y00746279D02*
X00646379Y00743279D01*
Y00736428D02*
Y00743279D01*
X00649999Y00708999D02*
X00654139Y00704858D01*
X00651428Y00731378D02*
X00651628D01*
X00662540Y00720466D01*
X00650162Y00727839D02*
X00659000Y00719000D01*
X00649962Y00727839D02*
X00650162D01*
X00646379Y00736428D02*
X00651428Y00731378D01*
X00642839Y00734962D02*
X00649962Y00727839D01*
X00642839Y00734962D02*
Y00735161D01*
X00662540Y00720267D02*
Y00720466D01*
Y00720267D02*
X00672000Y00710807D01*
X00637868Y00740132D02*
X00642839Y00735161D01*
X00635000Y00740132D02*
X00637868D01*
X00621189Y00638460D02*
X00621729Y00639000D01*
X00682650Y00681031D02*
Y00681731D01*
X01022270Y00535224D02*
Y00552440D01*
X01020940Y00553770D02*
X01022270Y00552440D01*
X01015000Y00553770D02*
X01020940D01*
X01015000D02*
Y00563000D01*
X00793921Y00541379D02*
X00869079D01*
X00863998Y00547398D02*
Y00549999D01*
X00863300Y00546700D02*
X00863998Y00547398D01*
X00838000Y00534000D02*
X00881000D01*
X00829000Y00531000D02*
X00832000Y00528000D01*
X00863570Y00561380D02*
X00872190Y00570000D01*
X00856430Y00561380D02*
X00863570D01*
X00735067Y00746129D02*
Y00800018D01*
X01029000Y00845000D02*
X01057998Y00873998D01*
X01009000Y00845000D02*
X01029000D01*
X01001571Y00825620D02*
X01006650Y00820540D01*
X01013000Y00797000D02*
X01018000D01*
X01000380Y00827694D02*
Y00848570D01*
X01062847Y00889000D02*
X01067000D01*
X00969998Y00807998D02*
X00970380Y00808380D01*
X00909997Y01042997D02*
Y01042998D01*
X00905342Y01051342D02*
X00913457D01*
X00883100Y00982500D02*
X00883100Y01029100D01*
X00875998Y00837998D02*
X00897992D01*
X00847810Y00570000D02*
X00856430Y00561380D01*
X00763379Y00849551D02*
X00766197Y00852369D01*
X00763379Y00843379D02*
Y00849551D01*
X00846000Y00856000D02*
X00880000D01*
X00835900Y00833409D02*
X00838229D01*
X00745600Y00995000D02*
X00762000D01*
X01033100Y00982500D02*
X01048600Y00998000D01*
X01060000D01*
X00912000Y00897000D02*
Y00920000D01*
X00910200Y00895200D02*
X00912000Y00897000D01*
X00869079Y00541379D02*
X00891809Y00564109D01*
X00845000Y00736000D02*
X00875000D01*
X00905000D01*
X00935000D01*
X00965000D01*
X00995000D01*
X00757000Y00807000D02*
X00763379Y00800621D01*
X00983900Y00503800D02*
X00994165Y00493535D01*
X00841009Y00643991D02*
X00850000Y00635000D01*
X00844549Y00652642D02*
X00858620Y00638571D01*
Y00621380D02*
Y00638571D01*
X00870348Y00656200D02*
X00882300D01*
X00891809Y00618188D02*
X00909998Y00599999D01*
X00974700Y00640000D02*
X01025000D01*
X00958500Y00656200D02*
X00974700Y00640000D01*
X01016880Y00648620D02*
X01028570D01*
X01009300Y00656200D02*
X01016880Y00648620D01*
X01061466Y00481460D02*
X01069609Y00489603D01*
Y00559609D01*
X01070000Y00560000D01*
X01054131Y00575869D02*
X01070000Y00560000D01*
X01050591Y00652261D02*
Y00653757D01*
X01038639Y00665709D02*
X01050591Y00653757D01*
X01005361Y00665709D02*
X01038639D01*
X00999791Y00660139D02*
X01005361Y00665709D01*
X00999791Y00660057D02*
Y00660139D01*
X00983900Y00647691D02*
Y00656200D01*
X00762000Y00892000D02*
Y00920000D01*
X00763379Y00789220D02*
Y00800621D01*
X00911639Y00665709D02*
X00917209Y00660139D01*
Y00658643D02*
Y00660139D01*
Y00658643D02*
X01006082Y00569770D01*
X00891809Y00618188D02*
Y00652191D01*
Y00652261D02*
Y00660139D01*
X00891774Y00652226D02*
X00891809Y00652261D01*
X00891774Y00652226D02*
X00891774D01*
X00891809Y00652191D01*
X00878323Y00665671D02*
X00878361Y00665709D01*
X00886239D01*
X00887705Y00669249D02*
X00891245Y00665709D01*
X00911639D01*
X00886239D02*
X00891809Y00660139D01*
X00918618Y00603618D02*
X00926000Y00611000D01*
X00918618Y00596428D02*
Y00603618D01*
X00911699Y00589509D02*
X00918618Y00596428D01*
X00903761Y00589509D02*
X00911699D01*
X00891809Y00577557D02*
X00903761Y00589509D01*
X00891809Y00576061D02*
Y00577557D01*
X00885748Y00570000D02*
X00891809Y00576061D01*
X00872190Y00570000D02*
X00885748D01*
X00805000D02*
X00847810D01*
X00839000Y00742000D02*
X00845000Y00736000D01*
X01060000Y00969540D02*
Y00982000D01*
X00639254Y00504729D02*
X00645271Y00510746D01*
X00621189Y00508811D02*
X00625271Y00504729D01*
X00639254D01*
X00617649Y00507345D02*
X00623805Y00501189D01*
X00617649Y00507345D02*
Y00643000D01*
X00623805Y00501189D02*
X00640721D01*
X00910428Y00816378D02*
X00917569D01*
X00902534Y00811540D02*
X00918540D01*
X00940000Y00833000D02*
X00957013D01*
X00921090Y00830097D02*
X00922618Y00828569D01*
X00921090Y00830097D02*
X00927534Y00836540D01*
X00917569Y00816378D02*
X00922618Y00821428D01*
Y00828569D01*
X00918540Y00811540D02*
X00940000Y00833000D01*
X00949620Y00827620D02*
X00978380D01*
X00935620Y00813620D02*
X00949620Y00827620D01*
X00920809Y00808000D02*
X00926430Y00813620D01*
X00935620D01*
X00798998Y00767999D02*
Y00770807D01*
X00795081Y00761918D02*
X00814578D01*
X00816660Y00764000D01*
X00788695Y00768306D02*
X00795081Y00761918D01*
X00791998Y00773998D02*
Y00779998D01*
X00798998Y00770807D02*
X00807000Y00778809D01*
X00806998Y00795005D02*
X00807000Y00795003D01*
Y00778809D02*
Y00795003D01*
X00791998Y00779998D02*
X00803460Y00791460D01*
Y00793537D01*
X00803458Y00793538D02*
X00803460Y00793537D01*
X00803458Y00793538D02*
Y00833940D01*
X00800918Y00836480D02*
X00803458Y00833940D01*
X00800918Y00836480D02*
Y00841517D01*
X00804000Y00844598D01*
X00730000Y00726889D02*
X00736080Y00732970D01*
Y00740110D01*
X00731527Y00744663D02*
X00736080Y00740110D01*
X00740000Y00729000D02*
Y00741197D01*
X00735067Y00746129D02*
X00740000Y00741197D01*
X00743540Y00724743D02*
Y00742663D01*
X00738607Y00747596D02*
X00743540Y00742663D01*
X00743840Y00781549D02*
Y00843160D01*
X00730000Y00857000D02*
X00743840Y00843160D01*
X00747380Y00807380D02*
X00757000Y00817000D01*
X00778000Y00995000D02*
Y01036809D01*
X00776030Y01038779D02*
X00778000Y01036809D01*
X00776030Y01038779D02*
Y01045920D01*
X00777578Y01047468D01*
X00777578D02*
X00777578D01*
X00777578D02*
X00777620Y01047510D01*
X00889570Y00945620D02*
X00893811Y00941380D01*
X00914752Y00952249D02*
X00915230Y00951770D01*
X00912000Y00948395D02*
Y00955000D01*
Y00948395D02*
X00925966Y00934429D01*
X00893811Y00941380D02*
X00902570D01*
X00907620Y00946430D01*
Y00950620D01*
X00912000Y00955000D01*
X00840820Y00945620D02*
X00889570D01*
X00840000Y00944800D02*
X00840820Y00945620D01*
X00743998Y00954989D02*
X00744005Y00954995D01*
X00743998Y00954989D02*
X00744000Y00954987D01*
Y00949000D02*
Y00954987D01*
X00654139Y00664614D02*
Y00704858D01*
X00659000Y00664191D02*
Y00719000D01*
X00691270Y00680270D02*
X00740000Y00729000D01*
X00727920Y00677518D02*
X00734000Y00683598D01*
X00745227Y00665709D02*
X00759239D01*
X00742016Y00668920D02*
X00745227Y00665709D01*
X00731482Y00668920D02*
X00742016D01*
X00716309Y00646691D02*
X00742309D01*
X00743470Y00662460D02*
X00745791Y00660139D01*
X00729900Y00656200D02*
X00736160Y00662460D01*
X00743470D01*
X01000378Y00848572D02*
X01000380Y00848570D01*
X01000378Y00848572D02*
Y00864569D01*
X00955546Y00836540D02*
X00998540Y00879534D01*
Y00923540D01*
X00957013Y00833000D02*
X01002080Y00878067D01*
Y00900080D01*
X01025000Y00877000D02*
Y00891996D01*
X01008998Y00860998D02*
X01025000Y00877000D01*
X01000378Y00864569D02*
X01006378Y00870569D01*
X01000380Y00827694D02*
X01007534Y00820540D01*
X01006650D02*
X01007534D01*
X00998000Y00817000D02*
X01018000D01*
X01006650Y00813460D02*
X01019466D01*
X00787789Y00852369D02*
X00792270Y00856850D01*
X00766197Y00852369D02*
X00787789D01*
X00804000Y00844598D02*
Y00858997D01*
X00798998Y00863998D02*
X00804000Y00858997D01*
X00816660Y00764000D02*
Y00877000D01*
X00843998Y00853998D02*
X00846000Y00856000D01*
X00914000Y00832997D02*
X00915998Y00830998D01*
X00913427Y00825570D02*
Y00832423D01*
X00914000Y00832997D01*
X00920000Y00945402D02*
X00927402Y00938000D01*
X00923998Y01050814D02*
Y01057998D01*
X00935116Y01034690D02*
X00935540D01*
X00914923Y01054883D02*
X00935116Y01034690D01*
X00733100Y00982500D02*
X00745600Y00995000D01*
X00700200Y00955000D02*
X00762000D01*
X00744000Y00949000D02*
X00756000D01*
X00762000Y00955000D01*
X00767999Y00941998D02*
X00769000Y00943000D01*
Y01069000D01*
X00778000Y00948997D02*
X00778998Y00947998D01*
X00778000Y00948997D02*
Y00955000D01*
X00927000Y00947000D02*
Y00954000D01*
X00928000Y00955000D01*
X00923998Y01050814D02*
X00936582Y01038230D01*
X00913457Y01051342D02*
X00932000Y01032799D01*
X00928000Y00995000D02*
X00936790D01*
X00949060Y01007270D01*
X00920000Y00945402D02*
Y01001000D01*
X00935540Y01016540D01*
Y01034690D01*
X00932000Y01018006D02*
Y01032799D01*
X00912000Y00998006D02*
X00932000Y01018006D01*
X00912000Y00995000D02*
Y00998006D01*
X01066000Y00990000D02*
X01068000Y00992000D01*
X00949060Y01007270D02*
X01064730D01*
X01068000Y01004000D01*
Y00992000D02*
Y01004000D01*
X01040620Y00960810D02*
Y00976620D01*
X01054000Y00990000D01*
X01066000D01*
X00898000Y01133000D02*
X00902416Y01128584D01*
Y01054883D02*
Y01128584D01*
X00777620Y01047510D02*
Y01119620D01*
X00791000Y01133000D01*
X00898000D01*
X00664520Y00927730D02*
X00729955D01*
X00737225Y00935000D01*
X00762806D01*
X00652663Y00633619D02*
X00654422D01*
X00635379Y00626428D02*
X00645428Y00616379D01*
X00631839Y00624962D02*
Y00635036D01*
X00635379Y00626428D02*
Y00633569D01*
X00640428Y00638619D01*
X00647663D01*
X00652663Y00633619D01*
X00631839Y00635036D02*
X00639452Y00642649D01*
X00644116D01*
X00647465Y00645999D01*
X00639254Y00649729D02*
X00654139Y00664614D01*
X00635609Y00649729D02*
X00639254D01*
X00629886Y00639000D02*
X00637076Y00646189D01*
X00640721D01*
X00642371Y00647840D01*
X00642649D01*
X00994165Y00493535D02*
X01012483D01*
X00696000Y00485000D02*
X01050591D01*
X01062847Y00889000D02*
X01072270Y00898423D01*
Y00908404D01*
X01071571Y01068620D02*
X01079540Y01060650D01*
X01019466Y00813460D02*
X01079540Y00873534D01*
X01074460Y01054423D02*
X01076000Y01052883D01*
X01018000Y00817000D02*
X01076000Y00875000D01*
X01079540Y00873534D02*
Y01060650D01*
X01076000Y00875000D02*
Y01052883D01*
X01060000Y00969540D02*
X01072270Y00957270D01*
X01072270Y00908404D02*
X01072270Y00908404D01*
Y00957270D01*
X00936582Y01038230D02*
X01052230D01*
X01059380Y01045380D01*
Y01063570D01*
X00909398Y01042398D02*
X00909997Y01042997D01*
X00883100Y01029100D02*
X00890000Y01036000D01*
X00900779Y01046778D02*
X00905342Y01051342D01*
X00890000Y01036000D02*
X00898000D01*
X00900779Y01038779D01*
Y01046778D01*
X00899000Y01032000D02*
X00899460Y01032460D01*
X00899466D01*
X00904318Y01037312D01*
Y01037318D01*
X00909997Y01042998D01*
X01012483Y00493535D02*
X01024000Y00505052D01*
Y00531948D01*
X01033000Y00540948D01*
X01009300Y00503800D02*
X01020460Y00514960D01*
Y00533414D01*
X01022270Y00535224D01*
X00788320Y00697680D02*
X00799051Y00686949D01*
X00818837D01*
X00784780Y00695220D02*
X00796591Y00683409D01*
X00817370D01*
X00781240Y00693325D02*
X00794696Y00679869D01*
X00815904D01*
X00777700Y00691859D02*
X00793230Y00676329D01*
X00814438D01*
X00768543Y00696010D02*
X00791763Y00672789D01*
X00812971D01*
X00765003Y00694543D02*
X00790297Y00669249D01*
X00811505D01*
X00758230Y00696310D02*
X00788831Y00665709D01*
X00851270Y00927730D02*
X00860000Y00919000D01*
X00797730Y00929060D02*
Y00990051D01*
Y00929060D02*
X00799060Y00927730D01*
X00851270D01*
X00792998Y00919998D02*
X00828998D01*
X00787998Y00914998D02*
X00792998Y00919998D01*
X00771004Y00926996D02*
X00778000Y00920000D01*
X00771004Y00926996D02*
Y00927298D01*
X00784770Y00918227D02*
Y00928230D01*
X00779622Y00933378D02*
X00784770Y00928230D01*
X00762806Y00935000D02*
X00764428Y00933378D01*
X00779622D01*
X00654422Y00633619D02*
X00691270Y00670467D01*
Y00680270D01*
X00686428Y00660619D02*
X00697375D01*
X00655808Y00629999D02*
X00686428Y00660619D01*
X00697375D02*
X00715994Y00642000D01*
D32*
X00729900Y00554600D02*
D03*
X01060100Y00503800D02*
D03*
X00729900Y00529200D02*
D03*
X00907700Y00580000D02*
D03*
X00882300D02*
D03*
X00907700Y00554600D02*
D03*
X00882300D02*
D03*
X00933100Y00529200D02*
D03*
X00958500D02*
D03*
X00983900D02*
D03*
X01034700D02*
D03*
Y00503800D02*
D03*
X01009300D02*
D03*
X00983900D02*
D03*
X00958500D02*
D03*
X00933100D02*
D03*
X00907700D02*
D03*
X00882300D02*
D03*
X00856900D02*
D03*
X00831500D02*
D03*
X00806100D02*
D03*
X00780700D02*
D03*
X00755300D02*
D03*
X00729900D02*
D03*
Y00580000D02*
D03*
Y00605400D02*
D03*
Y00630800D02*
D03*
Y00656200D02*
D03*
X00755300D02*
D03*
X00780700D02*
D03*
X00806100D02*
D03*
X00831500D02*
D03*
X00856900D02*
D03*
X00882300D02*
D03*
X00907700D02*
D03*
X00933100D02*
D03*
X00958500D02*
D03*
X00983900D02*
D03*
X01009300D02*
D03*
X01034700D02*
D03*
X01060100D02*
D03*
D33*
X00635000Y00905066D02*
D03*
Y00885000D02*
D03*
Y00865000D02*
D03*
Y00845000D02*
D03*
Y00660000D02*
D03*
Y00680000D02*
D03*
Y00700000D02*
D03*
Y00780000D02*
D03*
Y00720066D02*
D03*
Y00740132D02*
D03*
Y00760000D02*
D03*
Y00535000D02*
D03*
Y00575066D02*
D03*
Y00595132D02*
D03*
Y00515000D02*
D03*
Y00555000D02*
D03*
D34*
X00727999Y00832999D02*
D03*
X00721000Y00885000D02*
D03*
X00676000Y00904000D02*
D03*
X00649000Y00822000D02*
D03*
X00726447Y00796447D02*
D03*
X00652999Y00645999D02*
D03*
X00695000Y00870000D02*
D03*
X00990998Y00931998D02*
D03*
X00757000Y00525000D02*
D03*
X00770999Y00638999D02*
D03*
X00785000Y00629000D02*
D03*
X00755999Y00628999D02*
D03*
X00769998Y00552999D02*
D03*
X00759000Y00573000D02*
D03*
X00755999Y00714999D02*
D03*
X00825000Y00733000D02*
D03*
X00876998Y00811998D02*
D03*
X01011998Y00909998D02*
D03*
X01014998Y00890998D02*
D03*
X01002804Y00924430D02*
D03*
X00939850Y00923987D02*
D03*
X00899000Y00950000D02*
D03*
X00939000Y00938000D02*
D03*
X01021000Y00611000D02*
D03*
X01038000Y00598000D02*
D03*
X01009000Y00525000D02*
D03*
X00840000Y00620000D02*
D03*
X00820000Y00630000D02*
D03*
X00875000Y00605000D02*
D03*
X00825000Y00703000D02*
D03*
X00921000Y00895000D02*
D03*
X00921998Y00865998D02*
D03*
X00958000Y00819000D02*
D03*
X00983000Y00764000D02*
D03*
X00946000Y00751000D02*
D03*
X01069000Y00807000D02*
D03*
X00921000Y01158000D02*
D03*
X00771000Y01157000D02*
D03*
X00612000Y00907000D02*
D03*
X01068000Y01060000D02*
D03*
X00632000Y00953000D02*
D03*
X00737000Y00905000D02*
D03*
X00620315Y00831400D02*
D03*
X00839000Y00751000D02*
D03*
X00689999Y00651999D02*
D03*
X00671999Y00664999D02*
D03*
X00676000Y00598000D02*
D03*
X00643999Y00629999D02*
D03*
X00649000Y00496000D02*
D03*
X00649999Y00525999D02*
D03*
X00651999Y00749998D02*
D03*
X00649999Y00708999D02*
D03*
X00682650Y00681731D02*
D03*
X00907235Y00533517D02*
D03*
X00863998Y00549999D02*
D03*
X00881000Y00534000D02*
D03*
X00829000Y00531000D02*
D03*
X00860000Y00570000D02*
D03*
X00689000Y00741000D02*
D03*
X00727460Y00736540D02*
D03*
X01057998Y00873998D02*
D03*
X01072000Y00851000D02*
D03*
X01009000Y00845000D02*
D03*
X01067000Y00889000D02*
D03*
X01013000Y00797000D02*
D03*
X00998000Y00817000D02*
D03*
X00969998Y00807998D02*
D03*
X00861905Y00843905D02*
D03*
X00923998Y01057998D02*
D03*
X00962000Y00867000D02*
D03*
X00875998Y00837998D02*
D03*
X00705999Y00665999D02*
D03*
X00880000Y00856000D02*
D03*
X00835900Y00833409D02*
D03*
X00935000Y00859000D02*
D03*
X00658902Y00836098D02*
D03*
X00689999Y00804998D02*
D03*
X00685000Y00825000D02*
D03*
X00689999Y00784998D02*
D03*
X01045000Y00930000D02*
D03*
X01030000Y00945000D02*
D03*
Y00930000D02*
D03*
X01060000D02*
D03*
Y00945000D02*
D03*
X01045000D02*
D03*
X00655000Y01115000D02*
D03*
Y01100000D02*
D03*
X00670000Y01115000D02*
D03*
Y01100000D02*
D03*
X00685000D02*
D03*
Y01115000D02*
D03*
X00700000Y01100000D02*
D03*
Y01115000D02*
D03*
X00715000D02*
D03*
Y01100000D02*
D03*
X00865000D02*
D03*
Y01115000D02*
D03*
X00850000D02*
D03*
Y01100000D02*
D03*
X00835000Y01115000D02*
D03*
Y01100000D02*
D03*
X00820000D02*
D03*
Y01115000D02*
D03*
X00805000Y01100000D02*
D03*
Y01115000D02*
D03*
X01015000Y01100000D02*
D03*
Y01115000D02*
D03*
X01000000D02*
D03*
Y01100000D02*
D03*
X00985000Y01115000D02*
D03*
Y01100000D02*
D03*
X00970000D02*
D03*
Y01115000D02*
D03*
X00955000Y01100000D02*
D03*
Y01115000D02*
D03*
X00850000Y00635000D02*
D03*
X00909998Y00599999D02*
D03*
X01025000Y00640000D02*
D03*
X00890000Y00682160D02*
D03*
X00926000Y00611000D02*
D03*
X00805000Y00570000D02*
D03*
X01008998Y00860998D02*
D03*
X00913427Y00825570D02*
D03*
X00930000Y00805000D02*
D03*
X00784650Y01042349D02*
D03*
X00769000Y01069000D02*
D03*
X00767999Y00941998D02*
D03*
X00744000Y00949000D02*
D03*
X00765000Y00866000D02*
D03*
X00843998Y00853998D02*
D03*
X00835000Y00897000D02*
D03*
X00909398Y01042398D02*
D03*
X00860000Y00919000D02*
D03*
D35*
X00730000Y00872000D02*
D03*
X00723000Y00864834D02*
D03*
X00798998Y00863998D02*
D03*
X00787998Y00914998D02*
D03*
X00734000Y00675000D02*
D03*
X00757000Y00797000D02*
D03*
X00764000Y00780000D02*
D03*
X00771000Y00773000D02*
D03*
X00757000Y00837000D02*
D03*
X00806998Y00838998D02*
D03*
X00796998Y00754998D02*
D03*
X00802000Y00747000D02*
D03*
X00757000Y00787000D02*
D03*
X00828998Y00919998D02*
D03*
X00911000Y00936000D02*
D03*
X00927000Y00947000D02*
D03*
X00757000Y00817000D02*
D03*
Y00807000D02*
D03*
X00798998Y00767999D02*
D03*
X00791998Y00773998D02*
D03*
X00778998Y00947998D02*
D03*
X00771004Y00927298D02*
D03*
D36*
X00776063Y00847559D02*
D03*
X00768189D02*
D03*
X00783937D02*
D03*
X00768189Y00839685D02*
D03*
X00776063D02*
D03*
X00783937D02*
D03*
X00791811D02*
D03*
X00768189Y00831811D02*
D03*
X00776063D02*
D03*
X00783937D02*
D03*
X00791811D02*
D03*
X00768189Y00823937D02*
D03*
X00776063D02*
D03*
X00783937D02*
D03*
X00791811D02*
D03*
X00768189Y00816063D02*
D03*
X00776063D02*
D03*
X00783937D02*
D03*
X00791811D02*
D03*
X00768189Y00808189D02*
D03*
X00776063D02*
D03*
X00783937D02*
D03*
X00791811D02*
D03*
Y00800315D02*
D03*
X00783937D02*
D03*
X00776063D02*
D03*
X00768189D02*
D03*
Y00792441D02*
D03*
X00776063D02*
D03*
X00783937D02*
D03*
X00791811D02*
D03*
Y00847559D02*
D03*
D37*
X00840000Y00895200D02*
D03*
Y00944800D02*
D03*
X00690000Y00895200D02*
D03*
Y00944800D02*
D03*
M02*
