G04 Layer_Color=32896*
%FSAX44Y44*%
%MOMM*%
G71*
G01*
G75*
%ADD31C,0.2540*%
%ADD39C,0.2500*%
%ADD41C,0.2000*%
D31*
X00841536Y00683229D02*
X00839843Y00684922D01*
Y00688307D01*
X00841536Y00690000D01*
X00848307D01*
X00850000Y00688307D01*
Y00684922D01*
X00848307Y00683229D01*
X00850000Y00673072D02*
Y00679843D01*
X00843229Y00673072D01*
X00841536D01*
X00839843Y00674765D01*
Y00678150D01*
X00841536Y00679843D01*
X00850000Y00662915D02*
Y00669687D01*
X00843229Y00662915D01*
X00841536D01*
X00839843Y00664608D01*
Y00667994D01*
X00841536Y00669687D01*
X00871536Y00683229D02*
X00869843Y00684922D01*
Y00688307D01*
X00871536Y00690000D01*
X00878307D01*
X00880000Y00688307D01*
Y00684922D01*
X00878307Y00683229D01*
X00880000Y00673072D02*
Y00679843D01*
X00873229Y00673072D01*
X00871536D01*
X00869843Y00674765D01*
Y00678150D01*
X00871536Y00679843D01*
Y00669687D02*
X00869843Y00667994D01*
Y00664608D01*
X00871536Y00662915D01*
X00873229D01*
X00874922Y00664608D01*
Y00666301D01*
Y00664608D01*
X00876615Y00662915D01*
X00878307D01*
X00880000Y00664608D01*
Y00667994D01*
X00878307Y00669687D01*
X00901536Y00683229D02*
X00899843Y00684922D01*
Y00688307D01*
X00901536Y00690000D01*
X00908307D01*
X00910000Y00688307D01*
Y00684922D01*
X00908307Y00683229D01*
X00910000Y00673072D02*
Y00679843D01*
X00903229Y00673072D01*
X00901536D01*
X00899843Y00674765D01*
Y00678150D01*
X00901536Y00679843D01*
X00910000Y00664608D02*
X00899843D01*
X00904922Y00669687D01*
Y00662915D01*
X00931536Y00683229D02*
X00929843Y00684922D01*
Y00688307D01*
X00931536Y00690000D01*
X00938307D01*
X00940000Y00688307D01*
Y00684922D01*
X00938307Y00683229D01*
X00940000Y00673072D02*
Y00679843D01*
X00933229Y00673072D01*
X00931536D01*
X00929843Y00674765D01*
Y00678150D01*
X00931536Y00679843D01*
X00929843Y00662915D02*
Y00669687D01*
X00934922D01*
X00933229Y00666301D01*
Y00664608D01*
X00934922Y00662915D01*
X00938307D01*
X00940000Y00664608D01*
Y00667994D01*
X00938307Y00669687D01*
X00961536Y00683229D02*
X00959843Y00684922D01*
Y00688307D01*
X00961536Y00690000D01*
X00968307D01*
X00970000Y00688307D01*
Y00684922D01*
X00968307Y00683229D01*
X00970000Y00673072D02*
Y00679843D01*
X00963229Y00673072D01*
X00961536D01*
X00959843Y00674765D01*
Y00678150D01*
X00961536Y00679843D01*
X00959843Y00662915D02*
X00961536Y00666301D01*
X00964922Y00669687D01*
X00968307D01*
X00970000Y00667994D01*
Y00664608D01*
X00968307Y00662915D01*
X00966614D01*
X00964922Y00664608D01*
Y00669687D01*
X00991536Y00683229D02*
X00989843Y00684922D01*
Y00688307D01*
X00991536Y00690000D01*
X00998307D01*
X01000000Y00688307D01*
Y00684922D01*
X00998307Y00683229D01*
X01000000Y00673072D02*
Y00679843D01*
X00993229Y00673072D01*
X00991536D01*
X00989843Y00674765D01*
Y00678150D01*
X00991536Y00679843D01*
X00989843Y00669687D02*
Y00662915D01*
X00991536D01*
X00998307Y00669687D01*
X01000000D01*
X00931536Y00593229D02*
X00929843Y00594922D01*
Y00598307D01*
X00931536Y00600000D01*
X00938307D01*
X00940000Y00598307D01*
Y00594922D01*
X00938307Y00593229D01*
X00940000Y00583072D02*
Y00589843D01*
X00933229Y00583072D01*
X00931536D01*
X00929843Y00584765D01*
Y00588150D01*
X00931536Y00589843D01*
Y00579687D02*
X00929843Y00577994D01*
Y00574608D01*
X00931536Y00572915D01*
X00933229D01*
X00934922Y00574608D01*
X00936615Y00572915D01*
X00938307D01*
X00940000Y00574608D01*
Y00577994D01*
X00938307Y00579687D01*
X00936615D01*
X00934922Y00577994D01*
X00933229Y00579687D01*
X00931536D01*
X00934922Y00577994D02*
Y00574608D01*
X00951536Y00593229D02*
X00949843Y00594922D01*
Y00598307D01*
X00951536Y00600000D01*
X00958307D01*
X00960000Y00598307D01*
Y00594922D01*
X00958307Y00593229D01*
X00960000Y00583072D02*
Y00589843D01*
X00953229Y00583072D01*
X00951536D01*
X00949843Y00584765D01*
Y00588150D01*
X00951536Y00589843D01*
X00958307Y00579687D02*
X00960000Y00577994D01*
Y00574608D01*
X00958307Y00572915D01*
X00951536D01*
X00949843Y00574608D01*
Y00577994D01*
X00951536Y00579687D01*
X00953229D01*
X00954922Y00577994D01*
Y00572915D01*
X00971536Y00593229D02*
X00969843Y00594922D01*
Y00598307D01*
X00971536Y00600000D01*
X00978307D01*
X00980000Y00598307D01*
Y00594922D01*
X00978307Y00593229D01*
X00971536Y00589843D02*
X00969843Y00588150D01*
Y00584765D01*
X00971536Y00583072D01*
X00973229D01*
X00974922Y00584765D01*
Y00586458D01*
Y00584765D01*
X00976615Y00583072D01*
X00978307D01*
X00980000Y00584765D01*
Y00588150D01*
X00978307Y00589843D01*
X00971536Y00579687D02*
X00969843Y00577994D01*
Y00574608D01*
X00971536Y00572915D01*
X00978307D01*
X00980000Y00574608D01*
Y00577994D01*
X00978307Y00579687D01*
X00971536D01*
X00991536Y00588229D02*
X00989843Y00589922D01*
Y00593307D01*
X00991536Y00595000D01*
X00998307D01*
X01000000Y00593307D01*
Y00589922D01*
X00998307Y00588229D01*
X00991536Y00584843D02*
X00989843Y00583150D01*
Y00579765D01*
X00991536Y00578072D01*
X00993229D01*
X00994922Y00579765D01*
Y00581458D01*
Y00579765D01*
X00996615Y00578072D01*
X00998307D01*
X01000000Y00579765D01*
Y00583150D01*
X00998307Y00584843D01*
X01000000Y00574687D02*
Y00571301D01*
Y00572994D01*
X00989843D01*
X00991536Y00574687D01*
X01011536Y00593229D02*
X01009843Y00594922D01*
Y00598307D01*
X01011536Y00600000D01*
X01018307D01*
X01020000Y00598307D01*
Y00594922D01*
X01018307Y00593229D01*
X01011536Y00589843D02*
X01009843Y00588150D01*
Y00584765D01*
X01011536Y00583072D01*
X01013229D01*
X01014922Y00584765D01*
Y00586458D01*
Y00584765D01*
X01016615Y00583072D01*
X01018307D01*
X01020000Y00584765D01*
Y00588150D01*
X01018307Y00589843D01*
X01020000Y00572915D02*
Y00579687D01*
X01013229Y00572915D01*
X01011536D01*
X01009843Y00574608D01*
Y00577994D01*
X01011536Y00579687D01*
X00738007Y01140863D02*
Y01151020D01*
X00740546Y01153559D01*
X00745625D01*
X00748164Y01151020D01*
Y01140863D01*
X00745625Y01138324D01*
X00740546D01*
X00743086Y01143402D02*
X00738007Y01138324D01*
X00740546D02*
X00738007Y01140863D01*
X00722772Y01138324D02*
X00732929D01*
X00722772Y01148481D01*
Y01151020D01*
X00725311Y01153559D01*
X00730390D01*
X00732929Y01151020D01*
X00888067Y01140863D02*
Y01151020D01*
X00890607Y01153559D01*
X00895685D01*
X00898224Y01151020D01*
Y01140863D01*
X00895685Y01138324D01*
X00890607D01*
X00893146Y01143402D02*
X00888067Y01138324D01*
X00890607D02*
X00888067Y01140863D01*
X00875371Y01138324D02*
Y01153559D01*
X00882989Y01145941D01*
X00872832D01*
X01038127Y01140863D02*
Y01151020D01*
X01040666Y01153559D01*
X01045745D01*
X01048284Y01151020D01*
Y01140863D01*
X01045745Y01138324D01*
X01040666D01*
X01043206Y01143402D02*
X01038127Y01138324D01*
X01040666D02*
X01038127Y01140863D01*
X01022892Y01153559D02*
X01027971Y01151020D01*
X01033049Y01145941D01*
Y01140863D01*
X01030510Y01138324D01*
X01025431D01*
X01022892Y01140863D01*
Y01143402D01*
X01025431Y01145941D01*
X01033049D01*
X00779242Y00968364D02*
Y00983599D01*
X00771625D01*
X00769085Y00981060D01*
Y00975982D01*
X00771625Y00973442D01*
X00779242D01*
X00774164D02*
X00769085Y00968364D01*
X00753850D02*
X00764007D01*
X00753850Y00978521D01*
Y00981060D01*
X00756389Y00983599D01*
X00761468D01*
X00764007Y00981060D01*
X00780000Y00930000D02*
Y00945235D01*
X00772383D01*
X00769843Y00942696D01*
Y00937617D01*
X00772383Y00935078D01*
X00780000D01*
X00774922D02*
X00769843Y00930000D01*
X00764765Y00942696D02*
X00762226Y00945235D01*
X00757147D01*
X00754608Y00942696D01*
Y00940157D01*
X00757147Y00937617D01*
X00759687D01*
X00757147D01*
X00754608Y00935078D01*
Y00932539D01*
X00757147Y00930000D01*
X00762226D01*
X00764765Y00932539D01*
X00929242Y00968364D02*
Y00983599D01*
X00921625D01*
X00919085Y00981060D01*
Y00975982D01*
X00921625Y00973442D01*
X00929242D01*
X00924164D02*
X00919085Y00968364D01*
X00906389D02*
Y00983599D01*
X00914007Y00975982D01*
X00903850D01*
X00930000Y00930000D02*
Y00945235D01*
X00922383D01*
X00919843Y00942696D01*
Y00937617D01*
X00922383Y00935078D01*
X00930000D01*
X00924922D02*
X00919843Y00930000D01*
X00904608Y00945235D02*
X00914765D01*
Y00937617D01*
X00909687Y00940157D01*
X00907147D01*
X00904608Y00937617D01*
Y00932539D01*
X00907147Y00930000D01*
X00912226D01*
X00914765Y00932539D01*
X00785000Y01005000D02*
Y01017696D01*
X00778652D01*
X00776536Y01015580D01*
Y01011348D01*
X00778652Y01009232D01*
X00785000D01*
X00780768D02*
X00776536Y01005000D01*
X00772304D02*
X00768072D01*
X00770188D01*
Y01017696D01*
X00772304Y01015580D01*
X00753260Y01017696D02*
X00757492Y01015580D01*
X00761724Y01011348D01*
Y01007116D01*
X00759608Y01005000D01*
X00755376D01*
X00753260Y01007116D01*
Y01009232D01*
X00755376Y01011348D01*
X00761724D01*
X00935000Y01005000D02*
Y01017696D01*
X00928652D01*
X00926536Y01015580D01*
Y01011348D01*
X00928652Y01009232D01*
X00935000D01*
X00930768D02*
X00926536Y01005000D01*
X00922304D02*
X00918072D01*
X00920188D01*
Y01017696D01*
X00922304Y01015580D01*
X00911724D02*
X00909608Y01017696D01*
X00905376D01*
X00903260Y01015580D01*
Y01013464D01*
X00905376Y01011348D01*
X00903260Y01009232D01*
Y01007116D01*
X00905376Y01005000D01*
X00909608D01*
X00911724Y01007116D01*
Y01009232D01*
X00909608Y01011348D01*
X00911724Y01013464D01*
Y01015580D01*
X00909608Y01011348D02*
X00905376D01*
X01065000Y01045000D02*
X01052304D01*
Y01038652D01*
X01054420Y01036536D01*
X01058652D01*
X01060768Y01038652D01*
Y01045000D01*
Y01040768D02*
X01065000Y01036536D01*
Y01023840D02*
Y01032304D01*
X01056536Y01023840D01*
X01054420D01*
X01052304Y01025956D01*
Y01030188D01*
X01054420Y01032304D01*
Y01019608D02*
X01052304Y01017492D01*
Y01013260D01*
X01054420Y01011144D01*
X01062884D01*
X01065000Y01013260D01*
Y01017492D01*
X01062884Y01019608D01*
X01054420D01*
X00727908Y00967984D02*
Y00983219D01*
X00720291D01*
X00717751Y00980680D01*
Y00975602D01*
X00720291Y00973062D01*
X00727908D01*
X00722830D02*
X00717751Y00967984D01*
X00702516Y00983219D02*
X00707595Y00980680D01*
X00712673Y00975602D01*
Y00970523D01*
X00710134Y00967984D01*
X00705055D01*
X00702516Y00970523D01*
Y00973062D01*
X00705055Y00975602D01*
X00712673D01*
X00877768Y00967984D02*
Y00983219D01*
X00870151D01*
X00867611Y00980680D01*
Y00975602D01*
X00870151Y00973062D01*
X00877768D01*
X00872690D02*
X00867611Y00967984D01*
X00862533Y00983219D02*
X00852376D01*
Y00980680D01*
X00862533Y00970523D01*
Y00967984D01*
D39*
X00745100Y00982500D02*
G03*
X00745100Y00982500I-00001250J00000000D01*
G01*
X00895100D02*
G03*
X00895100Y00982500I-00001250J00000000D01*
G01*
X01045100D02*
G03*
X01045100Y00982500I-00001250J00000000D01*
G01*
D41*
X00919500Y00916000D02*
X00920500D01*
X00919500Y00924000D02*
X00920500D01*
X00769500Y00916000D02*
X00770500D01*
X00769500Y00924000D02*
X00770500D01*
X00800630Y00880630D02*
Y00959370D01*
X00840000Y00880690D02*
X00879370D01*
Y00880630D02*
Y00959370D01*
X00800630Y00880690D02*
X00840000D01*
X00800630Y00959370D02*
X00879370D01*
X00650630Y00880630D02*
Y00959370D01*
X00690000Y00880690D02*
X00729370D01*
Y00880630D02*
Y00959370D01*
X00650630Y00880690D02*
X00690000D01*
X00650630Y00959370D02*
X00729370D01*
X00769500Y00951000D02*
X00770500D01*
X00769500Y00959000D02*
X00770500D01*
X00919500Y00951000D02*
X00920500D01*
X00919500Y00959000D02*
X00920500D01*
X00769500Y00999000D02*
X00770500D01*
X00769500Y00991000D02*
X00770500D01*
X00919500Y00999000D02*
X00920500D01*
X00919500Y00991000D02*
X00920500D01*
X00836500Y00714500D02*
Y00725500D01*
X00853500Y00714500D02*
Y00725500D01*
X00866500Y00714500D02*
Y00725500D01*
X00883500Y00714500D02*
Y00725500D01*
X00896500Y00714500D02*
Y00725500D01*
X00913500Y00714500D02*
Y00725500D01*
X00926500Y00714500D02*
Y00725500D01*
X00943500Y00714500D02*
Y00725500D01*
X00956500Y00714500D02*
Y00725500D01*
X00973500Y00714500D02*
Y00725500D01*
X00986500Y00714500D02*
Y00725500D01*
X01003500Y00714500D02*
Y00725500D01*
X00931000Y00554500D02*
Y00555500D01*
X00939000Y00554500D02*
Y00555500D01*
X00951000Y00554500D02*
Y00555500D01*
X00959000Y00554500D02*
Y00555500D01*
X00971000Y00554500D02*
Y00555500D01*
X00979000Y00554500D02*
Y00555500D01*
X00991000Y00554500D02*
Y00555500D01*
X00999000Y00554500D02*
Y00555500D01*
X01011000Y00554500D02*
Y00555500D01*
X01019000Y00554500D02*
Y00555500D01*
X00747500Y01008500D02*
Y01036500D01*
X00642500Y01008500D02*
X00747500D01*
X00642500D02*
Y01036500D01*
X00897500Y01008500D02*
Y01036500D01*
X00792500Y01008500D02*
X00897500D01*
X00792500D02*
Y01036500D01*
X01047500Y01008500D02*
Y01036500D01*
X00942500Y01008500D02*
X01047500D01*
X00942500D02*
Y01036500D01*
X01064000Y00989500D02*
Y00990500D01*
X01056000Y00989500D02*
Y00990500D01*
M02*
