G04 Layer_Color=16711935*
%FSAX24Y24*%
%MOIN*%
G70*
G01*
G75*
%ADD59R,0.0434X0.0356*%
%ADD60R,0.0474X0.0434*%
%ADD62R,0.0434X0.0474*%
%ADD71R,0.0453X0.1674*%
%ADD72R,0.4253X0.3545*%
%ADD75C,0.0650*%
%ADD76C,0.0710*%
%ADD77C,0.2090*%
%ADD78C,0.0360*%
%ADD79C,0.0320*%
%ADD80C,0.0180*%
%ADD81O,0.0257X0.0631*%
%ADD82R,0.0415X0.0237*%
%ADD83R,0.0356X0.0434*%
%ADD84R,0.0533X0.1143*%
%ADD85R,0.0828X0.0612*%
%ADD86R,0.1379X0.1064*%
%ADD87R,0.0474X0.1064*%
%ADD88R,0.0986X0.0986*%
%ADD89R,0.2986X0.1041*%
%ADD90O,0.0257X0.0710*%
%ADD91R,0.0612X0.0828*%
G36*
X052900Y033140D02*
X066300Y033140D01*
X066300Y033140D01*
X066329D01*
X066331Y033140D01*
X066333Y033140D01*
X066422Y033131D01*
X066423Y033131D01*
X066424Y033131D01*
X066425Y033131D01*
X066427Y033130D01*
X066428Y033130D01*
X066429Y033130D01*
X066542Y033095D01*
X066544Y033095D01*
X066545Y033095D01*
X066546Y033094D01*
X066547Y033094D01*
X066548Y033093D01*
X066550Y033092D01*
X066654Y033037D01*
X066655Y033036D01*
X066656Y033035D01*
X066657Y033035D01*
X066658Y033034D01*
X066659Y033033D01*
X066660Y033032D01*
X066752Y032957D01*
X066753Y032956D01*
X066754Y032956D01*
X066755Y032955D01*
X066756Y032954D01*
X066756Y032953D01*
X066757Y032952D01*
X066832Y032860D01*
X066833Y032859D01*
X066834Y032858D01*
X066835Y032857D01*
X066835Y032856D01*
X066836Y032855D01*
X066837Y032854D01*
X066892Y032750D01*
X066893Y032748D01*
X066894Y032747D01*
X066894Y032746D01*
X066895Y032745D01*
X066895Y032744D01*
X066895Y032742D01*
X066930Y032629D01*
X066930Y032628D01*
X066930Y032627D01*
X066931Y032625D01*
X066931Y032624D01*
X066931Y032623D01*
X066931Y032622D01*
X066940Y032533D01*
X066940Y032531D01*
X066940Y032529D01*
Y032500D01*
X066940Y030100D01*
X066940Y030095D01*
X066939Y030090D01*
X066937Y030085D01*
X066935Y030080D01*
X066932Y030076D01*
X066928Y030072D01*
X066924Y030068D01*
X066920Y030065D01*
X066915Y030063D01*
X066910Y030061D01*
X066905Y030060D01*
X066900Y030060D01*
X063900D01*
X063895Y030060D01*
X063890Y030061D01*
X063885Y030063D01*
X063880Y030065D01*
X063876Y030068D01*
X063872Y030072D01*
X063868Y030076D01*
X063865Y030080D01*
X063863Y030085D01*
X063861Y030090D01*
X063860Y030095D01*
X063860Y030100D01*
Y031960D01*
X061440D01*
Y030100D01*
X061440Y030095D01*
X061439Y030090D01*
X061437Y030085D01*
X061435Y030080D01*
X061432Y030076D01*
X061428Y030072D01*
X061424Y030068D01*
X061420Y030065D01*
X061415Y030063D01*
X061410Y030061D01*
X061405Y030060D01*
X061400Y030060D01*
X058400D01*
X058395Y030060D01*
X058390Y030061D01*
X058385Y030063D01*
X058380Y030065D01*
X058376Y030068D01*
X058372Y030072D01*
X058368Y030076D01*
X058365Y030080D01*
X058363Y030085D01*
X058361Y030090D01*
X058360Y030095D01*
X058360Y030100D01*
Y031960D01*
X055940D01*
X055940Y030229D01*
Y030229D01*
X055940Y030228D01*
X055940Y030227D01*
X055940Y030225D01*
X055940Y030224D01*
X055940Y030223D01*
X055939Y030222D01*
X055939Y030220D01*
X055939Y030218D01*
X055938Y030218D01*
X055938Y030217D01*
X055938Y030215D01*
X055937Y030213D01*
X055937Y030213D01*
X055936Y030212D01*
X055936Y030210D01*
X055935Y030209D01*
X055934Y030208D01*
X055934Y030207D01*
X055933Y030206D01*
X055932Y030204D01*
X055931Y030204D01*
X055931Y030203D01*
X055930Y030202D01*
X055928Y030200D01*
X055928Y030200D01*
X055927Y030199D01*
X055851Y030129D01*
X055642Y029898D01*
X055462Y029644D01*
X055311Y029371D01*
X055191Y029083D01*
X055105Y028784D01*
X055042Y028346D01*
X055040Y028200D01*
X055040Y027600D01*
X055040Y027600D01*
Y027567D01*
X055040Y027562D01*
X055027Y027464D01*
Y027464D01*
X055026Y027459D01*
X055024Y027454D01*
X054974Y027332D01*
X054971Y027328D01*
X054969Y027323D01*
X054888Y027219D01*
X054885Y027215D01*
X054881Y027212D01*
X054777Y027131D01*
X054775Y027131D01*
X054774Y027130D01*
X054773Y027129D01*
X054772Y027129D01*
X054771Y027128D01*
X054770Y027127D01*
X054769Y027127D01*
X054767Y027126D01*
X054766Y027126D01*
X054765Y027125D01*
X054579Y027062D01*
X054577Y027062D01*
X054576Y027061D01*
X054575Y027061D01*
X054574Y027061D01*
X054572Y027061D01*
X054571Y027060D01*
X054570Y027060D01*
X054568Y027060D01*
X054567D01*
X054566Y027060D01*
X054500Y027060D01*
D01*
X054500D01*
X052600D01*
X052600Y027060D01*
X052571Y027060D01*
X052569Y027060D01*
X052567Y027060D01*
X052478Y027069D01*
X052477Y027069D01*
X052476Y027069D01*
X052475Y027069D01*
X052473Y027070D01*
X052472Y027070D01*
X052471Y027070D01*
X052358Y027105D01*
X052356Y027105D01*
X052355Y027105D01*
X052354Y027106D01*
X052353Y027106D01*
X052352Y027107D01*
X052350Y027108D01*
X052246Y027163D01*
X052245Y027164D01*
X052244Y027165D01*
X052243Y027165D01*
X052242Y027166D01*
X052241Y027167D01*
X052240Y027168D01*
X052148Y027243D01*
X052147Y027244D01*
X052146Y027244D01*
X052145Y027245D01*
X052144Y027246D01*
X052144Y027247D01*
X052143Y027248D01*
X052068Y027340D01*
X052067Y027341D01*
X052066Y027342D01*
X052065Y027343D01*
X052065Y027344D01*
X052064Y027345D01*
X052063Y027346D01*
X052008Y027450D01*
X052007Y027452D01*
X052006Y027453D01*
X052006Y027454D01*
X052005Y027455D01*
X052005Y027456D01*
X052005Y027458D01*
X051970Y027571D01*
X051970Y027572D01*
X051970Y027573D01*
X051969Y027575D01*
X051969Y027576D01*
X051969Y027577D01*
X051969Y027578D01*
X051960Y027667D01*
X051960Y027669D01*
X051960Y027671D01*
X051960Y027700D01*
D01*
X051960Y032200D01*
X051960Y032244D01*
X051960Y032246D01*
X051960Y032248D01*
X051973Y032380D01*
X051973Y032382D01*
X051973Y032383D01*
X051974Y032384D01*
X051974Y032386D01*
X051974Y032387D01*
X051975Y032388D01*
X052026Y032558D01*
X052027Y032559D01*
X052027Y032560D01*
X052028Y032561D01*
X052028Y032563D01*
X052029Y032564D01*
X052029Y032565D01*
X052113Y032721D01*
X052113Y032722D01*
X052114Y032724D01*
X052115Y032725D01*
X052115Y032726D01*
X052116Y032727D01*
X052117Y032728D01*
X052230Y032865D01*
X052230Y032866D01*
X052231Y032867D01*
X052232Y032868D01*
X052233Y032869D01*
X052234Y032870D01*
X052235Y032870D01*
X052372Y032983D01*
X052373Y032984D01*
X052374Y032985D01*
X052375Y032985D01*
X052376Y032986D01*
X052378Y032987D01*
X052379Y032987D01*
X052535Y033071D01*
X052536Y033071D01*
X052537Y033072D01*
X052539Y033072D01*
X052540Y033073D01*
X052541Y033073D01*
X052542Y033074D01*
X052712Y033125D01*
X052713Y033126D01*
X052714Y033126D01*
X052716Y033126D01*
X052717Y033127D01*
X052718Y033127D01*
X052720Y033127D01*
X052852Y033140D01*
X052854Y033140D01*
X052856Y033140D01*
X052900Y033140D01*
D02*
G37*
D59*
X053600Y040504D02*
D03*
Y039953D02*
D03*
X055900Y039724D02*
D03*
Y040276D02*
D03*
X056400Y039876D02*
D03*
Y039324D02*
D03*
X062700Y024624D02*
D03*
Y025176D02*
D03*
X056400Y038324D02*
D03*
Y038876D02*
D03*
X061900Y038324D02*
D03*
Y038876D02*
D03*
X063200Y033976D02*
D03*
Y033424D02*
D03*
X063200Y034824D02*
D03*
Y035376D02*
D03*
X057700Y033976D02*
D03*
Y033424D02*
D03*
X057700Y034824D02*
D03*
Y035376D02*
D03*
X052200Y033976D02*
D03*
Y033424D02*
D03*
X062600Y028424D02*
D03*
Y028976D02*
D03*
D60*
X068200Y030985D02*
D03*
Y031615D02*
D03*
X057300Y030985D02*
D03*
Y031615D02*
D03*
X062800Y030985D02*
D03*
Y031615D02*
D03*
X064300Y019515D02*
D03*
Y018885D02*
D03*
X065000Y019515D02*
D03*
Y018885D02*
D03*
X065700Y019515D02*
D03*
Y018885D02*
D03*
X066400Y019515D02*
D03*
Y018885D02*
D03*
X067100Y019515D02*
D03*
Y018885D02*
D03*
D62*
X052785Y020200D02*
D03*
X053415D02*
D03*
X052785Y019100D02*
D03*
X053415D02*
D03*
X052785Y018000D02*
D03*
X053415D02*
D03*
X052785Y016900D02*
D03*
X053415D02*
D03*
X055785Y019500D02*
D03*
X056415D02*
D03*
X056415Y018800D02*
D03*
X055785D02*
D03*
X059477Y027600D02*
D03*
X060107D02*
D03*
D71*
X061700Y031039D02*
D03*
X061200D02*
D03*
X060700D02*
D03*
X059700D02*
D03*
X059200D02*
D03*
X058700D02*
D03*
X064200D02*
D03*
X064700D02*
D03*
X065200D02*
D03*
X066200D02*
D03*
X066700D02*
D03*
X067200D02*
D03*
X053200D02*
D03*
X053700D02*
D03*
X054200D02*
D03*
X055200D02*
D03*
X055700D02*
D03*
X056200D02*
D03*
D72*
X060200Y035055D02*
D03*
X065700D02*
D03*
X054700D02*
D03*
D75*
X062800Y018000D02*
D03*
X063800D02*
D03*
X064800D02*
D03*
X066800D02*
D03*
X067800Y017000D02*
D03*
X066800D02*
D03*
X065800D02*
D03*
X064800D02*
D03*
X063800D02*
D03*
X062800D02*
D03*
X061800D02*
D03*
X060800D02*
D03*
X059800D02*
D03*
X058800D02*
D03*
X057800D02*
D03*
X056800D02*
D03*
X055800D02*
D03*
X054800D02*
D03*
Y018000D02*
D03*
Y019000D02*
D03*
Y020000D02*
D03*
Y021000D02*
D03*
Y022000D02*
D03*
Y023000D02*
D03*
X055800D02*
D03*
X056800D02*
D03*
X057800D02*
D03*
X058800D02*
D03*
X059800D02*
D03*
X060800D02*
D03*
X061800D02*
D03*
X062800D02*
D03*
X063800D02*
D03*
X064800D02*
D03*
X065800D02*
D03*
X066800D02*
D03*
X067800D02*
D03*
D76*
X053200Y024484D02*
D03*
Y023694D02*
D03*
Y022906D02*
D03*
Y022119D02*
D03*
X067200Y024738D02*
D03*
Y026307D02*
D03*
Y027097D02*
D03*
Y027887D02*
D03*
Y028675D02*
D03*
Y029462D02*
D03*
Y025525D02*
D03*
D77*
X067600Y015000D02*
D03*
X052900D02*
D03*
D78*
X059200Y021300D02*
D03*
X052100Y038300D02*
D03*
X052400Y025300D02*
D03*
X053300Y037500D02*
D03*
Y036800D02*
D03*
X056800Y039900D02*
D03*
X058600Y018100D02*
D03*
X057600Y019700D02*
D03*
X055941Y020341D02*
D03*
X055400Y020700D02*
D03*
X055500Y019500D02*
D03*
X059500Y019800D02*
D03*
X053500Y026800D02*
D03*
X067400Y039600D02*
D03*
X059600Y030700D02*
D03*
X055400Y037500D02*
D03*
X061800Y039400D02*
D03*
X061477Y029343D02*
D03*
X063500Y038500D02*
D03*
X062700Y036000D02*
D03*
X058000Y038500D02*
D03*
X064400Y037500D02*
D03*
X065100D02*
D03*
X065800D02*
D03*
X066500D02*
D03*
X054000D02*
D03*
X054700D02*
D03*
X064400Y039500D02*
D03*
X065100D02*
D03*
X065800D02*
D03*
X066500D02*
D03*
X060300D02*
D03*
X059600D02*
D03*
X061200Y019100D02*
D03*
X063100Y021200D02*
D03*
X065300Y022400D02*
D03*
X061000Y037500D02*
D03*
X060300D02*
D03*
X059600D02*
D03*
X058900D02*
D03*
X068100Y028450D02*
D03*
X061356Y029923D02*
D03*
X065600Y024300D02*
D03*
X052400Y021150D02*
D03*
X066850D02*
D03*
X058900Y039500D02*
D03*
X061000D02*
D03*
X058500Y025500D02*
D03*
X059100Y027600D02*
D03*
X056700Y024800D02*
D03*
X061400Y023900D02*
D03*
X056700Y027100D02*
D03*
X056000Y028200D02*
D03*
X057800Y030300D02*
D03*
X056800Y030200D02*
D03*
X059000Y029200D02*
D03*
X055391Y027609D02*
D03*
X057100Y025500D02*
D03*
X058000Y027100D02*
D03*
X057251Y028149D02*
D03*
X063200Y034600D02*
D03*
X057700D02*
D03*
X054000Y036800D02*
D03*
X054700D02*
D03*
X055400D02*
D03*
X058900D02*
D03*
X059600D02*
D03*
X060300D02*
D03*
X061000D02*
D03*
X064400D02*
D03*
X065100D02*
D03*
X065800D02*
D03*
X066500D02*
D03*
X060700Y024525D02*
D03*
X063100Y024600D02*
D03*
X063850Y029700D02*
D03*
X064800Y029100D02*
D03*
X061300Y020800D02*
D03*
D79*
X052200Y039800D02*
D03*
Y038841D02*
D03*
Y039300D02*
D03*
X052400Y026600D02*
D03*
Y026075D02*
D03*
X063600Y030900D02*
D03*
X065600Y029800D02*
D03*
X062280Y030480D02*
D03*
X063050Y031150D02*
D03*
X053691Y016900D02*
D03*
Y018000D02*
D03*
Y019100D02*
D03*
X057700Y031200D02*
D03*
X065500Y025050D02*
D03*
X065628Y026422D02*
D03*
X053691Y020200D02*
D03*
X066450Y026100D02*
D03*
X065700Y027750D02*
D03*
X052400Y019800D02*
D03*
X058400Y028340D02*
D03*
X065350Y029100D02*
D03*
D80*
X061673Y027827D02*
D03*
X061909D02*
D03*
X062146D02*
D03*
X062382D02*
D03*
X062618D02*
D03*
X062854D02*
D03*
X063091D02*
D03*
X063327D02*
D03*
Y027591D02*
D03*
X063091D02*
D03*
X062854D02*
D03*
X062618D02*
D03*
X062382D02*
D03*
X062146D02*
D03*
X061909D02*
D03*
X061673D02*
D03*
X063327Y027354D02*
D03*
X063091D02*
D03*
X062854D02*
D03*
X062618D02*
D03*
X062382D02*
D03*
X062146D02*
D03*
X061909D02*
D03*
X061673D02*
D03*
X063327Y027118D02*
D03*
X063091D02*
D03*
X062854D02*
D03*
X062618D02*
D03*
X062382D02*
D03*
X062146D02*
D03*
X061909D02*
D03*
X061673D02*
D03*
X063327Y026882D02*
D03*
X063091D02*
D03*
X062854D02*
D03*
X062618D02*
D03*
X062382D02*
D03*
X062146D02*
D03*
X061909D02*
D03*
X061673D02*
D03*
X063327Y026646D02*
D03*
X063091D02*
D03*
X062854D02*
D03*
X062618D02*
D03*
X062382D02*
D03*
X062146D02*
D03*
X061909D02*
D03*
X061673D02*
D03*
X063327Y026409D02*
D03*
X063091D02*
D03*
X062854D02*
D03*
X062618D02*
D03*
X062382D02*
D03*
X062146D02*
D03*
X061909D02*
D03*
X061673D02*
D03*
X063327Y026173D02*
D03*
X063091D02*
D03*
X062854D02*
D03*
X062618D02*
D03*
X062382D02*
D03*
X062146D02*
D03*
X061909D02*
D03*
X061673D02*
D03*
D81*
X055184Y038693D02*
D03*
X054928D02*
D03*
X054672D02*
D03*
X054416D02*
D03*
X055184Y040307D02*
D03*
X054928D02*
D03*
X054672D02*
D03*
X054416D02*
D03*
D82*
X064263Y024600D02*
D03*
X063337D02*
D03*
D83*
X055824Y018100D02*
D03*
X056376D02*
D03*
D84*
X056909Y029300D02*
D03*
X058091D02*
D03*
X056909Y028000D02*
D03*
X058091D02*
D03*
D85*
X059400Y028270D02*
D03*
Y029530D02*
D03*
X063600Y029700D02*
D03*
Y028440D02*
D03*
X064900Y029700D02*
D03*
Y028440D02*
D03*
X055700Y028630D02*
D03*
Y027370D02*
D03*
D86*
X059500Y024299D02*
D03*
D87*
X060406Y026701D02*
D03*
X059500D02*
D03*
X058594D02*
D03*
D88*
X057100Y024414D02*
D03*
Y026186D02*
D03*
D89*
X065400Y039476D02*
D03*
Y037524D02*
D03*
X059900Y039476D02*
D03*
Y037524D02*
D03*
D90*
X057884Y037654D02*
D03*
X057628D02*
D03*
X057372D02*
D03*
X057116D02*
D03*
X057884Y039346D02*
D03*
X057628D02*
D03*
X057372D02*
D03*
X057116D02*
D03*
X063384Y037654D02*
D03*
X063128D02*
D03*
X062872D02*
D03*
X062616D02*
D03*
X063384Y039346D02*
D03*
X063128D02*
D03*
X062872D02*
D03*
X062616D02*
D03*
D91*
X054420Y024150D02*
D03*
X055680D02*
D03*
X054420Y026450D02*
D03*
X055680D02*
D03*
X054420Y025300D02*
D03*
X055680D02*
D03*
M02*
