G04 Layer_Physical_Order=1*
G04 Layer_Color=255*
%FSAX24Y24*%
%MOIN*%
G70*
G01*
G75*
%ADD10R,0.0177X0.0217*%
%ADD11R,0.0217X0.0177*%
%ADD12R,0.1024X0.0374*%
%ADD13R,0.0374X0.1024*%
%ADD14R,0.0205X0.0205*%
%ADD15R,0.0205X0.0205*%
%ADD16R,0.0335X0.0157*%
G04:AMPARAMS|DCode=17|XSize=82.7mil|YSize=228.3mil|CornerRadius=41.3mil|HoleSize=0mil|Usage=FLASHONLY|Rotation=180.000|XOffset=0mil|YOffset=0mil|HoleType=Round|Shape=RoundedRectangle|*
%AMROUNDEDRECTD17*
21,1,0.0827,0.1457,0,0,180.0*
21,1,0.0000,0.2283,0,0,180.0*
1,1,0.0827,0.0000,0.0728*
1,1,0.0827,0.0000,0.0728*
1,1,0.0827,0.0000,-0.0728*
1,1,0.0827,0.0000,-0.0728*
%
%ADD17ROUNDEDRECTD17*%
%ADD18O,0.0610X0.0177*%
%ADD19R,0.0681X0.0728*%
%ADD20R,0.1280X0.1230*%
%ADD21R,0.0354X0.0394*%
%ADD22R,0.0532X0.2087*%
%ADD23R,0.0276X0.0354*%
%ADD24R,0.1331X0.0965*%
%ADD25R,0.0118X0.0315*%
%ADD26R,0.0118X0.0276*%
%ADD27R,0.0819X0.0315*%
%ADD28R,0.0400X0.0650*%
%ADD29R,0.0480X0.0560*%
%ADD30R,0.0433X0.0669*%
%ADD31R,0.0276X0.0512*%
%ADD32R,0.0433X0.0335*%
%ADD33R,0.0669X0.0433*%
%ADD34R,0.0335X0.0433*%
%ADD35R,0.0512X0.0276*%
%ADD36R,0.0560X0.0140*%
%ADD37R,0.0750X0.0710*%
%ADD38R,0.0750X0.0750*%
%ADD39R,0.0354X0.0394*%
%ADD40C,0.0100*%
%ADD41C,0.0200*%
%ADD42C,0.0600*%
%ADD43C,0.0400*%
%ADD44C,0.0120*%
%ADD45C,0.0150*%
%ADD46C,0.0630*%
%ADD47C,0.1260*%
%ADD48C,0.0787*%
%ADD49C,0.0300*%
%ADD50C,0.0157*%
%ADD51C,0.0500*%
%ADD52C,0.0400*%
%ADD53C,0.0270*%
G36*
X061500Y032500D02*
X059700D01*
Y034100D01*
X061500D01*
Y032500D01*
D02*
G37*
G36*
X056600D02*
X054800D01*
Y034100D01*
X056600D01*
Y032500D01*
D02*
G37*
G36*
X066400D02*
X064600D01*
Y034100D01*
X066400D01*
Y032500D01*
D02*
G37*
G36*
X055920Y041100D02*
X055946D01*
X056024Y041090D01*
X056122Y041049D01*
X056205Y040985D01*
X056269Y040902D01*
X056320Y040753D01*
X056320Y040700D01*
X056320Y039300D01*
X056320D01*
X056320Y036600D01*
X056900Y036020D01*
X056900Y035000D01*
X054500D01*
X054500Y038500D01*
X054020Y038980D01*
X054020Y039300D01*
X054480Y039300D01*
X054020D01*
X054020Y040700D01*
Y040726D01*
X054030Y040804D01*
X054071Y040902D01*
X054135Y040985D01*
X054218Y041049D01*
X054315Y041090D01*
X054394Y041100D01*
X054420D01*
X055920Y041100D01*
X055920Y041100D01*
D02*
G37*
G36*
X064236Y035000D02*
X064255Y034955D01*
X064300Y034936D01*
X066700D01*
X066745Y034955D01*
X066929Y034771D01*
Y031241D01*
X066624Y030936D01*
X066597D01*
X066454Y031079D01*
X066418Y031103D01*
X066376Y031111D01*
X066376Y031111D01*
X065543D01*
X065543Y031111D01*
X065500Y031103D01*
X065464Y031079D01*
X065464Y031079D01*
X065410Y031025D01*
X065233D01*
Y030969D01*
X065161D01*
Y031019D01*
X064839D01*
Y030944D01*
X064794Y030900D01*
X064200Y030900D01*
X063386Y030086D01*
X063300Y030000D01*
Y028900D01*
X061900D01*
Y030000D01*
X061810Y030090D01*
X061000Y030900D01*
X059766Y030900D01*
X059700Y030913D01*
X059634Y030900D01*
X057766Y030900D01*
X057700Y030913D01*
X057634Y030900D01*
X056937Y030900D01*
Y030970D01*
X056603D01*
Y030900D01*
X056537D01*
Y030970D01*
X056203D01*
Y030970D01*
X056189Y030965D01*
X056175Y030971D01*
X056162Y031016D01*
X056165Y031028D01*
X056179Y031035D01*
X056203Y031030D01*
Y031030D01*
X056537D01*
Y031066D01*
X056603D01*
Y031030D01*
X056937D01*
Y031325D01*
X056603D01*
Y031288D01*
X056537D01*
Y031325D01*
X056203D01*
Y031288D01*
X056131D01*
X056131Y031288D01*
X056088Y031280D01*
X056052Y031256D01*
X056052Y031256D01*
X055696Y030900D01*
X055100D01*
X054593Y031407D01*
X054613Y031453D01*
X055228D01*
Y031467D01*
X055306D01*
Y031453D01*
X056094D01*
Y031467D01*
X056172D01*
Y031453D01*
X056960D01*
Y032004D01*
X056172D01*
Y031990D01*
X056094D01*
Y032004D01*
X055306D01*
Y031990D01*
X055228D01*
Y032004D01*
X054500D01*
Y032612D01*
X054736D01*
Y032500D01*
X054755Y032455D01*
X054800Y032436D01*
X054836D01*
X054880Y032380D01*
X054944Y032330D01*
X055019Y032299D01*
X055100Y032288D01*
X055181Y032299D01*
X055256Y032330D01*
X055320Y032380D01*
X055364Y032436D01*
X055436D01*
X055480Y032380D01*
X055544Y032330D01*
X055619Y032299D01*
X055700Y032288D01*
X055781Y032299D01*
X055856Y032330D01*
X055920Y032380D01*
X055964Y032436D01*
X056036D01*
X056080Y032380D01*
X056144Y032330D01*
X056219Y032299D01*
X056300Y032288D01*
X056381Y032299D01*
X056456Y032330D01*
X056520Y032380D01*
X056564Y032436D01*
X056600D01*
X056645Y032455D01*
X056664Y032500D01*
Y034100D01*
X056645Y034145D01*
X056600Y034164D01*
X056055D01*
X056015Y034189D01*
Y034583D01*
X055385D01*
Y034548D01*
X054858D01*
X054796Y034536D01*
X054744Y034501D01*
X054071Y033827D01*
X054024Y033847D01*
Y034741D01*
X053931D01*
Y034878D01*
X053772D01*
Y035078D01*
X053931D01*
Y035100D01*
X054436D01*
Y035000D01*
X054455Y034955D01*
X054500Y034936D01*
X056900D01*
X056945Y034955D01*
X056964Y035000D01*
Y035100D01*
X057312D01*
Y031495D01*
X057302Y031480D01*
X057286Y031399D01*
X057302Y031317D01*
X057348Y031248D01*
X057417Y031202D01*
X057499Y031186D01*
X057580Y031202D01*
X057649Y031248D01*
X057696Y031317D01*
X057712Y031399D01*
X057696Y031480D01*
X057649Y031549D01*
X057580Y031596D01*
X057534Y031605D01*
Y033627D01*
X057560Y033639D01*
X057609Y033610D01*
Y033206D01*
X057616D01*
Y032477D01*
X057616Y032477D01*
X057625Y032434D01*
X057649Y032398D01*
X058626Y031421D01*
X058626Y031421D01*
X058662Y031397D01*
X058704Y031389D01*
X058704Y031389D01*
X058823D01*
X058849Y031349D01*
X058918Y031303D01*
X059000Y031287D01*
X059082Y031303D01*
X059151Y031349D01*
X059197Y031418D01*
X059213Y031500D01*
X059197Y031582D01*
X059151Y031651D01*
X059122Y031670D01*
Y031730D01*
X059151Y031749D01*
X059197Y031818D01*
X059213Y031900D01*
X059197Y031982D01*
X059151Y032051D01*
X059082Y032097D01*
X059000Y032113D01*
X058953Y032104D01*
X058532Y032526D01*
X058553Y032575D01*
X058867D01*
Y032621D01*
X059636D01*
Y032500D01*
X059655Y032455D01*
X059700Y032436D01*
X059736D01*
X059780Y032380D01*
X059844Y032330D01*
X059919Y032299D01*
X060000Y032288D01*
X060081Y032299D01*
X060156Y032330D01*
X060220Y032380D01*
X060264Y032436D01*
X060336D01*
X060380Y032380D01*
X060444Y032330D01*
X060519Y032299D01*
X060600Y032288D01*
X060681Y032299D01*
X060756Y032330D01*
X060820Y032380D01*
X060864Y032436D01*
X060936D01*
X060980Y032380D01*
X061044Y032330D01*
X061119Y032299D01*
X061200Y032288D01*
X061281Y032299D01*
X061356Y032330D01*
X061420Y032380D01*
X061464Y032436D01*
X061500D01*
X061545Y032455D01*
X061564Y032500D01*
Y034100D01*
X061545Y034145D01*
X061500Y034164D01*
X060955D01*
X060915Y034189D01*
Y034583D01*
X060285D01*
Y034548D01*
X059758D01*
X059696Y034536D01*
X059644Y034501D01*
X058971Y033827D01*
X058924Y033847D01*
Y034741D01*
X058832D01*
Y034878D01*
X058672D01*
Y035078D01*
X058832D01*
Y035100D01*
X059336D01*
Y035000D01*
X059355Y034955D01*
X059400Y034936D01*
X061800D01*
X061845Y034955D01*
X061864Y035000D01*
Y035100D01*
X062212D01*
Y031192D01*
X062149Y031151D01*
X062103Y031082D01*
X062087Y031000D01*
X062103Y030918D01*
X062149Y030849D01*
X062218Y030803D01*
X062300Y030787D01*
X062382Y030803D01*
X062451Y030849D01*
X062470Y030878D01*
X062530D01*
X062549Y030849D01*
X062618Y030803D01*
X062700Y030787D01*
X062782Y030803D01*
X062851Y030849D01*
X062870Y030878D01*
X062930D01*
X062949Y030849D01*
X063018Y030803D01*
X063100Y030787D01*
X063182Y030803D01*
X063251Y030849D01*
X063297Y030918D01*
X063313Y031000D01*
X063297Y031082D01*
X063251Y031151D01*
X063182Y031197D01*
X063113Y031211D01*
X063054Y031270D01*
Y033206D01*
X063061D01*
Y033610D01*
X063111Y033639D01*
X063136Y033627D01*
Y033422D01*
X063139Y033406D01*
Y033206D01*
X063376D01*
Y033323D01*
X063384Y033329D01*
X063452Y033317D01*
X063454Y033313D01*
Y033225D01*
X063433D01*
Y032930D01*
X063767D01*
Y033225D01*
X063767D01*
X063759Y033264D01*
X063760Y033275D01*
X063810Y033308D01*
X064490Y033988D01*
X064536Y033969D01*
Y032843D01*
X063767D01*
Y032870D01*
X063433D01*
Y032575D01*
X063767D01*
Y032621D01*
X064536D01*
Y032500D01*
X064555Y032455D01*
X064600Y032436D01*
X064636D01*
X064680Y032380D01*
X064744Y032330D01*
X064819Y032299D01*
X064900Y032288D01*
X064981Y032299D01*
X065056Y032330D01*
X065120Y032380D01*
X065164Y032436D01*
X065236D01*
X065280Y032380D01*
X065344Y032330D01*
X065419Y032299D01*
X065500Y032288D01*
X065581Y032299D01*
X065656Y032330D01*
X065720Y032380D01*
X065764Y032436D01*
X065836D01*
X065880Y032380D01*
X065944Y032330D01*
X066019Y032299D01*
X066100Y032288D01*
X066181Y032299D01*
X066256Y032330D01*
X066320Y032380D01*
X066364Y032436D01*
X066400D01*
X066445Y032455D01*
X066464Y032500D01*
Y034100D01*
X066445Y034145D01*
X066400Y034164D01*
X065855D01*
X065815Y034189D01*
Y034583D01*
X065185D01*
Y034548D01*
X064658D01*
X064596Y034536D01*
X064544Y034501D01*
X063871Y033827D01*
X063824Y033847D01*
Y034741D01*
X063731D01*
Y034878D01*
X063572D01*
Y035078D01*
X063731D01*
Y035100D01*
X064236D01*
Y035000D01*
D02*
G37*
G36*
X060200Y025600D02*
Y024877D01*
X060203Y024860D01*
X060254Y024784D01*
X060330Y024733D01*
X060420Y024715D01*
X060501Y024732D01*
X060521Y024711D01*
X060531Y024690D01*
X059724Y023884D01*
X059618D01*
Y024292D01*
X059284D01*
Y024418D01*
X059555D01*
Y024398D01*
X059657D01*
Y024500D01*
X059652D01*
Y024700D01*
X059700Y024700D01*
X059900Y024900D01*
Y025150D01*
X059750Y025300D01*
X059500Y025300D01*
Y025500D01*
X059950D01*
Y025600D01*
X060200Y025600D01*
D02*
G37*
G36*
X059487Y028542D02*
X059513Y028542D01*
X059590Y028532D01*
X059686Y028492D01*
X059768Y028429D01*
X059831Y028347D01*
X059881Y028200D01*
X059881Y028148D01*
X059881Y028148D01*
X059881Y026652D01*
X059881Y026600D01*
X059831Y026453D01*
X059768Y026371D01*
X059686Y026308D01*
X059539Y026258D01*
X059487Y026258D01*
X059487Y026258D01*
X059054Y026258D01*
Y028542D01*
X059487Y028542D01*
D02*
G37*
G36*
X053565Y030500D02*
X053820D01*
Y030400D01*
X053920D01*
Y030166D01*
X054000Y030220D01*
X054010Y030234D01*
X054054D01*
X054070Y030224D01*
Y029838D01*
X054470D01*
Y029782D01*
X054427D01*
Y029485D01*
X054327D01*
Y029385D01*
X054050D01*
Y029300D01*
X053104D01*
X053087Y029350D01*
X053134Y029386D01*
X053182Y029449D01*
X053203Y029500D01*
X052920D01*
Y029700D01*
X053203D01*
X053182Y029751D01*
X053134Y029814D01*
X053071Y029862D01*
X052998Y029892D01*
X052970Y029896D01*
Y030185D01*
X053312Y030527D01*
X053548D01*
X053565Y030500D01*
D02*
G37*
G36*
X065400Y025900D02*
X064800D01*
Y027300D01*
X064400Y027700D01*
X063570Y027700D01*
X063570Y028570D01*
X063900Y028900D01*
X065400D01*
Y025900D01*
D02*
G37*
G36*
X052716Y033118D02*
Y032772D01*
X052716Y032772D01*
X052725Y032730D01*
X052749Y032694D01*
X054732Y030711D01*
Y029527D01*
X054732Y029527D01*
X054740Y029485D01*
X054764Y029449D01*
X054909Y029304D01*
Y027600D01*
X054909Y027600D01*
X054917Y027557D01*
X054918Y027556D01*
X054907Y027500D01*
X054923Y027418D01*
X054969Y027349D01*
X055038Y027303D01*
X055120Y027287D01*
X055201Y027303D01*
X055271Y027349D01*
X055290Y027378D01*
X055350D01*
X055369Y027349D01*
X055438Y027303D01*
X055520Y027287D01*
X055601Y027303D01*
X055671Y027349D01*
X055690Y027378D01*
X055750D01*
X055769Y027349D01*
X055838Y027303D01*
X055920Y027287D01*
X056001Y027303D01*
X056071Y027349D01*
X056117Y027418D01*
X056133Y027500D01*
X056124Y027547D01*
X056366Y027789D01*
X056533D01*
X056559Y027749D01*
X056628Y027703D01*
X056710Y027687D01*
X056792Y027703D01*
X056861Y027749D01*
X056907Y027818D01*
X056923Y027900D01*
X056907Y027982D01*
X056869Y028038D01*
X056930Y028079D01*
X056984Y028159D01*
X056750D01*
Y028359D01*
X056984D01*
X056930Y028439D01*
X056848Y028495D01*
X056760Y028512D01*
X056735Y028558D01*
X057573Y029396D01*
X057620Y029387D01*
X057701Y029403D01*
X057771Y029449D01*
X057817Y029518D01*
X057833Y029600D01*
X057817Y029682D01*
X057771Y029751D01*
X057715Y029788D01*
X057730Y029838D01*
X058595D01*
X059106Y029327D01*
Y029162D01*
X059272D01*
X059280Y029118D01*
X059326Y029049D01*
X059396Y029003D01*
X059477Y028987D01*
X059559Y029003D01*
X059628Y029049D01*
X059674Y029118D01*
X059690Y029200D01*
X059674Y029282D01*
X059628Y029351D01*
X059559Y029397D01*
Y029438D01*
X059454D01*
X058777Y030115D01*
X058725Y030150D01*
X058663Y030162D01*
X057253D01*
X057201Y030197D01*
X057120Y030213D01*
X057038Y030197D01*
X057015Y030182D01*
X056954D01*
X056558Y030577D01*
X056561Y030605D01*
X056580Y030634D01*
X056670D01*
Y030823D01*
X056870D01*
Y030634D01*
X056978D01*
Y030800D01*
X057414D01*
X057455Y030750D01*
X057445Y030700D01*
X057464Y030602D01*
X057520Y030520D01*
X057600Y030466D01*
Y030700D01*
X057800D01*
Y030466D01*
X057880Y030520D01*
X057936Y030602D01*
X057955Y030700D01*
X057945Y030750D01*
X057986Y030800D01*
X059414Y030800D01*
X059455Y030750D01*
X059445Y030700D01*
X059465Y030602D01*
X059520Y030520D01*
X059600Y030466D01*
Y030700D01*
X059800D01*
Y030466D01*
X059880Y030520D01*
X059935Y030602D01*
X059955Y030700D01*
X059945Y030750D01*
X059986Y030800D01*
X060170D01*
X060599Y030371D01*
X060619Y025178D01*
X060569Y025151D01*
X060520Y025184D01*
Y024950D01*
X060320D01*
Y025184D01*
X060308Y025176D01*
X060264Y025199D01*
Y025600D01*
X060245Y025645D01*
X060223Y025654D01*
Y026015D01*
X059900D01*
Y025965D01*
X059712D01*
Y025987D01*
X058979D01*
X058955Y026037D01*
X058956Y026038D01*
X058968Y026100D01*
Y026119D01*
X059047Y026198D01*
X059054Y026194D01*
X059487Y026194D01*
X059487Y026194D01*
X059539Y026194D01*
X059549Y026198D01*
X059560Y026198D01*
X059707Y026248D01*
X059715Y026255D01*
X059725Y026257D01*
X059807Y026320D01*
X059811Y026328D01*
X059819Y026332D01*
X059882Y026415D01*
X059885Y026425D01*
X059892Y026433D01*
X059942Y026580D01*
X059941Y026590D01*
X059945Y026600D01*
X059945Y026652D01*
X059945Y026652D01*
X059945Y026652D01*
X059945Y027150D01*
X059989Y027173D01*
X060000Y027166D01*
Y027400D01*
Y027634D01*
X059989Y027627D01*
X059945Y027650D01*
X059945Y028148D01*
X059945Y028148D01*
X059945Y028148D01*
X059945Y028200D01*
X059941Y028210D01*
X059942Y028220D01*
X059892Y028367D01*
X059885Y028375D01*
X059882Y028385D01*
X059819Y028468D01*
X059811Y028472D01*
X059807Y028480D01*
X059725Y028543D01*
X059717Y028545D01*
X059710Y028551D01*
X059615Y028591D01*
X059606D01*
X059599Y028595D01*
X059522Y028605D01*
X059517Y028604D01*
X059513Y028606D01*
X059487Y028606D01*
X059054Y028606D01*
X059054Y028606D01*
X059054Y028606D01*
X059031Y028596D01*
X059009Y028587D01*
X059009Y028587D01*
X059009Y028587D01*
X059000Y028565D01*
X058990Y028542D01*
X058990Y028542D01*
X058990Y028542D01*
Y026600D01*
X058692Y026301D01*
X058656Y026248D01*
X058644Y026186D01*
Y026100D01*
X058656Y026038D01*
X058670Y026018D01*
Y025790D01*
X058680Y025737D01*
X058688Y025725D01*
Y025593D01*
X058688D01*
X058676Y025560D01*
X058676Y025548D01*
X058676Y025085D01*
X058550Y024959D01*
X058489D01*
X058432Y024997D01*
X058350Y025013D01*
X058268Y024997D01*
X058211Y024959D01*
X057329Y024959D01*
X057284Y024940D01*
X057265Y024895D01*
Y024403D01*
X057284Y024358D01*
X057329Y024339D01*
X057953Y024339D01*
X057957Y023472D01*
X057933Y023461D01*
X057907Y023458D01*
X057864Y023514D01*
X057801Y023562D01*
X057750Y023583D01*
Y023300D01*
X057650D01*
Y023200D01*
X057317D01*
D01*
X056989D01*
Y023864D01*
X056471D01*
Y023665D01*
X056449Y023651D01*
X056403Y023582D01*
X056387Y023500D01*
X056403Y023418D01*
X056449Y023349D01*
X056471Y023335D01*
Y023200D01*
X055729Y023200D01*
Y023463D01*
X055731Y023480D01*
X055729Y023497D01*
Y023864D01*
X055211D01*
Y023497D01*
X055209Y023480D01*
X055211Y023463D01*
Y023200D01*
X055012D01*
X054967Y023245D01*
Y023370D01*
X055008Y023389D01*
Y023477D01*
X054800D01*
Y023577D01*
X054700D01*
Y023766D01*
X054500D01*
Y023577D01*
X054300D01*
Y023766D01*
X054220D01*
Y023815D01*
X054230Y023817D01*
X054313Y023872D01*
X054366Y023952D01*
X054132D01*
Y024152D01*
X054366D01*
X054313Y024233D01*
X054230Y024288D01*
X054220Y024290D01*
X054220Y024789D01*
X054295D01*
Y024733D01*
X054590D01*
Y024733D01*
X054640Y024738D01*
X054649Y024733D01*
Y024733D01*
X054945D01*
Y024872D01*
X054949Y024879D01*
X054965Y024960D01*
X054949Y025042D01*
X054955Y025076D01*
X054982Y025099D01*
X055001Y025103D01*
X055071Y025149D01*
X055117Y025218D01*
X055133Y025300D01*
X055117Y025382D01*
X055071Y025451D01*
X055001Y025497D01*
X054920Y025513D01*
X054838Y025497D01*
X054794Y025467D01*
X054649D01*
Y025189D01*
X054640Y025183D01*
X054590Y025212D01*
Y025467D01*
X054295D01*
Y025344D01*
X054270Y025325D01*
X054220Y025347D01*
X054220Y026503D01*
X054229Y026507D01*
X054270Y026518D01*
X054300Y026497D01*
X054343Y026489D01*
X055201D01*
Y026261D01*
X055799D01*
Y026939D01*
X055201D01*
Y026711D01*
X054389D01*
X054314Y026786D01*
X054333Y026833D01*
X054445D01*
Y027167D01*
X054408D01*
Y027229D01*
X054563D01*
Y027741D01*
X054517D01*
X054496Y027768D01*
X054517Y027818D01*
X054604D01*
Y028015D01*
X054327D01*
Y028115D01*
X054227D01*
Y028412D01*
X054100D01*
Y028100D01*
Y027818D01*
X054172D01*
X054180Y027808D01*
X054170Y027741D01*
X054169Y027741D01*
X054091D01*
Y027609D01*
X054088Y027596D01*
X053324D01*
X052990Y027930D01*
Y028015D01*
X052713D01*
Y028215D01*
X052990D01*
Y028412D01*
X052634D01*
Y029229D01*
X052949D01*
Y029295D01*
X052958Y029305D01*
X052984Y029308D01*
X053022Y029286D01*
X053027Y029274D01*
X053028Y029271D01*
X053029Y029269D01*
X053036Y029258D01*
X053043Y029246D01*
X053045Y029245D01*
X053046Y029242D01*
X053057Y029235D01*
X053068Y029227D01*
X053070Y029226D01*
X053073Y029225D01*
X053086Y029222D01*
X053099Y029219D01*
X053101Y029219D01*
X053104Y029218D01*
X054045D01*
X054050Y029218D01*
X054050Y029218D01*
X054081Y029225D01*
X054086Y029228D01*
X054091Y029229D01*
X054091Y029229D01*
X054563D01*
Y029741D01*
X054563Y029741D01*
X054563D01*
X054551Y029786D01*
Y029838D01*
X054550Y029843D01*
X054563Y029859D01*
X054563D01*
Y030371D01*
X054457D01*
X054433Y030400D01*
X054417Y030482D01*
X054371Y030551D01*
X054301Y030597D01*
X054220Y030613D01*
X054145Y030598D01*
X054006Y030738D01*
X053970Y030762D01*
X053927Y030770D01*
X053927Y030770D01*
X053257D01*
X053214Y030762D01*
X053178Y030738D01*
X052811Y030371D01*
X052634D01*
Y031186D01*
X052678Y031210D01*
X052688Y031203D01*
X052770Y031187D01*
X052851Y031203D01*
X052921Y031249D01*
X052930Y031264D01*
X052990Y031264D01*
X053020Y031220D01*
X053100Y031166D01*
Y031400D01*
Y031634D01*
X053020Y031580D01*
X052990Y031536D01*
X052930Y031536D01*
X052921Y031551D01*
X052851Y031597D01*
X052770Y031613D01*
X052723Y031604D01*
X052634Y031693D01*
X052634Y033135D01*
X052680Y033154D01*
X052716Y033118D01*
D02*
G37*
G36*
X060820Y041100D02*
X060846D01*
X060924Y041090D01*
X061022Y041049D01*
X061105Y040985D01*
X061169Y040902D01*
X061220Y040753D01*
X061220Y040700D01*
X061220Y039300D01*
X061220D01*
X061220Y036600D01*
X061800Y036020D01*
X061800Y035000D01*
X059400D01*
X059400Y038500D01*
X058920Y038980D01*
X058920Y039300D01*
X060760Y039300D01*
X058920D01*
X058920Y040700D01*
Y040726D01*
X058930Y040804D01*
X058971Y040902D01*
X059035Y040985D01*
X059118Y041049D01*
X059215Y041090D01*
X059294Y041100D01*
X059320D01*
X060820Y041100D01*
X060820Y041100D01*
D02*
G37*
G36*
X064067Y041139D02*
X063994Y041108D01*
X063988Y041102D01*
X063979Y041100D01*
X063896Y041036D01*
X063891Y041029D01*
X063884Y041024D01*
X063820Y040941D01*
X063818Y040932D01*
X063811Y040926D01*
X063771Y040829D01*
Y040820D01*
X063767Y040813D01*
X063757Y040735D01*
X063758Y040730D01*
X063756Y040726D01*
X063756Y039300D01*
X063756Y039300D01*
X063756Y038980D01*
X063775Y038935D01*
X064236Y038474D01*
Y038211D01*
X063820D01*
X063777Y038203D01*
X063741Y038179D01*
X063741Y038179D01*
X063621Y038059D01*
X063597Y038023D01*
X063589Y037980D01*
X063589Y037980D01*
Y036742D01*
X063491Y036644D01*
X063445Y036663D01*
Y036598D01*
X063347Y036500D01*
X062812Y036500D01*
Y036422D01*
X062764Y036393D01*
X062759Y036397D01*
X062677Y036413D01*
X062596Y036397D01*
X062573Y036382D01*
X062530Y036367D01*
D01*
X062520Y036365D01*
X062470Y036367D01*
Y036367D01*
X062175D01*
Y036033D01*
X062212D01*
Y035967D01*
X062175D01*
Y035633D01*
X062212D01*
Y035200D01*
X061864Y035200D01*
X061864Y036020D01*
X061845Y036065D01*
X061557Y036353D01*
X061576Y036399D01*
X061672D01*
Y036500D01*
X061490D01*
X061455Y036535D01*
Y036521D01*
X061409Y036501D01*
X061284Y036626D01*
X061284Y039300D01*
X061284Y039300D01*
X061284Y040700D01*
X061284Y040753D01*
X061280Y040763D01*
X061280Y040773D01*
X061230Y040922D01*
X061223Y040930D01*
X061220Y040941D01*
X061156Y041024D01*
X061148Y041029D01*
X061144Y041036D01*
X061061Y041100D01*
X061052Y041102D01*
X061046Y041108D01*
X060973Y041139D01*
X060983Y041189D01*
X064057D01*
X064067Y041139D01*
D02*
G37*
G36*
X056119Y030850D02*
X056086Y030800D01*
X056320D01*
Y030700D01*
X056420D01*
Y030466D01*
X056500Y030520D01*
X056900Y030120D01*
X056886Y030100D01*
X057120D01*
Y029900D01*
X056886D01*
X056940Y029820D01*
X057022Y029764D01*
X057034Y029736D01*
X057003Y029690D01*
X056985Y029600D01*
X056993Y029561D01*
X055722Y028290D01*
X055668Y028306D01*
X055659Y028351D01*
X055608Y028427D01*
X055575Y028449D01*
Y028798D01*
X055657D01*
Y029000D01*
Y029202D01*
X055575D01*
Y029377D01*
X055565Y029428D01*
X055536Y029471D01*
X055293Y029714D01*
Y029828D01*
X055320Y029845D01*
Y030100D01*
X055420D01*
Y030200D01*
X055654D01*
X055600Y030280D01*
X055535Y030324D01*
X055523Y030382D01*
X056041Y030900D01*
X056093D01*
X056119Y030850D01*
D02*
G37*
G36*
X054267Y041139D02*
X054194Y041108D01*
X054188Y041102D01*
X054179Y041100D01*
X054096Y041036D01*
X054091Y041029D01*
X054084Y041024D01*
X054020Y040941D01*
X054018Y040932D01*
X054011Y040926D01*
X053971Y040829D01*
Y040820D01*
X053967Y040813D01*
X053957Y040735D01*
X053958Y040730D01*
X053956Y040726D01*
X053956Y039300D01*
X053956Y039300D01*
X053956Y038980D01*
X053975Y038935D01*
X054436Y038474D01*
Y038211D01*
X054020D01*
X053977Y038203D01*
X053941Y038179D01*
X053941Y038179D01*
X053821Y038059D01*
X053797Y038023D01*
X053789Y037980D01*
X053789Y037980D01*
Y036742D01*
X053691Y036644D01*
D01*
X053647Y036600D01*
X053550Y036600D01*
Y036500D01*
X053100D01*
Y036968D01*
X053063Y037077D01*
X053012Y037144D01*
Y037127D01*
X052964Y037110D01*
X052943Y037139D01*
X052848Y037211D01*
X052738Y037257D01*
X052620Y037272D01*
X052502Y037257D01*
X052392Y037211D01*
X052297Y037139D01*
X052261Y037092D01*
X052211Y037109D01*
Y037300D01*
X052211Y040000D01*
X052211D01*
Y040054D01*
X053346Y041189D01*
X054257D01*
X054267Y041139D01*
D02*
G37*
G36*
X059167D02*
X059094Y041108D01*
X059088Y041102D01*
X059079Y041100D01*
X058996Y041036D01*
X058991Y041029D01*
X058984Y041024D01*
X058920Y040941D01*
X058918Y040932D01*
X058911Y040926D01*
X058871Y040829D01*
Y040820D01*
X058867Y040813D01*
X058857Y040735D01*
X058858Y040730D01*
X058856Y040726D01*
X058856Y039300D01*
X058856Y039300D01*
X058856Y038980D01*
X058875Y038935D01*
X059336Y038474D01*
Y038211D01*
X058920D01*
X058877Y038203D01*
X058841Y038179D01*
X058841Y038179D01*
X058721Y038059D01*
X058697Y038023D01*
X058689Y037980D01*
X058689Y037980D01*
Y036742D01*
X058591Y036644D01*
X058545Y036663D01*
Y036598D01*
X058447Y036500D01*
X057912Y036500D01*
Y036422D01*
X057864Y036393D01*
X057859Y036397D01*
X057777Y036413D01*
X057696Y036397D01*
X057673Y036382D01*
X057630Y036367D01*
D01*
X057620Y036365D01*
X057570Y036367D01*
Y036367D01*
X057275D01*
Y036033D01*
X057312D01*
Y035967D01*
X057275D01*
Y035633D01*
X057312D01*
Y035200D01*
X056964D01*
X056964Y036020D01*
X056945Y036065D01*
X056657Y036353D01*
X056676Y036399D01*
X056772D01*
Y036500D01*
X056590D01*
X056555Y036535D01*
Y036521D01*
X056509Y036501D01*
X056384Y036626D01*
X056384Y039300D01*
X056384Y039300D01*
X056384Y040700D01*
X056384Y040753D01*
X056380Y040763D01*
X056380Y040773D01*
X056330Y040922D01*
X056323Y040930D01*
X056320Y040941D01*
X056256Y041024D01*
X056248Y041029D01*
X056244Y041036D01*
X056161Y041100D01*
X056152Y041102D01*
X056146Y041108D01*
X056073Y041139D01*
X056083Y041189D01*
X059157D01*
X059167Y041139D01*
D02*
G37*
G36*
X067141Y040501D02*
X067141Y040501D01*
X067589Y040054D01*
Y039098D01*
X067589Y039098D01*
X067589Y036902D01*
X067589D01*
Y035200D01*
X066764D01*
X066764Y036020D01*
X066745Y036065D01*
X066457Y036353D01*
X066476Y036399D01*
X066572D01*
Y036500D01*
X066443D01*
Y036537D01*
X066355Y036537D01*
Y036521D01*
X066309Y036501D01*
X066184Y036626D01*
X066184Y039300D01*
X066184Y039300D01*
X066184Y040700D01*
X066184Y040753D01*
X066180Y040763D01*
X066180Y040773D01*
X066130Y040922D01*
X066123Y040930D01*
X066120Y040941D01*
X066056Y041024D01*
X066048Y041029D01*
X066044Y041036D01*
X065961Y041100D01*
X065952Y041102D01*
X065946Y041108D01*
X065873Y041139D01*
X065883Y041189D01*
X066454D01*
X067141Y040501D01*
D02*
G37*
G36*
X065720Y041100D02*
X065746D01*
X065824Y041090D01*
X065922Y041049D01*
X066005Y040985D01*
X066069Y040902D01*
X066120Y040753D01*
X066120Y040700D01*
X066120Y039300D01*
X066120D01*
X066120Y036600D01*
X066700Y036020D01*
X066700Y035000D01*
X064300D01*
X064300Y038500D01*
X063820Y038980D01*
X063820Y039300D01*
X065660Y039300D01*
X063820D01*
X063820Y040700D01*
Y040726D01*
X063830Y040804D01*
X063871Y040902D01*
X063935Y040985D01*
X064018Y041049D01*
X064115Y041090D01*
X064194Y041100D01*
X064220D01*
X065720Y041100D01*
X065720Y041100D01*
D02*
G37*
G36*
X064600Y026000D02*
X064000Y025400D01*
X061900D01*
Y026700D01*
X063400D01*
X063500Y026800D01*
Y027200D01*
X064600D01*
X064600Y026000D01*
D02*
G37*
G36*
X052268Y036464D02*
X052322Y036422D01*
X052354Y036388D01*
X052354D01*
X052354Y036388D01*
Y036012D01*
X052354D01*
X052354Y035988D01*
X052354D01*
Y035612D01*
X052390D01*
Y031647D01*
X052400Y031596D01*
X052429Y031553D01*
X052520Y031463D01*
Y030392D01*
X052456D01*
Y029838D01*
X052520D01*
X052520Y029782D01*
X052436D01*
Y029585D01*
X052713D01*
Y029385D01*
X052436D01*
Y029188D01*
X052520D01*
Y028392D01*
X052456D01*
Y027838D01*
X052966D01*
X053141Y027664D01*
X053122Y027618D01*
X052970D01*
Y027762D01*
X052456D01*
Y027208D01*
X052970D01*
Y027352D01*
X053467D01*
X053720Y027100D01*
X053943D01*
Y027000D01*
X054043D01*
Y026777D01*
X054120Y026700D01*
X054120Y025562D01*
X053510D01*
Y025262D01*
Y025006D01*
Y024550D01*
X053490D01*
Y024535D01*
X053467Y024532D01*
X053394Y024501D01*
X053345Y024464D01*
X053295Y024483D01*
Y024875D01*
X052920D01*
Y024400D01*
Y023925D01*
X053295D01*
Y023995D01*
X053345Y024015D01*
X053394Y023977D01*
X053445Y023956D01*
Y024239D01*
X053645D01*
Y023956D01*
X053696Y023977D01*
X053759Y024025D01*
X053807Y024088D01*
X053837Y024161D01*
X053844Y024210D01*
X053908D01*
X053932Y024166D01*
X053916Y024142D01*
X053898Y024052D01*
X053916Y023963D01*
X053966Y023887D01*
X054043Y023836D01*
X054090Y023826D01*
X054132Y023816D01*
X054138Y023770D01*
Y023766D01*
X054145Y023735D01*
X054162Y023708D01*
X054189Y023690D01*
X054212Y023686D01*
Y023409D01*
X054212D01*
Y023391D01*
X054212D01*
Y023054D01*
X054381D01*
X054829Y022606D01*
X054872Y022578D01*
X054910Y022570D01*
X054934Y022534D01*
X055010Y022483D01*
X055100Y022465D01*
X055139Y022473D01*
X055265Y022347D01*
X055308Y022318D01*
X055359Y022308D01*
X055710D01*
X056084Y021935D01*
X056056Y021893D01*
X056027Y021904D01*
X056019Y021905D01*
Y021500D01*
Y021095D01*
X056027Y021096D01*
X056128Y021137D01*
X056215Y021204D01*
X056281Y021291D01*
X056296Y021327D01*
X056350D01*
X056361Y021301D01*
X056425Y021218D01*
X056507Y021155D01*
X056603Y021115D01*
X056706Y021102D01*
X056809Y021115D01*
X056905Y021155D01*
X056988Y021218D01*
X057051Y021301D01*
X057073Y021353D01*
X057127D01*
X057149Y021301D01*
X057212Y021218D01*
X057295Y021155D01*
X057391Y021115D01*
X057494Y021102D01*
X057597Y021115D01*
X057693Y021155D01*
X057775Y021218D01*
X057839Y021301D01*
X057862Y021356D01*
X057916D01*
X057939Y021301D01*
X058002Y021218D01*
X058085Y021155D01*
X058181Y021115D01*
X058284Y021102D01*
X058387Y021115D01*
X058483Y021155D01*
X058565Y021218D01*
X058629Y021301D01*
X058669Y021397D01*
X058682Y021500D01*
X058669Y021603D01*
X058629Y021699D01*
X058565Y021782D01*
X058483Y021845D01*
X058387Y021885D01*
X058284Y021898D01*
X058181Y021885D01*
X058114Y021857D01*
X057783Y022189D01*
Y023052D01*
X057791Y023055D01*
X057850Y023100D01*
X057895Y023159D01*
X057912Y023200D01*
X057962Y023190D01*
Y023088D01*
X058149D01*
Y023200D01*
X058022D01*
X058016Y024403D01*
X057329Y024403D01*
Y024895D01*
X058577Y024895D01*
X058740Y025058D01*
X058740Y025560D01*
X058870Y025560D01*
X058870Y024792D01*
X058906D01*
Y024772D01*
X058916D01*
Y023870D01*
X058930Y023800D01*
X058970Y023740D01*
X059084Y023626D01*
Y023108D01*
X059618D01*
Y023516D01*
X059800D01*
X059870Y023530D01*
X059930Y023570D01*
X061376Y025016D01*
X066200D01*
X066270Y025030D01*
X066300Y025050D01*
X067589D01*
Y021046D01*
X066954Y020411D01*
X052843D01*
X052211Y021043D01*
Y036460D01*
X052259Y036476D01*
X052268Y036464D01*
D02*
G37*
%LPC*%
G36*
X066657Y024400D02*
X066420D01*
Y024163D01*
X066496Y024194D01*
X066570Y024250D01*
X066626Y024323D01*
X066657Y024400D01*
D02*
G37*
G36*
X066220D02*
X065982D01*
X066014Y024323D01*
X066070Y024250D01*
X066143Y024194D01*
X066220Y024163D01*
Y024400D01*
D02*
G37*
G36*
X052720Y024300D02*
X052345D01*
Y023925D01*
X052720D01*
Y024300D01*
D02*
G37*
G36*
X055008Y023766D02*
X054900D01*
Y023677D01*
X055008D01*
Y023766D01*
D02*
G37*
G36*
X053295Y023775D02*
X052920D01*
Y023420D01*
X053295D01*
Y023775D01*
D02*
G37*
G36*
X058536Y024312D02*
X058420D01*
Y023800D01*
X058536D01*
Y024312D01*
D02*
G37*
G36*
X052720Y023775D02*
X052345D01*
Y023420D01*
X052720D01*
Y023775D01*
D02*
G37*
G36*
X060744Y024105D02*
X060736Y024104D01*
X060635Y024062D01*
X060548Y023996D01*
X060482Y023909D01*
X060440Y023808D01*
X060439Y023800D01*
X060744D01*
Y024105D01*
D02*
G37*
G36*
X059960Y024500D02*
X059900D01*
X059900Y024500D01*
X059857D01*
Y024398D01*
X059960D01*
Y024500D01*
D02*
G37*
G36*
X056630Y025415D02*
X056430D01*
Y025090D01*
X056630D01*
Y025415D01*
D02*
G37*
G36*
X057584Y025200D02*
X057450D01*
Y025066D01*
X057530Y025120D01*
X057584Y025200D01*
D02*
G37*
G36*
X057030Y025415D02*
X056830D01*
Y025090D01*
X057030D01*
Y025415D01*
D02*
G37*
G36*
X057800Y025651D02*
X057288D01*
Y025543D01*
X057252Y025536D01*
X057170Y025480D01*
X057116Y025400D01*
X057584D01*
X057570Y025420D01*
X057594Y025464D01*
X057800D01*
Y025651D01*
D02*
G37*
G36*
X055729Y025899D02*
X055211D01*
Y025131D01*
X055729D01*
Y025899D01*
D02*
G37*
G36*
X057250Y025200D02*
X057116D01*
X057170Y025120D01*
X057250Y025066D01*
Y025200D01*
D02*
G37*
G36*
X066220Y024837D02*
X066143Y024806D01*
X066070Y024750D01*
X066014Y024677D01*
X065982Y024600D01*
X066220D01*
Y024837D01*
D02*
G37*
G36*
X052720Y024875D02*
X052345D01*
Y024500D01*
X052720D01*
Y024875D01*
D02*
G37*
G36*
X066420Y024837D02*
Y024600D01*
X066657D01*
X066626Y024677D01*
X066570Y024750D01*
X066496Y024806D01*
X066420Y024837D01*
D02*
G37*
G36*
X053295Y025300D02*
X052920D01*
Y024925D01*
X053295D01*
Y025300D01*
D02*
G37*
G36*
X052720D02*
X052345D01*
Y024925D01*
X052720D01*
Y025300D01*
D02*
G37*
G36*
X057550Y023583D02*
X057499Y023562D01*
X057436Y023514D01*
X057388Y023451D01*
X057367Y023400D01*
X057550D01*
Y023583D01*
D02*
G37*
G36*
X053300Y022482D02*
X053226Y022475D01*
X053059Y022424D01*
X052905Y022341D01*
X052769Y022231D01*
X052659Y022095D01*
X052576Y021941D01*
X052525Y021774D01*
X052518Y021700D01*
X053300D01*
Y022482D01*
D02*
G37*
G36*
X064294Y021898D02*
X064191Y021885D01*
X064095Y021845D01*
X064012Y021782D01*
X063949Y021699D01*
X063927Y021647D01*
X063873D01*
X063851Y021699D01*
X063788Y021782D01*
X063706Y021845D01*
X063609Y021885D01*
X063506Y021898D01*
X063403Y021885D01*
X063307Y021845D01*
X063225Y021782D01*
X063161Y021699D01*
X063121Y021603D01*
X063108Y021500D01*
X063121Y021397D01*
X063161Y021301D01*
X063225Y021218D01*
X063307Y021155D01*
X063403Y021115D01*
X063506Y021102D01*
X063609Y021115D01*
X063706Y021155D01*
X063788Y021218D01*
X063851Y021301D01*
X063873Y021353D01*
X063927D01*
X063949Y021301D01*
X064012Y021218D01*
X064095Y021155D01*
X064191Y021115D01*
X064294Y021102D01*
X064397Y021115D01*
X064493Y021155D01*
X064575Y021218D01*
X064639Y021301D01*
X064679Y021397D01*
X064692Y021500D01*
X064679Y021603D01*
X064639Y021699D01*
X064575Y021782D01*
X064493Y021845D01*
X064397Y021885D01*
X064294Y021898D01*
D02*
G37*
G36*
X061594D02*
X061491Y021885D01*
X061395Y021845D01*
X061312Y021782D01*
X061249Y021699D01*
X061227Y021647D01*
X061173D01*
X061151Y021699D01*
X061088Y021782D01*
X061006Y021845D01*
X060909Y021885D01*
X060806Y021898D01*
X060703Y021885D01*
X060607Y021845D01*
X060525Y021782D01*
X060461Y021699D01*
X060421Y021603D01*
X060408Y021500D01*
X060421Y021397D01*
X060461Y021301D01*
X060525Y021218D01*
X060607Y021155D01*
X060703Y021115D01*
X060806Y021102D01*
X060909Y021115D01*
X061006Y021155D01*
X061088Y021218D01*
X061151Y021301D01*
X061173Y021353D01*
X061227D01*
X061249Y021301D01*
X061312Y021218D01*
X061395Y021155D01*
X061491Y021115D01*
X061594Y021102D01*
X061697Y021115D01*
X061793Y021155D01*
X061875Y021218D01*
X061939Y021301D01*
X061979Y021397D01*
X061992Y021500D01*
X061979Y021603D01*
X061939Y021699D01*
X061875Y021782D01*
X061793Y021845D01*
X061697Y021885D01*
X061594Y021898D01*
D02*
G37*
G36*
X066500Y022482D02*
Y021700D01*
X067282D01*
X067275Y021774D01*
X067224Y021941D01*
X067141Y022095D01*
X067031Y022231D01*
X066895Y022341D01*
X066741Y022424D01*
X066574Y022475D01*
X066500Y022482D01*
D02*
G37*
G36*
X066300D02*
X066226Y022475D01*
X066059Y022424D01*
X065905Y022341D01*
X065769Y022231D01*
X065659Y022095D01*
X065576Y021941D01*
X065525Y021774D01*
X065518Y021700D01*
X066300D01*
Y022482D01*
D02*
G37*
G36*
X053500D02*
Y021700D01*
X054282D01*
X054275Y021774D01*
X054224Y021941D01*
X054141Y022095D01*
X054031Y022231D01*
X053895Y022341D01*
X053741Y022424D01*
X053574Y022475D01*
X053500Y022482D01*
D02*
G37*
G36*
X066300Y021500D02*
X065518D01*
X065525Y021426D01*
X065576Y021259D01*
X065659Y021105D01*
X065769Y020969D01*
X065905Y020859D01*
X066059Y020776D01*
X066226Y020725D01*
X066300Y020718D01*
Y021500D01*
D02*
G37*
G36*
X054282D02*
X053500D01*
Y020718D01*
X053574Y020725D01*
X053741Y020776D01*
X053895Y020859D01*
X054031Y020969D01*
X054141Y021105D01*
X054224Y021259D01*
X054275Y021426D01*
X054282Y021500D01*
D02*
G37*
G36*
X053300D02*
X052518D01*
X052525Y021426D01*
X052576Y021259D01*
X052659Y021105D01*
X052769Y020969D01*
X052905Y020859D01*
X053059Y020776D01*
X053226Y020725D01*
X053300Y020718D01*
Y021500D01*
D02*
G37*
G36*
X055819Y021905D02*
X055811Y021904D01*
X055710Y021862D01*
X055623Y021796D01*
X055556Y021709D01*
X055515Y021608D01*
X055513Y021600D01*
X055819D01*
Y021905D01*
D02*
G37*
G36*
Y021400D02*
X055513D01*
X055515Y021392D01*
X055556Y021291D01*
X055623Y021204D01*
X055710Y021137D01*
X055811Y021096D01*
X055819Y021095D01*
Y021400D01*
D02*
G37*
G36*
X067282Y021500D02*
X066500D01*
Y020718D01*
X066574Y020725D01*
X066741Y020776D01*
X066895Y020859D01*
X067031Y020969D01*
X067141Y021105D01*
X067224Y021259D01*
X067275Y021426D01*
X067282Y021500D01*
D02*
G37*
G36*
X058700Y022300D02*
X058463D01*
X058494Y022223D01*
X058550Y022150D01*
X058623Y022094D01*
X058700Y022063D01*
Y022300D01*
D02*
G37*
G36*
X062620Y023137D02*
Y022900D01*
X062857D01*
X062826Y022977D01*
X062770Y023050D01*
X062696Y023106D01*
X062620Y023137D01*
D02*
G37*
G36*
X062420D02*
X062343Y023106D01*
X062270Y023050D01*
X062214Y022977D01*
X062182Y022900D01*
X062420D01*
Y023137D01*
D02*
G37*
G36*
X053295Y023220D02*
X052920D01*
Y022865D01*
X053295D01*
Y023220D01*
D02*
G37*
G36*
X060944Y024105D02*
Y023700D01*
Y023295D01*
X060952Y023296D01*
X061053Y023338D01*
X061140Y023404D01*
X061207Y023491D01*
X061222Y023527D01*
X061276D01*
X061286Y023501D01*
X061350Y023418D01*
X061432Y023355D01*
X061528Y023315D01*
X061631Y023302D01*
X061735Y023315D01*
X061831Y023355D01*
X061913Y023418D01*
X061977Y023501D01*
X061998Y023553D01*
X062052D01*
X062074Y023501D01*
X062137Y023418D01*
X062220Y023355D01*
X062316Y023315D01*
X062419Y023302D01*
X062522Y023315D01*
X062618Y023355D01*
X062701Y023418D01*
X062764Y023501D01*
X062787Y023556D01*
X062841D01*
X062864Y023501D01*
X062927Y023418D01*
X063010Y023355D01*
X063106Y023315D01*
X063209Y023302D01*
X063312Y023315D01*
X063408Y023355D01*
X063491Y023418D01*
X063554Y023501D01*
X063577Y023556D01*
X063631D01*
X063654Y023501D01*
X063717Y023418D01*
X063800Y023355D01*
X063896Y023315D01*
X063999Y023302D01*
X064102Y023315D01*
X064198Y023355D01*
X064281Y023418D01*
X064344Y023501D01*
X064363Y023547D01*
X064417D01*
X064436Y023501D01*
X064499Y023418D01*
X064582Y023355D01*
X064678Y023315D01*
X064781Y023302D01*
X064884Y023315D01*
X064980Y023355D01*
X065063Y023418D01*
X065126Y023501D01*
X065148Y023553D01*
X065202D01*
X065223Y023501D01*
X065287Y023418D01*
X065369Y023355D01*
X065465Y023315D01*
X065568Y023302D01*
X065672Y023315D01*
X065768Y023355D01*
X065850Y023418D01*
X065914Y023501D01*
X065935Y023553D01*
X065989D01*
X066011Y023501D01*
X066074Y023418D01*
X066157Y023355D01*
X066253Y023315D01*
X066356Y023302D01*
X066459Y023315D01*
X066555Y023355D01*
X066638Y023418D01*
X066701Y023501D01*
X066741Y023597D01*
X066754Y023700D01*
X066741Y023803D01*
X066701Y023899D01*
X066638Y023982D01*
X066555Y024045D01*
X066459Y024085D01*
X066356Y024098D01*
X066253Y024085D01*
X066157Y024045D01*
X066074Y023982D01*
X066011Y023899D01*
X065989Y023847D01*
X065935D01*
X065914Y023899D01*
X065850Y023982D01*
X065768Y024045D01*
X065672Y024085D01*
X065568Y024098D01*
X065465Y024085D01*
X065369Y024045D01*
X065287Y023982D01*
X065223Y023899D01*
X065202Y023847D01*
X065148D01*
X065126Y023899D01*
X065063Y023982D01*
X064980Y024045D01*
X064884Y024085D01*
X064781Y024098D01*
X064678Y024085D01*
X064582Y024045D01*
X064499Y023982D01*
X064436Y023899D01*
X064417Y023853D01*
X064363D01*
X064344Y023899D01*
X064281Y023982D01*
X064198Y024045D01*
X064102Y024085D01*
X063999Y024098D01*
X063896Y024085D01*
X063800Y024045D01*
X063717Y023982D01*
X063654Y023899D01*
X063631Y023844D01*
X063577D01*
X063554Y023899D01*
X063491Y023982D01*
X063408Y024045D01*
X063312Y024085D01*
X063209Y024098D01*
X063106Y024085D01*
X063010Y024045D01*
X062927Y023982D01*
X062864Y023899D01*
X062841Y023844D01*
X062787D01*
X062764Y023899D01*
X062701Y023982D01*
X062618Y024045D01*
X062522Y024085D01*
X062419Y024098D01*
X062316Y024085D01*
X062220Y024045D01*
X062137Y023982D01*
X062074Y023899D01*
X062052Y023847D01*
X061998D01*
X061977Y023899D01*
X061913Y023982D01*
X061831Y024045D01*
X061735Y024085D01*
X061631Y024098D01*
X061528Y024085D01*
X061432Y024045D01*
X061350Y023982D01*
X061286Y023899D01*
X061276Y023873D01*
X061222D01*
X061207Y023909D01*
X061140Y023996D01*
X061053Y024062D01*
X060952Y024104D01*
X060944Y024105D01*
D02*
G37*
G36*
X060744Y023600D02*
X060439D01*
X060440Y023592D01*
X060482Y023491D01*
X060548Y023404D01*
X060635Y023338D01*
X060736Y023296D01*
X060744Y023295D01*
Y023600D01*
D02*
G37*
G36*
X058536Y023600D02*
X058420D01*
Y023200D01*
X058349D01*
Y023088D01*
X058536D01*
Y023600D01*
D02*
G37*
G36*
X062857Y022700D02*
X062620D01*
Y022463D01*
X062696Y022494D01*
X062770Y022550D01*
X062826Y022623D01*
X062857Y022700D01*
D02*
G37*
G36*
X062420D02*
X062182D01*
X062214Y022623D01*
X062270Y022550D01*
X062343Y022494D01*
X062420Y022463D01*
Y022700D01*
D02*
G37*
G36*
X059137Y022300D02*
X058900D01*
Y022063D01*
X058977Y022094D01*
X059050Y022150D01*
X059106Y022223D01*
X059137Y022300D01*
D02*
G37*
G36*
X052720Y023220D02*
X052345D01*
Y022865D01*
X052720D01*
Y023220D01*
D02*
G37*
G36*
X058900Y022737D02*
Y022500D01*
X059137D01*
X059106Y022577D01*
X059050Y022650D01*
X058977Y022706D01*
X058900Y022737D01*
D02*
G37*
G36*
X058700D02*
X058623Y022706D01*
X058550Y022650D01*
X058494Y022577D01*
X058463Y022500D01*
X058700D01*
Y022737D01*
D02*
G37*
G36*
X058512Y025651D02*
X058000D01*
Y025464D01*
X058512D01*
Y025651D01*
D02*
G37*
G36*
X056734Y029600D02*
X056600D01*
Y029466D01*
X056680Y029520D01*
X056734Y029600D01*
D02*
G37*
G36*
X056400D02*
X056266D01*
X056320Y029520D01*
X056400Y029466D01*
Y029600D01*
D02*
G37*
G36*
X058675Y029479D02*
X058507D01*
Y029400D01*
X058675D01*
Y029479D01*
D02*
G37*
G36*
X056600Y029934D02*
Y029800D01*
X056734D01*
X056680Y029880D01*
X056600Y029934D01*
D02*
G37*
G36*
X056400D02*
X056320Y029880D01*
X056266Y029800D01*
X056400D01*
Y029934D01*
D02*
G37*
G36*
X054227Y029782D02*
X054050D01*
Y029585D01*
X054227D01*
Y029782D01*
D02*
G37*
G36*
X055960Y029202D02*
X055857D01*
Y029100D01*
X055960D01*
Y029202D01*
D02*
G37*
G36*
Y028900D02*
X055857D01*
Y028798D01*
X055960D01*
Y028900D01*
D02*
G37*
G36*
X058032Y028633D02*
Y028542D01*
X058237Y028542D01*
X058191Y028577D01*
X058066Y028629D01*
X058032Y028633D01*
D02*
G37*
G36*
X058307Y029479D02*
X058140D01*
Y029400D01*
X058307D01*
Y029479D01*
D02*
G37*
G36*
X058675Y029200D02*
X058507D01*
Y029121D01*
X058675D01*
Y029200D01*
D02*
G37*
G36*
X058307D02*
X058140D01*
Y029121D01*
X058307D01*
Y029200D01*
D02*
G37*
G36*
X062088Y036500D02*
X061872D01*
Y036399D01*
X062088D01*
Y036500D01*
D02*
G37*
G36*
X057188D02*
X056972D01*
Y036399D01*
X057188D01*
Y036500D01*
D02*
G37*
G36*
X066760Y032004D02*
X065972D01*
Y031990D01*
X065894D01*
Y032004D01*
X065106D01*
Y031990D01*
X065028D01*
Y032004D01*
X064240D01*
Y031453D01*
X065028D01*
Y031467D01*
X065106D01*
Y031453D01*
X065894D01*
Y031467D01*
X065972D01*
Y031453D01*
X066760D01*
Y032004D01*
D02*
G37*
G36*
X062500Y040951D02*
X062334Y040934D01*
X062175Y040886D01*
X062027Y040807D01*
X061899Y040701D01*
X061793Y040573D01*
X061714Y040425D01*
X061666Y040266D01*
X061649Y040100D01*
X061666Y039934D01*
X061714Y039775D01*
X061793Y039627D01*
X061899Y039499D01*
X062027Y039393D01*
X062175Y039314D01*
X062334Y039266D01*
X062500Y039249D01*
X062666Y039266D01*
X062825Y039314D01*
X062973Y039393D01*
X063101Y039499D01*
X063207Y039627D01*
X063286Y039775D01*
X063334Y039934D01*
X063351Y040100D01*
X063334Y040266D01*
X063286Y040425D01*
X063207Y040573D01*
X063101Y040701D01*
X062973Y040807D01*
X062825Y040886D01*
X062666Y040934D01*
X062500Y040951D01*
D02*
G37*
G36*
X057600D02*
X057434Y040934D01*
X057275Y040886D01*
X057127Y040807D01*
X056999Y040701D01*
X056893Y040573D01*
X056814Y040425D01*
X056766Y040266D01*
X056749Y040100D01*
X056766Y039934D01*
X056814Y039775D01*
X056893Y039627D01*
X056999Y039499D01*
X057127Y039393D01*
X057275Y039314D01*
X057434Y039266D01*
X057600Y039249D01*
X057766Y039266D01*
X057925Y039314D01*
X058073Y039393D01*
X058201Y039499D01*
X058307Y039627D01*
X058386Y039775D01*
X058434Y039934D01*
X058451Y040100D01*
X058434Y040266D01*
X058386Y040425D01*
X058307Y040573D01*
X058201Y040701D01*
X058073Y040807D01*
X057925Y040886D01*
X057766Y040934D01*
X057600Y040951D01*
D02*
G37*
G36*
X066988Y036537D02*
X066900Y036537D01*
Y036500D01*
X066772D01*
Y036399D01*
X066988D01*
Y036537D01*
D02*
G37*
G36*
X056220Y030600D02*
X056086D01*
X056140Y030520D01*
X056220Y030466D01*
Y030600D01*
D02*
G37*
G36*
X053720Y030300D02*
X053586D01*
X053640Y030220D01*
X053720Y030166D01*
Y030300D01*
D02*
G37*
G36*
X055654Y030000D02*
X055520D01*
Y029866D01*
X055600Y029920D01*
X055654Y030000D01*
D02*
G37*
G36*
X061860Y032004D02*
X061072D01*
Y031990D01*
X060994D01*
Y032004D01*
X060206D01*
Y031990D01*
X060128D01*
Y032004D01*
X059340D01*
Y031453D01*
X060128D01*
Y031467D01*
X060206D01*
Y031453D01*
X060994D01*
Y031467D01*
X061072D01*
Y031453D01*
X061860D01*
Y032004D01*
D02*
G37*
G36*
X053300Y031634D02*
Y031500D01*
X053434D01*
X053380Y031580D01*
X053300Y031634D01*
D02*
G37*
G36*
X053434Y031300D02*
X053300D01*
Y031166D01*
X053380Y031220D01*
X053434Y031300D01*
D02*
G37*
G36*
X057519Y027300D02*
X057414D01*
Y026672D01*
X057432Y026538D01*
X057484Y026413D01*
X057566Y026305D01*
X057673Y026223D01*
X057798Y026171D01*
X057832Y026167D01*
Y026268D01*
X057714Y026308D01*
X057632Y026371D01*
X057569Y026453D01*
X057529Y026549D01*
X057519Y026626D01*
Y026652D01*
X057519Y027300D01*
D02*
G37*
G36*
X053295Y026375D02*
X052920D01*
Y026020D01*
X053295D01*
Y026375D01*
D02*
G37*
G36*
X052720D02*
X052345D01*
Y026020D01*
X052720D01*
Y026375D01*
D02*
G37*
G36*
Y026930D02*
X052345D01*
Y026575D01*
X052720D01*
Y026930D01*
D02*
G37*
G36*
X058450Y027300D02*
X058346D01*
Y026367D01*
X058381Y026413D01*
X058432Y026538D01*
X058450Y026672D01*
Y027300D01*
D02*
G37*
G36*
X058237Y026258D02*
X058032Y026258D01*
Y026167D01*
X058066Y026171D01*
X058191Y026223D01*
X058237Y026258D01*
D02*
G37*
G36*
X056630Y025940D02*
X056430D01*
Y025615D01*
X056630D01*
Y025940D01*
D02*
G37*
G36*
X053295Y025875D02*
X052920D01*
Y025500D01*
X053295D01*
Y025875D01*
D02*
G37*
G36*
X052720D02*
X052345D01*
Y025500D01*
X052720D01*
Y025875D01*
D02*
G37*
G36*
X058512Y026038D02*
X058000D01*
Y025851D01*
X058512D01*
Y026038D01*
D02*
G37*
G36*
X057800D02*
X057288D01*
Y025851D01*
X057800D01*
Y026038D01*
D02*
G37*
G36*
X057030Y025940D02*
X056830D01*
Y025615D01*
X057030D01*
Y025940D01*
D02*
G37*
G36*
X053900Y028000D02*
X053766D01*
X053820Y027920D01*
X053900Y027866D01*
Y028000D01*
D02*
G37*
G36*
X058346Y028433D02*
Y027500D01*
X058450D01*
Y028128D01*
X058432Y028262D01*
X058381Y028387D01*
X058346Y028433D01*
D02*
G37*
G36*
X060200Y027634D02*
Y027500D01*
X060334D01*
X060280Y027580D01*
X060200Y027634D01*
D02*
G37*
G36*
X054604Y028412D02*
X054427D01*
Y028215D01*
X054604D01*
Y028412D01*
D02*
G37*
G36*
X053900Y028334D02*
X053820Y028280D01*
X053766Y028200D01*
X053900D01*
Y028334D01*
D02*
G37*
G36*
X057832Y028633D02*
X057798Y028629D01*
X057673Y028577D01*
X057566Y028495D01*
X057484Y028387D01*
X057432Y028262D01*
X057414Y028128D01*
Y028081D01*
X057376Y028050D01*
X057350Y028055D01*
X057252Y028036D01*
X057170Y027980D01*
X057116Y027900D01*
X057350D01*
Y027700D01*
X057116D01*
X057170Y027620D01*
X057252Y027564D01*
X057350Y027545D01*
X057376Y027550D01*
X057414Y027519D01*
Y027500D01*
X057519D01*
X057519Y028148D01*
X057519Y028148D01*
X057519Y028200D01*
X057569Y028347D01*
X057632Y028429D01*
X057714Y028492D01*
X057832Y028532D01*
Y028633D01*
D02*
G37*
G36*
X056681Y027517D02*
X056659Y027476D01*
X056631Y027476D01*
X056368D01*
Y027141D01*
X056404D01*
Y026939D01*
X056392D01*
Y026261D01*
X056990D01*
Y026939D01*
X056626D01*
Y027096D01*
X056676Y027109D01*
X056681Y027100D01*
X056685Y027100D01*
X056685Y027100D01*
X056769D01*
Y027308D01*
Y027517D01*
X056685D01*
X056685Y027517D01*
X056685D01*
X056681D01*
D02*
G37*
G36*
X053843Y026900D02*
X053754D01*
Y026792D01*
X053843D01*
Y026900D01*
D02*
G37*
G36*
X053295Y026930D02*
X052920D01*
Y026575D01*
X053295D01*
Y026930D01*
D02*
G37*
G36*
X056969Y027517D02*
Y027408D01*
X057058D01*
Y027517D01*
X056969D01*
D02*
G37*
G36*
X060334Y027300D02*
X060200D01*
Y027166D01*
X060280Y027220D01*
X060334Y027300D01*
D02*
G37*
G36*
X057058Y027208D02*
X056969D01*
Y027100D01*
X057058D01*
Y027208D01*
D02*
G37*
%LPD*%
D10*
X052877Y036200D02*
D03*
X052523D02*
D03*
X053177Y035400D02*
D03*
X052823D02*
D03*
X052523Y035800D02*
D03*
X052877D02*
D03*
X057777Y036200D02*
D03*
X057423D02*
D03*
X057423Y035800D02*
D03*
X057777D02*
D03*
X058077Y035400D02*
D03*
X057723D02*
D03*
X062677Y036200D02*
D03*
X062323D02*
D03*
X062323Y035800D02*
D03*
X062677D02*
D03*
X062977Y035400D02*
D03*
X062623D02*
D03*
X053943Y027000D02*
D03*
X054297D02*
D03*
X054443Y024900D02*
D03*
X054797D02*
D03*
X054443Y025300D02*
D03*
X054797D02*
D03*
X056515Y027308D02*
D03*
X056870D02*
D03*
D11*
X053800Y033077D02*
D03*
Y032723D02*
D03*
X058700Y033077D02*
D03*
Y032723D02*
D03*
X063600Y033077D02*
D03*
Y032723D02*
D03*
X065400Y030877D02*
D03*
Y030523D02*
D03*
X064700Y030377D02*
D03*
Y030023D02*
D03*
X056370Y031177D02*
D03*
Y030823D02*
D03*
X056770Y030823D02*
D03*
Y031177D02*
D03*
X054400Y023223D02*
D03*
Y023577D02*
D03*
X054800Y023223D02*
D03*
Y023577D02*
D03*
D12*
X057900Y025751D02*
D03*
Y024649D02*
D03*
D13*
X059351Y023700D02*
D03*
X058249D02*
D03*
D14*
X060061Y025854D02*
D03*
Y025539D02*
D03*
X065000Y030857D02*
D03*
Y030543D02*
D03*
D15*
X059443Y024600D02*
D03*
X059757D02*
D03*
X055443Y029000D02*
D03*
X055757D02*
D03*
X063743Y035900D02*
D03*
X064057D02*
D03*
X058843D02*
D03*
X059157D02*
D03*
X053943D02*
D03*
X054257D02*
D03*
D16*
X059333Y029300D02*
D03*
X058407D02*
D03*
D17*
X057932Y027400D02*
D03*
X059468D02*
D03*
D18*
X066956Y028816D02*
D03*
Y029072D02*
D03*
Y029328D02*
D03*
Y029584D02*
D03*
X065244Y028816D02*
D03*
Y029072D02*
D03*
Y029328D02*
D03*
Y029584D02*
D03*
D19*
X066100Y029200D02*
D03*
D20*
X062600Y029560D02*
D03*
Y026040D02*
D03*
D21*
X067315Y030200D02*
D03*
X066685D02*
D03*
D22*
X065106Y027000D02*
D03*
X067094D02*
D03*
D23*
X066024Y030700D02*
D03*
X066576D02*
D03*
X053724Y035400D02*
D03*
X054276D02*
D03*
X058624D02*
D03*
X059176D02*
D03*
X063524D02*
D03*
X064076D02*
D03*
D24*
X063100Y034200D02*
D03*
X058200D02*
D03*
X053300D02*
D03*
D25*
X062628Y033422D02*
D03*
X062943D02*
D03*
X063257D02*
D03*
X063572D02*
D03*
X062628Y034978D02*
D03*
X062943D02*
D03*
X063257D02*
D03*
X063572D02*
D03*
X057728Y033422D02*
D03*
X058043D02*
D03*
X058357D02*
D03*
X058672D02*
D03*
X057728Y034978D02*
D03*
X058043D02*
D03*
X058357D02*
D03*
X058672D02*
D03*
X052828Y033422D02*
D03*
X053143D02*
D03*
X053457D02*
D03*
X053772D02*
D03*
X052828Y034978D02*
D03*
X053143D02*
D03*
X053457D02*
D03*
X053772D02*
D03*
D26*
X059003Y025010D02*
D03*
X059200D02*
D03*
X059397D02*
D03*
X059594D02*
D03*
Y025790D02*
D03*
X059397D02*
D03*
X059200D02*
D03*
X059003D02*
D03*
X058806D02*
D03*
Y025010D02*
D03*
D27*
X059200Y025400D02*
D03*
D28*
X055470Y025515D02*
D03*
Y023480D02*
D03*
X056730D02*
D03*
Y025515D02*
D03*
D29*
X055500Y026600D02*
D03*
X056691D02*
D03*
D30*
X053328Y038566D02*
D03*
Y037700D02*
D03*
Y036834D02*
D03*
X056872D02*
D03*
Y037700D02*
D03*
Y038566D02*
D03*
X061772D02*
D03*
Y037700D02*
D03*
Y036834D02*
D03*
X058228D02*
D03*
Y037700D02*
D03*
Y038566D02*
D03*
X063128D02*
D03*
Y037700D02*
D03*
Y036834D02*
D03*
X066672D02*
D03*
Y037700D02*
D03*
Y038566D02*
D03*
D31*
X054214Y037700D02*
D03*
X059114D02*
D03*
X064014D02*
D03*
D32*
X054765Y037021D02*
D03*
Y037474D02*
D03*
Y037926D02*
D03*
Y038379D02*
D03*
X055868D02*
D03*
Y037926D02*
D03*
Y037474D02*
D03*
Y037021D02*
D03*
X060768D02*
D03*
Y037474D02*
D03*
Y037926D02*
D03*
Y038379D02*
D03*
X059665D02*
D03*
Y037926D02*
D03*
Y037474D02*
D03*
Y037021D02*
D03*
X064565D02*
D03*
Y037474D02*
D03*
Y037926D02*
D03*
Y038379D02*
D03*
X065668D02*
D03*
Y037926D02*
D03*
Y037474D02*
D03*
Y037021D02*
D03*
D33*
X056566Y031728D02*
D03*
X055700D02*
D03*
X054834D02*
D03*
Y035272D02*
D03*
X055700D02*
D03*
X056566D02*
D03*
X061466D02*
D03*
X060600D02*
D03*
X059734D02*
D03*
Y031728D02*
D03*
X060600D02*
D03*
X061466D02*
D03*
X066366D02*
D03*
X065500D02*
D03*
X064634D02*
D03*
Y035272D02*
D03*
X065500D02*
D03*
X066366D02*
D03*
D34*
X055021Y032732D02*
D03*
X055474D02*
D03*
X055926D02*
D03*
X056379D02*
D03*
Y033835D02*
D03*
X055926D02*
D03*
X055474D02*
D03*
X055021D02*
D03*
X059921D02*
D03*
X060374D02*
D03*
X060826D02*
D03*
X061279D02*
D03*
Y032732D02*
D03*
X060826D02*
D03*
X060374D02*
D03*
X059921D02*
D03*
X064821D02*
D03*
X065274D02*
D03*
X065726D02*
D03*
X066179D02*
D03*
Y033835D02*
D03*
X065726D02*
D03*
X065274D02*
D03*
X064821D02*
D03*
D35*
X055700Y034386D02*
D03*
X060600D02*
D03*
X065500D02*
D03*
D36*
X053870Y025412D02*
D03*
Y024380D02*
D03*
Y025156D02*
D03*
Y024900D02*
D03*
Y024640D02*
D03*
D37*
X052820Y026475D02*
D03*
Y023320D02*
D03*
D38*
Y025400D02*
D03*
Y024400D02*
D03*
D39*
X052713Y028115D02*
D03*
Y027485D02*
D03*
X054327Y028115D02*
D03*
Y027485D02*
D03*
Y029485D02*
D03*
Y030115D02*
D03*
X052713Y029485D02*
D03*
Y030115D02*
D03*
D40*
X052523Y031647D02*
X052770Y031400D01*
X052523Y031647D02*
Y035800D01*
X056131Y031177D02*
X056770D01*
X055161Y030207D02*
X056131Y031177D01*
X055179Y029039D02*
X055183Y029034D01*
X053257Y030659D02*
X053927D01*
X052713Y030115D02*
X053257Y030659D01*
X053927D02*
X054186Y030400D01*
X054220D01*
X052920Y029600D02*
X053020D01*
X066591Y028199D02*
X066992Y028600D01*
X066000Y027880D02*
X066936Y028816D01*
X066591Y028105D02*
Y028199D01*
X066992Y028600D02*
X067236D01*
X066000Y027800D02*
Y027880D01*
X066936Y028816D02*
X066956D01*
X062892Y028100D02*
X063864Y029072D01*
X062200Y028100D02*
X062892D01*
X056220Y028200D02*
X057620Y029600D01*
X055702Y028082D02*
X057220Y029600D01*
X055702Y027682D02*
Y028082D01*
X054297Y027485D02*
Y027575D01*
Y027000D02*
Y027485D01*
X052713D02*
X054297D01*
X053943Y027000D02*
X054343Y026600D01*
X055500D01*
X054297Y027575D02*
X054407Y027685D01*
X055020Y027600D02*
X055120Y027500D01*
X055183Y028036D02*
X055320Y027900D01*
X055520Y027500D02*
X055702Y027682D01*
X055403Y028261D02*
X055443D01*
X055382Y028282D02*
X055403Y028261D01*
X055382Y028282D02*
X055443Y028343D01*
Y029000D01*
X055320Y027900D02*
X055420D01*
X055920Y027500D02*
X056320Y027900D01*
X056710D01*
X065716Y028816D02*
X066100Y029200D01*
X054279Y025156D02*
X054423Y025300D01*
X053870Y025156D02*
X054279D01*
X053870Y024900D02*
X053870Y024900D01*
X054423D01*
X054752Y024915D02*
Y024960D01*
Y024915D02*
X054767Y024900D01*
X054697D02*
X054767D01*
X057423Y031475D02*
Y035800D01*
X063882Y029328D02*
X065244D01*
X062600Y029560D02*
X062983D01*
X063864Y029072D02*
X065244D01*
X065207Y029109D02*
X065244Y029072D01*
X067228D02*
X067370Y028930D01*
X066956Y029072D02*
X067228D01*
X067370Y028734D02*
Y028930D01*
X067236Y028600D02*
X067370Y028734D01*
X057650Y022134D02*
Y023300D01*
Y022134D02*
X058284Y021500D01*
X055600Y022700D02*
Y022800D01*
X055400Y023000D02*
X055600Y022800D01*
X055023Y023000D02*
X055400D01*
X054800Y023223D02*
X055023Y023000D01*
X054400Y023223D02*
X054923Y022700D01*
X055100D01*
X065244Y028816D02*
X065716D01*
X066956Y029328D02*
X067228D01*
X067370Y029470D01*
Y030144D01*
X067315Y030200D02*
X067370Y030144D01*
X063609Y032732D02*
X064821D01*
X063600Y032723D02*
X063609Y032732D01*
X063572Y033105D02*
X063600Y033077D01*
X063572Y033105D02*
Y033422D01*
X058672Y033105D02*
Y033422D01*
Y033105D02*
X058700Y033077D01*
X058709Y032732D02*
X059921D01*
X058700Y032723D02*
X058709Y032732D01*
X055011Y032723D02*
X055021Y032732D01*
X053800Y032723D02*
X055011D01*
X053772Y033105D02*
X053800Y033077D01*
X053772Y033105D02*
Y033422D01*
X056515Y026775D02*
X056691Y026600D01*
X056515Y026775D02*
Y027308D01*
X059604Y025000D02*
X059691D01*
X059594Y025010D02*
X059604Y025000D01*
X055359Y022441D02*
X055765D01*
X055100Y022700D02*
X055359Y022441D01*
X055765D02*
X056706Y021500D01*
X055600Y022700D02*
X056294D01*
X057494Y021500D01*
X059657Y025854D02*
X060061D01*
X059594Y025790D02*
X059657Y025854D01*
X059397Y024646D02*
X059443Y024600D01*
X059397Y024646D02*
Y025010D01*
X052828Y032772D02*
Y033422D01*
X053143Y032682D02*
Y033422D01*
X063100Y031000D02*
Y031066D01*
X062628Y031072D02*
X062700Y031000D01*
X062628Y031072D02*
Y033422D01*
X062323Y031023D02*
Y035800D01*
X062300Y031000D02*
X062323Y031023D01*
X062943Y031224D02*
Y033422D01*
Y031224D02*
X063100Y031066D01*
X062323Y036200D02*
X062323Y036200D01*
Y035800D02*
Y036200D01*
X057423Y036200D02*
X057423Y036200D01*
Y035800D02*
Y036200D01*
X052523Y036200D02*
X052523Y036200D01*
Y035800D02*
Y036200D01*
X058043Y032857D02*
X059000Y031900D01*
X058043Y032857D02*
Y033422D01*
X058704Y031500D02*
X059000D01*
X057728Y032477D02*
X058704Y031500D01*
X057728Y032477D02*
Y033422D01*
X054257Y035900D02*
X054765Y036408D01*
Y037021D01*
X059157Y035900D02*
X059665Y036408D01*
Y037021D01*
X064057Y035900D02*
X064565Y036408D01*
Y037021D01*
X054765Y038100D02*
Y038379D01*
X059665Y038100D02*
Y038379D01*
X064565Y038100D02*
Y038379D01*
X053457Y035078D02*
Y035602D01*
X053755Y035900D01*
X053943D01*
X052828Y035078D02*
Y035623D01*
X053900Y036696D01*
X057728Y035623D02*
X058800Y036696D01*
X058357Y034978D02*
Y035602D01*
X058655Y035900D01*
X058843D01*
X057728Y034978D02*
Y035623D01*
X062628D02*
X063700Y036696D01*
X063257Y035078D02*
Y035602D01*
X063555Y035900D01*
X063743D01*
X062628Y034978D02*
Y035623D01*
X064700Y029328D02*
Y030023D01*
X064940Y030857D02*
X065400D01*
X064700Y030618D02*
X064940Y030857D01*
X064700Y030377D02*
Y030618D01*
X065000Y030543D02*
X065380D01*
X065400Y030523D01*
Y029740D02*
Y030523D01*
X065244Y029584D02*
X065400Y029740D01*
Y030857D02*
X065543Y031000D01*
X066376D01*
X066779Y030597D01*
X055183Y028036D02*
Y029034D01*
X053143Y032682D02*
X055002Y030823D01*
X052828Y032772D02*
X054843Y030757D01*
X052287Y036434D02*
X052647Y036795D01*
X062954Y028400D02*
X063882Y029328D01*
X061000Y028800D02*
X061400Y028400D01*
X062954D01*
X063700Y036696D02*
Y037980D01*
X063820Y038100D01*
X064565D01*
X058800Y036696D02*
Y037980D01*
X058920Y038100D01*
X059665D01*
X053900Y036696D02*
Y037980D01*
X054020Y038100D01*
X054765D01*
X057423Y031475D02*
X057499Y031399D01*
X055443Y029000D02*
Y029377D01*
X055179Y029039D02*
Y029416D01*
X055161Y029659D02*
X055443Y029377D01*
X055161Y029659D02*
Y030207D01*
X055002Y029593D02*
Y030823D01*
Y029593D02*
X055179Y029416D01*
X055020Y027600D02*
Y029350D01*
X054843Y029527D02*
Y030757D01*
Y029527D02*
X055020Y029350D01*
D41*
X066200Y025200D02*
X067094Y026094D01*
X061300Y025200D02*
X066200D01*
X059800Y023700D02*
X061300Y025200D01*
X058663Y030000D02*
X059363Y029300D01*
X057120Y030000D02*
X058663D01*
X052840Y024380D02*
X053870D01*
X052820Y024400D02*
X052840Y024380D01*
X066000Y029300D02*
Y030400D01*
X067094Y026094D02*
Y027000D01*
X059351Y023700D02*
X059800D01*
X061950Y029300D02*
X062340D01*
X062600Y029560D01*
X053772Y033422D02*
X053895D01*
X058672D02*
X058795D01*
X063572D02*
X063695D01*
X058795D02*
X059758Y034386D01*
X060600D01*
X053895Y033422D02*
X054858Y034386D01*
X055700D01*
X063695Y033422D02*
X064658Y034386D01*
X065400D01*
X066000Y029300D02*
X066100Y029200D01*
X066000Y030400D02*
Y030776D01*
X054214Y036655D02*
Y037700D01*
X053143Y034978D02*
Y035583D01*
X054214Y036655D01*
X059114D02*
Y037700D01*
X058043Y034978D02*
Y035583D01*
X059114Y036655D01*
X064014D02*
Y037700D01*
X062943Y034978D02*
Y035583D01*
X064014Y036655D01*
X059468Y026848D02*
Y027400D01*
X059100Y023870D02*
Y025050D01*
Y023870D02*
X059270Y023700D01*
X059351D01*
X058806Y026186D02*
X059468Y026848D01*
X058806Y026100D02*
Y026186D01*
D42*
X067291Y031091D02*
Y036609D01*
X066779Y030579D02*
X067291Y031091D01*
X066700Y037200D02*
X067291Y036609D01*
X066779Y029821D02*
Y030400D01*
Y030597D01*
D43*
X065106Y027000D02*
Y028694D01*
X067094Y027000D02*
Y028194D01*
X067100Y028200D01*
X065100Y028600D02*
Y028700D01*
X065106Y028694D01*
X065500Y031728D02*
X066366D01*
X064634D02*
X065500D01*
X060600D02*
X061466D01*
X059734D02*
X060600D01*
X055700D02*
X056566D01*
X054834D02*
X055700D01*
D44*
X059003Y025400D02*
Y025790D01*
Y025400D02*
X059200D01*
X063257Y033422D02*
Y034043D01*
X063100Y034200D02*
X063257Y034043D01*
X058357Y033422D02*
Y034043D01*
X058200Y034200D02*
X058357Y034043D01*
X053457Y033422D02*
Y034043D01*
X053300Y034200D02*
X053457Y034043D01*
X053772Y034978D02*
Y035352D01*
X053724Y035400D02*
X053772Y035352D01*
X058672Y034978D02*
Y035352D01*
X058624Y035400D02*
X058672Y035352D01*
X063572Y034978D02*
Y035352D01*
X063524Y035400D02*
X063572Y035352D01*
D45*
X058806Y025790D02*
Y026100D01*
D46*
X064781Y023700D02*
D03*
X060844D02*
D03*
X061631D02*
D03*
X062419D02*
D03*
X063209D02*
D03*
X063999D02*
D03*
X065568D02*
D03*
X066356D02*
D03*
X055919Y021500D02*
D03*
X056706D02*
D03*
X057494D02*
D03*
X058284D02*
D03*
X060806D02*
D03*
X061594D02*
D03*
X064294D02*
D03*
X063506D02*
D03*
D47*
X057600Y040100D02*
D03*
X062500D02*
D03*
X066400Y021600D02*
D03*
X053400D02*
D03*
D48*
X052620Y038784D02*
D03*
Y036816D02*
D03*
D49*
X052770Y031400D02*
D03*
X055420Y030100D02*
D03*
X056320Y030700D02*
D03*
X053820Y030400D02*
D03*
X066000Y027800D02*
D03*
X059477Y029200D02*
D03*
X057220Y029600D02*
D03*
X057620D02*
D03*
X057120Y030000D02*
D03*
X054297Y027575D02*
D03*
X055443Y028261D02*
D03*
X055420Y027900D02*
D03*
X056220Y028200D02*
D03*
X055120Y027500D02*
D03*
X055520D02*
D03*
X055920D02*
D03*
X056710Y027900D02*
D03*
X056750Y028259D02*
D03*
X054132Y024052D02*
D03*
X054752Y024960D02*
D03*
X054920Y025300D02*
D03*
X057350Y027800D02*
D03*
X062457Y026100D02*
D03*
X062200Y028100D02*
D03*
X066591Y028105D02*
D03*
X054000Y028100D02*
D03*
X057350Y025300D02*
D03*
X058350Y024800D02*
D03*
X059691Y025000D02*
D03*
X061000Y028800D02*
D03*
X056600Y023500D02*
D03*
X053200Y031400D02*
D03*
X055600Y022700D02*
D03*
X055100D02*
D03*
X062300Y031000D02*
D03*
X063100D02*
D03*
X062700D02*
D03*
X059000Y031500D02*
D03*
Y031900D02*
D03*
X059700Y030700D02*
D03*
X057700D02*
D03*
X060100Y027400D02*
D03*
X052877Y036200D02*
D03*
X057777D02*
D03*
X062677D02*
D03*
X056500Y029700D02*
D03*
X054276Y035400D02*
D03*
X059176D02*
D03*
X064076D02*
D03*
X054220Y030400D02*
D03*
X060820Y024950D02*
D03*
X060420D02*
D03*
X057499Y031399D02*
D03*
D50*
X066297Y029003D02*
D03*
X065903D02*
D03*
X066297Y029397D02*
D03*
X065903D02*
D03*
D51*
X052720Y038000D02*
D03*
X064400Y026300D02*
D03*
Y026900D02*
D03*
X063900Y028000D02*
D03*
X063800Y026900D02*
D03*
X058800Y022400D02*
D03*
X063900Y028600D02*
D03*
X066779Y030400D02*
D03*
X064500Y028600D02*
D03*
X067100Y028200D02*
D03*
Y027600D02*
D03*
Y027000D02*
D03*
X065100Y028600D02*
D03*
X063800Y026300D02*
D03*
X061950Y029300D02*
D03*
X055100Y032600D02*
D03*
X055700D02*
D03*
X056300D02*
D03*
X055100Y033200D02*
D03*
X055700D02*
D03*
X056300D02*
D03*
X066100D02*
D03*
X056920Y037200D02*
D03*
X061820D02*
D03*
X060000Y033200D02*
D03*
X060600D02*
D03*
X061200D02*
D03*
Y032600D02*
D03*
X060600D02*
D03*
X060000D02*
D03*
X066100D02*
D03*
X065500Y033200D02*
D03*
X066720Y037200D02*
D03*
X064900Y033200D02*
D03*
Y032600D02*
D03*
X065500D02*
D03*
X056920Y038000D02*
D03*
Y038800D02*
D03*
X058120D02*
D03*
X053320Y038000D02*
D03*
Y038800D02*
D03*
X061820Y038000D02*
D03*
Y038800D02*
D03*
X066720Y038000D02*
D03*
Y038800D02*
D03*
X066000Y030400D02*
D03*
X066779Y029821D02*
D03*
X066320Y024500D02*
D03*
X057520Y038000D02*
D03*
Y037200D02*
D03*
X058120D02*
D03*
Y038000D02*
D03*
X062420D02*
D03*
Y037200D02*
D03*
X063020Y038000D02*
D03*
Y037200D02*
D03*
Y038800D02*
D03*
X052720Y039600D02*
D03*
X053320D02*
D03*
X067320Y037200D02*
D03*
Y038000D02*
D03*
Y038800D02*
D03*
X062520Y022800D02*
D03*
D52*
X055120Y037244D02*
D03*
X059820D02*
D03*
X065120D02*
D03*
X052920Y029600D02*
D03*
X053545Y024239D02*
D03*
X055470Y023480D02*
D03*
X057650Y023300D02*
D03*
X053000Y034400D02*
D03*
X053600D02*
D03*
X057900D02*
D03*
X058500D02*
D03*
X062800D02*
D03*
X063400D02*
D03*
D53*
X065903Y029003D02*
D03*
X066297D02*
D03*
Y029397D02*
D03*
X065903D02*
D03*
X059400Y025400D02*
D03*
X059003D02*
D03*
M02*
