G04 Layer_Physical_Order=2*
G04 Layer_Color=16711680*
%FSAX24Y24*%
%MOIN*%
G70*
G01*
G75*
%ADD10R,0.0177X0.0217*%
%ADD11R,0.0217X0.0177*%
%ADD14R,0.0205X0.0205*%
%ADD15R,0.0205X0.0205*%
%ADD40C,0.0100*%
%ADD41C,0.0200*%
%ADD42C,0.0600*%
%ADD43C,0.0400*%
%ADD46C,0.0630*%
%ADD47C,0.1260*%
%ADD48C,0.0787*%
%ADD49C,0.0300*%
%ADD50C,0.0157*%
%ADD51C,0.0500*%
%ADD52C,0.0400*%
%ADD53C,0.0270*%
%ADD54R,0.2087X0.0532*%
%ADD55R,0.0177X0.0335*%
%ADD56R,0.0335X0.0177*%
%ADD57R,0.0470X0.0220*%
%ADD58R,0.0906X0.0906*%
%ADD59R,0.0453X0.1063*%
%ADD60R,0.0532X0.0748*%
%ADD61R,0.0610X0.0945*%
%ADD62R,0.0480X0.0358*%
%ADD63O,0.0177X0.0630*%
%ADD64R,0.2205X0.0961*%
%ADD65R,0.0350X0.0961*%
%ADD66R,0.0256X0.0217*%
%ADD67R,0.0610X0.0236*%
%ADD68R,0.0630X0.0550*%
%ADD69O,0.0610X0.0098*%
%ADD70O,0.0098X0.0610*%
%ADD71R,0.1200X0.1600*%
G36*
X054267Y032414D02*
Y032063D01*
X054778D01*
Y032396D01*
X054828Y032413D01*
X054865Y032365D01*
X054934Y032312D01*
X054968Y032297D01*
Y032063D01*
X057267D01*
Y031855D01*
X057106Y031694D01*
X057078Y031651D01*
X057067Y031600D01*
Y031160D01*
X056623Y030715D01*
X056569Y030732D01*
X056555Y030798D01*
X056500Y030880D01*
X056420Y030934D01*
Y030700D01*
X056220D01*
Y030934D01*
X056140Y030880D01*
X056133Y030870D01*
X056083Y030865D01*
X055557Y031392D01*
X055514Y031421D01*
X055463Y031431D01*
X054344D01*
X054293Y031421D01*
X054250Y031392D01*
X054132Y031273D01*
X053860D01*
Y031300D01*
X053657D01*
Y031500D01*
X053860D01*
Y031536D01*
X053884Y031555D01*
X053950Y031568D01*
X054005Y031606D01*
X054043Y031661D01*
X054056Y031727D01*
Y032180D01*
X054043Y032246D01*
X054039Y032251D01*
X054221Y032434D01*
X054267Y032414D01*
D02*
G37*
G36*
X058834Y031734D02*
X058848Y031725D01*
Y031675D01*
X058834Y031666D01*
X058783Y031590D01*
X058765Y031500D01*
X058783Y031410D01*
X058834Y031334D01*
X058867Y031312D01*
Y031135D01*
X057724Y029992D01*
X057479D01*
X057428Y029982D01*
X057421Y029977D01*
X057394Y029990D01*
X057374Y030005D01*
X057355Y030098D01*
X057300Y030180D01*
X057220Y030234D01*
Y030000D01*
X057020D01*
Y030234D01*
X056965Y030197D01*
X056915Y030224D01*
Y030408D01*
X057594Y031086D01*
X057622Y031129D01*
X057632Y031180D01*
Y031211D01*
X057665Y031233D01*
X057681Y031258D01*
X057731Y031243D01*
Y030960D01*
X057700Y030935D01*
X057610Y030917D01*
X057534Y030866D01*
X057483Y030790D01*
X057465Y030700D01*
X057483Y030610D01*
X057534Y030534D01*
X057610Y030483D01*
X057700Y030465D01*
X057790Y030483D01*
X057866Y030534D01*
X057917Y030610D01*
X057935Y030700D01*
X057927Y030739D01*
X057958Y030770D01*
X057986Y030813D01*
X057996Y030864D01*
Y031218D01*
X058155D01*
Y031198D01*
X058257D01*
Y031400D01*
X058357D01*
Y031500D01*
X058560D01*
Y031536D01*
X058584Y031555D01*
X058650Y031568D01*
X058705Y031606D01*
X058743Y031661D01*
X058756Y031727D01*
Y031762D01*
X058806Y031777D01*
X058834Y031734D01*
D02*
G37*
G36*
X054936Y030221D02*
X055144D01*
X055179Y030171D01*
X055165Y030100D01*
X055175Y030051D01*
X055134Y030001D01*
X054441D01*
Y029408D01*
X054395Y029389D01*
X053610Y030174D01*
X053630Y030221D01*
X053645Y030216D01*
X053720Y030166D01*
Y030400D01*
X053920D01*
Y030166D01*
X054000Y030220D01*
X054010Y030234D01*
X054054D01*
X054130Y030183D01*
X054220Y030165D01*
X054310Y030183D01*
X054371Y030224D01*
X054421Y030221D01*
X054421Y030221D01*
X054421Y030221D01*
X054736D01*
Y030596D01*
X054936D01*
Y030221D01*
D02*
G37*
G36*
X054091Y024370D02*
Y024279D01*
X054043Y024269D01*
X053966Y024218D01*
X053916Y024142D01*
X053898Y024052D01*
X053916Y023963D01*
X053966Y023887D01*
X054043Y023836D01*
X054132Y023818D01*
X054210Y023833D01*
X054260Y023806D01*
Y023618D01*
X054555D01*
Y023598D01*
X054657D01*
Y023800D01*
X054757D01*
Y023900D01*
X054960D01*
Y023996D01*
X054983Y024043D01*
X055011Y024037D01*
X055061Y024047D01*
X055070Y024053D01*
X055109Y024073D01*
X055149Y024053D01*
X055157Y024047D01*
X055208Y024037D01*
X055258Y024047D01*
X055267Y024053D01*
X055306Y024073D01*
X055346Y024053D01*
X055354Y024047D01*
X055405Y024037D01*
X055455Y024047D01*
X055464Y024053D01*
X055503Y024073D01*
X055543Y024053D01*
X055551Y024047D01*
X055602Y024037D01*
X055616Y024040D01*
X055659Y024030D01*
X055671Y024004D01*
X055676Y023978D01*
X055705Y023935D01*
X056233Y023406D01*
X056276Y023378D01*
X056327Y023367D01*
X056412D01*
X056434Y023334D01*
X056510Y023283D01*
X056600Y023265D01*
X056690Y023283D01*
X056766Y023334D01*
X056817Y023410D01*
X056835Y023500D01*
X056817Y023590D01*
X056766Y023666D01*
X056761Y023669D01*
X056776Y023719D01*
X057161D01*
X057182Y023669D01*
X055845Y022333D01*
X055491D01*
X055470Y022383D01*
X055561Y022473D01*
X055600Y022465D01*
X055690Y022483D01*
X055766Y022534D01*
X055817Y022610D01*
X055835Y022700D01*
X055817Y022790D01*
X055766Y022866D01*
X055690Y022917D01*
X055600Y022935D01*
X055510Y022917D01*
X055434Y022866D01*
X055383Y022790D01*
X055375Y022750D01*
X055325D01*
X055317Y022790D01*
X055266Y022866D01*
X055190Y022917D01*
X055100Y022935D01*
X055010Y022917D01*
X054934Y022866D01*
X054912Y022833D01*
X054475D01*
X053377Y023930D01*
X053406Y023972D01*
X053445Y023956D01*
Y024239D01*
X053545D01*
Y024339D01*
X053828D01*
X053807Y024391D01*
X053759Y024453D01*
X053696Y024501D01*
X053647Y024522D01*
Y024644D01*
X053688Y024667D01*
X053794D01*
X054091Y024370D01*
D02*
G37*
G36*
X059200Y026133D02*
X059212Y026085D01*
X059212D01*
X059212Y026085D01*
Y025711D01*
X059192D01*
Y025617D01*
X059142Y025590D01*
X059103Y025616D01*
Y025400D01*
Y025184D01*
X059173Y025231D01*
X059177Y025237D01*
X059227D01*
X059231Y025231D01*
X059300Y025184D01*
Y025400D01*
X059500D01*
Y025131D01*
X059501Y025129D01*
X059474Y025090D01*
X059456Y025000D01*
X059474Y024910D01*
X059525Y024834D01*
X059601Y024783D01*
X059691Y024765D01*
X059781Y024783D01*
X059832Y024817D01*
X060232D01*
X060254Y024784D01*
X060330Y024733D01*
X060420Y024715D01*
X060510Y024733D01*
X060586Y024784D01*
X060595Y024798D01*
X060645D01*
X060654Y024784D01*
X060730Y024733D01*
X060820Y024715D01*
X060910Y024733D01*
X060986Y024784D01*
X061037Y024860D01*
X061038Y024868D01*
X061086Y024883D01*
X061390Y024579D01*
X061371Y024533D01*
X058490D01*
X058475Y024583D01*
X058530Y024620D01*
X058584Y024700D01*
X058350D01*
Y024900D01*
X058584D01*
X058530Y024980D01*
X058448Y025036D01*
X058350Y025055D01*
X058293Y025044D01*
X058280Y025053D01*
X058256Y025087D01*
X058263Y025124D01*
X058260Y025138D01*
X058276Y025184D01*
X058296Y025192D01*
X058329Y025198D01*
X058372Y025227D01*
X058405Y025260D01*
X058582D01*
Y025555D01*
X058602D01*
Y025657D01*
X058400D01*
Y025857D01*
X058602D01*
Y025898D01*
X058657D01*
Y026100D01*
X058757D01*
Y026200D01*
X058960D01*
Y026267D01*
X059065D01*
X059200Y026133D01*
D02*
G37*
G36*
X057184Y027634D02*
X057260Y027583D01*
X057350Y027565D01*
X057369Y027569D01*
X057382Y027560D01*
X057433Y027550D01*
X057451D01*
X057490Y027500D01*
X057488Y027486D01*
X057498Y027435D01*
X057503Y027427D01*
X057523Y027387D01*
X057503Y027348D01*
X057498Y027339D01*
X057488Y027289D01*
X057498Y027239D01*
X057503Y027230D01*
X057523Y027191D01*
X057503Y027151D01*
X057498Y027143D01*
X057488Y027092D01*
X057498Y027042D01*
X057503Y027033D01*
X057523Y026994D01*
X057503Y026954D01*
X057498Y026946D01*
X057488Y026895D01*
X057498Y026845D01*
X057526Y026802D01*
Y026792D01*
X057498Y026749D01*
X057488Y026698D01*
X057498Y026648D01*
X057503Y026640D01*
X057523Y026600D01*
X057503Y026560D01*
X057498Y026552D01*
X057488Y026502D01*
X057498Y026451D01*
X057503Y026443D01*
X057523Y026403D01*
X057503Y026364D01*
X057498Y026355D01*
X057488Y026305D01*
X057498Y026254D01*
X057503Y026246D01*
X057523Y026206D01*
X057503Y026167D01*
X057498Y026158D01*
X057488Y026108D01*
X057498Y026057D01*
X057514Y026032D01*
X057512Y026019D01*
X057507Y026011D01*
X057532D01*
X057569Y025986D01*
X057619Y025976D01*
X057671D01*
X057675Y025975D01*
X057843D01*
X057875Y025969D01*
Y025846D01*
X057619D01*
X057569Y025836D01*
X057532Y025811D01*
X057507D01*
X057512Y025803D01*
X057514Y025790D01*
X057498Y025765D01*
X057488Y025714D01*
X057498Y025664D01*
X057503Y025655D01*
X057523Y025616D01*
X057503Y025576D01*
X057498Y025568D01*
X057492Y025542D01*
X057441Y025516D01*
X057440Y025517D01*
X057350Y025535D01*
X057260Y025517D01*
X057184Y025466D01*
X057162Y025433D01*
X057112Y025448D01*
Y027652D01*
X057162Y027667D01*
X057184Y027634D01*
D02*
G37*
G36*
X065557Y037053D02*
X065614Y036712D01*
X065616Y036599D01*
X065619Y036584D01*
X065622Y036569D01*
X065622Y036568D01*
X065622Y036568D01*
X065631Y036555D01*
X065639Y036542D01*
X065639Y036542D01*
X065640Y036542D01*
X065640Y036542D01*
X065653Y036533D01*
X065666Y036525D01*
X065666Y036525D01*
X065667Y036524D01*
X065682Y036521D01*
X065697Y036518D01*
X065697Y036518D01*
X066018Y036518D01*
X066018Y036518D01*
X066043D01*
X066043Y036518D01*
X067153Y036518D01*
X067166Y036521D01*
X067179Y036523D01*
X067328Y036573D01*
X067339Y036580D01*
X067351Y036586D01*
X067435Y036650D01*
X067442Y036658D01*
X067450Y036665D01*
X067514Y036749D01*
X067520Y036761D01*
X067523Y036766D01*
X067540Y036772D01*
X067554Y036766D01*
X067589Y036729D01*
Y034100D01*
Y025900D01*
X062655D01*
X062634Y025950D01*
X062674Y026010D01*
X062692Y026100D01*
X062674Y026190D01*
X062623Y026266D01*
X062547Y026317D01*
X062457Y026335D01*
X062428Y026329D01*
X062390Y026360D01*
Y026612D01*
X062696D01*
Y026592D01*
X062785D01*
Y026800D01*
X062885D01*
Y026900D01*
X063073D01*
Y026969D01*
X063217D01*
Y027500D01*
X062891D01*
X062564D01*
Y026988D01*
X062390D01*
Y026990D01*
X062233D01*
Y027872D01*
X062290Y027883D01*
X062366Y027934D01*
X062417Y028010D01*
X062435Y028100D01*
X062417Y028190D01*
X062366Y028266D01*
X062290Y028317D01*
X062200Y028335D01*
X062110Y028317D01*
X062065Y028286D01*
X062016Y028314D01*
Y028966D01*
X062027Y028977D01*
X062036Y028978D01*
X062116Y029012D01*
X062185Y029065D01*
X062238Y029134D01*
X062272Y029214D01*
X062283Y029300D01*
X062276Y029350D01*
X062317Y029400D01*
X062320D01*
X064570Y031650D01*
X066700Y031650D01*
Y032063D01*
X066733D01*
Y033184D01*
X066700D01*
X066700Y033996D01*
X066753D01*
Y034100D01*
X065650Y034100D01*
Y033996D01*
X066600D01*
X066600Y033184D01*
X066447D01*
X066433Y033200D01*
X066422Y033286D01*
X066388Y033366D01*
X066335Y033435D01*
X066266Y033488D01*
X066186Y033522D01*
X066100Y033533D01*
X066014Y033522D01*
X065934Y033488D01*
X065865Y033435D01*
X065830Y033390D01*
X065830Y033390D01*
X065770D01*
X065770Y033390D01*
X065735Y033435D01*
X065666Y033488D01*
X065586Y033522D01*
X065500Y033533D01*
X065414Y033522D01*
X065334Y033488D01*
X065265Y033435D01*
X065230Y033390D01*
X065230Y033390D01*
X065170D01*
X065170Y033390D01*
X065135Y033435D01*
X065066Y033488D01*
X064986Y033522D01*
X064900Y033533D01*
X064814Y033522D01*
X064734Y033488D01*
X064665Y033435D01*
X064612Y033366D01*
X064578Y033286D01*
X064567Y033200D01*
X064553Y033184D01*
X064368D01*
Y032063D01*
X066600D01*
X066600Y031750D01*
X064550Y031750D01*
X062300Y029500D01*
X062212D01*
X062185Y029535D01*
X062116Y029588D01*
X062036Y029622D01*
X061950Y029633D01*
X061864Y029622D01*
X061784Y029588D01*
X061715Y029535D01*
X061696Y029511D01*
X061403D01*
Y029500D01*
X061300D01*
X061300Y026500D01*
X061368Y026432D01*
Y026268D01*
X061532D01*
X061812Y025988D01*
Y025912D01*
X061888D01*
X062000Y025800D01*
X067589Y025800D01*
Y021046D01*
X066954Y020411D01*
X052843D01*
X052211Y021043D01*
Y034000D01*
X052938D01*
X052965Y033950D01*
X052957Y033939D01*
X052944Y033873D01*
Y033662D01*
X052417Y033135D01*
X052388Y033092D01*
X052378Y033041D01*
Y031293D01*
X052388Y031242D01*
X052417Y031199D01*
X052726Y030890D01*
X052726Y030883D01*
X052710Y030840D01*
X052438D01*
Y030545D01*
X052418D01*
Y030443D01*
X052620D01*
Y030343D01*
X052720D01*
Y030140D01*
X052822D01*
Y030241D01*
X053168D01*
X053341Y030067D01*
X053322Y030021D01*
X053306D01*
Y029646D01*
Y029271D01*
X053621D01*
Y029722D01*
X053667Y029741D01*
X054200Y029209D01*
X054183Y029155D01*
X054173Y029153D01*
X054130Y029124D01*
X054111Y029096D01*
X054093Y029094D01*
X054050Y029122D01*
X053999Y029133D01*
X053840D01*
Y029182D01*
X053545D01*
Y029202D01*
X053443D01*
Y029000D01*
Y028798D01*
X053545D01*
Y028818D01*
X053840D01*
Y028867D01*
X053944D01*
X054091Y028720D01*
Y028379D01*
X054039Y028327D01*
X054000Y028335D01*
X053910Y028317D01*
X053834Y028266D01*
X053796Y028209D01*
X052882D01*
Y028340D01*
X052518D01*
Y028045D01*
X052498D01*
Y027943D01*
X052700D01*
Y027843D01*
X052800D01*
Y027640D01*
X052817D01*
X052836Y027594D01*
X052506Y027264D01*
X052478Y027221D01*
X052467Y027170D01*
Y023845D01*
X052478Y023794D01*
X052506Y023751D01*
X053818Y022439D01*
X053788Y022399D01*
X053741Y022424D01*
X053574Y022475D01*
X053500Y022482D01*
Y021700D01*
X054282D01*
X054275Y021774D01*
X054224Y021941D01*
X054199Y021988D01*
X054239Y022018D01*
X054310Y021947D01*
X054353Y021918D01*
X054404Y021908D01*
X055690D01*
X055704Y021877D01*
X055704Y021858D01*
X055623Y021796D01*
X055556Y021709D01*
X055515Y021608D01*
X055513Y021600D01*
X055919D01*
Y021500D01*
X056019D01*
Y021095D01*
X056027Y021096D01*
X056128Y021137D01*
X056215Y021204D01*
X056281Y021291D01*
X056296Y021327D01*
X056350D01*
X056361Y021301D01*
X056425Y021218D01*
X056507Y021155D01*
X056603Y021115D01*
X056706Y021102D01*
X056809Y021115D01*
X056905Y021155D01*
X056988Y021218D01*
X057051Y021301D01*
X057073Y021353D01*
X057127D01*
X057149Y021301D01*
X057212Y021218D01*
X057295Y021155D01*
X057391Y021115D01*
X057494Y021102D01*
X057597Y021115D01*
X057693Y021155D01*
X057775Y021218D01*
X057839Y021301D01*
X057862Y021356D01*
X057916D01*
X057939Y021301D01*
X058002Y021218D01*
X058085Y021155D01*
X058181Y021115D01*
X058284Y021102D01*
X058387Y021115D01*
X058483Y021155D01*
X058565Y021218D01*
X058629Y021301D01*
X058669Y021397D01*
X058682Y021500D01*
X058669Y021603D01*
X058629Y021699D01*
X058565Y021782D01*
X058483Y021845D01*
X058387Y021885D01*
X058284Y021898D01*
X058181Y021885D01*
X058085Y021845D01*
X058002Y021782D01*
X057939Y021699D01*
X057916Y021644D01*
X057862D01*
X057839Y021699D01*
X057775Y021782D01*
X057693Y021845D01*
X057652Y021862D01*
X057657Y021914D01*
X057679Y021918D01*
X057722Y021947D01*
X057826Y022052D01*
X058222D01*
Y022448D01*
X057452D01*
Y022173D01*
X056126D01*
X056107Y022220D01*
X057071Y023184D01*
X057118Y023165D01*
Y023045D01*
X057098D01*
Y022943D01*
X057300D01*
Y022843D01*
X057400D01*
Y022640D01*
X057432D01*
Y022532D01*
X057737D01*
Y022750D01*
Y022968D01*
X057657D01*
X057654Y023018D01*
X057723Y023027D01*
X057783Y023052D01*
X058222D01*
Y023448D01*
X057889D01*
X057850Y023500D01*
X057847Y023502D01*
X057864Y023552D01*
X058222D01*
Y023948D01*
X057710D01*
X057691Y023994D01*
X057805Y024108D01*
X060615D01*
X060629Y024077D01*
X060629Y024058D01*
X060548Y023996D01*
X060482Y023909D01*
X060440Y023808D01*
X060439Y023800D01*
X060844D01*
Y023700D01*
X060944D01*
Y023295D01*
X060952Y023296D01*
X061053Y023338D01*
X061140Y023404D01*
X061207Y023491D01*
X061222Y023527D01*
X061276D01*
X061286Y023501D01*
X061350Y023418D01*
X061432Y023355D01*
X061528Y023315D01*
X061631Y023302D01*
X061735Y023315D01*
X061831Y023355D01*
X061913Y023418D01*
X061977Y023501D01*
X061998Y023553D01*
X062052D01*
X062074Y023501D01*
X062137Y023418D01*
X062220Y023355D01*
X062316Y023315D01*
X062419Y023302D01*
X062522Y023315D01*
X062618Y023355D01*
X062701Y023418D01*
X062764Y023501D01*
X062787Y023556D01*
X062841D01*
X062864Y023501D01*
X062927Y023418D01*
X063010Y023355D01*
X063106Y023315D01*
X063209Y023302D01*
X063312Y023315D01*
X063408Y023355D01*
X063491Y023418D01*
X063554Y023501D01*
X063577Y023556D01*
X063631D01*
X063654Y023501D01*
X063717Y023418D01*
X063800Y023355D01*
X063896Y023315D01*
X063999Y023302D01*
X064102Y023315D01*
X064198Y023355D01*
X064281Y023418D01*
X064344Y023501D01*
X064363Y023547D01*
X064417D01*
X064436Y023501D01*
X064499Y023418D01*
X064582Y023355D01*
X064678Y023315D01*
X064781Y023302D01*
X064884Y023315D01*
X064980Y023355D01*
X065063Y023418D01*
X065126Y023501D01*
X065148Y023553D01*
X065202D01*
X065223Y023501D01*
X065287Y023418D01*
X065369Y023355D01*
X065465Y023315D01*
X065568Y023302D01*
X065672Y023315D01*
X065768Y023355D01*
X065850Y023418D01*
X065914Y023501D01*
X065935Y023553D01*
X065989D01*
X066011Y023501D01*
X066074Y023418D01*
X066157Y023355D01*
X066253Y023315D01*
X066356Y023302D01*
X066459Y023315D01*
X066555Y023355D01*
X066638Y023418D01*
X066701Y023501D01*
X066741Y023597D01*
X066754Y023700D01*
X066741Y023803D01*
X066701Y023899D01*
X066638Y023982D01*
X066555Y024045D01*
X066459Y024085D01*
X066356Y024098D01*
X066253Y024085D01*
X066186Y024057D01*
X065350Y024894D01*
X065307Y024922D01*
X065256Y024933D01*
X062311D01*
X060233Y027011D01*
Y027212D01*
X060266Y027234D01*
X060317Y027310D01*
X060335Y027400D01*
X060317Y027490D01*
X060282Y027542D01*
X060288Y027554D01*
X060288D01*
Y027859D01*
X060288Y027891D01*
X060288Y027941D01*
Y028246D01*
X060233D01*
Y028376D01*
X060332D01*
Y028713D01*
X059837D01*
Y028376D01*
X059967D01*
Y028246D01*
X059912D01*
Y028210D01*
X059493D01*
X059442Y028200D01*
X059399Y028171D01*
X059360Y028132D01*
X059131D01*
Y027668D01*
X059131Y027637D01*
X059089Y027618D01*
X058782D01*
Y027855D01*
X058802D01*
Y027957D01*
X058600D01*
X058398D01*
Y027855D01*
X058373Y027815D01*
X058321D01*
X058280Y027865D01*
X058283Y027880D01*
X058272Y027938D01*
X058239Y027987D01*
X058236Y028001D01*
X058253Y028026D01*
X058263Y028076D01*
X058253Y028127D01*
X058224Y028170D01*
X058216Y028175D01*
X058211Y028225D01*
X058569Y028583D01*
X058876D01*
Y028468D01*
X059213D01*
Y028696D01*
X059217Y028700D01*
X059245Y028743D01*
X059255Y028794D01*
Y028955D01*
X059289Y028992D01*
X059339D01*
X059367Y028973D01*
Y028815D01*
X059556D01*
X059744D01*
Y028983D01*
X059712D01*
X059683Y028988D01*
X059671Y029040D01*
X059711Y029100D01*
X059477D01*
Y029200D01*
X059377D01*
Y029434D01*
X059339Y029408D01*
X059289D01*
Y029388D01*
X058954D01*
Y029012D01*
X058954D01*
X058952Y028963D01*
X058876D01*
Y028848D01*
X058514D01*
X058514Y028848D01*
X058463Y028838D01*
X058420Y028809D01*
X057819Y028208D01*
X057650D01*
X057629Y028258D01*
X059339Y029967D01*
X062166D01*
X062217Y029978D01*
X062260Y030006D01*
X063033Y030779D01*
X063100Y030765D01*
X063190Y030783D01*
X063266Y030834D01*
X063317Y030910D01*
X063335Y031000D01*
X063317Y031090D01*
X063275Y031152D01*
X063260Y031198D01*
X063260Y031198D01*
X063260Y031198D01*
Y031300D01*
X063057D01*
Y031500D01*
X063260D01*
Y031536D01*
X063284Y031555D01*
X063350Y031568D01*
X063405Y031606D01*
X063443Y031661D01*
X063456Y031727D01*
Y032180D01*
X063443Y032246D01*
X063439Y032251D01*
X063617Y032430D01*
X063667Y032409D01*
Y032063D01*
X064178D01*
Y033184D01*
X063667D01*
Y032734D01*
X063601D01*
X063550Y032724D01*
X063507Y032695D01*
X063190Y032378D01*
X063181Y032364D01*
X063128Y032350D01*
Y032250D01*
X063125Y032246D01*
X063112Y032180D01*
Y031954D01*
X062928D01*
Y032340D01*
X062900Y032321D01*
X062872Y032340D01*
Y031954D01*
X062688D01*
Y032180D01*
X062675Y032246D01*
X062672Y032250D01*
Y032340D01*
X062636Y032316D01*
X062630Y032307D01*
X062582Y032339D01*
X062516Y032352D01*
X062483Y032345D01*
X062433Y032382D01*
Y032775D01*
X062866Y033208D01*
X062892Y033248D01*
X062896Y033252D01*
X062949Y033270D01*
X062962Y033261D01*
X063028Y033248D01*
X063094Y033261D01*
X063149Y033299D01*
X063162D01*
X063218Y033261D01*
X063284Y033248D01*
X063350Y033261D01*
X063405Y033299D01*
X063443Y033354D01*
X063456Y033420D01*
Y033514D01*
X063646D01*
X063697Y033524D01*
X063740Y033553D01*
X064016Y033829D01*
X064045Y033872D01*
X064055Y033922D01*
Y034000D01*
X064348D01*
Y033996D01*
X065450D01*
Y034100D01*
X064200Y034100D01*
Y034100D01*
X064178D01*
Y035114D01*
X064178Y035137D01*
X064178Y035137D01*
X063930Y035137D01*
X063930Y035137D01*
X063670D01*
X063670Y034100D01*
X060950Y034100D01*
Y033996D01*
X062053D01*
Y034000D01*
X062338D01*
X062365Y033950D01*
X062357Y033939D01*
X062344Y033873D01*
Y033662D01*
X062006Y033324D01*
X061978Y033281D01*
X061967Y033230D01*
Y033184D01*
X061547D01*
X061533Y033200D01*
X061522Y033286D01*
X061488Y033366D01*
X061435Y033435D01*
X061366Y033488D01*
X061286Y033522D01*
X061200Y033533D01*
X061114Y033522D01*
X061034Y033488D01*
X060965Y033435D01*
X060930Y033390D01*
X060930Y033390D01*
X060870D01*
X060870Y033390D01*
X060835Y033435D01*
X060766Y033488D01*
X060686Y033522D01*
X060600Y033533D01*
X060514Y033522D01*
X060434Y033488D01*
X060365Y033435D01*
X060330Y033390D01*
X060330Y033390D01*
X060270D01*
X060270Y033390D01*
X060235Y033435D01*
X060166Y033488D01*
X060086Y033522D01*
X060000Y033533D01*
X059914Y033522D01*
X059834Y033488D01*
X059765Y033435D01*
X059712Y033366D01*
X059678Y033286D01*
X059672Y033234D01*
X059671Y033233D01*
X059671Y033233D01*
X059667Y033200D01*
X059668Y033184D01*
X059668D01*
Y032607D01*
X059667Y032600D01*
X059668Y032593D01*
Y032063D01*
X061967D01*
Y031755D01*
X061345Y031133D01*
X059451D01*
X059433Y031155D01*
Y031607D01*
X059422Y031658D01*
X059394Y031701D01*
X059228Y031867D01*
X059235Y031900D01*
X059217Y031990D01*
X059197Y032019D01*
X059221Y032063D01*
X059478D01*
Y033184D01*
X058967D01*
Y032756D01*
X058924D01*
X058873Y032746D01*
X058830Y032717D01*
X058490Y032378D01*
X058481Y032364D01*
X058428Y032350D01*
Y032250D01*
X058425Y032246D01*
X058412Y032180D01*
Y031954D01*
X058228D01*
Y032340D01*
X058200Y032321D01*
X058172Y032340D01*
Y031954D01*
X057988D01*
Y032180D01*
X057975Y032246D01*
X057972Y032250D01*
Y032340D01*
X057936Y032316D01*
X057930Y032307D01*
X057882Y032339D01*
X057816Y032352D01*
X057783Y032345D01*
X057733Y032382D01*
Y032775D01*
X058166Y033208D01*
X058192Y033248D01*
X058196Y033252D01*
X058249Y033270D01*
X058262Y033261D01*
X058328Y033248D01*
X058394Y033261D01*
X058449Y033299D01*
X058462D01*
X058518Y033261D01*
X058584Y033248D01*
X058650Y033261D01*
X058705Y033299D01*
X058743Y033354D01*
X058756Y033420D01*
Y033514D01*
X058946D01*
X058997Y033524D01*
X059040Y033553D01*
X059294Y033806D01*
X059322Y033849D01*
X059333Y033900D01*
Y034000D01*
X059648D01*
Y033996D01*
X060750D01*
Y034100D01*
X059500Y034100D01*
Y034100D01*
X059478D01*
Y035137D01*
X058967Y035137D01*
Y034100D01*
D01*
Y034100D01*
X056250Y034100D01*
Y033996D01*
X057353D01*
Y034000D01*
X057638D01*
X057665Y033950D01*
X057657Y033939D01*
X057644Y033873D01*
Y033662D01*
X057306Y033324D01*
X057278Y033281D01*
X057267Y033230D01*
Y033184D01*
X056647D01*
X056633Y033200D01*
X056622Y033286D01*
X056588Y033366D01*
X056535Y033435D01*
X056466Y033488D01*
X056386Y033522D01*
X056300Y033533D01*
X056214Y033522D01*
X056134Y033488D01*
X056065Y033435D01*
X056030Y033390D01*
X056030Y033390D01*
X055970D01*
X055970Y033390D01*
X055935Y033435D01*
X055866Y033488D01*
X055786Y033522D01*
X055700Y033533D01*
X055614Y033522D01*
X055534Y033488D01*
X055465Y033435D01*
X055430Y033390D01*
X055430Y033390D01*
X055370D01*
X055370Y033390D01*
X055335Y033435D01*
X055266Y033488D01*
X055186Y033522D01*
X055100Y033533D01*
X055014Y033522D01*
X054934Y033488D01*
X054865Y033435D01*
X054812Y033366D01*
X054778Y033286D01*
X054767Y033200D01*
X054753Y033184D01*
X054267D01*
Y032756D01*
X054224D01*
X054173Y032746D01*
X054130Y032717D01*
X053790Y032378D01*
X053781Y032364D01*
X053728Y032350D01*
Y032250D01*
X053725Y032246D01*
X053712Y032180D01*
Y031954D01*
X053528D01*
Y032340D01*
X053500Y032321D01*
X053472Y032340D01*
Y031954D01*
X053288D01*
Y032180D01*
X053275Y032246D01*
X053272Y032250D01*
Y032340D01*
X053236Y032316D01*
X053230Y032307D01*
X053182Y032339D01*
X053116Y032352D01*
X053090Y032347D01*
X053051Y032378D01*
Y032794D01*
X053466Y033208D01*
X053492Y033248D01*
X053496Y033252D01*
X053549Y033270D01*
X053562Y033261D01*
X053628Y033248D01*
X053694Y033261D01*
X053717Y033277D01*
X053756Y033295D01*
X053795Y033277D01*
X053818Y033261D01*
X053884Y033248D01*
X053950Y033261D01*
X054005Y033299D01*
X054043Y033354D01*
X054056Y033420D01*
Y033514D01*
X054246D01*
X054297Y033524D01*
X054340Y033553D01*
X054616Y033829D01*
X054645Y033872D01*
X054655Y033922D01*
Y034000D01*
X054948D01*
Y033996D01*
X056050D01*
Y034100D01*
X054800Y034100D01*
Y034100D01*
X054778D01*
Y035137D01*
X054270Y035137D01*
X054270Y034100D01*
X052900Y034100D01*
X052867Y034100D01*
X052867Y034100D01*
X052699D01*
X052671D01*
X052671Y034100D01*
X052211D01*
Y036460D01*
X052259Y036476D01*
X052268Y036464D01*
X052270Y036462D01*
Y036550D01*
X052270Y036579D01*
X052281Y036667D01*
X052327Y036777D01*
X052399Y036871D01*
X052493Y036943D01*
X052602Y036988D01*
X052690Y037000D01*
X052720Y037000D01*
Y037000D01*
X053078Y037000D01*
X053051Y037065D01*
X052986Y037150D01*
X053009Y037200D01*
X053167D01*
X053325Y037042D01*
X053325Y037042D01*
X053351Y037025D01*
X053383Y037018D01*
X053383Y037018D01*
X054800Y037018D01*
Y036985D01*
X055014D01*
X055047Y036971D01*
X055120Y036961D01*
X055193Y036971D01*
X055226Y036985D01*
X055440D01*
Y037018D01*
X055835D01*
Y036848D01*
X056605D01*
Y036986D01*
X056655Y037003D01*
X056685Y036965D01*
X056753Y036912D01*
X056834Y036878D01*
X056920Y036867D01*
X057006Y036878D01*
X057086Y036912D01*
X057155Y036965D01*
X057196Y037017D01*
X057244D01*
X057285Y036965D01*
X057353Y036912D01*
X057434Y036878D01*
X057520Y036867D01*
X057606Y036878D01*
X057686Y036912D01*
X057755Y036965D01*
X057796Y037017D01*
X057844D01*
X057885Y036965D01*
X057953Y036912D01*
X058034Y036878D01*
X058120Y036867D01*
X058206Y036878D01*
X058286Y036912D01*
X058355Y036965D01*
X058397Y037018D01*
X059500D01*
Y036985D01*
X059714D01*
X059747Y036971D01*
X059820Y036961D01*
X059893Y036971D01*
X059926Y036985D01*
X060140D01*
Y037018D01*
X061543D01*
X061585Y036965D01*
X061653Y036912D01*
X061734Y036878D01*
X061820Y036867D01*
X061906Y036878D01*
X061986Y036912D01*
X062055Y036965D01*
X062096Y037017D01*
X062144D01*
X062185Y036965D01*
X062253Y036912D01*
X062334Y036878D01*
X062420Y036867D01*
X062506Y036878D01*
X062586Y036912D01*
X062655Y036965D01*
X062696Y037017D01*
X062744D01*
X062785Y036965D01*
X062853Y036912D01*
X062934Y036878D01*
X063020Y036867D01*
X063106Y036878D01*
X063186Y036912D01*
X063255Y036965D01*
X063297Y037018D01*
X064800D01*
Y036985D01*
X065014D01*
X065047Y036971D01*
X065120Y036961D01*
X065193Y036971D01*
X065226Y036985D01*
X065440D01*
Y037200D01*
X065507D01*
X065557Y037053D01*
D02*
G37*
G36*
X067141Y040501D02*
X067141Y040501D01*
X067589Y040054D01*
Y039098D01*
X067589Y039098D01*
X067589Y038502D01*
X067589Y038502D01*
Y038298D01*
X067589Y038298D01*
X067589Y037702D01*
X067589Y037702D01*
Y037498D01*
X067589Y037498D01*
X067589Y036900D01*
X067484Y036900D01*
X067449Y036798D01*
X067385Y036715D01*
X067302Y036651D01*
X067153Y036600D01*
X067100D01*
X066043Y036600D01*
Y036600D01*
X066018D01*
X066018Y036600D01*
X065697Y036600D01*
X065697Y036600D01*
X065696Y036719D01*
X065638Y037066D01*
X065635Y037072D01*
X065634Y037079D01*
X065600Y037180D01*
Y037180D01*
X065576Y037252D01*
X065556Y037300D01*
X065419D01*
Y037475D01*
X065413Y037482D01*
X065222D01*
X065188Y037496D01*
X065120Y037505D01*
X065052Y037496D01*
X065018Y037482D01*
X064821D01*
Y037300D01*
Y037100D01*
X060119D01*
Y037300D01*
Y037482D01*
X059922D01*
X059888Y037496D01*
X059820Y037505D01*
X059752Y037496D01*
X059718Y037482D01*
X059521D01*
Y037300D01*
Y037100D01*
X055419D01*
Y037300D01*
Y037482D01*
X055222D01*
X055188Y037496D01*
X055120Y037505D01*
X055052Y037496D01*
X055018Y037482D01*
X054821D01*
Y037300D01*
X054820D01*
Y037100D01*
X053383Y037100D01*
X053183Y037300D01*
X052211D01*
Y038428D01*
Y039140D01*
Y039400D01*
Y040054D01*
X053346Y041189D01*
X066454D01*
X067141Y040501D01*
D02*
G37*
%LPC*%
G36*
X055753Y023380D02*
X055570D01*
Y023197D01*
X055621Y023218D01*
X055684Y023266D01*
X055732Y023329D01*
X055753Y023380D01*
D02*
G37*
G36*
X060348Y023948D02*
X059578D01*
Y023552D01*
X060348D01*
Y023948D01*
D02*
G37*
G36*
X060744Y023600D02*
X060439D01*
X060440Y023592D01*
X060482Y023491D01*
X060548Y023404D01*
X060635Y023338D01*
X060736Y023296D01*
X060744Y023295D01*
Y023600D01*
D02*
G37*
G36*
X062420Y023137D02*
X062343Y023106D01*
X062270Y023050D01*
X062214Y022977D01*
X062182Y022900D01*
X062420D01*
Y023137D01*
D02*
G37*
G36*
X060348Y023448D02*
X059578D01*
Y023052D01*
X060348D01*
X060348Y023052D01*
Y023052D01*
X060386Y023026D01*
X060486Y022926D01*
X060462Y022880D01*
X060450Y022883D01*
X060348D01*
Y022948D01*
X059578D01*
Y022552D01*
X060348D01*
Y022610D01*
X060398Y022614D01*
X060674Y022339D01*
Y021873D01*
X060607Y021845D01*
X060525Y021782D01*
X060461Y021699D01*
X060421Y021603D01*
X060408Y021500D01*
X060421Y021397D01*
X060461Y021301D01*
X060525Y021218D01*
X060607Y021155D01*
X060703Y021115D01*
X060806Y021102D01*
X060909Y021115D01*
X060976Y021143D01*
X061213Y020906D01*
X061256Y020878D01*
X061306Y020867D01*
X063006D01*
X063057Y020878D01*
X063100Y020906D01*
X063337Y021143D01*
X063403Y021115D01*
X063506Y021102D01*
X063609Y021115D01*
X063706Y021155D01*
X063788Y021218D01*
X063851Y021301D01*
X063873Y021353D01*
X063927D01*
X063949Y021301D01*
X064012Y021218D01*
X064095Y021155D01*
X064191Y021115D01*
X064294Y021102D01*
X064397Y021115D01*
X064493Y021155D01*
X064575Y021218D01*
X064639Y021301D01*
X064679Y021397D01*
X064692Y021500D01*
X064679Y021603D01*
X064639Y021699D01*
X064575Y021782D01*
X064493Y021845D01*
X064397Y021885D01*
X064294Y021898D01*
X064191Y021885D01*
X064124Y021857D01*
X063887Y022094D01*
X063844Y022122D01*
X063794Y022133D01*
X062094D01*
X062043Y022122D01*
X062000Y022094D01*
X061774Y021868D01*
X061726Y021888D01*
Y022006D01*
X061716Y022057D01*
X061687Y022100D01*
X060444Y023344D01*
X060401Y023372D01*
X060350Y023383D01*
X060348D01*
Y023448D01*
D02*
G37*
G36*
X055370Y023380D02*
X055187D01*
X055208Y023329D01*
X055256Y023266D01*
X055319Y023218D01*
X055370Y023197D01*
Y023380D01*
D02*
G37*
G36*
X062620Y023137D02*
Y022900D01*
X062857D01*
X062826Y022977D01*
X062770Y023050D01*
X062696Y023106D01*
X062620Y023137D01*
D02*
G37*
G36*
X055370Y023763D02*
X055319Y023742D01*
X055256Y023694D01*
X055208Y023631D01*
X055187Y023580D01*
X055370D01*
Y023763D01*
D02*
G37*
G36*
X066657Y024400D02*
X066420D01*
Y024163D01*
X066496Y024194D01*
X066570Y024250D01*
X066626Y024323D01*
X066657Y024400D01*
D02*
G37*
G36*
X066220Y024837D02*
X066143Y024806D01*
X066070Y024750D01*
X066014Y024677D01*
X065982Y024600D01*
X066220D01*
Y024837D01*
D02*
G37*
G36*
X066420D02*
Y024600D01*
X066657D01*
X066626Y024677D01*
X066570Y024750D01*
X066496Y024806D01*
X066420Y024837D01*
D02*
G37*
G36*
X066220Y024400D02*
X065982D01*
X066014Y024323D01*
X066070Y024250D01*
X066143Y024194D01*
X066220Y024163D01*
Y024400D01*
D02*
G37*
G36*
X055570Y023763D02*
Y023580D01*
X055753D01*
X055732Y023631D01*
X055684Y023694D01*
X055621Y023742D01*
X055570Y023763D01*
D02*
G37*
G36*
X054960Y023700D02*
X054857D01*
Y023598D01*
X054960D01*
Y023700D01*
D02*
G37*
G36*
X053828Y024139D02*
X053645D01*
Y023956D01*
X053696Y023977D01*
X053759Y024025D01*
X053807Y024088D01*
X053828Y024139D01*
D02*
G37*
G36*
X066300Y022482D02*
X066226Y022475D01*
X066059Y022424D01*
X065905Y022341D01*
X065769Y022231D01*
X065659Y022095D01*
X065576Y021941D01*
X065525Y021774D01*
X065518Y021700D01*
X066300D01*
Y022482D01*
D02*
G37*
G36*
X053300D02*
X053226Y022475D01*
X053059Y022424D01*
X052905Y022341D01*
X052769Y022231D01*
X052659Y022095D01*
X052576Y021941D01*
X052525Y021774D01*
X052518Y021700D01*
X053300D01*
Y022482D01*
D02*
G37*
G36*
X060348Y022448D02*
X059578D01*
Y022052D01*
X060348D01*
Y022448D01*
D02*
G37*
G36*
X066500Y022482D02*
Y021700D01*
X067282D01*
X067275Y021774D01*
X067224Y021941D01*
X067141Y022095D01*
X067031Y022231D01*
X066895Y022341D01*
X066741Y022424D01*
X066574Y022475D01*
X066500Y022482D01*
D02*
G37*
G36*
X055819Y021400D02*
X055513D01*
X055515Y021392D01*
X055556Y021291D01*
X055623Y021204D01*
X055710Y021137D01*
X055811Y021096D01*
X055819Y021095D01*
Y021400D01*
D02*
G37*
G36*
X054282Y021500D02*
X053500D01*
Y020718D01*
X053574Y020725D01*
X053741Y020776D01*
X053895Y020859D01*
X054031Y020969D01*
X054141Y021105D01*
X054224Y021259D01*
X054275Y021426D01*
X054282Y021500D01*
D02*
G37*
G36*
X053300D02*
X052518D01*
X052525Y021426D01*
X052576Y021259D01*
X052659Y021105D01*
X052769Y020969D01*
X052905Y020859D01*
X053059Y020776D01*
X053226Y020725D01*
X053300Y020718D01*
Y021500D01*
D02*
G37*
G36*
X067282D02*
X066500D01*
Y020718D01*
X066574Y020725D01*
X066741Y020776D01*
X066895Y020859D01*
X067031Y020969D01*
X067141Y021105D01*
X067224Y021259D01*
X067275Y021426D01*
X067282Y021500D01*
D02*
G37*
G36*
X066300D02*
X065518D01*
X065525Y021426D01*
X065576Y021259D01*
X065659Y021105D01*
X065769Y020969D01*
X065905Y020859D01*
X066059Y020776D01*
X066226Y020725D01*
X066300Y020718D01*
Y021500D01*
D02*
G37*
G36*
X058242Y022650D02*
X057937D01*
Y022532D01*
X058242D01*
Y022650D01*
D02*
G37*
G36*
X058900Y022737D02*
Y022500D01*
X059137D01*
X059106Y022577D01*
X059050Y022650D01*
X058977Y022706D01*
X058900Y022737D01*
D02*
G37*
G36*
X058242Y022968D02*
X057937D01*
Y022850D01*
X058242D01*
Y022968D01*
D02*
G37*
G36*
X057200Y022743D02*
X057098D01*
Y022640D01*
X057200D01*
Y022743D01*
D02*
G37*
G36*
X058700Y022737D02*
X058623Y022706D01*
X058550Y022650D01*
X058494Y022577D01*
X058463Y022500D01*
X058700D01*
Y022737D01*
D02*
G37*
G36*
X059137Y022300D02*
X058900D01*
Y022063D01*
X058977Y022094D01*
X059050Y022150D01*
X059106Y022223D01*
X059137Y022300D01*
D02*
G37*
G36*
X058700D02*
X058463D01*
X058494Y022223D01*
X058550Y022150D01*
X058623Y022094D01*
X058700Y022063D01*
Y022300D01*
D02*
G37*
G36*
X062857Y022700D02*
X062620D01*
Y022463D01*
X062696Y022494D01*
X062770Y022550D01*
X062826Y022623D01*
X062857Y022700D01*
D02*
G37*
G36*
X062420D02*
X062182D01*
X062214Y022623D01*
X062270Y022550D01*
X062343Y022494D01*
X062420Y022463D01*
Y022700D01*
D02*
G37*
G36*
X058903Y025300D02*
X058787D01*
X058834Y025231D01*
X058903Y025184D01*
Y025300D01*
D02*
G37*
G36*
X059985Y029244D02*
X059817D01*
Y029156D01*
X059985D01*
Y029244D01*
D02*
G37*
G36*
X053243Y029202D02*
X053140D01*
Y029100D01*
X053243D01*
Y029202D01*
D02*
G37*
G36*
X053106Y030021D02*
X052791D01*
Y029871D01*
X052769Y029862D01*
X052706Y029814D01*
X052658Y029751D01*
X052637Y029700D01*
X052920D01*
Y029500D01*
X052637D01*
X052658Y029449D01*
X052706Y029386D01*
X052769Y029338D01*
X052791Y029329D01*
Y029271D01*
X053106D01*
Y029646D01*
Y030021D01*
D02*
G37*
G36*
X060352Y029244D02*
X060185D01*
Y029156D01*
X060352D01*
Y029244D01*
D02*
G37*
G36*
Y028956D02*
X060185D01*
Y028867D01*
X060352D01*
Y028956D01*
D02*
G37*
G36*
X059985D02*
X059817D01*
Y028867D01*
X059985D01*
Y028956D01*
D02*
G37*
G36*
X063217Y029532D02*
X062991D01*
Y029000D01*
X063217D01*
Y029532D01*
D02*
G37*
G36*
X062791D02*
X062564D01*
Y029000D01*
X062791D01*
Y029532D01*
D02*
G37*
G36*
X059577Y029434D02*
Y029300D01*
X059711D01*
X059666Y029368D01*
Y029408D01*
X059615D01*
X059577Y029434D01*
D02*
G37*
G36*
X058560Y031300D02*
X058457D01*
Y031198D01*
X058560D01*
Y031300D01*
D02*
G37*
G36*
X065900Y030737D02*
X065823Y030706D01*
X065750Y030650D01*
X065694Y030577D01*
X065663Y030500D01*
X065900D01*
Y030737D01*
D02*
G37*
G36*
X062500Y040951D02*
X062334Y040934D01*
X062175Y040886D01*
X062027Y040807D01*
X061899Y040701D01*
X061793Y040573D01*
X061714Y040425D01*
X061666Y040266D01*
X061649Y040100D01*
X061666Y039934D01*
X061714Y039775D01*
X061793Y039627D01*
X061899Y039499D01*
X062027Y039393D01*
X062175Y039314D01*
X062334Y039266D01*
X062500Y039249D01*
X062666Y039266D01*
X062825Y039314D01*
X062973Y039393D01*
X063101Y039499D01*
X063207Y039627D01*
X063286Y039775D01*
X063334Y039934D01*
X063351Y040100D01*
X063334Y040266D01*
X063286Y040425D01*
X063207Y040573D01*
X063101Y040701D01*
X062973Y040807D01*
X062825Y040886D01*
X062666Y040934D01*
X062500Y040951D01*
D02*
G37*
G36*
X057600D02*
X057434Y040934D01*
X057275Y040886D01*
X057127Y040807D01*
X056999Y040701D01*
X056893Y040573D01*
X056814Y040425D01*
X056766Y040266D01*
X056749Y040100D01*
X056766Y039934D01*
X056814Y039775D01*
X056893Y039627D01*
X056999Y039499D01*
X057127Y039393D01*
X057275Y039314D01*
X057434Y039266D01*
X057600Y039249D01*
X057766Y039266D01*
X057925Y039314D01*
X058073Y039393D01*
X058201Y039499D01*
X058307Y039627D01*
X058386Y039775D01*
X058434Y039934D01*
X058451Y040100D01*
X058434Y040266D01*
X058386Y040425D01*
X058307Y040573D01*
X058201Y040701D01*
X058073Y040807D01*
X057925Y040886D01*
X057766Y040934D01*
X057600Y040951D01*
D02*
G37*
G36*
X065900Y030300D02*
X065663D01*
X065694Y030223D01*
X065750Y030150D01*
X065823Y030094D01*
X065900Y030063D01*
Y030300D01*
D02*
G37*
G36*
X065670Y029674D02*
X065404D01*
Y029300D01*
X065670D01*
Y029674D01*
D02*
G37*
G36*
X066779Y030783D02*
X066680Y030770D01*
X066587Y030732D01*
X066508Y030671D01*
X066447Y030592D01*
X066409Y030499D01*
X066399Y030430D01*
X066349D01*
X066341Y030491D01*
X066306Y030577D01*
X066250Y030650D01*
X066177Y030706D01*
X066100Y030737D01*
Y030400D01*
Y030063D01*
X066177Y030094D01*
X066250Y030150D01*
X066306Y030223D01*
X066341Y030309D01*
X066345Y030343D01*
X066395Y030339D01*
Y029821D01*
X066409Y029722D01*
X066441Y029643D01*
X066402Y029609D01*
X066397Y029613D01*
Y029397D01*
X066197D01*
Y029613D01*
X066180Y029601D01*
X066136Y029625D01*
Y029674D01*
X065870D01*
Y029200D01*
Y028726D01*
X066136D01*
Y028775D01*
X066180Y028799D01*
X066197Y028787D01*
Y029003D01*
X066297D01*
Y029103D01*
X066513D01*
X066469Y029169D01*
X066463Y029184D01*
Y029216D01*
X066469Y029231D01*
X066518Y029305D01*
X066536Y029397D01*
X066523Y029464D01*
X066569Y029489D01*
X066684Y029374D01*
Y028746D01*
X066717D01*
Y028353D01*
X066667Y028324D01*
X066591Y028340D01*
X066501Y028322D01*
X066425Y028271D01*
X066374Y028195D01*
X066356Y028105D01*
X066337Y028082D01*
X064771Y028082D01*
X064740Y028076D01*
X064714Y028058D01*
X064696Y028032D01*
X064690Y028000D01*
X064690Y027585D01*
X064386Y027282D01*
X063500D01*
X063469Y027275D01*
X063442Y027258D01*
X063425Y027231D01*
X063418Y027200D01*
Y026200D01*
X063425Y026169D01*
X063442Y026142D01*
X063469Y026125D01*
X063500Y026118D01*
X063523D01*
X063565Y026065D01*
X063634Y026012D01*
X063714Y025978D01*
X063800Y025967D01*
X063886Y025978D01*
X063966Y026012D01*
X064035Y026065D01*
X064076Y026117D01*
X064124D01*
X064165Y026065D01*
X064234Y026012D01*
X064314Y025978D01*
X064400Y025967D01*
X064486Y025978D01*
X064566Y026012D01*
X064635Y026065D01*
X064677Y026118D01*
X066400D01*
X066416Y026122D01*
X066431Y026125D01*
X066431Y026125D01*
X066431Y026125D01*
X066445Y026134D01*
X066457Y026142D01*
X066457Y026142D01*
X066457Y026142D01*
X066466Y026155D01*
X066475Y026169D01*
X066475Y026169D01*
X066475Y026169D01*
X066478Y026184D01*
X066481Y026200D01*
X066481Y026298D01*
X066482Y026300D01*
Y026530D01*
X066532Y026551D01*
X066780Y026302D01*
Y026160D01*
X067410D01*
Y026540D01*
X066917D01*
X066844Y026614D01*
X066863Y026660D01*
X066928D01*
X067001Y026630D01*
X067100Y026617D01*
X067199Y026630D01*
X067272Y026660D01*
X067410D01*
Y026780D01*
X067432Y026808D01*
X067470Y026901D01*
X067483Y027000D01*
Y027600D01*
Y028200D01*
Y029500D01*
X067470Y029599D01*
X067432Y029692D01*
X067371Y029771D01*
X067162Y029980D01*
Y030400D01*
X067149Y030499D01*
X067111Y030592D01*
X067050Y030671D01*
X066970Y030732D01*
X066878Y030770D01*
X066779Y030783D01*
D02*
G37*
G36*
X052520Y030243D02*
X052418D01*
Y030140D01*
X052520D01*
Y030243D01*
D02*
G37*
G36*
X058500Y028260D02*
X058398D01*
Y028157D01*
X058500D01*
Y028260D01*
D02*
G37*
G36*
X063217Y028800D02*
X062891D01*
X062564D01*
Y028282D01*
X062564Y028268D01*
Y028231D01*
X062564Y028219D01*
Y027700D01*
X062891D01*
X063217D01*
Y028219D01*
X063217Y028231D01*
Y028268D01*
X063217Y028282D01*
Y028800D01*
D02*
G37*
G36*
X064553Y029039D02*
X064100D01*
Y028486D01*
X064000D01*
Y028386D01*
X063447D01*
Y027933D01*
X063556D01*
X063559Y027909D01*
X063594Y027823D01*
X063650Y027750D01*
X063723Y027694D01*
X063800Y027663D01*
Y028000D01*
X064000D01*
Y027663D01*
X064077Y027694D01*
X064150Y027750D01*
X064206Y027823D01*
X064241Y027909D01*
X064244Y027933D01*
X064553D01*
Y028254D01*
X064591Y028259D01*
X064677Y028294D01*
X064750Y028350D01*
X064775Y028383D01*
X064825D01*
X064850Y028350D01*
X064923Y028294D01*
X065000Y028263D01*
Y028600D01*
Y028937D01*
X064923Y028906D01*
X064850Y028850D01*
X064825Y028817D01*
X064775D01*
X064750Y028850D01*
X064677Y028906D01*
X064591Y028941D01*
X064553Y028946D01*
Y029039D01*
D02*
G37*
G36*
X058802Y028260D02*
X058700D01*
Y028157D01*
X058802D01*
Y028260D01*
D02*
G37*
G36*
X058960Y026000D02*
X058857D01*
Y025898D01*
X058960D01*
Y026000D01*
D02*
G37*
G36*
X058903Y025616D02*
X058834Y025569D01*
X058787Y025500D01*
X058903D01*
Y025616D01*
D02*
G37*
G36*
X052600Y027743D02*
X052498D01*
Y027640D01*
X052600D01*
Y027743D01*
D02*
G37*
G36*
X063073Y026700D02*
X062985D01*
Y026592D01*
X063073D01*
Y026700D01*
D02*
G37*
G36*
X066513Y028903D02*
X066397D01*
Y028787D01*
X066466Y028834D01*
X066513Y028903D01*
D02*
G37*
G36*
X063900Y029039D02*
X063447D01*
Y028586D01*
X063900D01*
Y029039D01*
D02*
G37*
G36*
X065670Y029100D02*
X065404D01*
Y028856D01*
X065357Y028840D01*
X065350Y028850D01*
X065277Y028906D01*
X065200Y028937D01*
Y028700D01*
X065458D01*
X065474Y028726D01*
X065670D01*
Y029100D01*
D02*
G37*
G36*
X053243Y028900D02*
X053140D01*
Y028798D01*
X053243D01*
Y028900D01*
D02*
G37*
G36*
X065437Y028500D02*
X065200D01*
Y028263D01*
X065277Y028294D01*
X065350Y028350D01*
X065406Y028423D01*
X065437Y028500D01*
D02*
G37*
G36*
X059456Y028615D02*
X059367D01*
Y028448D01*
X059456D01*
Y028615D01*
D02*
G37*
G36*
X061000Y029035D02*
X060910Y029017D01*
X060838Y028969D01*
X060668D01*
Y028631D01*
X060838D01*
X060910Y028583D01*
X061000Y028565D01*
X061090Y028583D01*
X061162Y028631D01*
X061163D01*
Y028632D01*
X061166Y028634D01*
X061217Y028710D01*
X061235Y028800D01*
X061217Y028890D01*
X061166Y028966D01*
X061163Y028968D01*
Y028969D01*
X061162D01*
X061090Y029017D01*
X061000Y029035D01*
D02*
G37*
G36*
X059744Y028615D02*
X059656D01*
Y028448D01*
X059744D01*
Y028615D01*
D02*
G37*
%LPD*%
G36*
X066400Y026200D02*
X063500D01*
Y027200D01*
X064420D01*
X064771Y027552D01*
X064771Y028000D01*
X066400Y028000D01*
X066400Y026200D01*
D02*
G37*
D10*
X059123Y029200D02*
D03*
X059477D02*
D03*
X062885Y026800D02*
D03*
X062530D02*
D03*
X061885D02*
D03*
X061530D02*
D03*
X062335Y026100D02*
D03*
X061980D02*
D03*
X062777Y021600D02*
D03*
X062423D02*
D03*
D11*
X060100Y027723D02*
D03*
Y028077D02*
D03*
D14*
X062207Y026807D02*
D03*
Y026493D02*
D03*
X057300Y023157D02*
D03*
Y022843D02*
D03*
X056550Y029607D02*
D03*
Y029293D02*
D03*
X058600Y028057D02*
D03*
Y027743D02*
D03*
X053445Y024442D02*
D03*
Y024757D02*
D03*
X052700Y027843D02*
D03*
Y028157D02*
D03*
X055420Y029543D02*
D03*
Y029857D02*
D03*
X052620Y030657D02*
D03*
Y030343D02*
D03*
X055420Y030443D02*
D03*
Y030757D02*
D03*
X058400Y025757D02*
D03*
Y025443D02*
D03*
D15*
X061865Y026450D02*
D03*
X061550D02*
D03*
X058443Y026100D02*
D03*
X058757D02*
D03*
X058157Y024800D02*
D03*
X057843D02*
D03*
X053343Y029000D02*
D03*
X053657D02*
D03*
X053343Y031400D02*
D03*
X053657D02*
D03*
X054757Y023800D02*
D03*
X054443D02*
D03*
X058043Y031400D02*
D03*
X058357D02*
D03*
X062743D02*
D03*
X063057D02*
D03*
D40*
X059261Y026895D02*
X061992Y024164D01*
X059327Y027054D02*
X062058Y024323D01*
X059393Y027213D02*
X062124Y024482D01*
X059459Y027372D02*
X062190Y024641D01*
X062745Y024164D02*
X063209Y023700D01*
X061992Y024164D02*
X062745D01*
X063376Y024323D02*
X063999Y023700D01*
X062058Y024323D02*
X063376D01*
X063999Y024482D02*
X064781Y023700D01*
X062124Y024482D02*
X063999D01*
X064628Y024641D02*
X065568Y023700D01*
X062190Y024641D02*
X064628D01*
X065256Y024800D02*
X066356Y023700D01*
X062256Y024800D02*
X065256D01*
X060100Y026956D02*
X062256Y024800D01*
X052822Y030982D02*
X054253D01*
X052511Y031293D02*
Y033041D01*
Y031293D02*
X052822Y030982D01*
X053029Y031141D02*
X054187D01*
X052770Y031400D02*
X053029Y031141D01*
X052511Y033041D02*
X053116Y033646D01*
X056180Y029079D02*
X056192Y029067D01*
X056180Y029079D02*
Y030085D01*
X056192Y028775D02*
Y029067D01*
X056339Y029145D02*
Y029440D01*
Y029145D02*
X056389Y029095D01*
X056339Y029440D02*
X056506Y029607D01*
X055811Y029240D02*
X055861Y029290D01*
X055811Y028775D02*
Y029240D01*
X055861Y029290D02*
Y030675D01*
X055702Y029356D02*
Y030519D01*
X055405Y029058D02*
X055702Y029356D01*
X055405Y028775D02*
Y029058D01*
X055995Y029125D02*
X056020Y029151D01*
X055995Y028775D02*
Y029125D01*
X056020Y029151D02*
Y030741D01*
X055463Y031298D02*
X056020Y030741D01*
X055397Y031139D02*
X055861Y030675D01*
X055465Y030756D02*
X055702Y030519D01*
X057745Y029600D02*
X059300Y031155D01*
X057620Y029600D02*
X057745D01*
X062166Y030100D02*
X063100Y031034D01*
X059284Y030100D02*
X062166D01*
X063100Y031000D02*
Y031034D01*
X057620Y023750D02*
X057837D01*
X057470Y023600D02*
X057620Y023750D01*
X057300Y023600D02*
X057470D01*
X057361Y023852D02*
X057751Y024241D01*
X056448Y023852D02*
X057361D01*
X057242Y024011D02*
X057631Y024400D01*
X056514Y024011D02*
X057242D01*
X060100Y026956D02*
Y027400D01*
X059423Y027372D02*
X059459D01*
X059309Y027486D02*
X059423Y027372D01*
X059357Y027213D02*
X059393D01*
X059281Y027289D02*
X059357Y027213D01*
X059291Y027054D02*
X059327D01*
X059253Y027092D02*
X059291Y027054D01*
X057875Y026895D02*
X059261D01*
X061531Y024400D02*
X062231Y023700D01*
X057631Y024400D02*
X061531D01*
X062777Y021600D02*
Y022000D01*
X063794D01*
X062094D02*
X062777D01*
X062423Y021003D02*
Y021600D01*
X062420Y021000D02*
X062423Y021003D01*
X061306Y021000D02*
X062420D01*
X063006D01*
X063794Y022000D02*
X064294Y021500D01*
X061594D02*
X062094Y022000D01*
X063006Y021000D02*
X063506Y021500D01*
X060806D02*
X061306Y021000D01*
X060350Y023250D02*
X061594Y022006D01*
Y021500D02*
Y022006D01*
X059963Y023250D02*
X060350D01*
X053206Y030390D02*
Y030596D01*
X054407Y029189D02*
X054934D01*
X053206Y030390D02*
X054407Y029189D01*
X063800Y026900D02*
X064400D01*
X063800Y026728D02*
Y026900D01*
X059123Y028794D02*
Y029200D01*
X059044Y028715D02*
X059123Y028794D01*
X057500Y031180D02*
Y031400D01*
X056783Y030463D02*
X057500Y031180D01*
X056783Y028775D02*
Y030463D01*
X057479Y029859D02*
X057779D01*
X057220Y029600D02*
X057479Y029859D01*
X059300Y031155D02*
Y031607D01*
X059000Y031080D02*
Y031500D01*
X057779Y029859D02*
X059000Y031080D01*
X057420Y028775D02*
X059063Y030418D01*
X056800Y027900D02*
X059159Y030259D01*
X056980Y027796D02*
X059284Y030100D01*
X057100Y029200D02*
X057620D01*
X057176Y028775D02*
X057420D01*
X056710Y027900D02*
X056800D01*
X056975Y029075D02*
X057100Y029200D01*
X054934Y029189D02*
X055011Y029113D01*
Y028775D02*
Y029113D01*
X054297Y027497D02*
Y027575D01*
X054089Y027289D02*
X054297Y027497D01*
X055400Y028261D02*
X055443D01*
X055403D02*
X055443D01*
X055382Y028282D02*
X055403Y028261D01*
X055400D02*
X055602Y028463D01*
X055420Y027900D02*
X055920D01*
X056586Y027234D01*
X056220Y028000D02*
Y028200D01*
X055208Y024463D02*
Y027412D01*
X055120Y027500D02*
X055208Y027412D01*
X055509Y027500D02*
X055520D01*
X055602Y027182D02*
X055920Y027500D01*
X056980Y024425D02*
Y027796D01*
X055602Y024425D02*
Y027182D01*
X055405Y027395D02*
X055509Y027500D01*
X056586Y024425D02*
Y027234D01*
X056783Y024425D02*
Y027437D01*
X056220Y028000D02*
X056783Y027437D01*
X056741Y028259D02*
X056750D01*
X054132Y024052D02*
X054224Y024144D01*
X054420Y023822D02*
Y024425D01*
X054404Y022041D02*
X057628D01*
X052600Y023845D02*
Y027170D01*
X054470Y022200D02*
X055900D01*
X052759Y023911D02*
Y027104D01*
X054454Y022441D02*
X055341D01*
X052918Y023977D02*
Y026918D01*
Y023977D02*
X054454Y022441D01*
X052759Y023911D02*
X054470Y022200D01*
X052600Y023845D02*
X054404Y022041D01*
X054420Y022700D02*
X055100D01*
X053077Y024043D02*
X054420Y022700D01*
X053077Y024043D02*
Y026777D01*
X052620Y030657D02*
X053144D01*
X053206Y030596D01*
X055362Y029543D02*
X055420Y029600D01*
X054939Y029543D02*
X055362D01*
X054939D02*
X055208Y029274D01*
X054344Y031298D02*
X055463D01*
X054410Y031139D02*
X055397D01*
X055420Y030756D02*
X055465D01*
X055208Y028775D02*
Y029274D01*
X055196Y030980D02*
X055420Y030756D01*
X054253Y030982D02*
X054410Y031139D01*
X054187Y031141D02*
X054344Y031298D01*
X054814Y024425D02*
Y024898D01*
X054752Y024960D02*
X054814Y024898D01*
X055011Y024425D02*
Y025209D01*
X055405Y024425D02*
Y027395D01*
X054920Y025300D02*
X055011Y025209D01*
X057350Y027765D02*
Y027800D01*
X062231Y023700D02*
X062419D01*
X059963Y022750D02*
X060450D01*
X060806Y022394D01*
Y021500D02*
Y022394D01*
X062165Y026450D02*
X062207Y026493D01*
X061865Y026450D02*
X062165D01*
X061885Y026800D02*
X062530D01*
X062115Y026900D02*
X062207Y026807D01*
X062100Y026900D02*
X062115D01*
X061865Y026215D02*
X061980Y026100D01*
X061865Y026215D02*
Y026450D01*
X061550Y026800D02*
Y027433D01*
X061530Y026470D02*
Y026800D01*
X059820Y025503D02*
X060297D01*
X062100Y028000D02*
X062200Y028100D01*
X062100Y026900D02*
Y028000D01*
X061543Y027333D02*
X061709Y027500D01*
X057393Y023250D02*
X057750D01*
X057650Y023350D02*
X057750Y023250D01*
X063800Y026728D02*
X063814Y026714D01*
X064000D01*
X053077Y026777D02*
X053195Y026895D01*
X052918Y026918D02*
X053092Y027092D01*
X052759Y027104D02*
X053141Y027486D01*
X052600Y027170D02*
X053113Y027683D01*
X055900Y022200D02*
X057300Y023600D01*
X053657Y029000D02*
X053999D01*
X054224Y028775D01*
Y028324D02*
Y028775D01*
X054000Y028100D02*
X054224Y028324D01*
X053920Y028020D02*
X054000Y028100D01*
X053919Y028020D02*
X053920D01*
X053862Y028076D02*
X053919Y028020D01*
X053525Y028076D02*
X053862D01*
X052700Y028157D02*
X052781Y028076D01*
X053525D01*
X052700Y027843D02*
X052737Y027880D01*
X053525D01*
X053195Y026895D02*
X053525D01*
X054420Y023822D02*
X054443Y023800D01*
X053557Y024800D02*
X053848D01*
X054224Y024425D01*
Y024144D02*
Y024425D01*
X060085Y028544D02*
X060100Y028529D01*
Y028077D02*
Y028529D01*
X059493Y028077D02*
X060100D01*
X059300Y027885D02*
X059493Y028077D01*
X058158Y027880D02*
X058336Y028057D01*
X057875Y027880D02*
X058158D01*
X058336Y028057D02*
X058600D01*
X058540Y027683D02*
X058600Y027743D01*
X057875Y027683D02*
X058540D01*
X058514Y028715D02*
X059044D01*
X057875Y028076D02*
X058514Y028715D01*
X057350Y027765D02*
X057433Y027683D01*
X057875D01*
X057843Y025091D02*
X057875Y025124D01*
X057843Y024800D02*
Y025091D01*
X058246Y025911D02*
X058400Y025757D01*
X057875Y025911D02*
X058246D01*
X057350Y025300D02*
X057526Y025124D01*
X057875D01*
X057750Y023250D02*
X057837D01*
X057650Y023300D02*
Y023350D01*
X057300Y022843D02*
X057393Y022750D01*
X057837D01*
X057300Y023157D02*
X057393Y023250D01*
X053657Y031400D02*
Y031924D01*
X053628Y031954D02*
X053657Y031924D01*
X053372Y031954D02*
X053628D01*
X058357Y031400D02*
Y031924D01*
X058328Y031954D02*
X058357Y031924D01*
X058072Y031954D02*
X058328D01*
X063057Y031400D02*
Y031924D01*
X063028Y031954D02*
X063057Y031924D01*
X062772Y031954D02*
X063028D01*
X059794Y025897D02*
X059900D01*
X059794D02*
X059797Y025900D01*
X058278Y025320D02*
X058400Y025443D01*
X057875Y025320D02*
X058278D01*
X060915Y028800D02*
X061000D01*
X055798Y024029D02*
Y024425D01*
Y024029D02*
X056327Y023500D01*
X056600D01*
X053200Y031364D02*
Y031400D01*
X061091Y024241D02*
X061631Y023700D01*
X057751Y024241D02*
X061091D01*
X058443Y026144D02*
X058699Y026400D01*
X058443Y026100D02*
Y026144D01*
X055341Y022441D02*
X055541Y022641D01*
X053092Y027092D02*
X053525D01*
X053113Y027683D02*
X053525D01*
X053141Y027486D02*
X053525D01*
X057628Y022041D02*
X057837Y022250D01*
X056192Y024108D02*
X056448Y023852D01*
X056389Y024136D02*
X056514Y024011D01*
X056389Y024136D02*
Y024425D01*
X056192Y024108D02*
Y024425D01*
X057675Y026108D02*
X057875D01*
X057883Y026100D01*
X058443D01*
X055602Y028463D02*
Y028775D01*
X062699Y031000D02*
X062700D01*
X062100Y031700D02*
Y033230D01*
X057500Y031400D02*
Y031400D01*
X057400Y033230D02*
X057816Y033646D01*
X059007Y031900D02*
X059066D01*
X059000D02*
X059007D01*
X059300Y031607D01*
X054224Y032624D02*
X054522D01*
X053884Y032284D02*
X054224Y032624D01*
X053884Y031954D02*
Y032284D01*
X063601Y032601D02*
X063900D01*
X063284Y032284D02*
X063601Y032601D01*
X063284Y031954D02*
Y032284D01*
X058924Y032624D02*
X059222D01*
X058584Y032284D02*
X058924Y032624D01*
X058584Y031954D02*
Y032284D01*
X062100Y033230D02*
X062516Y033646D01*
X058584D02*
X058946D01*
X059200Y033900D01*
Y034554D01*
X059222Y034576D01*
X063284Y033646D02*
X063646D01*
X063922Y033922D01*
Y034576D01*
X063900Y032601D02*
X063922Y032624D01*
X053884Y033646D02*
X054246D01*
X054522Y033922D01*
Y034576D01*
X058072Y033646D02*
X058328D01*
X062772D02*
X063028D01*
X053372D02*
X053628D01*
X060100Y027400D02*
Y027723D01*
X053525Y027289D02*
X054089D01*
X056975Y028775D02*
Y029075D01*
X056506Y029607D02*
X056550D01*
X055382Y028282D02*
X055400Y028300D01*
X056586Y028414D02*
Y028775D01*
Y028414D02*
X056741Y028259D01*
X056550Y029293D02*
X056586Y029257D01*
Y028775D02*
Y029257D01*
X056550Y029607D02*
Y029650D01*
X056500Y029700D02*
X056550Y029650D01*
X056389Y028775D02*
Y029095D01*
X056180Y030085D02*
X057200Y031105D01*
X054476Y030980D02*
X055196D01*
X054220Y030724D02*
X054476Y030980D01*
X054220Y030400D02*
Y030724D01*
X052919Y031645D02*
X053200Y031364D01*
X058699Y026400D02*
X059120D01*
X059423Y025900D02*
X059797D01*
X059423D02*
Y026097D01*
X059120Y026400D02*
X059423Y026097D01*
X057875Y027486D02*
X059309D01*
X057875Y027289D02*
X059281D01*
X057875Y027092D02*
X059253D01*
X060297Y025503D02*
X060820Y024980D01*
Y024950D02*
Y024980D01*
X059641Y024950D02*
X059691Y025000D01*
X059641Y024950D02*
X060420D01*
X052919Y031645D02*
Y032849D01*
X053372Y033302D01*
Y033646D01*
X057600Y032830D02*
X058072Y033302D01*
Y033646D01*
X062300Y032830D02*
X062772Y033302D01*
Y033646D01*
X066591Y026679D02*
Y028105D01*
Y026679D02*
X066920Y026350D01*
X067095D01*
X057620Y029200D02*
X059420Y031000D01*
X061400D01*
X062100Y031700D01*
X059159Y030259D02*
X061958D01*
X062699Y031000D01*
X059063Y030418D02*
X061718D01*
X062300Y031000D01*
X062330Y031400D02*
X062743D01*
X059700Y030700D02*
X061630D01*
X062300Y031370D01*
Y032830D01*
X057499Y031399D02*
X057500Y031400D01*
X057200Y031105D02*
Y031600D01*
X057400Y031800D01*
Y033230D01*
X057600Y031664D02*
Y032830D01*
Y031664D02*
X057864Y031400D01*
X058043D01*
X057700Y030700D02*
X057864Y030864D01*
Y031400D01*
D41*
X055420Y029915D02*
Y030100D01*
Y030343D01*
X054836Y030100D02*
X055420D01*
X063020Y025500D02*
Y026300D01*
X065903Y029003D02*
X066297D01*
Y029397D01*
X065903D02*
X066297D01*
X059003Y025400D02*
X059400D01*
X066500Y031900D02*
X066800D01*
X054836Y030100D02*
Y030596D01*
X062877Y027487D02*
X062885Y027494D01*
X062891Y027500D01*
X062970D01*
X062885Y026800D02*
Y027494D01*
Y027587D01*
X066520Y033600D02*
X066820D01*
X052570Y033900D02*
Y034300D01*
D42*
X067100Y028200D02*
Y029500D01*
Y027600D02*
Y028200D01*
Y027000D02*
Y027600D01*
X066779Y029821D02*
Y030400D01*
Y029821D02*
X067100Y029500D01*
D43*
X064114Y028600D02*
X065100D01*
X064000Y028486D02*
X064114Y028600D01*
X061709Y027600D02*
Y028900D01*
Y028800D02*
Y029059D01*
X061950Y029300D01*
X062891Y027600D02*
Y028900D01*
D46*
X064781Y023700D02*
D03*
X060844D02*
D03*
X061631D02*
D03*
X062419D02*
D03*
X063209D02*
D03*
X063999D02*
D03*
X065568D02*
D03*
X066356D02*
D03*
X055919Y021500D02*
D03*
X056706D02*
D03*
X057494D02*
D03*
X058284D02*
D03*
X060806D02*
D03*
X061594D02*
D03*
X064294D02*
D03*
X063506D02*
D03*
D47*
X057600Y040100D02*
D03*
X062500D02*
D03*
X066400Y021600D02*
D03*
X053400D02*
D03*
D48*
X052620Y038784D02*
D03*
Y036816D02*
D03*
D49*
X052770Y031400D02*
D03*
X055420Y030100D02*
D03*
X056320Y030700D02*
D03*
X053820Y030400D02*
D03*
X066000Y027800D02*
D03*
X059477Y029200D02*
D03*
X057220Y029600D02*
D03*
X057620D02*
D03*
X057120Y030000D02*
D03*
X054297Y027575D02*
D03*
X055443Y028261D02*
D03*
X055420Y027900D02*
D03*
X056220Y028200D02*
D03*
X055120Y027500D02*
D03*
X055520D02*
D03*
X055920D02*
D03*
X056710Y027900D02*
D03*
X056750Y028259D02*
D03*
X054132Y024052D02*
D03*
X054752Y024960D02*
D03*
X054920Y025300D02*
D03*
X057350Y027800D02*
D03*
X062457Y026100D02*
D03*
X062200Y028100D02*
D03*
X066591Y028105D02*
D03*
X054000Y028100D02*
D03*
X057350Y025300D02*
D03*
X058350Y024800D02*
D03*
X059691Y025000D02*
D03*
X061000Y028800D02*
D03*
X056600Y023500D02*
D03*
X053200Y031400D02*
D03*
X055600Y022700D02*
D03*
X055100D02*
D03*
X062300Y031000D02*
D03*
X063100D02*
D03*
X062700D02*
D03*
X059000Y031500D02*
D03*
Y031900D02*
D03*
X059700Y030700D02*
D03*
X057700D02*
D03*
X060100Y027400D02*
D03*
X052877Y036200D02*
D03*
X057777D02*
D03*
X062677D02*
D03*
X056500Y029700D02*
D03*
X054276Y035400D02*
D03*
X059176D02*
D03*
X064076D02*
D03*
X054220Y030400D02*
D03*
X060820Y024950D02*
D03*
X060420D02*
D03*
X057499Y031399D02*
D03*
D50*
X066297Y029003D02*
D03*
X065903D02*
D03*
X066297Y029397D02*
D03*
X065903D02*
D03*
D51*
X052720Y038000D02*
D03*
X064400Y026300D02*
D03*
Y026900D02*
D03*
X063900Y028000D02*
D03*
X063800Y026900D02*
D03*
X058800Y022400D02*
D03*
X063900Y028600D02*
D03*
X066779Y030400D02*
D03*
X064500Y028600D02*
D03*
X067100Y028200D02*
D03*
Y027600D02*
D03*
Y027000D02*
D03*
X065100Y028600D02*
D03*
X063800Y026300D02*
D03*
X061950Y029300D02*
D03*
X055100Y032600D02*
D03*
X055700D02*
D03*
X056300D02*
D03*
X055100Y033200D02*
D03*
X055700D02*
D03*
X056300D02*
D03*
X066100D02*
D03*
X056920Y037200D02*
D03*
X061820D02*
D03*
X060000Y033200D02*
D03*
X060600D02*
D03*
X061200D02*
D03*
Y032600D02*
D03*
X060600D02*
D03*
X060000D02*
D03*
X066100D02*
D03*
X065500Y033200D02*
D03*
X066720Y037200D02*
D03*
X064900Y033200D02*
D03*
Y032600D02*
D03*
X065500D02*
D03*
X056920Y038000D02*
D03*
Y038800D02*
D03*
X058120D02*
D03*
X053320Y038000D02*
D03*
Y038800D02*
D03*
X061820Y038000D02*
D03*
Y038800D02*
D03*
X066720Y038000D02*
D03*
Y038800D02*
D03*
X066000Y030400D02*
D03*
X066779Y029821D02*
D03*
X066320Y024500D02*
D03*
X057520Y038000D02*
D03*
Y037200D02*
D03*
X058120D02*
D03*
Y038000D02*
D03*
X062420D02*
D03*
Y037200D02*
D03*
X063020Y038000D02*
D03*
Y037200D02*
D03*
Y038800D02*
D03*
X052720Y039600D02*
D03*
X053320D02*
D03*
X067320Y037200D02*
D03*
Y038000D02*
D03*
Y038800D02*
D03*
X062520Y022800D02*
D03*
D52*
X055120Y037244D02*
D03*
X059820D02*
D03*
X065120D02*
D03*
X052920Y029600D02*
D03*
X053545Y024239D02*
D03*
X055470Y023480D02*
D03*
X057650Y023300D02*
D03*
X053000Y034400D02*
D03*
X053600D02*
D03*
X057900D02*
D03*
X058500D02*
D03*
X062800D02*
D03*
X063400D02*
D03*
D53*
X065903Y029003D02*
D03*
X066297D02*
D03*
Y029397D02*
D03*
X065903D02*
D03*
X059400Y025400D02*
D03*
X059003D02*
D03*
D54*
X058220Y037794D02*
D03*
Y035806D02*
D03*
X061320Y037794D02*
D03*
Y035806D02*
D03*
X063620Y037794D02*
D03*
Y035806D02*
D03*
D55*
X059044Y028715D02*
D03*
X059556D02*
D03*
X059300Y027885D02*
D03*
D56*
X060085Y028544D02*
D03*
Y029056D02*
D03*
X060915Y028800D02*
D03*
D57*
X067095Y027850D02*
D03*
Y027350D02*
D03*
Y026850D02*
D03*
Y026350D02*
D03*
X065105Y027850D02*
D03*
Y027350D02*
D03*
Y026850D02*
D03*
Y026350D02*
D03*
D58*
X064000Y028486D02*
D03*
Y026714D02*
D03*
D59*
X062891Y027600D02*
D03*
X061709D02*
D03*
X062891Y028900D02*
D03*
X061709D02*
D03*
D60*
X067030Y029200D02*
D03*
X065770D02*
D03*
D61*
X056220Y036200D02*
D03*
Y037400D02*
D03*
D62*
X065120Y037244D02*
D03*
Y035956D02*
D03*
X059820Y037244D02*
D03*
Y035956D02*
D03*
X055120Y037244D02*
D03*
Y035956D02*
D03*
D63*
X058584Y031954D02*
D03*
X058328D02*
D03*
X058072D02*
D03*
X057816D02*
D03*
X058584Y033646D02*
D03*
X058328D02*
D03*
X058072D02*
D03*
X057816D02*
D03*
X053884Y031954D02*
D03*
X053628D02*
D03*
X053372D02*
D03*
X053116D02*
D03*
X053884Y033646D02*
D03*
X053628D02*
D03*
X053372D02*
D03*
X053116D02*
D03*
X063284Y031954D02*
D03*
X063028D02*
D03*
X062772D02*
D03*
X062516D02*
D03*
X063284Y033646D02*
D03*
X063028D02*
D03*
X062772D02*
D03*
X062516D02*
D03*
D64*
X056150Y032624D02*
D03*
Y034576D02*
D03*
X060850Y032624D02*
D03*
Y034576D02*
D03*
X065550Y032624D02*
D03*
Y034576D02*
D03*
D65*
X054522D02*
D03*
Y032624D02*
D03*
X059222Y034576D02*
D03*
Y032624D02*
D03*
X063922Y034576D02*
D03*
Y032624D02*
D03*
D66*
X059820Y025503D02*
D03*
Y025897D02*
D03*
X059420Y025503D02*
D03*
Y025897D02*
D03*
D67*
X059963Y023750D02*
D03*
Y023250D02*
D03*
Y022750D02*
D03*
Y022250D02*
D03*
X057837Y023750D02*
D03*
Y023250D02*
D03*
Y022750D02*
D03*
Y022250D02*
D03*
D68*
X053206Y030596D02*
D03*
X054836D02*
D03*
Y029646D02*
D03*
X053206D02*
D03*
D69*
X053525Y028076D02*
D03*
Y027880D02*
D03*
Y027683D02*
D03*
Y027486D02*
D03*
Y027289D02*
D03*
Y027092D02*
D03*
Y026895D02*
D03*
Y026698D02*
D03*
Y026502D02*
D03*
Y026305D02*
D03*
Y026108D02*
D03*
Y025911D02*
D03*
Y025714D02*
D03*
Y025517D02*
D03*
Y025320D02*
D03*
Y025124D02*
D03*
X057875D02*
D03*
Y025320D02*
D03*
Y025517D02*
D03*
Y025714D02*
D03*
Y025911D02*
D03*
Y026108D02*
D03*
Y026305D02*
D03*
Y026502D02*
D03*
Y026698D02*
D03*
Y026895D02*
D03*
Y027092D02*
D03*
Y027289D02*
D03*
Y027486D02*
D03*
Y027683D02*
D03*
Y027880D02*
D03*
Y028076D02*
D03*
D70*
X054224Y024425D02*
D03*
X054420D02*
D03*
X054617D02*
D03*
X054814D02*
D03*
X055011D02*
D03*
X055208D02*
D03*
X055405D02*
D03*
X055602D02*
D03*
X055798D02*
D03*
X055995D02*
D03*
X056192D02*
D03*
X056389D02*
D03*
X056586D02*
D03*
X056783D02*
D03*
X056980D02*
D03*
X057176D02*
D03*
Y028775D02*
D03*
X056980D02*
D03*
X056783D02*
D03*
X056586D02*
D03*
X056389D02*
D03*
X056192D02*
D03*
X055995D02*
D03*
X055798D02*
D03*
X055602D02*
D03*
X055405D02*
D03*
X055208D02*
D03*
X055011D02*
D03*
X054814D02*
D03*
X054617D02*
D03*
X054420D02*
D03*
X054224D02*
D03*
D71*
X065800Y027100D02*
D03*
M02*
