G04 Layer_Color=16711935*
%FSAX24Y24*%
%MOIN*%
G70*
G01*
G75*
%ADD78R,0.0257X0.0297*%
%ADD79R,0.0297X0.0257*%
%ADD82R,0.0285X0.0285*%
%ADD83R,0.0285X0.0285*%
%ADD108C,0.0710*%
%ADD109C,0.1340*%
%ADD110C,0.0867*%
%ADD111C,0.0260*%
%ADD112C,0.0159*%
%ADD113C,0.0360*%
%ADD114C,0.0320*%
%ADD115C,0.0210*%
%ADD116R,0.2167X0.0612*%
%ADD117R,0.0257X0.0415*%
%ADD118R,0.0415X0.0257*%
%ADD119R,0.0550X0.0300*%
%ADD120R,0.0986X0.0986*%
%ADD121R,0.0533X0.1143*%
%ADD122R,0.0612X0.0828*%
%ADD123R,0.0690X0.1025*%
%ADD124R,0.0560X0.0438*%
%ADD125O,0.0257X0.0710*%
%ADD126R,0.2285X0.1041*%
%ADD127R,0.0430X0.1041*%
%ADD128R,0.0336X0.0297*%
%ADD129R,0.0690X0.0316*%
%ADD130R,0.0710X0.0630*%
%ADD131O,0.0690X0.0178*%
%ADD132O,0.0178X0.0690*%
%ADD133R,0.1280X0.1680*%
G36*
X054120Y037040D02*
X054153D01*
X054158Y037040D01*
X054256Y037027D01*
X054261Y037026D01*
X054266Y037024D01*
X054387Y036974D01*
X054392Y036971D01*
X054396Y036969D01*
X054501Y036888D01*
X054505Y036885D01*
X054508Y036881D01*
X054588Y036777D01*
X054591Y036772D01*
X054594Y036767D01*
X054644Y036646D01*
X054646Y036641D01*
X054647Y036636D01*
X054660Y036538D01*
X054660Y036533D01*
Y036500D01*
X054660Y036500D01*
X054660Y035901D01*
X054663Y035730D01*
X054663Y035729D01*
X054663Y035727D01*
X054660Y035680D01*
X054660Y035649D01*
X054660Y035648D01*
X054660Y035647D01*
X054660Y035646D01*
X054660Y035645D01*
X054654Y035605D01*
X054654Y035605D01*
X054654Y035604D01*
X054654Y035602D01*
X054653Y035600D01*
X054653Y035599D01*
X054653Y035599D01*
X054620Y035483D01*
X054619Y035482D01*
X054619Y035480D01*
X054618Y035479D01*
X054618Y035478D01*
X054617Y035477D01*
X054617Y035476D01*
X054560Y035369D01*
X054559Y035368D01*
X054558Y035367D01*
X054558Y035366D01*
X054557Y035365D01*
X054556Y035364D01*
X054555Y035363D01*
X054479Y035269D01*
X054478Y035268D01*
X054477Y035267D01*
X054476Y035266D01*
X054475Y035265D01*
X054474Y035264D01*
X054473Y035263D01*
X054379Y035189D01*
X054379Y035188D01*
X054379Y035188D01*
X054377Y035187D01*
X054375Y035186D01*
X054375Y035186D01*
X054374Y035185D01*
X054341Y035166D01*
X054321Y035153D01*
X054269Y035090D01*
X054246Y035034D01*
X054240Y034985D01*
X054240Y034968D01*
X054240Y034968D01*
X054240Y034967D01*
X054240Y034516D01*
Y034489D01*
X054240Y034484D01*
X054229Y034402D01*
X054228Y034397D01*
X054226Y034392D01*
X054184Y034291D01*
X054182Y034286D01*
X054179Y034282D01*
X054112Y034195D01*
X054109Y034191D01*
X054105Y034188D01*
X054018Y034121D01*
X054014Y034118D01*
X054009Y034116D01*
X053908Y034074D01*
X053903Y034072D01*
X053898Y034071D01*
X053816Y034060D01*
X053811Y034060D01*
X053784D01*
X052699Y034060D01*
X052671D01*
X052666Y034060D01*
X052582Y034071D01*
X052582D01*
X052577Y034072D01*
X052572Y034074D01*
X052467Y034117D01*
X052463Y034120D01*
X052458Y034122D01*
X052369Y034191D01*
X052365Y034195D01*
X052361Y034199D01*
X052292Y034288D01*
X052292Y034289D01*
X052291Y034290D01*
X052290Y034292D01*
X052289Y034293D01*
X052289Y034294D01*
X052288Y034295D01*
X052288Y034296D01*
X052287Y034297D01*
X052287Y034299D01*
X052286Y034300D01*
X052232Y034460D01*
X052232Y034461D01*
X052231Y034462D01*
X052231Y034463D01*
X052231Y034465D01*
X052230Y034466D01*
X052230Y034467D01*
X052230Y034469D01*
X052230Y034470D01*
Y034471D01*
X052230Y034473D01*
Y034529D01*
X052230Y036550D01*
D01*
X052230Y036579D01*
Y036579D01*
Y036579D01*
X052230Y036585D01*
X052242Y036673D01*
X052243Y036678D01*
X052244Y036683D01*
X052290Y036792D01*
X052292Y036797D01*
X052293Y036798D01*
X052295Y036801D01*
X052367Y036895D01*
X052371Y036899D01*
X052375Y036903D01*
X052469Y036975D01*
X052473Y036978D01*
X052478Y036980D01*
X052587Y037025D01*
X052592Y037027D01*
X052597Y037028D01*
X052685Y037040D01*
X052690Y037040D01*
X052690D01*
X052690D01*
X052720Y037040D01*
X052720Y037040D01*
X054120Y037040D01*
D02*
G37*
G36*
X066907Y039490D02*
X066936Y039490D01*
X066938Y039490D01*
X066940Y039490D01*
X067027Y039481D01*
X067029Y039481D01*
X067030Y039481D01*
X067031Y039481D01*
X067033Y039480D01*
X067034Y039480D01*
X067035Y039480D01*
X067147Y039446D01*
X067148Y039445D01*
X067149Y039445D01*
X067151Y039445D01*
X067152Y039444D01*
X067153Y039443D01*
X067154Y039443D01*
X067257Y039388D01*
X067258Y039387D01*
X067259Y039387D01*
X067260Y039386D01*
X067262Y039385D01*
X067263Y039384D01*
X067264Y039383D01*
X067354Y039309D01*
X067355Y039309D01*
X067356Y039308D01*
X067357Y039307D01*
X067358Y039306D01*
X067359Y039305D01*
X067359Y039304D01*
X067433Y039214D01*
X067434Y039213D01*
X067435Y039212D01*
X067436Y039210D01*
X067437Y039209D01*
X067437Y039208D01*
X067438Y039207D01*
X067493Y039104D01*
X067493Y039103D01*
X067494Y039102D01*
X067495Y039101D01*
X067495Y039099D01*
X067495Y039098D01*
X067496Y039097D01*
X067530Y038985D01*
X067530Y038984D01*
X067530Y038983D01*
X067531Y038981D01*
X067531Y038980D01*
X067531Y038979D01*
X067531Y038977D01*
X067540Y038890D01*
X067540Y038888D01*
X067540Y038886D01*
X067540Y038857D01*
X067540Y037000D01*
X067540Y037000D01*
Y036947D01*
X067540Y036946D01*
Y036945D01*
X067540Y036943D01*
X067540Y036942D01*
X067539Y036941D01*
X067539Y036940D01*
X067539Y036938D01*
X067539Y036937D01*
X067538Y036936D01*
X067538Y036934D01*
X067487Y036785D01*
X067487Y036784D01*
X067486Y036783D01*
X067486Y036782D01*
X067485Y036781D01*
X067485Y036779D01*
X067484Y036778D01*
X067483Y036777D01*
X067483Y036776D01*
X067482Y036775D01*
X067481Y036774D01*
X067417Y036690D01*
X067414Y036686D01*
X067414D01*
Y036686D01*
X067410Y036683D01*
X067326Y036619D01*
X067325Y036618D01*
X067324Y036617D01*
X067323Y036617D01*
X067322Y036616D01*
X067321Y036615D01*
X067319Y036615D01*
X067318Y036614D01*
X067317Y036614D01*
X067316Y036613D01*
X067315Y036613D01*
X067166Y036562D01*
X067164Y036562D01*
X067163Y036561D01*
X067162Y036561D01*
X067160Y036561D01*
X067159Y036560D01*
X067158Y036560D01*
X067157Y036560D01*
X067155Y036560D01*
X067154D01*
X067153Y036560D01*
X067100D01*
X066043Y036560D01*
X066043Y036560D01*
X066018D01*
D01*
X066018D01*
X066013Y036560D01*
X065941Y036570D01*
X065935Y036571D01*
X065930Y036572D01*
X065840Y036610D01*
X065835Y036612D01*
X065831Y036615D01*
X065754Y036675D01*
X065750Y036678D01*
X065746Y036682D01*
X065687Y036760D01*
X065686Y036760D01*
X065686Y036760D01*
X065685Y036762D01*
X065684Y036764D01*
X065684Y036764D01*
X065683Y036765D01*
X065682Y036767D01*
X065681Y036769D01*
X065681Y036769D01*
X065681Y036770D01*
X065643Y036869D01*
X065642Y036871D01*
X065642Y036873D01*
X065641Y036874D01*
X065641Y036874D01*
X065641Y036876D01*
X065640Y036878D01*
X065635Y036913D01*
X065635Y036913D01*
X065626Y036979D01*
X065582Y037184D01*
X065552Y037277D01*
X065552Y037277D01*
X065539Y037315D01*
X065469Y037417D01*
X065368Y037487D01*
X065330Y037499D01*
X065330Y037499D01*
X065282Y037515D01*
X065282Y037515D01*
X065281Y037515D01*
X065279Y037516D01*
X065277Y037517D01*
X065277Y037517D01*
X065276Y037517D01*
X065274Y037518D01*
X065273Y037519D01*
X065272Y037520D01*
X065272Y037520D01*
X065148Y037605D01*
X065146Y037606D01*
X065145Y037608D01*
X065144Y037608D01*
X065144Y037608D01*
X065142Y037610D01*
X065141Y037611D01*
X065141Y037612D01*
X065140Y037612D01*
X065139Y037614D01*
X065138Y037615D01*
X065052Y037739D01*
X065052Y037740D01*
X065052Y037740D01*
X065051Y037742D01*
X065050Y037744D01*
X065049Y037744D01*
X065049Y037745D01*
X065048Y037747D01*
X065048Y037748D01*
X065047Y037749D01*
X065047Y037750D01*
X065032Y037797D01*
X065032Y037798D01*
X065031Y037799D01*
X065031Y037801D01*
X065030Y037802D01*
X065030Y037803D01*
X065030Y037804D01*
X065030Y037806D01*
X065030Y037808D01*
X065030Y037809D01*
X065030Y037810D01*
X065030Y038950D01*
X065030Y038983D01*
D01*
Y038983D01*
X065030Y038988D01*
X065043Y039086D01*
X065044Y039091D01*
X065046Y039096D01*
X065096Y039218D01*
X065098Y039222D01*
X065101Y039227D01*
X065182Y039331D01*
X065185Y039335D01*
X065189Y039338D01*
X065293Y039419D01*
X065298Y039421D01*
X065302Y039424D01*
X065424Y039474D01*
X065429Y039476D01*
X065434Y039477D01*
X065532Y039490D01*
X065537Y039490D01*
X065537D01*
X065537D01*
X065570Y039490D01*
X066907Y039490D01*
X066907Y039490D01*
D02*
G37*
D78*
X059123Y029200D02*
D03*
X059477D02*
D03*
X062885Y026800D02*
D03*
X062530D02*
D03*
X061885D02*
D03*
X061530D02*
D03*
X062335Y026100D02*
D03*
X061980D02*
D03*
X062777Y021600D02*
D03*
X062423D02*
D03*
D79*
X060100Y027723D02*
D03*
Y028077D02*
D03*
D82*
X062207Y026807D02*
D03*
Y026493D02*
D03*
X057300Y023157D02*
D03*
Y022843D02*
D03*
X056550Y029607D02*
D03*
Y029293D02*
D03*
X058600Y028057D02*
D03*
Y027743D02*
D03*
X053445Y024442D02*
D03*
Y024757D02*
D03*
X052700Y027843D02*
D03*
Y028157D02*
D03*
X055420Y029543D02*
D03*
Y029857D02*
D03*
X052620Y030657D02*
D03*
Y030343D02*
D03*
X055420Y030443D02*
D03*
Y030757D02*
D03*
X058400Y025757D02*
D03*
Y025443D02*
D03*
D83*
X061865Y026450D02*
D03*
X061550D02*
D03*
X058443Y026100D02*
D03*
X058757D02*
D03*
X058157Y024800D02*
D03*
X057843D02*
D03*
X053343Y029000D02*
D03*
X053657D02*
D03*
X053343Y031400D02*
D03*
X053657D02*
D03*
X054757Y023800D02*
D03*
X054443D02*
D03*
X058043Y031400D02*
D03*
X058357D02*
D03*
X062743D02*
D03*
X063057D02*
D03*
D108*
X064781Y023700D02*
D03*
X060844D02*
D03*
X061631D02*
D03*
X062419D02*
D03*
X063209D02*
D03*
X063999D02*
D03*
X065568D02*
D03*
X066356D02*
D03*
X055919Y021500D02*
D03*
X056706D02*
D03*
X057494D02*
D03*
X058284D02*
D03*
X060806D02*
D03*
X061594D02*
D03*
X064294D02*
D03*
X063506D02*
D03*
D109*
X057600Y040100D02*
D03*
X062500D02*
D03*
X066400Y021600D02*
D03*
X053400D02*
D03*
D110*
X052620Y038784D02*
D03*
Y036816D02*
D03*
D111*
X052770Y031400D02*
D03*
X055420Y030100D02*
D03*
X056320Y030700D02*
D03*
X053820Y030400D02*
D03*
X066000Y027800D02*
D03*
X059477Y029200D02*
D03*
X057220Y029600D02*
D03*
X057620D02*
D03*
X057120Y030000D02*
D03*
X054297Y027575D02*
D03*
X055443Y028261D02*
D03*
X055420Y027900D02*
D03*
X056220Y028200D02*
D03*
X055120Y027500D02*
D03*
X055520D02*
D03*
X055920D02*
D03*
X056710Y027900D02*
D03*
X056750Y028259D02*
D03*
X054132Y024052D02*
D03*
X054752Y024960D02*
D03*
X054920Y025300D02*
D03*
X057350Y027800D02*
D03*
X062457Y026100D02*
D03*
X062200Y028100D02*
D03*
X066591Y028105D02*
D03*
X054000Y028100D02*
D03*
X057350Y025300D02*
D03*
X058350Y024800D02*
D03*
X059691Y025000D02*
D03*
X061000Y028800D02*
D03*
X056600Y023500D02*
D03*
X053200Y031400D02*
D03*
X055600Y022700D02*
D03*
X055100D02*
D03*
X062300Y031000D02*
D03*
X063100D02*
D03*
X062700D02*
D03*
X059000Y031500D02*
D03*
Y031900D02*
D03*
X059700Y030700D02*
D03*
X057700D02*
D03*
X060100Y027400D02*
D03*
X052877Y036200D02*
D03*
X057777D02*
D03*
X062677D02*
D03*
X056500Y029700D02*
D03*
X054276Y035400D02*
D03*
X059176D02*
D03*
X064076D02*
D03*
X054220Y030400D02*
D03*
X060820Y024950D02*
D03*
X060420D02*
D03*
X057499Y031399D02*
D03*
D112*
X066297Y029003D02*
D03*
X065903D02*
D03*
X066297Y029397D02*
D03*
X065903D02*
D03*
D113*
X052720Y038000D02*
D03*
X064400Y026300D02*
D03*
Y026900D02*
D03*
X063900Y028000D02*
D03*
X063800Y026900D02*
D03*
X058800Y022400D02*
D03*
X063900Y028600D02*
D03*
X066779Y030400D02*
D03*
X064500Y028600D02*
D03*
X067100Y028200D02*
D03*
Y027600D02*
D03*
Y027000D02*
D03*
X065100Y028600D02*
D03*
X063800Y026300D02*
D03*
X061950Y029300D02*
D03*
X055100Y032600D02*
D03*
X055700D02*
D03*
X056300D02*
D03*
X055100Y033200D02*
D03*
X055700D02*
D03*
X056300D02*
D03*
X066100D02*
D03*
X056920Y037200D02*
D03*
X061820D02*
D03*
X060000Y033200D02*
D03*
X060600D02*
D03*
X061200D02*
D03*
Y032600D02*
D03*
X060600D02*
D03*
X060000D02*
D03*
X066100D02*
D03*
X065500Y033200D02*
D03*
X066720Y037200D02*
D03*
X064900Y033200D02*
D03*
Y032600D02*
D03*
X065500D02*
D03*
X056920Y038000D02*
D03*
Y038800D02*
D03*
X058120D02*
D03*
X053320Y038000D02*
D03*
Y038800D02*
D03*
X061820Y038000D02*
D03*
Y038800D02*
D03*
X066720Y038000D02*
D03*
Y038800D02*
D03*
X066000Y030400D02*
D03*
X066779Y029821D02*
D03*
X066320Y024500D02*
D03*
X057520Y038000D02*
D03*
Y037200D02*
D03*
X058120D02*
D03*
Y038000D02*
D03*
X062420D02*
D03*
Y037200D02*
D03*
X063020Y038000D02*
D03*
Y037200D02*
D03*
Y038800D02*
D03*
X052720Y039600D02*
D03*
X053320D02*
D03*
X067320Y037200D02*
D03*
Y038000D02*
D03*
Y038800D02*
D03*
X062520Y022800D02*
D03*
D114*
X055120Y037244D02*
D03*
X059820D02*
D03*
X065120D02*
D03*
X052920Y029600D02*
D03*
X053545Y024239D02*
D03*
X055470Y023480D02*
D03*
X057650Y023300D02*
D03*
X053000Y034400D02*
D03*
X053600D02*
D03*
X057900D02*
D03*
X058500D02*
D03*
X062800D02*
D03*
X063400D02*
D03*
D115*
X065903Y029003D02*
D03*
X066297D02*
D03*
Y029397D02*
D03*
X065903D02*
D03*
X059400Y025400D02*
D03*
X059003D02*
D03*
D116*
X058220Y037794D02*
D03*
Y035806D02*
D03*
X061320Y037794D02*
D03*
Y035806D02*
D03*
X063620Y037794D02*
D03*
Y035806D02*
D03*
D117*
X059044Y028715D02*
D03*
X059556D02*
D03*
X059300Y027885D02*
D03*
D118*
X060085Y028544D02*
D03*
Y029056D02*
D03*
X060915Y028800D02*
D03*
D119*
X067095Y027850D02*
D03*
Y027350D02*
D03*
Y026850D02*
D03*
Y026350D02*
D03*
X065105Y027850D02*
D03*
Y027350D02*
D03*
Y026850D02*
D03*
Y026350D02*
D03*
D120*
X064000Y028486D02*
D03*
Y026714D02*
D03*
D121*
X062891Y027600D02*
D03*
X061709D02*
D03*
X062891Y028900D02*
D03*
X061709D02*
D03*
D122*
X067030Y029200D02*
D03*
X065770D02*
D03*
D123*
X056220Y036200D02*
D03*
Y037400D02*
D03*
D124*
X065120Y037244D02*
D03*
Y035956D02*
D03*
X059820Y037244D02*
D03*
Y035956D02*
D03*
X055120Y037244D02*
D03*
Y035956D02*
D03*
D125*
X058584Y031954D02*
D03*
X058328D02*
D03*
X058072D02*
D03*
X057816D02*
D03*
X058584Y033646D02*
D03*
X058328D02*
D03*
X058072D02*
D03*
X057816D02*
D03*
X053884Y031954D02*
D03*
X053628D02*
D03*
X053372D02*
D03*
X053116D02*
D03*
X053884Y033646D02*
D03*
X053628D02*
D03*
X053372D02*
D03*
X053116D02*
D03*
X063284Y031954D02*
D03*
X063028D02*
D03*
X062772D02*
D03*
X062516D02*
D03*
X063284Y033646D02*
D03*
X063028D02*
D03*
X062772D02*
D03*
X062516D02*
D03*
D126*
X056150Y032624D02*
D03*
Y034576D02*
D03*
X060850Y032624D02*
D03*
Y034576D02*
D03*
X065550Y032624D02*
D03*
Y034576D02*
D03*
D127*
X054522D02*
D03*
Y032624D02*
D03*
X059222Y034576D02*
D03*
Y032624D02*
D03*
X063922Y034576D02*
D03*
Y032624D02*
D03*
D128*
X059820Y025503D02*
D03*
Y025897D02*
D03*
X059420Y025503D02*
D03*
Y025897D02*
D03*
D129*
X059963Y023750D02*
D03*
Y023250D02*
D03*
Y022750D02*
D03*
Y022250D02*
D03*
X057837Y023750D02*
D03*
Y023250D02*
D03*
Y022750D02*
D03*
Y022250D02*
D03*
D130*
X053206Y030596D02*
D03*
X054836D02*
D03*
Y029646D02*
D03*
X053206D02*
D03*
D131*
X053525Y028076D02*
D03*
Y027880D02*
D03*
Y027683D02*
D03*
Y027486D02*
D03*
Y027289D02*
D03*
Y027092D02*
D03*
Y026895D02*
D03*
Y026698D02*
D03*
Y026502D02*
D03*
Y026305D02*
D03*
Y026108D02*
D03*
Y025911D02*
D03*
Y025714D02*
D03*
Y025517D02*
D03*
Y025320D02*
D03*
Y025124D02*
D03*
X057875D02*
D03*
Y025320D02*
D03*
Y025517D02*
D03*
Y025714D02*
D03*
Y025911D02*
D03*
Y026108D02*
D03*
Y026305D02*
D03*
Y026502D02*
D03*
Y026698D02*
D03*
Y026895D02*
D03*
Y027092D02*
D03*
Y027289D02*
D03*
Y027486D02*
D03*
Y027683D02*
D03*
Y027880D02*
D03*
Y028076D02*
D03*
D132*
X054224Y024425D02*
D03*
X054420D02*
D03*
X054617D02*
D03*
X054814D02*
D03*
X055011D02*
D03*
X055208D02*
D03*
X055405D02*
D03*
X055602D02*
D03*
X055798D02*
D03*
X055995D02*
D03*
X056192D02*
D03*
X056389D02*
D03*
X056586D02*
D03*
X056783D02*
D03*
X056980D02*
D03*
X057176D02*
D03*
Y028775D02*
D03*
X056980D02*
D03*
X056783D02*
D03*
X056586D02*
D03*
X056389D02*
D03*
X056192D02*
D03*
X055995D02*
D03*
X055798D02*
D03*
X055602D02*
D03*
X055405D02*
D03*
X055208D02*
D03*
X055011D02*
D03*
X054814D02*
D03*
X054617D02*
D03*
X054420D02*
D03*
X054224D02*
D03*
D133*
X065800Y027100D02*
D03*
M02*
