M48
;Layer_Color=9474304
;FILE_FORMAT=2:4
INCH
;TYPE=PLATED
T1F00S00C0.0100
T2F00S00C0.0315
T3F00S00C0.0394
T4F00S00C0.0748
T5F00S00C0.1220
%
T01
X063020Y026050
Y026350
Y026650
Y026950
Y027250
X063320
X063620
X063920
Y026950
X063620
X063320
Y026650
X063620
Y026364
Y026050
X063920
Y026350
Y026650
X063320Y026350
Y026050
Y027550
X063020
Y027850
X063320
X063620
Y027550
X063920Y027850
Y028150
X063620
X063320
X063020
Y028450
X063320
X063620
X063920
Y028750
X063620
Y029050
X063320
Y028750
X063020
X063135Y029565
X063620Y029350
X063920
Y029050
X064220
X064520
X064820
X065120
X065420
X065323Y029553
X065717
Y029947
X065323
X066020Y030250
Y030550
Y030850
Y031150
X066320
X066620
X066320Y030850
Y030250
X065444Y030950
X063720Y030650
X063420
X063120
X062820
X062520
Y030350
X062820
X063120
X063420
X063720
X064220Y029350
X064520
X064820
X065720Y028457
X066120Y028750
X066420Y028450
X066720
Y028150
X066420
Y027850
X066720
Y027550
X066420
Y026650
X066720
X066120
Y026950
X066070Y025250
X062520Y029750
X062220
X061920
Y030050
X061620
X061320
Y029750
Y030350
X061620
Y030650
X061920
X062220
Y030350
X061920
X062220Y030050
X062420Y029350
X061372Y028844
X061405Y028306
X061020Y028327
X060520Y028465
Y028150
X061620Y027550
X061920
X062220
X060757Y026500
X060400Y026157
X060462Y025550
X060777
X060020Y025050
Y024750
Y024450
X059720
Y024150
X060020
Y023850
X059720
X059020Y023750
X058720
X058420
Y024050
X058720
X059020
Y023450
X058720
X058420
X058120
Y023750
Y024050
Y024350
X057570
Y024050
Y023750
X057220
Y024050
X056920
Y023750
X056620
X056320
X056020
X055720
X055420
Y024050
X055120
Y023750
X054820
Y024050
X054520
Y024350
X054820
X055120
X055420
X055720
X056020
Y024650
X055720
X055420
X055120
X054820
X055720Y024050
X056020
X056320
X056720Y023200
X057074
X057516
X057870
X059420Y022100
Y024750
Y025050
X059720
Y024750
X059320Y026450
X058370Y026400
X058070
Y026138
X057650Y026050
X056770Y026200
X056510
X056300Y026378
X056100Y026210
X056070Y028350
X055820Y029250
X055520Y028950
X054670
X054665Y028658
X054370Y028950
X054070Y028650
X053420Y028820
Y029900
Y030800
X055520Y030350
Y030100
Y029850
X056720Y030900
X056970
X057220
X057570Y030057
X058520Y030050
Y029750
X058450Y028829
X058370Y028400
X058870
X058920Y028750
X058980Y027790
X058670Y027800
X058370
X057870Y028400
X057020Y028750
X058920Y031050
X059670Y030450
X060636Y030800
X061002Y030795
X060820Y029627
X061320Y023300
Y023000
X055170Y023350
X053620
X053343Y023650
X053270Y025450
X054060Y025490
X053977Y031450
X053662
X053670Y032350
X053822Y033105
X053020Y033350
X053520Y034250
Y034500
X053770
X054020
Y034250
X053770
X054220Y034950
Y035200
X054676Y035400
X055570Y034750
X055820
X056070
X056320
X056570
Y034500
Y034250
X056620Y033650
Y033400
Y033150
Y032900
X056370
X056120
Y033150
X055870
Y032900
Y032650
X055620
Y032400
X055870
X056120
Y032650
X056370
Y032400
X056620
Y032650
Y032150
X056370
X056120
X055870
X055620
Y032900
Y033150
Y033400
X055870
X056120
X056370
Y033150
Y033650
X056120
X055870
X055620
X058220Y034250
Y034500
X058470
X058720
Y034250
X058470
X058920Y034950
Y035200
X059395Y035400
X060270Y034750
X060520
X060770
X061020
X061270
Y034500
Y034250
X061320Y033650
Y033400
Y033150
Y032900
X061070
X060820
Y033150
X060570
Y032900
Y032650
X060320
Y032400
X060570
X060820
Y032650
X061070
Y032400
X061320
Y032650
Y032150
X061070
X060820
X060570
X060320
Y032900
Y033150
Y033400
X060570
X060820
X061070
Y033150
Y033650
X060820
X060570
X060320
X058522Y033105
X058620Y032350
X059220Y031750
X058997Y031350
X057693Y031873
X062220Y031850
X062420Y036500
Y036750
X062270Y037300
Y037550
Y037800
X062020
Y037550
X061770
Y037800
Y038050
X062020
X062270
Y038300
X062020
X061770
Y038550
X062020
Y038800
Y039050
X062270
Y038800
Y038550
X061770Y038800
Y039050
X060157Y040500
Y040800
X058870
Y040500
X058570Y039050
X058320
X058070
X057820
X057570
X057320
X057070
Y038800
Y038550
Y038300
Y038050
Y037800
Y037550
X057320
Y037800
X057570
X057820
X058070
X058320
X058570
Y038050
X058320
X058070
X057820
X057570
X057320
Y038300
X057570
X057820
X058070
X058320
X058570
Y038550
X058320
X058070
X057820
Y038800
X057570
X057320
Y038550
X057570
X058070Y038800
X058320
X058570
X057970Y037250
X057720
Y037000
X057970
Y036750
X057720
Y036500
X057970
X058047Y036200
X053347
X053420Y037550
Y037800
X053670
X053920
Y038050
Y038300
Y038550
Y038800
Y039050
X053670
X053420
Y038800
Y038550
X053670
Y038300
X053420
Y038050
X053670
Y037550
X053920
X053170
Y037800
Y038050
Y038300
Y038550
Y038800
Y039050
X053670Y038800
X054170Y040500
Y040800
X055457
Y040500
X063570
Y040800
X064857
Y040500
X066370Y039050
Y038800
Y038550
Y038300
Y038050
Y037800
Y037550
X066620
X066870
Y037800
Y038050
X066620
Y037800
Y038300
X066870
Y038550
Y038800
X066620
Y038550
Y039050
X066870
X063270
X063020
X062770
X062520
Y038800
Y038550
X062770
Y038300
Y038050
Y037800
X062520
Y037550
Y037300
X062770
X063020
X063270
Y037550
X063020
X062770
X063020Y037800
X063270
Y038050
X063020
Y038300
X063270
Y038550
X063020
Y038800
X062770
X063270
X062520Y038300
Y038050
X062670Y036750
Y036500
X062747Y036200
X063620Y035200
Y034950
X063420Y034500
Y034250
X063170
Y034500
X062920
Y034250
X064096Y035400
X064970Y034750
X065220
X065470
X065720
X065970
Y034500
Y034250
X066020Y033650
X065770
X065520
X065270
X065020
Y033400
X065270
X065520
X065770
X066020
Y033150
X065770
Y032900
X066020
Y032650
Y032400
Y032150
X065770
X065520
X065270
X065020
Y032400
X065270
Y032650
Y032900
Y033150
X065020
Y032900
Y032650
X065520
Y032400
X065770
Y032650
X065520Y032900
Y033150
T02
X063206Y022200
X063994
X063699Y024400
X064481
X065269
X066056
X062909
X062119
X061332
X060544
X060506Y022200
X061294
X058284
X057494
X056706
X055919
T03
X053120Y036800
Y039753
T04
X054123Y027197
T05
X066020Y022200
X053870
X057870Y040300
X062570
M30
