M48
;Layer_Color=9474304
;FILE_FORMAT=2:4
INCH
;TYPE=PLATED
T1F00S00C0.0100
T2F00S00C0.0315
T3F00S00C0.0394
T4F00S00C0.0748
T5F00S00C0.1220
%
T01
X063020Y026050
X063320
Y026350
X063020
Y026650
X063320
X063620
Y026364
X063920Y026350
Y026650
Y026950
X063620
X063320
X063020
Y027250
Y027550
Y027850
Y028150
Y028450
Y028750
X063320
Y029050
X063620
Y029350
X063920
X064220
X064520
X064820
Y029050
X065120
X065420
X065323Y029553
Y029947
X065717
Y029553
X066020Y030250
X066320
X066020Y030550
Y030850
X066320
Y031150
X066620
X066020
X065444Y030950
X063720Y030650
Y030350
X063420
Y030650
X063120
Y030350
X062820
Y030650
X062520
Y030350
Y029750
X063135Y029565
X063920Y029050
X064220
X064520
X063920Y028750
X063620
Y028450
X063920
Y028150
X063620
X063320
Y028450
Y027850
X063620
X063920
X063620Y027550
X063320
Y027250
X063620
X063920
Y026050
X063620
X066120Y026650
Y026950
X066420Y026650
X066720
Y027550
X066420
Y027850
X066720
Y028150
X066420
Y028450
X066720
X066120Y028750
X065720Y028457
X066070Y025250
X060777Y025550
X060462
X060400Y026157
X060757Y026500
X059320Y026450
X058370Y026400
X058070
Y026138
X057650Y026050
X056770Y026200
X056510
X056300Y026378
X056100Y026210
X056020Y024650
X055720
X055420
X055120
X054820
Y024350
X054520
Y024050
X054820
Y023750
X055120
Y024050
Y024350
X055420
X055720
Y024050
X056020
X056320
Y023750
X056020
X055720
X055420
Y024050
X056020Y024350
X056620Y023750
X056920
X057220
Y024050
X056920
X057570
Y023750
X058120
Y023450
X058420
X058720
X059020
Y023750
Y024050
X058720
X058420
X058120
Y024350
X057570
X057516Y023200
X057870
X057074
X056720
X055170Y023350
X053620
X053343Y023650
X053270Y025450
X054060Y025490
X054070Y028650
X054370Y028950
X054670
X054665Y028658
X055520Y028950
X055820Y029250
X055520Y029850
Y030100
Y030350
X056720Y030900
X056970
X057220
X057570Y030057
X058520Y030050
Y029750
X058450Y028829
X058370Y028400
X057870
X058870
X058920Y028750
X058980Y027790
X058670Y027800
X058370
X057020Y028750
X056070Y028350
X053420Y028820
Y029900
Y030800
X058920Y031050
X059670Y030450
X060820Y030800
X061620Y030650
Y030350
X061920
X062220
Y030050
X061920
X061620
X061320
Y030350
Y029750
X061920
X062220
X062420Y029350
X062220Y030650
X061920
X060820Y029627
X061372Y028844
X061405Y028306
X061020Y028327
X060520Y028465
Y028150
X061620Y027550
X061920
X062220
X060020Y025050
X059720
Y024750
X060020
Y024450
Y024150
X059720
Y023850
X060020
X059720Y024450
X059420Y024750
Y025050
X058720Y023750
X058420
X059420Y022100
X061320Y023000
Y023300
Y032150
X061070
X060820
X060570
X060320
Y032400
X060570
Y032650
Y032900
Y033150
Y033400
Y033650
X060320
Y033400
Y033150
Y032900
Y032650
X060820
Y032400
X061070
X061320
Y032650
Y032900
Y033150
Y033400
Y033650
X061070
X060820
Y033400
X061070
Y033150
Y032900
Y032650
X060820Y032900
Y033150
X061270Y034250
Y034500
Y034750
X061020
X060770
X060520
X060270
X059395Y035400
X058920Y035200
Y034950
X058720Y034500
Y034250
X058470
X058220
Y034500
X058470
X058522Y033105
X058620Y032350
X059220Y031750
X058997Y031350
X057693Y031873
X056620Y032150
X056370
X056120
X055870
X055620
Y032400
X055870
Y032650
Y032900
Y033150
Y033400
Y033650
X055620
Y033400
Y033150
Y032900
Y032650
X056120
Y032400
X056370
X056620
Y032650
Y032900
Y033150
Y033400
Y033650
X056370
X056120
Y033400
X056370
Y033150
Y032900
Y032650
X056120Y032900
Y033150
X056570Y034250
Y034500
Y034750
X056320
X056070
X055820
X055570
X054676Y035400
X054220Y035200
Y034950
X054020Y034500
Y034250
X053770
X053520
Y034500
X053770
X053822Y033105
X053670Y032350
X053662Y031450
X053977
X053020Y033350
X053347Y036200
X053420Y037550
X053170
Y037800
Y038050
Y038300
Y038550
Y038800
Y039050
X053420
Y038800
X053670
Y038550
Y038300
Y038050
X053420
Y037800
X053670
Y037550
X053920
Y037800
Y038050
Y038300
Y038550
Y038800
Y039050
X053670
X053420Y038550
Y038300
X054170Y040500
Y040800
X055457
Y040500
X057070Y039050
Y038800
X057320
X057570
Y038550
X057820
Y038800
X058070
X058320
X058570
Y038550
X058320
X058070
Y038300
X057820
X057570
X057320
Y038550
X057070
Y038300
Y038050
X057320
X057570
X057820
X058070
X058320
Y038300
X058570
Y038050
Y037800
X058320
X058070
X057820
X057570
X057320
X057070
Y037550
X057320
X057720Y037250
Y037000
Y036750
Y036500
X057970
Y036750
Y037000
Y037250
X058047Y036200
X058070Y039050
X057820
X057570
X057320
X058320
X058570
X058870Y040500
Y040800
X060157
Y040500
X061770Y039050
Y038800
X062020
X062270
Y038550
X062020
X061770
Y038300
X062020
X062270
Y038050
X062020
X061770
Y037800
Y037550
X062020
Y037800
X062270
Y037550
Y037300
X062420Y036750
Y036500
X062270Y039050
X062020
X062220Y031850
X063377Y031450
X063320Y032350
X065020Y032400
Y032650
X065270
X065520
Y032900
Y033150
X065270
Y032900
X065020
Y033150
Y033400
X065270
X065520
X065770
Y033150
Y032900
Y032650
Y032400
X065520
Y032150
X065770
X066020
Y032400
Y032650
Y032900
Y033150
Y033400
Y033650
X065770
X065520
X065270
X065020
X064970Y034750
X065220
X065470
X065720
X065970
Y034500
Y034250
X065270Y032400
Y032150
X065020
X063420Y034250
X063170
X062920
Y034500
X063170
X063420
X063620Y034950
Y035200
X064096Y035400
X062747Y036200
X062670Y036500
Y036750
X062770Y037300
Y037550
X063020
X063270
Y037800
Y038050
Y038300
Y038550
Y038800
X063020
X062770
X062520
Y038550
Y038300
X062770
Y038550
X063020
Y038300
Y038050
X062770
X062520
Y037800
X062770
X063020
Y037300
X063270
X062520
Y037550
Y039050
X062770
X063020
X063270
X063570Y040500
Y040800
X064857
Y040500
X066370Y039050
X066620
X066870
Y038800
X066620
Y038550
X066870
Y038300
X066620
Y038050
Y037800
X066870
Y037550
X066620
X066370
Y037800
Y038050
Y038300
Y038550
Y038800
X066870Y038050
T02
X063206Y022200
X063994
X063699Y024400
X064481
X065269
X066056
X062909
X062119
X061332
X060544
X060506Y022200
X061294
X058284
X057494
X056706
X055919
T03
X053120Y036800
Y039753
T04
X054123Y027197
T05
X066020Y022200
X053870
X057870Y040300
X062570
M30
