G04 Layer_Color=32896*
%FSAX24Y24*%
%MOIN*%
G70*
G01*
G75*
%ADD26C,0.0100*%
%ADD45C,0.0098*%
%ADD47C,0.0080*%
%ADD48C,0.0079*%
%ADD80C,0.0157*%
D26*
X066967Y020233D02*
X066900Y020300D01*
Y020433D01*
X066967Y020500D01*
X067233D01*
X067300Y020433D01*
Y020300D01*
X067233Y020233D01*
X067300Y020100D02*
Y019967D01*
Y020033D01*
X066900D01*
X066967Y020100D01*
X066267Y020333D02*
X066200Y020400D01*
Y020533D01*
X066267Y020600D01*
X066533D01*
X066600Y020533D01*
Y020400D01*
X066533Y020333D01*
X066600Y019934D02*
Y020200D01*
X066333Y019934D01*
X066267D01*
X066200Y020000D01*
Y020133D01*
X066267Y020200D01*
X065567Y020333D02*
X065500Y020400D01*
Y020533D01*
X065567Y020600D01*
X065833D01*
X065900Y020533D01*
Y020400D01*
X065833Y020333D01*
X065567Y020200D02*
X065500Y020133D01*
Y020000D01*
X065567Y019934D01*
X065633D01*
X065700Y020000D01*
Y020067D01*
Y020000D01*
X065767Y019934D01*
X065833D01*
X065900Y020000D01*
Y020133D01*
X065833Y020200D01*
X064867Y020333D02*
X064800Y020400D01*
Y020533D01*
X064867Y020600D01*
X065133D01*
X065200Y020533D01*
Y020400D01*
X065133Y020333D01*
X065200Y020000D02*
X064800D01*
X065000Y020200D01*
Y019934D01*
X064167Y020333D02*
X064100Y020400D01*
Y020533D01*
X064167Y020600D01*
X064433D01*
X064500Y020533D01*
Y020400D01*
X064433Y020333D01*
X064100Y019934D02*
Y020200D01*
X064300D01*
X064233Y020067D01*
Y020000D01*
X064300Y019934D01*
X064433D01*
X064500Y020000D01*
Y020133D01*
X064433Y020200D01*
X059567Y019433D02*
X059500Y019500D01*
Y019633D01*
X059567Y019700D01*
X059833D01*
X059900Y019633D01*
Y019500D01*
X059833Y019433D01*
X059500Y019034D02*
X059567Y019167D01*
X059700Y019300D01*
X059833D01*
X059900Y019233D01*
Y019100D01*
X059833Y019034D01*
X059767D01*
X059700Y019100D01*
Y019300D01*
X057033Y040583D02*
X057100Y040650D01*
X057233D01*
X057300Y040583D01*
Y040317D01*
X057233Y040250D01*
X057100D01*
X057033Y040317D01*
X056900Y040650D02*
X056634D01*
Y040583D01*
X056900Y040317D01*
Y040250D01*
X063083Y040583D02*
X063150Y040650D01*
X063283D01*
X063350Y040583D01*
Y040317D01*
X063283Y040250D01*
X063150D01*
X063083Y040317D01*
X062950Y040583D02*
X062883Y040650D01*
X062750D01*
X062684Y040583D01*
Y040517D01*
X062750Y040450D01*
X062684Y040383D01*
Y040317D01*
X062750Y040250D01*
X062883D01*
X062950Y040317D01*
Y040383D01*
X062883Y040450D01*
X062950Y040517D01*
Y040583D01*
X062883Y040450D02*
X062750D01*
X060567Y039733D02*
X060500Y039800D01*
Y039933D01*
X060567Y040000D01*
X060833D01*
X060900Y039933D01*
Y039800D01*
X060833Y039733D01*
Y039600D02*
X060900Y039533D01*
Y039400D01*
X060833Y039334D01*
X060567D01*
X060500Y039400D01*
Y039533D01*
X060567Y039600D01*
X060633D01*
X060700Y039533D01*
Y039334D01*
X059167Y040033D02*
X059100Y040100D01*
Y040233D01*
X059167Y040300D01*
X059433D01*
X059500Y040233D01*
Y040100D01*
X059433Y040033D01*
X059500Y039900D02*
Y039767D01*
Y039833D01*
X059100D01*
X059167Y039900D01*
Y039567D02*
X059100Y039500D01*
Y039367D01*
X059167Y039300D01*
X059433D01*
X059500Y039367D01*
Y039500D01*
X059433Y039567D01*
X059167D01*
X056617Y030583D02*
X056550Y030650D01*
Y030783D01*
X056617Y030850D01*
X056883D01*
X056950Y030783D01*
Y030650D01*
X056883Y030583D01*
X056950Y030450D02*
Y030317D01*
Y030383D01*
X056550D01*
X056617Y030450D01*
X056950Y030117D02*
Y029984D01*
Y030050D01*
X056550D01*
X056617Y030117D01*
X054867Y028233D02*
X054800Y028300D01*
Y028433D01*
X054867Y028500D01*
X055133D01*
X055200Y028433D01*
Y028300D01*
X055133Y028233D01*
X055200Y028100D02*
Y027967D01*
Y028033D01*
X054800D01*
X054867Y028100D01*
X055200Y027500D02*
Y027767D01*
X054933Y027500D01*
X054867D01*
X054800Y027567D01*
Y027700D01*
X054867Y027767D01*
X060433Y026833D02*
X060500Y026900D01*
X060633D01*
X060700Y026833D01*
Y026567D01*
X060633Y026500D01*
X060500D01*
X060433Y026567D01*
X060300Y026500D02*
X060167D01*
X060233D01*
Y026900D01*
X060300Y026833D01*
X059767Y026500D02*
Y026900D01*
X059967Y026700D01*
X059700D01*
X057983Y030333D02*
X058050Y030400D01*
X058183D01*
X058250Y030333D01*
Y030067D01*
X058183Y030000D01*
X058050D01*
X057983Y030067D01*
X057850Y030000D02*
X057717D01*
X057783D01*
Y030400D01*
X057850Y030333D01*
X057250Y030400D02*
X057517D01*
Y030200D01*
X057384Y030267D01*
X057317D01*
X057250Y030200D01*
Y030067D01*
X057317Y030000D01*
X057450D01*
X057517Y030067D01*
X062783Y030483D02*
X062850Y030550D01*
X062983D01*
X063050Y030483D01*
Y030217D01*
X062983Y030150D01*
X062850D01*
X062783Y030217D01*
X062650Y030150D02*
X062517D01*
X062583D01*
Y030550D01*
X062650Y030483D01*
X062317D02*
X062250Y030550D01*
X062117D01*
X062050Y030483D01*
Y030417D01*
X062117Y030350D01*
X062050Y030283D01*
Y030217D01*
X062117Y030150D01*
X062250D01*
X062317Y030217D01*
Y030283D01*
X062250Y030350D01*
X062317Y030417D01*
Y030483D01*
X062250Y030350D02*
X062117D01*
X064183Y027933D02*
X064250Y028000D01*
X064383D01*
X064450Y027933D01*
Y027667D01*
X064383Y027600D01*
X064250D01*
X064183Y027667D01*
X064050Y027600D02*
X063917D01*
X063983D01*
Y028000D01*
X064050Y027933D01*
X063717Y027667D02*
X063650Y027600D01*
X063517D01*
X063450Y027667D01*
Y027933D01*
X063517Y028000D01*
X063650D01*
X063717Y027933D01*
Y027867D01*
X063650Y027800D01*
X063450D01*
X065333Y027933D02*
X065400Y028000D01*
X065533D01*
X065600Y027933D01*
Y027667D01*
X065533Y027600D01*
X065400D01*
X065333Y027667D01*
X064934Y027600D02*
X065200D01*
X064934Y027867D01*
Y027933D01*
X065000Y028000D01*
X065133D01*
X065200Y027933D01*
X064800Y027600D02*
X064667D01*
X064734D01*
Y028000D01*
X064800Y027933D01*
X066333Y023833D02*
X066400Y023900D01*
X066533D01*
X066600Y023833D01*
Y023567D01*
X066533Y023500D01*
X066400D01*
X066333Y023567D01*
X065934Y023500D02*
X066200D01*
X065934Y023767D01*
Y023833D01*
X066000Y023900D01*
X066133D01*
X066200Y023833D01*
X065534Y023900D02*
X065800D01*
Y023700D01*
X065667Y023767D01*
X065600D01*
X065534Y023700D01*
Y023567D01*
X065600Y023500D01*
X065734D01*
X065800Y023567D01*
X065033Y023833D02*
X065100Y023900D01*
X065233D01*
X065300Y023833D01*
Y023567D01*
X065233Y023500D01*
X065100D01*
X065033Y023567D01*
X064634Y023500D02*
X064900D01*
X064634Y023767D01*
Y023833D01*
X064700Y023900D01*
X064833D01*
X064900Y023833D01*
X064234Y023900D02*
X064367Y023833D01*
X064500Y023700D01*
Y023567D01*
X064434Y023500D01*
X064300D01*
X064234Y023567D01*
Y023633D01*
X064300Y023700D01*
X064500D01*
X063733Y023833D02*
X063800Y023900D01*
X063933D01*
X064000Y023833D01*
Y023567D01*
X063933Y023500D01*
X063800D01*
X063733Y023567D01*
X063334Y023500D02*
X063600D01*
X063334Y023767D01*
Y023833D01*
X063400Y023900D01*
X063533D01*
X063600Y023833D01*
X063200Y023900D02*
X062934D01*
Y023833D01*
X063200Y023567D01*
Y023500D01*
X062433Y023833D02*
X062500Y023900D01*
X062633D01*
X062700Y023833D01*
Y023567D01*
X062633Y023500D01*
X062500D01*
X062433Y023567D01*
X062034Y023500D02*
X062300D01*
X062034Y023767D01*
Y023833D01*
X062100Y023900D01*
X062233D01*
X062300Y023833D01*
X061900D02*
X061834Y023900D01*
X061700D01*
X061634Y023833D01*
Y023767D01*
X061700Y023700D01*
X061634Y023633D01*
Y023567D01*
X061700Y023500D01*
X061834D01*
X061900Y023567D01*
Y023633D01*
X061834Y023700D01*
X061900Y023767D01*
Y023833D01*
X061834Y023700D02*
X061700D01*
X061133Y023833D02*
X061200Y023900D01*
X061333D01*
X061400Y023833D01*
Y023567D01*
X061333Y023500D01*
X061200D01*
X061133Y023567D01*
X060734Y023500D02*
X061000D01*
X060734Y023767D01*
Y023833D01*
X060800Y023900D01*
X060933D01*
X061000Y023833D01*
X060600Y023567D02*
X060534Y023500D01*
X060400D01*
X060334Y023567D01*
Y023833D01*
X060400Y023900D01*
X060534D01*
X060600Y023833D01*
Y023767D01*
X060534Y023700D01*
X060334D01*
X059833Y023833D02*
X059900Y023900D01*
X060033D01*
X060100Y023833D01*
Y023567D01*
X060033Y023500D01*
X059900D01*
X059833Y023567D01*
X059700Y023833D02*
X059633Y023900D01*
X059500D01*
X059434Y023833D01*
Y023767D01*
X059500Y023700D01*
X059567D01*
X059500D01*
X059434Y023633D01*
Y023567D01*
X059500Y023500D01*
X059633D01*
X059700Y023567D01*
X059300Y023833D02*
X059234Y023900D01*
X059100D01*
X059034Y023833D01*
Y023567D01*
X059100Y023500D01*
X059234D01*
X059300Y023567D01*
Y023833D01*
X055500Y027300D02*
Y026900D01*
X055300D01*
X055233Y026967D01*
Y027233D01*
X055300Y027300D01*
X055500D01*
X054834D02*
X054967Y027233D01*
X055100Y027100D01*
Y026967D01*
X055033Y026900D01*
X054900D01*
X054834Y026967D01*
Y027033D01*
X054900Y027100D01*
X055100D01*
X052300Y036300D02*
X051900D01*
X051800Y036400D01*
Y036600D01*
X051900Y036700D01*
X052300D01*
X052400Y036600D01*
Y036400D01*
X052200Y036500D02*
X052400Y036300D01*
Y036400D02*
X052300Y036300D01*
X052400Y035800D02*
X051800D01*
X052100Y036100D01*
Y035700D01*
X057800Y036300D02*
X057400D01*
X057300Y036400D01*
Y036600D01*
X057400Y036700D01*
X057800D01*
X057900Y036600D01*
Y036400D01*
X057700Y036500D02*
X057900Y036300D01*
Y036400D02*
X057800Y036300D01*
X057300Y035700D02*
Y036100D01*
X057600D01*
X057500Y035900D01*
Y035800D01*
X057600Y035700D01*
X057800D01*
X057900Y035800D01*
Y036000D01*
X057800Y036100D01*
X063300Y036300D02*
X062900D01*
X062800Y036400D01*
Y036600D01*
X062900Y036700D01*
X063300D01*
X063400Y036600D01*
Y036400D01*
X063200Y036500D02*
X063400Y036300D01*
Y036400D02*
X063300Y036300D01*
X062800Y035700D02*
X062900Y035900D01*
X063100Y036100D01*
X063300D01*
X063400Y036000D01*
Y035800D01*
X063300Y035700D01*
X063200D01*
X063100Y035800D01*
Y036100D01*
X052400Y020500D02*
X052000D01*
Y020300D01*
X052067Y020233D01*
X052200D01*
X052267Y020300D01*
Y020500D01*
Y020367D02*
X052400Y020233D01*
Y020100D02*
Y019967D01*
Y020033D01*
X052000D01*
X052067Y020100D01*
X052400Y019400D02*
X052000D01*
Y019200D01*
X052067Y019133D01*
X052200D01*
X052267Y019200D01*
Y019400D01*
Y019267D02*
X052400Y019133D01*
Y018734D02*
Y019000D01*
X052133Y018734D01*
X052067D01*
X052000Y018800D01*
Y018933D01*
X052067Y019000D01*
X052400Y018300D02*
X052000D01*
Y018100D01*
X052067Y018033D01*
X052200D01*
X052267Y018100D01*
Y018300D01*
Y018167D02*
X052400Y018033D01*
X052067Y017900D02*
X052000Y017833D01*
Y017700D01*
X052067Y017634D01*
X052133D01*
X052200Y017700D01*
Y017767D01*
Y017700D01*
X052267Y017634D01*
X052333D01*
X052400Y017700D01*
Y017833D01*
X052333Y017900D01*
X052400Y017200D02*
X052000D01*
Y017000D01*
X052067Y016933D01*
X052200D01*
X052267Y017000D01*
Y017200D01*
Y017067D02*
X052400Y016933D01*
Y016600D02*
X052000D01*
X052200Y016800D01*
Y016534D01*
X058400Y019700D02*
X058000D01*
Y019500D01*
X058067Y019433D01*
X058200D01*
X058267Y019500D01*
Y019700D01*
Y019567D02*
X058400Y019433D01*
X058000Y019034D02*
Y019300D01*
X058200D01*
X058133Y019167D01*
Y019100D01*
X058200Y019034D01*
X058333D01*
X058400Y019100D01*
Y019233D01*
X058333Y019300D01*
X059200Y019700D02*
X058800D01*
Y019500D01*
X058867Y019433D01*
X059000D01*
X059067Y019500D01*
Y019700D01*
Y019567D02*
X059200Y019433D01*
X058800Y019034D02*
X058867Y019167D01*
X059000Y019300D01*
X059133D01*
X059200Y019233D01*
Y019100D01*
X059133Y019034D01*
X059067D01*
X059000Y019100D01*
Y019300D01*
X055900Y040250D02*
Y040650D01*
X055700D01*
X055633Y040583D01*
Y040450D01*
X055700Y040383D01*
X055900D01*
X055767D02*
X055633Y040250D01*
X055500D02*
X055367D01*
X055433D01*
Y040650D01*
X055500Y040583D01*
X055167Y040250D02*
X055034D01*
X055100D01*
Y040650D01*
X055167Y040583D01*
X066850Y040250D02*
Y040650D01*
X066650D01*
X066583Y040583D01*
Y040450D01*
X066650Y040383D01*
X066850D01*
X066717D02*
X066583Y040250D01*
X066450D02*
X066317D01*
X066383D01*
Y040650D01*
X066450Y040583D01*
X065850Y040250D02*
X066117D01*
X065850Y040517D01*
Y040583D01*
X065917Y040650D01*
X066050D01*
X066117Y040583D01*
X058100Y031800D02*
X057700D01*
Y031600D01*
X057767Y031533D01*
X057900D01*
X057967Y031600D01*
Y031800D01*
Y031667D02*
X058100Y031533D01*
Y031400D02*
Y031267D01*
Y031333D01*
X057700D01*
X057767Y031400D01*
Y031067D02*
X057700Y031000D01*
Y030867D01*
X057767Y030800D01*
X057833D01*
X057900Y030867D01*
Y030934D01*
Y030867D01*
X057967Y030800D01*
X058033D01*
X058100Y030867D01*
Y031000D01*
X058033Y031067D01*
X063600Y031800D02*
X063200D01*
Y031600D01*
X063267Y031533D01*
X063400D01*
X063467Y031600D01*
Y031800D01*
Y031667D02*
X063600Y031533D01*
Y031400D02*
Y031267D01*
Y031333D01*
X063200D01*
X063267Y031400D01*
X063600Y030867D02*
X063200D01*
X063400Y031067D01*
Y030800D01*
X068200Y030100D02*
X067800D01*
Y029900D01*
X067867Y029833D01*
X068000D01*
X068067Y029900D01*
Y030100D01*
Y029967D02*
X068200Y029833D01*
Y029700D02*
Y029567D01*
Y029633D01*
X067800D01*
X067867Y029700D01*
X067800Y029100D02*
Y029367D01*
X068000D01*
X067933Y029234D01*
Y029167D01*
X068000Y029100D01*
X068133D01*
X068200Y029167D01*
Y029300D01*
X068133Y029367D01*
X055800Y024500D02*
X056300D01*
X056400Y024400D01*
Y024200D01*
X056300Y024100D01*
X055800D01*
X056400Y023600D02*
X055800D01*
X056100Y023900D01*
Y023500D01*
X058700Y037900D02*
Y037400D01*
X058600Y037300D01*
X058400D01*
X058300Y037400D01*
Y037900D01*
X057700D02*
X058100D01*
Y037600D01*
X057900Y037700D01*
X057800D01*
X057700Y037600D01*
Y037400D01*
X057800Y037300D01*
X058000D01*
X058100Y037400D01*
X063500Y037900D02*
Y037400D01*
X063400Y037300D01*
X063200D01*
X063100Y037400D01*
Y037900D01*
X062500D02*
X062700Y037800D01*
X062900Y037600D01*
Y037400D01*
X062800Y037300D01*
X062600D01*
X062500Y037400D01*
Y037500D01*
X062600Y037600D01*
X062900D01*
D45*
X056672Y031039D02*
G03*
X056672Y031039I-000049J000000D01*
G01*
X055930Y026601D02*
G03*
X055930Y026601I-000049J000000D01*
G01*
X063296Y039489D02*
G03*
X063296Y039489I-000049J000000D01*
G01*
X056803Y038111D02*
G03*
X056803Y038111I-000049J000000D01*
G01*
X067672Y031039D02*
G03*
X067672Y031039I-000049J000000D01*
G01*
X062172D02*
G03*
X062172Y031039I-000049J000000D01*
G01*
D47*
X063550Y016350D02*
X063750D01*
Y016050D01*
X063550D01*
X063750Y016200D02*
X063650D01*
X063250Y016300D02*
X063300Y016350D01*
X063400D01*
X063450Y016300D01*
Y016250D01*
X063400Y016200D01*
X063300D01*
X063250Y016150D01*
Y016100D01*
X063300Y016050D01*
X063400D01*
X063450Y016100D01*
X062950Y016300D02*
X063000Y016350D01*
X063100D01*
X063150Y016300D01*
Y016100D01*
X063100Y016050D01*
X063000D01*
X062950Y016100D01*
X062550Y016250D02*
X062450Y016050D01*
X062350Y016250D01*
X062051Y016050D02*
X062250D01*
X062051Y016250D01*
Y016300D01*
X062101Y016350D01*
X062200D01*
X062250Y016300D01*
X061951Y016050D02*
Y016100D01*
X061901D01*
Y016050D01*
X061951D01*
X061701Y016300D02*
X061651Y016350D01*
X061551D01*
X061501Y016300D01*
Y016100D01*
X061551Y016050D01*
X061651D01*
X061701Y016100D01*
Y016300D01*
X061101Y016200D02*
X060901D01*
X060501Y016050D02*
Y016350D01*
X060351D01*
X060301Y016300D01*
Y016200D01*
X060351Y016150D01*
X060501D01*
X060401D02*
X060301Y016050D01*
X060151Y016250D02*
X060051D01*
X060001Y016200D01*
Y016050D01*
X060151D01*
X060201Y016100D01*
X060151Y016150D01*
X060001D01*
X059901Y015950D02*
Y016250D01*
X059751D01*
X059701Y016200D01*
Y016100D01*
X059751Y016050D01*
X059901D01*
X059601Y016350D02*
Y016050D01*
Y016200D01*
X059551Y016250D01*
X059451D01*
X059401Y016200D01*
Y016050D01*
X059251Y016250D02*
X059151D01*
X059102Y016200D01*
Y016050D01*
X059251D01*
X059301Y016100D01*
X059251Y016150D01*
X059102D01*
X058852Y016050D02*
X058952D01*
X059002Y016100D01*
Y016200D01*
X058952Y016250D01*
X058852D01*
X058802Y016200D01*
Y016150D01*
X059002D01*
X058702Y016050D02*
X058602D01*
X058652D01*
Y016350D01*
X058702D01*
X057952Y016300D02*
X058002Y016350D01*
X058102D01*
X058152Y016300D01*
Y016100D01*
X058102Y016050D01*
X058002D01*
X057952Y016100D01*
X057852Y016350D02*
Y016050D01*
Y016200D01*
X057802Y016250D01*
X057702D01*
X057652Y016200D01*
Y016050D01*
X057502Y016250D02*
X057402D01*
X057352Y016200D01*
Y016050D01*
X057502D01*
X057552Y016100D01*
X057502Y016150D01*
X057352D01*
X057252Y016050D02*
Y016250D01*
X057102D01*
X057052Y016200D01*
Y016050D01*
X056852Y015950D02*
X056802D01*
X056752Y016000D01*
Y016250D01*
X056902D01*
X056952Y016200D01*
Y016100D01*
X056902Y016050D01*
X056752D01*
D48*
X052633Y032063D02*
Y033165D01*
Y032063D02*
X056767D01*
Y033165D01*
X052850Y040048D02*
X054400D01*
X052850Y036950D02*
Y040050D01*
Y036950D02*
X055950D01*
Y040050D01*
X054400Y040048D02*
X055950D01*
X063850D02*
X065400D01*
X063850Y036950D02*
Y040050D01*
Y036950D02*
X066950D01*
Y040050D01*
X065400Y040048D02*
X066950D01*
X058980Y026857D02*
X059020D01*
X058980Y026543D02*
X059020D01*
X065765Y024683D02*
Y025117D01*
X066435Y024683D02*
Y025117D01*
X064465Y024683D02*
Y025117D01*
X065135Y024683D02*
Y025117D01*
X063165Y024683D02*
Y025117D01*
X063835Y024683D02*
Y025117D01*
X061865Y024683D02*
Y025117D01*
X062535Y024683D02*
Y025117D01*
X060565Y024683D02*
Y025117D01*
X061235Y024683D02*
Y025117D01*
X059265Y024683D02*
Y025117D01*
X059935Y024683D02*
Y025117D01*
X054290Y026696D02*
X055510D01*
X055333Y023586D02*
X055510Y023763D01*
X054290D02*
X054467Y023586D01*
X055333D01*
X055510Y025672D02*
Y026696D01*
X054290Y025672D02*
Y026696D01*
Y023763D02*
Y024728D01*
X055510Y023763D02*
Y024728D01*
X065235Y028854D02*
Y029287D01*
X064565Y028854D02*
Y029287D01*
X063935Y028854D02*
Y029287D01*
X063265Y028854D02*
Y029287D01*
X062635Y028854D02*
Y029287D01*
X061965Y028854D02*
Y029287D01*
X055881Y025991D02*
X058519D01*
X055881Y024809D02*
X058519D01*
X055881D02*
Y025991D01*
X058519Y024809D02*
Y025991D01*
X057365Y028683D02*
Y029117D01*
X058035Y028683D02*
Y029117D01*
X055983Y028492D02*
X056417D01*
X055983Y027508D02*
X056417D01*
X055983Y029792D02*
X056417D01*
X055983Y028808D02*
X056417D01*
X067257Y019180D02*
Y019220D01*
X066943Y019180D02*
Y019220D01*
X066557Y019180D02*
Y019220D01*
X066243Y019180D02*
Y019220D01*
X065857Y019180D02*
Y019220D01*
X065543Y019180D02*
Y019220D01*
X065157Y019180D02*
Y019220D01*
X064843Y019180D02*
Y019220D01*
X064457Y019180D02*
Y019220D01*
X064143Y019180D02*
Y019220D01*
X059562Y018280D02*
Y018320D01*
X059838Y018280D02*
Y018320D01*
X058843Y018280D02*
Y018320D01*
X059157Y018280D02*
Y018320D01*
X058043Y018280D02*
Y018320D01*
X058357Y018280D02*
Y018320D01*
X053080Y016743D02*
X053120D01*
X053080Y017057D02*
X053120D01*
X053080Y017843D02*
X053120D01*
X053080Y018157D02*
X053120D01*
X053080Y018943D02*
X053120D01*
X053080Y019257D02*
X053120D01*
X053080Y020043D02*
X053120D01*
X053080Y020357D02*
X053120D01*
X062957Y031280D02*
Y031320D01*
X062643Y031280D02*
Y031320D01*
X057457Y031280D02*
Y031320D01*
X057143Y031280D02*
Y031320D01*
X068157Y030780D02*
Y030820D01*
X067843Y030780D02*
Y030820D01*
X062980Y039762D02*
X063020D01*
X062980Y040038D02*
X063020D01*
X060838Y038680D02*
Y038720D01*
X060562Y038680D02*
Y038720D01*
X059438Y038680D02*
Y038720D01*
X059162Y038680D02*
Y038720D01*
X056980Y040038D02*
X057020D01*
X056980Y039762D02*
X057020D01*
X062026Y038190D02*
X062774D01*
X062026Y039410D02*
X062774D01*
X062026Y038190D02*
Y039410D01*
X062774Y038190D02*
Y039410D01*
X057226D02*
X057974D01*
X057226Y038190D02*
X057974D01*
Y039410D01*
X057226Y038190D02*
Y039410D01*
X063633Y032063D02*
Y033165D01*
Y032063D02*
X067767D01*
Y033165D01*
X058133Y032063D02*
Y033165D01*
Y032063D02*
X062267D01*
Y033165D01*
D80*
X062538Y039095D02*
G03*
X062538Y039095I-000079J000000D01*
G01*
X057620Y038505D02*
G03*
X057620Y038505I-000079J000000D01*
G01*
M02*
