M48
;Layer_Color=9474304
;FILE_FORMAT=2:4
INCH
;TYPE=PLATED
T1F00S00C0.0100
T2F00S00C0.0240
T3F00S00C0.0280
T4F00S00C0.0315
T5F00S00C0.0380
T6F00S00C0.2010
%
T01
X062618Y026173
Y026409
Y026646
Y026882
Y027118
Y027354
Y027591
Y027827
X062854
X063091
X063327
Y027591
Y027354
X063091
Y027591
X062854
Y027354
Y027118
X063091
Y026882
X062854
Y026646
X063091
Y026409
X062854
Y026173
X063091
X063327
Y026409
Y026646
Y026882
Y027118
X062382
Y026882
X062146
Y027118
X061909
Y026882
X061673
Y027118
Y027354
Y027591
Y027827
X061909
X062146
X062382
Y027591
Y027354
X062146
Y027591
X061909
Y027354
Y026646
X062146
Y026409
X061909
X061673
Y026646
Y026173
X061909
X062146
X062382
Y026409
Y026646
T02
X065500Y025050
X065628Y026422
X066450Y026100
X065700Y027750
X065350Y029100
X065550Y029850
X063700Y030950
X063050Y031150
X062300Y030500
X061700Y029300
X059900Y027200
X059400
X058900
X058494Y027445
X058100Y027700
X057300
Y028300
X056600Y027700
X057834Y025850
X058817Y025583
X059300Y026600
X060800Y024800
X058200Y024000
X057700Y031200
X053200Y020850
X053691Y020200
Y019100
Y018000
Y016900
X054250Y016561
X051900Y016350
X052050Y039800
X052529Y039371
T03
X064200Y018700
X063100Y021200
X065300Y022400
X065450Y024270
X066850Y021150
X068100Y028450
X064550Y029050
X063850Y029700
X061356Y029923
X060100Y030000
Y029300
Y028600
X058000Y026800
X055700Y027000
X055550Y028450
X053800Y028400
Y029000
Y029600
X053100
Y029000
Y028400
X054000Y025200
X055000Y023900
X052350Y024200
X052400Y021150
X055612Y020600
X056900
X056500Y021200
X057300Y019800
X056000Y019500
X055400
X055950Y018400
X055400Y017600
X059500Y019800
X059200Y021200
X058276Y022459
X058800Y024300
X060600Y022200
X061200Y019100
X057900Y030500
X057100Y030400
X056165Y029854
X055400Y037500
X054700
X054000
X053300
X052400Y038250
X052450Y038850
X053300Y039500
X054000
X054700
X055400
X057650Y038800
X058050Y039900
X058900Y037500
X059600
X060300
X061000
X061719Y039900
X062450Y039900
X064400Y039500
X065100
X065800
X066500
Y037500
X065800
X065100
X064400
T04
X067200Y024738
Y025525
Y026307
Y027097
Y027887
Y028675
Y029462
X053200Y025080
Y024290
Y023500
Y022713
Y021925
T05
X062800Y017000
X063800
X064800
X065800
X066800
X067800
X066800Y018000
X064800
X063800
X062800
Y023000
X063800
X064800
X065800
X066800
X067800
X061800
X060800
X059800
X058800
X057800
X056800
X055800
X054800
Y022000
Y021000
Y020000
Y019000
Y018000
Y017000
X055800
X056800
X057800
X058800
X059800
X060800
X061800
T06
X052800Y015000
X067600
M30
