G04 Layer_Color=128*
%FSAX44Y44*%
%MOMM*%
G71*
G01*
G75*
%ADD14R,0.9000X1.0000*%
%ADD22R,1.0000X0.9000*%
%ADD23R,1.9000X1.3500*%
%ADD28R,1.0500X4.1500*%
%ADD29R,10.6000X8.8000*%
%ADD37R,7.3800X2.4400*%
D14*
X00928000Y00920000D02*
D03*
X00912000D02*
D03*
X00778000Y00920000D02*
D03*
X00762000D02*
D03*
X00778000Y00955000D02*
D03*
X00762000D02*
D03*
X00928000D02*
D03*
X00912000D02*
D03*
X00762000Y00995000D02*
D03*
X00778000D02*
D03*
X00912000D02*
D03*
X00928000D02*
D03*
D22*
X00935000Y00563000D02*
D03*
Y00547000D02*
D03*
X00955000Y00563000D02*
D03*
Y00547000D02*
D03*
X00975000Y00563000D02*
D03*
Y00547000D02*
D03*
X00995000Y00563000D02*
D03*
Y00547000D02*
D03*
X01015000Y00563000D02*
D03*
Y00547000D02*
D03*
X01060000Y00998000D02*
D03*
Y00982000D02*
D03*
D23*
X00845000Y00736000D02*
D03*
Y00704000D02*
D03*
X00875000Y00736000D02*
D03*
Y00704000D02*
D03*
X00905000Y00736000D02*
D03*
Y00704000D02*
D03*
X00935000Y00736000D02*
D03*
Y00704000D02*
D03*
X00965000Y00736000D02*
D03*
Y00704000D02*
D03*
X00995000Y00736000D02*
D03*
Y00704000D02*
D03*
D28*
X00733100Y00982500D02*
D03*
X00720400D02*
D03*
X00707700D02*
D03*
X00682300D02*
D03*
X00669600D02*
D03*
X00656900D02*
D03*
X00883100D02*
D03*
X00870400D02*
D03*
X00857700D02*
D03*
X00832300D02*
D03*
X00819600D02*
D03*
X00806900D02*
D03*
X01033100D02*
D03*
X01020400D02*
D03*
X01007700D02*
D03*
X00982300D02*
D03*
X00969600D02*
D03*
X00956900D02*
D03*
D29*
X00695000Y01084500D02*
D03*
X00845000D02*
D03*
X00995000D02*
D03*
D37*
X00840000Y00895200D02*
D03*
Y00944800D02*
D03*
X00690000Y00895200D02*
D03*
Y00944800D02*
D03*
M02*
