G04 Layer_Color=8421504*
%FSAX25Y25*%
%MOIN*%
G70*
G01*
G75*
%ADD10R,0.01181X0.03150*%
%ADD11R,0.13307X0.09646*%
%ADD12R,0.02756X0.03543*%
%ADD13R,0.13780X0.12300*%
%ADD14R,0.06693X0.04331*%
%ADD15R,0.05118X0.02756*%
%ADD16R,0.03347X0.04331*%
%ADD17R,0.04331X0.06693*%
%ADD18R,0.04331X0.03347*%
%ADD19R,0.02756X0.05118*%
%ADD20R,0.07500X0.07500*%
%ADD21R,0.07500X0.07100*%
%ADD22R,0.05600X0.01400*%
%ADD23R,0.03543X0.03937*%
G04:AMPARAMS|DCode=24|XSize=82.68mil|YSize=228.35mil|CornerRadius=41.34mil|HoleSize=0mil|Usage=FLASHONLY|Rotation=270.000|XOffset=0mil|YOffset=0mil|HoleType=Round|Shape=RoundedRectangle|*
%AMROUNDEDRECTD24*
21,1,0.08268,0.14567,0,0,270.0*
21,1,0.00000,0.22835,0,0,270.0*
1,1,0.08268,-0.07284,0.00000*
1,1,0.08268,-0.07284,0.00000*
1,1,0.08268,0.07284,0.00000*
1,1,0.08268,0.07284,0.00000*
%
%ADD24ROUNDEDRECTD24*%
%ADD25R,0.02165X0.02559*%
%ADD26R,0.06811X0.07284*%
%ADD27O,0.06102X0.01772*%
%ADD28R,0.03150X0.08189*%
%ADD29R,0.02756X0.01181*%
%ADD30R,0.05315X0.20866*%
%ADD31R,0.03740X0.10236*%
%ADD32R,0.10236X0.03740*%
%ADD33R,0.03937X0.03543*%
%ADD34R,0.02047X0.02047*%
%ADD35R,0.02165X0.01772*%
%ADD36R,0.01772X0.02165*%
%ADD37R,0.02047X0.02047*%
%ADD38R,0.02756X0.03150*%
G36*
X0565617Y0240626D02*
X0565617Y0240626D01*
X0565617Y0240238D01*
X0565465Y0239477D01*
X0565168Y0238761D01*
X0564737Y0238116D01*
X0564189Y0237568D01*
X0563544Y0237137D01*
X0562828Y0236840D01*
X0562067Y0236689D01*
X0561679D01*
X0546719Y0236689D01*
X0546719Y0236689D01*
X0546331Y0236689D01*
X0545571Y0236840D01*
X0544854Y0237137D01*
X0544209Y0237568D01*
X0543661Y0238116D01*
X0543230Y0238761D01*
X0542933Y0239478D01*
X0542782Y0240238D01*
X0542782Y0240626D01*
X0542781Y0244957D01*
X0565616D01*
X0565617Y0240626D01*
D02*
G37*
G36*
X0561680Y0260311D02*
X0562067Y0260311D01*
X0562828Y0260159D01*
X0563544Y0259863D01*
X0564189Y0259432D01*
X0564737Y0258884D01*
X0565168Y0258239D01*
X0565465Y0257522D01*
X0565616Y0256762D01*
Y0256374D01*
X0565616Y0256374D01*
X0565616Y0252043D01*
X0542782D01*
X0542782Y0256374D01*
X0542782Y0256762D01*
X0542933Y0257522D01*
X0543230Y0258239D01*
X0543661Y0258884D01*
X0544209Y0259432D01*
X0544854Y0259863D01*
X0545570Y0260160D01*
X0546331Y0260311D01*
X0546719Y0260311D01*
X0546719Y0260311D01*
X0561680Y0260311D01*
D02*
G37*
D10*
X0542423Y0349776D02*
D03*
X0539274D02*
D03*
X0536124D02*
D03*
X0532975D02*
D03*
X0542423Y0334224D02*
D03*
X0539274D02*
D03*
X0536124D02*
D03*
X0532975D02*
D03*
X0579975D02*
D03*
X0583124D02*
D03*
X0586274D02*
D03*
X0589424D02*
D03*
X0579975Y0349776D02*
D03*
X0583124D02*
D03*
X0586274D02*
D03*
X0589424D02*
D03*
X0636423D02*
D03*
X0633274D02*
D03*
X0630124D02*
D03*
X0626975D02*
D03*
X0636423Y0334224D02*
D03*
X0633274D02*
D03*
X0630124D02*
D03*
X0626975D02*
D03*
D11*
X0537699Y0342000D02*
D03*
X0584699D02*
D03*
X0631699D02*
D03*
D12*
X0546955Y0354000D02*
D03*
X0541443D02*
D03*
X0659955Y0309500D02*
D03*
X0654443D02*
D03*
X0640955Y0354000D02*
D03*
X0635443D02*
D03*
X0593955D02*
D03*
X0588443D02*
D03*
X0537955Y0354000D02*
D03*
X0532443D02*
D03*
X0584955D02*
D03*
X0579443D02*
D03*
X0631955D02*
D03*
X0626443D02*
D03*
D13*
X0620349Y0266900D02*
D03*
Y0302100D02*
D03*
D14*
X0663661Y0352716D02*
D03*
X0655000D02*
D03*
X0646339D02*
D03*
Y0317284D02*
D03*
X0655000D02*
D03*
X0663661D02*
D03*
X0616661D02*
D03*
X0608000D02*
D03*
X0599339D02*
D03*
Y0352716D02*
D03*
X0608000D02*
D03*
X0616661D02*
D03*
X0569661D02*
D03*
X0561000D02*
D03*
X0552339D02*
D03*
Y0317284D02*
D03*
X0561000D02*
D03*
X0569661D02*
D03*
D15*
X0655000Y0343858D02*
D03*
X0608000D02*
D03*
X0561000D02*
D03*
D16*
X0648209Y0338347D02*
D03*
X0652736D02*
D03*
X0657264D02*
D03*
X0661791D02*
D03*
Y0327323D02*
D03*
X0657264D02*
D03*
X0652736D02*
D03*
X0648209D02*
D03*
X0601209D02*
D03*
X0605736D02*
D03*
X0610264D02*
D03*
X0614791D02*
D03*
Y0338347D02*
D03*
X0610264D02*
D03*
X0605736D02*
D03*
X0601209D02*
D03*
X0554209D02*
D03*
X0558736D02*
D03*
X0563264D02*
D03*
X0567791D02*
D03*
Y0327323D02*
D03*
X0563264D02*
D03*
X0558736D02*
D03*
X0554209D02*
D03*
D17*
X0666716Y0385661D02*
D03*
Y0377000D02*
D03*
Y0368339D02*
D03*
X0631284D02*
D03*
Y0377000D02*
D03*
Y0385661D02*
D03*
X0584283D02*
D03*
Y0377000D02*
D03*
Y0368339D02*
D03*
X0619717D02*
D03*
Y0377000D02*
D03*
Y0385661D02*
D03*
X0572717D02*
D03*
Y0377000D02*
D03*
Y0368339D02*
D03*
X0537284D02*
D03*
Y0377000D02*
D03*
Y0385661D02*
D03*
D18*
X0656677Y0370209D02*
D03*
Y0374736D02*
D03*
Y0379264D02*
D03*
Y0383791D02*
D03*
X0645653D02*
D03*
Y0379264D02*
D03*
Y0374736D02*
D03*
Y0370209D02*
D03*
X0598654D02*
D03*
Y0374736D02*
D03*
Y0379264D02*
D03*
Y0383791D02*
D03*
X0609677D02*
D03*
Y0379264D02*
D03*
Y0374736D02*
D03*
Y0370209D02*
D03*
X0562677D02*
D03*
Y0374736D02*
D03*
Y0379264D02*
D03*
Y0383791D02*
D03*
X0551653D02*
D03*
Y0379264D02*
D03*
Y0374736D02*
D03*
Y0370209D02*
D03*
D19*
X0640142Y0377000D02*
D03*
X0593142D02*
D03*
X0546142D02*
D03*
D20*
X0534199Y0299000D02*
D03*
Y0309000D02*
D03*
D21*
Y0288200D02*
D03*
Y0319748D02*
D03*
D22*
X0544699Y0301400D02*
D03*
Y0304000D02*
D03*
Y0306559D02*
D03*
Y0298800D02*
D03*
Y0309118D02*
D03*
D23*
X0575270Y0284350D02*
D03*
Y0290650D02*
D03*
X0559128Y0284350D02*
D03*
Y0290650D02*
D03*
Y0305650D02*
D03*
Y0299350D02*
D03*
X0575270Y0305650D02*
D03*
Y0299350D02*
D03*
D24*
X0554199Y0256177D02*
D03*
Y0240823D02*
D03*
D25*
X0606731Y0260500D02*
D03*
X0610668D02*
D03*
X0603668Y0260500D02*
D03*
X0599731D02*
D03*
D26*
X0655199Y0297500D02*
D03*
D27*
X0646636Y0301339D02*
D03*
Y0298780D02*
D03*
Y0296220D02*
D03*
Y0293661D02*
D03*
X0663762Y0301339D02*
D03*
Y0298780D02*
D03*
Y0296220D02*
D03*
Y0293661D02*
D03*
D28*
X0573199Y0255801D02*
D03*
D29*
X0577097Y0251864D02*
D03*
X0569302D02*
D03*
Y0253832D02*
D03*
Y0255801D02*
D03*
Y0257769D02*
D03*
Y0259738D02*
D03*
X0577097D02*
D03*
Y0257769D02*
D03*
Y0255801D02*
D03*
Y0253832D02*
D03*
D30*
X0665591Y0274500D02*
D03*
X0645709D02*
D03*
D31*
X0580711Y0242801D02*
D03*
X0569687D02*
D03*
D32*
X0590199Y0239500D02*
D03*
Y0250524D02*
D03*
D33*
X0666699Y0311799D02*
D03*
Y0305500D02*
D03*
D34*
X0555199Y0306575D02*
D03*
Y0303425D02*
D03*
X0580699Y0261376D02*
D03*
Y0258226D02*
D03*
X0645199Y0306925D02*
D03*
Y0310075D02*
D03*
D35*
X0624199Y0325728D02*
D03*
Y0329272D02*
D03*
X0577199Y0325728D02*
D03*
Y0329272D02*
D03*
X0530199Y0325728D02*
D03*
Y0329272D02*
D03*
X0627699Y0329272D02*
D03*
Y0325728D02*
D03*
X0580699Y0329272D02*
D03*
Y0325728D02*
D03*
X0533699Y0329272D02*
D03*
Y0325728D02*
D03*
X0553199Y0291957D02*
D03*
Y0295500D02*
D03*
X0549699Y0291957D02*
D03*
Y0295500D02*
D03*
X0555199Y0283457D02*
D03*
Y0287000D02*
D03*
X0542699Y0327228D02*
D03*
Y0330772D02*
D03*
X0589699Y0327228D02*
D03*
Y0330772D02*
D03*
X0636699Y0327228D02*
D03*
Y0330772D02*
D03*
X0641199Y0306728D02*
D03*
Y0310272D02*
D03*
X0649199Y0306728D02*
D03*
Y0310272D02*
D03*
D36*
X0549971Y0360500D02*
D03*
X0546427D02*
D03*
X0596971D02*
D03*
X0593428D02*
D03*
X0643971D02*
D03*
X0640427D02*
D03*
X0590471Y0321000D02*
D03*
X0586928D02*
D03*
X0586928Y0317500D02*
D03*
X0590471D02*
D03*
D37*
X0573274Y0264000D02*
D03*
X0570124D02*
D03*
D38*
X0537849Y0248500D02*
D03*
X0531550D02*
D03*
X0537849Y0240000D02*
D03*
X0531550D02*
D03*
X0537849Y0257000D02*
D03*
X0531550D02*
D03*
M02*
