G04 Layer_Color=32896*
%FSAX25Y25*%
%MOIN*%
G70*
G01*
G75*
%ADD39C,0.01000*%
%ADD78C,0.00787*%
%ADD79C,0.00984*%
%ADD80C,0.00800*%
%ADD82C,0.00394*%
%ADD83C,0.00500*%
%ADD140C,0.02362*%
%ADD141C,0.01575*%
D39*
X0558649Y0298250D02*
X0564749D01*
X0558649Y0312750D02*
X0564749D01*
X0535727Y0269214D02*
X0539271Y0265671D01*
X0535727Y0269214D02*
Y0270002D01*
Y0265671D02*
X0546751D01*
X0535727Y0278269D02*
X0546751D01*
Y0265671D02*
Y0278269D01*
X0535727Y0265671D02*
Y0278269D01*
X0637199Y0364500D02*
Y0368499D01*
X0635200D01*
X0634533Y0367832D01*
Y0366499D01*
X0635200Y0365833D01*
X0637199D01*
X0633200Y0368499D02*
Y0364500D01*
X0631868Y0365833D01*
X0630535Y0364500D01*
Y0368499D01*
X0629202Y0364500D02*
Y0368499D01*
X0627202D01*
X0626536Y0367832D01*
Y0366499D01*
X0627202Y0365833D01*
X0629202D01*
X0627869D02*
X0626536Y0364500D01*
X0587533Y0351332D02*
X0588200Y0351999D01*
X0589533D01*
X0590199Y0351332D01*
Y0348666D01*
X0589533Y0348000D01*
X0588200D01*
X0587533Y0348666D01*
Y0349999D01*
X0588866D01*
X0586200Y0348000D02*
Y0351999D01*
X0583535Y0348000D01*
Y0351999D01*
X0582202D02*
Y0348000D01*
X0580202D01*
X0579536Y0348666D01*
Y0351332D01*
X0580202Y0351999D01*
X0582202D01*
D78*
X0594325Y0253374D02*
Y0287626D01*
X0560073Y0253374D02*
Y0287626D01*
Y0253374D02*
X0594325D01*
X0560073Y0287626D02*
X0594325D01*
X0663498Y0267657D02*
Y0287343D01*
X0650900Y0267657D02*
Y0287343D01*
X0663498D01*
X0650900Y0267657D02*
X0663498D01*
X0625898Y0324260D02*
Y0331740D01*
X0638102Y0324260D02*
Y0331740D01*
X0625898D02*
X0638102D01*
X0625898Y0324260D02*
X0638102D01*
X0578898D02*
Y0331740D01*
X0591102Y0324260D02*
Y0331740D01*
X0578898D02*
X0591102D01*
X0578898Y0324260D02*
X0591102D01*
X0531898D02*
Y0331740D01*
X0544102Y0324260D02*
Y0331740D01*
X0531898D02*
X0544102D01*
X0531898Y0324260D02*
X0544102D01*
X0574780Y0332457D02*
Y0339543D01*
X0547221Y0332457D02*
Y0339543D01*
X0536687Y0363646D02*
Y0381362D01*
X0547711Y0363646D02*
Y0381362D01*
X0536687D02*
X0537573D01*
X0536687Y0363646D02*
X0537573D01*
X0546825Y0381362D02*
X0547711D01*
X0546825Y0363646D02*
X0547711D01*
X0625168Y0225594D02*
Y0237405D01*
X0621231Y0225594D02*
Y0237405D01*
X0625168D01*
X0621231Y0225594D02*
X0625168D01*
X0620679Y0282961D02*
Y0284831D01*
X0617136D02*
X0620679D01*
Y0276169D02*
Y0278039D01*
X0617136Y0276169D02*
X0620679D01*
X0639128Y0403350D02*
Y0409650D01*
Y0403350D02*
X0645270D01*
X0639128Y0409650D02*
X0645270D01*
Y0403350D02*
Y0409650D01*
X0571239Y0365791D02*
Y0377209D01*
X0551160Y0365791D02*
Y0377209D01*
X0637778Y0296835D02*
Y0301165D01*
X0647620Y0296835D02*
Y0301165D01*
X0669046Y0298134D02*
Y0302465D01*
X0662353Y0298134D02*
Y0302465D01*
X0668780Y0332457D02*
Y0339543D01*
X0641221Y0332457D02*
Y0339543D01*
X0594220Y0332457D02*
Y0339543D01*
X0621779Y0332457D02*
Y0339543D01*
X0665239Y0365791D02*
Y0377209D01*
X0645160Y0365791D02*
Y0377209D01*
X0618238Y0365791D02*
Y0377209D01*
X0598160Y0365791D02*
Y0377209D01*
X0545128Y0403350D02*
Y0409650D01*
Y0403350D02*
X0551270D01*
X0545128Y0409650D02*
X0551270D01*
Y0403350D02*
Y0409650D01*
X0592128Y0403350D02*
Y0409650D01*
Y0403350D02*
X0598270D01*
X0592128Y0409650D02*
X0598270D01*
Y0403350D02*
Y0409650D01*
X0611947Y0294980D02*
X0613817D01*
X0611947Y0291437D02*
Y0294980D01*
X0618738D02*
X0620608D01*
Y0291437D02*
Y0294980D01*
X0650278Y0296835D02*
Y0301165D01*
X0660120Y0296835D02*
Y0301165D01*
X0532577Y0259287D02*
Y0259681D01*
X0529821Y0259287D02*
Y0259681D01*
X0622199Y0305319D02*
X0623774Y0308075D01*
X0620624D02*
X0622199Y0305319D01*
X0620624D02*
X0623774D01*
X0620624Y0308075D02*
X0623774D01*
X0619246Y0310240D02*
X0620231D01*
X0619246Y0302760D02*
X0620231D01*
X0624168Y0310240D02*
X0625152D01*
X0624168Y0302760D02*
X0625152D01*
X0619246D02*
Y0310240D01*
X0625152Y0302760D02*
Y0310240D01*
X0533959Y0309953D02*
X0541439D01*
X0533959Y0304047D02*
X0541439D01*
Y0308968D02*
Y0309953D01*
X0533959Y0308968D02*
Y0309953D01*
X0541439Y0304047D02*
Y0305031D01*
X0533959Y0304047D02*
Y0305031D01*
X0536124Y0305425D02*
Y0308575D01*
X0538880Y0305425D02*
Y0308575D01*
X0536124Y0305425D02*
X0538880Y0307000D01*
X0536124Y0308575D02*
X0538880Y0307000D01*
X0577518Y0240500D02*
X0580274Y0238925D01*
X0577518Y0240500D02*
X0580274Y0242075D01*
X0577518Y0238925D02*
Y0242075D01*
X0580274Y0238925D02*
Y0242075D01*
X0582439Y0242469D02*
Y0243453D01*
X0574959Y0242469D02*
Y0243453D01*
X0582439Y0237547D02*
Y0238531D01*
X0574959Y0237547D02*
Y0238531D01*
Y0243453D02*
X0582439D01*
X0574959Y0237547D02*
X0582439D01*
X0659337Y0262650D02*
X0664061D01*
X0659337Y0256350D02*
X0664061D01*
X0660124Y0257531D02*
Y0261469D01*
X0660518Y0259500D02*
X0663668Y0257531D01*
X0660518Y0259500D02*
X0663668Y0261469D01*
Y0257531D02*
Y0261469D01*
Y0250031D02*
Y0253969D01*
X0660518Y0252000D02*
X0663668Y0253969D01*
X0660518Y0252000D02*
X0663668Y0250031D01*
X0660124D02*
Y0253969D01*
X0659337Y0248850D02*
X0664061D01*
X0659337Y0255150D02*
X0664061D01*
X0632762Y0270744D02*
X0640636D01*
X0636699D02*
X0640636Y0276256D01*
X0632762D02*
X0636699Y0270744D01*
X0632762Y0276256D02*
X0640636D01*
X0642802Y0259130D02*
Y0268776D01*
X0630597Y0259130D02*
Y0268776D01*
Y0278224D02*
Y0288461D01*
X0642802Y0278224D02*
Y0288461D01*
X0632368Y0257358D02*
X0641030D01*
X0630597Y0259130D02*
X0632368Y0257358D01*
X0641030D02*
X0642802Y0259130D01*
X0630597Y0288461D02*
X0642802D01*
D79*
X0560270Y0292252D02*
G03*
X0560270Y0292252I-0000492J0000000D01*
G01*
X0661691Y0285000D02*
G03*
X0661691Y0285000I-0000492J0000000D01*
G01*
X0639382Y0319929D02*
G03*
X0639382Y0319929I-0000492J0000000D01*
G01*
X0592382D02*
G03*
X0592382Y0319929I-0000492J0000000D01*
G01*
X0545382D02*
G03*
X0545382Y0319929I-0000492J0000000D01*
G01*
X0542691Y0385398D02*
G03*
X0542691Y0385398I-0000492J0000000D01*
G01*
X0618278Y0225791D02*
G03*
X0618278Y0225791I-0000492J0000000D01*
G01*
X0614538Y0274890D02*
G03*
X0614538Y0274890I-0000492J0000000D01*
G01*
X0649128Y0411067D02*
G03*
X0649128Y0411067I-0000492J0000000D01*
G01*
X0555128D02*
G03*
X0555128Y0411067I-0000492J0000000D01*
G01*
X0602128D02*
G03*
X0602128Y0411067I-0000492J0000000D01*
G01*
X0622380Y0288347D02*
G03*
X0622380Y0288347I-0000492J0000000D01*
G01*
X0655754Y0254933D02*
G03*
X0655754Y0254933I-0000492J0000000D01*
G01*
Y0247433D02*
G03*
X0655754Y0247433I-0000492J0000000D01*
G01*
D80*
X0614999Y0298988D02*
Y0301350D01*
X0611805Y0298988D02*
X0614999D01*
Y0307700D02*
Y0310100D01*
X0611805D02*
X0614999D01*
X0640699Y0213000D02*
X0639699D01*
X0640199D01*
Y0214999D01*
X0640699D01*
X0638200Y0213000D02*
Y0214999D01*
X0636700D01*
X0636201Y0214499D01*
Y0213000D01*
X0634701D02*
Y0215499D01*
Y0214499D01*
X0635201D01*
X0634201D01*
X0634701D01*
Y0215499D01*
X0634201Y0215999D01*
X0632702Y0213000D02*
X0631702D01*
X0632202D01*
Y0214999D01*
X0632702D01*
X0630202Y0213000D02*
Y0214999D01*
X0628703D01*
X0628203Y0214499D01*
Y0213000D01*
X0627204D02*
X0626204D01*
X0626704D01*
Y0214999D01*
X0627204D01*
X0624204Y0215499D02*
Y0214999D01*
X0624704D01*
X0623705D01*
X0624204D01*
Y0213500D01*
X0623705Y0213000D01*
X0622205Y0214999D02*
Y0213500D01*
X0621705Y0213000D01*
X0620206D01*
Y0212500D01*
X0620706Y0212000D01*
X0621205D01*
X0620206Y0213000D02*
Y0214999D01*
X0616207D02*
X0615207Y0213000D01*
X0614208Y0214999D01*
X0611708Y0213000D02*
Y0215999D01*
X0613208Y0214499D01*
X0611209D01*
X0610209Y0213000D02*
Y0213500D01*
X0609709D01*
Y0213000D01*
X0610209D01*
X0607710D02*
X0606710D01*
X0607210D01*
Y0215999D01*
X0607710Y0215499D01*
X0602212Y0214499D02*
X0600212D01*
X0596213Y0213000D02*
Y0215999D01*
X0594714D01*
X0594214Y0215499D01*
Y0214499D01*
X0594714Y0214000D01*
X0596213D01*
X0595214D02*
X0594214Y0213000D01*
X0592715Y0214999D02*
X0591715D01*
X0591215Y0214499D01*
Y0213000D01*
X0592715D01*
X0593215Y0213500D01*
X0592715Y0214000D01*
X0591215D01*
X0590215Y0212000D02*
Y0214999D01*
X0588716D01*
X0588216Y0214499D01*
Y0213500D01*
X0588716Y0213000D01*
X0590215D01*
X0587216Y0215999D02*
Y0213000D01*
Y0214499D01*
X0586717Y0214999D01*
X0585717D01*
X0585217Y0214499D01*
Y0213000D01*
X0583718Y0214999D02*
X0582718D01*
X0582218Y0214499D01*
Y0213000D01*
X0583718D01*
X0584217Y0213500D01*
X0583718Y0214000D01*
X0582218D01*
X0579719Y0213000D02*
X0580719D01*
X0581218Y0213500D01*
Y0214499D01*
X0580719Y0214999D01*
X0579719D01*
X0579219Y0214499D01*
Y0214000D01*
X0581218D01*
X0578219Y0213000D02*
X0577220D01*
X0577719D01*
Y0215999D01*
X0578219D01*
X0570722Y0215499D02*
X0571222Y0215999D01*
X0572221D01*
X0572721Y0215499D01*
Y0213500D01*
X0572221Y0213000D01*
X0571222D01*
X0570722Y0213500D01*
X0569722Y0215999D02*
Y0213000D01*
Y0214499D01*
X0569222Y0214999D01*
X0568223D01*
X0567723Y0214499D01*
Y0213000D01*
X0566223Y0214999D02*
X0565224D01*
X0564724Y0214499D01*
Y0213000D01*
X0566223D01*
X0566723Y0213500D01*
X0566223Y0214000D01*
X0564724D01*
X0563724Y0213000D02*
Y0214999D01*
X0562224D01*
X0561725Y0214499D01*
Y0213000D01*
X0559725Y0212000D02*
X0559226D01*
X0558726Y0212500D01*
Y0214999D01*
X0560225D01*
X0560725Y0214499D01*
Y0213500D01*
X0560225Y0213000D01*
X0558726D01*
D82*
X0624365Y0300594D02*
G03*
X0624365Y0300594I-0000197J0000000D01*
G01*
X0543801Y0308968D02*
G03*
X0543801Y0308968I-0000197J0000000D01*
G01*
X0572991Y0238531D02*
G03*
X0572991Y0238531I-0000197J0000000D01*
G01*
D83*
X0613366Y0311833D02*
Y0313166D01*
X0613699Y0313499D01*
X0614366D01*
X0614699Y0313166D01*
Y0311833D01*
X0614366Y0311500D01*
X0613699D01*
X0614033Y0312166D02*
X0613366Y0311500D01*
X0613699D02*
X0613366Y0311833D01*
X0612700Y0311500D02*
X0612033D01*
X0612366D01*
Y0313499D01*
X0612700Y0313166D01*
X0611034D02*
X0610700Y0313499D01*
X0610034D01*
X0609701Y0313166D01*
Y0311833D01*
X0610034Y0311500D01*
X0610700D01*
X0611034Y0311833D01*
Y0313166D01*
X0538699Y0252500D02*
X0540698D01*
Y0253500D01*
X0540365Y0253833D01*
X0539699D01*
X0539366Y0253500D01*
Y0252500D01*
Y0253166D02*
X0538699Y0253833D01*
X0540365Y0254499D02*
X0540698Y0254833D01*
Y0255499D01*
X0540365Y0255832D01*
X0540032D01*
X0539699Y0255499D01*
Y0255166D01*
Y0255499D01*
X0539366Y0255832D01*
X0539032D01*
X0538699Y0255499D01*
Y0254833D01*
X0539032Y0254499D01*
X0538699Y0257498D02*
X0540698D01*
X0539699Y0256499D01*
Y0257832D01*
X0544699Y0289000D02*
Y0290999D01*
X0543699D01*
X0543366Y0290666D01*
Y0290000D01*
X0543699Y0289666D01*
X0544699D01*
X0544033D02*
X0543366Y0289000D01*
X0541367D02*
X0542700D01*
X0541367Y0290333D01*
Y0290666D01*
X0541700Y0290999D01*
X0542367D01*
X0542700Y0290666D01*
X0540700D02*
X0540367Y0290999D01*
X0539701D01*
X0539367Y0290666D01*
Y0289333D01*
X0539701Y0289000D01*
X0540367D01*
X0540700Y0289333D01*
Y0290666D01*
X0545699Y0253500D02*
X0547698D01*
Y0254500D01*
X0547365Y0254833D01*
X0546699D01*
X0546366Y0254500D01*
Y0253500D01*
Y0254166D02*
X0545699Y0254833D01*
X0547698Y0256832D02*
X0547365Y0256166D01*
X0546699Y0255499D01*
X0546032D01*
X0545699Y0255833D01*
Y0256499D01*
X0546032Y0256832D01*
X0546366D01*
X0546699Y0256499D01*
Y0255499D01*
X0575199Y0317000D02*
Y0319999D01*
X0573700D01*
X0573200Y0319499D01*
Y0318499D01*
X0573700Y0318000D01*
X0575199D01*
X0574199D02*
X0573200Y0317000D01*
X0572200D02*
X0571200D01*
X0571700D01*
Y0319999D01*
X0572200Y0319499D01*
X0569701D02*
X0569201Y0319999D01*
X0568201D01*
X0567702Y0319499D01*
Y0317500D01*
X0568201Y0317000D01*
X0569201D01*
X0569701Y0317500D01*
Y0319499D01*
X0585866Y0304166D02*
X0586199Y0304499D01*
X0586866D01*
X0587199Y0304166D01*
Y0302833D01*
X0586866Y0302500D01*
X0586199D01*
X0585866Y0302833D01*
X0583867Y0304499D02*
X0584533Y0304166D01*
X0585200Y0303500D01*
Y0302833D01*
X0584867Y0302500D01*
X0584200D01*
X0583867Y0302833D01*
Y0303166D01*
X0584200Y0303500D01*
X0585200D01*
X0647198Y0257500D02*
X0644199D01*
Y0258999D01*
X0644699Y0259499D01*
X0646698D01*
X0647198Y0258999D01*
Y0257500D01*
Y0262498D02*
X0646698Y0261499D01*
X0645699Y0260499D01*
X0644699D01*
X0644199Y0260999D01*
Y0261999D01*
X0644699Y0262498D01*
X0645199D01*
X0645699Y0261999D01*
Y0260499D01*
X0578199Y0236499D02*
Y0234500D01*
X0577199D01*
X0576866Y0234833D01*
Y0236166D01*
X0577199Y0236499D01*
X0578199D01*
X0576200Y0236166D02*
X0575867Y0236499D01*
X0575200D01*
X0574867Y0236166D01*
Y0235833D01*
X0575200Y0235500D01*
X0574867Y0235166D01*
Y0234833D01*
X0575200Y0234500D01*
X0575867D01*
X0576200Y0234833D01*
Y0235166D01*
X0575867Y0235500D01*
X0576200Y0235833D01*
Y0236166D01*
X0575867Y0235500D02*
X0575200D01*
X0579365Y0297833D02*
X0579699Y0297500D01*
Y0296833D01*
X0579365Y0296500D01*
X0578032D01*
X0577699Y0296833D01*
Y0297500D01*
X0578032Y0297833D01*
X0579365Y0298499D02*
X0579699Y0298833D01*
Y0299499D01*
X0579365Y0299832D01*
X0579032D01*
X0578699Y0299499D01*
Y0299166D01*
Y0299499D01*
X0578366Y0299832D01*
X0578032D01*
X0577699Y0299499D01*
Y0298833D01*
X0578032Y0298499D01*
X0579365Y0300499D02*
X0579699Y0300832D01*
Y0301498D01*
X0579365Y0301832D01*
X0579032D01*
X0578699Y0301498D01*
X0578366Y0301832D01*
X0578032D01*
X0577699Y0301498D01*
Y0300832D01*
X0578032Y0300499D01*
X0578366D01*
X0578699Y0300832D01*
X0579032Y0300499D01*
X0579365D01*
X0578699Y0300832D02*
Y0301498D01*
X0533199Y0248500D02*
X0535198D01*
Y0249500D01*
X0534865Y0249833D01*
X0534199D01*
X0533866Y0249500D01*
Y0248500D01*
Y0249166D02*
X0533199Y0249833D01*
Y0250499D02*
Y0251166D01*
Y0250833D01*
X0535198D01*
X0534865Y0250499D01*
X0571699Y0228000D02*
Y0229999D01*
X0570699D01*
X0570366Y0229666D01*
Y0229000D01*
X0570699Y0228666D01*
X0571699D01*
X0571033D02*
X0570366Y0228000D01*
X0568367D02*
X0569700D01*
X0568367Y0229333D01*
Y0229666D01*
X0568700Y0229999D01*
X0569367D01*
X0569700Y0229666D01*
X0566701Y0228000D02*
Y0229999D01*
X0567700Y0229000D01*
X0566367D01*
X0579699Y0228000D02*
Y0229999D01*
X0578699D01*
X0578366Y0229666D01*
Y0229000D01*
X0578699Y0228666D01*
X0579699D01*
X0579033D02*
X0578366Y0228000D01*
X0576367D02*
X0577700D01*
X0576367Y0229333D01*
Y0229666D01*
X0576700Y0229999D01*
X0577366D01*
X0577700Y0229666D01*
X0574368Y0229999D02*
X0575700D01*
Y0229000D01*
X0575034Y0229333D01*
X0574701D01*
X0574368Y0229000D01*
Y0228333D01*
X0574701Y0228000D01*
X0575367D01*
X0575700Y0228333D01*
X0556700Y0387440D02*
X0557200Y0387940D01*
X0558199D01*
X0558699Y0387440D01*
Y0385441D01*
X0558199Y0384941D01*
X0557200D01*
X0556700Y0385441D01*
X0553701Y0384941D02*
X0555700D01*
X0553701Y0386940D01*
Y0387440D01*
X0554201Y0387940D01*
X0555200D01*
X0555700Y0387440D01*
X0552701Y0387940D02*
X0550702D01*
Y0387440D01*
X0552701Y0385441D01*
Y0384941D01*
X0667200Y0264000D02*
Y0265999D01*
X0667700Y0266499D01*
X0668699D01*
X0669199Y0265999D01*
Y0264000D01*
X0668699Y0263500D01*
X0667700D01*
X0668199Y0264500D02*
X0667200Y0263500D01*
X0667700D02*
X0667200Y0264000D01*
X0666200Y0266499D02*
X0664201D01*
Y0265999D01*
X0666200Y0264000D01*
Y0263500D01*
X0633199Y0290000D02*
X0635198D01*
Y0291000D01*
X0634865Y0291333D01*
X0634199D01*
X0633866Y0291000D01*
Y0290000D01*
Y0290666D02*
X0633199Y0291333D01*
Y0291999D02*
Y0292666D01*
Y0292333D01*
X0635198D01*
X0634865Y0291999D01*
X0635198Y0293666D02*
Y0294998D01*
X0634865D01*
X0633532Y0293666D01*
X0633199D01*
Y0299000D02*
X0635198D01*
Y0300000D01*
X0634865Y0300333D01*
X0634199D01*
X0633866Y0300000D01*
Y0299000D01*
Y0299666D02*
X0633199Y0300333D01*
Y0300999D02*
Y0301666D01*
Y0301333D01*
X0635198D01*
X0634865Y0300999D01*
X0635198Y0303998D02*
X0634865Y0303332D01*
X0634199Y0302665D01*
X0633532D01*
X0633199Y0302999D01*
Y0303665D01*
X0633532Y0303998D01*
X0633866D01*
X0634199Y0303665D01*
Y0302665D01*
X0641366Y0309666D02*
X0641699Y0309999D01*
X0642366D01*
X0642699Y0309666D01*
Y0308333D01*
X0642366Y0308000D01*
X0641699D01*
X0641366Y0308333D01*
X0640700Y0308000D02*
X0640033D01*
X0640367D01*
Y0309999D01*
X0640700Y0309666D01*
X0639034Y0309999D02*
X0637701D01*
Y0309666D01*
X0639034Y0308333D01*
Y0308000D01*
X0653866Y0309666D02*
X0654199Y0309999D01*
X0654866D01*
X0655199Y0309666D01*
Y0308333D01*
X0654866Y0308000D01*
X0654199D01*
X0653866Y0308333D01*
X0653200Y0308000D02*
X0652533D01*
X0652867D01*
Y0309999D01*
X0653200Y0309666D01*
X0650201Y0309999D02*
X0650867Y0309666D01*
X0651534Y0309000D01*
Y0308333D01*
X0651200Y0308000D01*
X0650534D01*
X0650201Y0308333D01*
Y0308666D01*
X0650534Y0309000D01*
X0651534D01*
X0667866Y0289665D02*
X0668199Y0289998D01*
X0668866D01*
X0669199Y0289665D01*
Y0288332D01*
X0668866Y0287998D01*
X0668199D01*
X0667866Y0288332D01*
X0667200Y0287998D02*
X0666533D01*
X0666866D01*
Y0289998D01*
X0667200Y0289665D01*
X0664201Y0287998D02*
X0665534D01*
X0664201Y0289331D01*
Y0289665D01*
X0664534Y0289998D01*
X0665200D01*
X0665534Y0289665D01*
X0629866Y0307166D02*
X0630199Y0307499D01*
X0630866D01*
X0631199Y0307166D01*
Y0305833D01*
X0630866Y0305500D01*
X0630199D01*
X0629866Y0305833D01*
X0629200Y0307166D02*
X0628866Y0307499D01*
X0628200D01*
X0627867Y0307166D01*
Y0306833D01*
X0628200Y0306500D01*
X0628533D01*
X0628200D01*
X0627867Y0306166D01*
Y0305833D01*
X0628200Y0305500D01*
X0628866D01*
X0629200Y0305833D01*
X0627200Y0305500D02*
X0626534D01*
X0626867D01*
Y0307499D01*
X0627200Y0307166D01*
X0624866Y0297666D02*
X0625199Y0297999D01*
X0625866D01*
X0626199Y0297666D01*
Y0296333D01*
X0625866Y0296000D01*
X0625199D01*
X0624866Y0296333D01*
X0624200Y0297666D02*
X0623867Y0297999D01*
X0623200D01*
X0622867Y0297666D01*
Y0297333D01*
X0623200Y0297000D01*
X0623533D01*
X0623200D01*
X0622867Y0296666D01*
Y0296333D01*
X0623200Y0296000D01*
X0623867D01*
X0624200Y0296333D01*
X0620867Y0296000D02*
X0622200D01*
X0620867Y0297333D01*
Y0297666D01*
X0621201Y0297999D01*
X0621867D01*
X0622200Y0297666D01*
X0626199Y0283500D02*
X0628198D01*
Y0284500D01*
X0627865Y0284833D01*
X0627199D01*
X0626866Y0284500D01*
Y0283500D01*
Y0284166D02*
X0626199Y0284833D01*
Y0286832D02*
Y0285499D01*
X0627532Y0286832D01*
X0627865D01*
X0628198Y0286499D01*
Y0285833D01*
X0627865Y0285499D01*
X0626199Y0288832D02*
Y0287499D01*
X0627532Y0288832D01*
X0627865D01*
X0628198Y0288498D01*
Y0287832D01*
X0627865Y0287499D01*
X0609199Y0285157D02*
X0611199D01*
Y0286157D01*
X0610865Y0286490D01*
X0610199D01*
X0609866Y0286157D01*
Y0285157D01*
Y0285824D02*
X0609199Y0286490D01*
Y0288157D02*
X0611199D01*
X0610199Y0287157D01*
Y0288490D01*
X0609199Y0289156D02*
Y0289823D01*
Y0289489D01*
X0611199D01*
X0610865Y0289156D01*
X0604199Y0291500D02*
X0606199D01*
Y0292500D01*
X0605865Y0292833D01*
X0605199D01*
X0604866Y0292500D01*
Y0291500D01*
Y0292166D02*
X0604199Y0292833D01*
Y0294499D02*
X0606199D01*
X0605199Y0293499D01*
Y0294832D01*
X0605865Y0295499D02*
X0606199Y0295832D01*
Y0296498D01*
X0605865Y0296832D01*
X0604532D01*
X0604199Y0296498D01*
Y0295832D01*
X0604532Y0295499D01*
X0605865D01*
X0619366Y0273333D02*
Y0274666D01*
X0619699Y0274999D01*
X0620366D01*
X0620699Y0274666D01*
Y0273333D01*
X0620366Y0273000D01*
X0619699D01*
X0620033Y0273666D02*
X0619366Y0273000D01*
X0619699D02*
X0619366Y0273333D01*
X0618700D02*
X0618366Y0273000D01*
X0617700D01*
X0617367Y0273333D01*
Y0274666D01*
X0617700Y0274999D01*
X0618366D01*
X0618700Y0274666D01*
Y0274333D01*
X0618366Y0274000D01*
X0617367D01*
X0622032Y0292333D02*
X0623365D01*
X0623699Y0292000D01*
Y0291333D01*
X0623365Y0291000D01*
X0622032D01*
X0621699Y0291333D01*
Y0292000D01*
X0622366Y0291666D02*
X0621699Y0292333D01*
Y0292000D02*
X0622032Y0292333D01*
X0623365Y0292999D02*
X0623699Y0293333D01*
Y0293999D01*
X0623365Y0294332D01*
X0623032D01*
X0622699Y0293999D01*
X0622366Y0294332D01*
X0622032D01*
X0621699Y0293999D01*
Y0293333D01*
X0622032Y0292999D01*
X0622366D01*
X0622699Y0293333D01*
X0623032Y0292999D01*
X0623365D01*
X0622699Y0293333D02*
Y0293999D01*
X0607366Y0268666D02*
X0607699Y0268999D01*
X0608366D01*
X0608699Y0268666D01*
Y0267333D01*
X0608366Y0267000D01*
X0607699D01*
X0607366Y0267333D01*
X0606700Y0268666D02*
X0606366Y0268999D01*
X0605700D01*
X0605367Y0268666D01*
Y0268333D01*
X0605700Y0268000D01*
X0606033D01*
X0605700D01*
X0605367Y0267666D01*
Y0267333D01*
X0605700Y0267000D01*
X0606366D01*
X0606700Y0267333D01*
X0604700Y0268999D02*
X0603368D01*
Y0268666D01*
X0604700Y0267333D01*
Y0267000D01*
X0544199Y0360499D02*
Y0358500D01*
X0543199D01*
X0542866Y0358833D01*
Y0360166D01*
X0543199Y0360499D01*
X0544199D01*
X0542200D02*
X0540867D01*
Y0360166D01*
X0542200Y0358833D01*
Y0358500D01*
X0645199Y0401999D02*
Y0400000D01*
X0644199D01*
X0643866Y0400333D01*
Y0401666D01*
X0644199Y0401999D01*
X0645199D01*
X0641867D02*
X0643200D01*
Y0401000D01*
X0642533Y0401333D01*
X0642200D01*
X0641867Y0401000D01*
Y0400333D01*
X0642200Y0400000D01*
X0642867D01*
X0643200Y0400333D01*
X0598199Y0401999D02*
Y0400000D01*
X0597199D01*
X0596866Y0400333D01*
Y0401666D01*
X0597199Y0401999D01*
X0598199D01*
X0595200Y0400000D02*
Y0401999D01*
X0596200Y0401000D01*
X0594867D01*
X0551199Y0401999D02*
Y0400000D01*
X0550199D01*
X0549866Y0400333D01*
Y0401666D01*
X0550199Y0401999D01*
X0551199D01*
X0549200Y0401666D02*
X0548867Y0401999D01*
X0548200D01*
X0547867Y0401666D01*
Y0401333D01*
X0548200Y0401000D01*
X0548533D01*
X0548200D01*
X0547867Y0400666D01*
Y0400333D01*
X0548200Y0400000D01*
X0548867D01*
X0549200Y0400333D01*
X0610865Y0230333D02*
X0611199Y0230000D01*
Y0229333D01*
X0610865Y0229000D01*
X0609532D01*
X0609199Y0229333D01*
Y0230000D01*
X0609532Y0230333D01*
X0610865Y0230999D02*
X0611199Y0231333D01*
Y0231999D01*
X0610865Y0232332D01*
X0610532D01*
X0610199Y0231999D01*
Y0231666D01*
Y0231999D01*
X0609866Y0232332D01*
X0609532D01*
X0609199Y0231999D01*
Y0231333D01*
X0609532Y0230999D01*
X0611199Y0234332D02*
X0610865Y0233665D01*
X0610199Y0232999D01*
X0609532D01*
X0609199Y0233332D01*
Y0233998D01*
X0609532Y0234332D01*
X0609866D01*
X0610199Y0233998D01*
Y0232999D01*
X0593198Y0333000D02*
X0591532D01*
X0591199Y0333333D01*
Y0334000D01*
X0591532Y0334333D01*
X0593198D01*
X0592865Y0334999D02*
X0593198Y0335333D01*
Y0335999D01*
X0592865Y0336332D01*
X0592532D01*
X0592199Y0335999D01*
X0591866Y0336332D01*
X0591532D01*
X0591199Y0335999D01*
Y0335333D01*
X0591532Y0334999D01*
X0591866D01*
X0592199Y0335333D01*
X0592532Y0334999D01*
X0592865D01*
X0592199Y0335333D02*
Y0335999D01*
X0546199Y0333000D02*
X0544532D01*
X0544199Y0333333D01*
Y0334000D01*
X0544532Y0334333D01*
X0546199D01*
Y0334999D02*
Y0336332D01*
X0545865D01*
X0544532Y0334999D01*
X0544199D01*
X0604200Y0387499D02*
X0604700Y0387999D01*
X0605699D01*
X0606199Y0387499D01*
Y0385500D01*
X0605699Y0385000D01*
X0604700D01*
X0604200Y0385500D01*
X0601201Y0385000D02*
X0603200D01*
X0601201Y0386999D01*
Y0387499D01*
X0601701Y0387999D01*
X0602700D01*
X0603200Y0387499D01*
X0598202Y0387999D02*
X0599201Y0387499D01*
X0600201Y0386500D01*
Y0385500D01*
X0599701Y0385000D01*
X0598701D01*
X0598202Y0385500D01*
Y0386000D01*
X0598701Y0386500D01*
X0600201D01*
X0651200Y0387499D02*
X0651700Y0387999D01*
X0652699D01*
X0653199Y0387499D01*
Y0385500D01*
X0652699Y0385000D01*
X0651700D01*
X0651200Y0385500D01*
X0648201Y0385000D02*
X0650200D01*
X0648201Y0386999D01*
Y0387499D01*
X0648701Y0387999D01*
X0649700D01*
X0650200Y0387499D01*
X0645202Y0387999D02*
X0647201D01*
Y0386500D01*
X0646201Y0386999D01*
X0645702D01*
X0645202Y0386500D01*
Y0385500D01*
X0645702Y0385000D01*
X0646701D01*
X0647201Y0385500D01*
X0605366Y0288166D02*
X0605699Y0288499D01*
X0606366D01*
X0606699Y0288166D01*
Y0286833D01*
X0606366Y0286500D01*
X0605699D01*
X0605366Y0286833D01*
X0603367Y0288499D02*
X0604700D01*
Y0287500D01*
X0604033Y0287833D01*
X0603700D01*
X0603367Y0287500D01*
Y0286833D01*
X0603700Y0286500D01*
X0604366D01*
X0604700Y0286833D01*
X0606866Y0253166D02*
X0607199Y0253499D01*
X0607866D01*
X0608199Y0253166D01*
Y0251833D01*
X0607866Y0251500D01*
X0607199D01*
X0606866Y0251833D01*
X0605200Y0251500D02*
Y0253499D01*
X0606200Y0252500D01*
X0604867D01*
X0559866Y0241166D02*
X0560199Y0241499D01*
X0560866D01*
X0561199Y0241166D01*
Y0239833D01*
X0560866Y0239500D01*
X0560199D01*
X0559866Y0239833D01*
X0559200Y0241166D02*
X0558867Y0241499D01*
X0558200D01*
X0557867Y0241166D01*
Y0240833D01*
X0558200Y0240500D01*
X0558533D01*
X0558200D01*
X0557867Y0240166D01*
Y0239833D01*
X0558200Y0239500D01*
X0558867D01*
X0559200Y0239833D01*
X0551366Y0290166D02*
X0551699Y0290499D01*
X0552366D01*
X0552699Y0290166D01*
Y0288833D01*
X0552366Y0288500D01*
X0551699D01*
X0551366Y0288833D01*
X0549367Y0288500D02*
X0550700D01*
X0549367Y0289833D01*
Y0290166D01*
X0549700Y0290499D01*
X0550366D01*
X0550700Y0290166D01*
X0555791Y0296166D02*
X0556125Y0296499D01*
X0556791D01*
X0557124Y0296166D01*
Y0294833D01*
X0556791Y0294500D01*
X0556125D01*
X0555791Y0294833D01*
X0555125Y0294500D02*
X0554459D01*
X0554792D01*
Y0296499D01*
X0555125Y0296166D01*
X0579365Y0306333D02*
X0579699Y0306000D01*
Y0305333D01*
X0579365Y0305000D01*
X0578032D01*
X0577699Y0305333D01*
Y0306000D01*
X0578032Y0306333D01*
X0579365Y0306999D02*
X0579699Y0307333D01*
Y0307999D01*
X0579365Y0308332D01*
X0579032D01*
X0578699Y0307999D01*
X0578366Y0308332D01*
X0578032D01*
X0577699Y0307999D01*
Y0307333D01*
X0578032Y0306999D01*
X0578366D01*
X0578699Y0307333D01*
X0579032Y0306999D01*
X0579365D01*
X0578699Y0307333D02*
Y0307999D01*
X0545365Y0303833D02*
X0545698Y0303500D01*
Y0302833D01*
X0545365Y0302500D01*
X0544032D01*
X0543699Y0302833D01*
Y0303500D01*
X0544032Y0303833D01*
X0545698Y0304499D02*
Y0305832D01*
X0545365D01*
X0544032Y0304499D01*
X0543699D01*
X0544065Y0315166D02*
X0544399Y0315499D01*
X0545065D01*
X0545398Y0315166D01*
Y0313833D01*
X0545065Y0313500D01*
X0544399D01*
X0544065Y0313833D01*
X0543399D02*
X0543066Y0313500D01*
X0542399D01*
X0542066Y0313833D01*
Y0315166D01*
X0542399Y0315499D01*
X0543066D01*
X0543399Y0315166D01*
Y0314833D01*
X0543066Y0314500D01*
X0542066D01*
X0622199Y0317000D02*
Y0319999D01*
X0620700D01*
X0620200Y0319499D01*
Y0318499D01*
X0620700Y0318000D01*
X0622199D01*
X0621199D02*
X0620200Y0317000D01*
X0619200D02*
X0618200D01*
X0618700D01*
Y0319999D01*
X0619200Y0319499D01*
X0616701Y0317000D02*
X0615701D01*
X0616201D01*
Y0319999D01*
X0616701Y0319499D01*
X0669199Y0317000D02*
Y0319999D01*
X0667700D01*
X0667200Y0319499D01*
Y0318499D01*
X0667700Y0318000D01*
X0669199D01*
X0668199D02*
X0667200Y0317000D01*
X0666200D02*
X0665200D01*
X0665700D01*
Y0319999D01*
X0666200Y0319499D01*
X0661702Y0317000D02*
X0663701D01*
X0661702Y0318999D01*
Y0319499D01*
X0662201Y0319999D01*
X0663201D01*
X0663701Y0319499D01*
X0561366Y0244666D02*
X0561699Y0244999D01*
X0562366D01*
X0562699Y0244666D01*
Y0243333D01*
X0562366Y0243000D01*
X0561699D01*
X0561366Y0243333D01*
X0560700Y0243000D02*
X0560033D01*
X0560366D01*
Y0244999D01*
X0560700Y0244666D01*
X0559034D02*
X0558700Y0244999D01*
X0558034D01*
X0557701Y0244666D01*
Y0244333D01*
X0558034Y0244000D01*
X0558367D01*
X0558034D01*
X0557701Y0243666D01*
Y0243333D01*
X0558034Y0243000D01*
X0558700D01*
X0559034Y0243333D01*
X0607865Y0258833D02*
X0608198Y0258500D01*
Y0257833D01*
X0607865Y0257500D01*
X0606532D01*
X0606199Y0257833D01*
Y0258500D01*
X0606532Y0258833D01*
X0606199Y0259499D02*
Y0260166D01*
Y0259833D01*
X0608198D01*
X0607865Y0259499D01*
X0606199Y0262165D02*
X0608198D01*
X0607199Y0261165D01*
Y0262498D01*
X0592065Y0315166D02*
X0592399Y0315499D01*
X0593065D01*
X0593398Y0315166D01*
Y0313833D01*
X0593065Y0313500D01*
X0592399D01*
X0592065Y0313833D01*
X0590066Y0313500D02*
X0591399D01*
X0590066Y0314833D01*
Y0315166D01*
X0590399Y0315499D01*
X0591066D01*
X0591399Y0315166D01*
X0589399Y0313500D02*
X0588733D01*
X0589066D01*
Y0315499D01*
X0589399Y0315166D01*
X0640065D02*
X0640399Y0315499D01*
X0641065D01*
X0641398Y0315166D01*
Y0313833D01*
X0641065Y0313500D01*
X0640399D01*
X0640065Y0313833D01*
X0638066Y0313500D02*
X0639399D01*
X0638066Y0314833D01*
Y0315166D01*
X0638399Y0315499D01*
X0639066D01*
X0639399Y0315166D01*
X0636067Y0313500D02*
X0637399D01*
X0636067Y0314833D01*
Y0315166D01*
X0636400Y0315499D01*
X0637066D01*
X0637399Y0315166D01*
X0640199Y0333000D02*
X0638532D01*
X0638199Y0333333D01*
Y0334000D01*
X0638532Y0334333D01*
X0640199D01*
X0638532Y0334999D02*
X0638199Y0335333D01*
Y0335999D01*
X0638532Y0336332D01*
X0639865D01*
X0640199Y0335999D01*
Y0335333D01*
X0639865Y0334999D01*
X0639532D01*
X0639199Y0335333D01*
Y0336332D01*
X0631199Y0239499D02*
Y0237833D01*
X0630866Y0237500D01*
X0630199D01*
X0629866Y0237833D01*
Y0239499D01*
X0629200Y0237500D02*
X0628533D01*
X0628866D01*
Y0239499D01*
X0629200Y0239166D01*
X0627534D02*
X0627200Y0239499D01*
X0626534D01*
X0626201Y0239166D01*
Y0237833D01*
X0626534Y0237500D01*
X0627200D01*
X0627534Y0237833D01*
Y0239166D01*
X0576198Y0310000D02*
X0575865D01*
X0575199Y0310666D01*
X0575865Y0311333D01*
X0576198D01*
X0575199Y0310666D02*
X0574199D01*
Y0311999D02*
Y0312666D01*
Y0312333D01*
X0576198D01*
X0575865Y0311999D01*
X0625199Y0218000D02*
Y0219999D01*
X0624199D01*
X0623866Y0219666D01*
Y0219000D01*
X0624199Y0218666D01*
X0625199D01*
X0624533D02*
X0623866Y0218000D01*
X0621867D02*
X0623200D01*
X0621867Y0219333D01*
Y0219666D01*
X0622200Y0219999D01*
X0622866D01*
X0623200Y0219666D01*
X0621200D02*
X0620867Y0219999D01*
X0620201D01*
X0619868Y0219666D01*
Y0219333D01*
X0620201Y0219000D01*
X0620534D01*
X0620201D01*
X0619868Y0218666D01*
Y0218333D01*
X0620201Y0218000D01*
X0620867D01*
X0621200Y0218333D01*
X0600699Y0292499D02*
Y0290000D01*
X0600199Y0289500D01*
X0599200D01*
X0598700Y0290000D01*
Y0292499D01*
X0597700Y0289500D02*
X0596700D01*
X0597200D01*
Y0292499D01*
X0597700Y0291999D01*
X0652699Y0250000D02*
X0650699D01*
Y0251000D01*
X0651032Y0251333D01*
X0652365D01*
X0652699Y0251000D01*
Y0250000D01*
X0651032Y0251999D02*
X0650699Y0252333D01*
Y0252999D01*
X0651032Y0253332D01*
X0652365D01*
X0652699Y0252999D01*
Y0252333D01*
X0652365Y0251999D01*
X0652032D01*
X0651699Y0252333D01*
Y0253332D01*
X0652699Y0257000D02*
X0650699D01*
Y0258000D01*
X0651032Y0258333D01*
X0652365D01*
X0652699Y0258000D01*
Y0257000D01*
X0650699Y0258999D02*
Y0259666D01*
Y0259333D01*
X0652699D01*
X0652365Y0258999D01*
Y0260665D02*
X0652699Y0260999D01*
Y0261665D01*
X0652365Y0261998D01*
X0651032D01*
X0650699Y0261665D01*
Y0260999D01*
X0651032Y0260665D01*
X0652365D01*
X0541699Y0302999D02*
Y0301000D01*
X0540699D01*
X0540366Y0301333D01*
Y0302666D01*
X0540699Y0302999D01*
X0541699D01*
X0539700Y0301000D02*
X0539033D01*
X0539366D01*
Y0302999D01*
X0539700Y0302666D01*
X0538034Y0301000D02*
X0537367D01*
X0537700D01*
Y0302999D01*
X0538034Y0302666D01*
X0618198Y0307500D02*
X0616199D01*
Y0308500D01*
X0616532Y0308833D01*
X0617865D01*
X0618198Y0308500D01*
Y0307500D01*
X0616199Y0309499D02*
Y0310166D01*
Y0309833D01*
X0618198D01*
X0617865Y0309499D01*
X0616199Y0312498D02*
Y0311165D01*
X0617532Y0312498D01*
X0617865D01*
X0618198Y0312165D01*
Y0311499D01*
X0617865Y0311165D01*
X0533199Y0239000D02*
X0535198D01*
Y0240000D01*
X0534865Y0240333D01*
X0534199D01*
X0533866Y0240000D01*
Y0239000D01*
Y0239666D02*
X0533199Y0240333D01*
X0534865Y0240999D02*
X0535198Y0241333D01*
Y0241999D01*
X0534865Y0242332D01*
X0534532D01*
X0534199Y0241999D01*
Y0241666D01*
Y0241999D01*
X0533866Y0242332D01*
X0533532D01*
X0533199Y0241999D01*
Y0241333D01*
X0533532Y0240999D01*
X0535198Y0244332D02*
Y0242999D01*
X0534199D01*
X0534532Y0243665D01*
Y0243998D01*
X0534199Y0244332D01*
X0533532D01*
X0533199Y0243998D01*
Y0243332D01*
X0533532Y0242999D01*
X0533699Y0264484D02*
Y0266484D01*
X0532699D01*
X0532366Y0266150D01*
Y0265484D01*
X0532699Y0265151D01*
X0533699D01*
X0533033D02*
X0532366Y0264484D01*
X0531700Y0266150D02*
X0531366Y0266484D01*
X0530700D01*
X0530367Y0266150D01*
Y0265817D01*
X0530700Y0265484D01*
X0531033D01*
X0530700D01*
X0530367Y0265151D01*
Y0264818D01*
X0530700Y0264484D01*
X0531366D01*
X0531700Y0264818D01*
X0528368Y0266484D02*
X0529034Y0266150D01*
X0529700Y0265484D01*
Y0264818D01*
X0529367Y0264484D01*
X0528701D01*
X0528368Y0264818D01*
Y0265151D01*
X0528701Y0265484D01*
X0529700D01*
X0663199Y0239166D02*
X0662866Y0239499D01*
X0662199D01*
X0661866Y0239166D01*
Y0238833D01*
X0662199Y0238500D01*
X0662533D01*
X0662199D01*
X0661866Y0238166D01*
Y0237833D01*
X0662199Y0237500D01*
X0662866D01*
X0663199Y0237833D01*
X0661200Y0239499D02*
Y0238166D01*
X0660533Y0237500D01*
X0659867Y0238166D01*
Y0239499D01*
X0659200Y0239166D02*
X0658867Y0239499D01*
X0658201D01*
X0657867Y0239166D01*
Y0238833D01*
X0658201Y0238500D01*
X0658534D01*
X0658201D01*
X0657867Y0238166D01*
Y0237833D01*
X0658201Y0237500D01*
X0658867D01*
X0659200Y0237833D01*
X0652866Y0239166D02*
X0653199Y0239499D01*
X0653866D01*
X0654199Y0239166D01*
Y0237833D01*
X0653866Y0237500D01*
X0653199D01*
X0652866Y0237833D01*
X0650867Y0239166D02*
X0651200Y0239499D01*
X0651866D01*
X0652200Y0239166D01*
Y0238833D01*
X0651866Y0238500D01*
X0651200D01*
X0650867Y0238166D01*
Y0237833D01*
X0651200Y0237500D01*
X0651866D01*
X0652200Y0237833D01*
X0645866Y0239166D02*
X0646199Y0239499D01*
X0646866D01*
X0647199Y0239166D01*
Y0237833D01*
X0646866Y0237500D01*
X0646199D01*
X0645866Y0237833D01*
X0645200Y0239499D02*
Y0237500D01*
X0643867D01*
X0643200Y0239499D02*
Y0237500D01*
Y0238166D01*
X0641867Y0239499D01*
X0642867Y0238500D01*
X0641867Y0237500D01*
X0640699Y0247500D02*
Y0249499D01*
X0640033Y0248833D01*
X0639366Y0249499D01*
Y0247500D01*
X0638700Y0249499D02*
X0638033D01*
X0638367D01*
Y0247500D01*
X0638700D01*
X0638033D01*
X0635701Y0249166D02*
X0636034Y0249499D01*
X0636700D01*
X0637034Y0249166D01*
Y0248833D01*
X0636700Y0248500D01*
X0636034D01*
X0635701Y0248166D01*
Y0247833D01*
X0636034Y0247500D01*
X0636700D01*
X0637034Y0247833D01*
X0634035Y0249499D02*
X0634701D01*
X0635034Y0249166D01*
Y0247833D01*
X0634701Y0247500D01*
X0634035D01*
X0633701Y0247833D01*
Y0249166D01*
X0634035Y0249499D01*
X0631699Y0247500D02*
Y0249499D01*
X0631033Y0248833D01*
X0630366Y0249499D01*
Y0247500D01*
X0628700Y0249499D02*
X0629366D01*
X0629700Y0249166D01*
Y0247833D01*
X0629366Y0247500D01*
X0628700D01*
X0628367Y0247833D01*
Y0249166D01*
X0628700Y0249499D01*
X0626368Y0249166D02*
X0626701Y0249499D01*
X0627367D01*
X0627700Y0249166D01*
Y0248833D01*
X0627367Y0248500D01*
X0626701D01*
X0626368Y0248166D01*
Y0247833D01*
X0626701Y0247500D01*
X0627367D01*
X0627700Y0247833D01*
X0625701Y0249499D02*
X0625035D01*
X0625368D01*
Y0247500D01*
X0625701D01*
X0625035D01*
X0621699D02*
Y0248833D01*
X0621033Y0249499D01*
X0620366Y0248833D01*
Y0247500D01*
Y0248500D01*
X0621699D01*
X0613699Y0249999D02*
Y0248000D01*
X0612699D01*
X0612366Y0248333D01*
Y0248666D01*
X0612699Y0249000D01*
X0613699D01*
X0612699D01*
X0612366Y0249333D01*
Y0249666D01*
X0612699Y0249999D01*
X0613699D01*
X0606866Y0239166D02*
X0607199Y0239499D01*
X0607866D01*
X0608199Y0239166D01*
Y0237833D01*
X0607866Y0237500D01*
X0607199D01*
X0606866Y0237833D01*
Y0238500D01*
X0607533D01*
X0606200Y0237500D02*
Y0239499D01*
X0604867Y0237500D01*
Y0239499D01*
X0604200D02*
Y0237500D01*
X0603201D01*
X0602868Y0237833D01*
Y0239166D01*
X0603201Y0239499D01*
X0604200D01*
D140*
X0565191Y0283689D02*
G03*
X0565191Y0283689I-0001181J0000000D01*
G01*
D141*
X0635740Y0327410D02*
G03*
X0635740Y0327410I-0000787J0000000D01*
G01*
X0588740D02*
G03*
X0588740Y0327410I-0000787J0000000D01*
G01*
X0541740D02*
G03*
X0541740Y0327410I-0000787J0000000D01*
G01*
M02*
