G04 Layer_Physical_Order=2*
G04 Layer_Color=16711680*
%FSAX24Y24*%
%MOIN*%
G70*
G01*
G75*
%ADD12R,0.0354X0.0276*%
%ADD13R,0.0394X0.0354*%
%ADD15R,0.0354X0.0394*%
%ADD24R,0.0413X0.1634*%
%ADD25R,0.4173X0.3465*%
%ADD27C,0.0100*%
%ADD28C,0.0200*%
%ADD30C,0.0500*%
%ADD31C,0.0400*%
%ADD32C,0.0600*%
%ADD34C,0.0570*%
%ADD35C,0.0630*%
%ADD36C,0.2010*%
%ADD37C,0.0500*%
%ADD38C,0.0400*%
%ADD39C,0.0200*%
%ADD40O,0.0177X0.0551*%
%ADD41R,0.0335X0.0157*%
%ADD42R,0.0276X0.0354*%
%ADD43R,0.0453X0.1063*%
%ADD44R,0.0748X0.0532*%
%ADD45R,0.1299X0.0984*%
%ADD46R,0.0394X0.0984*%
%ADD47R,0.0906X0.0906*%
%ADD48R,0.2906X0.0961*%
%ADD49O,0.0177X0.0630*%
%ADD50R,0.0532X0.0748*%
%ADD51R,0.4200X0.4700*%
%ADD52R,0.4150X0.4650*%
G36*
X062465Y039807D02*
Y039683D01*
X062440Y039646D01*
X062425Y039573D01*
Y039120D01*
X062434Y039077D01*
X062398Y039027D01*
X062176D01*
Y039112D01*
X062075D01*
X062058Y039162D01*
X062106Y039223D01*
X062137Y039300D01*
X061800D01*
Y039400D01*
X061700D01*
Y039737D01*
X061623Y039706D01*
X061550Y039650D01*
X061501Y039586D01*
X061465Y039592D01*
X061451Y039599D01*
Y040055D01*
X058349D01*
Y039498D01*
X058075D01*
Y039573D01*
X058060Y039646D01*
X058019Y039708D01*
X057957Y039749D01*
X057884Y039764D01*
X057811Y039749D01*
X057756Y039712D01*
X057701Y039749D01*
X057628Y039764D01*
X057555Y039749D01*
X057500Y039712D01*
X057445Y039749D01*
X057372Y039764D01*
X057299Y039749D01*
X057244Y039712D01*
X057189Y039749D01*
X057160Y039755D01*
X057137Y039799D01*
X057137Y039800D01*
X056800D01*
Y040000D01*
X057137D01*
X057106Y040077D01*
X057104Y040079D01*
X057126Y040124D01*
X062148D01*
X062465Y039807D01*
D02*
G37*
G36*
X068860Y039442D02*
Y016659D01*
X068350Y016150D01*
X058233D01*
X058220Y016172D01*
X058214Y016200D01*
X058658Y016644D01*
X058700Y016626D01*
X058800Y016613D01*
X058900Y016626D01*
X058993Y016665D01*
X059073Y016727D01*
X059135Y016807D01*
X059174Y016900D01*
X059187Y017000D01*
X059174Y017100D01*
X059135Y017193D01*
X059073Y017273D01*
X058993Y017335D01*
X058900Y017374D01*
X058800Y017387D01*
X058700Y017374D01*
X058607Y017335D01*
X058527Y017273D01*
X058465Y017193D01*
X058426Y017100D01*
X058413Y017000D01*
X058426Y016900D01*
X058444Y016858D01*
X058037Y016451D01*
X056531D01*
X056512Y016498D01*
X056658Y016644D01*
X056700Y016626D01*
X056800Y016613D01*
X056900Y016626D01*
X056993Y016665D01*
X057073Y016727D01*
X057135Y016807D01*
X057174Y016900D01*
X057187Y017000D01*
X057174Y017100D01*
X057135Y017193D01*
X057127Y017204D01*
X057149Y017249D01*
X057337D01*
X057444Y017142D01*
X057426Y017100D01*
X057413Y017000D01*
X057426Y016900D01*
X057465Y016807D01*
X057527Y016727D01*
X057607Y016665D01*
X057700Y016626D01*
X057800Y016613D01*
X057900Y016626D01*
X057993Y016665D01*
X058073Y016727D01*
X058135Y016807D01*
X058174Y016900D01*
X058187Y017000D01*
X058174Y017100D01*
X058135Y017193D01*
X058073Y017273D01*
X057993Y017335D01*
X057900Y017374D01*
X057800Y017387D01*
X057700Y017374D01*
X057658Y017356D01*
X057507Y017507D01*
X057458Y017540D01*
X057400Y017551D01*
X057400Y017551D01*
X056831D01*
X056812Y017598D01*
X059111Y019897D01*
X059158Y019874D01*
X059149Y019800D01*
X059161Y019709D01*
X059196Y019624D01*
X059251Y019552D01*
X059324Y019496D01*
X059409Y019461D01*
X059500Y019449D01*
X059591Y019461D01*
X059676Y019496D01*
X059684Y019502D01*
X061759Y017427D01*
X061743Y017379D01*
X061700Y017374D01*
X061607Y017335D01*
X061527Y017273D01*
X061465Y017193D01*
X061426Y017100D01*
X061413Y017000D01*
X061426Y016900D01*
X061465Y016807D01*
X061527Y016727D01*
X061607Y016665D01*
X061700Y016626D01*
X061800Y016613D01*
X061900Y016626D01*
X061993Y016665D01*
X062073Y016727D01*
X062135Y016807D01*
X062174Y016900D01*
X062187Y017000D01*
X062174Y017100D01*
X062135Y017193D01*
X062131Y017198D01*
X062154Y017243D01*
X062446D01*
X062469Y017198D01*
X062465Y017193D01*
X062426Y017100D01*
X062413Y017000D01*
X062426Y016900D01*
X062465Y016807D01*
X062527Y016727D01*
X062607Y016665D01*
X062700Y016626D01*
X062800Y016613D01*
X062900Y016626D01*
X062993Y016665D01*
X063073Y016727D01*
X063135Y016807D01*
X063174Y016900D01*
X063174Y016906D01*
X063222Y016922D01*
X063250Y016893D01*
X063299Y016860D01*
X063357Y016849D01*
X063357Y016849D01*
X063448D01*
X063465Y016807D01*
X063527Y016727D01*
X063607Y016665D01*
X063700Y016626D01*
X063800Y016613D01*
X063900Y016626D01*
X063993Y016665D01*
X064073Y016727D01*
X064135Y016807D01*
X064174Y016900D01*
X064187Y017000D01*
X064174Y017100D01*
X064135Y017193D01*
X064073Y017273D01*
X063993Y017335D01*
X063900Y017374D01*
X063800Y017387D01*
X063700Y017374D01*
X063607Y017335D01*
X063527Y017273D01*
X063465Y017193D01*
X063459Y017178D01*
X063401Y017170D01*
X063070Y017501D01*
X063021Y017534D01*
X062963Y017545D01*
X062963Y017545D01*
X062069D01*
X059847Y019767D01*
X059851Y019800D01*
X059839Y019891D01*
X059804Y019976D01*
X059749Y020048D01*
X059676Y020104D01*
X059591Y020139D01*
X059500Y020151D01*
X059426Y020142D01*
X059403Y020189D01*
X061831Y022617D01*
X061900Y022626D01*
X061993Y022665D01*
X062073Y022727D01*
X062099Y022759D01*
X062149Y022742D01*
Y020885D01*
X062149Y020885D01*
X062160Y020827D01*
X062193Y020778D01*
X064005Y018966D01*
Y018672D01*
X064002Y018670D01*
X063955Y018656D01*
X063948Y018666D01*
X063948Y018666D01*
X063407Y019207D01*
X063358Y019240D01*
X063300Y019251D01*
X063300Y019251D01*
X061514D01*
X061504Y019276D01*
X061448Y019348D01*
X061376Y019404D01*
X061291Y019439D01*
X061200Y019451D01*
X061109Y019439D01*
X061024Y019404D01*
X060951Y019348D01*
X060896Y019276D01*
X060861Y019191D01*
X060849Y019100D01*
X060861Y019009D01*
X060896Y018924D01*
X060951Y018851D01*
X061024Y018796D01*
X061109Y018761D01*
X061200Y018749D01*
X061291Y018761D01*
X061376Y018796D01*
X061448Y018851D01*
X061504Y018924D01*
X061514Y018949D01*
X063237D01*
X063718Y018468D01*
X063734Y018444D01*
X063752Y018426D01*
X063736Y018378D01*
X063700Y018374D01*
X063607Y018335D01*
X063527Y018273D01*
X063465Y018193D01*
X063426Y018100D01*
X063413Y018000D01*
X063426Y017900D01*
X063465Y017807D01*
X063527Y017727D01*
X063607Y017665D01*
X063700Y017626D01*
X063800Y017613D01*
X063900Y017626D01*
X063993Y017665D01*
X064073Y017727D01*
X064099Y017759D01*
X064149Y017742D01*
Y017500D01*
X064149Y017500D01*
X064160Y017442D01*
X064193Y017393D01*
X064444Y017142D01*
X064426Y017100D01*
X064413Y017000D01*
X064426Y016900D01*
X064465Y016807D01*
X064527Y016727D01*
X064607Y016665D01*
X064700Y016626D01*
X064800Y016613D01*
X064900Y016626D01*
X064993Y016665D01*
X065073Y016727D01*
X065135Y016807D01*
X065174Y016900D01*
X065187Y017000D01*
X065174Y017100D01*
X065135Y017193D01*
X065073Y017273D01*
X064993Y017335D01*
X064900Y017374D01*
X064800Y017387D01*
X064700Y017374D01*
X064658Y017356D01*
X064451Y017563D01*
Y017742D01*
X064501Y017759D01*
X064527Y017727D01*
X064607Y017665D01*
X064700Y017626D01*
X064800Y017613D01*
X064900Y017626D01*
X064993Y017665D01*
X065073Y017727D01*
X065135Y017807D01*
X065174Y017900D01*
X065187Y018000D01*
X065174Y018100D01*
X065135Y018193D01*
X065073Y018273D01*
X064993Y018335D01*
X064900Y018374D01*
X064800Y018387D01*
X064700Y018374D01*
X064607Y018335D01*
X064527Y018273D01*
X064471Y018201D01*
X064470Y018201D01*
X064439Y018196D01*
X064413Y018198D01*
X064407Y018207D01*
X064407Y018207D01*
X064166Y018448D01*
X064143Y018464D01*
X064047Y018559D01*
X064068Y018609D01*
X064595D01*
Y018734D01*
X064705D01*
Y018609D01*
X065295D01*
Y018734D01*
X065405D01*
Y018609D01*
X065549D01*
Y017290D01*
X065527Y017273D01*
X065465Y017193D01*
X065426Y017100D01*
X065413Y017000D01*
X065426Y016900D01*
X065465Y016807D01*
X065527Y016727D01*
X065607Y016665D01*
X065700Y016626D01*
X065800Y016613D01*
X065900Y016626D01*
X065993Y016665D01*
X066073Y016727D01*
X066135Y016807D01*
X066174Y016900D01*
X066187Y017000D01*
X066174Y017100D01*
X066135Y017193D01*
X066073Y017273D01*
X065993Y017335D01*
X065900Y017374D01*
X065851Y017380D01*
Y018609D01*
X065995D01*
Y018734D01*
X066105D01*
Y018609D01*
X066695D01*
Y018734D01*
X066805D01*
Y018609D01*
X067395D01*
Y019161D01*
X066805D01*
Y019036D01*
X066695D01*
Y019161D01*
X066105D01*
Y019036D01*
X065995D01*
Y019161D01*
X065405D01*
Y019036D01*
X065295D01*
Y019161D01*
X064705D01*
Y019036D01*
X064595D01*
Y019161D01*
X064242D01*
X064216Y019192D01*
X064236Y019238D01*
X064597D01*
Y019415D01*
X064300D01*
Y019515D01*
X064200D01*
Y019792D01*
X064003D01*
Y019461D01*
X063957Y019442D01*
X062451Y020948D01*
Y022742D01*
X062501Y022759D01*
X062527Y022727D01*
X062607Y022665D01*
X062700Y022626D01*
X062800Y022613D01*
X062900Y022626D01*
X062942Y022644D01*
X063893Y021693D01*
X063893Y021693D01*
X063942Y021660D01*
X064000Y021649D01*
X066600D01*
X066600Y021649D01*
X066658Y021660D01*
X066707Y021693D01*
X067507Y022493D01*
X067507Y022493D01*
X067540Y022542D01*
X067551Y022600D01*
X067551Y022600D01*
Y022649D01*
X067596Y022671D01*
X067606Y022664D01*
X067699Y022625D01*
X067700Y022625D01*
Y023000D01*
Y023375D01*
X067699Y023375D01*
X067606Y023336D01*
X067596Y023329D01*
X067551Y023351D01*
Y023437D01*
X068107Y023993D01*
X068107Y023993D01*
X068140Y024042D01*
X068151Y024100D01*
Y027687D01*
X068151Y027687D01*
X068140Y027745D01*
X068107Y027794D01*
X068107Y027794D01*
X067506Y028395D01*
X067561Y028466D01*
X067603Y028567D01*
X067617Y028675D01*
X067603Y028783D01*
X067561Y028883D01*
X067495Y028970D01*
X067408Y029036D01*
X067392Y029043D01*
Y029093D01*
X067409Y029100D01*
X067496Y029166D01*
X067562Y029253D01*
X067604Y029354D01*
X067605Y029362D01*
X067200D01*
Y029562D01*
X067605D01*
X067604Y029571D01*
X067562Y029671D01*
X067548Y029690D01*
X067570Y029735D01*
X067601D01*
X067601Y029735D01*
X067659Y029746D01*
X067708Y029779D01*
X068307Y030378D01*
X068307Y030378D01*
X068340Y030427D01*
X068351Y030485D01*
Y030709D01*
X068495D01*
Y031261D01*
X068200D01*
X068182Y031304D01*
X068211Y031339D01*
X068495D01*
Y031891D01*
X067905D01*
Y031606D01*
X067555Y031256D01*
X067505Y031277D01*
Y031955D01*
X067007D01*
Y031956D01*
X066900D01*
X066900Y030122D01*
X067007D01*
Y030124D01*
X067505D01*
Y030837D01*
X067624D01*
X067702Y030852D01*
X067767Y030896D01*
X067859Y030987D01*
X067905Y030968D01*
Y030709D01*
X068049D01*
Y030548D01*
X067539Y030038D01*
X067024D01*
X066966Y030026D01*
X066917Y029993D01*
X066917Y029993D01*
X066669Y029745D01*
X066636Y029696D01*
X066625Y029638D01*
X066625Y029638D01*
Y026404D01*
X066575Y026373D01*
X066550Y026383D01*
Y026100D01*
Y025817D01*
X066575Y025827D01*
X066625Y025796D01*
Y025475D01*
X066456Y025306D01*
X065656D01*
X065651Y025311D01*
X065578Y025341D01*
X065500Y025351D01*
X065422Y025341D01*
X065349Y025311D01*
X065287Y025263D01*
X065239Y025201D01*
X065209Y025128D01*
X065199Y025050D01*
X065209Y024972D01*
X065239Y024899D01*
X065287Y024837D01*
X065349Y024789D01*
X065422Y024759D01*
X065500Y024749D01*
X065578Y024759D01*
X065651Y024789D01*
X065713Y024837D01*
X065761Y024899D01*
X065791Y024972D01*
X065795Y025004D01*
X066519D01*
X066519Y025004D01*
X066577Y025015D01*
X066626Y025048D01*
X066836Y025258D01*
X066886Y025255D01*
X066905Y025230D01*
X066992Y025164D01*
X067010Y025157D01*
Y025106D01*
X066992Y025099D01*
X066905Y025033D01*
X066839Y024946D01*
X066797Y024846D01*
X066783Y024738D01*
X066797Y024630D01*
X066821Y024573D01*
X066200Y023951D01*
X065799D01*
X065793Y023964D01*
X065786Y024001D01*
X065850Y024050D01*
X065906Y024123D01*
X065937Y024200D01*
X065263D01*
X065294Y024123D01*
X065350Y024050D01*
X065414Y024001D01*
X065407Y023964D01*
X065401Y023951D01*
X062649D01*
X060993Y025607D01*
X060944Y025640D01*
X060886Y025651D01*
X060886Y025651D01*
X060303D01*
X060284Y025698D01*
X060549Y025962D01*
X060592Y026028D01*
X060608Y026106D01*
Y026110D01*
X060701D01*
Y027291D01*
X060429D01*
X060384Y027303D01*
X060384Y027341D01*
Y027500D01*
X060107D01*
Y027600D01*
X060007D01*
Y027897D01*
X059921D01*
X059874Y027904D01*
X059874Y027947D01*
Y028170D01*
X058926D01*
Y027905D01*
X058924Y027904D01*
X058851Y027848D01*
X058796Y027776D01*
X058761Y027691D01*
X058749Y027600D01*
X058761Y027509D01*
X058796Y027424D01*
X058851Y027352D01*
X058863Y027343D01*
X058846Y027293D01*
X058694D01*
Y026801D01*
X058891D01*
Y027258D01*
X058900Y027268D01*
X058941Y027289D01*
X059009Y027261D01*
X059100Y027249D01*
X059155Y027256D01*
X059205Y027215D01*
Y026110D01*
X059795D01*
Y027267D01*
X059826Y027299D01*
X059840Y027303D01*
X060065D01*
X060110Y027291D01*
X060110Y027253D01*
Y026110D01*
X060110Y026110D01*
X060110D01*
X060085Y026071D01*
X059716Y025702D01*
X058784D01*
X058748Y025749D01*
X058676Y025804D01*
X058591Y025839D01*
X058500Y025851D01*
X058409Y025839D01*
X058324Y025804D01*
X058252Y025749D01*
X058196Y025676D01*
X058161Y025591D01*
X058149Y025500D01*
X058161Y025409D01*
X058196Y025324D01*
X058252Y025252D01*
X058324Y025196D01*
X058409Y025161D01*
X058500Y025149D01*
X058591Y025161D01*
X058676Y025196D01*
X058748Y025252D01*
X058784Y025298D01*
X059800D01*
X059877Y025313D01*
X059931Y025349D01*
X060823D01*
X062479Y023693D01*
X062528Y023660D01*
X062586Y023649D01*
X062586Y023649D01*
X065040D01*
X065052Y023631D01*
X065059Y023599D01*
X064842Y023381D01*
X064800Y023387D01*
X064700Y023374D01*
X064607Y023335D01*
X064527Y023273D01*
X064465Y023193D01*
X064426Y023100D01*
X064413Y023000D01*
X064426Y022900D01*
X064465Y022807D01*
X064527Y022727D01*
X064607Y022665D01*
X064700Y022626D01*
X064800Y022613D01*
X064900Y022626D01*
X064993Y022665D01*
X065008Y022676D01*
X065043Y022640D01*
X064994Y022577D01*
X064963Y022500D01*
X065637D01*
X065606Y022577D01*
X065557Y022640D01*
X065592Y022676D01*
X065607Y022665D01*
X065700Y022626D01*
X065800Y022613D01*
X065900Y022626D01*
X065993Y022665D01*
X066073Y022727D01*
X066135Y022807D01*
X066174Y022900D01*
X066187Y023000D01*
X066174Y023100D01*
X066135Y023193D01*
X066073Y023273D01*
X066041Y023299D01*
X066058Y023349D01*
X066542D01*
X066559Y023299D01*
X066527Y023273D01*
X066465Y023193D01*
X066426Y023100D01*
X066413Y023000D01*
X066426Y022900D01*
X066465Y022807D01*
X066527Y022727D01*
X066607Y022665D01*
X066700Y022626D01*
X066743Y022621D01*
X066759Y022573D01*
X066337Y022151D01*
X065607D01*
X065585Y022196D01*
X065606Y022223D01*
X065637Y022300D01*
X064963D01*
X064994Y022223D01*
X065015Y022196D01*
X064993Y022151D01*
X064863D01*
X064156Y022858D01*
X064174Y022900D01*
X064187Y023000D01*
X064174Y023100D01*
X064135Y023193D01*
X064073Y023273D01*
X063993Y023335D01*
X063900Y023374D01*
X063800Y023387D01*
X063700Y023374D01*
X063607Y023335D01*
X063527Y023273D01*
X063465Y023193D01*
X063426Y023100D01*
X063413Y023000D01*
X063426Y022900D01*
X063465Y022807D01*
X063527Y022727D01*
X063607Y022665D01*
X063700Y022626D01*
X063800Y022613D01*
X063900Y022626D01*
X063942Y022644D01*
X064588Y021998D01*
X064569Y021951D01*
X064063D01*
X063156Y022858D01*
X063174Y022900D01*
X063187Y023000D01*
X063174Y023100D01*
X063135Y023193D01*
X063073Y023273D01*
X062993Y023335D01*
X062900Y023374D01*
X062800Y023387D01*
X062700Y023374D01*
X062607Y023335D01*
X062527Y023273D01*
X062465Y023193D01*
X062455Y023169D01*
X062453Y023169D01*
X062401Y023170D01*
X061964Y023607D01*
X061915Y023640D01*
X061857Y023651D01*
X061857Y023651D01*
X061707D01*
X061685Y023696D01*
X061706Y023723D01*
X061737Y023800D01*
X061063D01*
X061094Y023723D01*
X061115Y023696D01*
X061093Y023651D01*
X060362D01*
X060248Y023765D01*
Y024148D01*
X060499D01*
X060499Y024148D01*
X060557Y024159D01*
X060601Y024189D01*
X060609Y024186D01*
X060700Y024174D01*
X060791Y024186D01*
X060876Y024221D01*
X060949Y024276D01*
X061004Y024349D01*
X061039Y024434D01*
X061051Y024525D01*
X061039Y024616D01*
X061004Y024701D01*
X060949Y024773D01*
X060876Y024829D01*
X060791Y024864D01*
X060700Y024876D01*
X060609Y024864D01*
X060524Y024829D01*
X060451Y024773D01*
X060396Y024701D01*
X060361Y024616D01*
X060349Y024525D01*
X060353Y024488D01*
X060320Y024451D01*
X060248D01*
Y024890D01*
X058752D01*
Y023765D01*
X058638Y023651D01*
X056600D01*
X056600Y023651D01*
X056542Y023640D01*
X056493Y023607D01*
X056193Y023307D01*
X056160Y023258D01*
X056158Y023246D01*
X056104Y023233D01*
X056073Y023273D01*
X055993Y023335D01*
X055900Y023374D01*
X055800Y023387D01*
X055700Y023374D01*
X055658Y023356D01*
X055407Y023607D01*
X055376Y023628D01*
X055391Y023678D01*
X056044D01*
Y024094D01*
X056051Y024150D01*
Y027006D01*
X056172D01*
Y027734D01*
X055834D01*
X055676Y027893D01*
X055592Y027957D01*
X055495Y027997D01*
X055391Y028011D01*
X055287Y027997D01*
X055190Y027957D01*
X055107Y027893D01*
X055043Y027810D01*
X055003Y027713D01*
X055000Y027689D01*
X055000Y027600D01*
X055000Y027600D01*
Y027567D01*
X054997Y027548D01*
X055003Y027505D01*
X055043Y027408D01*
X055107Y027324D01*
X055228Y027204D01*
Y027006D01*
X055349D01*
Y026922D01*
X055316D01*
Y025978D01*
X055349D01*
Y025772D01*
X055316D01*
Y024828D01*
X055349D01*
Y024622D01*
X055316D01*
Y023699D01*
X055307Y023671D01*
X055277Y023651D01*
X054826D01*
X054786Y023676D01*
Y024050D01*
X054420D01*
Y024150D01*
X054320D01*
Y024624D01*
X054151D01*
Y024826D01*
X054320D01*
Y025200D01*
X054054D01*
Y025137D01*
X054008Y025118D01*
X052665Y026461D01*
X052691Y026522D01*
X052701Y026600D01*
X052691Y026678D01*
X052661Y026751D01*
X052613Y026813D01*
X052551Y026861D01*
X052478Y026891D01*
X052400Y026901D01*
X052322Y026891D01*
X052249Y026861D01*
X052187Y026813D01*
X052139Y026751D01*
X052109Y026678D01*
X052099Y026600D01*
X052109Y026522D01*
X052139Y026449D01*
X052187Y026387D01*
X052211Y026369D01*
Y026306D01*
X052187Y026288D01*
X052139Y026226D01*
X052109Y026153D01*
X052099Y026075D01*
X052109Y025997D01*
X052139Y025924D01*
X052187Y025862D01*
X052249Y025814D01*
X052322Y025784D01*
X052400Y025774D01*
X052478Y025784D01*
X052551Y025814D01*
X052577Y025834D01*
X052913Y025498D01*
X052894Y025451D01*
X052714D01*
X052704Y025476D01*
X052649Y025549D01*
X052576Y025604D01*
X052491Y025639D01*
X052400Y025651D01*
X052309Y025639D01*
X052224Y025604D01*
X052151Y025549D01*
X052096Y025476D01*
X052061Y025391D01*
X052049Y025300D01*
X052061Y025209D01*
X052096Y025124D01*
X052151Y025052D01*
X052224Y024996D01*
X052309Y024961D01*
X052400Y024949D01*
X052491Y024961D01*
X052576Y024996D01*
X052649Y025052D01*
X052704Y025124D01*
X052714Y025149D01*
X053037D01*
X053243Y024943D01*
X053221Y024898D01*
X053200Y024901D01*
X053092Y024886D01*
X052991Y024845D01*
X052905Y024779D01*
X052839Y024692D01*
X052797Y024592D01*
X052783Y024484D01*
X052797Y024376D01*
X052839Y024275D01*
X052905Y024189D01*
X052991Y024123D01*
X053013Y024114D01*
Y024064D01*
X052991Y024055D01*
X052905Y023989D01*
X052839Y023902D01*
X052797Y023802D01*
X052783Y023694D01*
X052797Y023586D01*
X052839Y023485D01*
X052905Y023399D01*
X052991Y023333D01*
X053010Y023325D01*
Y023275D01*
X052991Y023267D01*
X052905Y023201D01*
X052839Y023115D01*
X052797Y023014D01*
X052783Y022906D01*
X052797Y022798D01*
X052839Y022698D01*
X052905Y022611D01*
X052991Y022545D01*
X053008Y022538D01*
Y022488D01*
X052991Y022481D01*
X052904Y022415D01*
X052838Y022328D01*
X052796Y022227D01*
X052795Y022219D01*
X053200D01*
X053605D01*
X053604Y022227D01*
X053562Y022328D01*
X053496Y022415D01*
X053409Y022481D01*
X053392Y022488D01*
Y022538D01*
X053408Y022545D01*
X053495Y022611D01*
X053561Y022698D01*
X053603Y022798D01*
X053617Y022906D01*
X053603Y023014D01*
X053561Y023115D01*
X053495Y023201D01*
X053408Y023267D01*
X053390Y023275D01*
Y023325D01*
X053408Y023333D01*
X053457Y023369D01*
X053517Y023369D01*
X054493Y022393D01*
X054493Y022393D01*
X054542Y022360D01*
X054554Y022358D01*
X054567Y022304D01*
X054527Y022273D01*
X054465Y022193D01*
X054426Y022100D01*
X054413Y022000D01*
X054426Y021900D01*
X054465Y021807D01*
X054527Y021727D01*
X054607Y021665D01*
X054700Y021626D01*
X054800Y021613D01*
X054900Y021626D01*
X054993Y021665D01*
X055073Y021727D01*
X055135Y021807D01*
X055174Y021900D01*
X055187Y022000D01*
X055174Y022100D01*
X055135Y022193D01*
X055073Y022273D01*
X055041Y022299D01*
X055058Y022349D01*
X055869D01*
X055888Y022302D01*
X054942Y021356D01*
X054900Y021374D01*
X054800Y021387D01*
X054700Y021374D01*
X054607Y021335D01*
X054527Y021273D01*
X054465Y021193D01*
X054426Y021100D01*
X054413Y021000D01*
X054426Y020900D01*
X054444Y020858D01*
X054237Y020651D01*
X053864D01*
X053819Y020660D01*
X053819Y020660D01*
X053094D01*
X053094Y020660D01*
X053036Y020649D01*
X052987Y020616D01*
X052987Y020616D01*
X052866Y020495D01*
X052509D01*
Y020128D01*
X052500Y020121D01*
Y019900D01*
X052727D01*
X052730Y019905D01*
X053061D01*
Y020261D01*
X053096Y020290D01*
X053139Y020272D01*
Y019905D01*
X053647D01*
X053691Y019899D01*
X053768Y019909D01*
X053841Y019939D01*
X053903Y019987D01*
X053951Y020050D01*
X053981Y020122D01*
X053992Y020200D01*
X053981Y020278D01*
X053969Y020307D01*
X053997Y020349D01*
X054300D01*
X054300Y020349D01*
X054358Y020360D01*
X054407Y020393D01*
X054658Y020644D01*
X054700Y020626D01*
X054800Y020613D01*
X054900Y020626D01*
X054993Y020665D01*
X055002Y020672D01*
X055055Y020650D01*
X055061Y020609D01*
X055096Y020524D01*
X055152Y020452D01*
X055224Y020396D01*
X055309Y020361D01*
X055400Y020349D01*
X055491Y020361D01*
X055545Y020383D01*
X055590Y020348D01*
X055590Y020341D01*
X055601Y020250D01*
X055637Y020165D01*
X055692Y020092D01*
X055765Y020037D01*
X055850Y020001D01*
X055941Y019990D01*
X056032Y020001D01*
X056117Y020037D01*
X056189Y020092D01*
X056245Y020165D01*
X056255Y020190D01*
X057141D01*
X057141Y020190D01*
X057199Y020201D01*
X057248Y020234D01*
X059658Y022644D01*
X059700Y022626D01*
X059800Y022613D01*
X059900Y022626D01*
X059993Y022665D01*
X060073Y022727D01*
X060135Y022807D01*
X060174Y022900D01*
X060187Y023000D01*
X060174Y023100D01*
X060135Y023193D01*
X060073Y023273D01*
X059993Y023335D01*
X059900Y023374D01*
X059800Y023387D01*
X059700Y023374D01*
X059607Y023335D01*
X059527Y023273D01*
X059465Y023193D01*
X059426Y023100D01*
X059413Y023000D01*
X059426Y022900D01*
X059444Y022858D01*
X057078Y020492D01*
X056306D01*
X056302Y020499D01*
X056330Y020549D01*
X056500D01*
X056500Y020549D01*
X056558Y020560D01*
X056607Y020593D01*
X058658Y022644D01*
X058700Y022626D01*
X058800Y022613D01*
X058900Y022626D01*
X058993Y022665D01*
X059073Y022727D01*
X059135Y022807D01*
X059174Y022900D01*
X059187Y023000D01*
X059174Y023100D01*
X059135Y023193D01*
X059073Y023273D01*
X058993Y023335D01*
X058900Y023374D01*
X058864Y023378D01*
X058846Y023431D01*
X059123Y023709D01*
X059877D01*
X060192Y023393D01*
X060192Y023393D01*
X060241Y023360D01*
X060299Y023349D01*
X060542D01*
X060559Y023299D01*
X060527Y023273D01*
X060465Y023193D01*
X060426Y023100D01*
X060413Y023000D01*
X060426Y022900D01*
X060465Y022807D01*
X060527Y022727D01*
X060607Y022665D01*
X060700Y022626D01*
X060800Y022613D01*
X060900Y022626D01*
X060993Y022665D01*
X061073Y022727D01*
X061135Y022807D01*
X061174Y022900D01*
X061187Y023000D01*
X061174Y023100D01*
X061135Y023193D01*
X061073Y023273D01*
X061041Y023299D01*
X061058Y023349D01*
X061542D01*
X061559Y023299D01*
X061527Y023273D01*
X061465Y023193D01*
X061426Y023100D01*
X061413Y023000D01*
X061426Y022900D01*
X061465Y022807D01*
X061520Y022734D01*
X056660Y017874D01*
X056613Y017893D01*
Y018000D01*
X056476D01*
Y017823D01*
X056515D01*
X056539Y017773D01*
X056523Y017751D01*
X055149D01*
X055127Y017796D01*
X055135Y017807D01*
X055174Y017900D01*
X055180Y017949D01*
X055588D01*
Y017824D01*
X056061D01*
Y018376D01*
X055976D01*
Y018505D01*
X056061D01*
Y018928D01*
X056092Y018954D01*
X056138Y018934D01*
Y018900D01*
X056315D01*
Y019097D01*
X056291D01*
X056272Y019143D01*
X056334Y019205D01*
X056691D01*
Y019795D01*
X056139D01*
Y019439D01*
X056104Y019410D01*
X056061Y019428D01*
Y019795D01*
X055688D01*
X055676Y019804D01*
X055591Y019839D01*
X055500Y019851D01*
X055409Y019839D01*
X055324Y019804D01*
X055251Y019749D01*
X055196Y019676D01*
X055161Y019591D01*
X055149Y019500D01*
X055161Y019409D01*
X055196Y019324D01*
X055251Y019252D01*
X055324Y019196D01*
X055409Y019161D01*
X055500Y019149D01*
X055591Y019161D01*
X055676Y019196D01*
X055688Y019205D01*
X055840D01*
X055859Y019159D01*
X055796Y019095D01*
X055509D01*
Y018505D01*
X055673D01*
Y018376D01*
X055588D01*
Y018251D01*
X055090D01*
X055073Y018273D01*
X054993Y018335D01*
X054900Y018374D01*
X054800Y018387D01*
X054700Y018374D01*
X054607Y018335D01*
X054527Y018273D01*
X054465Y018193D01*
X054426Y018100D01*
X054413Y018000D01*
X054414Y017995D01*
X054369Y017973D01*
X053730Y018612D01*
X053681Y018645D01*
X053623Y018656D01*
X053623Y018656D01*
X053443D01*
X053341Y018759D01*
X053360Y018805D01*
X053647D01*
X053691Y018799D01*
X053768Y018809D01*
X053841Y018839D01*
X053903Y018887D01*
X053951Y018950D01*
X053981Y019022D01*
X053992Y019100D01*
X053981Y019178D01*
X053951Y019251D01*
X053903Y019313D01*
X053841Y019361D01*
X053768Y019391D01*
X053691Y019401D01*
X053647Y019395D01*
X053139D01*
Y019028D01*
X053096Y019010D01*
X053061Y019039D01*
Y019395D01*
X052509D01*
Y018805D01*
X052866D01*
X053273Y018398D01*
X053273Y018398D01*
X053322Y018365D01*
X053380Y018353D01*
X053523D01*
X053528Y018345D01*
X053502Y018295D01*
X053139D01*
Y017928D01*
X053096Y017910D01*
X053061Y017939D01*
Y018295D01*
X052509D01*
Y017705D01*
X052866D01*
X053278Y017293D01*
X053278Y017293D01*
X053327Y017260D01*
X053385Y017249D01*
X053609D01*
X053627Y017199D01*
X053623Y017195D01*
X053139D01*
Y016828D01*
X053096Y016810D01*
X053061Y016839D01*
Y017195D01*
X052509D01*
Y016605D01*
X052866D01*
X052973Y016498D01*
X052954Y016451D01*
X052363D01*
X051883Y016931D01*
Y033162D01*
X051923Y033187D01*
X051933Y033187D01*
X052100D01*
Y033424D01*
X052300D01*
Y033187D01*
X052477D01*
Y033195D01*
X052515Y033224D01*
X052527Y033224D01*
X056885D01*
Y036886D01*
X056850D01*
Y038000D01*
X056843Y038038D01*
X056821Y038071D01*
X056788Y038093D01*
X056750Y038100D01*
X056677D01*
Y038224D01*
X056123D01*
Y038100D01*
X055513D01*
X055508Y038150D01*
X055558Y038160D01*
X055607Y038193D01*
X056078Y038664D01*
X056124Y038645D01*
Y038639D01*
X056676D01*
Y038724D01*
X057220D01*
X057220Y038724D01*
X057220Y038724D01*
X057674D01*
X057696Y038679D01*
X057694Y038677D01*
X057663Y038600D01*
X058337D01*
X058306Y038677D01*
X058303Y038679D01*
X058326Y038724D01*
X061624D01*
Y038639D01*
X062176D01*
Y038724D01*
X062776D01*
X062776Y038724D01*
X062833Y038736D01*
X062883Y038769D01*
X062979Y038865D01*
X062979Y038865D01*
X063011Y038913D01*
X063025Y038932D01*
X063055Y038944D01*
X063128Y038929D01*
X063201Y038944D01*
X063256Y038981D01*
X063311Y038944D01*
X063384Y038929D01*
X063457Y038944D01*
X063519Y038985D01*
X063560Y039047D01*
X063575Y039120D01*
Y039195D01*
X063849D01*
Y038898D01*
X066951D01*
Y040055D01*
X063849D01*
Y039498D01*
X063575D01*
Y039573D01*
X063560Y039646D01*
X063519Y039708D01*
X063457Y039749D01*
X063384Y039764D01*
X063311Y039749D01*
X063256Y039712D01*
X063201Y039749D01*
X063128Y039764D01*
X063055Y039749D01*
X063000Y039712D01*
X062945Y039749D01*
X062872Y039764D01*
X062817Y039753D01*
X062767Y039783D01*
Y039870D01*
X062767Y039870D01*
X062756Y039928D01*
X062723Y039977D01*
X062723Y039977D01*
X062317Y040383D01*
X062268Y040415D01*
X062210Y040427D01*
X062210Y040427D01*
X056176D01*
Y040512D01*
X055624D01*
Y040427D01*
X055375D01*
Y040494D01*
X055360Y040567D01*
X055319Y040629D01*
X055257Y040670D01*
X055184Y040685D01*
X055111Y040670D01*
X055057Y040634D01*
X055028Y040654D01*
Y040597D01*
X055008Y040567D01*
X054993Y040494D01*
Y040307D01*
Y040120D01*
X055008Y040047D01*
X055028Y040017D01*
Y039960D01*
X055057Y039980D01*
X055111Y039944D01*
X055184Y039929D01*
X055257Y039944D01*
X055319Y039985D01*
X055360Y040047D01*
X055375Y040120D01*
Y040124D01*
X055624D01*
Y040039D01*
X056123D01*
Y039962D01*
X056000D01*
Y039724D01*
X055900D01*
Y039624D01*
X055623D01*
Y039498D01*
X055446D01*
X055446Y039498D01*
X055389Y039486D01*
X055339Y039453D01*
X055339Y039453D01*
X055077Y039191D01*
X055044Y039142D01*
X055044Y039141D01*
X055023Y039129D01*
X054990Y039124D01*
X054389Y039725D01*
X054408Y039771D01*
X054498D01*
X054498Y039771D01*
X054556Y039783D01*
X054605Y039815D01*
X054731Y039941D01*
X054745Y039944D01*
X054799Y039980D01*
X054828Y039960D01*
Y040017D01*
X054848Y040047D01*
X054863Y040120D01*
Y040307D01*
Y040494D01*
X054848Y040567D01*
X054828Y040597D01*
Y040654D01*
X054799Y040634D01*
X054745Y040670D01*
X054672Y040685D01*
X054599Y040670D01*
X054544Y040634D01*
X054489Y040670D01*
X054416Y040685D01*
X054343Y040670D01*
X054281Y040629D01*
X054240Y040567D01*
X054225Y040494D01*
Y040351D01*
X053877D01*
Y040404D01*
X053600D01*
X053323D01*
Y040351D01*
X052725D01*
X052701Y040375D01*
X052652Y040408D01*
X052594Y040419D01*
X052594Y040419D01*
X052039D01*
X052018Y040469D01*
X052508Y040960D01*
X067342D01*
X068860Y039442D01*
D02*
G37*
%LPC*%
G36*
X063000Y021100D02*
X062763D01*
X062794Y021023D01*
X062850Y020950D01*
X062923Y020894D01*
X063000Y020863D01*
Y021100D01*
D02*
G37*
G36*
X067187Y021050D02*
X066950D01*
Y020813D01*
X067027Y020844D01*
X067100Y020900D01*
X067156Y020973D01*
X067187Y021050D01*
D02*
G37*
G36*
X066750D02*
X066513D01*
X066544Y020973D01*
X066600Y020900D01*
X066673Y020844D01*
X066750Y020813D01*
Y021050D01*
D02*
G37*
G36*
X063437Y021100D02*
X063200D01*
Y020863D01*
X063277Y020894D01*
X063350Y020950D01*
X063406Y021023D01*
X063437Y021100D01*
D02*
G37*
G36*
X059537Y021200D02*
X059300D01*
Y020963D01*
X059377Y020994D01*
X059450Y021050D01*
X059506Y021123D01*
X059537Y021200D01*
D02*
G37*
G36*
X052300Y021487D02*
X052223Y021456D01*
X052150Y021400D01*
X052094Y021327D01*
X052063Y021250D01*
X052300D01*
Y021487D01*
D02*
G37*
G36*
X059100Y021200D02*
X058863D01*
X058894Y021123D01*
X058950Y021050D01*
X059023Y020994D01*
X059100Y020963D01*
Y021200D01*
D02*
G37*
G36*
X061200Y021137D02*
X061123Y021106D01*
X061050Y021050D01*
X060994Y020977D01*
X060963Y020900D01*
X061200D01*
Y021137D01*
D02*
G37*
G36*
X061400D02*
Y020900D01*
X061637D01*
X061606Y020977D01*
X061550Y021050D01*
X061477Y021106D01*
X061400Y021137D01*
D02*
G37*
G36*
X052737Y021050D02*
X052500D01*
Y020813D01*
X052577Y020844D01*
X052650Y020900D01*
X052706Y020973D01*
X052737Y021050D01*
D02*
G37*
G36*
X057700Y020037D02*
Y019800D01*
X057937D01*
X057906Y019877D01*
X057850Y019950D01*
X057777Y020006D01*
X057700Y020037D01*
D02*
G37*
G36*
X052300Y020083D02*
X052249Y020062D01*
X052186Y020014D01*
X052138Y019951D01*
X052117Y019900D01*
X052300D01*
Y020083D01*
D02*
G37*
G36*
X055175Y019900D02*
X054900D01*
Y019625D01*
X054901Y019625D01*
X054994Y019664D01*
X055075Y019725D01*
X055136Y019806D01*
X055175Y019899D01*
X055175Y019900D01*
D02*
G37*
G36*
X057500Y020037D02*
X057423Y020006D01*
X057350Y019950D01*
X057294Y019877D01*
X057263Y019800D01*
X057500D01*
Y020037D01*
D02*
G37*
G36*
X054700Y020375D02*
X054699Y020375D01*
X054606Y020336D01*
X054525Y020275D01*
X054464Y020194D01*
X054425Y020101D01*
X054425Y020100D01*
X054700D01*
Y020375D01*
D02*
G37*
G36*
X061637Y020700D02*
X061400D01*
Y020463D01*
X061477Y020494D01*
X061550Y020550D01*
X061606Y020623D01*
X061637Y020700D01*
D02*
G37*
G36*
X052300Y021050D02*
X052063D01*
X052094Y020973D01*
X052150Y020900D01*
X052223Y020844D01*
X052300Y020813D01*
Y021050D01*
D02*
G37*
G36*
X054900Y020375D02*
Y020100D01*
X055175D01*
X055175Y020101D01*
X055136Y020194D01*
X055075Y020275D01*
X054994Y020336D01*
X054901Y020375D01*
X054900Y020375D01*
D02*
G37*
G36*
X061200Y020700D02*
X060963D01*
X060994Y020623D01*
X061050Y020550D01*
X061123Y020494D01*
X061200Y020463D01*
Y020700D01*
D02*
G37*
G36*
X052500Y021487D02*
Y021250D01*
X052737D01*
X052706Y021327D01*
X052650Y021400D01*
X052577Y021456D01*
X052500Y021487D01*
D02*
G37*
G36*
X061500Y024237D02*
Y024000D01*
X061737D01*
X061706Y024077D01*
X061650Y024150D01*
X061577Y024206D01*
X061500Y024237D01*
D02*
G37*
G36*
X060200Y030051D02*
X060142Y030040D01*
X060093Y030007D01*
X060060Y029958D01*
X060049Y029900D01*
Y028600D01*
X060049Y028600D01*
X060060Y028542D01*
X060093Y028493D01*
X060849Y027737D01*
Y026100D01*
X060849Y026100D01*
X060860Y026042D01*
X060893Y025993D01*
X062393Y024493D01*
X062393Y024493D01*
X062423Y024473D01*
Y024387D01*
X062823D01*
X062850Y024350D01*
X062923Y024294D01*
X063009Y024259D01*
X063100Y024247D01*
X063191Y024259D01*
X063277Y024294D01*
X063350Y024350D01*
X063404Y024421D01*
X063605D01*
Y024779D01*
X063404D01*
X063350Y024850D01*
X063277Y024906D01*
X063191Y024941D01*
X063100Y024953D01*
X063027Y024943D01*
X062986Y024970D01*
X062977Y024982D01*
Y025076D01*
X062423D01*
Y024979D01*
X062423Y024962D01*
X062373Y024941D01*
X061151Y026163D01*
Y027800D01*
X061151Y027800D01*
X061140Y027858D01*
X061107Y027907D01*
X061107Y027907D01*
X060351Y028663D01*
Y029900D01*
X060340Y029958D01*
X060307Y030007D01*
X060258Y030040D01*
X060200Y030051D01*
D02*
G37*
G36*
X056700Y025151D02*
X056609Y025139D01*
X056524Y025104D01*
X056452Y025048D01*
X056396Y024976D01*
X056361Y024891D01*
X056349Y024800D01*
X056361Y024709D01*
X056396Y024624D01*
X056452Y024551D01*
X056524Y024496D01*
X056549Y024485D01*
Y023863D01*
X057651D01*
Y024965D01*
X057009D01*
X057004Y024976D01*
X056948Y025048D01*
X056876Y025104D01*
X056791Y025139D01*
X056700Y025151D01*
D02*
G37*
G36*
X061300Y024237D02*
X061223Y024206D01*
X061150Y024150D01*
X061094Y024077D01*
X061063Y024000D01*
X061300D01*
Y024237D01*
D02*
G37*
G36*
X054786Y024624D02*
X054520D01*
Y024250D01*
X054786D01*
Y024624D01*
D02*
G37*
G36*
X064163Y024500D02*
X063995D01*
Y024421D01*
X064163D01*
Y024500D01*
D02*
G37*
G36*
X064530D02*
X064363D01*
Y024421D01*
X064530D01*
Y024500D01*
D02*
G37*
G36*
X065500Y024637D02*
X065423Y024606D01*
X065350Y024550D01*
X065294Y024477D01*
X065263Y024400D01*
X065500D01*
Y024637D01*
D02*
G37*
G36*
X065700D02*
Y024400D01*
X065937D01*
X065906Y024477D01*
X065850Y024550D01*
X065777Y024606D01*
X065700Y024637D01*
D02*
G37*
G36*
X067900Y023375D02*
Y023100D01*
X068175D01*
X068175Y023101D01*
X068136Y023194D01*
X068075Y023275D01*
X067994Y023336D01*
X067901Y023375D01*
X067900Y023375D01*
D02*
G37*
G36*
X063000Y021537D02*
X062923Y021506D01*
X062850Y021450D01*
X062794Y021377D01*
X062763Y021300D01*
X063000D01*
Y021537D01*
D02*
G37*
G36*
X063200D02*
Y021300D01*
X063437D01*
X063406Y021377D01*
X063350Y021450D01*
X063277Y021506D01*
X063200Y021537D01*
D02*
G37*
G36*
X066750Y021487D02*
X066673Y021456D01*
X066600Y021400D01*
X066544Y021327D01*
X066513Y021250D01*
X066750D01*
Y021487D01*
D02*
G37*
G36*
X066950D02*
Y021250D01*
X067187D01*
X067156Y021327D01*
X067100Y021400D01*
X067027Y021456D01*
X066950Y021487D01*
D02*
G37*
G36*
X059100Y021637D02*
X059023Y021606D01*
X058950Y021550D01*
X058894Y021477D01*
X058863Y021400D01*
X059100D01*
Y021637D01*
D02*
G37*
G36*
X053605Y022019D02*
X053300D01*
Y021713D01*
X053308Y021715D01*
X053409Y021756D01*
X053496Y021823D01*
X053562Y021910D01*
X053604Y022011D01*
X053605Y022019D01*
D02*
G37*
G36*
X068175Y022900D02*
X067900D01*
Y022625D01*
X067901Y022625D01*
X067994Y022664D01*
X068075Y022725D01*
X068136Y022806D01*
X068175Y022899D01*
X068175Y022900D01*
D02*
G37*
G36*
X059300Y021637D02*
Y021400D01*
X059537D01*
X059506Y021477D01*
X059450Y021550D01*
X059377Y021606D01*
X059300Y021637D01*
D02*
G37*
G36*
X053100Y022019D02*
X052795D01*
X052796Y022011D01*
X052838Y021910D01*
X052904Y021823D01*
X052991Y021756D01*
X053092Y021715D01*
X053100Y021713D01*
Y022019D01*
D02*
G37*
G36*
X056613Y018377D02*
X056476D01*
Y018200D01*
X056613D01*
Y018377D01*
D02*
G37*
G36*
X056315Y018700D02*
X056138D01*
Y018503D01*
X056315D01*
Y018700D01*
D02*
G37*
G36*
X058700Y018437D02*
Y018200D01*
X058937D01*
X058906Y018277D01*
X058850Y018350D01*
X058777Y018406D01*
X058700Y018437D01*
D02*
G37*
G36*
X056276Y018377D02*
X056138D01*
Y018200D01*
X056276D01*
Y018377D01*
D02*
G37*
G36*
X056692Y018700D02*
X056515D01*
Y018503D01*
X056692D01*
Y018700D01*
D02*
G37*
G36*
X064900Y019415D02*
X064703D01*
Y019238D01*
X064900D01*
Y019415D01*
D02*
G37*
G36*
X065297D02*
X065100D01*
Y019238D01*
X065297D01*
Y019415D01*
D02*
G37*
G36*
X054800Y019387D02*
X054700Y019374D01*
X054607Y019335D01*
X054527Y019273D01*
X054465Y019193D01*
X054426Y019100D01*
X054413Y019000D01*
X054426Y018900D01*
X054465Y018807D01*
X054527Y018727D01*
X054607Y018665D01*
X054700Y018626D01*
X054800Y018613D01*
X054900Y018626D01*
X054993Y018665D01*
X055073Y018727D01*
X055135Y018807D01*
X055174Y018900D01*
X055187Y019000D01*
X055174Y019100D01*
X055135Y019193D01*
X055073Y019273D01*
X054993Y019335D01*
X054900Y019374D01*
X054800Y019387D01*
D02*
G37*
G36*
X056692Y019097D02*
X056515D01*
Y018900D01*
X056692D01*
Y019097D01*
D02*
G37*
G36*
X058500Y018437D02*
X058423Y018406D01*
X058350Y018350D01*
X058294Y018277D01*
X058263Y018200D01*
X058500D01*
Y018437D01*
D02*
G37*
G36*
X066800Y017387D02*
X066700Y017374D01*
X066607Y017335D01*
X066527Y017273D01*
X066465Y017193D01*
X066426Y017100D01*
X066413Y017000D01*
X066426Y016900D01*
X066465Y016807D01*
X066527Y016727D01*
X066607Y016665D01*
X066700Y016626D01*
X066800Y016613D01*
X066900Y016626D01*
X066993Y016665D01*
X067073Y016727D01*
X067135Y016807D01*
X067174Y016900D01*
X067187Y017000D01*
X067174Y017100D01*
X067135Y017193D01*
X067073Y017273D01*
X066993Y017335D01*
X066900Y017374D01*
X066800Y017387D01*
D02*
G37*
G36*
X067800D02*
X067700Y017374D01*
X067607Y017335D01*
X067527Y017273D01*
X067465Y017193D01*
X067426Y017100D01*
X067413Y017000D01*
X067426Y016900D01*
X067465Y016807D01*
X067527Y016727D01*
X067607Y016665D01*
X067700Y016626D01*
X067800Y016613D01*
X067900Y016626D01*
X067993Y016665D01*
X068073Y016727D01*
X068135Y016807D01*
X068174Y016900D01*
X068187Y017000D01*
X068174Y017100D01*
X068135Y017193D01*
X068073Y017273D01*
X067993Y017335D01*
X067900Y017374D01*
X067800Y017387D01*
D02*
G37*
G36*
X059800D02*
X059700Y017374D01*
X059607Y017335D01*
X059527Y017273D01*
X059465Y017193D01*
X059426Y017100D01*
X059413Y017000D01*
X059426Y016900D01*
X059465Y016807D01*
X059527Y016727D01*
X059607Y016665D01*
X059700Y016626D01*
X059800Y016613D01*
X059900Y016626D01*
X059993Y016665D01*
X060073Y016727D01*
X060135Y016807D01*
X060174Y016900D01*
X060187Y017000D01*
X060174Y017100D01*
X060135Y017193D01*
X060073Y017273D01*
X059993Y017335D01*
X059900Y017374D01*
X059800Y017387D01*
D02*
G37*
G36*
X060800D02*
X060700Y017374D01*
X060607Y017335D01*
X060527Y017273D01*
X060465Y017193D01*
X060426Y017100D01*
X060413Y017000D01*
X060426Y016900D01*
X060465Y016807D01*
X060527Y016727D01*
X060607Y016665D01*
X060700Y016626D01*
X060800Y016613D01*
X060900Y016626D01*
X060993Y016665D01*
X061073Y016727D01*
X061135Y016807D01*
X061174Y016900D01*
X061187Y017000D01*
X061174Y017100D01*
X061135Y017193D01*
X061073Y017273D01*
X060993Y017335D01*
X060900Y017374D01*
X060800Y017387D01*
D02*
G37*
G36*
X062800Y018387D02*
X062700Y018374D01*
X062607Y018335D01*
X062527Y018273D01*
X062465Y018193D01*
X062426Y018100D01*
X062413Y018000D01*
X062426Y017900D01*
X062465Y017807D01*
X062527Y017727D01*
X062607Y017665D01*
X062700Y017626D01*
X062800Y017613D01*
X062900Y017626D01*
X062993Y017665D01*
X063073Y017727D01*
X063135Y017807D01*
X063174Y017900D01*
X063187Y018000D01*
X063174Y018100D01*
X063135Y018193D01*
X063073Y018273D01*
X062993Y018335D01*
X062900Y018374D01*
X062800Y018387D01*
D02*
G37*
G36*
X058937Y018000D02*
X058700D01*
Y017763D01*
X058777Y017794D01*
X058850Y017850D01*
X058906Y017923D01*
X058937Y018000D01*
D02*
G37*
G36*
X056276Y018000D02*
X056138D01*
Y017823D01*
X056276D01*
Y018000D01*
D02*
G37*
G36*
X066800Y018387D02*
X066700Y018374D01*
X066607Y018335D01*
X066527Y018273D01*
X066465Y018193D01*
X066426Y018100D01*
X066413Y018000D01*
X066426Y017900D01*
X066465Y017807D01*
X066527Y017727D01*
X066607Y017665D01*
X066700Y017626D01*
X066800Y017613D01*
X066900Y017626D01*
X066993Y017665D01*
X067073Y017727D01*
X067135Y017807D01*
X067174Y017900D01*
X067187Y018000D01*
X067174Y018100D01*
X067135Y018193D01*
X067073Y018273D01*
X066993Y018335D01*
X066900Y018374D01*
X066800Y018387D01*
D02*
G37*
G36*
X058500Y018000D02*
X058263D01*
X058294Y017923D01*
X058350Y017850D01*
X058423Y017794D01*
X058500Y017763D01*
Y018000D01*
D02*
G37*
G36*
X065600Y019415D02*
X065403D01*
Y019238D01*
X065600D01*
Y019415D01*
D02*
G37*
G36*
Y019792D02*
X065403D01*
Y019615D01*
X065600D01*
Y019792D01*
D02*
G37*
G36*
X064597D02*
X064400D01*
Y019615D01*
X064597D01*
Y019792D01*
D02*
G37*
G36*
X064900D02*
X064703D01*
Y019615D01*
X064900D01*
Y019792D01*
D02*
G37*
G36*
X066300D02*
X066103D01*
Y019615D01*
X066300D01*
Y019792D01*
D02*
G37*
G36*
X067397D02*
X067200D01*
Y019615D01*
X067397D01*
Y019792D01*
D02*
G37*
G36*
X065997D02*
X065800D01*
Y019615D01*
X065997D01*
Y019792D01*
D02*
G37*
G36*
X054700Y019900D02*
X054425D01*
X054425Y019899D01*
X054464Y019806D01*
X054525Y019725D01*
X054606Y019664D01*
X054699Y019625D01*
X054700Y019625D01*
Y019900D01*
D02*
G37*
G36*
X065297Y019792D02*
X065100D01*
Y019615D01*
X065297D01*
Y019792D01*
D02*
G37*
G36*
X066697D02*
X066500D01*
Y019615D01*
X066697D01*
Y019792D01*
D02*
G37*
G36*
X067000D02*
X066803D01*
Y019615D01*
X067000D01*
Y019792D01*
D02*
G37*
G36*
X066697Y019415D02*
X066500D01*
Y019238D01*
X066697D01*
Y019415D01*
D02*
G37*
G36*
X067000D02*
X066803D01*
Y019238D01*
X067000D01*
Y019415D01*
D02*
G37*
G36*
X065997D02*
X065800D01*
Y019238D01*
X065997D01*
Y019415D01*
D02*
G37*
G36*
X066300D02*
X066103D01*
Y019238D01*
X066300D01*
Y019415D01*
D02*
G37*
G36*
X067397D02*
X067200D01*
Y019238D01*
X067397D01*
Y019415D01*
D02*
G37*
G36*
X052300Y019700D02*
X052117D01*
X052138Y019649D01*
X052186Y019586D01*
X052249Y019538D01*
X052300Y019517D01*
Y019700D01*
D02*
G37*
G36*
X052683D02*
X052500D01*
Y019517D01*
X052551Y019538D01*
X052614Y019586D01*
X052662Y019649D01*
X052683Y019700D01*
D02*
G37*
G36*
X057500Y019600D02*
X057263D01*
X057294Y019523D01*
X057350Y019450D01*
X057423Y019394D01*
X057500Y019363D01*
Y019600D01*
D02*
G37*
G36*
X057937D02*
X057700D01*
Y019363D01*
X057777Y019394D01*
X057850Y019450D01*
X057906Y019523D01*
X057937Y019600D01*
D02*
G37*
G36*
X064163Y024779D02*
X063995D01*
Y024700D01*
X064163D01*
Y024779D01*
D02*
G37*
G36*
X057600Y033662D02*
X057423D01*
Y033524D01*
X057600D01*
Y033662D01*
D02*
G37*
G36*
X063100D02*
X062923D01*
Y033524D01*
X063100D01*
Y033662D01*
D02*
G37*
G36*
X057600Y033324D02*
X057423D01*
Y033187D01*
X057600D01*
Y033324D01*
D02*
G37*
G36*
X063100D02*
X062923D01*
Y033187D01*
X063100D01*
Y033324D01*
D02*
G37*
G36*
X063037Y035900D02*
X062800D01*
Y035663D01*
X062877Y035694D01*
X062950Y035750D01*
X063006Y035823D01*
X063037Y035900D01*
D02*
G37*
G36*
X057528Y038040D02*
X057500Y038021D01*
X057472Y038040D01*
Y037654D01*
Y037267D01*
X057500Y037286D01*
X057528Y037267D01*
Y037654D01*
Y038040D01*
D02*
G37*
G36*
X063028D02*
X063000Y038021D01*
X062972Y038040D01*
Y037654D01*
Y037267D01*
X063000Y037286D01*
X063028Y037267D01*
Y037654D01*
Y038040D01*
D02*
G37*
G36*
X062800Y036337D02*
Y036100D01*
X063037D01*
X063006Y036177D01*
X062950Y036250D01*
X062877Y036306D01*
X062800Y036337D01*
D02*
G37*
G36*
X057116Y038071D02*
X057043Y038056D01*
X056981Y038015D01*
X056940Y037953D01*
X056925Y037880D01*
Y037427D01*
X056940Y037354D01*
X056981Y037292D01*
X057043Y037251D01*
X057116Y037236D01*
X057189Y037251D01*
X057243Y037287D01*
X057272Y037267D01*
Y037324D01*
X057292Y037354D01*
X057307Y037427D01*
Y037654D01*
Y037880D01*
X057292Y037953D01*
X057272Y037983D01*
Y038040D01*
X057243Y038020D01*
X057189Y038056D01*
X057116Y038071D01*
D02*
G37*
G36*
X058400Y031956D02*
X058393D01*
Y031139D01*
X058400D01*
Y031956D01*
D02*
G37*
G36*
X064800Y030066D02*
X064426D01*
Y029800D01*
X064800D01*
Y030066D01*
D02*
G37*
G36*
X063500D02*
X063126D01*
Y029800D01*
X063500D01*
Y030066D01*
D02*
G37*
G36*
Y029600D02*
X063126D01*
Y029334D01*
X063500D01*
Y029600D01*
D02*
G37*
G36*
X064074Y030066D02*
X063700D01*
Y029700D01*
Y029334D01*
X064074D01*
Y029431D01*
X064100Y029450D01*
X064156Y029523D01*
X064187Y029600D01*
X063850D01*
Y029800D01*
X064187D01*
X064156Y029877D01*
X064100Y029950D01*
X064074Y029969D01*
Y030066D01*
D02*
G37*
G36*
X065608Y030100D02*
X065592D01*
X065557Y030095D01*
X065551Y030100D01*
X065472D01*
X065473Y030098D01*
X065473D01*
Y030098D01*
X065447Y030059D01*
X065424Y030041D01*
X065374Y030066D01*
Y030066D01*
X065000D01*
Y029700D01*
X064900D01*
Y029600D01*
X064426D01*
Y029334D01*
X064484D01*
X064506Y029289D01*
X064496Y029276D01*
X064461Y029191D01*
X064449Y029100D01*
Y028804D01*
X064428D01*
Y028792D01*
X064072D01*
Y028804D01*
X063128D01*
Y028792D01*
X062877D01*
Y028876D01*
X062600D01*
Y028976D01*
D01*
Y028876D01*
X062323D01*
Y028845D01*
X062273Y028824D01*
X061829Y029268D01*
Y029343D01*
X061817Y029434D01*
X061782Y029519D01*
X061726Y029592D01*
X061653Y029648D01*
X061650Y029649D01*
X061634Y029710D01*
X061662Y029746D01*
X061693Y029823D01*
X061018D01*
X061050Y029746D01*
X061106Y029673D01*
X061179Y029617D01*
X061184Y029615D01*
X061200Y029554D01*
X061173Y029519D01*
X061138Y029434D01*
X061126Y029343D01*
Y029123D01*
X061138Y029032D01*
X061173Y028947D01*
X061229Y028874D01*
X061911Y028192D01*
X061984Y028136D01*
X062069Y028101D01*
X062160Y028089D01*
X063128D01*
Y028076D01*
X063266D01*
X063302Y028041D01*
X063302Y028041D01*
X063302D01*
X063303Y028026D01*
X063302Y028026D01*
X063249Y028015D01*
X063209Y027988D01*
X063191Y028000D01*
Y027827D01*
X062991D01*
Y028000D01*
X062972Y027988D01*
X062954Y028000D01*
Y027827D01*
X062754D01*
Y028000D01*
X062736Y027988D01*
X062718Y028000D01*
Y027827D01*
X062518D01*
Y028000D01*
X062500Y027988D01*
X062482Y028000D01*
Y027827D01*
X062282D01*
Y028000D01*
X062264Y027988D01*
X062246Y028000D01*
Y027827D01*
X062046D01*
Y028000D01*
X062028Y027988D01*
X062009Y028000D01*
Y027827D01*
X061809D01*
Y028000D01*
X061791Y027988D01*
X061773Y028000D01*
Y027827D01*
X061673D01*
Y027727D01*
X061500D01*
X061512Y027709D01*
X061500Y027691D01*
X061673D01*
Y027491D01*
X061500D01*
X061512Y027472D01*
X061500Y027454D01*
X061673D01*
Y027254D01*
X061500D01*
X061512Y027236D01*
X061500Y027218D01*
X061673D01*
Y027018D01*
X061500D01*
X061512Y027000D01*
X061500Y026982D01*
X061673D01*
Y026782D01*
X061500D01*
X061512Y026764D01*
X061500Y026746D01*
X061673D01*
Y026546D01*
X061500D01*
X061512Y026528D01*
X061500Y026509D01*
X061673D01*
Y026309D01*
X061500D01*
X061512Y026291D01*
X061500Y026273D01*
X061673D01*
Y026173D01*
X061773D01*
Y026000D01*
X061791Y026012D01*
X061809Y026000D01*
Y026173D01*
X062009D01*
Y026000D01*
X062028Y026012D01*
X062046Y026000D01*
Y026173D01*
X062246D01*
Y026000D01*
X062264Y026012D01*
X062282Y026000D01*
Y026173D01*
X062482D01*
Y026000D01*
X062500Y026012D01*
X062518Y026000D01*
Y026173D01*
X062718D01*
Y026000D01*
X062736Y026012D01*
X062754Y026000D01*
Y026173D01*
X062954D01*
Y026000D01*
X062972Y026012D01*
X062991Y026000D01*
Y026173D01*
X063191D01*
Y026000D01*
X063209Y026012D01*
X063227Y026000D01*
Y026173D01*
X063327D01*
Y026273D01*
X063500D01*
X063488Y026291D01*
X063500Y026309D01*
X063327D01*
Y026509D01*
X063500D01*
X063488Y026528D01*
X063500Y026546D01*
X063327D01*
Y026746D01*
X063500D01*
X063488Y026764D01*
X063500Y026782D01*
X063327D01*
Y026982D01*
X063500D01*
X063488Y027000D01*
X063500Y027018D01*
X063327D01*
Y027218D01*
X063500D01*
X063488Y027236D01*
X063500Y027254D01*
X063327D01*
Y027454D01*
X063500D01*
X063488Y027472D01*
X063500Y027491D01*
X063327D01*
Y027691D01*
X063500D01*
X063488Y027709D01*
X063500Y027727D01*
X063327D01*
Y027927D01*
X063500D01*
X063471Y027971D01*
X063405Y028015D01*
X063351Y028026D01*
X063350Y028026D01*
X063352Y028041D01*
X063352D01*
X063352Y028041D01*
X063387Y028076D01*
X064072D01*
Y028089D01*
X064428D01*
Y028076D01*
X065372D01*
Y028802D01*
X065427Y028809D01*
X065549Y028687D01*
Y028010D01*
X065487Y027963D01*
X065439Y027901D01*
X065409Y027828D01*
X065409Y027825D01*
X065397Y027808D01*
X065386Y027750D01*
X065397Y027692D01*
X065409Y027675D01*
X065409Y027672D01*
X065439Y027599D01*
X065487Y027537D01*
X065550Y027489D01*
X065622Y027459D01*
X065700Y027449D01*
X065778Y027459D01*
X065808Y027472D01*
X065858Y027438D01*
Y026867D01*
X065704Y026713D01*
X065628Y026723D01*
X065550Y026713D01*
X065477Y026683D01*
X065415Y026635D01*
X065367Y026573D01*
X065337Y026500D01*
X065327Y026422D01*
X065337Y026345D01*
X065367Y026272D01*
X065415Y026210D01*
X065477Y026162D01*
X065550Y026132D01*
X065628Y026121D01*
X065705Y026132D01*
X065778Y026162D01*
X065840Y026210D01*
X065888Y026272D01*
X065918Y026345D01*
X065929Y026422D01*
X065918Y026499D01*
X066116Y026697D01*
X066116Y026697D01*
X066149Y026746D01*
X066160Y026804D01*
X066160Y026804D01*
Y029391D01*
X066149Y029449D01*
X066116Y029498D01*
X066116Y029498D01*
X065891Y029723D01*
X065901Y029800D01*
X065891Y029878D01*
X065861Y029950D01*
X065813Y030013D01*
X065750Y030061D01*
X065678Y030091D01*
X065608Y030100D01*
D02*
G37*
G36*
X056007Y031956D02*
X055900D01*
X055900Y030229D01*
Y030229D01*
X055823Y030157D01*
X055800Y030132D01*
Y030122D01*
X056007D01*
Y030124D01*
X056459D01*
X056461Y030109D01*
X056496Y030024D01*
X056551Y029952D01*
X056583Y029927D01*
Y029400D01*
X056909D01*
X057236D01*
Y029907D01*
X057286Y029928D01*
X057498Y029716D01*
Y028457D01*
X057453Y028435D01*
X057427Y028455D01*
X057342Y028490D01*
X057251Y028502D01*
X057236Y028515D01*
Y028631D01*
X057236D01*
Y028669D01*
X057236D01*
Y029200D01*
X056909D01*
X056583D01*
Y028669D01*
X056583D01*
Y028631D01*
X056583D01*
Y028100D01*
X056909D01*
Y027900D01*
X056583D01*
Y027429D01*
X056524Y027404D01*
X056452Y027348D01*
X056396Y027276D01*
X056361Y027191D01*
X056349Y027100D01*
X056361Y027009D01*
X056396Y026924D01*
X056452Y026851D01*
X056524Y026796D01*
X056544Y026787D01*
X056547Y026739D01*
X056547Y026732D01*
Y026286D01*
X057000D01*
Y026739D01*
X056869D01*
X056859Y026789D01*
X056876Y026796D01*
X056948Y026851D01*
X056984Y026898D01*
X057300D01*
X057377Y026913D01*
X057443Y026957D01*
X057606Y027120D01*
X057650Y027093D01*
X057661Y027009D01*
X057696Y026924D01*
X057751Y026851D01*
X057824Y026796D01*
X057909Y026761D01*
X058000Y026749D01*
X058091Y026761D01*
X058176Y026796D01*
X058248Y026851D01*
X058266Y026848D01*
X058298Y026838D01*
Y026801D01*
X058494D01*
Y027293D01*
X058337D01*
X058311Y027343D01*
X058330Y027370D01*
X058415D01*
Y028001D01*
X058461Y028047D01*
X058478Y028049D01*
X058551Y028079D01*
X058613Y028127D01*
X058661Y028189D01*
X058691Y028262D01*
X058701Y028340D01*
X058691Y028418D01*
X058661Y028490D01*
X058613Y028553D01*
X058551Y028600D01*
X058478Y028631D01*
X058450Y028634D01*
X058415Y028670D01*
Y029930D01*
X057952D01*
X057942Y029980D01*
X057977Y029994D01*
X058050Y030050D01*
X058106Y030123D01*
X058137Y030200D01*
X057800D01*
Y030300D01*
X057700D01*
Y030637D01*
X057623Y030606D01*
X057550Y030550D01*
X057494Y030477D01*
X057459Y030392D01*
X057459Y030391D01*
X057406Y030368D01*
X057377Y030387D01*
X057300Y030402D01*
X057084D01*
X057049Y030449D01*
X056976Y030504D01*
X056891Y030539D01*
X056800Y030551D01*
X056709Y030539D01*
X056624Y030504D01*
X056555Y030451D01*
X056529Y030456D01*
X056505Y030464D01*
Y030837D01*
X056724D01*
X056802Y030852D01*
X056867Y030896D01*
X056959Y030987D01*
X057005Y030968D01*
Y030709D01*
X057595D01*
Y030872D01*
X057634Y030908D01*
X057700Y030899D01*
X057778Y030909D01*
X057850Y030939D01*
X057913Y030987D01*
X057961Y031049D01*
X057991Y031122D01*
X058001Y031200D01*
X057991Y031278D01*
X057961Y031351D01*
X057913Y031413D01*
X057850Y031461D01*
X057778Y031491D01*
X057700Y031501D01*
X057645Y031494D01*
X057595Y031529D01*
Y031891D01*
X057005D01*
Y031606D01*
X056641Y031242D01*
X056505D01*
Y031955D01*
X056007D01*
Y031956D01*
D02*
G37*
G36*
X063900D02*
X063893D01*
Y031090D01*
X063843Y031073D01*
X063813Y031113D01*
X063751Y031161D01*
X063678Y031191D01*
X063600Y031201D01*
X063522Y031191D01*
X063450Y031161D01*
X063398Y031121D01*
X063361Y031136D01*
X063350Y031145D01*
X063351Y031150D01*
X063341Y031228D01*
X063311Y031300D01*
X063263Y031363D01*
X063200Y031411D01*
X063128Y031441D01*
X063095Y031445D01*
Y031891D01*
X062505D01*
Y031606D01*
X062141Y031242D01*
X062005D01*
Y031955D01*
X061507D01*
Y031956D01*
X061400D01*
Y030100D01*
X061022D01*
X061039Y030072D01*
X061018Y030023D01*
X061693D01*
X061672Y030074D01*
X061702Y030124D01*
X062005D01*
Y030266D01*
X062055Y030283D01*
X062067Y030267D01*
X062130Y030219D01*
X062202Y030189D01*
X062280Y030179D01*
X062358Y030189D01*
X062431Y030219D01*
X062493Y030267D01*
X062540Y030329D01*
X062823D01*
X062823Y030329D01*
X062881Y030340D01*
X062930Y030373D01*
X062950Y030393D01*
X063295Y030738D01*
X063350Y030735D01*
X063387Y030687D01*
X063450Y030639D01*
X063522Y030609D01*
X063600Y030599D01*
X063678Y030609D01*
X063751Y030639D01*
X063813Y030687D01*
X063843Y030727D01*
X063893Y030710D01*
Y030122D01*
X063900D01*
Y031956D01*
D02*
G37*
G36*
X058400Y030939D02*
X058393D01*
Y030122D01*
X058400D01*
Y030939D01*
D02*
G37*
G36*
X057900Y030637D02*
Y030400D01*
X058137D01*
X058106Y030477D01*
X058050Y030550D01*
X057977Y030606D01*
X057900Y030637D01*
D02*
G37*
G36*
X066951Y038102D02*
X063849D01*
Y038100D01*
X063600D01*
X063562Y038093D01*
X063529Y038071D01*
X063507Y038038D01*
X063492Y038032D01*
X063457Y038056D01*
X063384Y038071D01*
X063311Y038056D01*
X063257Y038020D01*
X063228Y038040D01*
Y037983D01*
X063208Y037953D01*
X063193Y037880D01*
Y037654D01*
Y037427D01*
X063208Y037354D01*
X063228Y037324D01*
Y037267D01*
X063257Y037287D01*
X063311Y037251D01*
X063384Y037236D01*
X063450Y037250D01*
X063489Y037234D01*
X063500Y037228D01*
Y035652D01*
X063476Y035612D01*
X062924D01*
Y035139D01*
X063473D01*
X063496Y035100D01*
X063473Y035061D01*
X062924D01*
Y034813D01*
X062896Y034776D01*
X062861Y034691D01*
X062849Y034600D01*
X062861Y034509D01*
X062896Y034424D01*
X062951Y034351D01*
X063024Y034296D01*
X063109Y034261D01*
X063101Y034212D01*
X062924D01*
Y033739D01*
X063469D01*
X063492Y033700D01*
X063470Y033662D01*
X063450Y033662D01*
X063300D01*
Y033424D01*
Y033187D01*
X063477D01*
Y033195D01*
X063515Y033224D01*
X063536Y033224D01*
X063562Y033207D01*
X063600Y033200D01*
X067800D01*
X067838Y033207D01*
X067864Y033224D01*
X067885D01*
Y033250D01*
X067893Y033262D01*
X067900Y033300D01*
Y038000D01*
X067893Y038038D01*
X067871Y038071D01*
X067838Y038093D01*
X067800Y038100D01*
X066951D01*
Y038102D01*
D02*
G37*
G36*
X067737Y039500D02*
X067500D01*
Y039263D01*
X067577Y039294D01*
X067650Y039350D01*
X067706Y039423D01*
X067737Y039500D01*
D02*
G37*
G36*
X061900Y039737D02*
Y039500D01*
X062137D01*
X062106Y039577D01*
X062050Y039650D01*
X061977Y039706D01*
X061900Y039737D01*
D02*
G37*
G36*
X063600Y038837D02*
Y038600D01*
X063837D01*
X063806Y038677D01*
X063750Y038750D01*
X063677Y038806D01*
X063600Y038837D01*
D02*
G37*
G36*
X067300Y039500D02*
X067063D01*
X067094Y039423D01*
X067150Y039350D01*
X067223Y039294D01*
X067300Y039263D01*
Y039500D01*
D02*
G37*
G36*
Y039937D02*
X067223Y039906D01*
X067150Y039850D01*
X067094Y039777D01*
X067063Y039700D01*
X067300D01*
Y039937D01*
D02*
G37*
G36*
X053500Y040742D02*
X053323D01*
Y040604D01*
X053500D01*
Y040742D01*
D02*
G37*
G36*
X053877D02*
X053700D01*
Y040604D01*
X053877D01*
Y040742D01*
D02*
G37*
G36*
X067500Y039937D02*
Y039700D01*
X067737D01*
X067706Y039777D01*
X067650Y039850D01*
X067577Y039906D01*
X067500Y039937D01*
D02*
G37*
G36*
X055800Y039962D02*
X055623D01*
Y039824D01*
X055800D01*
Y039962D01*
D02*
G37*
G36*
X063400Y038837D02*
X063323Y038806D01*
X063250Y038750D01*
X063194Y038677D01*
X063163Y038600D01*
X063400D01*
Y038837D01*
D02*
G37*
G36*
X058337Y038400D02*
X058100D01*
Y038163D01*
X058177Y038194D01*
X058250Y038250D01*
X058306Y038323D01*
X058337Y038400D01*
D02*
G37*
G36*
X063400D02*
X063163D01*
X063194Y038323D01*
X063250Y038250D01*
X063323Y038194D01*
X063400Y038163D01*
Y038400D01*
D02*
G37*
G36*
X062177Y038224D02*
X061623D01*
Y038100D01*
X061451D01*
Y038102D01*
X058349D01*
Y038100D01*
X058100D01*
X058062Y038093D01*
X058029Y038071D01*
X058007Y038038D01*
X057992Y038032D01*
X057957Y038056D01*
X057884Y038071D01*
X057811Y038056D01*
X057757Y038020D01*
X057728Y038040D01*
Y037983D01*
X057708Y037953D01*
X057693Y037880D01*
Y037654D01*
Y037427D01*
X057708Y037354D01*
X057728Y037324D01*
Y037267D01*
X057757Y037287D01*
X057811Y037251D01*
X057884Y037236D01*
X057950Y037250D01*
X057989Y037234D01*
X058000Y037228D01*
Y035652D01*
X057976Y035612D01*
X057424D01*
Y035139D01*
X057973D01*
X057996Y035100D01*
X057973Y035061D01*
X057424D01*
Y034813D01*
X057396Y034776D01*
X057361Y034691D01*
X057349Y034600D01*
X057361Y034509D01*
X057396Y034424D01*
X057452Y034351D01*
X057524Y034296D01*
X057609Y034261D01*
X057601Y034212D01*
X057424D01*
Y033739D01*
X057969D01*
X057992Y033700D01*
X057970Y033662D01*
X057950Y033662D01*
X057800D01*
Y033424D01*
Y033187D01*
X057977D01*
Y033195D01*
X058015Y033224D01*
X058036Y033224D01*
X058062Y033207D01*
X058100Y033200D01*
X062300D01*
X062338Y033207D01*
X062364Y033224D01*
X062385D01*
Y033250D01*
X062393Y033262D01*
X062400Y033300D01*
Y035738D01*
X062448Y035754D01*
X062450Y035750D01*
X062523Y035694D01*
X062600Y035663D01*
Y036000D01*
Y036337D01*
X062523Y036306D01*
X062450Y036250D01*
X062448Y036246D01*
X062400Y036262D01*
Y037324D01*
X062450Y037339D01*
X062481Y037292D01*
X062543Y037251D01*
X062616Y037236D01*
X062689Y037251D01*
X062743Y037287D01*
X062772Y037267D01*
Y037324D01*
X062792Y037354D01*
X062807Y037427D01*
Y037654D01*
Y037880D01*
X062792Y037953D01*
X062772Y037983D01*
Y038040D01*
X062743Y038020D01*
X062689Y038056D01*
X062616Y038071D01*
X062543Y038056D01*
X062481Y038015D01*
X062450Y037968D01*
X062400Y037984D01*
Y038000D01*
X062393Y038038D01*
X062371Y038071D01*
X062338Y038093D01*
X062300Y038100D01*
X062177D01*
Y038224D01*
D02*
G37*
G36*
X057900Y038400D02*
X057663D01*
X057694Y038323D01*
X057750Y038250D01*
X057823Y038194D01*
X057900Y038163D01*
Y038400D01*
D02*
G37*
G36*
X063837D02*
X063600D01*
Y038163D01*
X063677Y038194D01*
X063750Y038250D01*
X063806Y038323D01*
X063837Y038400D01*
D02*
G37*
G36*
X061800Y038562D02*
X061623D01*
Y038424D01*
X061800D01*
Y038562D01*
D02*
G37*
G36*
X062177D02*
X062000D01*
Y038424D01*
X062177D01*
Y038562D01*
D02*
G37*
G36*
X056300D02*
X056123D01*
Y038424D01*
X056300D01*
Y038562D01*
D02*
G37*
G36*
X056677D02*
X056500D01*
Y038424D01*
X056677D01*
Y038562D01*
D02*
G37*
G36*
X061573Y026073D02*
X061500D01*
X061529Y026029D01*
X061573Y026000D01*
Y026073D01*
D02*
G37*
G36*
X063500D02*
X063427D01*
Y026000D01*
X063471Y026029D01*
X063500Y026073D01*
D02*
G37*
G36*
X054320Y026350D02*
X054054D01*
Y025976D01*
X054320D01*
Y026350D01*
D02*
G37*
G36*
X054786D02*
X054520D01*
Y025976D01*
X054786D01*
Y026350D01*
D02*
G37*
G36*
X058494Y026601D02*
X058298D01*
Y026109D01*
X058494D01*
Y026601D01*
D02*
G37*
G36*
X057653Y026739D02*
X057200D01*
Y026286D01*
X057653D01*
Y026739D01*
D02*
G37*
G36*
X053400Y026700D02*
X053163D01*
X053194Y026623D01*
X053250Y026550D01*
X053323Y026494D01*
X053400Y026463D01*
Y026700D01*
D02*
G37*
G36*
X058891Y026601D02*
X058694D01*
Y026109D01*
X058891D01*
Y026601D01*
D02*
G37*
G36*
X066350Y026383D02*
X066299Y026362D01*
X066236Y026314D01*
X066188Y026251D01*
X066167Y026200D01*
X066350D01*
Y026383D01*
D02*
G37*
G36*
Y026000D02*
X066167D01*
X066188Y025949D01*
X066236Y025886D01*
X066299Y025838D01*
X066350Y025817D01*
Y026000D01*
D02*
G37*
G36*
X057000Y025400D02*
X056763D01*
X056794Y025323D01*
X056850Y025250D01*
X056923Y025194D01*
X057000Y025163D01*
Y025400D01*
D02*
G37*
G36*
X057437D02*
X057200D01*
Y025163D01*
X057277Y025194D01*
X057350Y025250D01*
X057406Y025323D01*
X057437Y025400D01*
D02*
G37*
G36*
X064530Y024779D02*
X064363D01*
Y024700D01*
X064530D01*
Y024779D01*
D02*
G37*
G36*
X054786Y025200D02*
X054520D01*
Y024826D01*
X054786D01*
Y025200D01*
D02*
G37*
G36*
X062600Y025413D02*
X062423D01*
Y025276D01*
X062600D01*
Y025413D01*
D02*
G37*
G36*
X054786Y025774D02*
X054520D01*
Y025400D01*
X054786D01*
Y025774D01*
D02*
G37*
G36*
X057653Y026086D02*
X057100D01*
X056547D01*
Y025633D01*
X056731D01*
X056745Y025612D01*
X056751Y025600D01*
X057449D01*
X057455Y025612D01*
X057469Y025633D01*
X057653D01*
Y026086D01*
D02*
G37*
G36*
X062977Y025413D02*
X062800D01*
Y025276D01*
X062977D01*
Y025413D01*
D02*
G37*
G36*
X054320Y025774D02*
X054054D01*
Y025400D01*
X054320D01*
Y025774D01*
D02*
G37*
G36*
X053837Y026700D02*
X053600D01*
Y026463D01*
X053677Y026494D01*
X053750Y026550D01*
X053806Y026623D01*
X053837Y026700D01*
D02*
G37*
G36*
X068000Y028787D02*
X067923Y028756D01*
X067850Y028700D01*
X067794Y028627D01*
X067763Y028550D01*
X068000D01*
Y028787D01*
D02*
G37*
G36*
X068200D02*
Y028550D01*
X068437D01*
X068406Y028627D01*
X068350Y028700D01*
X068277Y028756D01*
X068200Y028787D01*
D02*
G37*
G36*
X059300Y028636D02*
X058926D01*
Y028370D01*
X059300D01*
Y028636D01*
D02*
G37*
G36*
X059874D02*
X059500D01*
Y028370D01*
X059874D01*
Y028636D01*
D02*
G37*
G36*
X055600Y028996D02*
X055226D01*
Y028730D01*
X055600D01*
Y028996D01*
D02*
G37*
G36*
X062500Y029213D02*
X062323D01*
Y029076D01*
X062500D01*
Y029213D01*
D02*
G37*
G36*
X062877D02*
X062700D01*
Y029076D01*
X062877D01*
Y029213D01*
D02*
G37*
G36*
X056174Y028996D02*
X055800D01*
Y028730D01*
X056174D01*
Y028996D01*
D02*
G37*
G36*
X059872Y029894D02*
X058928D01*
Y029542D01*
X058909Y029539D01*
X058824Y029504D01*
X058752Y029448D01*
X058696Y029376D01*
X058661Y029291D01*
X058649Y029200D01*
X058661Y029109D01*
X058696Y029024D01*
X058752Y028951D01*
X058824Y028896D01*
X058909Y028861D01*
X059000Y028849D01*
X059091Y028861D01*
X059176Y028896D01*
X059248Y028951D01*
X059304Y029024D01*
X059339Y029109D01*
X059347Y029166D01*
X059872D01*
Y029894D01*
D02*
G37*
G36*
X068437Y028350D02*
X068200D01*
Y028113D01*
X068277Y028144D01*
X068350Y028200D01*
X068406Y028273D01*
X068437Y028350D01*
D02*
G37*
G36*
X053400Y027100D02*
X053316D01*
X053250Y027050D01*
X053194Y026977D01*
X053163Y026900D01*
X053400D01*
Y027100D01*
D02*
G37*
G36*
X053684D02*
X053600D01*
Y026900D01*
X053837D01*
X053806Y026977D01*
X053750Y027050D01*
X053684Y027100D01*
D02*
G37*
G36*
X054320Y026924D02*
X054054D01*
Y026550D01*
X054320D01*
Y026924D01*
D02*
G37*
G36*
X054786D02*
X054520D01*
Y026550D01*
X054786D01*
Y026924D01*
D02*
G37*
G36*
X060384Y027897D02*
X060207D01*
Y027700D01*
X060384D01*
Y027897D01*
D02*
G37*
G36*
X061573Y028000D02*
X061529Y027971D01*
X061500Y027927D01*
X061573D01*
Y028000D01*
D02*
G37*
G36*
X068000Y028350D02*
X067763D01*
X067794Y028273D01*
X067850Y028200D01*
X067923Y028144D01*
X068000Y028113D01*
Y028350D01*
D02*
G37*
G36*
X056174Y028530D02*
X055700D01*
X055226D01*
Y028264D01*
X055618D01*
X055650Y028227D01*
X055647Y028200D01*
X055659Y028109D01*
X055694Y028023D01*
X055750Y027950D01*
X055823Y027894D01*
X055900Y027863D01*
Y028200D01*
X056000D01*
Y028300D01*
X056337D01*
X056306Y028377D01*
X056250Y028450D01*
X056177Y028506D01*
X056174Y028507D01*
Y028530D01*
D02*
G37*
G36*
X056337Y028100D02*
X056100D01*
Y027863D01*
X056177Y027894D01*
X056250Y027950D01*
X056306Y028023D01*
X056337Y028100D01*
D02*
G37*
%LPD*%
D12*
X053600Y040504D02*
D03*
Y039953D02*
D03*
X055900Y039724D02*
D03*
Y040276D02*
D03*
X056400Y039876D02*
D03*
Y039324D02*
D03*
X062700Y024624D02*
D03*
Y025176D02*
D03*
X056400Y038324D02*
D03*
Y038876D02*
D03*
X061900Y038324D02*
D03*
Y038876D02*
D03*
X063200Y033976D02*
D03*
Y033424D02*
D03*
X063200Y034824D02*
D03*
Y035376D02*
D03*
X057700Y033976D02*
D03*
Y033424D02*
D03*
X057700Y034824D02*
D03*
Y035376D02*
D03*
X052200Y033976D02*
D03*
Y033424D02*
D03*
X062600Y028424D02*
D03*
Y028976D02*
D03*
D13*
X068200Y030985D02*
D03*
Y031615D02*
D03*
X057300Y030985D02*
D03*
Y031615D02*
D03*
X062800Y030985D02*
D03*
Y031615D02*
D03*
X064300Y019515D02*
D03*
Y018885D02*
D03*
X065000Y019515D02*
D03*
Y018885D02*
D03*
X065700Y019515D02*
D03*
Y018885D02*
D03*
X066400Y019515D02*
D03*
Y018885D02*
D03*
X067100Y019515D02*
D03*
Y018885D02*
D03*
D15*
X052785Y020200D02*
D03*
X053415D02*
D03*
X052785Y019100D02*
D03*
X053415D02*
D03*
X052785Y018000D02*
D03*
X053415D02*
D03*
X052785Y016900D02*
D03*
X053415D02*
D03*
X055785Y019500D02*
D03*
X056415D02*
D03*
X056415Y018800D02*
D03*
X055785D02*
D03*
X059477Y027600D02*
D03*
X060107D02*
D03*
D24*
X061700Y031039D02*
D03*
X061200D02*
D03*
X060700D02*
D03*
X059700D02*
D03*
X059200D02*
D03*
X058700D02*
D03*
X064200D02*
D03*
X064700D02*
D03*
X065200D02*
D03*
X066200D02*
D03*
X066700D02*
D03*
X067200D02*
D03*
X053200D02*
D03*
X053700D02*
D03*
X054200D02*
D03*
X055200D02*
D03*
X055700D02*
D03*
X056200D02*
D03*
D25*
X060200Y035055D02*
D03*
X065700D02*
D03*
X054700D02*
D03*
D27*
X062210Y040276D02*
X062616Y039870D01*
X055184Y040276D02*
X062210D01*
X055500Y038300D02*
X056076Y038876D01*
X052100Y038300D02*
X055500D01*
X056076Y038876D02*
X056400D01*
X055446Y039346D02*
X057116D01*
X055184Y039084D02*
X055446Y039346D01*
X052300Y016300D02*
X058100D01*
X051732Y016868D02*
X052300Y016300D01*
X051732Y016868D02*
Y040007D01*
X054528Y017600D02*
X056600D01*
X053623Y018505D02*
X054528Y017600D01*
X056600D02*
X061800Y022800D01*
X053385Y017400D02*
X057400D01*
X052785Y018000D02*
X053385Y017400D01*
X057400D02*
X057800Y017000D01*
X056300Y016500D02*
X056800Y017000D01*
X053185Y016500D02*
X056300D01*
X056500Y020700D02*
X058800Y023000D01*
X055400Y020700D02*
X056500D01*
X057141Y020341D02*
X059800Y023000D01*
X055941Y020341D02*
X057141D01*
X056000Y022500D02*
X056300Y022800D01*
X054600Y022500D02*
X056000D01*
X056300Y022800D02*
Y023200D01*
Y022500D02*
Y022800D01*
X053624Y023476D02*
X054600Y022500D01*
X054800Y021000D02*
X056300Y022500D01*
Y023200D02*
X056600Y023500D01*
X058100Y016300D02*
X058800Y017000D01*
X054928Y038693D02*
Y038972D01*
X054200Y039700D02*
X054928Y038972D01*
X052300Y039700D02*
X054200D01*
X052200Y039300D02*
X054300D01*
X052200Y039800D02*
X052300Y039700D01*
X052715Y039922D02*
X054498D01*
X052528Y040109D02*
X052715Y039922D01*
X051891Y039928D02*
X052072Y040109D01*
X051891Y038509D02*
X052100Y038300D01*
X051891Y038509D02*
Y039928D01*
X051732Y040007D02*
X051993Y040268D01*
X052072Y040109D02*
X052528D01*
X051993Y040268D02*
X052594D01*
X052662Y040200D01*
X052200Y038841D02*
X052296D01*
X052200D02*
X052244D01*
X052296D02*
X052337Y038800D01*
X052203D02*
X052244Y038841D01*
X054300Y039300D02*
X054672Y038928D01*
X052337Y038800D02*
X054416D01*
X053800Y023687D02*
Y024825D01*
X052400Y026075D02*
X052550D01*
X053800Y024825D01*
X053624Y023476D02*
Y024776D01*
X053100Y025300D02*
X053624Y024776D01*
X052400Y025300D02*
X053100D01*
X052400Y026512D02*
X054000Y024912D01*
Y023712D02*
Y024912D01*
X052400Y026512D02*
Y026600D01*
X052516Y026484D01*
X053800Y023687D02*
X054487Y023000D01*
X054000Y023712D02*
X054212Y023500D01*
X054487Y023000D02*
X054800D01*
X055300Y023500D02*
X055800Y023000D01*
X054212Y023500D02*
X055300D01*
X056600D02*
X058701D01*
X052662Y040200D02*
X054400D01*
X054498Y039922D02*
X054672Y040096D01*
Y038693D02*
Y038928D01*
X054416Y038693D02*
Y038800D01*
X055184Y038693D02*
Y039084D01*
X054672Y040276D02*
Y040307D01*
Y040276D02*
X054682Y040266D01*
Y040134D02*
Y040266D01*
X054672Y040124D02*
X054682Y040134D01*
X054672Y040096D02*
Y040124D01*
X052785Y016900D02*
X053185Y016500D01*
X061800Y022800D02*
Y023000D01*
X054672Y040307D02*
Y040500D01*
X053380Y018505D02*
X053623D01*
X052785Y019100D02*
X053380Y018505D01*
X054800Y018000D02*
X054900Y018100D01*
X055824D01*
X055785Y018800D02*
X055824Y018761D01*
Y018100D02*
Y018761D01*
X055785Y018800D02*
Y018870D01*
X056415Y019500D01*
X059500Y019682D02*
Y019800D01*
X053094Y020509D02*
X053819D01*
X052785Y020200D02*
X053094Y020509D01*
X067037Y028650D02*
X068000Y027687D01*
X067037Y028650D02*
X067200D01*
X068000Y024100D02*
Y027687D01*
X066776Y025412D02*
Y029638D01*
X066009Y026804D02*
Y029391D01*
X065350Y029100D02*
X065700Y028750D01*
Y027913D02*
Y028750D01*
X067841Y024316D02*
Y027259D01*
X067200Y027900D02*
X067841Y027259D01*
X067400Y023500D02*
X068000Y024100D01*
X067400Y022600D02*
Y023500D01*
X066800D02*
X067682Y024382D01*
X067275Y025525D02*
X067682Y025118D01*
Y024382D02*
Y025118D01*
X067200Y023675D02*
X067841Y024316D01*
X055400Y037500D02*
X055554Y037654D01*
X063237Y030900D02*
X063600D01*
X065600Y029800D02*
X066009Y029391D01*
X062280Y030480D02*
X062823D01*
X062843Y030500D01*
X062885Y030985D02*
X063050Y031150D01*
X052785Y019100D02*
Y019202D01*
X064800Y023125D02*
X065175Y023500D01*
X064800Y023000D02*
Y023125D01*
X062963Y017394D02*
X063357Y017000D01*
X063800D01*
X062006Y017394D02*
X062963D01*
X059600Y019800D02*
X062006Y017394D01*
X059382Y019800D02*
X059500Y019682D01*
X059382Y019800D02*
X059600D01*
X064300Y018885D02*
X065000D01*
X065700D01*
X066400D01*
X067100D01*
X067200Y025525D02*
X067275D01*
X065175Y023500D02*
X066800D01*
X057485Y030985D02*
X057700Y031200D01*
X057300Y030985D02*
X057485D01*
X067200Y022800D02*
Y023675D01*
X063800Y023000D02*
X064800Y022000D01*
X066400D01*
X067200Y022800D01*
X062800Y023000D02*
X064000Y021800D01*
X066600D01*
X067400Y022600D01*
X065500Y025050D02*
X065605Y025155D01*
X066519D01*
X066776Y025412D01*
Y029638D02*
X067024Y029886D01*
X067601D01*
X054300Y020500D02*
X054800Y021000D01*
X053819Y020509D02*
X053828Y020500D01*
X054300D01*
X065537Y027750D02*
X065700D01*
X065628Y026422D02*
X066009Y026804D01*
X065537Y027750D02*
X065700Y027913D01*
X062800Y030985D02*
X062885D01*
X064300Y017500D02*
X064800Y017000D01*
X061200Y019100D02*
X063300D01*
X064300Y017500D02*
Y018100D01*
X063300Y019100D02*
X063841Y018559D01*
Y018551D02*
Y018559D01*
Y018551D02*
X064051Y018341D01*
X064059D01*
X064300Y018100D01*
X067200Y027887D02*
Y027900D01*
Y028650D02*
Y028675D01*
X063384Y039346D02*
X064246D01*
X064400Y039500D01*
X063384Y037654D02*
X064246D01*
X064400Y037500D01*
X062872Y039346D02*
X063128D01*
X062814Y037712D02*
Y037962D01*
Y037712D02*
X062872Y037654D01*
X063128D01*
X057372Y039346D02*
X057628D01*
X057372Y039028D02*
Y039346D01*
X057220Y038876D02*
X057372Y039028D01*
X057220Y038876D02*
X061900D01*
X062776D01*
X062872Y038972D01*
Y039346D01*
X062616D02*
Y039870D01*
X056400Y038876D02*
X057220D01*
X057116Y039346D02*
Y039584D01*
X057884Y039346D02*
X058746D01*
X058900Y039500D01*
X057884Y037654D02*
X058746D01*
X058900Y037500D01*
X062843Y030500D02*
X063222Y030878D01*
X063219Y030881D02*
X063222Y030878D01*
X063219Y030881D02*
Y030881D01*
X063237Y030900D01*
X062300Y020885D02*
Y023057D01*
Y020885D02*
X064300Y018885D01*
X059500Y024299D02*
X060499D01*
X065700Y017100D02*
Y018885D01*
Y017100D02*
X065800Y017000D01*
X058701Y023500D02*
X059500Y024299D01*
X059477Y027600D02*
X059500Y027577D01*
X059100Y027600D02*
X059477D01*
X066262Y023800D02*
X067200Y024738D01*
X059500Y024299D02*
X060299Y023500D01*
X061857D01*
X062300Y023057D01*
X058091Y028000D02*
X058200D01*
X058400Y028200D01*
Y028340D01*
X058000Y027100D02*
X058091Y027191D01*
X059800Y025500D02*
X060886D01*
X060499Y024299D02*
X060700Y024500D01*
Y024525D01*
X060886Y025500D02*
X062586Y023800D01*
X066262D01*
X067601Y029886D02*
X068200Y030485D01*
Y030985D01*
D28*
X056226Y039876D02*
X056400D01*
X056074Y039724D02*
X056226Y039876D01*
X055900Y039724D02*
X056074D01*
X056724Y039976D02*
X056800Y039900D01*
X056200Y031039D02*
X056724D01*
X057300Y031615D01*
X061700Y031039D02*
X062224D01*
X062800Y031615D01*
X067200Y031039D02*
X067276Y031115D01*
X058500Y025500D02*
X059800D01*
X060406Y026106D01*
Y026701D01*
X059500D02*
Y027577D01*
X056909Y028000D02*
Y029300D01*
X055700Y028200D02*
X056000D01*
X055700D02*
Y028630D01*
X058091Y028000D02*
Y029300D01*
X056800Y030200D02*
X057300D01*
X057400Y028300D02*
Y029000D01*
X057300Y030200D02*
X057700Y029800D01*
X057100Y025500D02*
Y026286D01*
X058091Y027191D02*
Y028000D01*
X056700Y027100D02*
X057300D01*
X057700Y027500D01*
X057300Y028200D02*
X057400Y028300D01*
X057700Y027500D02*
Y029800D01*
X057251Y028149D02*
X057300Y028100D01*
Y028200D01*
X063200Y033976D02*
X064620D01*
X065700Y035055D01*
X063200Y035376D02*
X065380D01*
X065700Y035055D01*
X057700Y033976D02*
X059120D01*
X060200Y035055D01*
X057700Y035376D02*
X059880D01*
X060200Y035055D01*
X052200Y033976D02*
X053620D01*
X054700Y035055D01*
X060200Y028600D02*
X061000Y027800D01*
X060200Y028600D02*
Y031200D01*
X061000Y026100D02*
Y027800D01*
Y026100D02*
X062500Y024600D01*
X063100D01*
X067624Y031039D02*
X068200Y031615D01*
X067200Y031039D02*
X067624D01*
D30*
X061477Y029123D02*
X062160Y028440D01*
X061477Y029123D02*
Y029343D01*
X063600Y028440D02*
X064900D01*
X055700Y026800D02*
Y027370D01*
Y024150D02*
Y027370D01*
X055630D02*
X055700D01*
X055391Y027609D02*
X055391D01*
X064800Y028540D02*
Y029100D01*
X062160Y028440D02*
X063600D01*
D31*
X064800Y028540D02*
X064900Y028440D01*
D32*
X055391Y027609D02*
X055630Y027370D01*
D34*
X062800Y018000D02*
D03*
X063800D02*
D03*
X064800D02*
D03*
X066800D02*
D03*
X067800Y017000D02*
D03*
X066800D02*
D03*
X065800D02*
D03*
X064800D02*
D03*
X063800D02*
D03*
X062800D02*
D03*
X061800D02*
D03*
X060800D02*
D03*
X059800D02*
D03*
X058800D02*
D03*
X057800D02*
D03*
X056800D02*
D03*
X055800D02*
D03*
X054800D02*
D03*
Y018000D02*
D03*
Y019000D02*
D03*
Y020000D02*
D03*
Y021000D02*
D03*
Y022000D02*
D03*
Y023000D02*
D03*
X055800D02*
D03*
X056800D02*
D03*
X057800D02*
D03*
X058800D02*
D03*
X059800D02*
D03*
X060800D02*
D03*
X061800D02*
D03*
X062800D02*
D03*
X063800D02*
D03*
X064800D02*
D03*
X065800D02*
D03*
X066800D02*
D03*
X067800D02*
D03*
D35*
X053200Y024484D02*
D03*
Y023694D02*
D03*
Y022906D02*
D03*
Y022119D02*
D03*
X067200Y024738D02*
D03*
Y026307D02*
D03*
Y027097D02*
D03*
Y027887D02*
D03*
Y028675D02*
D03*
Y029462D02*
D03*
Y025525D02*
D03*
D36*
X067600Y015000D02*
D03*
X052900D02*
D03*
D37*
X059200Y021300D02*
D03*
X052100Y038300D02*
D03*
X052400Y025300D02*
D03*
X053300Y037500D02*
D03*
Y036800D02*
D03*
X056800Y039900D02*
D03*
X058600Y018100D02*
D03*
X057600Y019700D02*
D03*
X055941Y020341D02*
D03*
X055400Y020700D02*
D03*
X055500Y019500D02*
D03*
X059500Y019800D02*
D03*
X053500Y026800D02*
D03*
X067400Y039600D02*
D03*
X059600Y030700D02*
D03*
X055400Y037500D02*
D03*
X061800Y039400D02*
D03*
X061477Y029343D02*
D03*
X063500Y038500D02*
D03*
X062700Y036000D02*
D03*
X058000Y038500D02*
D03*
X064400Y037500D02*
D03*
X065100D02*
D03*
X065800D02*
D03*
X066500D02*
D03*
X054000D02*
D03*
X054700D02*
D03*
X064400Y039500D02*
D03*
X065100D02*
D03*
X065800D02*
D03*
X066500D02*
D03*
X060300D02*
D03*
X059600D02*
D03*
X061200Y019100D02*
D03*
X063100Y021200D02*
D03*
X065300Y022400D02*
D03*
X061000Y037500D02*
D03*
X060300D02*
D03*
X059600D02*
D03*
X058900D02*
D03*
X068100Y028450D02*
D03*
X061356Y029923D02*
D03*
X065600Y024300D02*
D03*
X052400Y021150D02*
D03*
X066850D02*
D03*
X058900Y039500D02*
D03*
X061000D02*
D03*
X058500Y025500D02*
D03*
X059100Y027600D02*
D03*
X056700Y024800D02*
D03*
X061400Y023900D02*
D03*
X056700Y027100D02*
D03*
X056000Y028200D02*
D03*
X057800Y030300D02*
D03*
X056800Y030200D02*
D03*
X059000Y029200D02*
D03*
X055391Y027609D02*
D03*
X057100Y025500D02*
D03*
X058000Y027100D02*
D03*
X057251Y028149D02*
D03*
X063200Y034600D02*
D03*
X057700D02*
D03*
X054000Y036800D02*
D03*
X054700D02*
D03*
X055400D02*
D03*
X058900D02*
D03*
X059600D02*
D03*
X060300D02*
D03*
X061000D02*
D03*
X064400D02*
D03*
X065100D02*
D03*
X065800D02*
D03*
X066500D02*
D03*
X060700Y024525D02*
D03*
X063100Y024600D02*
D03*
X063850Y029700D02*
D03*
X064800Y029100D02*
D03*
X061300Y020800D02*
D03*
D38*
X052200Y039800D02*
D03*
Y038841D02*
D03*
Y039300D02*
D03*
X052400Y026600D02*
D03*
Y026075D02*
D03*
X063600Y030900D02*
D03*
X065600Y029800D02*
D03*
X062280Y030480D02*
D03*
X063050Y031150D02*
D03*
X053691Y016900D02*
D03*
Y018000D02*
D03*
Y019100D02*
D03*
X057700Y031200D02*
D03*
X065500Y025050D02*
D03*
X065628Y026422D02*
D03*
X053691Y020200D02*
D03*
X066450Y026100D02*
D03*
X065700Y027750D02*
D03*
X052400Y019800D02*
D03*
X058400Y028340D02*
D03*
X065350Y029100D02*
D03*
D39*
X061673Y027827D02*
D03*
X061909D02*
D03*
X062146D02*
D03*
X062382D02*
D03*
X062618D02*
D03*
X062854D02*
D03*
X063091D02*
D03*
X063327D02*
D03*
Y027591D02*
D03*
X063091D02*
D03*
X062854D02*
D03*
X062618D02*
D03*
X062382D02*
D03*
X062146D02*
D03*
X061909D02*
D03*
X061673D02*
D03*
X063327Y027354D02*
D03*
X063091D02*
D03*
X062854D02*
D03*
X062618D02*
D03*
X062382D02*
D03*
X062146D02*
D03*
X061909D02*
D03*
X061673D02*
D03*
X063327Y027118D02*
D03*
X063091D02*
D03*
X062854D02*
D03*
X062618D02*
D03*
X062382D02*
D03*
X062146D02*
D03*
X061909D02*
D03*
X061673D02*
D03*
X063327Y026882D02*
D03*
X063091D02*
D03*
X062854D02*
D03*
X062618D02*
D03*
X062382D02*
D03*
X062146D02*
D03*
X061909D02*
D03*
X061673D02*
D03*
X063327Y026646D02*
D03*
X063091D02*
D03*
X062854D02*
D03*
X062618D02*
D03*
X062382D02*
D03*
X062146D02*
D03*
X061909D02*
D03*
X061673D02*
D03*
X063327Y026409D02*
D03*
X063091D02*
D03*
X062854D02*
D03*
X062618D02*
D03*
X062382D02*
D03*
X062146D02*
D03*
X061909D02*
D03*
X061673D02*
D03*
X063327Y026173D02*
D03*
X063091D02*
D03*
X062854D02*
D03*
X062618D02*
D03*
X062382D02*
D03*
X062146D02*
D03*
X061909D02*
D03*
X061673D02*
D03*
D40*
X055184Y038693D02*
D03*
X054928D02*
D03*
X054672D02*
D03*
X054416D02*
D03*
X055184Y040307D02*
D03*
X054928D02*
D03*
X054672D02*
D03*
X054416D02*
D03*
D41*
X064263Y024600D02*
D03*
X063337D02*
D03*
D42*
X055824Y018100D02*
D03*
X056376D02*
D03*
D43*
X056909Y029300D02*
D03*
X058091D02*
D03*
X056909Y028000D02*
D03*
X058091D02*
D03*
D44*
X059400Y028270D02*
D03*
Y029530D02*
D03*
X063600Y029700D02*
D03*
Y028440D02*
D03*
X064900Y029700D02*
D03*
Y028440D02*
D03*
X055700Y028630D02*
D03*
Y027370D02*
D03*
D45*
X059500Y024299D02*
D03*
D46*
X060406Y026701D02*
D03*
X059500D02*
D03*
X058594D02*
D03*
D47*
X057100Y024414D02*
D03*
Y026186D02*
D03*
D48*
X065400Y039476D02*
D03*
Y037524D02*
D03*
X059900Y039476D02*
D03*
Y037524D02*
D03*
D49*
X057884Y037654D02*
D03*
X057628D02*
D03*
X057372D02*
D03*
X057116D02*
D03*
X057884Y039346D02*
D03*
X057628D02*
D03*
X057372D02*
D03*
X057116D02*
D03*
X063384Y037654D02*
D03*
X063128D02*
D03*
X062872D02*
D03*
X062616D02*
D03*
X063384Y039346D02*
D03*
X063128D02*
D03*
X062872D02*
D03*
X062616D02*
D03*
D50*
X054420Y024150D02*
D03*
X055680D02*
D03*
X054420Y026450D02*
D03*
X055680D02*
D03*
X054420Y025300D02*
D03*
X055680D02*
D03*
D51*
X065700Y035650D02*
D03*
X060200D02*
D03*
D52*
X054675Y035675D02*
D03*
M02*
