M48
;Layer_Color=9474304
;FILE_FORMAT=2:4
INCH
;TYPE=PLATED
T1F00S00C0.0100
T2F00S00C0.0315
T3F00S00C0.0354
T4F00S00C0.0709
T5F00S00C0.1220
%
T01
X064820Y022800
X065420Y024950
X065820Y026000
X066120
X066420
X066720
Y028000
X066270
X065970
X065670
Y028300
X065970
X066270
Y028600
X065970
X065670
X065370
Y028300
X064820Y028150
Y027850
Y027550
X064520
Y027850
Y028150
X064220
Y028450
Y028750
Y029050
Y029350
X064520
Y029050
Y028750
X064820
Y028450
X064520
X063920
Y028750
Y029050
Y029350
X063620
Y029050
Y028750
X063320
Y029050
Y028450
X063620
Y028150
X063920
Y027850
X063620
Y027550
Y027250
X063920
Y026950
Y026650
Y026350
Y026050
X063620
X063320
X063020
Y026350
Y026650
Y026950
Y027250
X063320
Y026950
X063620
Y026650
Y026364
X063320Y026350
Y026650
X062720
Y026350
X063320Y027550
Y027850
Y028150
X063920Y027550
X064220
Y027850
Y026050
X063270Y024900
X063120Y029500
Y030350
Y030650
X063420
X063720
Y030350
X063420
X062820
Y030650
X062520
Y030350
Y029750
X065323Y029947
Y029553
X065717
Y029947
X066270Y030150
X066570
X066270Y030450
Y030750
Y031050
X066570
X066870
X065444Y030950
X066520Y028890
X066836Y028884
X062420Y028550
X062120
Y027550
X062420
X061820
X062420Y026650
X060731Y026600
X060409
X060458Y025400
X060781
X061070
Y025950
X061820Y025050
X059770Y025000
X059470
Y024700
X059770
Y024400
Y024100
Y023800
X060070
Y024100
Y024400
Y024700
X059020Y024250
X058720
X058420
Y023950
Y023650
Y023350
X058120
Y023050
X057820
X057520
X057220
X056920
X056270Y023200
Y023450
X057520Y023350
X057820
X057520Y023650
X057320Y024200
X057020
X056020Y024750
X055620Y024500
X055320
X055020
X054720
X054420
Y024200
X054720
X055020
Y023900
X054720
X054420
X054470Y023450
X054220
X053970Y023250
X053670
X053370
X053120Y023973
Y024823
X053720Y024850
X053120Y025673
X053270Y028300
X052970
X053420Y028820
Y029900
Y030700
X054529Y030891
X054779Y030891
X055520Y030450
Y030200
Y029950
X055766Y029250
X055520Y028850
X054720Y029000
Y028700
X056420Y028450
X057016Y028753
X057920Y028400
X058370
X058820
X058970Y028750
X058459Y028820
X058420Y027900
X058720
X059020
X059320
Y027200
Y026350
X058370
X057607Y026087
X056770Y026200
X056510
X058720Y023950
Y023650
Y023350
X059020
X059320
X059020Y023650
Y023950
X060070Y023200
X060370Y022450
X060620Y021600
X061220Y023039
Y023361
X060955Y028356
X060420Y028369
Y028046
Y029027
X060543Y029600
X061320Y029750
Y030050
X061620
X061920
X062220
Y030350
Y030650
X061920
X061620
Y030350
X061920
Y029750
X062220
X062420Y029350
X061314Y028835
X061320Y030350
X061070Y030850
X060770
X060470
X059670Y030450
Y030150
Y029850
X058520Y029750
Y030050
X057570Y030061
X057170Y030900
X056920
X056670
X054720Y023450
X054520Y031850
X053981Y031450
X053670Y032430
X053020Y032573
X053070Y032950
X053970Y033050
X054020Y034250
Y034500
X053770
X053520
Y034250
X053770
X054170Y034900
Y035150
X054420Y034900
X054696Y035400
X055570Y034750
X055820
X056070
X056320
X056570
Y034500
Y034250
X056620Y033650
X056370
X056120
X055870
X055620
Y033400
X055870
X056120
X056370
X056620
Y033150
X056370
Y032900
X056620
Y032650
Y032400
Y032150
X056370
X056120
X055870
X055620
Y032400
X055870
Y032650
Y032900
Y033150
X055620
Y032900
Y032650
X056120
Y032400
X056370
Y032650
X056120Y032900
Y033150
X057770Y032950
X058670Y033050
Y032400
X059120Y032350
X059170Y031750
X059220Y031450
X058681
X057693Y031873
X060320Y032150
Y032400
X060570
Y032650
Y032900
Y033150
Y033400
Y033650
X060320
Y033400
Y033150
Y032900
Y032650
X060820
Y032400
Y032150
X060570
X061070
X061320
Y032400
Y032650
Y032900
Y033150
Y033400
Y033650
X061070
X060820
Y033400
X061070
Y033150
Y032900
Y032650
Y032400
X060820Y032900
Y033150
X061270Y034250
Y034500
Y034750
X061020
X060770
X060520
X060270
X059120Y034900
X058870
Y035150
X059395Y035400
X058720Y034500
X058470
Y034250
X058720
X058220
Y034500
Y036250
X057970
Y036500
Y036750
Y037000
Y037250
X057720
Y037000
Y036750
Y036500
Y036250
X057470
Y036000
X057720
X057820Y037800
Y038050
Y038300
X058070
Y038550
Y038800
Y039050
X058320
X058570
Y038800
Y038550
X058320
Y038800
X057820
Y039050
X057570
Y038800
Y038550
X057820
X057570Y038300
Y038050
X057320
Y038300
Y038550
Y038800
Y039050
X057070
Y038800
Y038550
Y038300
Y038050
Y037800
X057320
X057570
X058070
X058320
Y038050
Y038300
X058570
Y038050
Y037800
X058070Y038050
X057320Y037550
X057070
X053920
Y037800
Y038050
Y038300
Y038550
Y038800
Y039050
X053670
X053420
Y038800
X053670
Y038550
Y038300
X053420
Y038550
X053170Y038300
Y038050
X053420
X053670
Y037800
X053420
X053170
Y037550
X053420
X053670
X054220Y040300
Y040600
X055420
Y040300
X058920
Y040600
X060120
Y040300
X061770Y039050
X062020
X062270
Y038800
Y038550
X062020
Y038300
X062270
Y038050
X062020
Y037800
X062270
Y037550
X062020
X061770
Y037800
Y038050
Y038300
Y038550
Y038800
X062020
X062270Y037300
X062420Y036750
Y036500
Y036250
Y036000
Y035750
X062170
Y036000
Y036250
X062470Y032950
X062220Y031850
X065020Y032150
X065270
X065520
Y032400
Y032650
Y032900
Y033150
X065270
Y032900
Y032650
X065020
Y032400
X065270
X065770
Y032650
Y032900
X066020
Y032650
Y032400
Y032150
X065770
Y033150
X066020
Y033400
X065770
X065520
X065270
X065020
Y033150
Y032900
Y033650
X065270
X065520
X065770
X066020
X065970Y034250
Y034500
Y034750
X065720
X065470
X065220
X064970
X063820Y034900
X063570
Y035150
X064096Y035400
X063420Y034500
Y034250
X063170
Y034500
X062920
Y034250
Y036250
X062670
Y036500
Y036750
X062770Y037300
X063020
Y037550
Y037800
X063270
Y038050
Y038300
Y038550
Y038800
Y039050
X063020
Y038800
X062770
Y039050
X062520
Y038800
Y038550
X062770
X063020
Y038300
X062770
Y038050
X063020
X062520
Y038300
Y037800
X062770
Y037550
X062520
Y037300
X063270
Y037550
X063620Y040300
Y040600
X064820
Y040300
X066370Y039050
X066620
X066870
Y038800
X066620
X066370
Y038550
X066620
X066870
Y038300
Y038050
X066620
Y038300
X066370
Y038050
Y037800
X066620
X066870
Y037550
X066620
X066370
T02
X063020Y022200
X063810
X063823Y024300
X064613
X065395
X066182
X063033
X062245
X061458
X061445Y022200
X062233
X059794
X059006
X058216
X057426
X056639
X055851
T03
X053050Y035900
Y038853
T04
X054224Y027197
T05
X066070Y022100
X053820
X057920Y040400
X062620
M30
