G04 Layer_Color=128*
%FSAX24Y24*%
%MOIN*%
G70*
G01*
G75*
%ADD13R,0.0394X0.0354*%
%ADD21R,0.0354X0.0394*%
%ADD23R,0.4173X0.3465*%
%ADD24R,0.0413X0.1634*%
%ADD25R,0.0354X0.0276*%
%ADD35R,0.2906X0.0961*%
%ADD36R,0.0748X0.0532*%
%ADD37R,0.0906X0.0906*%
%ADD38R,0.0394X0.0984*%
%ADD39R,0.1299X0.0984*%
%ADD40R,0.0453X0.1063*%
%ADD41R,0.0276X0.0354*%
%ADD42O,0.0630X0.0177*%
D13*
X067100Y018885D02*
D03*
Y019515D02*
D03*
X066400Y018885D02*
D03*
Y019515D02*
D03*
X065700Y018885D02*
D03*
Y019515D02*
D03*
X065000Y018885D02*
D03*
Y019515D02*
D03*
X064300Y018885D02*
D03*
Y019515D02*
D03*
X059000Y017985D02*
D03*
Y018615D02*
D03*
X058200Y017985D02*
D03*
Y018615D02*
D03*
X062800Y031615D02*
D03*
Y030985D02*
D03*
X057300Y031615D02*
D03*
Y030985D02*
D03*
X068000Y031115D02*
D03*
Y030485D02*
D03*
D21*
X059315Y026700D02*
D03*
X058685D02*
D03*
X053415Y016900D02*
D03*
X052785D02*
D03*
X053415Y018000D02*
D03*
X052785D02*
D03*
X053415Y019100D02*
D03*
X052785D02*
D03*
X053415Y020200D02*
D03*
X052785D02*
D03*
D23*
X054700Y035055D02*
D03*
X065700D02*
D03*
X060200D02*
D03*
D24*
X053200Y031039D02*
D03*
X053700D02*
D03*
X054200D02*
D03*
X055200D02*
D03*
X055700D02*
D03*
X056200D02*
D03*
X064200D02*
D03*
X064700D02*
D03*
X065200D02*
D03*
X066200D02*
D03*
X066700D02*
D03*
X067200D02*
D03*
X058700D02*
D03*
X059200D02*
D03*
X059700D02*
D03*
X060700D02*
D03*
X061200D02*
D03*
X061700D02*
D03*
D25*
X059700Y018576D02*
D03*
Y018024D02*
D03*
X060700Y038424D02*
D03*
Y038976D02*
D03*
X059300Y038424D02*
D03*
Y038976D02*
D03*
D35*
X054400Y037524D02*
D03*
Y039476D02*
D03*
X065400Y037524D02*
D03*
Y039476D02*
D03*
D36*
X066100Y025530D02*
D03*
Y024270D02*
D03*
X064800Y025530D02*
D03*
Y024270D02*
D03*
X063500Y025530D02*
D03*
Y024270D02*
D03*
X062200Y025530D02*
D03*
Y024270D02*
D03*
X060900Y025530D02*
D03*
Y024270D02*
D03*
X059600Y025530D02*
D03*
Y024270D02*
D03*
X064900Y028440D02*
D03*
Y029700D02*
D03*
X063600Y028440D02*
D03*
Y029700D02*
D03*
X062300Y028440D02*
D03*
Y029700D02*
D03*
X057700Y029530D02*
D03*
Y028270D02*
D03*
D37*
X054900Y026086D02*
D03*
Y024314D02*
D03*
D38*
X056294Y026601D02*
D03*
X057200D02*
D03*
X058106D02*
D03*
D39*
X057200Y024199D02*
D03*
D40*
X056791Y028000D02*
D03*
X055609D02*
D03*
X056791Y029300D02*
D03*
X055609D02*
D03*
D41*
X062724Y039900D02*
D03*
X063276D02*
D03*
X057276Y039900D02*
D03*
X056724D02*
D03*
D42*
X061554Y038416D02*
D03*
Y038672D02*
D03*
Y038928D02*
D03*
Y039184D02*
D03*
X063246Y038416D02*
D03*
Y038672D02*
D03*
Y038928D02*
D03*
Y039184D02*
D03*
X058446Y039184D02*
D03*
Y038928D02*
D03*
Y038672D02*
D03*
Y038416D02*
D03*
X056754Y039184D02*
D03*
Y038928D02*
D03*
Y038672D02*
D03*
Y038416D02*
D03*
M02*
