G04 Layer_Color=8388736*
%FSAX24Y24*%
%MOIN*%
G70*
G01*
G75*
%ADD57R,0.0560X0.0438*%
%ADD58R,0.0690X0.1025*%
%ADD59R,0.0434X0.0356*%
%ADD60R,0.0474X0.0434*%
%ADD61R,0.0533X0.0651*%
%ADD62R,0.0434X0.0474*%
%ADD63R,0.0651X0.0533*%
%ADD64R,0.2049X0.2049*%
%ADD65R,0.0729X0.0178*%
%ADD66R,0.0178X0.0729*%
%ADD67R,0.1005X0.0592*%
%ADD68R,0.0647X0.1792*%
%ADD69R,0.0414X0.0158*%
G04:AMPARAMS|DCode=70|XSize=114.3mil|YSize=323mil|CornerRadius=57.2mil|HoleSize=0mil|Usage=FLASHONLY|Rotation=0.000|XOffset=0mil|YOffset=0mil|HoleType=Round|Shape=RoundedRectangle|*
%AMROUNDEDRECTD70*
21,1,0.1143,0.2087,0,0,0.0*
21,1,0.0000,0.3230,0,0,0.0*
1,1,0.1143,0.0000,-0.1043*
1,1,0.1143,0.0000,-0.1043*
1,1,0.1143,0.0000,0.1043*
1,1,0.1143,0.0000,0.1043*
%
%ADD70ROUNDEDRECTD70*%
%ADD71R,0.0453X0.1674*%
%ADD72R,0.4253X0.3545*%
%ADD73R,0.0560X0.0640*%
%ADD74R,0.3085X0.1780*%
%ADD75C,0.0650*%
%ADD76C,0.0710*%
%ADD77C,0.2090*%
%ADD78C,0.0360*%
%ADD79C,0.0320*%
%ADD80C,0.0180*%
G36*
X067805Y034640D02*
X067810Y034639D01*
X067815Y034637D01*
X067820Y034635D01*
X067824Y034632D01*
X067828Y034628D01*
X067832Y034624D01*
X067835Y034620D01*
X067837Y034615D01*
X067839Y034610D01*
X067840Y034605D01*
X067840Y034600D01*
X067840Y031700D01*
X067840Y031695D01*
X067839Y031690D01*
X067837Y031685D01*
X067835Y031680D01*
X067832Y031676D01*
X067828Y031672D01*
X067824Y031668D01*
X067820Y031665D01*
X067815Y031663D01*
X067810Y031661D01*
X067805Y031660D01*
X067800Y031660D01*
X057000Y031660D01*
X056999Y031660D01*
X056999Y031660D01*
X056998Y031660D01*
X056998Y031660D01*
X056960Y031662D01*
X056845Y031648D01*
X056728Y031600D01*
X056626Y031518D01*
X056600Y031486D01*
X056600Y031486D01*
X056600Y031486D01*
X056599Y031486D01*
X056599Y031485D01*
X056598Y031485D01*
X056514Y031390D01*
X056281Y031089D01*
X056073Y030764D01*
X055895Y030421D01*
X055747Y030063D01*
X055631Y029695D01*
X055547Y029318D01*
X055489Y028813D01*
X055485Y028644D01*
X055485Y028644D01*
X055484Y028583D01*
X055483Y028581D01*
X055483Y028579D01*
X055483Y028578D01*
X055483Y028577D01*
X055483Y028575D01*
X055482Y028573D01*
X055437Y028396D01*
X055436Y028394D01*
X055435Y028391D01*
X055435Y028391D01*
X055435Y028391D01*
X055434Y028389D01*
X055433Y028387D01*
X055372Y028272D01*
X055371Y028271D01*
X055371Y028270D01*
X055370Y028269D01*
X055369Y028268D01*
X055368Y028267D01*
X055367Y028266D01*
X055285Y028165D01*
X055284Y028164D01*
X055283Y028163D01*
X055282Y028162D01*
X055282Y028161D01*
X055280Y028161D01*
X055280Y028160D01*
X055179Y028077D01*
X055178Y028077D01*
X055177Y028076D01*
X055176Y028075D01*
X055175Y028074D01*
X055174Y028074D01*
X055173Y028073D01*
X055058Y028012D01*
X055056Y028011D01*
X055054Y028010D01*
X055054Y028010D01*
X055053Y028010D01*
X055051Y028009D01*
X055049Y028008D01*
X054871Y027963D01*
X054869Y027962D01*
X054867Y027962D01*
X054867Y027962D01*
X054866Y027962D01*
X054864Y027961D01*
X054862Y027961D01*
X054801Y027960D01*
X054800Y027960D01*
X054800Y027960D01*
X053000Y027960D01*
X053000Y027960D01*
X052928D01*
X052926Y027960D01*
X052925D01*
X052924Y027960D01*
X052922Y027960D01*
X052921Y027961D01*
X052920Y027961D01*
X052919Y027961D01*
X052917Y027961D01*
X052916Y027962D01*
X052915Y027962D01*
X052710Y028032D01*
X052709Y028032D01*
X052707Y028033D01*
X052706Y028033D01*
X052705Y028034D01*
X052704Y028034D01*
X052703Y028035D01*
X052702Y028036D01*
X052700Y028036D01*
X052699Y028037D01*
X052698Y028038D01*
X052583Y028126D01*
X052579Y028129D01*
Y028129D01*
X052579D01*
X052576Y028133D01*
X052488Y028248D01*
X052487Y028249D01*
X052486Y028250D01*
X052486Y028251D01*
X052485Y028253D01*
X052484Y028254D01*
X052484Y028255D01*
X052483Y028256D01*
X052483Y028257D01*
X052482Y028259D01*
X052482Y028260D01*
X052412Y028465D01*
X052412Y028466D01*
X052411Y028467D01*
X052411Y028468D01*
X052411Y028470D01*
X052411Y028471D01*
X052410Y028472D01*
X052410Y028474D01*
X052410Y028475D01*
Y028476D01*
X052410Y028478D01*
Y028550D01*
X052410Y033950D01*
D01*
Y033950D01*
Y034014D01*
X052410Y034016D01*
X052410Y034019D01*
X052410Y034019D01*
X052410Y034019D01*
X052411Y034021D01*
X052411Y034024D01*
X052458Y034210D01*
X052458Y034212D01*
X052459Y034214D01*
X052459Y034214D01*
X052459Y034215D01*
X052460Y034217D01*
X052461Y034219D01*
X052522Y034332D01*
X052522Y034333D01*
X052523Y034334D01*
X052524Y034335D01*
X052524Y034336D01*
X052525Y034337D01*
X052526Y034338D01*
X052607Y034437D01*
X052608Y034438D01*
X052609Y034439D01*
X052610Y034440D01*
X052611Y034441D01*
X052612Y034442D01*
X052613Y034443D01*
X052712Y034524D01*
X052713Y034525D01*
X052714Y034526D01*
X052715Y034526D01*
X052716Y034527D01*
X052717Y034528D01*
X052718Y034528D01*
X052831Y034589D01*
X052833Y034590D01*
X052835Y034591D01*
X052836Y034591D01*
X052836Y034591D01*
X052838Y034592D01*
X052840Y034592D01*
X053026Y034639D01*
X053029Y034639D01*
X053031Y034640D01*
X053031Y034640D01*
X053031Y034640D01*
X053034Y034640D01*
X053036Y034640D01*
X053100D01*
X067800Y034640D01*
X067805Y034640D01*
D02*
G37*
G36*
X056793Y027615D02*
X056799Y027614D01*
X056804Y027612D01*
X056808Y027610D01*
X056813Y027607D01*
X056817Y027603D01*
X056820Y027599D01*
X056823Y027595D01*
X056825Y027590D01*
X056827Y027585D01*
X056828Y027580D01*
X056828Y027575D01*
Y024425D01*
X056828Y024420D01*
X056827Y024415D01*
X056825Y024410D01*
X056823Y024405D01*
X056820Y024401D01*
X056817Y024397D01*
X056813Y024393D01*
X056808Y024390D01*
X056804Y024388D01*
X056799Y024386D01*
X056793Y024385D01*
X056788Y024385D01*
X056001D01*
X055996Y024385D01*
X055938Y024393D01*
X055933Y024394D01*
X055928Y024396D01*
X055856Y024426D01*
X055852Y024428D01*
X055847Y024431D01*
X055785Y024478D01*
X055782Y024482D01*
X055778Y024485D01*
X055731Y024547D01*
X055729Y024549D01*
X055728Y024552D01*
X055726Y024556D01*
X055696Y024628D01*
X055694Y024633D01*
X055693Y024638D01*
X055685Y024696D01*
X055685Y024701D01*
Y024720D01*
Y027280D01*
Y027299D01*
X055685Y027304D01*
X055693Y027362D01*
X055694Y027367D01*
X055696Y027372D01*
X055726Y027444D01*
X055728Y027448D01*
X055731Y027453D01*
X055778Y027515D01*
X055782Y027518D01*
X055785Y027522D01*
X055785Y027522D01*
X055847Y027569D01*
X055849Y027571D01*
X055852Y027572D01*
X055856Y027574D01*
X055928Y027604D01*
X055933Y027606D01*
X055938Y027607D01*
X055996Y027615D01*
X056001Y027615D01*
X056001D01*
X056001D01*
X056020Y027615D01*
X056020Y027615D01*
X056788D01*
X056793Y027615D01*
D02*
G37*
G36*
X058604D02*
X058662Y027607D01*
X058667Y027606D01*
X058672Y027604D01*
X058744Y027574D01*
X058748Y027572D01*
X058751Y027571D01*
X058753Y027569D01*
X058815Y027522D01*
X058818Y027518D01*
X058822Y027515D01*
X058869Y027453D01*
X058872Y027448D01*
X058874Y027444D01*
X058904Y027372D01*
X058906Y027367D01*
X058907Y027362D01*
X058915Y027304D01*
X058915Y027299D01*
Y027280D01*
Y024720D01*
Y024701D01*
X058915Y024696D01*
X058907Y024638D01*
X058906Y024633D01*
X058904Y024628D01*
X058874Y024556D01*
X058872Y024552D01*
X058871Y024549D01*
X058869Y024547D01*
X058822Y024485D01*
X058818Y024482D01*
X058815Y024478D01*
X058753Y024431D01*
X058748Y024428D01*
X058744Y024426D01*
X058672Y024396D01*
X058667Y024394D01*
X058662Y024393D01*
X058604Y024385D01*
X058599Y024385D01*
X057812D01*
X057807Y024385D01*
X057801Y024386D01*
X057796Y024388D01*
X057792Y024390D01*
X057787Y024393D01*
X057783Y024397D01*
X057780Y024401D01*
X057777Y024405D01*
X057775Y024410D01*
X057773Y024415D01*
X057772Y024420D01*
X057772Y024425D01*
Y027575D01*
X057772Y027580D01*
X057773Y027585D01*
X057775Y027590D01*
X057777Y027595D01*
X057780Y027599D01*
X057783Y027603D01*
X057787Y027607D01*
X057792Y027610D01*
X057796Y027612D01*
X057801Y027614D01*
X057807Y027615D01*
X057812Y027615D01*
X058599D01*
X058604Y027615D01*
D02*
G37*
G36*
X055331Y040740D02*
X055333Y040740D01*
X055422Y040731D01*
X055423Y040731D01*
X055424Y040731D01*
X055425Y040731D01*
X055427Y040730D01*
X055428Y040730D01*
X055429Y040730D01*
X055542Y040695D01*
X055544Y040695D01*
X055545Y040695D01*
X055546Y040694D01*
X055547Y040694D01*
X055548Y040693D01*
X055550Y040692D01*
X055654Y040637D01*
X055655Y040636D01*
X055656Y040635D01*
X055657Y040635D01*
X055658Y040634D01*
X055659Y040633D01*
X055660Y040632D01*
X055752Y040557D01*
X055753Y040556D01*
X055754Y040556D01*
X055755Y040555D01*
X055756Y040554D01*
X055756Y040553D01*
X055757Y040552D01*
X055832Y040460D01*
X055833Y040459D01*
X055834Y040458D01*
X055835Y040457D01*
X055835Y040456D01*
X055836Y040455D01*
X055837Y040454D01*
X055892Y040350D01*
X055893Y040348D01*
X055894Y040347D01*
X055894Y040346D01*
X055895Y040345D01*
X055895Y040344D01*
X055895Y040342D01*
X055930Y040229D01*
X055930Y040228D01*
X055930Y040227D01*
X055931Y040225D01*
X055931Y040224D01*
X055931Y040223D01*
X055931Y040222D01*
X055940Y040133D01*
X055940Y040131D01*
X055940Y040129D01*
X055940Y040100D01*
D01*
X055940Y036300D01*
X055940Y036295D01*
X055939Y036290D01*
X055937Y036285D01*
X055935Y036280D01*
X055932Y036276D01*
X055928Y036272D01*
X055924Y036268D01*
X055920Y036265D01*
X055915Y036263D01*
X055910Y036261D01*
X055905Y036260D01*
X055900Y036260D01*
X052900D01*
X052895Y036260D01*
X052890Y036261D01*
X052885Y036263D01*
X052880Y036265D01*
X052876Y036268D01*
X052872Y036272D01*
X052868Y036276D01*
X052865Y036280D01*
X052863Y036285D01*
X052861Y036290D01*
X052860Y036295D01*
X052860Y036300D01*
Y040100D01*
X052860Y040129D01*
X052860Y040131D01*
X052860Y040133D01*
X052869Y040222D01*
X052869Y040223D01*
X052869Y040224D01*
X052869Y040225D01*
X052870Y040227D01*
X052870Y040228D01*
X052870Y040229D01*
X052905Y040342D01*
X052905Y040344D01*
X052905Y040345D01*
X052906Y040346D01*
X052906Y040347D01*
X052907Y040348D01*
X052908Y040350D01*
X052963Y040454D01*
X052964Y040455D01*
X052965Y040456D01*
X052965Y040457D01*
X052966Y040458D01*
X052967Y040459D01*
X052968Y040460D01*
X053043Y040552D01*
X053044Y040553D01*
X053044Y040554D01*
X053045Y040555D01*
X053046Y040556D01*
X053047Y040556D01*
X053048Y040557D01*
X053140Y040632D01*
X053141Y040633D01*
X053142Y040634D01*
X053143Y040635D01*
X053144Y040635D01*
X053145Y040636D01*
X053146Y040637D01*
X053250Y040692D01*
X053252Y040693D01*
X053253Y040694D01*
X053254Y040694D01*
X053255Y040695D01*
X053256Y040695D01*
X053258Y040695D01*
X053371Y040730D01*
X053372Y040730D01*
X053373Y040730D01*
X053375Y040731D01*
X053376Y040731D01*
X053377Y040731D01*
X053378Y040731D01*
X053467Y040740D01*
X053469Y040740D01*
X053471Y040740D01*
X053500Y040740D01*
X055300Y040740D01*
D01*
X055329Y040740D01*
X055331Y040740D01*
D02*
G37*
G36*
X060831Y040740D02*
X060833Y040740D01*
X060922Y040731D01*
X060923Y040731D01*
X060924Y040731D01*
X060925Y040731D01*
X060927Y040730D01*
X060928Y040730D01*
X060929Y040730D01*
X061042Y040695D01*
X061044Y040695D01*
X061045Y040695D01*
X061046Y040694D01*
X061047Y040694D01*
X061048Y040693D01*
X061050Y040692D01*
X061154Y040637D01*
X061155Y040636D01*
X061156Y040635D01*
X061157Y040635D01*
X061158Y040634D01*
X061159Y040633D01*
X061160Y040632D01*
X061252Y040557D01*
X061253Y040556D01*
X061254Y040556D01*
X061255Y040555D01*
X061256Y040554D01*
X061256Y040553D01*
X061257Y040552D01*
X061332Y040460D01*
X061333Y040459D01*
X061334Y040458D01*
X061335Y040457D01*
X061335Y040456D01*
X061336Y040455D01*
X061337Y040454D01*
X061392Y040350D01*
X061393Y040348D01*
X061394Y040347D01*
X061394Y040346D01*
X061395Y040345D01*
X061395Y040344D01*
X061395Y040342D01*
X061430Y040229D01*
X061430Y040228D01*
X061430Y040227D01*
X061431Y040225D01*
X061431Y040224D01*
X061431Y040223D01*
X061431Y040222D01*
X061440Y040133D01*
X061440Y040131D01*
X061440Y040129D01*
X061440Y040100D01*
D01*
X061440Y038400D01*
X061440Y038395D01*
X061439Y038390D01*
X061437Y038385D01*
X061435Y038380D01*
X061432Y038376D01*
X061428Y038372D01*
X061424Y038368D01*
X061420Y038365D01*
X061415Y038363D01*
X061410Y038361D01*
X061405Y038360D01*
X061400Y038360D01*
X058400D01*
X058395Y038360D01*
X058390Y038361D01*
X058385Y038363D01*
X058380Y038365D01*
X058376Y038368D01*
X058372Y038372D01*
X058368Y038376D01*
X058365Y038380D01*
X058363Y038385D01*
X058361Y038390D01*
X058360Y038395D01*
X058360Y038400D01*
Y040100D01*
Y040129D01*
X058360Y040131D01*
X058360Y040133D01*
X058369Y040222D01*
X058369Y040223D01*
X058369Y040224D01*
X058369Y040225D01*
X058370Y040227D01*
X058370Y040228D01*
X058370Y040229D01*
X058405Y040342D01*
X058405Y040344D01*
X058405Y040345D01*
X058406Y040346D01*
X058406Y040347D01*
X058407Y040348D01*
X058408Y040350D01*
X058463Y040454D01*
X058464Y040455D01*
X058465Y040456D01*
X058465Y040457D01*
X058466Y040458D01*
X058467Y040459D01*
X058468Y040460D01*
X058543Y040552D01*
X058544Y040553D01*
X058544Y040554D01*
X058545Y040555D01*
X058546Y040556D01*
X058547Y040556D01*
X058548Y040557D01*
X058640Y040632D01*
X058641Y040633D01*
X058642Y040634D01*
X058643Y040635D01*
X058644Y040635D01*
X058645Y040636D01*
X058646Y040637D01*
X058750Y040692D01*
X058752Y040693D01*
X058753Y040694D01*
X058754Y040694D01*
X058755Y040695D01*
X058756Y040695D01*
X058758Y040695D01*
X058871Y040730D01*
X058872Y040730D01*
X058873Y040730D01*
X058875Y040731D01*
X058876Y040731D01*
X058877Y040731D01*
X058878Y040731D01*
X058967Y040740D01*
X058969Y040740D01*
X058971Y040740D01*
X059000D01*
X060800Y040740D01*
D01*
X060829Y040740D01*
X060831Y040740D01*
D02*
G37*
G36*
X066331Y040740D02*
X066333Y040740D01*
X066422Y040731D01*
X066423Y040731D01*
X066424Y040731D01*
X066425Y040731D01*
X066427Y040730D01*
X066428Y040730D01*
X066429Y040730D01*
X066542Y040695D01*
X066544Y040695D01*
X066545Y040695D01*
X066546Y040694D01*
X066547Y040694D01*
X066548Y040693D01*
X066550Y040692D01*
X066654Y040637D01*
X066655Y040636D01*
X066656Y040635D01*
X066657Y040635D01*
X066658Y040634D01*
X066659Y040633D01*
X066660Y040632D01*
X066752Y040557D01*
X066753Y040556D01*
X066754Y040556D01*
X066755Y040555D01*
X066756Y040554D01*
X066756Y040553D01*
X066757Y040552D01*
X066832Y040460D01*
X066833Y040459D01*
X066834Y040458D01*
X066835Y040457D01*
X066835Y040456D01*
X066836Y040455D01*
X066837Y040454D01*
X066892Y040350D01*
X066893Y040348D01*
X066894Y040347D01*
X066894Y040346D01*
X066895Y040345D01*
X066895Y040344D01*
X066895Y040342D01*
X066930Y040229D01*
X066930Y040228D01*
X066930Y040227D01*
X066931Y040225D01*
X066931Y040224D01*
X066931Y040223D01*
X066931Y040222D01*
X066940Y040133D01*
X066940Y040131D01*
X066940Y040129D01*
X066940Y040100D01*
D01*
X066940Y038400D01*
X066940Y038395D01*
X066939Y038390D01*
X066937Y038385D01*
X066935Y038380D01*
X066932Y038376D01*
X066928Y038372D01*
X066924Y038368D01*
X066920Y038365D01*
X066915Y038363D01*
X066910Y038361D01*
X066905Y038360D01*
X066900Y038360D01*
X063900D01*
X063895Y038360D01*
X063890Y038361D01*
X063885Y038363D01*
X063880Y038365D01*
X063876Y038368D01*
X063872Y038372D01*
X063868Y038376D01*
X063865Y038380D01*
X063863Y038385D01*
X063861Y038390D01*
X063860Y038395D01*
X063860Y038400D01*
Y040100D01*
Y040129D01*
X063860Y040131D01*
X063860Y040133D01*
X063869Y040222D01*
X063869Y040223D01*
X063869Y040224D01*
X063869Y040225D01*
X063870Y040227D01*
X063870Y040228D01*
X063870Y040229D01*
X063905Y040342D01*
X063905Y040344D01*
X063905Y040345D01*
X063906Y040346D01*
X063906Y040347D01*
X063907Y040348D01*
X063908Y040350D01*
X063963Y040454D01*
X063964Y040455D01*
X063965Y040456D01*
X063965Y040457D01*
X063966Y040458D01*
X063967Y040459D01*
X063968Y040460D01*
X064043Y040552D01*
X064044Y040553D01*
X064044Y040554D01*
X064045Y040555D01*
X064046Y040556D01*
X064047Y040556D01*
X064048Y040557D01*
X064140Y040632D01*
X064141Y040633D01*
X064142Y040634D01*
X064143Y040635D01*
X064144Y040635D01*
X064145Y040636D01*
X064146Y040637D01*
X064250Y040692D01*
X064252Y040693D01*
X064253Y040694D01*
X064254Y040694D01*
X064255Y040695D01*
X064256Y040695D01*
X064258Y040695D01*
X064371Y040730D01*
X064372Y040730D01*
X064373Y040730D01*
X064375Y040731D01*
X064376Y040731D01*
X064377Y040731D01*
X064378Y040731D01*
X064467Y040740D01*
X064469Y040740D01*
X064471Y040740D01*
X064500D01*
X066300Y040740D01*
D01*
X066329Y040740D01*
X066331Y040740D01*
D02*
G37*
D57*
X056800Y039644D02*
D03*
Y038356D02*
D03*
X062300Y039644D02*
D03*
Y038356D02*
D03*
X067700Y039644D02*
D03*
Y038356D02*
D03*
D58*
X054700Y026700D02*
D03*
Y025500D02*
D03*
D59*
X065100Y028576D02*
D03*
Y028024D02*
D03*
Y027376D02*
D03*
Y026824D02*
D03*
Y026176D02*
D03*
Y025624D02*
D03*
X052550Y036424D02*
D03*
Y036976D02*
D03*
D60*
X064500Y023885D02*
D03*
Y024515D02*
D03*
X061750Y023885D02*
D03*
Y024515D02*
D03*
X061000Y023885D02*
D03*
Y024515D02*
D03*
X068200Y037185D02*
D03*
Y037815D02*
D03*
X062800Y037185D02*
D03*
Y037815D02*
D03*
X057300Y037185D02*
D03*
Y037815D02*
D03*
X060850Y029635D02*
D03*
Y030265D02*
D03*
X062500Y023885D02*
D03*
Y024515D02*
D03*
X063700Y023885D02*
D03*
Y024515D02*
D03*
D61*
X063246Y029700D02*
D03*
X063954D02*
D03*
D62*
X061885Y030000D02*
D03*
X062515D02*
D03*
D63*
X056100Y029554D02*
D03*
Y028846D02*
D03*
D64*
X062500Y027000D02*
D03*
D65*
X060800Y028089D02*
D03*
Y027893D02*
D03*
Y027696D02*
D03*
Y027499D02*
D03*
Y027302D02*
D03*
Y027105D02*
D03*
Y026908D02*
D03*
Y026711D02*
D03*
Y026515D02*
D03*
Y026318D02*
D03*
Y026121D02*
D03*
Y025924D02*
D03*
X064186D02*
D03*
Y026121D02*
D03*
Y026318D02*
D03*
Y026515D02*
D03*
Y026711D02*
D03*
Y026908D02*
D03*
Y027105D02*
D03*
Y027302D02*
D03*
Y027499D02*
D03*
Y027696D02*
D03*
Y027893D02*
D03*
Y028089D02*
D03*
D66*
X061410Y025314D02*
D03*
X061607D02*
D03*
X061804D02*
D03*
X062001D02*
D03*
X062198D02*
D03*
X062394D02*
D03*
X062591D02*
D03*
X062788D02*
D03*
X062985D02*
D03*
X063182D02*
D03*
X063379D02*
D03*
X063576D02*
D03*
Y028700D02*
D03*
X063379D02*
D03*
X063182D02*
D03*
X062985D02*
D03*
X062788D02*
D03*
X062591D02*
D03*
X062394D02*
D03*
X062198D02*
D03*
X062001D02*
D03*
X061804D02*
D03*
X061607D02*
D03*
X061410D02*
D03*
D67*
X059500Y029796D02*
D03*
Y028596D02*
D03*
D68*
X057800Y029200D02*
D03*
D69*
X058349Y028511D02*
D03*
Y028708D02*
D03*
Y028905D02*
D03*
Y029102D02*
D03*
Y029298D02*
D03*
Y029495D02*
D03*
Y029692D02*
D03*
Y029889D02*
D03*
X057251Y028511D02*
D03*
Y028708D02*
D03*
Y028905D02*
D03*
Y029102D02*
D03*
Y029298D02*
D03*
Y029495D02*
D03*
Y029692D02*
D03*
Y029889D02*
D03*
D70*
X058343Y026000D02*
D03*
X056257D02*
D03*
D71*
X056200Y037161D02*
D03*
X055700D02*
D03*
X055200D02*
D03*
X054200D02*
D03*
X053700D02*
D03*
X053200D02*
D03*
X058700D02*
D03*
X059200D02*
D03*
X059700D02*
D03*
X060700D02*
D03*
X061200D02*
D03*
X061700D02*
D03*
X067200D02*
D03*
X066700D02*
D03*
X066200D02*
D03*
X065200D02*
D03*
X064700D02*
D03*
X064200D02*
D03*
D72*
X054700Y033145D02*
D03*
X060200D02*
D03*
X065700D02*
D03*
D73*
X052500Y020200D02*
D03*
X053691D02*
D03*
Y019100D02*
D03*
X052500D02*
D03*
Y018000D02*
D03*
X053691D02*
D03*
Y016900D02*
D03*
X052500D02*
D03*
D74*
X065397Y037150D02*
D03*
X059897D02*
D03*
D75*
X062800Y018000D02*
D03*
X063800D02*
D03*
X064800D02*
D03*
X066800D02*
D03*
X067800Y017000D02*
D03*
X066800D02*
D03*
X065800D02*
D03*
X064800D02*
D03*
X063800D02*
D03*
X062800D02*
D03*
X061800D02*
D03*
X060800D02*
D03*
X059800D02*
D03*
X058800D02*
D03*
X057800D02*
D03*
X056800D02*
D03*
X055800D02*
D03*
X054800D02*
D03*
Y018000D02*
D03*
Y019000D02*
D03*
Y020000D02*
D03*
Y021000D02*
D03*
Y022000D02*
D03*
Y023000D02*
D03*
X055800D02*
D03*
X056800D02*
D03*
X057800D02*
D03*
X058800D02*
D03*
X059800D02*
D03*
X060800D02*
D03*
X061800D02*
D03*
X062800D02*
D03*
X063800D02*
D03*
X064800D02*
D03*
X065800D02*
D03*
X066800D02*
D03*
X067800D02*
D03*
D76*
X053200Y024484D02*
D03*
Y023694D02*
D03*
Y022906D02*
D03*
Y022119D02*
D03*
X067200Y024738D02*
D03*
Y026307D02*
D03*
Y027097D02*
D03*
Y027887D02*
D03*
Y028675D02*
D03*
Y029462D02*
D03*
Y025525D02*
D03*
D77*
X067600Y015000D02*
D03*
X052900D02*
D03*
D78*
X059200Y021300D02*
D03*
X052100Y038300D02*
D03*
X052400Y025300D02*
D03*
X053300Y037500D02*
D03*
Y036800D02*
D03*
X056800Y039900D02*
D03*
X058600Y018100D02*
D03*
X057600Y019700D02*
D03*
X055941Y020341D02*
D03*
X055400Y020700D02*
D03*
X055500Y019500D02*
D03*
X059500Y019800D02*
D03*
X053500Y026800D02*
D03*
X067400Y039600D02*
D03*
X059600Y030700D02*
D03*
X055400Y037500D02*
D03*
X061800Y039400D02*
D03*
X061477Y029343D02*
D03*
X063500Y038500D02*
D03*
X062700Y036000D02*
D03*
X058000Y038500D02*
D03*
X064400Y037500D02*
D03*
X065100D02*
D03*
X065800D02*
D03*
X066500D02*
D03*
X054000D02*
D03*
X054700D02*
D03*
X064400Y039500D02*
D03*
X065100D02*
D03*
X065800D02*
D03*
X066500D02*
D03*
X060300D02*
D03*
X059600D02*
D03*
X061200Y019100D02*
D03*
X063100Y021200D02*
D03*
X065300Y022400D02*
D03*
X061000Y037500D02*
D03*
X060300D02*
D03*
X059600D02*
D03*
X058900D02*
D03*
X068100Y028450D02*
D03*
X061356Y029923D02*
D03*
X065600Y024300D02*
D03*
X052400Y021150D02*
D03*
X066850D02*
D03*
X058900Y039500D02*
D03*
X061000D02*
D03*
X058500Y025500D02*
D03*
X059100Y027600D02*
D03*
X056700Y024800D02*
D03*
X061400Y023900D02*
D03*
X056700Y027100D02*
D03*
X056000Y028200D02*
D03*
X057800Y030300D02*
D03*
X056800Y030200D02*
D03*
X059000Y029200D02*
D03*
X055391Y027609D02*
D03*
X057100Y025500D02*
D03*
X058000Y027100D02*
D03*
X057251Y028149D02*
D03*
X063200Y034600D02*
D03*
X057700D02*
D03*
X054000Y036800D02*
D03*
X054700D02*
D03*
X055400D02*
D03*
X058900D02*
D03*
X059600D02*
D03*
X060300D02*
D03*
X061000D02*
D03*
X064400D02*
D03*
X065100D02*
D03*
X065800D02*
D03*
X066500D02*
D03*
X060700Y024525D02*
D03*
X063100Y024600D02*
D03*
X063850Y029700D02*
D03*
X064800Y029100D02*
D03*
X061300Y020800D02*
D03*
D79*
X052200Y039800D02*
D03*
Y038841D02*
D03*
Y039300D02*
D03*
X052400Y026600D02*
D03*
Y026075D02*
D03*
X063600Y030900D02*
D03*
X065600Y029800D02*
D03*
X062280Y030480D02*
D03*
X063050Y031150D02*
D03*
X053691Y016900D02*
D03*
Y018000D02*
D03*
Y019100D02*
D03*
X057700Y031200D02*
D03*
X065500Y025050D02*
D03*
X065628Y026422D02*
D03*
X053691Y020200D02*
D03*
X066450Y026100D02*
D03*
X065700Y027750D02*
D03*
X052400Y019800D02*
D03*
X058400Y028340D02*
D03*
X065350Y029100D02*
D03*
D80*
X061673Y027827D02*
D03*
X061909D02*
D03*
X062146D02*
D03*
X062382D02*
D03*
X062618D02*
D03*
X062854D02*
D03*
X063091D02*
D03*
X063327D02*
D03*
Y027591D02*
D03*
X063091D02*
D03*
X062854D02*
D03*
X062618D02*
D03*
X062382D02*
D03*
X062146D02*
D03*
X061909D02*
D03*
X061673D02*
D03*
X063327Y027354D02*
D03*
X063091D02*
D03*
X062854D02*
D03*
X062618D02*
D03*
X062382D02*
D03*
X062146D02*
D03*
X061909D02*
D03*
X061673D02*
D03*
X063327Y027118D02*
D03*
X063091D02*
D03*
X062854D02*
D03*
X062618D02*
D03*
X062382D02*
D03*
X062146D02*
D03*
X061909D02*
D03*
X061673D02*
D03*
X063327Y026882D02*
D03*
X063091D02*
D03*
X062854D02*
D03*
X062618D02*
D03*
X062382D02*
D03*
X062146D02*
D03*
X061909D02*
D03*
X061673D02*
D03*
X063327Y026646D02*
D03*
X063091D02*
D03*
X062854D02*
D03*
X062618D02*
D03*
X062382D02*
D03*
X062146D02*
D03*
X061909D02*
D03*
X061673D02*
D03*
X063327Y026409D02*
D03*
X063091D02*
D03*
X062854D02*
D03*
X062618D02*
D03*
X062382D02*
D03*
X062146D02*
D03*
X061909D02*
D03*
X061673D02*
D03*
X063327Y026173D02*
D03*
X063091D02*
D03*
X062854D02*
D03*
X062618D02*
D03*
X062382D02*
D03*
X062146D02*
D03*
X061909D02*
D03*
X061673D02*
D03*
M02*
