G04 Layer_Color=8421504*
%FSAX24Y24*%
%MOIN*%
G70*
G01*
G75*
%ADD10R,0.0480X0.0358*%
%ADD11R,0.0610X0.0945*%
%ADD12R,0.0354X0.0276*%
%ADD13R,0.0394X0.0354*%
%ADD14R,0.0453X0.0571*%
%ADD15R,0.0354X0.0394*%
%ADD16R,0.0571X0.0453*%
%ADD17R,0.1969X0.1969*%
%ADD18R,0.0669X0.0118*%
%ADD19R,0.0118X0.0669*%
%ADD20R,0.0925X0.0512*%
%ADD21R,0.0587X0.1732*%
%ADD22R,0.0354X0.0098*%
G04:AMPARAMS|DCode=23|XSize=106.3mil|YSize=315mil|CornerRadius=53.2mil|HoleSize=0mil|Usage=FLASHONLY|Rotation=0.000|XOffset=0mil|YOffset=0mil|HoleType=Round|Shape=RoundedRectangle|*
%AMROUNDEDRECTD23*
21,1,0.1063,0.2087,0,0,0.0*
21,1,0.0000,0.3150,0,0,0.0*
1,1,0.1063,0.0000,-0.1043*
1,1,0.1063,0.0000,-0.1043*
1,1,0.1063,0.0000,0.1043*
1,1,0.1063,0.0000,0.1043*
%
%ADD23ROUNDEDRECTD23*%
%ADD24R,0.0413X0.1634*%
%ADD25R,0.4173X0.3465*%
%ADD26R,0.0480X0.0560*%
G36*
X058657Y027567D02*
X058728Y027537D01*
X058790Y027490D01*
X058837Y027428D01*
X058867Y027357D01*
X058875Y027299D01*
Y027280D01*
Y024720D01*
Y024701D01*
X058867Y024643D01*
X058837Y024572D01*
X058790Y024510D01*
X058728Y024463D01*
X058657Y024433D01*
X058599Y024425D01*
X057812D01*
Y027575D01*
X058599D01*
X058657Y027567D01*
D02*
G37*
G36*
X056788Y024425D02*
X056001D01*
X055943Y024433D01*
X055872Y024463D01*
X055810Y024510D01*
X055763Y024572D01*
X055733Y024643D01*
X055725Y024701D01*
Y024720D01*
Y027280D01*
Y027299D01*
X055733Y027357D01*
X055763Y027428D01*
X055810Y027490D01*
X055872Y027537D01*
X055943Y027567D01*
X056001Y027575D01*
X056020Y027575D01*
Y027575D01*
X056788D01*
Y024425D01*
D02*
G37*
D10*
X056800Y039644D02*
D03*
Y038356D02*
D03*
X062300Y039644D02*
D03*
Y038356D02*
D03*
X067700Y039644D02*
D03*
Y038356D02*
D03*
D11*
X054700Y026700D02*
D03*
Y025500D02*
D03*
D12*
X065100Y028576D02*
D03*
Y028024D02*
D03*
Y027376D02*
D03*
Y026824D02*
D03*
Y026176D02*
D03*
Y025624D02*
D03*
X052550Y036424D02*
D03*
Y036976D02*
D03*
D13*
X064500Y023885D02*
D03*
Y024515D02*
D03*
X061750Y023885D02*
D03*
Y024515D02*
D03*
X061000Y023885D02*
D03*
Y024515D02*
D03*
X068200Y037185D02*
D03*
Y037815D02*
D03*
X062800Y037185D02*
D03*
Y037815D02*
D03*
X057300Y037185D02*
D03*
Y037815D02*
D03*
X060850Y029635D02*
D03*
Y030265D02*
D03*
X062500Y023885D02*
D03*
Y024515D02*
D03*
X063700Y023885D02*
D03*
Y024515D02*
D03*
D14*
X063246Y029700D02*
D03*
X063954D02*
D03*
D15*
X061885Y030000D02*
D03*
X062515D02*
D03*
D16*
X056100Y029554D02*
D03*
Y028846D02*
D03*
D17*
X062500Y027000D02*
D03*
D18*
X060800Y028089D02*
D03*
Y027893D02*
D03*
Y027696D02*
D03*
Y027499D02*
D03*
Y027302D02*
D03*
Y027105D02*
D03*
Y026908D02*
D03*
Y026711D02*
D03*
Y026515D02*
D03*
Y026318D02*
D03*
Y026121D02*
D03*
Y025924D02*
D03*
X064186D02*
D03*
Y026121D02*
D03*
Y026318D02*
D03*
Y026515D02*
D03*
Y026711D02*
D03*
Y026908D02*
D03*
Y027105D02*
D03*
Y027302D02*
D03*
Y027499D02*
D03*
Y027696D02*
D03*
Y027893D02*
D03*
Y028089D02*
D03*
D19*
X061410Y025314D02*
D03*
X061607D02*
D03*
X061804D02*
D03*
X062001D02*
D03*
X062198D02*
D03*
X062394D02*
D03*
X062591D02*
D03*
X062788D02*
D03*
X062985D02*
D03*
X063182D02*
D03*
X063379D02*
D03*
X063576D02*
D03*
Y028700D02*
D03*
X063379D02*
D03*
X063182D02*
D03*
X062985D02*
D03*
X062788D02*
D03*
X062591D02*
D03*
X062394D02*
D03*
X062198D02*
D03*
X062001D02*
D03*
X061804D02*
D03*
X061607D02*
D03*
X061410D02*
D03*
D20*
X059500Y029796D02*
D03*
Y028596D02*
D03*
D21*
X057800Y029200D02*
D03*
D22*
X058349Y028511D02*
D03*
Y028708D02*
D03*
Y028905D02*
D03*
Y029102D02*
D03*
Y029298D02*
D03*
Y029495D02*
D03*
Y029692D02*
D03*
Y029889D02*
D03*
X057251Y028511D02*
D03*
Y028708D02*
D03*
Y028905D02*
D03*
Y029102D02*
D03*
Y029298D02*
D03*
Y029495D02*
D03*
Y029692D02*
D03*
Y029889D02*
D03*
D23*
X058343Y026000D02*
D03*
X056257D02*
D03*
D24*
X056200Y037161D02*
D03*
X055700D02*
D03*
X055200D02*
D03*
X054200D02*
D03*
X053700D02*
D03*
X053200D02*
D03*
X058700D02*
D03*
X059200D02*
D03*
X059700D02*
D03*
X060700D02*
D03*
X061200D02*
D03*
X061700D02*
D03*
X067200D02*
D03*
X066700D02*
D03*
X066200D02*
D03*
X065200D02*
D03*
X064700D02*
D03*
X064200D02*
D03*
D25*
X054700Y033145D02*
D03*
X060200D02*
D03*
X065700D02*
D03*
D26*
X052500Y020200D02*
D03*
X053691D02*
D03*
Y019100D02*
D03*
X052500D02*
D03*
Y018000D02*
D03*
X053691D02*
D03*
Y016900D02*
D03*
X052500D02*
D03*
M02*
