G04 Layer_Color=8421504*
%FSAX24Y24*%
%MOIN*%
G70*
G01*
G75*
%ADD10R,0.0177X0.0217*%
%ADD11R,0.1280X0.1230*%
%ADD12R,0.0560X0.0480*%
%ADD13R,0.0354X0.0276*%
%ADD14R,0.1063X0.0453*%
%ADD15R,0.0750X0.0750*%
%ADD16R,0.0710X0.0750*%
%ADD17R,0.0140X0.0560*%
%ADD18R,0.0283X0.0283*%
%ADD19R,0.0205X0.0205*%
%ADD20R,0.0394X0.0354*%
%ADD21R,0.0413X0.1634*%
%ADD22R,0.4173X0.3465*%
%ADD23R,0.0650X0.0400*%
%ADD24R,0.0354X0.0394*%
%ADD25R,0.0532X0.0748*%
%ADD26R,0.0256X0.0217*%
%ADD27R,0.0550X0.0630*%
%ADD28R,0.0532X0.2087*%
%ADD29O,0.0610X0.0177*%
%ADD30R,0.0681X0.0728*%
%ADD31R,0.0217X0.0177*%
%ADD32R,0.0205X0.0205*%
%ADD33O,0.0177X0.0512*%
%ADD34R,0.0740X0.0661*%
%ADD35R,0.0276X0.0354*%
D10*
X060323Y022700D02*
D03*
X060677D02*
D03*
X063477Y030400D02*
D03*
X063123D02*
D03*
X064406D02*
D03*
X064761D02*
D03*
D11*
X063400Y025940D02*
D03*
Y029460D02*
D03*
D12*
X059628Y021528D02*
D03*
Y022719D02*
D03*
D13*
X068200Y031876D02*
D03*
Y031324D02*
D03*
D14*
X066400Y027191D02*
D03*
Y026009D02*
D03*
X067700Y027191D02*
D03*
Y026009D02*
D03*
D15*
X057400Y021600D02*
D03*
X056400D02*
D03*
D16*
X058480D02*
D03*
X055325D02*
D03*
D17*
X057160Y022650D02*
D03*
X056900D02*
D03*
X056644D02*
D03*
X057420D02*
D03*
X056388D02*
D03*
D18*
X058800Y027697D02*
D03*
Y027303D02*
D03*
D19*
X060457Y027000D02*
D03*
X060143D02*
D03*
X060143Y030000D02*
D03*
X060457D02*
D03*
X060257Y025900D02*
D03*
X059943D02*
D03*
D20*
X067300Y039015D02*
D03*
Y038385D02*
D03*
X061800Y039015D02*
D03*
Y038385D02*
D03*
X056300Y039015D02*
D03*
Y038385D02*
D03*
X068000Y030285D02*
D03*
Y030915D02*
D03*
D21*
X067200Y037161D02*
D03*
X066700D02*
D03*
X066200D02*
D03*
X065200D02*
D03*
X064700D02*
D03*
X064200D02*
D03*
X058700D02*
D03*
X059200D02*
D03*
X059700D02*
D03*
X060700D02*
D03*
X061200D02*
D03*
X061700D02*
D03*
X056200D02*
D03*
X055700D02*
D03*
X055200D02*
D03*
X054200D02*
D03*
X053700D02*
D03*
X053200D02*
D03*
D22*
X065700Y033145D02*
D03*
X060200D02*
D03*
X054700D02*
D03*
D23*
X055885Y024170D02*
D03*
X057920D02*
D03*
Y025430D02*
D03*
X055885D02*
D03*
D24*
X056593Y027815D02*
D03*
Y027185D02*
D03*
X058207Y027815D02*
D03*
Y027185D02*
D03*
X056593Y029815D02*
D03*
Y029185D02*
D03*
X058207Y029815D02*
D03*
Y029185D02*
D03*
D25*
X053070Y022200D02*
D03*
X054330D02*
D03*
X053070Y023300D02*
D03*
X054330D02*
D03*
X053070Y024400D02*
D03*
X054330D02*
D03*
X053070Y025500D02*
D03*
X054330D02*
D03*
D26*
X055300Y027003D02*
D03*
Y027397D02*
D03*
X055800Y027003D02*
D03*
Y027397D02*
D03*
X058800Y029497D02*
D03*
Y029103D02*
D03*
D27*
X059825Y029315D02*
D03*
Y027685D02*
D03*
X060775D02*
D03*
Y029315D02*
D03*
D28*
X066006Y028700D02*
D03*
X067994D02*
D03*
D29*
X067256Y030216D02*
D03*
Y030472D02*
D03*
Y030728D02*
D03*
Y030984D02*
D03*
X065544Y030216D02*
D03*
Y030472D02*
D03*
Y030728D02*
D03*
Y030984D02*
D03*
D30*
X066400Y030600D02*
D03*
D31*
X063761Y031077D02*
D03*
Y030723D02*
D03*
X064784Y031077D02*
D03*
Y030723D02*
D03*
D32*
X064384Y031057D02*
D03*
Y030743D02*
D03*
D33*
X068016Y036373D02*
D03*
X068272D02*
D03*
X068528D02*
D03*
X068784D02*
D03*
X068016Y038027D02*
D03*
X068272D02*
D03*
X068528D02*
D03*
X068784D02*
D03*
X062516Y036373D02*
D03*
X062772D02*
D03*
X063028D02*
D03*
X063284D02*
D03*
X062516Y038027D02*
D03*
X062772D02*
D03*
X063028D02*
D03*
X063284D02*
D03*
X057016Y036373D02*
D03*
X057272D02*
D03*
X057528D02*
D03*
X057784D02*
D03*
X057016Y038027D02*
D03*
X057272D02*
D03*
X057528D02*
D03*
X057784D02*
D03*
D34*
X068400Y037200D02*
D03*
X062900D02*
D03*
X057400D02*
D03*
D35*
X057024Y038700D02*
D03*
X057576D02*
D03*
X062524D02*
D03*
X063076D02*
D03*
X068024D02*
D03*
X068576D02*
D03*
M02*
