G04 Layer_Color=32896*
%FSAX24Y24*%
%MOIN*%
G70*
G01*
G75*
%ADD27C,0.0100*%
%ADD53C,0.0098*%
%ADD54C,0.0039*%
%ADD55C,0.0080*%
%ADD56C,0.0079*%
%ADD92C,0.0157*%
D27*
X052867Y040433D02*
X052800Y040500D01*
Y040633D01*
X052867Y040700D01*
X053133D01*
X053200Y040633D01*
Y040500D01*
X053133Y040433D01*
X053200Y040100D02*
X052800D01*
X053000Y040300D01*
Y040034D01*
X053200Y039900D02*
Y039767D01*
Y039834D01*
X052800D01*
X052867Y039900D01*
X053400Y039500D02*
X053900D01*
X054000Y039400D01*
Y039200D01*
X053900Y039100D01*
X053400D01*
Y038900D02*
Y038500D01*
X053500D01*
X053900Y038900D01*
X054000D01*
X056283Y040883D02*
X056350Y040950D01*
X056483D01*
X056550Y040883D01*
Y040617D01*
X056483Y040550D01*
X056350D01*
X056283Y040617D01*
X055950Y040550D02*
Y040950D01*
X056150Y040750D01*
X055884D01*
X055750Y040883D02*
X055684Y040950D01*
X055550D01*
X055484Y040883D01*
Y040617D01*
X055550Y040550D01*
X055684D01*
X055750Y040617D01*
Y040883D01*
X055767Y039133D02*
X055700Y039200D01*
Y039333D01*
X055767Y039400D01*
X056033D01*
X056100Y039333D01*
Y039200D01*
X056033Y039133D01*
X055767Y039000D02*
X055700Y038933D01*
Y038800D01*
X055767Y038734D01*
X055833D01*
X055900Y038800D01*
Y038867D01*
Y038800D01*
X055967Y038734D01*
X056033D01*
X056100Y038800D01*
Y038933D01*
X056033Y039000D01*
Y038600D02*
X056100Y038534D01*
Y038400D01*
X056033Y038334D01*
X055767D01*
X055700Y038400D01*
Y038534D01*
X055767Y038600D01*
X055833D01*
X055900Y038534D01*
Y038334D01*
X061967Y025133D02*
X061900Y025200D01*
Y025333D01*
X061967Y025400D01*
X062233D01*
X062300Y025333D01*
Y025200D01*
X062233Y025133D01*
X061967Y025000D02*
X061900Y024933D01*
Y024800D01*
X061967Y024734D01*
X062033D01*
X062100Y024800D01*
Y024867D01*
Y024800D01*
X062167Y024734D01*
X062233D01*
X062300Y024800D01*
Y024933D01*
X062233Y025000D01*
X061967Y024600D02*
X061900Y024534D01*
Y024400D01*
X061967Y024334D01*
X062033D01*
X062100Y024400D01*
X062167Y024334D01*
X062233D01*
X062300Y024400D01*
Y024534D01*
X062233Y024600D01*
X062167D01*
X062100Y024534D01*
X062033Y024600D01*
X061967D01*
X062100Y024534D02*
Y024400D01*
X064300Y025500D02*
Y025100D01*
X064100D01*
X064033Y025167D01*
Y025433D01*
X064100Y025500D01*
X064300D01*
X063900Y025100D02*
X063767D01*
X063833D01*
Y025500D01*
X063900Y025433D01*
X063300Y025100D02*
X063567D01*
X063300Y025367D01*
Y025433D01*
X063367Y025500D01*
X063500D01*
X063567Y025433D01*
X063500Y040500D02*
Y040000D01*
X063400Y039900D01*
X063200D01*
X063100Y040000D01*
Y040500D01*
X062500D02*
X062700Y040400D01*
X062900Y040200D01*
Y040000D01*
X062800Y039900D01*
X062600D01*
X062500Y040000D01*
Y040100D01*
X062600Y040200D01*
X062900D01*
X058000Y040500D02*
Y040000D01*
X057900Y039900D01*
X057700D01*
X057600Y040000D01*
Y040500D01*
X057000D02*
X057400D01*
Y040200D01*
X057200Y040300D01*
X057100D01*
X057000Y040200D01*
Y040000D01*
X057100Y039900D01*
X057300D01*
X057400Y040000D01*
X058100Y024600D02*
X058600D01*
X058700Y024500D01*
Y024300D01*
X058600Y024200D01*
X058100D01*
X058700Y023700D02*
X058100D01*
X058400Y024000D01*
Y023600D01*
X068400Y030600D02*
X068000D01*
Y030400D01*
X068067Y030333D01*
X068200D01*
X068267Y030400D01*
Y030600D01*
Y030467D02*
X068400Y030333D01*
Y030200D02*
Y030067D01*
Y030133D01*
X068000D01*
X068067Y030200D01*
X068000Y029600D02*
Y029867D01*
X068200D01*
X068133Y029734D01*
Y029667D01*
X068200Y029600D01*
X068333D01*
X068400Y029667D01*
Y029800D01*
X068333Y029867D01*
X063600Y031800D02*
X063200D01*
Y031600D01*
X063267Y031533D01*
X063400D01*
X063467Y031600D01*
Y031800D01*
Y031667D02*
X063600Y031533D01*
Y031400D02*
Y031267D01*
Y031333D01*
X063200D01*
X063267Y031400D01*
X063600Y030867D02*
X063200D01*
X063400Y031067D01*
Y030800D01*
X058100Y031800D02*
X057700D01*
Y031600D01*
X057767Y031533D01*
X057900D01*
X057967Y031600D01*
Y031800D01*
Y031667D02*
X058100Y031533D01*
Y031400D02*
Y031267D01*
Y031333D01*
X057700D01*
X057767Y031400D01*
Y031067D02*
X057700Y031000D01*
Y030867D01*
X057767Y030800D01*
X057833D01*
X057900Y030867D01*
Y030934D01*
Y030867D01*
X057967Y030800D01*
X058033D01*
X058100Y030867D01*
Y031000D01*
X058033Y031067D01*
X064900Y040300D02*
Y040700D01*
X064700D01*
X064633Y040633D01*
Y040500D01*
X064700Y040433D01*
X064900D01*
X064767D02*
X064633Y040300D01*
X064500D02*
X064367D01*
X064433D01*
Y040700D01*
X064500Y040633D01*
X063900Y040300D02*
X064167D01*
X063900Y040567D01*
Y040633D01*
X063967Y040700D01*
X064100D01*
X064167Y040633D01*
X059300Y040300D02*
Y040700D01*
X059100D01*
X059033Y040633D01*
Y040500D01*
X059100Y040433D01*
X059300D01*
X059167D02*
X059033Y040300D01*
X058900D02*
X058767D01*
X058833D01*
Y040700D01*
X058900Y040633D01*
X058567Y040300D02*
X058434D01*
X058500D01*
Y040700D01*
X058567Y040633D01*
X057500Y018600D02*
Y019000D01*
X057300D01*
X057233Y018933D01*
Y018800D01*
X057300Y018733D01*
X057500D01*
X057367D02*
X057233Y018600D01*
X056834Y019000D02*
X056967Y018933D01*
X057100Y018800D01*
Y018667D01*
X057033Y018600D01*
X056900D01*
X056834Y018667D01*
Y018733D01*
X056900Y018800D01*
X057100D01*
X057500Y019300D02*
Y019700D01*
X057300D01*
X057233Y019633D01*
Y019500D01*
X057300Y019433D01*
X057500D01*
X057367D02*
X057233Y019300D01*
X056834Y019700D02*
X057100D01*
Y019500D01*
X056967Y019567D01*
X056900D01*
X056834Y019500D01*
Y019367D01*
X056900Y019300D01*
X057033D01*
X057100Y019367D01*
X052400Y017200D02*
X052000D01*
Y017000D01*
X052067Y016933D01*
X052200D01*
X052267Y017000D01*
Y017200D01*
Y017067D02*
X052400Y016933D01*
Y016600D02*
X052000D01*
X052200Y016800D01*
Y016534D01*
X052400Y018300D02*
X052000D01*
Y018100D01*
X052067Y018033D01*
X052200D01*
X052267Y018100D01*
Y018300D01*
Y018167D02*
X052400Y018033D01*
X052067Y017900D02*
X052000Y017833D01*
Y017700D01*
X052067Y017634D01*
X052133D01*
X052200Y017700D01*
Y017767D01*
Y017700D01*
X052267Y017634D01*
X052333D01*
X052400Y017700D01*
Y017833D01*
X052333Y017900D01*
X052400Y019400D02*
X052000D01*
Y019200D01*
X052067Y019133D01*
X052200D01*
X052267Y019200D01*
Y019400D01*
Y019267D02*
X052400Y019133D01*
Y018734D02*
Y019000D01*
X052133Y018734D01*
X052067D01*
X052000Y018800D01*
Y018933D01*
X052067Y019000D01*
X052400Y020500D02*
X052000D01*
Y020300D01*
X052067Y020233D01*
X052200D01*
X052267Y020300D01*
Y020500D01*
Y020367D02*
X052400Y020233D01*
Y020100D02*
Y019967D01*
Y020033D01*
X052000D01*
X052067Y020100D01*
X063300Y036500D02*
X062900D01*
X062800Y036600D01*
Y036800D01*
X062900Y036900D01*
X063300D01*
X063400Y036800D01*
Y036600D01*
X063200Y036700D02*
X063400Y036500D01*
Y036600D02*
X063300Y036500D01*
X062800Y035900D02*
X062900Y036100D01*
X063100Y036300D01*
X063300D01*
X063400Y036200D01*
Y036000D01*
X063300Y035900D01*
X063200D01*
X063100Y036000D01*
Y036300D01*
X057800Y036500D02*
X057400D01*
X057300Y036600D01*
Y036800D01*
X057400Y036900D01*
X057800D01*
X057900Y036800D01*
Y036600D01*
X057700Y036700D02*
X057900Y036500D01*
Y036600D02*
X057800Y036500D01*
X057300Y035900D02*
Y036300D01*
X057600D01*
X057500Y036100D01*
Y036000D01*
X057600Y035900D01*
X057800D01*
X057900Y036000D01*
Y036200D01*
X057800Y036300D01*
X052300Y036500D02*
X051900D01*
X051800Y036600D01*
Y036800D01*
X051900Y036900D01*
X052300D01*
X052400Y036800D01*
Y036600D01*
X052200Y036700D02*
X052400Y036500D01*
Y036600D02*
X052300Y036500D01*
X052400Y036000D02*
X051800D01*
X052100Y036300D01*
Y035900D01*
X057696Y027324D02*
Y026924D01*
X057496D01*
X057429Y026991D01*
Y027258D01*
X057496Y027324D01*
X057696D01*
X057029D02*
X057162Y027258D01*
X057296Y027124D01*
Y026991D01*
X057229Y026924D01*
X057096D01*
X057029Y026991D01*
Y027058D01*
X057096Y027124D01*
X057296D01*
X056233Y029433D02*
X056300Y029500D01*
X056433D01*
X056500Y029433D01*
Y029167D01*
X056433Y029100D01*
X056300D01*
X056233Y029167D01*
X055834Y029100D02*
X056100D01*
X055834Y029367D01*
Y029433D01*
X055900Y029500D01*
X056033D01*
X056100Y029433D01*
X055700D02*
X055634Y029500D01*
X055500D01*
X055434Y029433D01*
Y029367D01*
X055500Y029300D01*
X055434Y029233D01*
Y029167D01*
X055500Y029100D01*
X055634D01*
X055700Y029167D01*
Y029233D01*
X055634Y029300D01*
X055700Y029367D01*
Y029433D01*
X055634Y029300D02*
X055500D01*
X053667Y026633D02*
X053600Y026700D01*
Y026833D01*
X053667Y026900D01*
X053933D01*
X054000Y026833D01*
Y026700D01*
X053933Y026633D01*
X054000Y026234D02*
Y026500D01*
X053733Y026234D01*
X053667D01*
X053600Y026300D01*
Y026433D01*
X053667Y026500D01*
X053600Y026100D02*
Y025834D01*
X053667D01*
X053933Y026100D01*
X054000D01*
X053667Y025333D02*
X053600Y025400D01*
Y025533D01*
X053667Y025600D01*
X053933D01*
X054000Y025533D01*
Y025400D01*
X053933Y025333D01*
X054000Y024934D02*
Y025200D01*
X053733Y024934D01*
X053667D01*
X053600Y025000D01*
Y025133D01*
X053667Y025200D01*
X053600Y024534D02*
X053667Y024667D01*
X053800Y024800D01*
X053933D01*
X054000Y024734D01*
Y024600D01*
X053933Y024534D01*
X053867D01*
X053800Y024600D01*
Y024800D01*
X053667Y024033D02*
X053600Y024100D01*
Y024233D01*
X053667Y024300D01*
X053933D01*
X054000Y024233D01*
Y024100D01*
X053933Y024033D01*
X054000Y023634D02*
Y023900D01*
X053733Y023634D01*
X053667D01*
X053600Y023700D01*
Y023833D01*
X053667Y023900D01*
X053600Y023234D02*
Y023500D01*
X053800D01*
X053733Y023367D01*
Y023300D01*
X053800Y023234D01*
X053933D01*
X054000Y023300D01*
Y023434D01*
X053933Y023500D01*
X065333Y027933D02*
X065400Y028000D01*
X065533D01*
X065600Y027933D01*
Y027667D01*
X065533Y027600D01*
X065400D01*
X065333Y027667D01*
X064934Y027600D02*
X065200D01*
X064934Y027867D01*
Y027933D01*
X065000Y028000D01*
X065133D01*
X065200Y027933D01*
X064800Y027600D02*
X064667D01*
X064734D01*
Y028000D01*
X064800Y027933D01*
X064183D02*
X064250Y028000D01*
X064383D01*
X064450Y027933D01*
Y027667D01*
X064383Y027600D01*
X064250D01*
X064183Y027667D01*
X064050Y027600D02*
X063917D01*
X063983D01*
Y028000D01*
X064050Y027933D01*
X063717Y027667D02*
X063650Y027600D01*
X063517D01*
X063450Y027667D01*
Y027933D01*
X063517Y028000D01*
X063650D01*
X063717Y027933D01*
Y027867D01*
X063650Y027800D01*
X063450D01*
X062733Y029633D02*
X062800Y029700D01*
X062933D01*
X063000Y029633D01*
Y029367D01*
X062933Y029300D01*
X062800D01*
X062733Y029367D01*
X062600Y029300D02*
X062467D01*
X062533D01*
Y029700D01*
X062600Y029633D01*
X062267D02*
X062200Y029700D01*
X062067D01*
X062000Y029633D01*
Y029567D01*
X062067Y029500D01*
X062000Y029433D01*
Y029367D01*
X062067Y029300D01*
X062200D01*
X062267Y029367D01*
Y029433D01*
X062200Y029500D01*
X062267Y029567D01*
Y029633D01*
X062200Y029500D02*
X062067D01*
X060067Y029133D02*
X060000Y029200D01*
Y029333D01*
X060067Y029400D01*
X060333D01*
X060400Y029333D01*
Y029200D01*
X060333Y029133D01*
X060400Y029000D02*
Y028867D01*
Y028933D01*
X060000D01*
X060067Y029000D01*
X060000Y028400D02*
Y028667D01*
X060200D01*
X060133Y028534D01*
Y028467D01*
X060200Y028400D01*
X060333D01*
X060400Y028467D01*
Y028600D01*
X060333Y028667D01*
X061226Y027733D02*
X061292Y027800D01*
X061425D01*
X061492Y027733D01*
Y027467D01*
X061425Y027400D01*
X061292D01*
X061226Y027467D01*
X061092Y027400D02*
X060959D01*
X061026D01*
Y027800D01*
X061092Y027733D01*
X060559Y027400D02*
Y027800D01*
X060759Y027600D01*
X060492D01*
X058517Y028233D02*
X058450Y028300D01*
Y028433D01*
X058517Y028500D01*
X058783D01*
X058850Y028433D01*
Y028300D01*
X058783Y028233D01*
X058850Y028100D02*
Y027967D01*
Y028033D01*
X058450D01*
X058517Y028100D01*
X058850Y027500D02*
Y027767D01*
X058583Y027500D01*
X058517D01*
X058450Y027567D01*
Y027700D01*
X058517Y027767D01*
Y029433D02*
X058450Y029500D01*
Y029633D01*
X058517Y029700D01*
X058783D01*
X058850Y029633D01*
Y029500D01*
X058783Y029433D01*
X058850Y029300D02*
Y029167D01*
Y029233D01*
X058450D01*
X058517Y029300D01*
X058850Y028967D02*
Y028834D01*
Y028900D01*
X058450D01*
X058517Y028967D01*
X056267Y037733D02*
X056200Y037800D01*
Y037933D01*
X056267Y038000D01*
X056533D01*
X056600Y037933D01*
Y037800D01*
X056533Y037733D01*
X056600Y037600D02*
Y037467D01*
Y037533D01*
X056200D01*
X056267Y037600D01*
Y037267D02*
X056200Y037200D01*
Y037067D01*
X056267Y037000D01*
X056533D01*
X056600Y037067D01*
Y037200D01*
X056533Y037267D01*
X056267D01*
X061767Y037733D02*
X061700Y037800D01*
Y037933D01*
X061767Y038000D01*
X062033D01*
X062100Y037933D01*
Y037800D01*
X062033Y037733D01*
Y037600D02*
X062100Y037533D01*
Y037400D01*
X062033Y037334D01*
X061767D01*
X061700Y037400D01*
Y037533D01*
X061767Y037600D01*
X061833D01*
X061900Y037533D01*
Y037334D01*
X057233Y018233D02*
X057300Y018300D01*
X057433D01*
X057500Y018233D01*
Y017967D01*
X057433Y017900D01*
X057300D01*
X057233Y017967D01*
X056834Y018300D02*
X056967Y018233D01*
X057100Y018100D01*
Y017967D01*
X057033Y017900D01*
X056900D01*
X056834Y017967D01*
Y018033D01*
X056900Y018100D01*
X057100D01*
X064167Y020333D02*
X064100Y020400D01*
Y020533D01*
X064167Y020600D01*
X064433D01*
X064500Y020533D01*
Y020400D01*
X064433Y020333D01*
X064100Y019934D02*
Y020200D01*
X064300D01*
X064233Y020067D01*
Y020000D01*
X064300Y019934D01*
X064433D01*
X064500Y020000D01*
Y020133D01*
X064433Y020200D01*
X064867Y020333D02*
X064800Y020400D01*
Y020533D01*
X064867Y020600D01*
X065133D01*
X065200Y020533D01*
Y020400D01*
X065133Y020333D01*
X065200Y020000D02*
X064800D01*
X065000Y020200D01*
Y019934D01*
X065567Y020333D02*
X065500Y020400D01*
Y020533D01*
X065567Y020600D01*
X065833D01*
X065900Y020533D01*
Y020400D01*
X065833Y020333D01*
X065567Y020200D02*
X065500Y020133D01*
Y020000D01*
X065567Y019934D01*
X065633D01*
X065700Y020000D01*
Y020067D01*
Y020000D01*
X065767Y019934D01*
X065833D01*
X065900Y020000D01*
Y020133D01*
X065833Y020200D01*
X066267Y020333D02*
X066200Y020400D01*
Y020533D01*
X066267Y020600D01*
X066533D01*
X066600Y020533D01*
Y020400D01*
X066533Y020333D01*
X066600Y019934D02*
Y020200D01*
X066333Y019934D01*
X066267D01*
X066200Y020000D01*
Y020133D01*
X066267Y020200D01*
X066967Y020233D02*
X066900Y020300D01*
Y020433D01*
X066967Y020500D01*
X067233D01*
X067300Y020433D01*
Y020300D01*
X067233Y020233D01*
X067300Y020100D02*
Y019967D01*
Y020033D01*
X066900D01*
X066967Y020100D01*
X057017Y035183D02*
X056950Y035250D01*
Y035383D01*
X057017Y035450D01*
X057283D01*
X057350Y035383D01*
Y035250D01*
X057283Y035183D01*
X057017Y035050D02*
X056950Y034983D01*
Y034850D01*
X057017Y034784D01*
X057083D01*
X057150Y034850D01*
X057217Y034784D01*
X057283D01*
X057350Y034850D01*
Y034983D01*
X057283Y035050D01*
X057217D01*
X057150Y034983D01*
X057083Y035050D01*
X057017D01*
X057150Y034983D02*
Y034850D01*
X062517Y035383D02*
X062450Y035450D01*
Y035583D01*
X062517Y035650D01*
X062783D01*
X062850Y035583D01*
Y035450D01*
X062783Y035383D01*
X062850Y034984D02*
Y035250D01*
X062583Y034984D01*
X062517D01*
X062450Y035050D01*
Y035183D01*
X062517Y035250D01*
X062783Y034850D02*
X062850Y034784D01*
Y034650D01*
X062783Y034584D01*
X062517D01*
X062450Y034650D01*
Y034784D01*
X062517Y034850D01*
X062583D01*
X062650Y034784D01*
Y034584D01*
X052067Y035133D02*
X052000Y035200D01*
Y035333D01*
X052067Y035400D01*
X052333D01*
X052400Y035333D01*
Y035200D01*
X052333Y035133D01*
X052067Y035000D02*
X052000Y034933D01*
Y034800D01*
X052067Y034734D01*
X052133D01*
X052200Y034800D01*
Y034867D01*
Y034800D01*
X052267Y034734D01*
X052333D01*
X052400Y034800D01*
Y034933D01*
X052333Y035000D01*
X052067Y034600D02*
X052000Y034534D01*
Y034400D01*
X052067Y034334D01*
X052333D01*
X052400Y034400D01*
Y034534D01*
X052333Y034600D01*
X052067D01*
X057017Y033983D02*
X056950Y034050D01*
Y034183D01*
X057017Y034250D01*
X057283D01*
X057350Y034183D01*
Y034050D01*
X057283Y033983D01*
X057017Y033850D02*
X056950Y033783D01*
Y033650D01*
X057017Y033584D01*
X057083D01*
X057150Y033650D01*
Y033717D01*
Y033650D01*
X057217Y033584D01*
X057283D01*
X057350Y033650D01*
Y033783D01*
X057283Y033850D01*
X056950Y033184D02*
X057017Y033317D01*
X057150Y033450D01*
X057283D01*
X057350Y033384D01*
Y033250D01*
X057283Y033184D01*
X057217D01*
X057150Y033250D01*
Y033450D01*
X062517Y033933D02*
X062450Y034000D01*
Y034133D01*
X062517Y034200D01*
X062783D01*
X062850Y034133D01*
Y034000D01*
X062783Y033933D01*
X062517Y033800D02*
X062450Y033733D01*
Y033600D01*
X062517Y033534D01*
X062583D01*
X062650Y033600D01*
Y033667D01*
Y033600D01*
X062717Y033534D01*
X062783D01*
X062850Y033600D01*
Y033733D01*
X062783Y033800D01*
X062450Y033400D02*
Y033134D01*
X062517D01*
X062783Y033400D01*
X062850D01*
D53*
X054160Y040307D02*
G03*
X054160Y040307I-000049J000000D01*
G01*
X058230Y026701D02*
G03*
X058230Y026701I-000049J000000D01*
G01*
X062172Y031039D02*
G03*
X062172Y031039I-000049J000000D01*
G01*
X067672D02*
G03*
X067672Y031039I-000049J000000D01*
G01*
X058238Y037654D02*
G03*
X058238Y037654I-000049J000000D01*
G01*
X063738D02*
G03*
X063738Y037654I-000049J000000D01*
G01*
X056672Y031039D02*
G03*
X056672Y031039I-000049J000000D01*
G01*
D54*
X064410Y024797D02*
G03*
X064410Y024797I-000020J000000D01*
G01*
D55*
X063550Y016350D02*
X063750D01*
Y016050D01*
X063550D01*
X063750Y016200D02*
X063650D01*
X063250Y016300D02*
X063300Y016350D01*
X063400D01*
X063450Y016300D01*
Y016250D01*
X063400Y016200D01*
X063300D01*
X063250Y016150D01*
Y016100D01*
X063300Y016050D01*
X063400D01*
X063450Y016100D01*
X062950Y016300D02*
X063000Y016350D01*
X063100D01*
X063150Y016300D01*
Y016100D01*
X063100Y016050D01*
X063000D01*
X062950Y016100D01*
X062550Y016250D02*
X062450Y016050D01*
X062350Y016250D01*
X062051Y016050D02*
X062250D01*
X062051Y016250D01*
Y016300D01*
X062101Y016350D01*
X062200D01*
X062250Y016300D01*
X061951Y016050D02*
Y016100D01*
X061901D01*
Y016050D01*
X061951D01*
X061701D02*
X061601D01*
X061651D01*
Y016350D01*
X061701Y016300D01*
X061151Y016200D02*
X060951D01*
X060551Y016050D02*
Y016350D01*
X060401D01*
X060351Y016300D01*
Y016200D01*
X060401Y016150D01*
X060551D01*
X060451D02*
X060351Y016050D01*
X060201Y016250D02*
X060101D01*
X060051Y016200D01*
Y016050D01*
X060201D01*
X060251Y016100D01*
X060201Y016150D01*
X060051D01*
X059951Y015950D02*
Y016250D01*
X059801D01*
X059751Y016200D01*
Y016100D01*
X059801Y016050D01*
X059951D01*
X059651Y016350D02*
Y016050D01*
Y016200D01*
X059601Y016250D01*
X059501D01*
X059451Y016200D01*
Y016050D01*
X059301Y016250D02*
X059201D01*
X059151Y016200D01*
Y016050D01*
X059301D01*
X059351Y016100D01*
X059301Y016150D01*
X059151D01*
X058902Y016050D02*
X059002D01*
X059052Y016100D01*
Y016200D01*
X059002Y016250D01*
X058902D01*
X058852Y016200D01*
Y016150D01*
X059052D01*
X058752Y016050D02*
X058652D01*
X058702D01*
Y016350D01*
X058752D01*
X058002Y016300D02*
X058052Y016350D01*
X058152D01*
X058202Y016300D01*
Y016100D01*
X058152Y016050D01*
X058052D01*
X058002Y016100D01*
X057902Y016350D02*
Y016050D01*
Y016200D01*
X057852Y016250D01*
X057752D01*
X057702Y016200D01*
Y016050D01*
X057552Y016250D02*
X057452D01*
X057402Y016200D01*
Y016050D01*
X057552D01*
X057602Y016100D01*
X057552Y016150D01*
X057402D01*
X057302Y016050D02*
Y016250D01*
X057152D01*
X057102Y016200D01*
Y016050D01*
X056902Y015950D02*
X056852D01*
X056802Y016000D01*
Y016250D01*
X056952D01*
X057002Y016200D01*
Y016100D01*
X056952Y016050D01*
X056802D01*
D56*
X053462Y040209D02*
Y040248D01*
X053738Y040209D02*
Y040248D01*
X055410Y039126D02*
Y039874D01*
X054190Y039126D02*
Y039874D01*
Y039126D02*
X055410D01*
X054190Y039874D02*
X055410D01*
X056038Y039980D02*
Y040020D01*
X055762Y039980D02*
Y040020D01*
X056262Y039580D02*
Y039620D01*
X056538Y039580D02*
Y039620D01*
X062838Y024880D02*
Y024920D01*
X062562Y024880D02*
Y024920D01*
X063426Y024895D02*
X064174D01*
X063426Y024305D02*
X064174D01*
Y024797D02*
Y024895D01*
X063426Y024797D02*
Y024895D01*
X064174Y024305D02*
Y024403D01*
X063426Y024305D02*
Y024403D01*
X056538Y038580D02*
Y038620D01*
X056262Y038580D02*
Y038620D01*
X062038Y038580D02*
Y038620D01*
X061762Y038580D02*
Y038620D01*
X068043Y031280D02*
Y031320D01*
X068357Y031280D02*
Y031320D01*
X057143Y031280D02*
Y031320D01*
X057457Y031280D02*
Y031320D01*
X062643Y031280D02*
Y031320D01*
X062957Y031280D02*
Y031320D01*
X053080Y020357D02*
X053120D01*
X053080Y020043D02*
X053120D01*
X053080Y019257D02*
X053120D01*
X053080Y018943D02*
X053120D01*
X053080Y018157D02*
X053120D01*
X053080Y017843D02*
X053120D01*
X053080Y017057D02*
X053120D01*
X053080Y016743D02*
X053120D01*
X056080Y019657D02*
X056120D01*
X056080Y019343D02*
X056120D01*
X056080Y018643D02*
X056120D01*
X056080Y018957D02*
X056120D01*
X056080Y017962D02*
X056120D01*
X056080Y018238D02*
X056120D01*
X064143Y019180D02*
Y019220D01*
X064457Y019180D02*
Y019220D01*
X064843Y019180D02*
Y019220D01*
X065157Y019180D02*
Y019220D01*
X065543Y019180D02*
Y019220D01*
X065857Y019180D02*
Y019220D01*
X066243Y019180D02*
Y019220D01*
X066557Y019180D02*
Y019220D01*
X066943Y019180D02*
Y019220D01*
X067257Y019180D02*
Y019220D01*
X057283Y028808D02*
X057717D01*
X057283Y029792D02*
X057717D01*
X057283Y027508D02*
X057717D01*
X057283Y028492D02*
X057717D01*
X059735Y028683D02*
Y029117D01*
X059065Y028683D02*
Y029117D01*
X060819Y024909D02*
Y026091D01*
X058181Y024909D02*
Y026091D01*
Y024909D02*
X060819D01*
X058181Y026091D02*
X060819D01*
X063265Y028854D02*
Y029287D01*
X063935Y028854D02*
Y029287D01*
X064565Y028854D02*
Y029287D01*
X065235Y028854D02*
Y029287D01*
X057710Y023863D02*
Y024828D01*
X056490Y023863D02*
Y024828D01*
Y025772D02*
Y026796D01*
X057710Y025772D02*
Y026796D01*
X056667Y023686D02*
X057533D01*
X056490Y023863D02*
X056667Y023686D01*
X057533D02*
X057710Y023863D01*
X056490Y026796D02*
X057710D01*
X059772Y027443D02*
X059812D01*
X059772Y027757D02*
X059812D01*
X065400Y040048D02*
X066950D01*
Y036950D02*
Y040050D01*
X063850Y036950D02*
X066950D01*
X063850D02*
Y040050D01*
Y040048D02*
X065400D01*
X059900D02*
X061450D01*
Y036950D02*
Y040050D01*
X058350Y036950D02*
X061450D01*
X058350D02*
Y040050D01*
Y040048D02*
X059900D01*
X062267Y032063D02*
Y033165D01*
X058133Y032063D02*
X062267D01*
X058133D02*
Y033165D01*
X063633Y032063D02*
Y033165D01*
Y032063D02*
X067767D01*
Y033165D01*
X056890Y038126D02*
X058110D01*
X056890Y038874D02*
X058110D01*
Y038126D02*
Y038874D01*
X056890Y038126D02*
Y038874D01*
X062390Y038126D02*
X063610D01*
X062390Y038874D02*
X063610D01*
Y038126D02*
Y038874D01*
X062390Y038126D02*
Y038874D01*
X054833Y023815D02*
X055267D01*
X054833Y024485D02*
X055267D01*
X054833Y026115D02*
X055267D01*
X054833Y026785D02*
X055267D01*
X054833Y024965D02*
X055267D01*
X054833Y025635D02*
X055267D01*
X055365Y027783D02*
Y028217D01*
X056035Y027783D02*
Y028217D01*
X063062Y033680D02*
Y033720D01*
X063338Y033680D02*
Y033720D01*
X063338Y035080D02*
Y035120D01*
X063062Y035080D02*
Y035120D01*
X052633Y032063D02*
Y033165D01*
Y032063D02*
X056767D01*
Y033165D01*
X057562Y033680D02*
Y033720D01*
X057838Y033680D02*
Y033720D01*
X057838Y035080D02*
Y035120D01*
X057562Y035080D02*
Y035120D01*
X052062Y033680D02*
Y033720D01*
X052338Y033680D02*
Y033720D01*
X062738Y028680D02*
Y028720D01*
X062462Y028680D02*
Y028720D01*
D92*
X054583Y039559D02*
G03*
X054583Y039559I-000079J000000D01*
G01*
X057874Y038441D02*
G03*
X057874Y038441I-000079J000000D01*
G01*
X063374D02*
G03*
X063374Y038441I-000079J000000D01*
G01*
M02*
