G04 Layer_Physical_Order=1*
G04 Layer_Color=255*
%FSAX24Y24*%
%MOIN*%
G70*
G01*
G75*
%ADD10R,0.0480X0.0560*%
%ADD11R,0.0925X0.0512*%
G04:AMPARAMS|DCode=12|XSize=106.3mil|YSize=315mil|CornerRadius=53.2mil|HoleSize=0mil|Usage=FLASHONLY|Rotation=0.000|XOffset=0mil|YOffset=0mil|HoleType=Round|Shape=RoundedRectangle|*
%AMROUNDEDRECTD12*
21,1,0.1063,0.2087,0,0,0.0*
21,1,0.0000,0.3150,0,0,0.0*
1,1,0.1063,0.0000,-0.1043*
1,1,0.1063,0.0000,-0.1043*
1,1,0.1063,0.0000,0.1043*
1,1,0.1063,0.0000,0.1043*
%
%ADD12ROUNDEDRECTD12*%
%ADD13R,0.0394X0.0354*%
%ADD14R,0.1969X0.1969*%
%ADD15R,0.0669X0.0118*%
%ADD16R,0.0118X0.0669*%
%ADD17R,0.0610X0.0945*%
%ADD18R,0.0571X0.0453*%
%ADD19R,0.0354X0.0098*%
%ADD20R,0.0587X0.1732*%
%ADD21R,0.0354X0.0394*%
%ADD22R,0.0453X0.0571*%
%ADD23R,0.4173X0.3465*%
%ADD24R,0.0413X0.1634*%
%ADD25R,0.0354X0.0276*%
%ADD26C,0.0100*%
%ADD27C,0.0200*%
%ADD28R,0.3005X0.1700*%
%ADD29C,0.0630*%
%ADD30C,0.0570*%
%ADD31C,0.2010*%
%ADD32C,0.0500*%
%ADD33C,0.0400*%
%ADD34C,0.0200*%
G36*
X066418Y040691D02*
X066531Y040657D01*
X066635Y040601D01*
X066726Y040526D01*
X066801Y040435D01*
X066857Y040331D01*
X066891Y040218D01*
X066900Y040129D01*
X066900Y040100D01*
X066900Y038400D01*
X063900D01*
Y040100D01*
Y040129D01*
X063909Y040218D01*
X063943Y040331D01*
X063999Y040435D01*
X064074Y040526D01*
X064165Y040601D01*
X064269Y040657D01*
X064382Y040691D01*
X064471Y040700D01*
X064500D01*
X066300Y040700D01*
X066329Y040700D01*
X066418Y040691D01*
D02*
G37*
G36*
X055418D02*
X055531Y040657D01*
X055635Y040601D01*
X055726Y040526D01*
X055801Y040435D01*
X055857Y040331D01*
X055891Y040218D01*
X055900Y040129D01*
X055900Y040100D01*
X055900Y038400D01*
X052900D01*
Y040100D01*
Y040129D01*
X052909Y040218D01*
X052943Y040331D01*
X052999Y040435D01*
X053074Y040526D01*
X053165Y040601D01*
X053269Y040657D01*
X053382Y040691D01*
X053471Y040700D01*
X053500D01*
X055300Y040700D01*
X055329Y040700D01*
X055418Y040691D01*
D02*
G37*
G36*
X067800Y031900D02*
X056714Y031900D01*
X056714Y031900D01*
X056640Y031865D01*
X056425Y031747D01*
X056200Y031586D01*
X056130Y031526D01*
Y031526D01*
X056016Y031453D01*
X055691Y031209D01*
X055422Y030962D01*
X055175Y030693D01*
X054952Y030403D01*
X054756Y030095D01*
X054587Y029770D01*
X054447Y029433D01*
X054337Y029084D01*
X054258Y028727D01*
X054217Y028403D01*
X054209Y028295D01*
X054209Y028295D01*
X054207Y028259D01*
X054170Y028157D01*
X054119Y028091D01*
X054053Y028040D01*
X053975Y028008D01*
X053913Y028000D01*
X053893D01*
X052700Y028000D01*
Y028000D01*
X052680D01*
X052622Y028008D01*
X052549Y028038D01*
X052486Y028086D01*
X052438Y028149D01*
X052408Y028222D01*
X052400Y028280D01*
Y028300D01*
Y033600D01*
Y033634D01*
X052410Y033737D01*
X052450Y033869D01*
X052515Y033991D01*
X052603Y034097D01*
X052709Y034185D01*
X052831Y034250D01*
X052963Y034290D01*
X053066Y034300D01*
X053100D01*
X067800Y034300D01*
Y031900D01*
D02*
G37*
G36*
X056375Y029054D02*
X056374D01*
Y029005D01*
X056375D01*
Y028954D01*
X056651D01*
Y028859D01*
X056467D01*
X056467Y028859D01*
X056448Y028856D01*
X056375D01*
Y028825D01*
X056374Y028824D01*
Y028824D01*
X056360Y028815D01*
X056360Y028815D01*
X056258Y028712D01*
X056225Y028663D01*
X056213Y028605D01*
X056213Y028605D01*
Y028417D01*
X056213Y028417D01*
X056225Y028359D01*
X056258Y028310D01*
X056530Y028037D01*
X056511Y027986D01*
X056449Y027961D01*
X056387Y027913D01*
X056339Y027850D01*
X056309Y027778D01*
X056299Y027700D01*
X056309Y027622D01*
X056339Y027550D01*
X056387Y027487D01*
X056449Y027439D01*
X056491Y027422D01*
X056486Y027370D01*
X056473Y027368D01*
X056441Y027346D01*
X056419Y027313D01*
X056411Y027275D01*
Y027076D01*
X056365Y027057D01*
X055715Y027707D01*
X055666Y027740D01*
X055608Y027751D01*
X055608Y027751D01*
X052613D01*
X052470Y027894D01*
X052467Y027909D01*
X052469Y027913D01*
X052471Y027916D01*
X052479Y027922D01*
X052529Y027937D01*
X052583Y027915D01*
X052596Y027912D01*
X052609Y027908D01*
X052667Y027901D01*
X052674Y027901D01*
X052680Y027900D01*
X052700D01*
X052700Y027900D01*
X053913Y027900D01*
X053920Y027901D01*
X053927Y027901D01*
X053989Y027909D01*
X054001Y027913D01*
X054014Y027915D01*
X054091Y027947D01*
X054102Y027955D01*
X054114Y027961D01*
X054180Y028011D01*
X054189Y028021D01*
X054199Y028030D01*
X054249Y028096D01*
X054256Y028110D01*
X054264Y028123D01*
X054301Y028225D01*
X054303Y028238D01*
X054307Y028252D01*
X054309Y028287D01*
X054309Y028287D01*
X054309Y028287D01*
X054309Y028288D01*
X054309Y028288D01*
X054317Y028394D01*
X054357Y028710D01*
X054434Y029058D01*
X054512Y029303D01*
X055216D01*
Y029130D01*
X055984D01*
Y029344D01*
X056375D01*
Y029054D01*
D02*
G37*
G36*
X055488Y024125D02*
X054701D01*
X054643Y024133D01*
X054572Y024163D01*
X054510Y024210D01*
X054463Y024272D01*
X054433Y024343D01*
X054425Y024401D01*
Y024420D01*
Y026980D01*
Y026999D01*
X054433Y027057D01*
X054463Y027128D01*
X054510Y027190D01*
X054572Y027237D01*
X054643Y027267D01*
X054701Y027275D01*
X054720Y027275D01*
Y027275D01*
X055488D01*
Y024125D01*
D02*
G37*
G36*
X068700Y030546D02*
Y016800D01*
Y016500D01*
X068350Y016150D01*
X052179D01*
X052157Y016195D01*
X052161Y016200D01*
X052189Y016269D01*
X052194Y016276D01*
X052199Y016281D01*
X052245Y016305D01*
X052276Y016299D01*
X052276Y016299D01*
X054103D01*
X054173Y016270D01*
X054250Y016260D01*
X054328Y016270D01*
X054401Y016300D01*
X054463Y016348D01*
X054511Y016410D01*
X054541Y016483D01*
X054552Y016561D01*
X054541Y016639D01*
X054533Y016659D01*
X054574Y016690D01*
X054607Y016665D01*
X054700Y016626D01*
X054800Y016613D01*
X054900Y016626D01*
X054993Y016665D01*
X055073Y016727D01*
X055135Y016807D01*
X055174Y016900D01*
X055187Y017000D01*
X055174Y017100D01*
X055135Y017193D01*
X055073Y017273D01*
X054993Y017335D01*
X054900Y017374D01*
X054800Y017387D01*
X054700Y017374D01*
X054607Y017335D01*
X054527Y017273D01*
X054465Y017193D01*
X054426Y017100D01*
X054413Y017000D01*
X054426Y016900D01*
X054448Y016849D01*
X054407Y016817D01*
X054401Y016821D01*
X054328Y016851D01*
X054250Y016862D01*
X054173Y016851D01*
X054100Y016821D01*
X054079Y016805D01*
X054029Y016830D01*
Y017278D01*
X053352D01*
Y016601D01*
X052840D01*
Y016800D01*
X052500D01*
Y016900D01*
X052400D01*
Y017280D01*
X052160D01*
X052124Y017314D01*
Y017586D01*
X052160Y017620D01*
X052174Y017620D01*
X052400D01*
Y018000D01*
Y018380D01*
X052174D01*
X052160Y018380D01*
X052124Y018414D01*
Y018686D01*
X052160Y018720D01*
X052174Y018720D01*
X052400D01*
Y019100D01*
Y019480D01*
X052174D01*
X052160Y019480D01*
X052124Y019514D01*
Y019786D01*
X052160Y019820D01*
X052174Y019820D01*
X052400D01*
Y020200D01*
Y020580D01*
X052174D01*
X052160Y020580D01*
X052124Y020614D01*
Y020857D01*
X052174Y020882D01*
X052223Y020844D01*
X052300Y020813D01*
Y021150D01*
X052500D01*
Y020813D01*
X052577Y020844D01*
X052650Y020900D01*
X052706Y020973D01*
X052738Y021052D01*
X052786Y021074D01*
X052787Y021074D01*
X052810Y021052D01*
X052810Y021052D01*
X052859Y021019D01*
X052889Y021013D01*
X052919Y020965D01*
X052920Y020958D01*
X052917Y020950D01*
X053200D01*
Y020850D01*
X053300D01*
Y020567D01*
X053302Y020568D01*
X053352Y020534D01*
Y019822D01*
X053937D01*
Y019478D01*
X053352D01*
Y018722D01*
X054029D01*
Y018934D01*
X054075Y018954D01*
X054530Y018499D01*
X054530Y018499D01*
X054579Y018466D01*
X054637Y018455D01*
X054637Y018455D01*
X054689D01*
X054722Y018422D01*
X054706Y018374D01*
X054700Y018374D01*
X054607Y018335D01*
X054527Y018273D01*
X054465Y018193D01*
X054426Y018100D01*
X054413Y018000D01*
X054426Y017900D01*
X054465Y017807D01*
X054527Y017727D01*
X054607Y017665D01*
X054700Y017626D01*
X054800Y017613D01*
X054900Y017626D01*
X054993Y017665D01*
X055008Y017676D01*
X055055Y017649D01*
X055049Y017600D01*
X055061Y017509D01*
X055096Y017424D01*
X055152Y017351D01*
X055224Y017296D01*
X055309Y017261D01*
X055400Y017249D01*
X055449Y017255D01*
X055476Y017208D01*
X055465Y017193D01*
X055426Y017100D01*
X055413Y017000D01*
X055426Y016900D01*
X055465Y016807D01*
X055527Y016727D01*
X055607Y016665D01*
X055700Y016626D01*
X055800Y016613D01*
X055900Y016626D01*
X055993Y016665D01*
X056073Y016727D01*
X056135Y016807D01*
X056174Y016900D01*
X056187Y017000D01*
X056174Y017100D01*
X056135Y017193D01*
X056073Y017273D01*
X055993Y017335D01*
X055951Y017352D01*
Y017782D01*
X055951Y017782D01*
X055940Y017840D01*
X055907Y017889D01*
X055907Y017889D01*
X055737Y018059D01*
X055770Y018097D01*
X055773Y018094D01*
X055850Y018063D01*
Y018300D01*
X055613D01*
X055644Y018223D01*
X055647Y018220D01*
X055609Y018187D01*
X055345Y018451D01*
Y019118D01*
X055383Y019151D01*
X055400Y019149D01*
X055491Y019161D01*
X055576Y019196D01*
X055648Y019252D01*
X055675Y019286D01*
X055725D01*
X055752Y019252D01*
X055824Y019196D01*
X055909Y019161D01*
X056000Y019149D01*
X056091Y019161D01*
X056176Y019196D01*
X056205Y019218D01*
X056255Y019193D01*
Y018656D01*
X056207Y018640D01*
X056200Y018650D01*
X056127Y018706D01*
X056050Y018737D01*
Y018400D01*
Y018063D01*
X056127Y018094D01*
X056200Y018150D01*
X056207Y018160D01*
X056255Y018144D01*
Y016837D01*
X056255Y016837D01*
X056266Y016779D01*
X056299Y016730D01*
X056530Y016499D01*
X056530Y016499D01*
X056579Y016466D01*
X056637Y016455D01*
X058370D01*
X058400Y016449D01*
X062400D01*
X062400Y016449D01*
X062458Y016460D01*
X062507Y016493D01*
X062658Y016644D01*
X062700Y016626D01*
X062800Y016613D01*
X062900Y016626D01*
X062993Y016665D01*
X063073Y016727D01*
X063135Y016807D01*
X063174Y016900D01*
X063187Y017000D01*
X063174Y017100D01*
X063135Y017193D01*
X063073Y017273D01*
X062993Y017335D01*
X062900Y017374D01*
X062800Y017387D01*
X062700Y017374D01*
X062607Y017335D01*
X062527Y017273D01*
X062465Y017193D01*
X062426Y017100D01*
X062413Y017000D01*
X062426Y016900D01*
X062444Y016858D01*
X062337Y016751D01*
X062149D01*
X062127Y016796D01*
X062135Y016807D01*
X062174Y016900D01*
X062187Y017000D01*
X062174Y017100D01*
X062135Y017193D01*
X062073Y017273D01*
X061993Y017335D01*
X061951Y017352D01*
Y019600D01*
X061940Y019658D01*
X061907Y019707D01*
X061907Y019707D01*
X060349Y021265D01*
Y021891D01*
X060399Y021915D01*
X060424Y021896D01*
X060509Y021861D01*
X060600Y021849D01*
X060691Y021861D01*
X060715Y021871D01*
X063853Y018733D01*
X063849Y018700D01*
X063861Y018609D01*
X063896Y018524D01*
X063952Y018451D01*
X064024Y018396D01*
X064109Y018361D01*
X064200Y018349D01*
X064291Y018361D01*
X064376Y018396D01*
X064448Y018451D01*
X064504Y018524D01*
X064514Y018549D01*
X064837D01*
X064999Y018387D01*
X064971Y018344D01*
X064900Y018374D01*
X064800Y018387D01*
X064700Y018374D01*
X064607Y018335D01*
X064527Y018273D01*
X064465Y018193D01*
X064426Y018100D01*
X064413Y018000D01*
X064426Y017900D01*
X064465Y017807D01*
X064527Y017727D01*
X064607Y017665D01*
X064700Y017626D01*
X064800Y017613D01*
X064900Y017626D01*
X064993Y017665D01*
X065073Y017727D01*
X065135Y017807D01*
X065174Y017900D01*
X065187Y018000D01*
X065174Y018100D01*
X065144Y018171D01*
X065187Y018199D01*
X065649Y017737D01*
Y017352D01*
X065607Y017335D01*
X065527Y017273D01*
X065465Y017193D01*
X065426Y017100D01*
X065413Y017000D01*
X065426Y016900D01*
X065465Y016807D01*
X065527Y016727D01*
X065607Y016665D01*
X065700Y016626D01*
X065800Y016613D01*
X065900Y016626D01*
X065993Y016665D01*
X066073Y016727D01*
X066135Y016807D01*
X066174Y016900D01*
X066187Y017000D01*
X066174Y017100D01*
X066135Y017193D01*
X066073Y017273D01*
X065993Y017335D01*
X065951Y017352D01*
Y017800D01*
X065940Y017858D01*
X065907Y017907D01*
X065907Y017907D01*
X065007Y018807D01*
X064958Y018840D01*
X064900Y018851D01*
X064900Y018851D01*
X064514D01*
X064504Y018876D01*
X064448Y018949D01*
X064376Y019004D01*
X064291Y019039D01*
X064200Y019051D01*
X064109Y019039D01*
X064024Y019004D01*
X064016Y018998D01*
X060929Y022085D01*
X060939Y022109D01*
X060951Y022200D01*
X060939Y022291D01*
X060904Y022376D01*
X060848Y022448D01*
X060776Y022504D01*
X060691Y022539D01*
X060600Y022551D01*
X060509Y022539D01*
X060424Y022504D01*
X060399Y022485D01*
X060349Y022509D01*
Y023172D01*
X060395Y023191D01*
X060444Y023142D01*
X060426Y023100D01*
X060413Y023000D01*
X060426Y022900D01*
X060465Y022807D01*
X060527Y022727D01*
X060607Y022665D01*
X060700Y022626D01*
X060800Y022613D01*
X060900Y022626D01*
X060993Y022665D01*
X061073Y022727D01*
X061135Y022807D01*
X061174Y022900D01*
X061187Y023000D01*
X061174Y023100D01*
X061135Y023193D01*
X061073Y023273D01*
X060993Y023335D01*
X060900Y023374D01*
X060800Y023387D01*
X060700Y023374D01*
X060658Y023356D01*
X060508Y023506D01*
Y024609D01*
X060558Y024626D01*
X060587Y024587D01*
X060649Y024539D01*
X060705Y024516D01*
Y024239D01*
X061295D01*
Y024364D01*
X061455D01*
Y024239D01*
X062045D01*
Y024364D01*
X062205D01*
Y024239D01*
X062795D01*
Y024364D01*
X063005D01*
Y024239D01*
X063595D01*
Y024364D01*
X063805D01*
Y024239D01*
X064395D01*
Y024791D01*
X063805D01*
Y024666D01*
X063595D01*
Y024791D01*
X063005D01*
Y024666D01*
X062934D01*
X062909Y024716D01*
X062928Y024745D01*
X062940Y024803D01*
X062940Y024803D01*
Y024879D01*
X063144D01*
Y024881D01*
X063220D01*
Y024879D01*
X063279D01*
Y024881D01*
X063339D01*
Y025268D01*
X063350Y025285D01*
X063356Y025314D01*
X063418D01*
Y024881D01*
X063479D01*
Y024879D01*
X063538D01*
Y024881D01*
X063733D01*
Y025606D01*
X063798D01*
X063806Y025605D01*
X063860D01*
X064521Y024943D01*
X064570Y024910D01*
X064628Y024899D01*
X064628Y024899D01*
X065240D01*
X065287Y024837D01*
X065349Y024789D01*
X065422Y024759D01*
X065500Y024749D01*
X065578Y024759D01*
X065651Y024789D01*
X065713Y024837D01*
X065761Y024899D01*
X065791Y024972D01*
X065801Y025050D01*
X065791Y025128D01*
X065761Y025201D01*
X065713Y025263D01*
X065651Y025311D01*
X065578Y025341D01*
X065500Y025351D01*
X065422Y025341D01*
X065349Y025311D01*
X065287Y025263D01*
X065240Y025201D01*
X064691D01*
X064172Y025720D01*
X064191Y025767D01*
X064520D01*
X064523Y025763D01*
X064693Y025593D01*
X064742Y025560D01*
X064800Y025549D01*
X064824Y025509D01*
Y025388D01*
X065376D01*
Y025561D01*
X065612D01*
X065612Y025561D01*
X065670Y025572D01*
X065719Y025605D01*
X066113Y025999D01*
X066172Y025987D01*
X066188Y025949D01*
X066236Y025886D01*
X066299Y025838D01*
X066350Y025817D01*
Y026100D01*
X066550D01*
Y025817D01*
X066575Y025827D01*
X066625Y025796D01*
Y024039D01*
X065942Y023356D01*
X065900Y023374D01*
X065800Y023387D01*
X065700Y023374D01*
X065607Y023335D01*
X065527Y023273D01*
X065465Y023193D01*
X065426Y023100D01*
X065413Y023000D01*
X065426Y022900D01*
X065465Y022807D01*
X065519Y022736D01*
X065484Y022700D01*
X065477Y022706D01*
X065400Y022737D01*
Y022500D01*
X065637D01*
X065606Y022577D01*
X065557Y022640D01*
X065592Y022676D01*
X065607Y022665D01*
X065700Y022626D01*
X065800Y022613D01*
X065900Y022626D01*
X065993Y022665D01*
X066073Y022727D01*
X066135Y022807D01*
X066174Y022900D01*
X066187Y023000D01*
X066174Y023100D01*
X066156Y023142D01*
X066883Y023869D01*
X066883Y023869D01*
X066916Y023918D01*
X066927Y023976D01*
X066927Y023976D01*
Y024369D01*
X066972Y024392D01*
X066992Y024377D01*
X067092Y024335D01*
X067200Y024321D01*
X067308Y024335D01*
X067408Y024377D01*
X067428Y024392D01*
X067473Y024369D01*
Y023887D01*
X066942Y023356D01*
X066900Y023374D01*
X066800Y023387D01*
X066700Y023374D01*
X066607Y023335D01*
X066527Y023273D01*
X066465Y023193D01*
X066426Y023100D01*
X066413Y023000D01*
X066426Y022900D01*
X066465Y022807D01*
X066527Y022727D01*
X066607Y022665D01*
X066700Y022626D01*
X066800Y022613D01*
X066900Y022626D01*
X066993Y022665D01*
X067073Y022727D01*
X067135Y022807D01*
X067174Y022900D01*
X067187Y023000D01*
X067174Y023100D01*
X067156Y023142D01*
X067731Y023717D01*
X067731Y023717D01*
X067764Y023766D01*
X067775Y023824D01*
X067775Y023824D01*
Y026673D01*
X067764Y026731D01*
X067731Y026780D01*
X067731Y026780D01*
X067579Y026932D01*
X067603Y026989D01*
X067617Y027097D01*
X067603Y027205D01*
X067561Y027306D01*
X067495Y027392D01*
X067408Y027459D01*
X067387Y027467D01*
Y027517D01*
X067408Y027526D01*
X067495Y027593D01*
X067561Y027679D01*
X067603Y027779D01*
X067617Y027887D01*
X067603Y027995D01*
X067561Y028096D01*
X067495Y028182D01*
X067408Y028249D01*
X067390Y028256D01*
Y028306D01*
X067408Y028314D01*
X067495Y028380D01*
X067561Y028466D01*
X067603Y028567D01*
X067617Y028675D01*
X067603Y028783D01*
X067561Y028883D01*
X067495Y028970D01*
X067408Y029036D01*
X067392Y029043D01*
Y029093D01*
X067409Y029100D01*
X067496Y029166D01*
X067562Y029253D01*
X067604Y029354D01*
X067605Y029362D01*
X067200D01*
Y029562D01*
X067605D01*
X067604Y029571D01*
X067562Y029671D01*
X067496Y029758D01*
X067409Y029825D01*
X067308Y029867D01*
X067271Y029871D01*
X067274Y029922D01*
X067948D01*
X067948Y029922D01*
X068006Y029933D01*
X068055Y029966D01*
X068654Y030565D01*
X068700Y030546D01*
D02*
G37*
G36*
X057434Y030752D02*
X057434Y030752D01*
X057483Y030719D01*
X057541Y030708D01*
X057541Y030708D01*
X057560D01*
X057586Y030658D01*
X057563Y030600D01*
X057900D01*
Y030500D01*
X058000D01*
Y030163D01*
X058077Y030194D01*
X058104Y030215D01*
X058149Y030193D01*
Y029925D01*
X058073Y029849D01*
X058026Y029868D01*
Y030038D01*
X057849D01*
Y029889D01*
X057649D01*
Y030038D01*
X057593D01*
Y030166D01*
X057416D01*
X057394Y030211D01*
X057404Y030224D01*
X057439Y030309D01*
X057451Y030400D01*
X057439Y030491D01*
X057404Y030576D01*
X057348Y030649D01*
X057276Y030704D01*
X057191Y030739D01*
X057100Y030751D01*
X057009Y030739D01*
X056924Y030704D01*
X056852Y030649D01*
X056796Y030576D01*
X056786Y030551D01*
X056100D01*
X056042Y030540D01*
X055993Y030507D01*
X055993Y030507D01*
X055493Y030007D01*
X055460Y029958D01*
X055449Y029900D01*
X055449Y029900D01*
Y029779D01*
X055216D01*
Y029606D01*
X054673D01*
X054645Y029647D01*
X054678Y029728D01*
X054843Y030044D01*
X055035Y030345D01*
X055252Y030628D01*
X055493Y030891D01*
X055755Y031132D01*
X055998Y031314D01*
X056872D01*
X057434Y030752D01*
D02*
G37*
G36*
X062009Y030577D02*
X061999Y030500D01*
X062009Y030422D01*
X062039Y030350D01*
X062047Y030340D01*
X062024Y030295D01*
X061609D01*
Y030232D01*
X061559Y030208D01*
X061532Y030229D01*
X061456Y030260D01*
Y029923D01*
X061256D01*
Y030260D01*
X061197Y030236D01*
X061147Y030261D01*
Y030542D01*
X060950D01*
Y030265D01*
Y029988D01*
X060966D01*
X060996Y029947D01*
X060982Y029911D01*
X060555D01*
Y029359D01*
X060749D01*
Y029210D01*
X060749Y029210D01*
X060760Y029152D01*
X060793Y029103D01*
X061253Y028643D01*
Y028289D01*
X061239Y028260D01*
X061211Y028247D01*
X060367D01*
Y028044D01*
X059661D01*
Y028650D01*
X058539D01*
Y027941D01*
X058711D01*
X058730Y027895D01*
X058571Y027736D01*
X058494Y027746D01*
X058416Y027736D01*
X058414Y027737D01*
X058407Y027793D01*
X058407Y027793D01*
X058407Y027793D01*
X058440Y027842D01*
X058451Y027900D01*
X058451Y027900D01*
Y028405D01*
X058451Y028405D01*
X058440Y028463D01*
X058407Y028512D01*
X058407Y028512D01*
X058104Y028815D01*
X058055Y028848D01*
X058026Y028853D01*
Y028853D01*
X058025Y028854D01*
Y028856D01*
X058015D01*
X057997Y028859D01*
X057749D01*
Y029005D01*
D01*
Y029151D01*
X058025D01*
Y029202D01*
X058026D01*
Y029251D01*
X058025D01*
Y029378D01*
X058040Y029388D01*
X058407Y029755D01*
X058440Y029804D01*
X058451Y029862D01*
X058451Y029862D01*
Y030608D01*
X058451Y030608D01*
X058440Y030666D01*
X058407Y030715D01*
X058407Y030715D01*
X058156Y030966D01*
X058107Y030999D01*
X058113Y031049D01*
X061537D01*
X062009Y030577D01*
D02*
G37*
G36*
X057357Y027267D02*
X057428Y027237D01*
X057490Y027190D01*
X057537Y027128D01*
X057567Y027057D01*
X057575Y026999D01*
Y026980D01*
Y024420D01*
Y024401D01*
X057567Y024343D01*
X057537Y024272D01*
X057490Y024210D01*
X057428Y024163D01*
X057357Y024133D01*
X057299Y024125D01*
X056512D01*
Y027275D01*
X057299D01*
X057357Y027267D01*
D02*
G37*
G36*
X064186Y040800D02*
X064209Y040773D01*
X064200Y040734D01*
X064118Y040690D01*
X064110Y040684D01*
X064101Y040679D01*
X064010Y040604D01*
X064004Y040596D01*
X063996Y040590D01*
X063921Y040499D01*
X063916Y040490D01*
X063910Y040482D01*
X063854Y040378D01*
X063852Y040369D01*
X063847Y040360D01*
X063813Y040247D01*
X063812Y040237D01*
X063809Y040227D01*
X063800Y040139D01*
X063801Y040134D01*
X063800Y040129D01*
Y038400D01*
X063807Y038362D01*
X063829Y038329D01*
X063862Y038307D01*
X063900Y038300D01*
X066876D01*
X066897Y038250D01*
X066777Y038130D01*
X066758Y038100D01*
X063895D01*
X063856Y038093D01*
X063824Y038071D01*
X063802Y038038D01*
X063795Y038000D01*
Y036485D01*
X063748Y036466D01*
X063601Y036613D01*
Y037850D01*
X063601Y037850D01*
X063590Y037908D01*
X063557Y037957D01*
X063557Y037957D01*
X063207Y038307D01*
X063158Y038340D01*
X063100Y038351D01*
X063100Y038351D01*
X061562D01*
X061550Y038349D01*
X061500Y038390D01*
X061500Y039571D01*
X061550Y039591D01*
X061618Y039563D01*
Y039900D01*
Y040237D01*
X061542Y040206D01*
X061538Y040202D01*
X061492Y040222D01*
X061491Y040227D01*
X061488Y040237D01*
X061487Y040247D01*
X061453Y040360D01*
X061448Y040369D01*
X061446Y040378D01*
X061390Y040482D01*
X061384Y040490D01*
X061379Y040499D01*
X061304Y040590D01*
X061296Y040596D01*
X061290Y040604D01*
X061199Y040679D01*
X061190Y040684D01*
X061182Y040690D01*
X061100Y040734D01*
X061091Y040773D01*
X061114Y040800D01*
X064186D01*
D02*
G37*
G36*
X059222Y026308D02*
X059283Y026300D01*
X059290Y026291D01*
X059290Y026291D01*
Y024163D01*
X058990Y023863D01*
X058521D01*
X058487Y023901D01*
X058484Y023906D01*
X058491Y023922D01*
X058501Y024000D01*
X058496Y024039D01*
X058544Y024059D01*
X058550Y024050D01*
X058623Y023994D01*
X058700Y023963D01*
Y024300D01*
X058800D01*
Y024400D01*
X059137D01*
X059106Y024477D01*
X059105Y024477D01*
Y024700D01*
X058700D01*
Y024900D01*
X059105D01*
Y025372D01*
X059105D01*
X059101Y025422D01*
X059104Y025430D01*
X059104D01*
Y025493D01*
X059108Y025505D01*
X059118Y025583D01*
X059108Y025660D01*
X059104Y025672D01*
Y026316D01*
X059117Y026323D01*
X059154Y026336D01*
X059222Y026308D01*
D02*
G37*
G36*
X062040Y028267D02*
X062101D01*
Y028265D01*
X062160D01*
Y028267D01*
X063711D01*
X063739Y028253D01*
X063753Y028225D01*
Y027932D01*
Y027538D01*
Y027144D01*
Y026751D01*
Y026357D01*
Y025909D01*
X063631D01*
X063584Y025916D01*
X063584Y025959D01*
Y026900D01*
X062600D01*
Y025916D01*
X063090D01*
X063105Y025866D01*
X063104Y025865D01*
X063071Y025815D01*
X063059Y025757D01*
Y025748D01*
X063059D01*
Y025747D01*
X063024D01*
Y025314D01*
X062946D01*
Y025747D01*
X062885D01*
Y025748D01*
X062826D01*
Y025747D01*
X061569D01*
Y025748D01*
X061510D01*
Y025747D01*
X061450D01*
Y025314D01*
X061410D01*
Y025214D01*
X061251D01*
Y024879D01*
X061456D01*
Y024791D01*
X061455D01*
Y024666D01*
X061295D01*
Y024791D01*
X061109D01*
X061101Y024800D01*
X061091Y024878D01*
X061061Y024950D01*
X061013Y025013D01*
X060951Y025060D01*
Y025767D01*
X061209D01*
X061238Y025754D01*
X061251Y025724D01*
Y025414D01*
X061310D01*
Y025748D01*
X061276D01*
X061246Y025761D01*
X061233Y025791D01*
Y025963D01*
Y026357D01*
Y026751D01*
Y027144D01*
Y027537D01*
X061235D01*
Y027596D01*
X061233D01*
Y027656D01*
X060800D01*
Y027735D01*
X061233D01*
Y027796D01*
X061235D01*
Y027855D01*
X061233D01*
Y028225D01*
X061246Y028253D01*
X061275Y028267D01*
X061448D01*
Y028265D01*
X061507D01*
Y028267D01*
X061568D01*
Y028700D01*
X061646D01*
Y028267D01*
X061707D01*
Y028265D01*
X061766D01*
Y028267D01*
X061842D01*
Y028265D01*
X061901D01*
Y028267D01*
X061961D01*
Y028700D01*
X062040D01*
Y028267D01*
D02*
G37*
G36*
X060918Y040691D02*
X061031Y040657D01*
X061135Y040601D01*
X061226Y040526D01*
X061301Y040435D01*
X061357Y040331D01*
X061391Y040218D01*
X061400Y040129D01*
X061400Y040100D01*
X061400Y036300D01*
X058400D01*
Y040100D01*
X058400Y040129D01*
X058409Y040218D01*
X058443Y040331D01*
X058499Y040435D01*
X058574Y040526D01*
X058665Y040601D01*
X058769Y040657D01*
X058882Y040691D01*
X058971Y040700D01*
X059000Y040700D01*
X060800Y040700D01*
Y040700D01*
X060829Y040700D01*
X060918Y040691D01*
D02*
G37*
G36*
X058686Y040800D02*
X058709Y040773D01*
X058700Y040734D01*
X058618Y040690D01*
X058610Y040684D01*
X058601Y040679D01*
X058510Y040604D01*
X058504Y040596D01*
X058496Y040590D01*
X058421Y040499D01*
X058416Y040490D01*
X058410Y040482D01*
X058354Y040378D01*
X058352Y040369D01*
X058347Y040360D01*
X058313Y040247D01*
X058312Y040237D01*
X058309Y040227D01*
X058307Y040207D01*
X058254Y040184D01*
X058227Y040206D01*
X058150Y040237D01*
Y039900D01*
Y039563D01*
X058227Y039594D01*
X058250Y039612D01*
X058300Y039587D01*
Y036525D01*
X058253Y036506D01*
X058151Y036608D01*
Y037800D01*
X058140Y037858D01*
X058107Y037907D01*
X058107Y037907D01*
X057707Y038307D01*
X057658Y038340D01*
X057600Y038351D01*
X057600Y038351D01*
X056062D01*
X056062Y038351D01*
X056038Y038347D01*
X055998Y038390D01*
X056000Y038400D01*
X056000Y040100D01*
X056000Y040129D01*
X055999Y040134D01*
X056000Y040139D01*
X055991Y040227D01*
X055988Y040237D01*
X055987Y040247D01*
X055953Y040360D01*
X055948Y040369D01*
X055946Y040378D01*
X055890Y040482D01*
X055884Y040490D01*
X055879Y040499D01*
X055804Y040590D01*
X055796Y040596D01*
X055790Y040604D01*
X055699Y040679D01*
X055690Y040684D01*
X055682Y040690D01*
X055600Y040734D01*
X055591Y040773D01*
X055614Y040800D01*
X058686D01*
D02*
G37*
%LPC*%
G36*
X067700Y022900D02*
X067425D01*
X067425Y022899D01*
X067464Y022806D01*
X067525Y022725D01*
X067606Y022664D01*
X067699Y022625D01*
X067700Y022625D01*
Y022900D01*
D02*
G37*
G36*
X068175D02*
X067900D01*
Y022625D01*
X067901Y022625D01*
X067994Y022664D01*
X068075Y022725D01*
X068136Y022806D01*
X068175Y022899D01*
X068175Y022900D01*
D02*
G37*
G36*
X063800Y023387D02*
X063700Y023374D01*
X063607Y023335D01*
X063527Y023273D01*
X063465Y023193D01*
X063426Y023100D01*
X063413Y023000D01*
X063426Y022900D01*
X063465Y022807D01*
X063527Y022727D01*
X063607Y022665D01*
X063700Y022626D01*
X063800Y022613D01*
X063900Y022626D01*
X063993Y022665D01*
X064073Y022727D01*
X064135Y022807D01*
X064174Y022900D01*
X064187Y023000D01*
X064174Y023100D01*
X064135Y023193D01*
X064073Y023273D01*
X063993Y023335D01*
X063900Y023374D01*
X063800Y023387D01*
D02*
G37*
G36*
X061800D02*
X061700Y023374D01*
X061607Y023335D01*
X061527Y023273D01*
X061465Y023193D01*
X061426Y023100D01*
X061413Y023000D01*
X061426Y022900D01*
X061465Y022807D01*
X061527Y022727D01*
X061607Y022665D01*
X061700Y022626D01*
X061800Y022613D01*
X061900Y022626D01*
X061993Y022665D01*
X062073Y022727D01*
X062135Y022807D01*
X062174Y022900D01*
X062187Y023000D01*
X062174Y023100D01*
X062135Y023193D01*
X062073Y023273D01*
X061993Y023335D01*
X061900Y023374D01*
X061800Y023387D01*
D02*
G37*
G36*
X062800D02*
X062700Y023374D01*
X062607Y023335D01*
X062527Y023273D01*
X062465Y023193D01*
X062426Y023100D01*
X062413Y023000D01*
X062426Y022900D01*
X062465Y022807D01*
X062527Y022727D01*
X062607Y022665D01*
X062700Y022626D01*
X062800Y022613D01*
X062900Y022626D01*
X062993Y022665D01*
X063073Y022727D01*
X063135Y022807D01*
X063174Y022900D01*
X063187Y023000D01*
X063174Y023100D01*
X063135Y023193D01*
X063073Y023273D01*
X062993Y023335D01*
X062900Y023374D01*
X062800Y023387D01*
D02*
G37*
G36*
X064800D02*
X064700Y023374D01*
X064607Y023335D01*
X064527Y023273D01*
X064465Y023193D01*
X064426Y023100D01*
X064413Y023000D01*
X064426Y022900D01*
X064465Y022807D01*
X064527Y022727D01*
X064607Y022665D01*
X064700Y022626D01*
X064800Y022613D01*
X064900Y022626D01*
X064993Y022665D01*
X065008Y022676D01*
X065043Y022640D01*
X064994Y022577D01*
X064963Y022500D01*
X065200D01*
Y022737D01*
X065123Y022706D01*
X065116Y022700D01*
X065081Y022736D01*
X065135Y022807D01*
X065174Y022900D01*
X065187Y023000D01*
X065174Y023100D01*
X065135Y023193D01*
X065073Y023273D01*
X064993Y023335D01*
X064900Y023374D01*
X064800Y023387D01*
D02*
G37*
G36*
X065200Y022300D02*
X064963D01*
X064994Y022223D01*
X065050Y022150D01*
X065123Y022094D01*
X065200Y022063D01*
Y022300D01*
D02*
G37*
G36*
X065637D02*
X065400D01*
Y022063D01*
X065477Y022094D01*
X065550Y022150D01*
X065606Y022223D01*
X065637Y022300D01*
D02*
G37*
G36*
X067700Y023375D02*
X067699Y023375D01*
X067606Y023336D01*
X067525Y023275D01*
X067464Y023194D01*
X067425Y023101D01*
X067425Y023100D01*
X067700D01*
Y023375D01*
D02*
G37*
G36*
X063597Y023785D02*
X063400D01*
Y023608D01*
X063597D01*
Y023785D01*
D02*
G37*
G36*
X063200D02*
X063003D01*
Y023608D01*
X063200D01*
Y023785D01*
D02*
G37*
G36*
X062797D02*
X062600D01*
Y023608D01*
X062797D01*
Y023785D01*
D02*
G37*
G36*
X065350Y024170D02*
X065113D01*
X065144Y024094D01*
X065200Y024020D01*
X065273Y023964D01*
X065350Y023933D01*
Y024170D01*
D02*
G37*
G36*
X064397Y023785D02*
X064200D01*
Y023608D01*
X064397D01*
Y023785D01*
D02*
G37*
G36*
X064000D02*
X063803D01*
Y023608D01*
X064000D01*
Y023785D01*
D02*
G37*
G36*
X061297D02*
X061100D01*
Y023608D01*
X061297D01*
Y023785D01*
D02*
G37*
G36*
X060900D02*
X060703D01*
Y023608D01*
X060900D01*
Y023785D01*
D02*
G37*
G36*
X067900Y023375D02*
Y023100D01*
X068175D01*
X068175Y023101D01*
X068136Y023194D01*
X068075Y023275D01*
X067994Y023336D01*
X067901Y023375D01*
X067900Y023375D01*
D02*
G37*
G36*
X062400Y023785D02*
X062203D01*
Y023608D01*
X062400D01*
Y023785D01*
D02*
G37*
G36*
X062047D02*
X061850D01*
Y023608D01*
X062047D01*
Y023785D01*
D02*
G37*
G36*
X061650D02*
X061453D01*
Y023608D01*
X061650D01*
Y023785D01*
D02*
G37*
G36*
X052840Y017900D02*
X052600D01*
Y017620D01*
X052840D01*
Y017900D01*
D02*
G37*
G36*
X066800Y018387D02*
X066700Y018374D01*
X066607Y018335D01*
X066527Y018273D01*
X066465Y018193D01*
X066426Y018100D01*
X066413Y018000D01*
X066426Y017900D01*
X066465Y017807D01*
X066527Y017727D01*
X066607Y017665D01*
X066700Y017626D01*
X066800Y017613D01*
X066900Y017626D01*
X066993Y017665D01*
X067073Y017727D01*
X067135Y017807D01*
X067174Y017900D01*
X067187Y018000D01*
X067174Y018100D01*
X067135Y018193D01*
X067073Y018273D01*
X066993Y018335D01*
X066900Y018374D01*
X066800Y018387D01*
D02*
G37*
G36*
X063800D02*
X063700Y018374D01*
X063607Y018335D01*
X063527Y018273D01*
X063465Y018193D01*
X063426Y018100D01*
X063413Y018000D01*
X063426Y017900D01*
X063465Y017807D01*
X063527Y017727D01*
X063607Y017665D01*
X063700Y017626D01*
X063800Y017613D01*
X063900Y017626D01*
X063993Y017665D01*
X064073Y017727D01*
X064135Y017807D01*
X064174Y017900D01*
X064187Y018000D01*
X064174Y018100D01*
X064135Y018193D01*
X064073Y018273D01*
X063993Y018335D01*
X063900Y018374D01*
X063800Y018387D01*
D02*
G37*
G36*
X055850Y018737D02*
X055773Y018706D01*
X055700Y018650D01*
X055644Y018577D01*
X055613Y018500D01*
X055850D01*
Y018737D01*
D02*
G37*
G36*
X052600Y018380D02*
Y018100D01*
X052840D01*
Y018380D01*
X052600D01*
D02*
G37*
G36*
X054029Y018378D02*
X053352D01*
Y017622D01*
X054029D01*
Y018378D01*
D02*
G37*
G36*
X066800Y017387D02*
X066700Y017374D01*
X066607Y017335D01*
X066527Y017273D01*
X066465Y017193D01*
X066426Y017100D01*
X066413Y017000D01*
X066426Y016900D01*
X066465Y016807D01*
X066527Y016727D01*
X066607Y016665D01*
X066700Y016626D01*
X066800Y016613D01*
X066900Y016626D01*
X066993Y016665D01*
X067073Y016727D01*
X067135Y016807D01*
X067174Y016900D01*
X067187Y017000D01*
X067174Y017100D01*
X067135Y017193D01*
X067073Y017273D01*
X066993Y017335D01*
X066900Y017374D01*
X066800Y017387D01*
D02*
G37*
G36*
X064800D02*
X064700Y017374D01*
X064607Y017335D01*
X064527Y017273D01*
X064465Y017193D01*
X064426Y017100D01*
X064413Y017000D01*
X064426Y016900D01*
X064465Y016807D01*
X064527Y016727D01*
X064607Y016665D01*
X064700Y016626D01*
X064800Y016613D01*
X064900Y016626D01*
X064993Y016665D01*
X065073Y016727D01*
X065135Y016807D01*
X065174Y016900D01*
X065187Y017000D01*
X065174Y017100D01*
X065135Y017193D01*
X065073Y017273D01*
X064993Y017335D01*
X064900Y017374D01*
X064800Y017387D01*
D02*
G37*
G36*
X063800D02*
X063700Y017374D01*
X063607Y017335D01*
X063527Y017273D01*
X063465Y017193D01*
X063426Y017100D01*
X063413Y017000D01*
X063426Y016900D01*
X063465Y016807D01*
X063527Y016727D01*
X063607Y016665D01*
X063700Y016626D01*
X063800Y016613D01*
X063900Y016626D01*
X063993Y016665D01*
X064073Y016727D01*
X064135Y016807D01*
X064174Y016900D01*
X064187Y017000D01*
X064174Y017100D01*
X064135Y017193D01*
X064073Y017273D01*
X063993Y017335D01*
X063900Y017374D01*
X063800Y017387D01*
D02*
G37*
G36*
X062800Y018387D02*
X062700Y018374D01*
X062607Y018335D01*
X062527Y018273D01*
X062465Y018193D01*
X062426Y018100D01*
X062413Y018000D01*
X062426Y017900D01*
X062465Y017807D01*
X062527Y017727D01*
X062607Y017665D01*
X062700Y017626D01*
X062800Y017613D01*
X062900Y017626D01*
X062993Y017665D01*
X063073Y017727D01*
X063135Y017807D01*
X063174Y017900D01*
X063187Y018000D01*
X063174Y018100D01*
X063135Y018193D01*
X063073Y018273D01*
X062993Y018335D01*
X062900Y018374D01*
X062800Y018387D01*
D02*
G37*
G36*
X052600Y017280D02*
Y017000D01*
X052840D01*
Y017280D01*
X052600D01*
D02*
G37*
G36*
X067800Y017387D02*
X067700Y017374D01*
X067607Y017335D01*
X067527Y017273D01*
X067465Y017193D01*
X067426Y017100D01*
X067413Y017000D01*
X067426Y016900D01*
X067465Y016807D01*
X067527Y016727D01*
X067607Y016665D01*
X067700Y016626D01*
X067800Y016613D01*
X067900Y016626D01*
X067993Y016665D01*
X068073Y016727D01*
X068135Y016807D01*
X068174Y016900D01*
X068187Y017000D01*
X068174Y017100D01*
X068135Y017193D01*
X068073Y017273D01*
X067993Y017335D01*
X067900Y017374D01*
X067800Y017387D01*
D02*
G37*
G36*
X052840Y019000D02*
X052600D01*
Y018720D01*
X052840D01*
Y019000D01*
D02*
G37*
G36*
X066750Y021487D02*
X066673Y021456D01*
X066600Y021400D01*
X066544Y021327D01*
X066513Y021250D01*
X066750D01*
Y021487D01*
D02*
G37*
G36*
X063437Y021100D02*
X063200D01*
Y020863D01*
X063277Y020894D01*
X063350Y020950D01*
X063406Y021023D01*
X063437Y021100D01*
D02*
G37*
G36*
X063000D02*
X062763D01*
X062794Y021023D01*
X062850Y020950D01*
X062923Y020894D01*
X063000Y020863D01*
Y021100D01*
D02*
G37*
G36*
X063200Y021537D02*
Y021300D01*
X063437D01*
X063406Y021377D01*
X063350Y021450D01*
X063277Y021506D01*
X063200Y021537D01*
D02*
G37*
G36*
X063000D02*
X062923Y021506D01*
X062850Y021450D01*
X062794Y021377D01*
X062763Y021300D01*
X063000D01*
Y021537D01*
D02*
G37*
G36*
X066950Y021487D02*
Y021250D01*
X067187D01*
X067156Y021327D01*
X067100Y021400D01*
X067027Y021456D01*
X066950Y021487D01*
D02*
G37*
G36*
X052600Y020580D02*
Y020300D01*
X052840D01*
Y020580D01*
X052600D01*
D02*
G37*
G36*
X052840Y020100D02*
X052600D01*
Y019820D01*
X052840D01*
Y020100D01*
D02*
G37*
G36*
X052600Y019480D02*
Y019200D01*
X052840D01*
Y019480D01*
X052600D01*
D02*
G37*
G36*
X067187Y021050D02*
X066950D01*
Y020813D01*
X067027Y020844D01*
X067100Y020900D01*
X067156Y020973D01*
X067187Y021050D01*
D02*
G37*
G36*
X066750D02*
X066513D01*
X066544Y020973D01*
X066600Y020900D01*
X066673Y020844D01*
X066750Y020813D01*
Y021050D01*
D02*
G37*
G36*
X053100Y020750D02*
X052917D01*
X052938Y020699D01*
X052986Y020636D01*
X053049Y020588D01*
X053100Y020567D01*
Y020750D01*
D02*
G37*
G36*
X065787Y024170D02*
X065550D01*
Y023933D01*
X065627Y023964D01*
X065700Y024020D01*
X065756Y024094D01*
X065787Y024170D01*
D02*
G37*
G36*
X059000Y029852D02*
X058537D01*
Y029596D01*
X059000D01*
Y029852D01*
D02*
G37*
G36*
X060437Y029900D02*
X059763D01*
X059794Y029823D01*
X059850Y029750D01*
X059923Y029694D01*
X059965Y029677D01*
Y029623D01*
X059923Y029606D01*
X059850Y029550D01*
X059794Y029477D01*
X059763Y029400D01*
X060437D01*
X060406Y029477D01*
X060350Y029550D01*
X060277Y029606D01*
X060235Y029623D01*
Y029677D01*
X060277Y029694D01*
X060350Y029750D01*
X060406Y029823D01*
X060437Y029900D01*
D02*
G37*
G36*
X059662Y029852D02*
X059200D01*
Y029596D01*
X059662D01*
Y029852D01*
D02*
G37*
G36*
X060000Y030337D02*
X059923Y030306D01*
X059850Y030250D01*
X059794Y030177D01*
X059763Y030100D01*
X060000D01*
Y030337D01*
D02*
G37*
G36*
X060750Y030165D02*
X060553D01*
Y029988D01*
X060750D01*
Y030165D01*
D02*
G37*
G36*
X059662Y029396D02*
X059200D01*
Y029141D01*
X059662D01*
Y029396D01*
D02*
G37*
G36*
X060437Y029200D02*
X059763D01*
X059794Y029123D01*
X059850Y029050D01*
X059923Y028994D01*
X059965Y028977D01*
Y028923D01*
X059923Y028906D01*
X059850Y028850D01*
X059794Y028777D01*
X059763Y028700D01*
X060437D01*
X060406Y028777D01*
X060350Y028850D01*
X060277Y028906D01*
X060235Y028923D01*
Y028977D01*
X060277Y028994D01*
X060350Y029050D01*
X060406Y029123D01*
X060437Y029200D01*
D02*
G37*
G36*
X068200Y028787D02*
Y028550D01*
X068437D01*
X068406Y028627D01*
X068350Y028700D01*
X068277Y028756D01*
X068200Y028787D01*
D02*
G37*
G36*
X055500Y029072D02*
X055215D01*
Y028846D01*
X055500D01*
Y029072D01*
D02*
G37*
G36*
X059000Y029396D02*
X058537D01*
Y029141D01*
X059000D01*
Y029396D01*
D02*
G37*
G36*
X055985Y029072D02*
X055700D01*
Y028846D01*
X055985D01*
Y029072D01*
D02*
G37*
G36*
X060200Y030337D02*
Y030100D01*
X060437D01*
X060406Y030177D01*
X060350Y030250D01*
X060277Y030306D01*
X060200Y030337D01*
D02*
G37*
G36*
X062787Y039800D02*
X062550D01*
Y039563D01*
X062627Y039594D01*
X062700Y039650D01*
X062756Y039723D01*
X062787Y039800D01*
D02*
G37*
G36*
X057950Y039800D02*
X057713D01*
X057744Y039723D01*
X057800Y039650D01*
X057873Y039594D01*
X057950Y039563D01*
Y039800D01*
D02*
G37*
G36*
X062350Y040237D02*
X062273Y040206D01*
X062200Y040150D01*
X062144Y040077D01*
X062109Y039991D01*
X062059Y039991D01*
X062024Y040077D01*
X061968Y040150D01*
X061895Y040206D01*
X061818Y040237D01*
Y039900D01*
Y039563D01*
X061895Y039594D01*
X061968Y039650D01*
X062024Y039723D01*
X062059Y039809D01*
X062109Y039809D01*
X062144Y039723D01*
X062200Y039650D01*
X062273Y039594D01*
X062350Y039563D01*
Y039900D01*
Y040237D01*
D02*
G37*
G36*
X062550D02*
Y040000D01*
X062787D01*
X062756Y040077D01*
X062700Y040150D01*
X062627Y040206D01*
X062550Y040237D01*
D02*
G37*
G36*
X057950Y040237D02*
X057873Y040206D01*
X057800Y040150D01*
X057744Y040077D01*
X057713Y040000D01*
X057950D01*
Y040237D01*
D02*
G37*
G36*
X057750Y039137D02*
Y038900D01*
X057987D01*
X057956Y038977D01*
X057900Y039050D01*
X057827Y039106D01*
X057750Y039137D01*
D02*
G37*
G36*
X060750Y030542D02*
X060553D01*
Y030365D01*
X060750D01*
Y030542D01*
D02*
G37*
G36*
X057800Y030400D02*
X057563D01*
X057594Y030323D01*
X057650Y030250D01*
X057723Y030194D01*
X057800Y030163D01*
Y030400D01*
D02*
G37*
G36*
X057550Y038700D02*
X057313D01*
X057344Y038623D01*
X057400Y038550D01*
X057473Y038494D01*
X057550Y038463D01*
Y038700D01*
D02*
G37*
G36*
Y039137D02*
X057473Y039106D01*
X057400Y039050D01*
X057344Y038977D01*
X057313Y038900D01*
X057550D01*
Y039137D01*
D02*
G37*
G36*
X057987Y038700D02*
X057750D01*
Y038463D01*
X057827Y038494D01*
X057900Y038550D01*
X057956Y038623D01*
X057987Y038700D01*
D02*
G37*
G36*
X062797Y024162D02*
X062600D01*
Y023985D01*
X062797D01*
Y024162D01*
D02*
G37*
G36*
X062047D02*
X061850D01*
Y023985D01*
X062047D01*
Y024162D01*
D02*
G37*
G36*
X063597D02*
X063400D01*
Y023985D01*
X063597D01*
Y024162D01*
D02*
G37*
G36*
X064397D02*
X064200D01*
Y023985D01*
X064397D01*
Y024162D01*
D02*
G37*
G36*
X061297D02*
X061100D01*
Y023985D01*
X061297D01*
Y024162D01*
D02*
G37*
G36*
X064000D02*
X063803D01*
Y023985D01*
X064000D01*
Y024162D01*
D02*
G37*
G36*
X061650D02*
X061453D01*
Y023985D01*
X061650D01*
Y024162D01*
D02*
G37*
G36*
X059137Y024200D02*
X058900D01*
Y023963D01*
X058977Y023994D01*
X059050Y024050D01*
X059106Y024123D01*
X059137Y024200D01*
D02*
G37*
G36*
X062400Y024162D02*
X062203D01*
Y023985D01*
X062400D01*
Y024162D01*
D02*
G37*
G36*
X060900D02*
X060703D01*
Y023985D01*
X060900D01*
Y024162D01*
D02*
G37*
G36*
X063200D02*
X063003D01*
Y023985D01*
X063200D01*
Y024162D01*
D02*
G37*
G36*
X065350Y024607D02*
X065273Y024576D01*
X065200Y024520D01*
X065144Y024447D01*
X065113Y024370D01*
X065350D01*
Y024607D01*
D02*
G37*
G36*
X068437Y028350D02*
X068200D01*
Y028113D01*
X068277Y028144D01*
X068350Y028200D01*
X068406Y028273D01*
X068437Y028350D01*
D02*
G37*
G36*
X068000D02*
X067763D01*
X067794Y028273D01*
X067850Y028200D01*
X067923Y028144D01*
X068000Y028113D01*
Y028350D01*
D02*
G37*
G36*
X060000Y028500D02*
X059763D01*
X059794Y028423D01*
X059850Y028350D01*
X059923Y028294D01*
X060000Y028263D01*
Y028500D01*
D02*
G37*
G36*
X068000Y028787D02*
X067923Y028756D01*
X067850Y028700D01*
X067794Y028627D01*
X067763Y028550D01*
X068000D01*
Y028787D01*
D02*
G37*
G36*
X060437Y028500D02*
X060200D01*
Y028263D01*
X060277Y028294D01*
X060350Y028350D01*
X060406Y028423D01*
X060437Y028500D01*
D02*
G37*
G36*
X055985Y028646D02*
X055600D01*
X055215D01*
Y028555D01*
X055213Y028550D01*
X055550D01*
Y028450D01*
X055650D01*
Y028113D01*
X055727Y028144D01*
X055800Y028200D01*
X055856Y028273D01*
X055891Y028359D01*
X055899Y028419D01*
X055985D01*
Y028646D01*
D02*
G37*
G36*
X062400Y026900D02*
X061416D01*
Y025916D01*
X062400D01*
Y026900D01*
D02*
G37*
G36*
X065550Y024607D02*
Y024370D01*
X065787D01*
X065756Y024447D01*
X065700Y024520D01*
X065627Y024576D01*
X065550Y024607D01*
D02*
G37*
G36*
X062400Y028084D02*
X061416D01*
Y027100D01*
X062400D01*
Y028084D01*
D02*
G37*
G36*
X055450Y028350D02*
X055213D01*
X055244Y028273D01*
X055300Y028200D01*
X055373Y028144D01*
X055450Y028113D01*
Y028350D01*
D02*
G37*
G36*
X063584Y028084D02*
X062600D01*
Y027100D01*
X063584D01*
Y028084D01*
D02*
G37*
%LPD*%
D10*
X053691Y016900D02*
D03*
X052500D02*
D03*
X053691Y018000D02*
D03*
X052500D02*
D03*
X053691Y020200D02*
D03*
X052500D02*
D03*
X053691Y019100D02*
D03*
X052500D02*
D03*
D11*
X059100Y028296D02*
D03*
Y029496D02*
D03*
D12*
X057043Y025700D02*
D03*
X054957D02*
D03*
D13*
X063300Y024515D02*
D03*
Y023885D02*
D03*
X062500Y024515D02*
D03*
Y023885D02*
D03*
X060850Y030265D02*
D03*
Y029635D02*
D03*
X057400Y037815D02*
D03*
Y037185D02*
D03*
X062900Y037815D02*
D03*
Y037185D02*
D03*
X067900Y037715D02*
D03*
Y037085D02*
D03*
X061000Y024515D02*
D03*
Y023885D02*
D03*
X061750Y024515D02*
D03*
Y023885D02*
D03*
X064100Y024515D02*
D03*
Y023885D02*
D03*
D14*
X062500Y027000D02*
D03*
D15*
X060800Y028089D02*
D03*
Y027893D02*
D03*
Y027696D02*
D03*
Y027499D02*
D03*
Y027302D02*
D03*
Y027105D02*
D03*
Y026908D02*
D03*
Y026711D02*
D03*
Y026515D02*
D03*
Y026318D02*
D03*
Y026121D02*
D03*
Y025924D02*
D03*
X064186D02*
D03*
Y026121D02*
D03*
Y026318D02*
D03*
Y026515D02*
D03*
Y026711D02*
D03*
Y026908D02*
D03*
Y027105D02*
D03*
Y027302D02*
D03*
Y027499D02*
D03*
Y027696D02*
D03*
Y027893D02*
D03*
Y028089D02*
D03*
D16*
X061410Y025314D02*
D03*
X061607D02*
D03*
X061804D02*
D03*
X062001D02*
D03*
X062198D02*
D03*
X062394D02*
D03*
X062591D02*
D03*
X062788D02*
D03*
X062985D02*
D03*
X063182D02*
D03*
X063379D02*
D03*
X063576D02*
D03*
Y028700D02*
D03*
X063379D02*
D03*
X063182D02*
D03*
X062985D02*
D03*
X062788D02*
D03*
X062591D02*
D03*
X062394D02*
D03*
X062198D02*
D03*
X062001D02*
D03*
X061804D02*
D03*
X061607D02*
D03*
X061410D02*
D03*
D17*
X058700Y024800D02*
D03*
Y026000D02*
D03*
D18*
X055600Y029454D02*
D03*
Y028746D02*
D03*
D19*
X056651Y029889D02*
D03*
Y029692D02*
D03*
Y029495D02*
D03*
Y029298D02*
D03*
Y029102D02*
D03*
Y028905D02*
D03*
Y028708D02*
D03*
Y028511D02*
D03*
X057749Y029889D02*
D03*
Y029692D02*
D03*
Y029495D02*
D03*
Y029298D02*
D03*
Y029102D02*
D03*
Y028905D02*
D03*
Y028708D02*
D03*
Y028511D02*
D03*
D20*
X057200Y029200D02*
D03*
D21*
X062515Y030000D02*
D03*
X061885D02*
D03*
D22*
X063915Y029962D02*
D03*
X063206D02*
D03*
D23*
X054700Y033145D02*
D03*
X065700D02*
D03*
X060200D02*
D03*
D24*
X053200Y037161D02*
D03*
X053700D02*
D03*
X054200D02*
D03*
X055200D02*
D03*
X055700D02*
D03*
X056200D02*
D03*
X064200D02*
D03*
X064700D02*
D03*
X065200D02*
D03*
X066200D02*
D03*
X066700D02*
D03*
X067200D02*
D03*
X058700D02*
D03*
X059200D02*
D03*
X059700D02*
D03*
X060700D02*
D03*
X061200D02*
D03*
X061700D02*
D03*
D25*
X065100Y025624D02*
D03*
Y026176D02*
D03*
Y026824D02*
D03*
Y027376D02*
D03*
Y028024D02*
D03*
Y028576D02*
D03*
D26*
X052350Y024186D02*
X052364Y024200D01*
X052350Y021726D02*
Y024186D01*
Y021726D02*
X052917Y021159D01*
X052350Y024200D02*
X052364D01*
X051973Y016753D02*
Y037944D01*
X051814Y016336D02*
Y037879D01*
X066100Y030200D02*
X066629Y030729D01*
X066100Y028750D02*
Y030200D01*
X065374Y028024D02*
X066100Y028750D01*
X065900Y028906D02*
Y030300D01*
X065322Y028329D02*
X065900Y028906D01*
Y030300D02*
X066509Y030909D01*
X067173Y030073D02*
X067948D01*
X066750Y029650D02*
X067173Y030073D01*
X066750Y026850D02*
Y029650D01*
X066591Y029791D02*
X067032Y030232D01*
X066591Y026949D02*
Y029791D01*
X067032Y030232D02*
X067882D01*
X066418Y029918D02*
X066891Y030391D01*
X066259Y030059D02*
X066750Y030550D01*
X066891Y030391D02*
X067816D01*
X066418Y027118D02*
Y029918D01*
X066750Y030550D02*
X067750D01*
X066259Y027259D02*
Y030059D01*
X066629Y030729D02*
X067679D01*
X066509Y030909D02*
X067559D01*
X063746Y029302D02*
X063903Y029145D01*
Y028897D02*
Y029145D01*
X063680Y029143D02*
X063744Y029079D01*
Y028807D02*
Y029079D01*
X063468Y029143D02*
X063680D01*
X063903Y028897D02*
X064224Y028576D01*
X063402Y029302D02*
X063746D01*
X063744Y028807D02*
X064222Y028329D01*
X063379Y029054D02*
X063468Y029143D01*
X066776Y023976D02*
Y025883D01*
X067624Y023824D02*
Y026673D01*
X067200Y027097D02*
X067624Y026673D01*
X066776Y025883D02*
X067200Y026307D01*
X068766Y030891D02*
Y037734D01*
X068250Y038250D02*
X068766Y037734D01*
X067112Y038250D02*
X068250D01*
X066884Y038023D02*
X067112Y038250D01*
X066884Y037345D02*
Y038023D01*
X052550Y027600D02*
X055608D01*
X052291Y027859D02*
X052550Y027600D01*
X052291Y027859D02*
Y038141D01*
X057081Y027700D02*
X057300D01*
X056365Y028417D02*
X057081Y027700D01*
X066700Y037161D02*
X066884Y037345D01*
X067900Y035950D02*
Y037085D01*
X067950Y031300D02*
Y034950D01*
X067559Y030909D02*
X067950Y031300D01*
X068130Y031180D02*
Y034995D01*
X067679Y030729D02*
X068130Y031180D01*
X067750Y030550D02*
X068289Y031089D01*
X067816Y030391D02*
X068448Y031023D01*
X067882Y030232D02*
X068607Y030957D01*
X067948Y030073D02*
X068766Y030891D01*
X068289Y031089D02*
Y035111D01*
X068448Y031023D02*
Y035177D01*
X068607Y030957D02*
Y035243D01*
X066105Y027105D02*
X066259Y027259D01*
X066124Y026824D02*
X066418Y027118D01*
X065612Y025712D02*
X066750Y026850D01*
X065513Y025871D02*
X066591Y026949D01*
X057039Y020569D02*
X057800Y019808D01*
X056900Y020430D02*
X057039Y020569D01*
X060800Y024800D02*
Y025924D01*
X061600Y031200D02*
X062300Y030500D01*
X057700Y031200D02*
X061600D01*
X063700Y030950D02*
X064200D01*
X063159Y031259D02*
X064241D01*
X064200Y030950D02*
X065150Y030000D01*
X062788Y029745D02*
X062850Y029807D01*
X062788Y028700D02*
Y029745D01*
X062394Y028700D02*
Y029880D01*
X064839Y027709D02*
X065659D01*
X065700Y027750D01*
X065100Y028024D02*
X065374D01*
X064222Y028329D02*
X065322D01*
X062394Y029880D02*
X062515Y030000D01*
X062217Y028719D02*
Y029668D01*
X051882Y038882D02*
X052359Y039359D01*
X051723Y037970D02*
Y038948D01*
X052050Y039275D01*
X065188Y025712D02*
X065612D01*
X064878Y025871D02*
X065513D01*
X065100Y026824D02*
X066124D01*
X064186Y027105D02*
X066105D01*
X054957Y025700D02*
X055000Y025657D01*
Y023900D02*
Y025657D01*
X055350Y023500D02*
X057043Y025193D01*
X054780Y023500D02*
X055350D01*
X053200Y025080D02*
X054780Y023500D01*
X052541Y021760D02*
X052982Y021318D01*
X052917Y021159D02*
X053406D01*
X052982Y021318D02*
X053472D01*
X053048Y021477D02*
X053537D01*
X052700Y021825D02*
X053048Y021477D01*
X053537D02*
X053556Y021459D01*
X053472Y021318D02*
X053490Y021300D01*
X053406Y021159D02*
X054088Y020477D01*
X053556Y021459D02*
X053566D01*
X053490Y021300D02*
X053500D01*
X053632Y021618D02*
X054406Y020844D01*
X053566Y021459D02*
X054247Y020778D01*
X053625Y021618D02*
X053632D01*
X053624Y021619D02*
X053625Y021618D01*
X053500Y021300D02*
X054088Y020712D01*
X053624Y021619D02*
Y022289D01*
X055800Y017000D02*
Y017782D01*
X055194Y018388D02*
X055800Y017782D01*
X055194Y018388D02*
Y019163D01*
X055400Y017600D02*
Y017957D01*
X054751Y018606D02*
X055400Y017957D01*
X054963Y019394D02*
X055194Y019163D01*
X054637Y019394D02*
X054963D01*
X054630Y019388D02*
X054637Y019394D01*
X054630Y019388D02*
X054630D01*
X054247Y019771D02*
X054630Y019388D01*
X061356Y029923D02*
X061670Y029609D01*
X061891D01*
X067900Y035950D02*
X068607Y035243D01*
X062985Y029701D02*
X063246Y029962D01*
X062985Y028700D02*
Y029701D01*
X062850Y029807D02*
Y030528D01*
X063379Y028700D02*
Y029054D01*
X063182Y029082D02*
X063402Y029302D01*
X063182Y028700D02*
Y029082D01*
X060761Y027499D02*
X060800D01*
X060761D02*
X060771Y027509D01*
X060255Y027105D02*
X060800D01*
X059441Y026291D02*
X060255Y027105D01*
X060283Y026908D02*
X060800D01*
X059600Y026225D02*
X060283Y026908D01*
X060311Y026711D02*
X060800D01*
X059800Y026200D02*
X060311Y026711D01*
X060393Y026515D02*
X060800D01*
X060000Y026122D02*
X060393Y026515D01*
X060421Y026318D02*
X060800D01*
X060197Y026094D02*
X060421Y026318D01*
X060449Y026121D02*
X060800D01*
X060356Y026028D02*
X060449Y026121D01*
X064186Y026711D02*
X064750D01*
Y026705D02*
Y026711D01*
Y026705D02*
X065033Y026422D01*
X064186Y026908D02*
X064967D01*
X065033Y026422D02*
X065628D01*
X064975Y026175D02*
X065100D01*
X064635Y026515D02*
X064975Y026175D01*
X064186Y026515D02*
X064635D01*
X060100Y030000D02*
X060177Y029923D01*
X061356D01*
X060900Y029210D02*
Y029600D01*
Y029210D02*
X061410Y028700D01*
X052276Y016450D02*
X054140D01*
X051973Y016753D02*
X052276Y016450D01*
X051828Y016350D02*
X051900D01*
X051814Y016336D02*
X051828Y016350D01*
X054140Y016450D02*
X054250Y016561D01*
X057043Y025193D02*
Y025700D01*
X058000Y036546D02*
Y037800D01*
X057600Y038200D02*
X058000Y037800D01*
X056062Y038200D02*
X057600D01*
X055200Y037338D02*
X056062Y038200D01*
X063450Y036550D02*
Y037850D01*
X063100Y038200D02*
X063450Y037850D01*
X061562Y038200D02*
X063100D01*
X060950Y037588D02*
X061562Y038200D01*
X052132Y027068D02*
Y038010D01*
Y027068D02*
X054000Y025200D01*
X051882Y038035D02*
Y038882D01*
X052041Y038101D02*
Y038521D01*
X051723Y037970D02*
X051814Y037879D01*
X051882Y038035D02*
X051973Y037944D01*
X052041Y038101D02*
X052132Y038010D01*
X052291Y038141D02*
X052400Y038250D01*
X052041Y038521D02*
X052370Y038850D01*
X052050Y039275D02*
Y039800D01*
X052517Y039359D02*
X052529Y039371D01*
X052370Y038850D02*
X052450D01*
X052359Y039359D02*
X052517D01*
X057043Y025700D02*
Y026164D01*
X055608Y027600D02*
X057043Y026164D01*
X054637Y018606D02*
X054751D01*
X054088Y019155D02*
X054637Y018606D01*
X054088Y019155D02*
Y020477D01*
X054406Y019837D02*
Y020612D01*
X054247Y019771D02*
Y020546D01*
X054406Y020837D02*
X054637Y020606D01*
X054088Y020705D02*
X054247Y020546D01*
X054088Y020705D02*
Y020712D01*
X054247Y020771D02*
X054406Y020612D01*
X054247Y020771D02*
Y020778D01*
X054406Y020837D02*
Y020844D01*
X059287Y035259D02*
X067866D01*
X067982Y035418D02*
X068289Y035111D01*
X064222Y035418D02*
X067982D01*
X068048Y035577D02*
X068448Y035177D01*
X064423Y035577D02*
X068048D01*
X067866Y035259D02*
X068130Y034995D01*
X067800Y035100D02*
X067950Y034950D01*
X058950Y035100D02*
X067800D01*
X064566Y027528D02*
X064575Y027537D01*
X064215Y027528D02*
X064566D01*
X060950Y037411D02*
Y037588D01*
X060700Y037161D02*
X060950Y037411D01*
X063450Y036550D02*
X064423Y035577D01*
X062900Y036740D02*
Y037185D01*
Y036740D02*
X064222Y035418D01*
X055200Y037161D02*
Y037338D01*
X058000Y036546D02*
X059287Y035259D01*
X057400Y036650D02*
X058950Y035100D01*
X057400Y036650D02*
Y037185D01*
X065550Y029850D02*
Y029950D01*
X064241Y031259D02*
X065550Y029950D01*
X065150Y029300D02*
Y030000D01*
X064789Y025960D02*
X064878Y025871D01*
X064789Y025960D02*
Y026094D01*
X064630Y025870D02*
X064800Y025700D01*
X064630Y025870D02*
Y026028D01*
X064800Y025700D02*
X065024D01*
X064565Y026318D02*
X064789Y026094D01*
X064537Y026121D02*
X064630Y026028D01*
X065150Y029300D02*
X065350Y029100D01*
X063050Y031150D02*
X063159Y031259D01*
X064224Y028576D02*
X065100D01*
X064628Y025050D02*
X065500D01*
X063922Y025756D02*
X064628Y025050D01*
X065500Y025000D02*
Y025050D01*
X065100Y025624D02*
X065188Y025712D01*
X064186Y027302D02*
X064867D01*
X064941Y027376D01*
X064186Y026318D02*
X064565D01*
X064186Y026121D02*
X064537D01*
X064667Y027537D02*
X064839Y027709D01*
X064601Y027696D02*
X064930Y028024D01*
X064575Y027537D02*
X064667D01*
X064186Y027499D02*
X064215Y027528D01*
X065024Y025700D02*
X065100Y025624D01*
X063806Y025756D02*
X063922D01*
X063804Y025757D02*
X063806Y025756D01*
X063211Y025757D02*
X063804D01*
X058300Y029862D02*
Y030608D01*
X058049Y030859D02*
X058300Y030608D01*
X057541Y030859D02*
X058049D01*
X055255Y033145D02*
X057541Y030859D01*
X054700Y033145D02*
X055255D01*
X057933Y029495D02*
X058300Y029862D01*
X063211Y025343D02*
Y025757D01*
X063182Y025314D02*
X063211Y025343D01*
X064186Y027696D02*
X064601D01*
X058637Y023394D02*
X059394D01*
X058571Y023553D02*
X059253D01*
X059053Y023712D02*
X059441Y024100D01*
X058505Y023712D02*
X059053D01*
X058484Y023691D02*
X058505Y023712D01*
X056709Y023691D02*
X058484D01*
X058412Y023394D02*
X058571Y023553D01*
X058243Y023000D02*
X058637Y023394D01*
X056247Y023229D02*
X056709Y023691D01*
X058800Y024300D02*
X059200D01*
X059186Y024314D02*
X059200Y024300D01*
X059186Y024314D02*
Y026323D01*
X059300Y026437D01*
Y026600D01*
X058700Y025826D02*
X058817Y025708D01*
Y025583D02*
Y025708D01*
X058700Y025826D02*
Y026000D01*
X057300Y028300D02*
Y028900D01*
X057749Y027051D02*
Y028511D01*
X057300Y028900D02*
X057400Y029000D01*
X057749Y027051D02*
X058000Y026800D01*
X058100Y027700D02*
X058300Y027900D01*
Y028405D01*
X059441Y024100D02*
Y026291D01*
X059600Y023900D02*
Y026225D01*
X059800Y023800D02*
Y026200D01*
X060000Y023757D02*
Y026122D01*
X060197Y021203D02*
Y026094D01*
X060356Y023444D02*
Y026028D01*
X058000Y026657D02*
Y026800D01*
X059253Y023553D02*
X059600Y023900D01*
X059394Y023394D02*
X059800Y023800D01*
X059400Y027200D02*
X059463D01*
X059655Y027893D02*
X060800D01*
X058963Y027200D02*
X059655Y027893D01*
X059463Y027200D02*
X059772Y027509D01*
X060771D01*
X059900Y027200D02*
X060002Y027302D01*
X058191Y026209D02*
X058400Y026000D01*
X057552Y026209D02*
X058191D01*
X057543Y026200D02*
X057552Y026209D01*
X057834Y025850D02*
Y025866D01*
X057800Y025900D02*
X058200Y025500D01*
X057543Y026200D02*
X058000Y026657D01*
X057043Y025700D02*
X057543Y026200D01*
X058400Y026000D02*
X058700D01*
X058200Y024000D02*
Y025500D01*
X058691Y026109D02*
X058700Y026100D01*
X060800Y024715D02*
Y024800D01*
X061891Y029609D02*
X062009Y029491D01*
Y028708D02*
Y029491D01*
X062001Y028700D02*
X062009Y028708D01*
X061885Y030000D02*
X062217Y029668D01*
X061700Y029300D02*
X061808D01*
X061804Y029296D02*
X061808Y029300D01*
X062198Y028700D02*
X062217Y028719D01*
X061804Y028700D02*
Y029296D01*
X059100Y028050D02*
Y028250D01*
X058494Y027445D02*
X059100Y028050D01*
X056600Y027700D02*
X057043Y027257D01*
Y025700D02*
Y027257D01*
X056165Y029854D02*
X056180D01*
X056215Y029889D01*
X055641Y029495D02*
X056651D01*
X055600Y029454D02*
X055641Y029495D01*
X056100Y030400D02*
X057100D01*
X057749Y029495D02*
X057933D01*
X057298Y029102D02*
X057400Y029000D01*
X057200Y029200D02*
X057298Y029102D01*
X057400Y029000D02*
X057495Y028905D01*
X057749D01*
X057298Y029102D02*
X057749D01*
X056651Y028905D02*
X056905D01*
X057200Y029200D01*
Y028876D02*
Y029200D01*
X056835Y028511D02*
X057200Y028876D01*
X056651Y028511D02*
X056835D01*
X056467Y028708D02*
X056651D01*
X056365Y028605D02*
X056467Y028708D01*
X057997D02*
X058300Y028405D01*
X057749Y028708D02*
X057997D01*
X056365Y028417D02*
Y028605D01*
X056215Y029889D02*
X056651D01*
X054957Y025700D02*
Y026257D01*
X055700Y027000D01*
X055600Y029454D02*
Y029900D01*
X056100Y030400D01*
X053800Y029600D02*
X053946Y029454D01*
X055600D01*
X052541Y021760D02*
Y023631D01*
X052700Y021825D02*
Y023000D01*
X053200Y023500D01*
X052541Y023631D02*
X053200Y024290D01*
X055612Y020588D02*
Y020600D01*
Y020588D02*
X056406Y019794D01*
X055000Y021200D02*
X056500D01*
X054800Y021000D02*
X055000Y021200D01*
X057300Y017500D02*
Y019800D01*
X056900Y020430D02*
Y020600D01*
X056859Y021333D02*
X059051Y019141D01*
X056859Y021333D02*
Y021349D01*
X056649Y021559D02*
X056859Y021349D01*
X056633Y021559D02*
X056649D01*
X056247Y021945D02*
X056633Y021559D01*
X062400Y016600D02*
X062800Y017000D01*
X058400Y016600D02*
X062400D01*
X058394Y016606D02*
X058400Y016600D01*
X056637Y016606D02*
X058394D01*
X056406Y016837D02*
X056637Y016606D01*
X056406Y016837D02*
Y019794D01*
X058900Y027200D02*
X058963D01*
X064200Y018700D02*
X064900D01*
X064100D02*
X064200D01*
X053200Y022713D02*
X053624Y022289D01*
X054406Y019837D02*
X054637Y019606D01*
X055294D01*
X055400Y019500D01*
X059200Y021200D02*
X059800Y021800D01*
Y023000D01*
X054637Y020606D02*
X054894D01*
X056000Y019500D01*
X058276Y022459D02*
Y022476D01*
X058800Y023000D01*
X057700Y022100D02*
X058900D01*
X056800Y023000D02*
X057700Y022100D01*
X058900D02*
X059406Y022606D01*
Y023163D01*
X057800Y017000D02*
Y019808D01*
X056800Y017000D02*
X057300Y017500D01*
X060002Y027302D02*
X060800D01*
X065800Y017000D02*
Y017800D01*
X064900Y018700D02*
X065800Y017800D01*
X060600Y022200D02*
X064100Y018700D01*
X059443Y019800D02*
X059500D01*
X061159Y019141D02*
X061200Y019100D01*
X059051Y019141D02*
X061159D01*
X061800Y017000D02*
Y019600D01*
X060197Y021203D02*
X061800Y019600D01*
X061000Y024515D02*
X061750D01*
X061607Y024658D02*
Y025314D01*
Y024658D02*
X061750Y024515D01*
X060356Y023444D02*
X060800Y023000D01*
X056247Y021945D02*
Y023229D01*
X056637Y023394D02*
X058412D01*
X056406Y022837D02*
X059443Y019800D01*
X056406Y022837D02*
Y023163D01*
X056637Y023394D01*
X062788Y024803D02*
Y025314D01*
X062500Y024515D02*
X062788Y024803D01*
X062198Y024817D02*
X062500Y024515D01*
X062198Y024817D02*
Y025314D01*
X061800Y025310D02*
X061804Y025314D01*
X061800Y024800D02*
Y025310D01*
X061750Y024750D02*
X061800Y024800D01*
X061750Y024515D02*
Y024750D01*
X060800Y024715D02*
X061000Y024515D01*
X063300D02*
X064100D01*
X062500D02*
X063300D01*
X061750D02*
X062500D01*
X059406Y023163D02*
X060000Y023757D01*
X057800Y023000D02*
X058243D01*
X065800D02*
X066776Y023976D01*
X066800Y023000D02*
X067624Y023824D01*
D27*
X064550Y029050D02*
Y030200D01*
X064222Y030528D02*
X064550Y030200D01*
X062850Y030528D02*
X064222D01*
X067200Y037161D02*
X067754Y037715D01*
X067900D01*
X060200Y033145D02*
X062817Y030528D01*
X056854Y037815D02*
X057400D01*
X056200Y037161D02*
X056854Y037815D01*
X065450Y031895D02*
X066200Y032645D01*
X065450Y031895D02*
X065600Y031745D01*
X065700Y033145D02*
X066200Y032645D01*
X061700Y037161D02*
X062354Y037815D01*
X062900D01*
D28*
X054397Y037150D02*
D03*
X065397D02*
D03*
D29*
X053200Y025080D02*
D03*
Y024290D02*
D03*
Y023500D02*
D03*
Y022713D02*
D03*
Y021925D02*
D03*
X067200Y025525D02*
D03*
Y029462D02*
D03*
Y028675D02*
D03*
Y027887D02*
D03*
Y027097D02*
D03*
Y026307D02*
D03*
Y024738D02*
D03*
D30*
X067800Y023000D02*
D03*
X066800D02*
D03*
X065800D02*
D03*
X064800D02*
D03*
X063800D02*
D03*
X062800D02*
D03*
X061800D02*
D03*
X060800D02*
D03*
X059800D02*
D03*
X058800D02*
D03*
X057800D02*
D03*
X056800D02*
D03*
X055800D02*
D03*
X054800D02*
D03*
Y022000D02*
D03*
Y021000D02*
D03*
Y020000D02*
D03*
Y019000D02*
D03*
Y018000D02*
D03*
Y017000D02*
D03*
X055800D02*
D03*
X056800D02*
D03*
X057800D02*
D03*
X058800D02*
D03*
X059800D02*
D03*
X060800D02*
D03*
X061800D02*
D03*
X062800D02*
D03*
X063800D02*
D03*
X064800D02*
D03*
X065800D02*
D03*
X066800D02*
D03*
X067800D02*
D03*
X066800Y018000D02*
D03*
X064800D02*
D03*
X063800D02*
D03*
X062800D02*
D03*
D31*
X052800Y015000D02*
D03*
X067600D02*
D03*
D32*
X052350Y024200D02*
D03*
X064550Y029050D02*
D03*
X066850Y021150D02*
D03*
X055000Y023900D02*
D03*
X052400Y021150D02*
D03*
X055950Y018400D02*
D03*
X065450Y024270D02*
D03*
X061356Y029923D02*
D03*
X055550Y028450D02*
D03*
X068100D02*
D03*
X057650Y038800D02*
D03*
X062450Y039900D02*
D03*
X061719Y039900D02*
D03*
X058050D02*
D03*
X052450Y038850D02*
D03*
X053300Y039500D02*
D03*
X052400Y038250D02*
D03*
X054000Y025200D02*
D03*
X055400Y017600D02*
D03*
X058900Y037500D02*
D03*
X059600D02*
D03*
X060300D02*
D03*
X061000D02*
D03*
X063850Y029700D02*
D03*
X065300Y022400D02*
D03*
X063100Y021200D02*
D03*
X058000Y026800D02*
D03*
X058800Y024300D02*
D03*
X060100Y028600D02*
D03*
Y030000D02*
D03*
Y029300D02*
D03*
X056165Y029854D02*
D03*
X057100Y030400D02*
D03*
X055700Y027000D02*
D03*
X057900Y030500D02*
D03*
X055612Y020600D02*
D03*
X057300Y019800D02*
D03*
X056900Y020600D02*
D03*
X056500Y021200D02*
D03*
X064200Y018700D02*
D03*
X055400Y019500D02*
D03*
X059200Y021200D02*
D03*
X056000Y019500D02*
D03*
X058276Y022459D02*
D03*
X060600Y022200D02*
D03*
X059500Y019800D02*
D03*
X061200Y019100D02*
D03*
X053100Y029600D02*
D03*
X053800D02*
D03*
Y029000D02*
D03*
X053100D02*
D03*
Y028400D02*
D03*
X053800D02*
D03*
X054000Y039500D02*
D03*
X054700D02*
D03*
X055400D02*
D03*
X066500D02*
D03*
X065800D02*
D03*
X065100D02*
D03*
X064400D02*
D03*
X055400Y037500D02*
D03*
X054700D02*
D03*
X054000D02*
D03*
X053300D02*
D03*
X066500D02*
D03*
X065800D02*
D03*
X065100D02*
D03*
X064400D02*
D03*
D33*
X063700Y030950D02*
D03*
X065700Y027750D02*
D03*
X062300Y030500D02*
D03*
X066450Y026100D02*
D03*
X053200Y020850D02*
D03*
X053691Y020200D02*
D03*
X059300Y026600D02*
D03*
X065628Y026422D02*
D03*
X051900Y016350D02*
D03*
X054250Y016561D02*
D03*
X052050Y039800D02*
D03*
X052529Y039371D02*
D03*
X065550Y029850D02*
D03*
X065350Y029100D02*
D03*
X063050Y031150D02*
D03*
X065500Y025050D02*
D03*
X057700Y031200D02*
D03*
X058817Y025583D02*
D03*
X057300Y028300D02*
D03*
X058100Y027700D02*
D03*
X057300D02*
D03*
X059400Y027200D02*
D03*
X059900D02*
D03*
X057834Y025850D02*
D03*
X058200Y024000D02*
D03*
X060800Y024800D02*
D03*
X061700Y029300D02*
D03*
X058494Y027445D02*
D03*
X056600Y027700D02*
D03*
X058900Y027200D02*
D03*
X053691Y019100D02*
D03*
Y018000D02*
D03*
Y016900D02*
D03*
D34*
X061673Y027827D02*
D03*
X061909D02*
D03*
X062146D02*
D03*
X062382D02*
D03*
X062618D02*
D03*
X062854D02*
D03*
X063091D02*
D03*
X063327D02*
D03*
Y027591D02*
D03*
X063091D02*
D03*
X062854D02*
D03*
X062618D02*
D03*
X062382D02*
D03*
X062146D02*
D03*
X061909D02*
D03*
X061673D02*
D03*
X063327Y027354D02*
D03*
X063091D02*
D03*
X062854D02*
D03*
X062618D02*
D03*
X062382D02*
D03*
X062146D02*
D03*
X061909D02*
D03*
X061673D02*
D03*
X063327Y027118D02*
D03*
X063091D02*
D03*
X062854D02*
D03*
X062618D02*
D03*
X062382D02*
D03*
X062146D02*
D03*
X061909D02*
D03*
X061673D02*
D03*
X063327Y026882D02*
D03*
X063091D02*
D03*
X062854D02*
D03*
X062618D02*
D03*
X062382D02*
D03*
X062146D02*
D03*
X061909D02*
D03*
X061673D02*
D03*
X063327Y026646D02*
D03*
X063091D02*
D03*
X062854D02*
D03*
X062618D02*
D03*
X062382D02*
D03*
X062146D02*
D03*
X061909D02*
D03*
X061673D02*
D03*
X063327Y026409D02*
D03*
X063091D02*
D03*
X062854D02*
D03*
X062618D02*
D03*
X062382D02*
D03*
X062146D02*
D03*
X061909D02*
D03*
X061673D02*
D03*
X063327Y026173D02*
D03*
X063091D02*
D03*
X062854D02*
D03*
X062618D02*
D03*
X062382D02*
D03*
X062146D02*
D03*
X061909D02*
D03*
X061673D02*
D03*
M02*
