G04 Layer_Color=128*
%FSAX24Y24*%
%MOIN*%
G70*
G01*
G75*
%ADD10R,0.0177X0.0217*%
%ADD19R,0.0205X0.0205*%
%ADD21R,0.0413X0.1634*%
%ADD22R,0.4173X0.3465*%
%ADD25R,0.0532X0.0748*%
%ADD32R,0.0205X0.0205*%
%ADD46R,0.0610X0.0236*%
%ADD47R,0.0906X0.0906*%
%ADD48R,0.0327X0.0248*%
%ADD49R,0.0354X0.0394*%
%ADD50R,0.2906X0.0961*%
%ADD51R,0.0512X0.0925*%
%ADD52R,0.1063X0.0394*%
%ADD53R,0.1063X0.1299*%
%ADD54R,0.0470X0.0220*%
%ADD55O,0.0098X0.0610*%
%ADD56O,0.0610X0.0098*%
%ADD57R,0.0217X0.0256*%
%ADD58O,0.0177X0.0630*%
D10*
X066977Y023500D02*
D03*
X066623D02*
D03*
X066977Y022800D02*
D03*
X066623D02*
D03*
X063877Y021900D02*
D03*
X063523D02*
D03*
X056723Y022800D02*
D03*
X057077D02*
D03*
X057077Y023200D02*
D03*
X056723D02*
D03*
X063477Y030000D02*
D03*
X063123D02*
D03*
D19*
X057157Y032200D02*
D03*
X056843D02*
D03*
X064157Y030000D02*
D03*
X063843D02*
D03*
X062757D02*
D03*
X062443D02*
D03*
X062457Y028000D02*
D03*
X062143D02*
D03*
X057857Y024200D02*
D03*
X057543D02*
D03*
X057857Y024600D02*
D03*
X057543D02*
D03*
X068157Y032200D02*
D03*
X067843D02*
D03*
X062657D02*
D03*
X062343D02*
D03*
D21*
X064200Y034739D02*
D03*
X064700D02*
D03*
X065200D02*
D03*
X066200D02*
D03*
X066700D02*
D03*
X067200D02*
D03*
X061700D02*
D03*
X061200D02*
D03*
X060700D02*
D03*
X059700D02*
D03*
X059200D02*
D03*
X058700D02*
D03*
X053200D02*
D03*
X053700D02*
D03*
X054200D02*
D03*
X055200D02*
D03*
X055700D02*
D03*
X056200D02*
D03*
D22*
X065700Y038755D02*
D03*
X060200D02*
D03*
X054700D02*
D03*
D25*
X067930Y029700D02*
D03*
X066670D02*
D03*
D32*
X058200Y022557D02*
D03*
Y022243D02*
D03*
X061600Y026857D02*
D03*
Y026543D02*
D03*
X061200Y029857D02*
D03*
Y029543D02*
D03*
X060800Y029857D02*
D03*
Y029543D02*
D03*
X056000Y028957D02*
D03*
Y028643D02*
D03*
X056600Y029515D02*
D03*
Y029200D02*
D03*
X068200Y036657D02*
D03*
Y036343D02*
D03*
X062700Y036657D02*
D03*
Y036343D02*
D03*
X057200Y036657D02*
D03*
Y036343D02*
D03*
D46*
X060863Y023150D02*
D03*
Y022650D02*
D03*
Y022150D02*
D03*
Y021650D02*
D03*
X058737Y023150D02*
D03*
Y022650D02*
D03*
Y022150D02*
D03*
Y021650D02*
D03*
D47*
X067886Y026200D02*
D03*
X066114D02*
D03*
D48*
X068600Y037639D02*
D03*
Y036761D02*
D03*
X063100Y037639D02*
D03*
Y036761D02*
D03*
X057600Y037639D02*
D03*
Y036761D02*
D03*
D49*
X068515Y035200D02*
D03*
X067885D02*
D03*
X063015D02*
D03*
X062385D02*
D03*
X057515D02*
D03*
X056885D02*
D03*
D50*
X065400Y031424D02*
D03*
Y033376D02*
D03*
X059900Y031424D02*
D03*
Y033376D02*
D03*
X054400Y031424D02*
D03*
Y033376D02*
D03*
D51*
X063496Y029100D02*
D03*
X062296D02*
D03*
D52*
X064761Y027806D02*
D03*
Y026900D02*
D03*
Y025994D02*
D03*
D53*
X062439Y026900D02*
D03*
D54*
X067995Y028750D02*
D03*
Y028250D02*
D03*
Y027750D02*
D03*
Y027250D02*
D03*
X066005Y028750D02*
D03*
Y028250D02*
D03*
Y027750D02*
D03*
Y027250D02*
D03*
D55*
X060276Y029575D02*
D03*
X060080D02*
D03*
X059883D02*
D03*
X059686D02*
D03*
X059489D02*
D03*
X059292D02*
D03*
X059095D02*
D03*
X058898D02*
D03*
X058702D02*
D03*
X058505D02*
D03*
X058308D02*
D03*
X058111D02*
D03*
X057914D02*
D03*
X057717D02*
D03*
X057520D02*
D03*
X057324D02*
D03*
Y025225D02*
D03*
X057520D02*
D03*
X057717D02*
D03*
X057914D02*
D03*
X058111D02*
D03*
X058308D02*
D03*
X058505D02*
D03*
X058702D02*
D03*
X058898D02*
D03*
X059095D02*
D03*
X059292D02*
D03*
X059489D02*
D03*
X059686D02*
D03*
X059883D02*
D03*
X060080D02*
D03*
X060276D02*
D03*
D56*
X056625Y028876D02*
D03*
Y028680D02*
D03*
Y028483D02*
D03*
Y028286D02*
D03*
Y028089D02*
D03*
Y027892D02*
D03*
Y027695D02*
D03*
Y027498D02*
D03*
Y027302D02*
D03*
Y027105D02*
D03*
Y026908D02*
D03*
Y026711D02*
D03*
Y026514D02*
D03*
Y026317D02*
D03*
Y026120D02*
D03*
Y025924D02*
D03*
X060975D02*
D03*
Y026120D02*
D03*
Y026317D02*
D03*
Y026514D02*
D03*
Y026711D02*
D03*
Y026908D02*
D03*
Y027105D02*
D03*
Y027302D02*
D03*
Y027498D02*
D03*
Y027695D02*
D03*
Y027892D02*
D03*
Y028089D02*
D03*
Y028286D02*
D03*
Y028483D02*
D03*
Y028680D02*
D03*
Y028876D02*
D03*
D57*
X053903Y023800D02*
D03*
X054297D02*
D03*
X053903Y024200D02*
D03*
X054297D02*
D03*
D58*
X067916Y034546D02*
D03*
X068172D02*
D03*
X068428D02*
D03*
X068684D02*
D03*
X067916Y032854D02*
D03*
X068172D02*
D03*
X068428D02*
D03*
X068684D02*
D03*
X062416Y034546D02*
D03*
X062672D02*
D03*
X062928D02*
D03*
X063184D02*
D03*
X062416Y032854D02*
D03*
X062672D02*
D03*
X062928D02*
D03*
X063184D02*
D03*
X056916Y034546D02*
D03*
X057172D02*
D03*
X057428D02*
D03*
X057684D02*
D03*
X056916Y032854D02*
D03*
X057172D02*
D03*
X057428D02*
D03*
X057684D02*
D03*
M02*
