M48
;Layer_Color=9474304
;FILE_FORMAT=2:4
INCH
;TYPE=PLATED
T1F00S00C0.0079
T2F00S00C0.0180
T3F00S00C0.0240
T4F00S00C0.0280
T5F00S00C0.0315
T6F00S00C0.1575
%
T01
X066203Y030403
X066597
Y030797
X066203
T02
X053800Y023800
X052400Y025300
Y025700
Y026100
X055700Y027900
X056000Y028200
X057000Y029900
X058700Y028500
X059100
X059400Y028800
X060400
X060100Y028400
X060400Y027900
X058900Y027300
X058500Y026400
X058100
X057600Y026600
X057200
X058600Y024700
X058900Y023200
X059100Y021700
X061700Y022900
X059900Y025800
X056325Y023137
X052300Y035100
X052182Y035700
X052000Y036300
T03
X063481Y029821
X064400Y030000
X066400Y031100
X067400Y027700
X062300Y030000
X059900Y027200
X059300Y026200
X057400Y026100
X055900Y025600
X058000Y024200
X060700Y025200
X057900Y036200
X057500Y035900
X057400Y037200
X057600Y038700
X063100
X062900Y037200
X063400Y036200
X068900
X068400Y037200
X068600Y038700
X068200Y034100
X068100Y031800
T04
X065500Y023100
X064761Y025994
X063600Y027800
X064500Y029400
X065400Y029500
X067000
Y028200
Y027200
X068000Y028300
Y029000
Y031100
X068600Y024000
X061700Y028000
X061300Y030800
X057300
X054300Y027400
Y026800
X056700Y024900
X052200Y023800
X054300Y021200
X054100Y037400
X054800
X055500
Y038100
Y038800
X054800
X054100
X053400
Y038100
Y037400
X054100Y038100
X054800
X052200
X058900
Y038800
X059600
X060300
X061000
Y038100
X060300
X059600
Y037400
X058900
X060300
X061000
X058700Y035909
X057400Y040200
X062900
X064400Y038800
X065100
X065800
X066500
Y038100
X065800
X065100
X064400
Y037400
X065100
X065800
X066500
X068500Y035800
X068400Y039700
X064200Y035991
X062976Y035800
T05
X062694Y021900
X064606
X065394
X065456Y024000
X064668
X063881
X063099
X067700Y024384
Y023594
Y022806
Y022019
X061906Y021900
X061519Y024000
X060732
X059944
X062309
T06
X068000Y020300
X052900
M30
