G04 Layer_Physical_Order=1*
G04 Layer_Color=255*
%FSAX24Y24*%
%MOIN*%
G70*
G01*
G75*
%ADD10R,0.0177X0.0217*%
%ADD11R,0.1280X0.1230*%
%ADD12R,0.0560X0.0480*%
%ADD13R,0.0354X0.0276*%
%ADD14R,0.1063X0.0453*%
%ADD15R,0.0750X0.0750*%
%ADD16R,0.0710X0.0750*%
%ADD17R,0.0140X0.0560*%
%ADD18R,0.0283X0.0283*%
%ADD19R,0.0205X0.0205*%
%ADD20R,0.0394X0.0354*%
%ADD21R,0.0413X0.1634*%
%ADD22R,0.4173X0.3465*%
%ADD23R,0.0650X0.0400*%
%ADD24R,0.0354X0.0394*%
%ADD25R,0.0532X0.0748*%
%ADD26R,0.0256X0.0217*%
%ADD27R,0.0550X0.0630*%
%ADD28R,0.0532X0.2087*%
%ADD29O,0.0610X0.0177*%
%ADD30R,0.0681X0.0728*%
%ADD31R,0.0217X0.0177*%
%ADD32R,0.0205X0.0205*%
%ADD33O,0.0177X0.0512*%
%ADD34R,0.0740X0.0661*%
%ADD35R,0.0276X0.0354*%
%ADD36C,0.0100*%
%ADD37C,0.0600*%
%ADD38C,0.0200*%
%ADD39C,0.0400*%
%ADD40C,0.0630*%
%ADD41C,0.1575*%
%ADD42C,0.0500*%
%ADD43C,0.0400*%
%ADD44C,0.0300*%
%ADD45C,0.0157*%
G36*
X068106Y035739D02*
X068112Y035696D01*
X068152Y035599D01*
X068216Y035516D01*
X068398Y035334D01*
Y034383D01*
X068353Y034361D01*
X068351Y034362D01*
X068300Y034383D01*
Y034100D01*
Y033817D01*
X068351Y033838D01*
X068353Y033839D01*
X068398Y033817D01*
Y032113D01*
X068300D01*
Y031876D01*
X068100D01*
Y032113D01*
X067923D01*
X067900Y032154D01*
X067900Y033916D01*
X067950Y033933D01*
X067986Y033886D01*
X068049Y033838D01*
X068100Y033817D01*
Y034100D01*
Y034383D01*
X068049Y034362D01*
X067986Y034314D01*
X067950Y034267D01*
X067900Y034284D01*
Y034600D01*
X067893Y034638D01*
X067885Y034650D01*
Y034976D01*
X067345D01*
X067326Y035022D01*
X068059Y035755D01*
X068106Y035739D01*
D02*
G37*
G36*
X069189Y039654D02*
Y036396D01*
X069139Y036379D01*
X069113Y036413D01*
X069050Y036461D01*
X068978Y036491D01*
X068975Y036491D01*
Y036541D01*
X068960Y036614D01*
X068919Y036675D01*
X068857Y036717D01*
X068844Y036719D01*
X068849Y036769D01*
X068870D01*
Y037100D01*
X068400D01*
X067930D01*
Y036769D01*
X067951D01*
X067956Y036719D01*
X067943Y036717D01*
X067881Y036675D01*
X067840Y036614D01*
X067825Y036541D01*
Y036397D01*
X066780Y035351D01*
X062331D01*
X062312Y035398D01*
X062594Y035680D01*
X062653Y035668D01*
X062671Y035624D01*
X062727Y035552D01*
X062800Y035496D01*
X062885Y035461D01*
X062931Y035454D01*
X062942Y035450D01*
X063019Y035440D01*
X063590D01*
X063668Y035450D01*
X063741Y035480D01*
X063803Y035528D01*
X063965Y035690D01*
X064020D01*
X064024Y035687D01*
X064109Y035651D01*
X064200Y035640D01*
X064291Y035651D01*
X064376Y035687D01*
X064448Y035742D01*
X064504Y035815D01*
X064539Y035900D01*
X064551Y035991D01*
X064539Y036082D01*
X064511Y036150D01*
X064537Y036200D01*
X066900D01*
X066938Y036207D01*
X066971Y036229D01*
X066982Y036245D01*
X067505D01*
Y038076D01*
X067541Y038109D01*
X067595D01*
Y038549D01*
X067788D01*
Y038424D01*
X067865D01*
Y038304D01*
X067840Y038267D01*
X067825Y038194D01*
Y037859D01*
X067840Y037786D01*
X067881Y037725D01*
X067943Y037683D01*
X067956Y037681D01*
X067951Y037631D01*
X067930D01*
Y037300D01*
X068400D01*
X068870D01*
Y037631D01*
X068849D01*
X068844Y037681D01*
X068857Y037683D01*
X068919Y037725D01*
X068960Y037786D01*
X068975Y037859D01*
Y038194D01*
X068960Y038267D01*
X068919Y038329D01*
X068857Y038370D01*
X068820Y038378D01*
X068812Y038424D01*
X068812Y038424D01*
Y038486D01*
X068813Y038487D01*
X068861Y038549D01*
X068891Y038622D01*
X068901Y038700D01*
X068891Y038778D01*
X068861Y038851D01*
X068813Y038913D01*
X068812Y038914D01*
Y038976D01*
X068714D01*
X068678Y038991D01*
X068600Y039001D01*
X068522Y038991D01*
X068486Y038976D01*
X068423D01*
Y039028D01*
X068423Y039028D01*
X068412Y039086D01*
X068379Y039135D01*
X068379Y039135D01*
X068207Y039307D01*
X068158Y039340D01*
X068100Y039351D01*
X068100Y039351D01*
X067485D01*
X067485Y039351D01*
X067427Y039340D01*
X067378Y039307D01*
X067378Y039307D01*
X067362Y039291D01*
X067050D01*
X067000Y039339D01*
X067000Y040100D01*
X067000Y040129D01*
X066999Y040134D01*
X067000Y040139D01*
X066991Y040227D01*
X066988Y040237D01*
X066987Y040247D01*
X066953Y040360D01*
X066948Y040369D01*
X066946Y040378D01*
X066890Y040482D01*
X066884Y040490D01*
X066879Y040499D01*
X066804Y040590D01*
X066796Y040596D01*
X066790Y040604D01*
X066699Y040679D01*
X066690Y040684D01*
X066682Y040690D01*
X066578Y040746D01*
X066569Y040748D01*
X066560Y040753D01*
X066447Y040787D01*
X066437Y040788D01*
X066427Y040791D01*
X066339Y040800D01*
X066334Y040799D01*
X066329Y040800D01*
X066300Y040800D01*
X064500Y040800D01*
X064471Y040800D01*
X064466Y040799D01*
X064461Y040800D01*
X064373Y040791D01*
X064363Y040788D01*
X064353Y040787D01*
X064240Y040753D01*
X064231Y040748D01*
X064222Y040746D01*
X064118Y040690D01*
X064110Y040684D01*
X064101Y040679D01*
X064010Y040604D01*
X064004Y040596D01*
X063996Y040590D01*
X063921Y040499D01*
X063916Y040490D01*
X063910Y040482D01*
X063854Y040378D01*
X063852Y040369D01*
X063847Y040360D01*
X063813Y040247D01*
X063812Y040237D01*
X063809Y040227D01*
X063800Y040139D01*
X063801Y040134D01*
X063800Y040129D01*
X063800Y040100D01*
Y036300D01*
X063789Y036285D01*
X063762Y036282D01*
X063737Y036271D01*
X063684Y036295D01*
X063661Y036351D01*
X063613Y036413D01*
X063551Y036461D01*
X063478Y036491D01*
X063475Y036491D01*
Y036541D01*
X063460Y036614D01*
X063419Y036675D01*
X063357Y036717D01*
X063344Y036719D01*
X063349Y036769D01*
X063370D01*
Y037100D01*
X062900D01*
X062430D01*
Y036769D01*
X062451D01*
X062456Y036719D01*
X062443Y036717D01*
X062381Y036675D01*
X062340Y036614D01*
X062325Y036541D01*
Y036397D01*
X061630Y035701D01*
X059038D01*
X059012Y035751D01*
X059039Y035818D01*
X059051Y035909D01*
X059039Y036000D01*
X059004Y036085D01*
X058955Y036150D01*
X058968Y036200D01*
X061400D01*
X061438Y036207D01*
X061471Y036229D01*
X061482Y036245D01*
X062005D01*
Y038076D01*
X062041Y038109D01*
X062095D01*
Y038549D01*
X062288D01*
Y038424D01*
X062373D01*
Y038317D01*
X062340Y038267D01*
X062325Y038194D01*
Y037859D01*
X062340Y037786D01*
X062381Y037725D01*
X062443Y037683D01*
X062456Y037681D01*
X062451Y037631D01*
X062430D01*
Y037300D01*
X062900D01*
X063370D01*
Y037631D01*
X063349D01*
X063344Y037681D01*
X063357Y037683D01*
X063419Y037725D01*
X063460Y037786D01*
X063475Y037859D01*
Y038194D01*
X063460Y038267D01*
X063419Y038329D01*
X063357Y038370D01*
X063320Y038378D01*
X063312Y038424D01*
X063312Y038424D01*
Y038486D01*
X063313Y038487D01*
X063361Y038549D01*
X063391Y038622D01*
X063401Y038700D01*
X063391Y038778D01*
X063361Y038851D01*
X063313Y038913D01*
X063312Y038914D01*
Y038976D01*
X063214D01*
X063178Y038991D01*
X063100Y039001D01*
X063022Y038991D01*
X062986Y038976D01*
X062923D01*
Y039028D01*
X062923Y039028D01*
X062912Y039086D01*
X062879Y039135D01*
X062879Y039135D01*
X062707Y039307D01*
X062658Y039340D01*
X062600Y039351D01*
X062600Y039351D01*
X061985D01*
X061985Y039351D01*
X061927Y039340D01*
X061878Y039307D01*
X061878Y039307D01*
X061862Y039291D01*
X061550D01*
X061500Y039339D01*
X061500Y040100D01*
X061500Y040129D01*
X061499Y040134D01*
X061500Y040139D01*
X061491Y040227D01*
X061488Y040237D01*
X061487Y040247D01*
X061453Y040360D01*
X061448Y040369D01*
X061446Y040378D01*
X061390Y040482D01*
X061384Y040490D01*
X061379Y040499D01*
X061304Y040590D01*
X061296Y040596D01*
X061290Y040604D01*
X061199Y040679D01*
X061190Y040684D01*
X061182Y040690D01*
X061078Y040746D01*
X061069Y040748D01*
X061060Y040753D01*
X060947Y040787D01*
X060937Y040788D01*
X060927Y040791D01*
X060839Y040800D01*
X060834Y040799D01*
X060829Y040800D01*
X060800Y040800D01*
X059000Y040800D01*
X058971Y040800D01*
X058966Y040799D01*
X058961Y040800D01*
X058873Y040791D01*
X058863Y040788D01*
X058853Y040787D01*
X058740Y040753D01*
X058731Y040748D01*
X058722Y040746D01*
X058618Y040690D01*
X058610Y040684D01*
X058601Y040679D01*
X058510Y040604D01*
X058504Y040596D01*
X058496Y040590D01*
X058421Y040499D01*
X058416Y040490D01*
X058410Y040482D01*
X058354Y040378D01*
X058352Y040369D01*
X058347Y040360D01*
X058313Y040247D01*
X058312Y040237D01*
X058309Y040227D01*
X058300Y040139D01*
X058301Y040134D01*
X058300Y040129D01*
X058300Y040100D01*
Y036300D01*
X058307Y036262D01*
X058329Y036229D01*
X058362Y036207D01*
X058400Y036200D01*
X058432D01*
X058445Y036150D01*
X058396Y036085D01*
X058378Y036043D01*
X058212D01*
X058179Y036093D01*
X058191Y036122D01*
X058201Y036200D01*
X058191Y036278D01*
X058161Y036351D01*
X058113Y036413D01*
X058050Y036461D01*
X057978Y036491D01*
X057975Y036491D01*
Y036541D01*
X057960Y036614D01*
X057919Y036675D01*
X057857Y036717D01*
X057844Y036719D01*
X057849Y036769D01*
X057870D01*
Y037100D01*
X057400D01*
X056930D01*
Y036769D01*
X056951D01*
X056956Y036719D01*
X056943Y036717D01*
X056881Y036675D01*
X056840Y036614D01*
X056825Y036541D01*
Y036397D01*
X056657Y036228D01*
X056548D01*
X056505Y036245D01*
Y038076D01*
X056541Y038109D01*
X056595D01*
Y038549D01*
X056788D01*
Y038424D01*
X056873D01*
Y038317D01*
X056840Y038267D01*
X056825Y038194D01*
Y037859D01*
X056840Y037786D01*
X056881Y037725D01*
X056943Y037683D01*
X056956Y037681D01*
X056951Y037631D01*
X056930D01*
Y037300D01*
X057400D01*
X057870D01*
Y037631D01*
X057849D01*
X057844Y037681D01*
X057857Y037683D01*
X057919Y037725D01*
X057960Y037786D01*
X057975Y037859D01*
Y038194D01*
X057960Y038267D01*
X057919Y038329D01*
X057857Y038370D01*
X057820Y038378D01*
X057812Y038424D01*
X057812Y038424D01*
Y038486D01*
X057813Y038487D01*
X057861Y038549D01*
X057891Y038622D01*
X057901Y038700D01*
X057891Y038778D01*
X057861Y038851D01*
X057813Y038913D01*
X057812Y038914D01*
Y038976D01*
X057714D01*
X057678Y038991D01*
X057600Y039001D01*
X057522Y038991D01*
X057486Y038976D01*
X057423D01*
Y039028D01*
X057423Y039028D01*
X057412Y039086D01*
X057379Y039135D01*
X057379Y039135D01*
X057207Y039307D01*
X057158Y039340D01*
X057100Y039351D01*
X057100Y039351D01*
X056485D01*
X056485Y039351D01*
X056427Y039340D01*
X056378Y039307D01*
X056378Y039307D01*
X056362Y039291D01*
X056050D01*
X056000Y039339D01*
X056000Y040100D01*
X056000Y040129D01*
X055999Y040134D01*
X056000Y040139D01*
X055991Y040227D01*
X055988Y040237D01*
X055987Y040247D01*
X055953Y040360D01*
X055948Y040369D01*
X055946Y040378D01*
X055890Y040482D01*
X055884Y040490D01*
X055879Y040499D01*
X055804Y040590D01*
X055796Y040596D01*
X055790Y040604D01*
X055699Y040679D01*
X055690Y040684D01*
X055682Y040690D01*
X055578Y040746D01*
X055569Y040748D01*
X055560Y040753D01*
X055447Y040787D01*
X055437Y040788D01*
X055427Y040791D01*
X055339Y040800D01*
X055334Y040799D01*
X055329Y040800D01*
X055300Y040800D01*
X053500Y040800D01*
X053471Y040800D01*
X053466Y040799D01*
X053461Y040800D01*
X053373Y040791D01*
X053363Y040788D01*
X053353Y040787D01*
X053240Y040753D01*
X053231Y040748D01*
X053222Y040746D01*
X053118Y040690D01*
X053110Y040684D01*
X053101Y040679D01*
X053010Y040604D01*
X053004Y040596D01*
X052996Y040590D01*
X052921Y040499D01*
X052916Y040490D01*
X052910Y040482D01*
X052854Y040378D01*
X052852Y040369D01*
X052847Y040360D01*
X052813Y040247D01*
X052812Y040237D01*
X052809Y040227D01*
X052800Y040139D01*
X052801Y040134D01*
X052800Y040129D01*
X052800Y040100D01*
Y036300D01*
X052804Y036279D01*
X052779Y036237D01*
X052769Y036228D01*
X052459D01*
X052280Y036407D01*
X052231Y036440D01*
X052201Y036446D01*
X052179Y036479D01*
X052097Y036534D01*
X052000Y036553D01*
X051903Y036534D01*
X051821Y036479D01*
X051766Y036397D01*
X051761Y036373D01*
X051711Y036378D01*
Y039400D01*
Y040054D01*
X052646Y040989D01*
X067854D01*
X069189Y039654D01*
D02*
G37*
G36*
X067800Y031700D02*
X057000Y031700D01*
X057000Y031700D01*
X056958Y031702D01*
X056835Y031687D01*
X056707Y031635D01*
X056598Y031547D01*
X056568Y031511D01*
X056568Y031511D01*
X056483Y031416D01*
X056248Y031113D01*
X056039Y030784D01*
X055858Y030438D01*
X055709Y030077D01*
X055592Y029705D01*
X055507Y029324D01*
X055448Y028816D01*
X055445Y028645D01*
X055445Y028645D01*
X055443Y028583D01*
X055398Y028406D01*
X055336Y028291D01*
X055254Y028191D01*
X055154Y028108D01*
X055039Y028047D01*
X054861Y028001D01*
X054800Y028000D01*
X053000Y028000D01*
Y028000D01*
X052928D01*
X052723Y028070D01*
X052608Y028158D01*
X052520Y028273D01*
X052450Y028478D01*
Y028550D01*
X052450Y033950D01*
Y034014D01*
X052497Y034200D01*
X052557Y034313D01*
X052638Y034412D01*
X052737Y034493D01*
X052850Y034553D01*
X053036Y034600D01*
X053100D01*
X067800Y034600D01*
X067800Y031700D01*
D02*
G37*
G36*
X062662Y030051D02*
Y028747D01*
X064138D01*
Y028998D01*
X064500D01*
X064604Y029012D01*
X064701Y029052D01*
X064784Y029116D01*
X064848Y029199D01*
X064888Y029296D01*
X064902Y029400D01*
X064888Y029504D01*
X064868Y029554D01*
X065048Y029734D01*
X065073Y029731D01*
X065095Y029678D01*
X065094Y029677D01*
X065063Y029600D01*
X065400D01*
Y029500D01*
X065500D01*
Y029163D01*
X065577Y029194D01*
X065595Y029209D01*
X065640Y029187D01*
Y028800D01*
X066006D01*
X066372D01*
Y029749D01*
X066693D01*
X066715Y029704D01*
X066694Y029677D01*
X066663Y029600D01*
X067000D01*
Y029500D01*
X067100D01*
Y029163D01*
X067177Y029194D01*
X067250Y029250D01*
X067299Y029314D01*
X067336Y029307D01*
X067349Y029301D01*
Y028399D01*
X067336Y028393D01*
X067299Y028386D01*
X067250Y028450D01*
X067177Y028506D01*
X067100Y028537D01*
Y028200D01*
Y027849D01*
X067126Y027819D01*
X067109Y027778D01*
X067099Y027700D01*
X067109Y027622D01*
X067126Y027581D01*
X067100Y027551D01*
Y027200D01*
Y026863D01*
X067104Y026864D01*
X067600D01*
Y027191D01*
X067800D01*
Y026864D01*
X068325D01*
X068356Y026824D01*
X067943Y026411D01*
X064138D01*
Y026653D01*
X063639D01*
X063600Y026659D01*
X063561Y026653D01*
X062961D01*
X062451Y027163D01*
Y029740D01*
X062513Y029787D01*
X062561Y029850D01*
X062591Y029922D01*
X062601Y030000D01*
X062593Y030058D01*
X062612Y030074D01*
X062662Y030051D01*
D02*
G37*
G36*
X056994Y031600D02*
X056997Y031600D01*
X057000Y031600D01*
X058015Y031600D01*
Y031314D01*
X062385D01*
Y031600D01*
X063515Y031600D01*
Y031314D01*
X063549D01*
X063552Y031266D01*
X063552D01*
Y031177D01*
X063761D01*
Y030977D01*
X063552D01*
Y030889D01*
X063554D01*
Y030691D01*
X063470Y030607D01*
X062936D01*
Y030551D01*
X062700D01*
X062642Y030540D01*
X062593Y030507D01*
X062593Y030507D01*
X062377Y030291D01*
X062300Y030301D01*
X062222Y030291D01*
X062150Y030261D01*
X062087Y030213D01*
X062039Y030150D01*
X062009Y030078D01*
X061999Y030000D01*
X062009Y029922D01*
X062039Y029850D01*
X062087Y029787D01*
X062149Y029740D01*
Y027100D01*
X062149Y027100D01*
X062160Y027042D01*
X062193Y026993D01*
X062662Y026524D01*
Y025227D01*
X064138D01*
Y025608D01*
X068109D01*
X068213Y025621D01*
X068310Y025661D01*
X068394Y025725D01*
X069084Y026416D01*
X069139Y026487D01*
X069189Y026473D01*
Y019746D01*
X068754Y019311D01*
X067246D01*
X066811Y019746D01*
Y020200D01*
X066803Y020243D01*
X066779Y020279D01*
X066479Y020579D01*
X066443Y020603D01*
X066400Y020611D01*
X066400Y020611D01*
X054500D01*
X054457Y020603D01*
X054421Y020579D01*
X054121Y020279D01*
X054097Y020243D01*
X054089Y020200D01*
X054089Y020200D01*
Y019746D01*
X053654Y019311D01*
X052146D01*
X051711Y019746D01*
Y025716D01*
X051761Y025732D01*
X051775Y025711D01*
X052153Y025333D01*
X052147Y025300D01*
X052166Y025203D01*
X052221Y025121D01*
X052303Y025066D01*
X052400Y025047D01*
X052497Y025066D01*
X052579Y025121D01*
X052618Y025179D01*
X052668Y025164D01*
Y024400D01*
Y023800D01*
Y023300D01*
Y022200D01*
X052682Y022096D01*
X052706Y022038D01*
Y021728D01*
X053434D01*
Y022038D01*
X053458Y022096D01*
X053472Y022200D01*
Y023300D01*
Y023649D01*
X053602D01*
X053621Y023621D01*
X053703Y023566D01*
X053800Y023547D01*
X053897Y023566D01*
X053920Y023581D01*
X053964Y023558D01*
Y023400D01*
X054230D01*
Y023774D01*
X054075D01*
X054053Y023800D01*
X054038Y023876D01*
X054070Y023926D01*
X054230D01*
Y024300D01*
X053964D01*
Y024042D01*
X053920Y024019D01*
X053897Y024034D01*
X053800Y024053D01*
X053703Y024034D01*
X053621Y023979D01*
X053602Y023951D01*
X053472D01*
Y024400D01*
Y025500D01*
Y027900D01*
X054800Y027900D01*
X054801Y027900D01*
X054802Y027900D01*
X054863Y027901D01*
X054875Y027903D01*
X054886Y027904D01*
X055064Y027950D01*
X055075Y027955D01*
X055086Y027959D01*
X055201Y028020D01*
X055209Y028026D01*
X055217Y028031D01*
X055318Y028113D01*
X055324Y028121D01*
X055332Y028127D01*
X055414Y028227D01*
X055419Y028236D01*
X055425Y028244D01*
X055486Y028358D01*
X055490Y028370D01*
X055495Y028381D01*
X055541Y028558D01*
X055541Y028570D01*
X055544Y028581D01*
X055545Y028643D01*
X055545Y028643D01*
X055549Y028809D01*
X055607Y029308D01*
X055689Y029679D01*
X055804Y030043D01*
X055949Y030395D01*
X056126Y030733D01*
X056330Y031055D01*
X056532Y031314D01*
X056885D01*
Y031592D01*
X056962Y031602D01*
X056994Y031600D01*
D02*
G37*
G36*
X055418Y040691D02*
X055531Y040657D01*
X055635Y040601D01*
X055726Y040526D01*
X055801Y040435D01*
X055857Y040331D01*
X055891Y040218D01*
X055900Y040129D01*
X055900Y040100D01*
X055900Y036300D01*
X052900D01*
Y040100D01*
X052900Y040129D01*
X052909Y040218D01*
X052943Y040331D01*
X052999Y040435D01*
X053074Y040526D01*
X053165Y040601D01*
X053269Y040657D01*
X053382Y040691D01*
X053471Y040700D01*
X053500Y040700D01*
X055300Y040700D01*
X055329Y040700D01*
X055418Y040691D01*
D02*
G37*
G36*
X060918D02*
X061031Y040657D01*
X061135Y040601D01*
X061226Y040526D01*
X061301Y040435D01*
X061357Y040331D01*
X061391Y040218D01*
X061400Y040129D01*
X061400Y040100D01*
X061400Y036300D01*
X058400D01*
Y040100D01*
X058400Y040129D01*
X058409Y040218D01*
X058443Y040331D01*
X058499Y040435D01*
X058574Y040526D01*
X058665Y040601D01*
X058769Y040657D01*
X058882Y040691D01*
X058971Y040700D01*
X059000Y040700D01*
X060800Y040700D01*
X060829Y040700D01*
X060918Y040691D01*
D02*
G37*
G36*
X066418D02*
X066531Y040657D01*
X066635Y040601D01*
X066726Y040526D01*
X066801Y040435D01*
X066857Y040331D01*
X066891Y040218D01*
X066900Y040129D01*
X066900Y040100D01*
X066900Y036300D01*
X063900D01*
Y040100D01*
X063900Y040129D01*
X063909Y040218D01*
X063943Y040331D01*
X063999Y040435D01*
X064074Y040526D01*
X064165Y040601D01*
X064269Y040657D01*
X064382Y040691D01*
X064471Y040700D01*
X064500Y040700D01*
X066300Y040700D01*
X066329Y040700D01*
X066418Y040691D01*
D02*
G37*
%LPC*%
G36*
X052537Y023700D02*
X052300D01*
Y023463D01*
X052377Y023494D01*
X052450Y023550D01*
X052506Y023623D01*
X052537Y023700D01*
D02*
G37*
G36*
X052100D02*
X051863D01*
X051894Y023623D01*
X051950Y023550D01*
X052023Y023494D01*
X052100Y023463D01*
Y023700D01*
D02*
G37*
G36*
X054230Y025400D02*
X053964D01*
Y025026D01*
X054230D01*
Y025400D01*
D02*
G37*
G36*
X059844Y023900D02*
X059539D01*
X059540Y023892D01*
X059582Y023791D01*
X059648Y023704D01*
X059735Y023637D01*
X059836Y023596D01*
X059844Y023595D01*
Y023900D01*
D02*
G37*
G36*
X057820Y024070D02*
X057495D01*
Y023870D01*
X057820D01*
Y024070D01*
D02*
G37*
G36*
X068937Y023900D02*
X068700D01*
Y023663D01*
X068777Y023694D01*
X068850Y023750D01*
X068906Y023823D01*
X068937Y023900D01*
D02*
G37*
G36*
X068500D02*
X068263D01*
X068294Y023823D01*
X068350Y023750D01*
X068423Y023694D01*
X068500Y023663D01*
Y023900D01*
D02*
G37*
G36*
X054696Y023774D02*
X054430D01*
Y023400D01*
X054696D01*
Y023774D01*
D02*
G37*
G36*
X054230Y023200D02*
X053964D01*
Y022826D01*
X054230D01*
Y023200D01*
D02*
G37*
G36*
X065837Y023000D02*
X065600D01*
Y022763D01*
X065677Y022794D01*
X065750Y022850D01*
X065806Y022923D01*
X065837Y023000D01*
D02*
G37*
G36*
X065400D02*
X065163D01*
X065194Y022923D01*
X065250Y022850D01*
X065323Y022794D01*
X065400Y022763D01*
Y023000D01*
D02*
G37*
G36*
X054696Y025400D02*
X054430D01*
Y025026D01*
X054696D01*
Y025400D01*
D02*
G37*
G36*
X065600Y023437D02*
Y023200D01*
X065837D01*
X065806Y023277D01*
X065750Y023350D01*
X065677Y023406D01*
X065600Y023437D01*
D02*
G37*
G36*
X065400D02*
X065323Y023406D01*
X065250Y023350D01*
X065194Y023277D01*
X065163Y023200D01*
X065400D01*
Y023437D01*
D02*
G37*
G36*
X054696Y023200D02*
X054430D01*
Y022826D01*
X054696D01*
Y023200D01*
D02*
G37*
G36*
X058345Y024070D02*
X058020D01*
Y023870D01*
X058345D01*
Y024070D01*
D02*
G37*
G36*
X054230Y024874D02*
X053964D01*
Y024500D01*
X054230D01*
Y024874D01*
D02*
G37*
G36*
X058100Y024483D02*
Y024270D01*
X058345D01*
Y024470D01*
X058132D01*
X058100Y024483D01*
D02*
G37*
G36*
X057900D02*
X057868Y024470D01*
X057495D01*
Y024270D01*
X057900D01*
Y024483D01*
D02*
G37*
G36*
X054696Y024874D02*
X054430D01*
Y024500D01*
X054696D01*
Y024874D01*
D02*
G37*
G36*
X056600Y025237D02*
X056523Y025206D01*
X056450Y025150D01*
X056394Y025077D01*
X056363Y025000D01*
X056600D01*
Y025237D01*
D02*
G37*
G36*
X057037Y024800D02*
X056800D01*
Y024563D01*
X056877Y024594D01*
X056950Y024650D01*
X057006Y024723D01*
X057037Y024800D01*
D02*
G37*
G36*
X056600D02*
X056363D01*
X056394Y024723D01*
X056450Y024650D01*
X056523Y024594D01*
X056600Y024563D01*
Y024800D01*
D02*
G37*
G36*
X068700Y024337D02*
Y024100D01*
X068937D01*
X068906Y024177D01*
X068850Y024250D01*
X068777Y024306D01*
X068700Y024337D01*
D02*
G37*
G36*
X054696Y025974D02*
X054430D01*
Y025600D01*
X054696D01*
Y025974D01*
D02*
G37*
G36*
X056800Y025237D02*
Y025000D01*
X057037D01*
X057006Y025077D01*
X056950Y025150D01*
X056877Y025206D01*
X056800Y025237D01*
D02*
G37*
G36*
X052100Y024137D02*
X052023Y024106D01*
X051950Y024050D01*
X051894Y023977D01*
X051863Y023900D01*
X052100D01*
Y024137D01*
D02*
G37*
G36*
X054230Y025974D02*
X053964D01*
Y025600D01*
X054230D01*
Y025974D01*
D02*
G37*
G36*
X068500Y024337D02*
X068423Y024306D01*
X068350Y024250D01*
X068294Y024177D01*
X068263Y024100D01*
X068500D01*
Y024337D01*
D02*
G37*
G36*
X054696Y024300D02*
X054430D01*
Y023926D01*
X054696D01*
Y024300D01*
D02*
G37*
G36*
X052300Y024137D02*
Y023900D01*
X052537D01*
X052506Y023977D01*
X052450Y024050D01*
X052377Y024106D01*
X052300Y024137D01*
D02*
G37*
G36*
X058380Y021500D02*
X058025D01*
Y021125D01*
X058380D01*
Y021500D01*
D02*
G37*
G36*
X060008Y021428D02*
X059728D01*
Y021188D01*
X060008D01*
Y021428D01*
D02*
G37*
G36*
X057300Y021500D02*
X056925D01*
Y021125D01*
X057300D01*
Y021500D01*
D02*
G37*
G36*
X057875D02*
X057500D01*
Y021125D01*
X057875D01*
Y021500D01*
D02*
G37*
G36*
X067600Y021919D02*
X067295D01*
X067296Y021911D01*
X067337Y021810D01*
X067404Y021723D01*
X067491Y021656D01*
X067592Y021615D01*
X067600Y021613D01*
Y021919D01*
D02*
G37*
G36*
X068105D02*
X067800D01*
Y021613D01*
X067808Y021615D01*
X067909Y021656D01*
X067996Y021723D01*
X068063Y021810D01*
X068104Y021911D01*
X068105Y021919D01*
D02*
G37*
G36*
X054200Y021537D02*
X054123Y021506D01*
X054050Y021450D01*
X053994Y021377D01*
X053963Y021300D01*
X054200D01*
Y021537D01*
D02*
G37*
G36*
X054400D02*
Y021300D01*
X054637D01*
X054606Y021377D01*
X054550Y021450D01*
X054477Y021506D01*
X054400Y021537D01*
D02*
G37*
G36*
X054200Y021100D02*
X053963D01*
X053994Y021023D01*
X054050Y020950D01*
X054123Y020894D01*
X054200Y020863D01*
Y021100D01*
D02*
G37*
G36*
X054637D02*
X054400D01*
Y020863D01*
X054477Y020894D01*
X054550Y020950D01*
X054606Y021023D01*
X054637Y021100D01*
D02*
G37*
G36*
X052900Y021190D02*
X052726Y021173D01*
X052559Y021122D01*
X052405Y021040D01*
X052271Y020929D01*
X052160Y020795D01*
X052078Y020641D01*
X052027Y020474D01*
X052010Y020300D01*
X052027Y020126D01*
X052078Y019959D01*
X052160Y019805D01*
X052271Y019671D01*
X052405Y019560D01*
X052559Y019478D01*
X052726Y019427D01*
X052900Y019410D01*
X053074Y019427D01*
X053241Y019478D01*
X053395Y019560D01*
X053529Y019671D01*
X053640Y019805D01*
X053722Y019959D01*
X053773Y020126D01*
X053790Y020300D01*
X053773Y020474D01*
X053722Y020641D01*
X053640Y020795D01*
X053529Y020929D01*
X053395Y021040D01*
X053241Y021122D01*
X053074Y021173D01*
X052900Y021190D01*
D02*
G37*
G36*
X068000D02*
X067826Y021173D01*
X067659Y021122D01*
X067505Y021040D01*
X067371Y020929D01*
X067260Y020795D01*
X067178Y020641D01*
X067127Y020474D01*
X067110Y020300D01*
X067127Y020126D01*
X067178Y019959D01*
X067260Y019805D01*
X067371Y019671D01*
X067505Y019560D01*
X067659Y019478D01*
X067826Y019427D01*
X068000Y019410D01*
X068174Y019427D01*
X068341Y019478D01*
X068495Y019560D01*
X068629Y019671D01*
X068740Y019805D01*
X068822Y019959D01*
X068873Y020126D01*
X068890Y020300D01*
X068873Y020474D01*
X068822Y020641D01*
X068740Y020795D01*
X068629Y020929D01*
X068495Y021040D01*
X068341Y021122D01*
X068174Y021173D01*
X068000Y021190D01*
D02*
G37*
G36*
X056300Y021500D02*
X055925D01*
Y021125D01*
X056300D01*
Y021500D01*
D02*
G37*
G36*
X056875D02*
X056500D01*
Y021125D01*
X056875D01*
Y021500D01*
D02*
G37*
G36*
X055225D02*
X054870D01*
Y021125D01*
X055225D01*
Y021500D01*
D02*
G37*
G36*
X055780D02*
X055425D01*
Y021125D01*
X055780D01*
Y021500D01*
D02*
G37*
G36*
X062694Y022317D02*
X062586Y022303D01*
X062485Y022261D01*
X062399Y022195D01*
X062333Y022109D01*
X062325Y022090D01*
X062275D01*
X062267Y022109D01*
X062201Y022195D01*
X062115Y022261D01*
X062014Y022303D01*
X061906Y022317D01*
X061798Y022303D01*
X061698Y022261D01*
X061611Y022195D01*
X061545Y022109D01*
X061504Y022008D01*
X061489Y021900D01*
X061504Y021792D01*
X061545Y021692D01*
X061611Y021605D01*
X061698Y021539D01*
X061798Y021497D01*
X061906Y021483D01*
X062014Y021497D01*
X062115Y021539D01*
X062201Y021605D01*
X062267Y021692D01*
X062275Y021710D01*
X062325D01*
X062333Y021692D01*
X062399Y021605D01*
X062485Y021539D01*
X062586Y021497D01*
X062694Y021483D01*
X062802Y021497D01*
X062902Y021539D01*
X062989Y021605D01*
X063055Y021692D01*
X063096Y021792D01*
X063111Y021900D01*
X063096Y022008D01*
X063055Y022109D01*
X062989Y022195D01*
X062902Y022261D01*
X062802Y022303D01*
X062694Y022317D01*
D02*
G37*
G36*
X065394D02*
X065286Y022303D01*
X065185Y022261D01*
X065099Y022195D01*
X065033Y022109D01*
X065025Y022090D01*
X064975D01*
X064967Y022109D01*
X064901Y022195D01*
X064815Y022261D01*
X064714Y022303D01*
X064606Y022317D01*
X064498Y022303D01*
X064398Y022261D01*
X064311Y022195D01*
X064245Y022109D01*
X064204Y022008D01*
X064189Y021900D01*
X064204Y021792D01*
X064245Y021692D01*
X064311Y021605D01*
X064398Y021539D01*
X064498Y021497D01*
X064606Y021483D01*
X064714Y021497D01*
X064815Y021539D01*
X064901Y021605D01*
X064967Y021692D01*
X064975Y021710D01*
X065025D01*
X065033Y021692D01*
X065099Y021605D01*
X065185Y021539D01*
X065286Y021497D01*
X065394Y021483D01*
X065502Y021497D01*
X065602Y021539D01*
X065689Y021605D01*
X065755Y021692D01*
X065796Y021792D01*
X065811Y021900D01*
X065796Y022008D01*
X065755Y022109D01*
X065689Y022195D01*
X065602Y022261D01*
X065502Y022303D01*
X065394Y022317D01*
D02*
G37*
G36*
X054230Y022100D02*
X053964D01*
Y021726D01*
X054230D01*
Y022100D01*
D02*
G37*
G36*
X054696D02*
X054430D01*
Y021726D01*
X054696D01*
Y022100D01*
D02*
G37*
G36*
Y022674D02*
X054430D01*
Y022300D01*
X054696D01*
Y022674D01*
D02*
G37*
G36*
X057590Y023030D02*
X057520D01*
Y022750D01*
X057590D01*
Y023030D01*
D02*
G37*
G36*
Y022550D02*
X057520D01*
Y022270D01*
X057590D01*
Y022550D01*
D02*
G37*
G36*
X054230Y022674D02*
X053964D01*
Y022300D01*
X054230D01*
Y022674D01*
D02*
G37*
G36*
X055780Y022075D02*
X055425D01*
Y021700D01*
X055780D01*
Y022075D01*
D02*
G37*
G36*
X056300D02*
X055925D01*
Y021700D01*
X056300D01*
Y022075D01*
D02*
G37*
G36*
X060008Y021868D02*
X059728D01*
Y021628D01*
X060008D01*
Y021868D01*
D02*
G37*
G36*
X055225Y022075D02*
X054870D01*
Y021700D01*
X055225D01*
Y022075D01*
D02*
G37*
G36*
X057875D02*
X057500D01*
Y021700D01*
X057875D01*
Y022075D01*
D02*
G37*
G36*
X058380D02*
X058025D01*
Y021700D01*
X058380D01*
Y022075D01*
D02*
G37*
G36*
X056875D02*
X056500D01*
Y021700D01*
X056875D01*
Y022075D01*
D02*
G37*
G36*
X057300D02*
X056925D01*
Y021700D01*
X057300D01*
Y022075D01*
D02*
G37*
G36*
X057637Y030700D02*
X057400D01*
Y030463D01*
X057477Y030494D01*
X057550Y030550D01*
X057606Y030623D01*
X057637Y030700D01*
D02*
G37*
G36*
X061200D02*
X060963D01*
X060994Y030623D01*
X061050Y030550D01*
X061123Y030494D01*
X061200Y030463D01*
Y030700D01*
D02*
G37*
G36*
X060660Y030202D02*
X060557D01*
Y030100D01*
X060660D01*
Y030202D01*
D02*
G37*
G36*
X057200Y030700D02*
X056963D01*
X056994Y030623D01*
X057050Y030550D01*
X057123Y030494D01*
X057200Y030463D01*
Y030700D01*
D02*
G37*
G36*
X057400Y031137D02*
Y030900D01*
X057637D01*
X057606Y030977D01*
X057550Y031050D01*
X057477Y031106D01*
X057400Y031137D01*
D02*
G37*
G36*
X061200D02*
X061123Y031106D01*
X061050Y031050D01*
X060994Y030977D01*
X060963Y030900D01*
X061200D01*
Y031137D01*
D02*
G37*
G36*
X061637Y030700D02*
X061400D01*
Y030463D01*
X061477Y030494D01*
X061550Y030550D01*
X061606Y030623D01*
X061637Y030700D01*
D02*
G37*
G36*
X057200Y031137D02*
X057123Y031106D01*
X057050Y031050D01*
X056994Y030977D01*
X056963Y030900D01*
X057200D01*
Y031137D01*
D02*
G37*
G36*
X060660Y029900D02*
X060557D01*
Y029798D01*
X060660D01*
Y029900D01*
D02*
G37*
G36*
X066900Y029400D02*
X066663D01*
X066694Y029323D01*
X066750Y029250D01*
X066823Y029194D01*
X066900Y029163D01*
Y029400D01*
D02*
G37*
G36*
X060675Y029730D02*
X060400D01*
Y029415D01*
X060675D01*
Y029730D01*
D02*
G37*
G36*
X060357Y030202D02*
X060255D01*
Y030201D01*
X059942D01*
Y030013D01*
X059718Y029789D01*
X059685Y029740D01*
X059683Y029728D01*
X059452D01*
Y029082D01*
X059413Y029051D01*
X059400Y029053D01*
X059303Y029034D01*
X059221Y028979D01*
X059211Y028964D01*
X059157Y028960D01*
X059026Y029091D01*
Y029289D01*
X059028D01*
Y029397D01*
X058572D01*
Y029289D01*
X058536Y029254D01*
X058483D01*
Y029470D01*
X058483Y029480D01*
Y029520D01*
X058483Y029530D01*
Y030110D01*
X057931D01*
Y029530D01*
X057931Y029520D01*
Y029480D01*
X057931Y029470D01*
Y028890D01*
X058483D01*
Y028952D01*
X058574D01*
Y028896D01*
X058793D01*
X058940Y028749D01*
X058932Y028699D01*
X058896Y028683D01*
X058866Y028688D01*
X058797Y028734D01*
X058700Y028753D01*
X058603Y028734D01*
X058521Y028679D01*
X058466Y028597D01*
X058447Y028500D01*
X058466Y028403D01*
X058521Y028321D01*
X058603Y028266D01*
X058700Y028247D01*
X058733Y028253D01*
X058997Y027989D01*
X058983Y027939D01*
X058900D01*
Y027697D01*
X058800D01*
Y027597D01*
X058558D01*
Y027493D01*
X058558Y027493D01*
X058508Y027472D01*
X058493Y027485D01*
X058484Y027504D01*
X058484Y027518D01*
X058484Y027530D01*
Y027715D01*
X058207D01*
X057930D01*
Y027530D01*
X057930Y027518D01*
X057931Y027469D01*
Y027010D01*
X057493D01*
X057493Y027010D01*
X057435Y026999D01*
X057386Y026966D01*
X057261Y026841D01*
X057200Y026853D01*
X057103Y026834D01*
X057021Y026779D01*
X056966Y026697D01*
X056947Y026600D01*
X056966Y026503D01*
X057021Y026421D01*
X057103Y026366D01*
X057158Y026355D01*
X057166Y026344D01*
X057176Y026301D01*
X057138Y026251D01*
X057117Y026200D01*
X057683D01*
X057662Y026251D01*
X057624Y026301D01*
X057634Y026344D01*
X057642Y026355D01*
X057697Y026366D01*
X057779Y026421D01*
X057809Y026465D01*
X057856Y026446D01*
X057847Y026400D01*
X057866Y026303D01*
X057921Y026221D01*
X057949Y026202D01*
Y026100D01*
X057949Y026100D01*
X057960Y026042D01*
X057993Y025993D01*
X058211Y025775D01*
X058192Y025728D01*
X057497D01*
Y025132D01*
X057854D01*
X058362Y024624D01*
X058366Y024603D01*
X058421Y024521D01*
X058503Y024466D01*
X058600Y024447D01*
X058697Y024466D01*
X058705Y024471D01*
X058749Y024448D01*
Y023398D01*
X058721Y023379D01*
X058666Y023297D01*
X058647Y023200D01*
X058666Y023103D01*
X058721Y023021D01*
X058803Y022966D01*
X058900Y022947D01*
X058958Y022958D01*
X059008Y022918D01*
Y021956D01*
X058985Y021942D01*
X058935Y021971D01*
Y022075D01*
X058580D01*
Y021600D01*
Y021125D01*
X058935D01*
Y021458D01*
X058979Y021482D01*
X059003Y021466D01*
X059100Y021447D01*
X059197Y021466D01*
X059204Y021471D01*
X059248Y021447D01*
Y021188D01*
X059528D01*
Y021528D01*
Y021868D01*
X059310D01*
Y022380D01*
X060006D01*
Y022549D01*
X060136D01*
Y022493D01*
X060864D01*
Y022673D01*
X060940Y022749D01*
X061502D01*
X061521Y022721D01*
X061603Y022666D01*
X061700Y022647D01*
X061797Y022666D01*
X061879Y022721D01*
X061934Y022803D01*
X061953Y022900D01*
X061934Y022997D01*
X061879Y023079D01*
X061797Y023134D01*
X061700Y023153D01*
X061603Y023134D01*
X061521Y023079D01*
X061502Y023051D01*
X060877D01*
X060877Y023051D01*
X060819Y023040D01*
X060770Y023007D01*
X060770Y023007D01*
X060670Y022907D01*
X060136D01*
Y022851D01*
X060006D01*
Y023057D01*
X059310D01*
Y025085D01*
X059357Y025104D01*
X059999Y024462D01*
X059976Y024414D01*
X059944Y024419D01*
X059836Y024404D01*
X059735Y024362D01*
X059648Y024296D01*
X059582Y024209D01*
X059540Y024108D01*
X059539Y024100D01*
X059944D01*
Y024000D01*
X060044D01*
Y023595D01*
X060052Y023596D01*
X060153Y023637D01*
X060240Y023704D01*
X060307Y023791D01*
X060314Y023808D01*
X060364D01*
X060370Y023791D01*
X060437Y023705D01*
X060523Y023639D01*
X060624Y023597D01*
X060732Y023583D01*
X060839Y023597D01*
X060940Y023639D01*
X061026Y023705D01*
X061093Y023791D01*
X061100Y023810D01*
X061150D01*
X061158Y023791D01*
X061224Y023705D01*
X061310Y023639D01*
X061411Y023597D01*
X061519Y023583D01*
X061627Y023597D01*
X061727Y023639D01*
X061814Y023705D01*
X061880Y023791D01*
X061889Y023813D01*
X061939D01*
X061948Y023791D01*
X062014Y023705D01*
X062100Y023639D01*
X062201Y023597D01*
X062309Y023583D01*
X062417Y023597D01*
X062517Y023639D01*
X062604Y023705D01*
X062670Y023791D01*
X062679Y023813D01*
X062729D01*
X062738Y023791D01*
X062804Y023705D01*
X062890Y023639D01*
X062991Y023597D01*
X063099Y023583D01*
X063207Y023597D01*
X063307Y023639D01*
X063394Y023705D01*
X063460Y023791D01*
X063465Y023804D01*
X063515D01*
X063520Y023791D01*
X063586Y023705D01*
X063673Y023639D01*
X063773Y023597D01*
X063881Y023583D01*
X063989Y023597D01*
X064090Y023639D01*
X064176Y023705D01*
X064242Y023791D01*
X064250Y023810D01*
X064300D01*
X064307Y023791D01*
X064374Y023705D01*
X064460Y023639D01*
X064561Y023597D01*
X064668Y023583D01*
X064776Y023597D01*
X064877Y023639D01*
X064963Y023705D01*
X065030Y023791D01*
X065037Y023810D01*
X065087D01*
X065095Y023791D01*
X065161Y023705D01*
X065247Y023639D01*
X065348Y023597D01*
X065456Y023583D01*
X065564Y023597D01*
X065664Y023639D01*
X065751Y023705D01*
X065817Y023791D01*
X065859Y023892D01*
X065873Y024000D01*
X065859Y024108D01*
X065817Y024209D01*
X065789Y024245D01*
X065811Y024290D01*
X066003D01*
X067321Y022971D01*
X067297Y022914D01*
X067283Y022806D01*
X067297Y022698D01*
X067339Y022598D01*
X067405Y022511D01*
X067491Y022445D01*
X067508Y022438D01*
Y022388D01*
X067491Y022381D01*
X067404Y022315D01*
X067337Y022228D01*
X067296Y022127D01*
X067295Y022119D01*
X067700D01*
X068105D01*
X068104Y022127D01*
X068063Y022228D01*
X067996Y022315D01*
X067909Y022381D01*
X067892Y022388D01*
Y022438D01*
X067909Y022445D01*
X067995Y022511D01*
X068061Y022598D01*
X068103Y022698D01*
X068117Y022806D01*
X068103Y022914D01*
X068061Y023015D01*
X067995Y023101D01*
X067909Y023167D01*
X067890Y023175D01*
Y023225D01*
X067909Y023233D01*
X067995Y023299D01*
X068061Y023385D01*
X068103Y023486D01*
X068117Y023594D01*
X068103Y023702D01*
X068061Y023802D01*
X067995Y023889D01*
X067909Y023955D01*
X067887Y023964D01*
Y024014D01*
X067909Y024023D01*
X067995Y024089D01*
X068061Y024175D01*
X068103Y024276D01*
X068117Y024384D01*
X068103Y024492D01*
X068061Y024592D01*
X067995Y024679D01*
X067909Y024745D01*
X067808Y024786D01*
X067700Y024801D01*
X067592Y024786D01*
X067491Y024745D01*
X067405Y024679D01*
X067339Y024592D01*
X067297Y024492D01*
X067283Y024384D01*
X067296Y024282D01*
X067284Y024270D01*
X067251Y024257D01*
X066801Y024707D01*
X066752Y024740D01*
X066694Y024751D01*
X066694Y024751D01*
X062488D01*
X060486Y026753D01*
X060505Y026799D01*
X060658D01*
Y026987D01*
X060882Y027211D01*
X060915Y027260D01*
X060917Y027272D01*
X061148D01*
Y028098D01*
X060550D01*
X060497Y028134D01*
X060400Y028153D01*
X060303Y028134D01*
X060250Y028099D01*
X060200Y028100D01*
X060200Y028100D01*
X060200Y028100D01*
X060137D01*
X060125Y028145D01*
X060125Y028145D01*
X060169Y028159D01*
X060198Y028165D01*
X060280Y028220D01*
X060334Y028300D01*
X059866D01*
X059920Y028220D01*
X060002Y028165D01*
X060031Y028159D01*
X060075Y028145D01*
X060075Y028145D01*
X060063Y028100D01*
X059925D01*
Y027685D01*
X059725D01*
Y028100D01*
X059469D01*
Y028282D01*
X059458Y028340D01*
X059425Y028389D01*
X059347Y028467D01*
X059353Y028500D01*
X059350Y028514D01*
X059386Y028550D01*
X059400Y028547D01*
X059497Y028566D01*
X059579Y028621D01*
X059634Y028703D01*
X059653Y028800D01*
X059643Y028852D01*
X059684Y028902D01*
X060084D01*
X060153Y028833D01*
X060147Y028800D01*
X060166Y028703D01*
X060174Y028691D01*
X060144Y028646D01*
X060100Y028655D01*
X060002Y028635D01*
X059920Y028580D01*
X059866Y028500D01*
X060334D01*
X060327Y028510D01*
X060357Y028555D01*
X060400Y028547D01*
X060497Y028566D01*
X060579Y028621D01*
X060634Y028703D01*
X060653Y028800D01*
X060643Y028850D01*
X060675Y028889D01*
Y029215D01*
X060400D01*
Y029085D01*
X060350Y029064D01*
X060198Y029216D01*
Y029728D01*
X060180D01*
X060156Y029778D01*
X060172Y029799D01*
X060255D01*
Y029798D01*
X060357D01*
Y030000D01*
Y030202D01*
D02*
G37*
G36*
X065300Y029400D02*
X065063D01*
X065094Y029323D01*
X065150Y029250D01*
X065223Y029194D01*
X065300Y029163D01*
Y029400D01*
D02*
G37*
G36*
X059028Y029705D02*
X058900D01*
Y029597D01*
X059028D01*
Y029705D01*
D02*
G37*
G36*
X057000Y030153D02*
X056903Y030134D01*
X056867Y030110D01*
X056317D01*
Y029530D01*
X056317Y029520D01*
Y029480D01*
X056317Y029470D01*
Y028890D01*
X056869D01*
Y029470D01*
X056869Y029480D01*
Y029520D01*
X056869Y029530D01*
Y029634D01*
X056919Y029663D01*
X057000Y029647D01*
X057097Y029666D01*
X057179Y029721D01*
X057234Y029803D01*
X057253Y029900D01*
X057234Y029997D01*
X057179Y030079D01*
X057097Y030134D01*
X057000Y030153D01*
D02*
G37*
G36*
X061150Y029730D02*
X060875D01*
Y029415D01*
X061150D01*
Y029730D01*
D02*
G37*
G36*
X058700Y029705D02*
X058572D01*
Y029597D01*
X058700D01*
Y029705D01*
D02*
G37*
G36*
X062800Y040100D02*
X062563D01*
X062594Y040023D01*
X062650Y039950D01*
X062723Y039894D01*
X062800Y039863D01*
Y040100D01*
D02*
G37*
G36*
X063237D02*
X063000D01*
Y039863D01*
X063077Y039894D01*
X063150Y039950D01*
X063206Y040023D01*
X063237Y040100D01*
D02*
G37*
G36*
X057300D02*
X057063D01*
X057094Y040023D01*
X057150Y039950D01*
X057223Y039894D01*
X057300Y039863D01*
Y040100D01*
D02*
G37*
G36*
X057737D02*
X057500D01*
Y039863D01*
X057577Y039894D01*
X057650Y039950D01*
X057706Y040023D01*
X057737Y040100D01*
D02*
G37*
G36*
X062800Y040537D02*
X062723Y040506D01*
X062650Y040450D01*
X062594Y040377D01*
X062563Y040300D01*
X062800D01*
Y040537D01*
D02*
G37*
G36*
X063000D02*
Y040300D01*
X063237D01*
X063206Y040377D01*
X063150Y040450D01*
X063077Y040506D01*
X063000Y040537D01*
D02*
G37*
G36*
X057300D02*
X057223Y040506D01*
X057150Y040450D01*
X057094Y040377D01*
X057063Y040300D01*
X057300D01*
Y040537D01*
D02*
G37*
G36*
X057500D02*
Y040300D01*
X057737D01*
X057706Y040377D01*
X057650Y040450D01*
X057577Y040506D01*
X057500Y040537D01*
D02*
G37*
G36*
X068500Y040037D02*
Y039800D01*
X068737D01*
X068706Y039877D01*
X068650Y039950D01*
X068577Y040006D01*
X068500Y040037D01*
D02*
G37*
G36*
X052537Y038000D02*
X052300D01*
Y037763D01*
X052377Y037794D01*
X052450Y037850D01*
X052506Y037923D01*
X052537Y038000D01*
D02*
G37*
G36*
X052100Y038437D02*
X052023Y038406D01*
X051950Y038350D01*
X051894Y038277D01*
X051863Y038200D01*
X052100D01*
Y038437D01*
D02*
G37*
G36*
X061400Y031137D02*
Y030900D01*
X061637D01*
X061606Y030977D01*
X061550Y031050D01*
X061477Y031106D01*
X061400Y031137D01*
D02*
G37*
G36*
X052100Y038000D02*
X051863D01*
X051894Y037923D01*
X051950Y037850D01*
X052023Y037794D01*
X052100Y037763D01*
Y038000D01*
D02*
G37*
G36*
X068737Y039600D02*
X068500D01*
Y039363D01*
X068577Y039394D01*
X068650Y039450D01*
X068706Y039523D01*
X068737Y039600D01*
D02*
G37*
G36*
X068300Y040037D02*
X068223Y040006D01*
X068150Y039950D01*
X068094Y039877D01*
X068063Y039800D01*
X068300D01*
Y040037D01*
D02*
G37*
G36*
X052300Y038437D02*
Y038200D01*
X052537D01*
X052506Y038277D01*
X052450Y038350D01*
X052377Y038406D01*
X052300Y038437D01*
D02*
G37*
G36*
X068300Y039600D02*
X068063D01*
X068094Y039523D01*
X068150Y039450D01*
X068223Y039394D01*
X068300Y039363D01*
Y039600D01*
D02*
G37*
G36*
X061150Y029215D02*
X060875D01*
Y028900D01*
X061150D01*
Y029215D01*
D02*
G37*
G36*
X063937Y027700D02*
X063700D01*
Y027463D01*
X063777Y027494D01*
X063850Y027550D01*
X063906Y027623D01*
X063937Y027700D01*
D02*
G37*
G36*
X063500D02*
X063263D01*
X063294Y027623D01*
X063350Y027550D01*
X063423Y027494D01*
X063500Y027463D01*
Y027700D01*
D02*
G37*
G36*
X054637Y027300D02*
X053963D01*
X053994Y027223D01*
X054050Y027150D01*
X054083Y027125D01*
Y027075D01*
X054050Y027050D01*
X053994Y026977D01*
X053963Y026900D01*
X054637D01*
X054606Y026977D01*
X054550Y027050D01*
X054517Y027075D01*
Y027125D01*
X054550Y027150D01*
X054606Y027223D01*
X054637Y027300D01*
D02*
G37*
G36*
X061600Y027900D02*
X061363D01*
X061394Y027823D01*
X061450Y027750D01*
X061523Y027694D01*
X061600Y027663D01*
Y027900D01*
D02*
G37*
G36*
X054400Y027737D02*
Y027500D01*
X054637D01*
X054606Y027577D01*
X054550Y027650D01*
X054477Y027706D01*
X054400Y027737D01*
D02*
G37*
G36*
X054200D02*
X054123Y027706D01*
X054050Y027650D01*
X053994Y027577D01*
X053963Y027500D01*
X054200D01*
Y027737D01*
D02*
G37*
G36*
X056870Y027715D02*
X056593D01*
X056316D01*
Y027530D01*
X056316Y027518D01*
X056317Y027469D01*
Y026890D01*
X056869D01*
Y027469D01*
X056870Y027518D01*
X056870Y027530D01*
Y027715D01*
D02*
G37*
G36*
X054200Y026700D02*
X053963D01*
X053994Y026623D01*
X054050Y026550D01*
X054123Y026494D01*
X054200Y026463D01*
Y026700D01*
D02*
G37*
G36*
X057683Y026000D02*
X057500D01*
Y025817D01*
X057551Y025838D01*
X057614Y025886D01*
X057662Y025949D01*
X057683Y026000D01*
D02*
G37*
G36*
X057300D02*
X057117D01*
X057138Y025949D01*
X057186Y025886D01*
X057249Y025838D01*
X057300Y025817D01*
Y026000D01*
D02*
G37*
G36*
X066300Y027091D02*
X065768D01*
Y026864D01*
X066300D01*
Y027091D01*
D02*
G37*
G36*
X066372Y028600D02*
X066006D01*
X065640D01*
Y027557D01*
X065744D01*
X065768Y027517D01*
Y027291D01*
X066400D01*
Y027191D01*
X066500D01*
Y026864D01*
X066896D01*
X066900Y026863D01*
Y027200D01*
Y027537D01*
X066851Y027517D01*
X066396D01*
X066372Y027557D01*
Y028600D01*
D02*
G37*
G36*
X054637Y026700D02*
X054400D01*
Y026463D01*
X054477Y026494D01*
X054550Y026550D01*
X054606Y026623D01*
X054637Y026700D01*
D02*
G37*
G36*
X066900Y028537D02*
X066823Y028506D01*
X066750Y028450D01*
X066694Y028377D01*
X066663Y028300D01*
X066900D01*
Y028537D01*
D02*
G37*
G36*
X058484Y028112D02*
X058307D01*
Y027915D01*
X058484D01*
Y028112D01*
D02*
G37*
G36*
X056870D02*
X056693D01*
Y027915D01*
X056870D01*
Y028112D01*
D02*
G37*
G36*
X056000Y028453D02*
X055903Y028434D01*
X055821Y028379D01*
X055766Y028297D01*
X055747Y028200D01*
X055750Y028186D01*
X055714Y028150D01*
X055700Y028153D01*
X055603Y028134D01*
X055521Y028079D01*
X055466Y027997D01*
X055447Y027900D01*
X055453Y027867D01*
X055193Y027607D01*
X055191Y027604D01*
X055074D01*
Y027190D01*
Y026965D01*
X055053Y026934D01*
X055041Y026876D01*
X055041Y026876D01*
Y023883D01*
X055041Y023883D01*
X055053Y023825D01*
X055085Y023776D01*
X055427Y023434D01*
X055476Y023401D01*
X055534Y023390D01*
X056166D01*
X056181Y023340D01*
X056146Y023316D01*
X056091Y023234D01*
X056072Y023137D01*
X056091Y023040D01*
X056146Y022958D01*
X056220Y022908D01*
Y022272D01*
X057250D01*
Y022270D01*
X057320D01*
Y022272D01*
X057328D01*
Y022650D01*
Y023028D01*
X057320D01*
Y023030D01*
X057250D01*
Y023028D01*
X057051D01*
Y023300D01*
X057040Y023358D01*
X057007Y023407D01*
X057007Y023407D01*
X056607Y023807D01*
X056558Y023840D01*
X056500Y023851D01*
X056500Y023851D01*
X056350D01*
X056309Y023872D01*
Y024469D01*
X055503D01*
Y025132D01*
X056309D01*
Y025728D01*
X056170D01*
X056161Y025751D01*
X056113Y025813D01*
X056051Y025861D01*
X055978Y025891D01*
X055900Y025901D01*
X055822Y025891D01*
X055750Y025861D01*
X055687Y025813D01*
X055639Y025751D01*
X055630Y025728D01*
X055503D01*
Y026472D01*
X055827Y026796D01*
X056026D01*
Y027190D01*
Y027429D01*
X056107Y027510D01*
X056107Y027510D01*
X056140Y027559D01*
X056151Y027617D01*
X056151Y027617D01*
Y028002D01*
X056179Y028021D01*
X056234Y028103D01*
X056253Y028200D01*
X056234Y028297D01*
X056179Y028379D01*
X056097Y028434D01*
X056000Y028453D01*
D02*
G37*
G36*
X061800Y028337D02*
Y028100D01*
X062037D01*
X062006Y028177D01*
X061950Y028250D01*
X061877Y028306D01*
X061800Y028337D01*
D02*
G37*
G36*
X061600D02*
X061523Y028306D01*
X061450Y028250D01*
X061394Y028177D01*
X061363Y028100D01*
X061600D01*
Y028337D01*
D02*
G37*
G36*
X056493Y028112D02*
X056316D01*
Y027915D01*
X056493D01*
Y028112D01*
D02*
G37*
G36*
X066900Y028100D02*
X066663D01*
X066694Y028023D01*
X066750Y027950D01*
X066823Y027894D01*
X066900Y027863D01*
Y028100D01*
D02*
G37*
G36*
X058700Y027939D02*
X058558D01*
Y027797D01*
X058700D01*
Y027939D01*
D02*
G37*
G36*
X062037Y027900D02*
X061800D01*
Y027663D01*
X061877Y027694D01*
X061950Y027750D01*
X062006Y027823D01*
X062037Y027900D01*
D02*
G37*
G36*
X063500Y028137D02*
X063423Y028106D01*
X063350Y028050D01*
X063294Y027977D01*
X063263Y027900D01*
X063500D01*
Y028137D01*
D02*
G37*
G36*
X058107Y028112D02*
X057930D01*
Y027915D01*
X058107D01*
Y028112D01*
D02*
G37*
G36*
X063700Y028137D02*
Y027900D01*
X063937D01*
X063906Y027977D01*
X063850Y028050D01*
X063777Y028106D01*
X063700Y028137D01*
D02*
G37*
%LPD*%
G36*
X058560Y027063D02*
X058818D01*
X058900Y027047D01*
X058982Y027063D01*
X059040D01*
Y027063D01*
X059090Y027071D01*
X059727Y026434D01*
X059727Y026434D01*
X059776Y026401D01*
X059834Y026390D01*
X060196D01*
X060434Y026152D01*
X060413Y026102D01*
X060357D01*
Y026000D01*
X060460D01*
Y026055D01*
X060510Y026076D01*
X062157Y024429D01*
X062147Y024380D01*
X062100Y024361D01*
X062014Y024295D01*
X061948Y024209D01*
X061939Y024187D01*
X061889D01*
X061880Y024209D01*
X061814Y024295D01*
X061727Y024361D01*
X061627Y024403D01*
X061519Y024417D01*
X061411Y024403D01*
X061354Y024379D01*
X061026Y024707D01*
X060977Y024740D01*
X060919Y024751D01*
X060919Y024751D01*
X060363D01*
X059262Y025852D01*
X059285Y025899D01*
X059300Y025897D01*
X059378Y025908D01*
X059451Y025938D01*
X059514Y025986D01*
X059562Y026049D01*
X059583Y026100D01*
X059300D01*
Y026200D01*
X059200D01*
Y026483D01*
X059149Y026462D01*
X059119Y026440D01*
X059069Y026464D01*
Y026573D01*
X059069Y026573D01*
X059058Y026631D01*
X059025Y026680D01*
X059025Y026680D01*
X058739Y026966D01*
X058690Y026999D01*
X058632Y027010D01*
X058632Y027010D01*
X058483D01*
Y027152D01*
X058560D01*
Y027063D01*
D02*
G37*
%LPC*%
G36*
X060157Y026102D02*
X060055D01*
Y026101D01*
X059742D01*
Y025993D01*
X059721Y025979D01*
X059666Y025897D01*
X059647Y025800D01*
X059666Y025703D01*
X059721Y025621D01*
X059803Y025566D01*
X059900Y025547D01*
X059997Y025566D01*
X060079Y025621D01*
X060130Y025698D01*
X060157D01*
Y025900D01*
Y026102D01*
D02*
G37*
G36*
X060460Y025800D02*
X060357D01*
Y025698D01*
X060460D01*
Y025800D01*
D02*
G37*
G36*
X060800Y025483D02*
Y025300D01*
X060983D01*
X060962Y025351D01*
X060914Y025414D01*
X060851Y025462D01*
X060800Y025483D01*
D02*
G37*
G36*
X060983Y025100D02*
X060800D01*
Y024917D01*
X060851Y024938D01*
X060914Y024986D01*
X060962Y025049D01*
X060983Y025100D01*
D02*
G37*
G36*
X060600D02*
X060417D01*
X060438Y025049D01*
X060486Y024986D01*
X060549Y024938D01*
X060600Y024917D01*
Y025100D01*
D02*
G37*
G36*
Y025483D02*
X060549Y025462D01*
X060486Y025414D01*
X060438Y025351D01*
X060417Y025300D01*
X060600D01*
Y025483D01*
D02*
G37*
G36*
X059400Y026483D02*
Y026300D01*
X059583D01*
X059562Y026351D01*
X059514Y026414D01*
X059451Y026462D01*
X059400Y026483D01*
D02*
G37*
%LPD*%
D10*
X060323Y022700D02*
D03*
X060677D02*
D03*
X063477Y030400D02*
D03*
X063123D02*
D03*
X064406D02*
D03*
X064761D02*
D03*
D11*
X063400Y025940D02*
D03*
Y029460D02*
D03*
D12*
X059628Y021528D02*
D03*
Y022719D02*
D03*
D13*
X068200Y031876D02*
D03*
Y031324D02*
D03*
D14*
X066400Y027191D02*
D03*
Y026009D02*
D03*
X067700Y027191D02*
D03*
Y026009D02*
D03*
D15*
X057400Y021600D02*
D03*
X056400D02*
D03*
D16*
X058480D02*
D03*
X055325D02*
D03*
D17*
X057160Y022650D02*
D03*
X056900D02*
D03*
X056644D02*
D03*
X057420D02*
D03*
X056388D02*
D03*
D18*
X058800Y027697D02*
D03*
Y027303D02*
D03*
D19*
X060457Y027000D02*
D03*
X060143D02*
D03*
X060143Y030000D02*
D03*
X060457D02*
D03*
X060257Y025900D02*
D03*
X059943D02*
D03*
D20*
X067300Y039015D02*
D03*
Y038385D02*
D03*
X061800Y039015D02*
D03*
Y038385D02*
D03*
X056300Y039015D02*
D03*
Y038385D02*
D03*
X068000Y030285D02*
D03*
Y030915D02*
D03*
D21*
X067200Y037161D02*
D03*
X066700D02*
D03*
X066200D02*
D03*
X065200D02*
D03*
X064700D02*
D03*
X064200D02*
D03*
X058700D02*
D03*
X059200D02*
D03*
X059700D02*
D03*
X060700D02*
D03*
X061200D02*
D03*
X061700D02*
D03*
X056200D02*
D03*
X055700D02*
D03*
X055200D02*
D03*
X054200D02*
D03*
X053700D02*
D03*
X053200D02*
D03*
D22*
X065700Y033145D02*
D03*
X060200D02*
D03*
X054700D02*
D03*
D23*
X055885Y024170D02*
D03*
X057920D02*
D03*
Y025430D02*
D03*
X055885D02*
D03*
D24*
X056593Y027815D02*
D03*
Y027185D02*
D03*
X058207Y027815D02*
D03*
Y027185D02*
D03*
X056593Y029815D02*
D03*
Y029185D02*
D03*
X058207Y029815D02*
D03*
Y029185D02*
D03*
D25*
X053070Y022200D02*
D03*
X054330D02*
D03*
X053070Y023300D02*
D03*
X054330D02*
D03*
X053070Y024400D02*
D03*
X054330D02*
D03*
X053070Y025500D02*
D03*
X054330D02*
D03*
D26*
X055300Y027003D02*
D03*
Y027397D02*
D03*
X055800Y027003D02*
D03*
Y027397D02*
D03*
X058800Y029497D02*
D03*
Y029103D02*
D03*
D27*
X059825Y029315D02*
D03*
Y027685D02*
D03*
X060775D02*
D03*
Y029315D02*
D03*
D28*
X066006Y028700D02*
D03*
X067994D02*
D03*
D29*
X067256Y030216D02*
D03*
Y030472D02*
D03*
Y030728D02*
D03*
Y030984D02*
D03*
X065544Y030216D02*
D03*
Y030472D02*
D03*
Y030728D02*
D03*
Y030984D02*
D03*
D30*
X066400Y030600D02*
D03*
D31*
X063761Y031077D02*
D03*
Y030723D02*
D03*
X064784Y031077D02*
D03*
Y030723D02*
D03*
D32*
X064384Y031057D02*
D03*
Y030743D02*
D03*
D33*
X068016Y036373D02*
D03*
X068272D02*
D03*
X068528D02*
D03*
X068784D02*
D03*
X068016Y038027D02*
D03*
X068272D02*
D03*
X068528D02*
D03*
X068784D02*
D03*
X062516Y036373D02*
D03*
X062772D02*
D03*
X063028D02*
D03*
X063284D02*
D03*
X062516Y038027D02*
D03*
X062772D02*
D03*
X063028D02*
D03*
X063284D02*
D03*
X057016Y036373D02*
D03*
X057272D02*
D03*
X057528D02*
D03*
X057784D02*
D03*
X057016Y038027D02*
D03*
X057272D02*
D03*
X057528D02*
D03*
X057784D02*
D03*
D34*
X068400Y037200D02*
D03*
X062900D02*
D03*
X057400D02*
D03*
D35*
X057024Y038700D02*
D03*
X057576D02*
D03*
X062524D02*
D03*
X063076D02*
D03*
X068024D02*
D03*
X068576D02*
D03*
D36*
X067400Y027700D02*
X067500Y027800D01*
Y029800D01*
X067670Y029970D01*
X056325Y023137D02*
X056388Y023074D01*
X056434Y023541D02*
X056644Y023331D01*
X055534Y023541D02*
X056434D01*
X056500Y023700D02*
X056900Y023300D01*
X055600Y023700D02*
X056500D01*
X056644Y022650D02*
Y023331D01*
X056900Y022650D02*
Y023300D01*
X059159Y021759D02*
Y025266D01*
X059100Y021700D02*
X059159Y021759D01*
X058500Y025925D02*
X059159Y025266D01*
X058900Y023200D02*
Y025300D01*
X058500Y024700D02*
X058600D01*
X059628Y022719D02*
X059646Y022700D01*
X060323D01*
X060677D02*
X060877Y022900D01*
X061700D01*
X058100Y026100D02*
X058900Y025300D01*
X063477Y030400D02*
X063923D01*
X063761Y030684D02*
Y030723D01*
X063477Y030400D02*
X063761Y030684D01*
X063923Y030400D02*
X064323Y030000D01*
X055192Y023883D02*
Y026876D01*
Y023883D02*
X055534Y023541D01*
X055351Y023949D02*
X055600Y023700D01*
X055351Y023949D02*
Y026535D01*
X056388Y022650D02*
Y023074D01*
X052568Y034986D02*
X067076D01*
X052400Y035200D02*
X066843D01*
X062772Y036159D02*
Y036373D01*
X062751Y036159D02*
X062772D01*
X062541Y035949D02*
X062751Y036159D01*
X062541Y035841D02*
Y035949D01*
X062091Y035391D02*
X062541Y035841D01*
X058465Y035550D02*
X061693D01*
X058456Y035559D02*
X058465Y035550D01*
X052832Y035559D02*
X058456D01*
X058399Y035391D02*
X062091D01*
X058390Y035400D02*
X058399Y035391D01*
X052200Y035400D02*
X058390D01*
X061693Y035550D02*
X062516Y036373D01*
X051882Y035848D02*
X052034Y036000D01*
X051882Y025818D02*
Y035848D01*
X052000Y036300D02*
X052173D01*
X052034Y036000D02*
X052248D01*
X052330Y035918D01*
X052173Y036300D02*
X052396Y036077D01*
X056720D01*
X052330Y035918D02*
X057008D01*
X052136Y035700D02*
X052182D01*
X052118Y035718D02*
X052136Y035700D01*
X052041Y035241D02*
X052200Y035400D01*
X052041Y026059D02*
Y035241D01*
X052300Y035100D02*
X052400Y035200D01*
X067076Y034986D02*
X068272Y036182D01*
X051882Y025818D02*
X052400Y025300D01*
X052041Y026059D02*
X052400Y025700D01*
X052300Y034718D02*
X052568Y034986D01*
X052673Y035718D02*
X052832Y035559D01*
X052200Y035718D02*
X052673D01*
X059885Y029315D02*
X060400Y028800D01*
X059825Y029315D02*
X059885D01*
X058759Y025916D02*
Y026507D01*
X060559Y024441D02*
X060732Y024269D01*
X060234Y024441D02*
X060559D01*
X058759Y025916D02*
X060234Y024441D01*
X060300Y024600D02*
X060919D01*
X058918Y025982D02*
X060300Y024600D01*
X058918Y025982D02*
Y026573D01*
X059900Y026700D02*
X060325D01*
X062425Y024600D02*
X066694D01*
X060325Y026700D02*
X062425Y024600D01*
X062359Y024441D02*
X066065D01*
X060259Y026541D02*
X062359Y024441D01*
X059834Y026541D02*
X060259D01*
X058500Y025925D02*
Y026400D01*
X057493Y026859D02*
X058632D01*
X057659Y026659D02*
X058607D01*
X058100Y026100D02*
Y026400D01*
X058607Y026659D02*
X058759Y026507D01*
X058632Y026859D02*
X058918Y026573D01*
X057600Y026600D02*
X057659Y026659D01*
X059900Y027200D02*
X060100Y027000D01*
X060143D01*
X066016Y030216D02*
X066400Y030600D01*
X065544Y030216D02*
X066016D01*
X063400Y029460D02*
X063840Y029900D01*
X064800Y030000D02*
X065272Y030472D01*
X064323Y030000D02*
X064800D01*
X062700Y030400D02*
X063123D01*
X062300Y030000D02*
X062700Y030400D01*
X062300Y027100D02*
Y030000D01*
Y027100D02*
X063143Y026257D01*
X065272Y030472D02*
X065544D01*
X064406Y030400D02*
X064446D01*
X064500Y029400D02*
X065000Y029900D01*
X066940D01*
X067256Y030216D01*
X067670Y029970D02*
Y030298D01*
X067969Y030984D02*
X068000Y031015D01*
Y031100D02*
Y031324D01*
Y031015D02*
Y031100D01*
X063143Y026257D02*
X063600D01*
X066065Y024441D02*
X067700Y022806D01*
X066694Y024600D02*
X067700Y023594D01*
X067496Y030472D02*
X067670Y030298D01*
X067256Y030472D02*
X067496D01*
X067256Y030984D02*
X067969D01*
X057920Y025280D02*
X058500Y024700D01*
X053070Y023800D02*
X053800D01*
X065200Y037161D02*
X066739Y038700D01*
X059700Y037161D02*
X061239Y038700D01*
X059100Y028500D02*
X059318Y028282D01*
X059159Y027216D02*
X059834Y026541D01*
X058700Y028500D02*
X059159Y028041D01*
Y027216D02*
Y028041D01*
X059318Y027282D02*
Y028282D01*
Y027282D02*
X059900Y026700D01*
X060732Y024000D02*
Y024269D01*
X060919Y024600D02*
X061519Y024000D01*
X057200Y026600D02*
X057234D01*
X057493Y026859D01*
X059103Y028800D02*
X059400D01*
X055192Y026876D02*
X055300Y026983D01*
X055351Y026535D02*
X055800Y026983D01*
X055300Y027417D02*
Y027500D01*
X055700Y027900D01*
X055800Y027417D02*
X056000Y027617D01*
Y028200D01*
X058325Y027303D02*
X058800D01*
X058207Y027185D02*
X058325Y027303D01*
X058800Y029103D02*
X059103Y028800D01*
X060400Y027890D02*
X060690Y027600D01*
X060400Y027890D02*
Y027900D01*
X059825Y029682D02*
X060143Y030000D01*
X059825Y029315D02*
Y029682D01*
X060457Y027000D02*
X060775Y027318D01*
Y027685D01*
X060690Y027600D02*
X060775Y027685D01*
X063028Y038652D02*
X063076Y038700D01*
X063028Y038027D02*
Y038652D01*
X068528D02*
X068576Y038700D01*
X068528Y038027D02*
Y038652D01*
X059700Y037161D02*
X061239Y038700D01*
X062524D01*
X065200Y037161D02*
X066739Y038700D01*
X068024D01*
X054200Y037161D02*
X055739Y038700D01*
X057024D01*
X067300Y039015D02*
X067485Y039200D01*
X068100D01*
X068272Y039028D01*
Y038027D02*
Y039028D01*
X068016Y038692D02*
X068024Y038700D01*
X068016Y038027D02*
Y038692D01*
X062600Y039200D02*
X062772Y039028D01*
X061985Y039200D02*
X062600D01*
X061800Y039015D02*
X061985Y039200D01*
X062772Y038027D02*
Y039028D01*
X062516Y038027D02*
X062524Y038035D01*
Y038700D01*
X056300Y039015D02*
X056485Y039200D01*
X057100D01*
X057272Y039028D01*
Y038027D02*
Y039028D01*
X057016Y038027D02*
X057024Y038035D01*
Y038700D01*
X057528Y038628D02*
X057600Y038700D01*
X057528Y038027D02*
Y038628D01*
X063400Y036200D02*
Y036257D01*
X057900Y036200D02*
Y036257D01*
X052118Y035718D02*
X052200D01*
X052159Y035759D02*
X052200Y035718D01*
X052182Y035700D02*
X052200Y035718D01*
X057008Y035918D02*
X057272Y036182D01*
X056720Y036077D02*
X057016Y036373D01*
X057272Y036182D02*
Y036373D01*
X057784D02*
X057900Y036257D01*
X066843Y035200D02*
X068016Y036373D01*
X063284D02*
X063400Y036257D01*
X068900Y036200D02*
Y036257D01*
X068784Y036373D02*
X068900Y036257D01*
X068272Y036182D02*
Y036373D01*
X052300Y026100D02*
X052341Y026141D01*
X058289Y029103D02*
X058800D01*
X058207Y029185D02*
X058289Y029103D01*
X056593Y029815D02*
X056678Y029900D01*
X057000D01*
X064367Y030400D02*
X064406D01*
X064172Y030595D02*
X064367Y030400D01*
X064172Y030595D02*
Y030890D01*
X064340Y031057D01*
X064764D01*
X065700Y031994D01*
Y033145D01*
X064423Y030743D02*
X064803D01*
X065045Y030984D01*
X065544D01*
X064800Y030400D02*
X064900D01*
X065228Y030728D01*
X065544D01*
X067256D02*
X067557D01*
X067900Y030385D01*
X068000D01*
X052341Y026141D02*
X052400Y026082D01*
X052300Y026100D02*
Y034718D01*
D37*
X065955Y033145D02*
X068000Y031100D01*
X068800Y026700D02*
Y035500D01*
X068109Y026009D02*
X068800Y026700D01*
X068500Y035800D02*
X068800Y035500D01*
X063460Y029400D02*
X064500D01*
X065700Y031830D02*
Y031974D01*
X063400Y029460D02*
X063460Y029400D01*
X065700Y033145D02*
X065955D01*
X063600Y026257D02*
X063847Y026009D01*
X066400D01*
X053070Y023800D02*
Y024400D01*
Y023300D02*
Y023800D01*
Y025500D02*
Y028570D01*
Y024400D02*
Y025500D01*
Y022200D02*
Y023300D01*
X066400Y026009D02*
X067700D01*
X068109D01*
D38*
X062976Y035800D02*
X063028Y035852D01*
X057559Y035841D02*
X058632D01*
X058700Y035909D01*
X059825Y027275D02*
X059900Y027200D01*
X059825Y027275D02*
Y027685D01*
X056200Y037161D02*
Y038285D01*
X056300Y038385D01*
X061700Y037161D02*
Y038285D01*
X061800Y038385D01*
X067200Y037161D02*
Y038285D01*
X067300Y038385D01*
X063028Y035852D02*
Y036373D01*
X057528Y035928D02*
Y036373D01*
X057500Y035900D02*
X057528Y035928D01*
X057500Y035900D02*
X057559Y035841D01*
X068528Y035828D02*
Y036373D01*
X068500Y035800D02*
X068528Y035828D01*
X054300Y026800D02*
Y027400D01*
D39*
X063019Y035741D02*
X063590D01*
X063840Y035991D01*
X064200D01*
D40*
X061906Y021900D02*
D03*
X062694D02*
D03*
X065394D02*
D03*
X064606D02*
D03*
X063881Y024000D02*
D03*
X059944D02*
D03*
X060732D02*
D03*
X061519D02*
D03*
X062309D02*
D03*
X063099D02*
D03*
X064668D02*
D03*
X065456D02*
D03*
X067700Y022019D02*
D03*
Y022806D02*
D03*
Y023594D02*
D03*
Y024384D02*
D03*
D41*
X068000Y020300D02*
D03*
X052900D02*
D03*
D42*
X067000Y029500D02*
D03*
X064400Y038800D02*
D03*
X065100D02*
D03*
X065800D02*
D03*
X066500D02*
D03*
X058900D02*
D03*
X059600D02*
D03*
X060300D02*
D03*
X061000D02*
D03*
X053400D02*
D03*
X054100D02*
D03*
X054800D02*
D03*
X055500D02*
D03*
X062976Y035800D02*
D03*
X058700Y035909D02*
D03*
X064200Y035991D02*
D03*
X068400Y039700D02*
D03*
X062900Y040200D02*
D03*
X057400D02*
D03*
X052200Y038100D02*
D03*
X057300Y030800D02*
D03*
X056700Y024900D02*
D03*
X052200Y023800D02*
D03*
X054300Y021200D02*
D03*
X068600Y024000D02*
D03*
X061700Y028000D02*
D03*
X065400Y029500D02*
D03*
X067000Y028200D02*
D03*
X061300Y030800D02*
D03*
X063600Y027800D02*
D03*
X064500Y029400D02*
D03*
X068000Y031100D02*
D03*
X064761Y025994D02*
D03*
X064400Y038100D02*
D03*
X065100D02*
D03*
X065800D02*
D03*
X066500D02*
D03*
X064400Y037400D02*
D03*
X065100D02*
D03*
X065800D02*
D03*
X066500D02*
D03*
X058900Y038100D02*
D03*
X059600D02*
D03*
X060300D02*
D03*
X061000D02*
D03*
X058900Y037400D02*
D03*
X059600D02*
D03*
X060300D02*
D03*
X061000D02*
D03*
X055500D02*
D03*
X054800D02*
D03*
X054100D02*
D03*
X053400D02*
D03*
X055500Y038100D02*
D03*
X054800D02*
D03*
X054100D02*
D03*
X053400D02*
D03*
X068500Y035800D02*
D03*
X068000Y028300D02*
D03*
Y029000D02*
D03*
X065500Y023100D02*
D03*
X054300Y027400D02*
D03*
Y026800D02*
D03*
X067000Y027200D02*
D03*
D43*
X067400Y027700D02*
D03*
X068100Y031800D02*
D03*
X068200Y034100D02*
D03*
X057400Y037200D02*
D03*
X068400D02*
D03*
X062900D02*
D03*
X058000Y024200D02*
D03*
X059300Y026200D02*
D03*
X060700Y025200D02*
D03*
X057400Y026100D02*
D03*
X059900Y027200D02*
D03*
X063481Y029821D02*
D03*
X064400Y030000D02*
D03*
X062300D02*
D03*
X055900Y025600D02*
D03*
X068600Y038700D02*
D03*
X063100D02*
D03*
X057600D02*
D03*
X063400Y036200D02*
D03*
X057500Y035900D02*
D03*
X057900Y036200D02*
D03*
X068900D02*
D03*
X066400Y031100D02*
D03*
D44*
X056325Y023137D02*
D03*
X059100Y021700D02*
D03*
X058900Y023200D02*
D03*
X058600Y024700D02*
D03*
X061700Y022900D02*
D03*
X052182Y035700D02*
D03*
X052300Y035100D02*
D03*
X052000Y036300D02*
D03*
X057000Y029900D02*
D03*
X060100Y028400D02*
D03*
X060400Y028800D02*
D03*
X058100Y026400D02*
D03*
X058500D02*
D03*
X053800Y023800D02*
D03*
X058700Y028500D02*
D03*
X059100D02*
D03*
X057600Y026600D02*
D03*
X057200D02*
D03*
X058900Y027300D02*
D03*
X059400Y028800D02*
D03*
X059900Y025800D02*
D03*
X055700Y027900D02*
D03*
X056000Y028200D02*
D03*
X060400Y027900D02*
D03*
X052400Y025300D02*
D03*
Y025700D02*
D03*
Y026100D02*
D03*
D45*
X066597Y030403D02*
D03*
X066203D02*
D03*
X066597Y030797D02*
D03*
X066203D02*
D03*
M02*
