G04 Layer_Color=65535*
%FSAX24Y24*%
%MOIN*%
G70*
G01*
G75*
%ADD36C,0.0100*%
%ADD60C,0.0098*%
%ADD61C,0.0080*%
%ADD62C,0.0080*%
%ADD63C,0.0079*%
%ADD64C,0.0050*%
D36*
X064200Y029725D02*
X065425D01*
X061375D02*
X062600D01*
X061375Y025675D02*
Y029725D01*
Y025675D02*
X062600D01*
X065425D02*
Y029725D01*
X064200Y025675D02*
X065425D01*
X059575Y028195D02*
Y028805D01*
X061025Y028195D02*
Y028805D01*
X056500Y028300D02*
Y028700D01*
X056700D01*
X056767Y028633D01*
Y028500D01*
X056700Y028433D01*
X056500D01*
X056633D02*
X056767Y028300D01*
X057166Y028700D02*
X056900D01*
Y028300D01*
X057166D01*
X056900Y028500D02*
X057033D01*
X057566Y028633D02*
X057500Y028700D01*
X057366D01*
X057300Y028633D01*
Y028567D01*
X057366Y028500D01*
X057500D01*
X057566Y028433D01*
Y028367D01*
X057500Y028300D01*
X057366D01*
X057300Y028367D01*
X057966Y028700D02*
X057700D01*
Y028300D01*
X057966D01*
X057700Y028500D02*
X057833D01*
X058099Y028700D02*
X058366D01*
X058233D01*
Y028300D01*
X056500Y030700D02*
Y030300D01*
X056700D01*
X056767Y030367D01*
Y030433D01*
X056700Y030500D01*
X056500D01*
X056700D01*
X056767Y030567D01*
Y030633D01*
X056700Y030700D01*
X056500D01*
X057100D02*
X056967D01*
X056900Y030633D01*
Y030367D01*
X056967Y030300D01*
X057100D01*
X057166Y030367D01*
Y030633D01*
X057100Y030700D01*
X057500D02*
X057366D01*
X057300Y030633D01*
Y030367D01*
X057366Y030300D01*
X057500D01*
X057566Y030367D01*
Y030633D01*
X057500Y030700D01*
X057700D02*
X057966D01*
X057833D01*
Y030300D01*
X060567Y021467D02*
X060500Y021400D01*
Y021267D01*
X060567Y021200D01*
X060833D01*
X060900Y021267D01*
Y021400D01*
X060833Y021467D01*
X060900Y021600D02*
X060633D01*
X060500Y021733D01*
X060633Y021866D01*
X060900D01*
X060700D01*
Y021600D01*
X060900Y022000D02*
X060500D01*
X060900Y022266D01*
X060500D01*
X068667Y021467D02*
X068600Y021400D01*
Y021267D01*
X068667Y021200D01*
X068933D01*
X069000Y021267D01*
Y021400D01*
X068933Y021467D01*
X068600Y021800D02*
Y021667D01*
X068667Y021600D01*
X068933D01*
X069000Y021667D01*
Y021800D01*
X068933Y021866D01*
X068667D01*
X068600Y021800D01*
X069000Y022000D02*
X068600D01*
X068733Y022133D01*
X068600Y022266D01*
X069000D01*
Y022400D02*
X068600D01*
X068733Y022533D01*
X068600Y022666D01*
X069000D01*
X058500Y023567D02*
Y023300D01*
X058900D01*
Y023567D01*
X058700Y023300D02*
Y023433D01*
X058900Y023700D02*
X058500D01*
X058900Y023966D01*
X058500D01*
X058567Y024366D02*
X058500Y024300D01*
Y024166D01*
X058567Y024100D01*
X058833D01*
X058900Y024166D01*
Y024300D01*
X058833Y024366D01*
X058500Y024700D02*
Y024566D01*
X058567Y024500D01*
X058833D01*
X058900Y024566D01*
Y024700D01*
X058833Y024766D01*
X058567D01*
X058500Y024700D01*
Y024899D02*
X058900D01*
Y025099D01*
X058833Y025166D01*
X058567D01*
X058500Y025099D01*
Y024899D01*
Y025566D02*
Y025299D01*
X058900D01*
Y025566D01*
X058700Y025299D02*
Y025433D01*
X058900Y025699D02*
X058500D01*
Y025899D01*
X058567Y025966D01*
X058700D01*
X058767Y025899D01*
Y025699D01*
Y025833D02*
X058900Y025966D01*
D60*
X067672Y037161D02*
G03*
X067672Y037161I-000049J000000D01*
G01*
X062172D02*
G03*
X062172Y037161I-000049J000000D01*
G01*
X056672D02*
G03*
X056672Y037161I-000049J000000D01*
G01*
X065593Y031289D02*
G03*
X065593Y031289I-000049J000000D01*
G01*
X067760Y036373D02*
G03*
X067760Y036373I-000049J000000D01*
G01*
X062260D02*
G03*
X062260Y036373I-000049J000000D01*
G01*
X056760D02*
G03*
X056760Y036373I-000049J000000D01*
G01*
D61*
X059392Y022246D02*
X059628Y022008D01*
X059392Y022246D02*
X059868D01*
X059628Y022008D02*
X059868Y022246D01*
X059352Y022008D02*
X059628D01*
X059908D01*
X059234Y021178D02*
Y021728D01*
Y021178D02*
X060028D01*
Y021728D01*
X059234Y022522D02*
Y023073D01*
X060028D01*
Y022522D02*
Y023073D01*
X061139Y021222D02*
Y023000D01*
X063481D01*
X062694Y021222D02*
X063481D01*
X061906Y021418D02*
X062694D01*
Y021222D02*
Y021418D01*
X061906Y021222D02*
Y021418D01*
X063481Y021222D02*
Y023000D01*
X066181Y021222D02*
Y023000D01*
X064606Y021222D02*
Y021418D01*
X065394Y021222D02*
Y021418D01*
X064606D02*
X065394D01*
Y021222D02*
X066181D01*
X063839Y023000D02*
X066181D01*
X063839Y021222D02*
Y023000D01*
X059157Y023331D02*
Y025100D01*
X066243D01*
X063094Y023331D02*
X066243D01*
X062306Y023518D02*
X063094D01*
Y023331D02*
Y023518D01*
X066243Y023331D02*
Y025100D01*
X062306Y023331D02*
Y023518D01*
X059157Y023331D02*
X062306D01*
X066600Y021251D02*
X068378D01*
X066600D02*
Y025168D01*
X068378Y023594D02*
Y025168D01*
Y021251D02*
Y022806D01*
X068182D02*
Y023594D01*
X068378D01*
X068182Y022806D02*
X068378D01*
X066600Y025168D02*
X068378D01*
X057770Y022180D02*
Y022730D01*
X056034Y022180D02*
X057770D01*
X056034D02*
Y022730D01*
X055561Y021029D02*
X058240D01*
Y022100D02*
Y022730D01*
X057770D02*
X058240D01*
X055561D02*
X056034D01*
X055561Y022100D02*
Y022730D01*
X056900Y023800D02*
X057900Y024800D01*
Y024460D02*
Y024800D01*
Y025140D01*
X055900Y024450D02*
Y025120D01*
X057890Y023779D02*
Y023868D01*
X055932Y023779D02*
X057890D01*
X055932D02*
Y023780D01*
X055912D02*
X055932D01*
X055912D02*
Y023887D01*
X057890Y025740D02*
Y025830D01*
X055940D02*
X057890D01*
X055940D02*
Y025840D01*
X055920D02*
X055940D01*
X055920Y025740D02*
Y025840D01*
D62*
X061139Y021222D02*
X061906D01*
X063839D02*
X064606D01*
D63*
X068338Y031580D02*
Y031620D01*
X068062Y031580D02*
Y031620D01*
X066892Y026383D02*
Y026817D01*
X065908Y026383D02*
Y026817D01*
X067143Y038680D02*
Y038720D01*
X067457Y038680D02*
Y038720D01*
X061643Y038680D02*
Y038720D01*
X061957Y038680D02*
Y038720D01*
X056143Y038680D02*
Y038720D01*
X056457Y038680D02*
Y038720D01*
X067767Y035035D02*
Y036137D01*
X063633D02*
X067767D01*
X063633Y035035D02*
Y036137D01*
X058133Y035035D02*
Y036137D01*
X062267D01*
Y035035D02*
Y036137D01*
X056767Y035035D02*
Y036137D01*
X052633D02*
X056767D01*
X052633Y035035D02*
Y036137D01*
X056888Y026949D02*
X057912D01*
Y028051D01*
X056888Y026949D02*
Y028051D01*
X057912D01*
X056888Y028949D02*
X057912D01*
Y030051D01*
X056888Y028949D02*
Y030051D01*
X057912D01*
X053483Y022535D02*
X053917D01*
X053483Y021865D02*
X053917D01*
X053483Y023635D02*
X053917D01*
X053483Y022965D02*
X053917D01*
X053483Y024735D02*
X053917D01*
X053483Y024065D02*
X053917D01*
X053483Y025835D02*
X053917D01*
X053483Y025165D02*
X053917D01*
X068192Y026383D02*
Y026817D01*
X067208Y026383D02*
Y026817D01*
X066429Y029704D02*
X067571D01*
X066429Y027696D02*
X067571D01*
X066006Y029990D02*
X066794D01*
X066006Y031210D02*
X066794D01*
X067843Y030580D02*
Y030620D01*
X068157Y030580D02*
Y030620D01*
X067790Y036787D02*
Y037613D01*
X069010Y036787D02*
Y037613D01*
X062290Y036787D02*
Y037613D01*
X063510Y036787D02*
Y037613D01*
X056790Y036787D02*
Y037613D01*
X058010Y036787D02*
Y037613D01*
X057280Y038838D02*
X057320D01*
X057280Y038562D02*
X057320D01*
X062780Y038838D02*
X062820D01*
X062780Y038562D02*
X062820D01*
X068280Y038838D02*
X068320D01*
X068280Y038562D02*
X068320D01*
D64*
X060300Y022900D02*
Y023100D01*
X060400D01*
X060433Y023067D01*
Y023000D01*
X060400Y022967D01*
X060300D01*
X060367D02*
X060433Y022900D01*
X060500D02*
X060567D01*
X060533D01*
Y023100D01*
X060500Y023067D01*
X063700Y030300D02*
Y030500D01*
X063800D01*
X063833Y030467D01*
Y030400D01*
X063800Y030367D01*
X063700D01*
X063767D02*
X063833Y030300D01*
X064033D02*
X063900D01*
X064033Y030433D01*
Y030467D01*
X064000Y030500D01*
X063933D01*
X063900Y030467D01*
X064100Y030300D02*
X064167D01*
X064133D01*
Y030500D01*
X064100Y030467D01*
X068533Y031433D02*
X068500Y031400D01*
Y031333D01*
X068533Y031300D01*
X068667D01*
X068700Y031333D01*
Y031400D01*
X068667Y031433D01*
X068700Y031633D02*
Y031500D01*
X068567Y031633D01*
X068533D01*
X068500Y031600D01*
Y031533D01*
X068533Y031500D01*
X068667Y031700D02*
X068700Y031733D01*
Y031800D01*
X068667Y031833D01*
X068533D01*
X068500Y031800D01*
Y031733D01*
X068533Y031700D01*
X068567D01*
X068600Y031733D01*
Y031833D01*
X068433Y027833D02*
X068400Y027800D01*
Y027733D01*
X068433Y027700D01*
X068567D01*
X068600Y027733D01*
Y027800D01*
X068567Y027833D01*
X068600Y028033D02*
Y027900D01*
X068467Y028033D01*
X068433D01*
X068400Y028000D01*
Y027933D01*
X068433Y027900D01*
X068600Y028200D02*
X068400D01*
X068500Y028100D01*
Y028233D01*
X063994Y030833D02*
X063961Y030800D01*
Y030733D01*
X063994Y030700D01*
X064127D01*
X064161Y030733D01*
Y030800D01*
X064127Y030833D01*
X064161Y031033D02*
Y030900D01*
X064027Y031033D01*
X063994D01*
X063961Y031000D01*
Y030933D01*
X063994Y030900D01*
Y031100D02*
X063961Y031133D01*
Y031200D01*
X063994Y031233D01*
X064027D01*
X064061Y031200D01*
Y031167D01*
Y031200D01*
X064094Y031233D01*
X064127D01*
X064161Y031200D01*
Y031133D01*
X064127Y031100D01*
X059200Y027400D02*
X059233D01*
X059300Y027467D01*
X059233Y027533D01*
X059200D01*
X059300Y027467D02*
X059400D01*
Y027600D02*
Y027667D01*
Y027633D01*
X059200D01*
X059233Y027600D01*
X067400Y039400D02*
X067200D01*
Y039500D01*
X067233Y039533D01*
X067300D01*
X067333Y039500D01*
Y039400D01*
Y039467D02*
X067400Y039533D01*
X067367Y039600D02*
X067400Y039633D01*
Y039700D01*
X067367Y039733D01*
X067233D01*
X067200Y039700D01*
Y039633D01*
X067233Y039600D01*
X067267D01*
X067300Y039633D01*
Y039733D01*
X061900Y039400D02*
X061700D01*
Y039500D01*
X061733Y039533D01*
X061800D01*
X061833Y039500D01*
Y039400D01*
Y039467D02*
X061900Y039533D01*
X061733Y039600D02*
X061700Y039633D01*
Y039700D01*
X061733Y039733D01*
X061767D01*
X061800Y039700D01*
X061833Y039733D01*
X061867D01*
X061900Y039700D01*
Y039633D01*
X061867Y039600D01*
X061833D01*
X061800Y039633D01*
X061767Y039600D01*
X061733D01*
X061800Y039633D02*
Y039700D01*
X056400Y039400D02*
X056200D01*
Y039500D01*
X056233Y039533D01*
X056300D01*
X056333Y039500D01*
Y039400D01*
Y039467D02*
X056400Y039533D01*
X056200Y039600D02*
Y039733D01*
X056233D01*
X056367Y039600D01*
X056400D01*
X068250Y035200D02*
X068050D01*
X068000Y035150D01*
Y035050D01*
X068050Y035000D01*
X068250D01*
X068300Y035050D01*
Y035150D01*
X068200Y035100D02*
X068300Y035200D01*
Y035150D02*
X068250Y035200D01*
X068050Y035300D02*
X068000Y035350D01*
Y035450D01*
X068050Y035500D01*
X068100D01*
X068150Y035450D01*
Y035400D01*
Y035450D01*
X068200Y035500D01*
X068250D01*
X068300Y035450D01*
Y035350D01*
X068250Y035300D01*
X062750Y035200D02*
X062550D01*
X062500Y035150D01*
Y035050D01*
X062550Y035000D01*
X062750D01*
X062800Y035050D01*
Y035150D01*
X062700Y035100D02*
X062800Y035200D01*
Y035150D02*
X062750Y035200D01*
X062800Y035500D02*
Y035300D01*
X062600Y035500D01*
X062550D01*
X062500Y035450D01*
Y035350D01*
X062550Y035300D01*
X057250Y035200D02*
X057050D01*
X057000Y035150D01*
Y035050D01*
X057050Y035000D01*
X057250D01*
X057300Y035050D01*
Y035150D01*
X057200Y035100D02*
X057300Y035200D01*
Y035150D02*
X057250Y035200D01*
X057300Y035300D02*
Y035400D01*
Y035350D01*
X057000D01*
X057050Y035300D01*
X058692Y028105D02*
X058658Y028139D01*
X058592D01*
X058558Y028105D01*
Y027972D01*
X058592Y027939D01*
X058658D01*
X058692Y027972D01*
X058758Y027939D02*
X058825D01*
X058792D01*
Y028139D01*
X058758Y028105D01*
X058925D02*
X058958Y028139D01*
X059025D01*
X059058Y028105D01*
Y027972D01*
X059025Y027939D01*
X058958D01*
X058925Y027972D01*
Y028105D01*
X060233Y030367D02*
X060200Y030400D01*
X060133D01*
X060100Y030367D01*
Y030233D01*
X060133Y030200D01*
X060200D01*
X060233Y030233D01*
X060300Y030400D02*
X060433D01*
Y030367D01*
X060300Y030233D01*
Y030200D01*
X060233Y026767D02*
X060200Y026800D01*
X060133D01*
X060100Y026767D01*
Y026633D01*
X060133Y026600D01*
X060200D01*
X060233Y026633D01*
X060300Y026767D02*
X060333Y026800D01*
X060400D01*
X060433Y026767D01*
Y026733D01*
X060400Y026700D01*
X060433Y026667D01*
Y026633D01*
X060400Y026600D01*
X060333D01*
X060300Y026633D01*
Y026667D01*
X060333Y026700D01*
X060300Y026733D01*
Y026767D01*
X060333Y026700D02*
X060400D01*
X060033Y026267D02*
X060000Y026300D01*
X059933D01*
X059900Y026267D01*
Y026133D01*
X059933Y026100D01*
X060000D01*
X060033Y026133D01*
X060233Y026300D02*
X060100D01*
Y026200D01*
X060167Y026233D01*
X060200D01*
X060233Y026200D01*
Y026133D01*
X060200Y026100D01*
X060133D01*
X060100Y026133D01*
X068333Y030533D02*
X068300Y030500D01*
Y030433D01*
X068333Y030400D01*
X068467D01*
X068500Y030433D01*
Y030500D01*
X068467Y030533D01*
X068500Y030600D02*
Y030667D01*
Y030633D01*
X068300D01*
X068333Y030600D01*
X068500Y030767D02*
Y030833D01*
Y030800D01*
X068300D01*
X068333Y030767D01*
X067333Y025567D02*
X067300Y025600D01*
X067233D01*
X067200Y025567D01*
Y025433D01*
X067233Y025400D01*
X067300D01*
X067333Y025433D01*
X067400Y025400D02*
X067467D01*
X067433D01*
Y025600D01*
X067400Y025567D01*
X067700Y025600D02*
X067633Y025567D01*
X067567Y025500D01*
Y025433D01*
X067600Y025400D01*
X067667D01*
X067700Y025433D01*
Y025467D01*
X067667Y025500D01*
X067567D01*
X066033Y025567D02*
X066000Y025600D01*
X065933D01*
X065900Y025567D01*
Y025433D01*
X065933Y025400D01*
X066000D01*
X066033Y025433D01*
X066100Y025400D02*
X066167D01*
X066133D01*
Y025600D01*
X066100Y025567D01*
X066267Y025600D02*
X066400D01*
Y025567D01*
X066267Y025433D01*
Y025400D01*
X057133Y039167D02*
X057100Y039200D01*
X057033D01*
X057000Y039167D01*
Y039033D01*
X057033Y039000D01*
X057100D01*
X057133Y039033D01*
X057200Y039000D02*
X057267D01*
X057233D01*
Y039200D01*
X057200Y039167D01*
X057367D02*
X057400Y039200D01*
X057467D01*
X057500Y039167D01*
Y039133D01*
X057467Y039100D01*
X057500Y039067D01*
Y039033D01*
X057467Y039000D01*
X057400D01*
X057367Y039033D01*
Y039067D01*
X057400Y039100D01*
X057367Y039133D01*
Y039167D01*
X057400Y039100D02*
X057467D01*
X062633Y039167D02*
X062600Y039200D01*
X062533D01*
X062500Y039167D01*
Y039033D01*
X062533Y039000D01*
X062600D01*
X062633Y039033D01*
X062700Y039000D02*
X062767D01*
X062733D01*
Y039200D01*
X062700Y039167D01*
X062867Y039033D02*
X062900Y039000D01*
X062967D01*
X063000Y039033D01*
Y039167D01*
X062967Y039200D01*
X062900D01*
X062867Y039167D01*
Y039133D01*
X062900Y039100D01*
X063000D01*
X068133Y039167D02*
X068100Y039200D01*
X068033D01*
X068000Y039167D01*
Y039033D01*
X068033Y039000D01*
X068100D01*
X068133Y039033D01*
X068333Y039000D02*
X068200D01*
X068333Y039133D01*
Y039167D01*
X068300Y039200D01*
X068233D01*
X068200Y039167D01*
X068400D02*
X068433Y039200D01*
X068500D01*
X068533Y039167D01*
Y039033D01*
X068500Y039000D01*
X068433D01*
X068400Y039033D01*
Y039167D01*
X052433Y022033D02*
X052400Y022000D01*
Y021933D01*
X052433Y021900D01*
X052567D01*
X052600Y021933D01*
Y022000D01*
X052567Y022033D01*
X052600Y022233D02*
Y022100D01*
X052467Y022233D01*
X052433D01*
X052400Y022200D01*
Y022133D01*
X052433Y022100D01*
X052400Y022433D02*
Y022300D01*
X052500D01*
X052467Y022367D01*
Y022400D01*
X052500Y022433D01*
X052567D01*
X052600Y022400D01*
Y022333D01*
X052567Y022300D01*
X052433Y023133D02*
X052400Y023100D01*
Y023033D01*
X052433Y023000D01*
X052567D01*
X052600Y023033D01*
Y023100D01*
X052567Y023133D01*
X052600Y023333D02*
Y023200D01*
X052467Y023333D01*
X052433D01*
X052400Y023300D01*
Y023233D01*
X052433Y023200D01*
X052400Y023533D02*
X052433Y023467D01*
X052500Y023400D01*
X052567D01*
X052600Y023433D01*
Y023500D01*
X052567Y023533D01*
X052533D01*
X052500Y023500D01*
Y023400D01*
X052433Y024233D02*
X052400Y024200D01*
Y024133D01*
X052433Y024100D01*
X052567D01*
X052600Y024133D01*
Y024200D01*
X052567Y024233D01*
X052600Y024433D02*
Y024300D01*
X052467Y024433D01*
X052433D01*
X052400Y024400D01*
Y024333D01*
X052433Y024300D01*
X052400Y024500D02*
Y024633D01*
X052433D01*
X052567Y024500D01*
X052600D01*
X052452Y025313D02*
X052418Y025279D01*
Y025213D01*
X052452Y025179D01*
X052585D01*
X052618Y025213D01*
Y025279D01*
X052585Y025313D01*
X052618Y025513D02*
Y025379D01*
X052485Y025513D01*
X052452D01*
X052418Y025479D01*
Y025413D01*
X052452Y025379D01*
Y025579D02*
X052418Y025613D01*
Y025679D01*
X052452Y025713D01*
X052485D01*
X052518Y025679D01*
X052552Y025713D01*
X052585D01*
X052618Y025679D01*
Y025613D01*
X052585Y025579D01*
X052552D01*
X052518Y025613D01*
X052485Y025579D01*
X052452D01*
X052518Y025613D02*
Y025679D01*
X061400Y030300D02*
Y030000D01*
X061600D01*
X061700D02*
X061800D01*
X061750D01*
Y030300D01*
X061700Y030250D01*
X055100Y026600D02*
Y026800D01*
X055200D01*
X055233Y026767D01*
Y026700D01*
X055200Y026667D01*
X055100D01*
X055167D02*
X055233Y026600D01*
X055433D02*
X055300D01*
X055433Y026733D01*
Y026767D01*
X055400Y026800D01*
X055333D01*
X055300Y026767D01*
X055700Y026600D02*
Y026800D01*
X055800D01*
X055833Y026767D01*
Y026700D01*
X055800Y026667D01*
X055700D01*
X055767D02*
X055833Y026600D01*
X055900Y026767D02*
X055933Y026800D01*
X056000D01*
X056033Y026767D01*
Y026733D01*
X056000Y026700D01*
X055967D01*
X056000D01*
X056033Y026667D01*
Y026633D01*
X056000Y026600D01*
X055933D01*
X055900Y026633D01*
X065161Y030700D02*
X064961D01*
Y030800D01*
X064994Y030833D01*
X065061D01*
X065094Y030800D01*
Y030700D01*
Y030767D02*
X065161Y030833D01*
Y031000D02*
X064961D01*
X065061Y030900D01*
Y031033D01*
X058572Y029705D02*
Y029905D01*
X058672D01*
X058705Y029872D01*
Y029805D01*
X058672Y029772D01*
X058572D01*
X058639D02*
X058705Y029705D01*
X058905Y029905D02*
X058772D01*
Y029805D01*
X058839Y029838D01*
X058872D01*
X058905Y029805D01*
Y029738D01*
X058872Y029705D01*
X058805D01*
X058772Y029738D01*
X062394Y030300D02*
Y030500D01*
X062494D01*
X062527Y030467D01*
Y030400D01*
X062494Y030367D01*
X062394D01*
X062460D02*
X062527Y030300D01*
X062594D02*
X062660D01*
X062627D01*
Y030500D01*
X062594Y030467D01*
X062893Y030500D02*
X062827Y030467D01*
X062760Y030400D01*
Y030333D01*
X062793Y030300D01*
X062860D01*
X062893Y030333D01*
Y030367D01*
X062860Y030400D01*
X062760D01*
X063561Y030700D02*
X063361D01*
Y030800D01*
X063394Y030833D01*
X063461D01*
X063494Y030800D01*
Y030700D01*
Y030767D02*
X063561Y030833D01*
Y030900D02*
Y030967D01*
Y030933D01*
X063361D01*
X063394Y030900D01*
X063361Y031067D02*
Y031200D01*
X063394D01*
X063527Y031067D01*
X063561D01*
X056600Y037800D02*
X056767D01*
X056800Y037833D01*
Y037900D01*
X056767Y037933D01*
X056600D01*
X056800Y038100D02*
X056600D01*
X056700Y038000D01*
Y038133D01*
X062100Y037800D02*
X062267D01*
X062300Y037833D01*
Y037900D01*
X062267Y037933D01*
X062100D01*
Y038133D02*
Y038000D01*
X062200D01*
X062167Y038067D01*
Y038100D01*
X062200Y038133D01*
X062267D01*
X062300Y038100D01*
Y038033D01*
X062267Y038000D01*
X067640Y037786D02*
X067807D01*
X067840Y037820D01*
Y037886D01*
X067807Y037920D01*
X067640D01*
Y038120D02*
X067673Y038053D01*
X067740Y037986D01*
X067807D01*
X067840Y038020D01*
Y038086D01*
X067807Y038120D01*
X067773D01*
X067740Y038086D01*
Y037986D01*
X064900Y029900D02*
X065067D01*
X065100Y029933D01*
Y030000D01*
X065067Y030033D01*
X064900D01*
X065100Y030233D02*
Y030100D01*
X064967Y030233D01*
X064933D01*
X064900Y030200D01*
Y030133D01*
X064933Y030100D01*
M02*
