G04 Layer_Color=16711935*
%FSAX24Y24*%
%MOIN*%
G70*
G01*
G75*
%ADD65R,0.0257X0.0297*%
%ADD74R,0.0285X0.0285*%
%ADD76R,0.0453X0.1674*%
%ADD77R,0.4253X0.3545*%
%ADD80R,0.0612X0.0828*%
%ADD87R,0.0285X0.0285*%
%ADD91C,0.0710*%
%ADD92C,0.1655*%
%ADD93C,0.0360*%
%ADD94C,0.0320*%
%ADD95C,0.0260*%
%ADD96C,0.0159*%
%ADD97R,0.0690X0.0316*%
%ADD98R,0.0986X0.0986*%
%ADD99R,0.0407X0.0328*%
%ADD100R,0.0434X0.0474*%
%ADD101R,0.2986X0.1041*%
%ADD102R,0.0592X0.1005*%
%ADD103R,0.1143X0.0474*%
%ADD104R,0.1143X0.1379*%
%ADD105R,0.0550X0.0300*%
%ADD106O,0.0178X0.0690*%
%ADD107O,0.0690X0.0178*%
%ADD108R,0.0297X0.0336*%
%ADD109O,0.0257X0.0710*%
%ADD110R,0.3080X0.2780*%
G36*
X053271Y031972D02*
X066671Y031972D01*
D01*
X066701Y031972D01*
X066703Y031972D01*
X066705Y031972D01*
X066793Y031963D01*
X066794Y031963D01*
X066795Y031963D01*
X066797Y031962D01*
X066798Y031962D01*
X066799Y031962D01*
X066801Y031962D01*
X066914Y031927D01*
X066915Y031927D01*
X066916Y031926D01*
X066917Y031926D01*
X066919Y031925D01*
X066920Y031925D01*
X066921Y031924D01*
X067025Y031869D01*
X067026Y031868D01*
X067027Y031867D01*
X067028Y031866D01*
X067030Y031866D01*
X067031Y031865D01*
X067032Y031864D01*
X067123Y031789D01*
X067124Y031788D01*
X067125Y031787D01*
X067126Y031786D01*
X067127Y031786D01*
X067128Y031785D01*
X067129Y031784D01*
X067204Y031692D01*
X067204Y031691D01*
X067205Y031690D01*
X067206Y031689D01*
X067207Y031688D01*
X067207Y031687D01*
X067208Y031686D01*
X067264Y031581D01*
X067264Y031580D01*
X067265Y031579D01*
X067265Y031578D01*
X067266Y031577D01*
X067266Y031575D01*
X067267Y031574D01*
X067301Y031461D01*
X067301Y031460D01*
X067302Y031459D01*
X067302Y031457D01*
X067302Y031456D01*
X067302Y031455D01*
X067303Y031453D01*
X067311Y031365D01*
X067311Y031363D01*
X067311Y031361D01*
X067311Y031332D01*
D01*
X067311Y030971D01*
Y030896D01*
X067311Y030895D01*
Y030893D01*
X067311Y030892D01*
X067311Y030891D01*
X067311Y030890D01*
X067311Y030888D01*
X067310Y030887D01*
X067310Y030886D01*
X067310Y030884D01*
X067309Y030883D01*
X067237Y030670D01*
X067236Y030669D01*
X067236Y030668D01*
X067235Y030667D01*
X067235Y030665D01*
X067234Y030664D01*
X067234Y030663D01*
X067233Y030662D01*
X067232Y030661D01*
X067232Y030660D01*
X067231Y030659D01*
X067139Y030539D01*
X067136Y030536D01*
X067132Y030532D01*
X067013Y030440D01*
X067011Y030440D01*
X067010Y030439D01*
X067009Y030438D01*
X067008Y030438D01*
X067007Y030437D01*
X067006Y030436D01*
X067005Y030436D01*
X067003Y030435D01*
X067002Y030435D01*
X067001Y030434D01*
X066788Y030362D01*
X066787Y030362D01*
X066786Y030361D01*
X066784Y030361D01*
X066783Y030361D01*
X066782Y030361D01*
X066780Y030360D01*
X066779Y030360D01*
X066778Y030360D01*
X066777D01*
X066775Y030360D01*
X066700D01*
X062000Y030360D01*
X056617Y030360D01*
X056512Y030270D01*
X056196Y029934D01*
X055991Y029658D01*
X055815Y029364D01*
X055668Y029054D01*
X055553Y028731D01*
X055469Y028398D01*
X055418Y028026D01*
X055411Y027902D01*
X055411Y027432D01*
X055411Y027432D01*
X055411Y027432D01*
X055411Y027429D01*
X055411Y027427D01*
X055411Y027426D01*
X055411Y027426D01*
X055405Y027384D01*
X055405Y027383D01*
X055405Y027383D01*
X055404Y027381D01*
X055404Y027378D01*
X055404Y027378D01*
X055404Y027378D01*
X055368Y027253D01*
X055367Y027252D01*
X055367Y027250D01*
X055366Y027250D01*
X055366Y027248D01*
X055365Y027247D01*
X055364Y027246D01*
X055301Y027128D01*
X055301Y027127D01*
X055300Y027125D01*
X055299Y027124D01*
X055299Y027123D01*
X055298Y027122D01*
X055297Y027121D01*
X055212Y027018D01*
X055211Y027017D01*
X055210Y027016D01*
X055209Y027015D01*
X055209Y027014D01*
X055208Y027013D01*
X055207Y027012D01*
X055103Y026927D01*
X055102Y026926D01*
X055101Y026926D01*
X055100Y026925D01*
X055099Y026924D01*
X055098Y026924D01*
X055097Y026923D01*
X054979Y026860D01*
X054977Y026859D01*
X054976Y026859D01*
X054975Y026858D01*
X054974Y026858D01*
X054973Y026857D01*
X054971Y026857D01*
X054843Y026818D01*
X054841Y026817D01*
X054839Y026817D01*
X054839Y026817D01*
X054838Y026817D01*
X054836Y026817D01*
X054834Y026816D01*
X054664Y026805D01*
X054663Y026805D01*
X054661Y026805D01*
X054660Y026805D01*
X054659D01*
X054658Y026805D01*
X054656Y026805D01*
X054602Y026813D01*
X053055D01*
X053022Y026813D01*
X053020Y026813D01*
X053018Y026813D01*
X052917Y026823D01*
X052916Y026823D01*
X052915Y026823D01*
X052913Y026823D01*
X052912Y026824D01*
X052911Y026824D01*
X052909Y026824D01*
X052781Y026863D01*
X052779Y026864D01*
X052778Y026864D01*
X052777Y026865D01*
X052776Y026865D01*
X052775Y026866D01*
X052773Y026866D01*
X052655Y026930D01*
X052653Y026931D01*
X052652Y026931D01*
X052651Y026932D01*
X052650Y026933D01*
X052649Y026934D01*
X052648Y026934D01*
X052544Y027020D01*
X052543Y027021D01*
X052542Y027022D01*
X052541Y027023D01*
X052540Y027023D01*
X052539Y027024D01*
X052538Y027025D01*
X052453Y027130D01*
X052452Y027131D01*
X052451Y027132D01*
X052451Y027133D01*
X052450Y027134D01*
X052449Y027135D01*
X052448Y027136D01*
X052385Y027255D01*
X052384Y027256D01*
X052384Y027257D01*
X052383Y027258D01*
X052383Y027260D01*
X052382Y027261D01*
X052382Y027262D01*
X052343Y027391D01*
X052343Y027392D01*
X052342Y027394D01*
X052342Y027395D01*
X052342Y027396D01*
X052342Y027397D01*
X052341Y027399D01*
X052331Y027499D01*
X052331Y027501D01*
X052331Y027503D01*
X052331Y027537D01*
D01*
X052331Y031032D01*
X052331Y031076D01*
X052331Y031078D01*
X052331Y031080D01*
X052344Y031212D01*
X052345Y031214D01*
X052345Y031215D01*
X052345Y031216D01*
X052345Y031218D01*
X052346Y031219D01*
X052346Y031220D01*
X052397Y031390D01*
X052398Y031391D01*
X052398Y031392D01*
X052399Y031393D01*
X052399Y031395D01*
X052400Y031396D01*
X052400Y031397D01*
X052484Y031553D01*
X052485Y031554D01*
X052485Y031556D01*
X052486Y031557D01*
X052487Y031558D01*
X052488Y031559D01*
X052488Y031560D01*
X052601Y031697D01*
X052602Y031698D01*
X052603Y031699D01*
X052603Y031700D01*
X052604Y031701D01*
X052605Y031701D01*
X052606Y031702D01*
X052743Y031815D01*
X052744Y031816D01*
X052745Y031816D01*
X052747Y031817D01*
X052748Y031818D01*
X052749Y031818D01*
X052750Y031819D01*
X052906Y031903D01*
X052907Y031903D01*
X052909Y031904D01*
X052910Y031904D01*
X052911Y031905D01*
X052912Y031905D01*
X052913Y031906D01*
X053083Y031957D01*
X053084Y031957D01*
X053086Y031958D01*
X053087Y031958D01*
X053088Y031958D01*
X053090Y031959D01*
X053091Y031959D01*
X053223Y031972D01*
X053225Y031972D01*
X053227Y031972D01*
X053271Y031972D01*
D02*
G37*
D65*
X066977Y023500D02*
D03*
X066623D02*
D03*
X066977Y022800D02*
D03*
X066623D02*
D03*
X063877Y021900D02*
D03*
X063523D02*
D03*
X056723Y022800D02*
D03*
X057077D02*
D03*
X057077Y023200D02*
D03*
X056723D02*
D03*
X063477Y030000D02*
D03*
X063123D02*
D03*
D74*
X057157Y032200D02*
D03*
X056843D02*
D03*
X064157Y030000D02*
D03*
X063843D02*
D03*
X062757D02*
D03*
X062443D02*
D03*
X062457Y028000D02*
D03*
X062143D02*
D03*
X057857Y024200D02*
D03*
X057543D02*
D03*
X057857Y024600D02*
D03*
X057543D02*
D03*
X068157Y032200D02*
D03*
X067843D02*
D03*
X062657D02*
D03*
X062343D02*
D03*
D76*
X064200Y034739D02*
D03*
X064700D02*
D03*
X065200D02*
D03*
X066200D02*
D03*
X066700D02*
D03*
X067200D02*
D03*
X061700D02*
D03*
X061200D02*
D03*
X060700D02*
D03*
X059700D02*
D03*
X059200D02*
D03*
X058700D02*
D03*
X053200D02*
D03*
X053700D02*
D03*
X054200D02*
D03*
X055200D02*
D03*
X055700D02*
D03*
X056200D02*
D03*
D77*
X065700Y038755D02*
D03*
X060200D02*
D03*
X054700D02*
D03*
D80*
X067930Y029700D02*
D03*
X066670D02*
D03*
D87*
X058200Y022557D02*
D03*
Y022243D02*
D03*
X061600Y026857D02*
D03*
Y026543D02*
D03*
X061200Y029857D02*
D03*
Y029543D02*
D03*
X060800Y029857D02*
D03*
Y029543D02*
D03*
X056000Y028957D02*
D03*
Y028643D02*
D03*
X056600Y029515D02*
D03*
Y029200D02*
D03*
X068200Y036657D02*
D03*
Y036343D02*
D03*
X062700Y036657D02*
D03*
Y036343D02*
D03*
X057200Y036657D02*
D03*
Y036343D02*
D03*
D91*
X061906Y021900D02*
D03*
X062694D02*
D03*
X065394D02*
D03*
X064606D02*
D03*
X063881Y024000D02*
D03*
X059944D02*
D03*
X060732D02*
D03*
X061519D02*
D03*
X062309D02*
D03*
X063099D02*
D03*
X064668D02*
D03*
X065456D02*
D03*
X067700Y022019D02*
D03*
Y022806D02*
D03*
Y023594D02*
D03*
Y024384D02*
D03*
D92*
X068000Y020300D02*
D03*
X052900D02*
D03*
D93*
X067000Y029500D02*
D03*
X064400Y038800D02*
D03*
X065100D02*
D03*
X065800D02*
D03*
X066500D02*
D03*
X058900D02*
D03*
X059600D02*
D03*
X060300D02*
D03*
X061000D02*
D03*
X053400D02*
D03*
X054100D02*
D03*
X054800D02*
D03*
X055500D02*
D03*
X062976Y035800D02*
D03*
X058700Y035909D02*
D03*
X064200Y035991D02*
D03*
X068400Y039700D02*
D03*
X062900Y040200D02*
D03*
X057400D02*
D03*
X052200Y038100D02*
D03*
X057300Y030800D02*
D03*
X056700Y024900D02*
D03*
X052200Y023800D02*
D03*
X054300Y021200D02*
D03*
X068600Y024000D02*
D03*
X061700Y028000D02*
D03*
X065400Y029500D02*
D03*
X067000Y028200D02*
D03*
X061300Y030800D02*
D03*
X063600Y027800D02*
D03*
X064500Y029400D02*
D03*
X068000Y031100D02*
D03*
X064761Y025994D02*
D03*
X064400Y038100D02*
D03*
X065100D02*
D03*
X065800D02*
D03*
X066500D02*
D03*
X064400Y037400D02*
D03*
X065100D02*
D03*
X065800D02*
D03*
X066500D02*
D03*
X058900Y038100D02*
D03*
X059600D02*
D03*
X060300D02*
D03*
X061000D02*
D03*
X058900Y037400D02*
D03*
X059600D02*
D03*
X060300D02*
D03*
X061000D02*
D03*
X055500D02*
D03*
X054800D02*
D03*
X054100D02*
D03*
X053400D02*
D03*
X055500Y038100D02*
D03*
X054800D02*
D03*
X054100D02*
D03*
X053400D02*
D03*
X068500Y035800D02*
D03*
X068000Y028300D02*
D03*
Y029000D02*
D03*
X065500Y023100D02*
D03*
X054300Y027400D02*
D03*
Y026800D02*
D03*
X067000Y027200D02*
D03*
D94*
X067400Y027700D02*
D03*
X068100Y031800D02*
D03*
X068200Y034100D02*
D03*
X057400Y037200D02*
D03*
X068400D02*
D03*
X062900D02*
D03*
X058000Y024200D02*
D03*
X059300Y026200D02*
D03*
X060700Y025200D02*
D03*
X057400Y026100D02*
D03*
X059900Y027200D02*
D03*
X063481Y029821D02*
D03*
X064400Y030000D02*
D03*
X062300D02*
D03*
X055900Y025600D02*
D03*
X068600Y038700D02*
D03*
X063100D02*
D03*
X057600D02*
D03*
X063400Y036200D02*
D03*
X057500Y035900D02*
D03*
X057900Y036200D02*
D03*
X068900D02*
D03*
X066400Y031100D02*
D03*
D95*
X056325Y023137D02*
D03*
X059100Y021700D02*
D03*
X058900Y023200D02*
D03*
X058600Y024700D02*
D03*
X061700Y022900D02*
D03*
X052182Y035700D02*
D03*
X052300Y035100D02*
D03*
X052000Y036300D02*
D03*
X057000Y029900D02*
D03*
X060100Y028400D02*
D03*
X060400Y028800D02*
D03*
X058100Y026400D02*
D03*
X058500D02*
D03*
X053800Y023800D02*
D03*
X058700Y028500D02*
D03*
X059100D02*
D03*
X057600Y026600D02*
D03*
X057200D02*
D03*
X058900Y027300D02*
D03*
X059400Y028800D02*
D03*
X059900Y025800D02*
D03*
X055700Y027900D02*
D03*
X056000Y028200D02*
D03*
X060400Y027900D02*
D03*
X052400Y025300D02*
D03*
Y025700D02*
D03*
Y026100D02*
D03*
D96*
X066597Y030403D02*
D03*
X066203D02*
D03*
X066597Y030797D02*
D03*
X066203D02*
D03*
D97*
X060863Y023150D02*
D03*
Y022650D02*
D03*
Y022150D02*
D03*
Y021650D02*
D03*
X058737Y023150D02*
D03*
Y022650D02*
D03*
Y022150D02*
D03*
Y021650D02*
D03*
D98*
X067886Y026200D02*
D03*
X066114D02*
D03*
D99*
X068600Y037639D02*
D03*
Y036761D02*
D03*
X063100Y037639D02*
D03*
Y036761D02*
D03*
X057600Y037639D02*
D03*
Y036761D02*
D03*
D100*
X068515Y035200D02*
D03*
X067885D02*
D03*
X063015D02*
D03*
X062385D02*
D03*
X057515D02*
D03*
X056885D02*
D03*
D101*
X065400Y031424D02*
D03*
Y033376D02*
D03*
X059900Y031424D02*
D03*
Y033376D02*
D03*
X054400Y031424D02*
D03*
Y033376D02*
D03*
D102*
X063496Y029100D02*
D03*
X062296D02*
D03*
D103*
X064761Y027806D02*
D03*
Y026900D02*
D03*
Y025994D02*
D03*
D104*
X062439Y026900D02*
D03*
D105*
X067995Y028750D02*
D03*
Y028250D02*
D03*
Y027750D02*
D03*
Y027250D02*
D03*
X066005Y028750D02*
D03*
Y028250D02*
D03*
Y027750D02*
D03*
Y027250D02*
D03*
D106*
X060276Y029575D02*
D03*
X060080D02*
D03*
X059883D02*
D03*
X059686D02*
D03*
X059489D02*
D03*
X059292D02*
D03*
X059095D02*
D03*
X058898D02*
D03*
X058702D02*
D03*
X058505D02*
D03*
X058308D02*
D03*
X058111D02*
D03*
X057914D02*
D03*
X057717D02*
D03*
X057520D02*
D03*
X057324D02*
D03*
Y025225D02*
D03*
X057520D02*
D03*
X057717D02*
D03*
X057914D02*
D03*
X058111D02*
D03*
X058308D02*
D03*
X058505D02*
D03*
X058702D02*
D03*
X058898D02*
D03*
X059095D02*
D03*
X059292D02*
D03*
X059489D02*
D03*
X059686D02*
D03*
X059883D02*
D03*
X060080D02*
D03*
X060276D02*
D03*
D107*
X056625Y028876D02*
D03*
Y028680D02*
D03*
Y028483D02*
D03*
Y028286D02*
D03*
Y028089D02*
D03*
Y027892D02*
D03*
Y027695D02*
D03*
Y027498D02*
D03*
Y027302D02*
D03*
Y027105D02*
D03*
Y026908D02*
D03*
Y026711D02*
D03*
Y026514D02*
D03*
Y026317D02*
D03*
Y026120D02*
D03*
Y025924D02*
D03*
X060975D02*
D03*
Y026120D02*
D03*
Y026317D02*
D03*
Y026514D02*
D03*
Y026711D02*
D03*
Y026908D02*
D03*
Y027105D02*
D03*
Y027302D02*
D03*
Y027498D02*
D03*
Y027695D02*
D03*
Y027892D02*
D03*
Y028089D02*
D03*
Y028286D02*
D03*
Y028483D02*
D03*
Y028680D02*
D03*
Y028876D02*
D03*
D108*
X053903Y023800D02*
D03*
X054297D02*
D03*
X053903Y024200D02*
D03*
X054297D02*
D03*
D109*
X067916Y034546D02*
D03*
X068172D02*
D03*
X068428D02*
D03*
X068684D02*
D03*
X067916Y032854D02*
D03*
X068172D02*
D03*
X068428D02*
D03*
X068684D02*
D03*
X062416Y034546D02*
D03*
X062672D02*
D03*
X062928D02*
D03*
X063184D02*
D03*
X062416Y032854D02*
D03*
X062672D02*
D03*
X062928D02*
D03*
X063184D02*
D03*
X056916Y034546D02*
D03*
X057172D02*
D03*
X057428D02*
D03*
X057684D02*
D03*
X056916Y032854D02*
D03*
X057172D02*
D03*
X057428D02*
D03*
X057684D02*
D03*
D110*
X065400Y034250D02*
D03*
X059900D02*
D03*
X054400D02*
D03*
M02*
