G04 Layer_Color=8421504*
%FSAX24Y24*%
%MOIN*%
G70*
G01*
G75*
%ADD10R,0.0177X0.0217*%
%ADD11R,0.0217X0.0177*%
%ADD12R,0.1024X0.0374*%
%ADD13R,0.0374X0.1024*%
%ADD14R,0.0205X0.0205*%
%ADD15R,0.0205X0.0205*%
%ADD16R,0.0335X0.0157*%
G04:AMPARAMS|DCode=17|XSize=82.7mil|YSize=228.3mil|CornerRadius=41.3mil|HoleSize=0mil|Usage=FLASHONLY|Rotation=180.000|XOffset=0mil|YOffset=0mil|HoleType=Round|Shape=RoundedRectangle|*
%AMROUNDEDRECTD17*
21,1,0.0827,0.1457,0,0,180.0*
21,1,0.0000,0.2283,0,0,180.0*
1,1,0.0827,0.0000,0.0728*
1,1,0.0827,0.0000,0.0728*
1,1,0.0827,0.0000,-0.0728*
1,1,0.0827,0.0000,-0.0728*
%
%ADD17ROUNDEDRECTD17*%
%ADD18O,0.0610X0.0177*%
%ADD19R,0.0681X0.0728*%
%ADD20R,0.1280X0.1230*%
%ADD21R,0.0354X0.0394*%
%ADD22R,0.0532X0.2087*%
%ADD23R,0.0276X0.0354*%
%ADD24R,0.1331X0.0965*%
%ADD25R,0.0118X0.0315*%
%ADD26R,0.0118X0.0276*%
%ADD27R,0.0819X0.0315*%
%ADD28R,0.0400X0.0650*%
%ADD29R,0.0480X0.0560*%
%ADD30R,0.0433X0.0669*%
%ADD31R,0.0276X0.0512*%
%ADD32R,0.0433X0.0335*%
%ADD33R,0.0669X0.0433*%
%ADD34R,0.0335X0.0433*%
%ADD35R,0.0512X0.0276*%
%ADD36R,0.0560X0.0140*%
%ADD37R,0.0750X0.0710*%
%ADD38R,0.0750X0.0750*%
%ADD39R,0.0354X0.0394*%
G36*
X058346Y026258D02*
X057913Y026258D01*
X057913D01*
X057861Y026258D01*
X057714Y026308D01*
X057632Y026371D01*
X057569Y026453D01*
X057529Y026549D01*
X057519Y026626D01*
Y026652D01*
X057519Y028148D01*
X057519Y028148D01*
X057519Y028200D01*
X057569Y028347D01*
X057632Y028429D01*
X057714Y028492D01*
X057861Y028542D01*
X057913Y028542D01*
X058346Y028542D01*
Y026258D01*
D02*
G37*
G36*
X059487Y028542D02*
X059513Y028542D01*
X059590Y028532D01*
X059686Y028492D01*
X059768Y028429D01*
X059831Y028347D01*
X059881Y028200D01*
X059881Y028148D01*
X059881Y028148D01*
X059881Y026652D01*
X059881Y026600D01*
X059831Y026453D01*
X059768Y026371D01*
X059686Y026308D01*
X059539Y026258D01*
X059487Y026258D01*
X059487Y026258D01*
X059054Y026258D01*
Y028542D01*
X059487Y028542D01*
D02*
G37*
D10*
X052877Y036200D02*
D03*
X052523D02*
D03*
X053177Y035400D02*
D03*
X052823D02*
D03*
X052523Y035800D02*
D03*
X052877D02*
D03*
X057777Y036200D02*
D03*
X057423D02*
D03*
X057423Y035800D02*
D03*
X057777D02*
D03*
X058077Y035400D02*
D03*
X057723D02*
D03*
X062677Y036200D02*
D03*
X062323D02*
D03*
X062323Y035800D02*
D03*
X062677D02*
D03*
X062977Y035400D02*
D03*
X062623D02*
D03*
X053943Y027000D02*
D03*
X054297D02*
D03*
X054443Y024900D02*
D03*
X054797D02*
D03*
X054443Y025300D02*
D03*
X054797D02*
D03*
X056515Y027308D02*
D03*
X056870D02*
D03*
D11*
X053800Y033077D02*
D03*
Y032723D02*
D03*
X058700Y033077D02*
D03*
Y032723D02*
D03*
X063600Y033077D02*
D03*
Y032723D02*
D03*
X065400Y030877D02*
D03*
Y030523D02*
D03*
X064700Y030377D02*
D03*
Y030023D02*
D03*
X056370Y031177D02*
D03*
Y030823D02*
D03*
X056770Y030823D02*
D03*
Y031177D02*
D03*
X054400Y023223D02*
D03*
Y023577D02*
D03*
X054800Y023223D02*
D03*
Y023577D02*
D03*
D12*
X057900Y025751D02*
D03*
Y024649D02*
D03*
D13*
X059351Y023700D02*
D03*
X058249D02*
D03*
D14*
X060061Y025854D02*
D03*
Y025539D02*
D03*
X065000Y030857D02*
D03*
Y030543D02*
D03*
D15*
X059443Y024600D02*
D03*
X059757D02*
D03*
X055443Y029000D02*
D03*
X055757D02*
D03*
X063743Y035900D02*
D03*
X064057D02*
D03*
X058843D02*
D03*
X059157D02*
D03*
X053943D02*
D03*
X054257D02*
D03*
D16*
X059333Y029300D02*
D03*
X058407D02*
D03*
D17*
X057932Y027400D02*
D03*
X059468D02*
D03*
D18*
X066956Y028816D02*
D03*
Y029072D02*
D03*
Y029328D02*
D03*
Y029584D02*
D03*
X065244Y028816D02*
D03*
Y029072D02*
D03*
Y029328D02*
D03*
Y029584D02*
D03*
D19*
X066100Y029200D02*
D03*
D20*
X062600Y029560D02*
D03*
Y026040D02*
D03*
D21*
X067315Y030200D02*
D03*
X066685D02*
D03*
D22*
X065106Y027000D02*
D03*
X067094D02*
D03*
D23*
X066024Y030700D02*
D03*
X066576D02*
D03*
X053724Y035400D02*
D03*
X054276D02*
D03*
X058624D02*
D03*
X059176D02*
D03*
X063524D02*
D03*
X064076D02*
D03*
D24*
X063100Y034200D02*
D03*
X058200D02*
D03*
X053300D02*
D03*
D25*
X062628Y033422D02*
D03*
X062943D02*
D03*
X063257D02*
D03*
X063572D02*
D03*
X062628Y034978D02*
D03*
X062943D02*
D03*
X063257D02*
D03*
X063572D02*
D03*
X057728Y033422D02*
D03*
X058043D02*
D03*
X058357D02*
D03*
X058672D02*
D03*
X057728Y034978D02*
D03*
X058043D02*
D03*
X058357D02*
D03*
X058672D02*
D03*
X052828Y033422D02*
D03*
X053143D02*
D03*
X053457D02*
D03*
X053772D02*
D03*
X052828Y034978D02*
D03*
X053143D02*
D03*
X053457D02*
D03*
X053772D02*
D03*
D26*
X059003Y025010D02*
D03*
X059200D02*
D03*
X059397D02*
D03*
X059594D02*
D03*
Y025790D02*
D03*
X059397D02*
D03*
X059200D02*
D03*
X059003D02*
D03*
X058806D02*
D03*
Y025010D02*
D03*
D27*
X059200Y025400D02*
D03*
D28*
X055470Y025515D02*
D03*
Y023480D02*
D03*
X056730D02*
D03*
Y025515D02*
D03*
D29*
X055500Y026600D02*
D03*
X056691D02*
D03*
D30*
X053328Y038566D02*
D03*
Y037700D02*
D03*
Y036834D02*
D03*
X056872D02*
D03*
Y037700D02*
D03*
Y038566D02*
D03*
X061772D02*
D03*
Y037700D02*
D03*
Y036834D02*
D03*
X058228D02*
D03*
Y037700D02*
D03*
Y038566D02*
D03*
X063128D02*
D03*
Y037700D02*
D03*
Y036834D02*
D03*
X066672D02*
D03*
Y037700D02*
D03*
Y038566D02*
D03*
D31*
X054214Y037700D02*
D03*
X059114D02*
D03*
X064014D02*
D03*
D32*
X054765Y037021D02*
D03*
Y037474D02*
D03*
Y037926D02*
D03*
Y038379D02*
D03*
X055868D02*
D03*
Y037926D02*
D03*
Y037474D02*
D03*
Y037021D02*
D03*
X060768D02*
D03*
Y037474D02*
D03*
Y037926D02*
D03*
Y038379D02*
D03*
X059665D02*
D03*
Y037926D02*
D03*
Y037474D02*
D03*
Y037021D02*
D03*
X064565D02*
D03*
Y037474D02*
D03*
Y037926D02*
D03*
Y038379D02*
D03*
X065668D02*
D03*
Y037926D02*
D03*
Y037474D02*
D03*
Y037021D02*
D03*
D33*
X056566Y031728D02*
D03*
X055700D02*
D03*
X054834D02*
D03*
Y035272D02*
D03*
X055700D02*
D03*
X056566D02*
D03*
X061466D02*
D03*
X060600D02*
D03*
X059734D02*
D03*
Y031728D02*
D03*
X060600D02*
D03*
X061466D02*
D03*
X066366D02*
D03*
X065500D02*
D03*
X064634D02*
D03*
Y035272D02*
D03*
X065500D02*
D03*
X066366D02*
D03*
D34*
X055021Y032732D02*
D03*
X055474D02*
D03*
X055926D02*
D03*
X056379D02*
D03*
Y033835D02*
D03*
X055926D02*
D03*
X055474D02*
D03*
X055021D02*
D03*
X059921D02*
D03*
X060374D02*
D03*
X060826D02*
D03*
X061279D02*
D03*
Y032732D02*
D03*
X060826D02*
D03*
X060374D02*
D03*
X059921D02*
D03*
X064821D02*
D03*
X065274D02*
D03*
X065726D02*
D03*
X066179D02*
D03*
Y033835D02*
D03*
X065726D02*
D03*
X065274D02*
D03*
X064821D02*
D03*
D35*
X055700Y034386D02*
D03*
X060600D02*
D03*
X065500D02*
D03*
D36*
X053870Y025412D02*
D03*
Y024380D02*
D03*
Y025156D02*
D03*
Y024900D02*
D03*
Y024640D02*
D03*
D37*
X052820Y026475D02*
D03*
Y023320D02*
D03*
D38*
Y025400D02*
D03*
Y024400D02*
D03*
D39*
X052713Y028115D02*
D03*
Y027485D02*
D03*
X054327Y028115D02*
D03*
Y027485D02*
D03*
Y029485D02*
D03*
Y030115D02*
D03*
X052713Y029485D02*
D03*
Y030115D02*
D03*
M02*
