G04 Layer_Physical_Order=2*
G04 Layer_Color=32768*
%FSAX25Y25*%
%MOIN*%
%IPNEG*%
G70*
G01*
G75*
%ADD43C,0.02000*%
%ADD44C,0.04000*%
%ADD50C,0.09480*%
%ADD51C,0.05150*%
G04:AMPARAMS|DCode=52|XSize=91.496mil|YSize=91.496mil|CornerRadius=0mil|HoleSize=0mil|Usage=FLASHONLY|Rotation=0.000|XOffset=0mil|YOffset=0mil|HoleType=Round|Shape=Relief|Width=20mil|Gap=10mil|Entries=4|*
%AMTHD52*
7,0,0,0.09150,0.07150,0.02000,45*
%
%ADD52THD52*%
G04:AMPARAMS|DCode=53|XSize=182.047mil|YSize=182.047mil|CornerRadius=0mil|HoleSize=0mil|Usage=FLASHONLY|Rotation=0.000|XOffset=0mil|YOffset=0mil|HoleType=Round|Shape=Relief|Width=20mil|Gap=10mil|Entries=4|*
%AMTHD53*
7,0,0,0.18205,0.16205,0.02000,45*
%
%ADD53THD53*%
%ADD54C,0.14205*%
%ADD55C,0.05937*%
G04:AMPARAMS|DCode=56|XSize=99.37mil|YSize=99.37mil|CornerRadius=0mil|HoleSize=0mil|Usage=FLASHONLY|Rotation=0.000|XOffset=0mil|YOffset=0mil|HoleType=Round|Shape=Relief|Width=20mil|Gap=10mil|Entries=4|*
%AMTHD56*
7,0,0,0.09937,0.07937,0.02000,45*
%
%ADD56THD56*%
%ADD57C,0.03000*%
D43*
X0622699Y0338500D02*
X0636699Y0324500D01*
X0527199Y0338500D02*
X0622699D01*
X0636699Y0302000D02*
Y0324500D01*
X0624199Y0289500D02*
X0636699Y0302000D01*
X0624199Y0262500D02*
Y0289500D01*
D44*
X0527199Y0218000D02*
Y0404500D01*
X0535699Y0413000D01*
X0663199D01*
X0671699Y0404500D01*
Y0218000D02*
Y0404500D01*
X0663699Y0210000D02*
X0671699Y0218000D01*
X0535199Y0210000D02*
X0663699D01*
X0527199Y0218000D02*
X0535199Y0210000D01*
D50*
X0541229Y0271970D02*
D03*
D51*
X0660559Y0244000D02*
D03*
X0652685D02*
D03*
X0636989D02*
D03*
X0629089D02*
D03*
X0621189D02*
D03*
X0613315D02*
D03*
X0644811D02*
D03*
X0582837Y0222000D02*
D03*
X0574937D02*
D03*
X0567063D02*
D03*
X0612937D02*
D03*
X0605063D02*
D03*
X0632063D02*
D03*
X0639937D02*
D03*
D52*
X0605441Y0244000D02*
D03*
X0559189Y0222000D02*
D03*
D53*
X0538699D02*
D03*
X0660199D02*
D03*
D54*
X0625699Y0403000D02*
D03*
X0578699D02*
D03*
D55*
X0531199Y0397528D02*
D03*
D56*
Y0368000D02*
D03*
D57*
X0540699Y0286500D02*
D03*
X0548199Y0246500D02*
D03*
X0545199Y0243500D02*
D03*
X0543699Y0289500D02*
D03*
X0546699D02*
D03*
X0576499Y0260500D02*
D03*
X0570199Y0287500D02*
D03*
X0633199Y0260500D02*
D03*
X0630199D02*
D03*
X0556199Y0336500D02*
D03*
X0558699D02*
D03*
X0561199D02*
D03*
X0563699D02*
D03*
X0566199D02*
D03*
X0558699Y0334000D02*
D03*
X0561199D02*
D03*
X0563699D02*
D03*
X0566199D02*
D03*
Y0331500D02*
D03*
X0563699D02*
D03*
X0558699D02*
D03*
X0556199D02*
D03*
Y0329000D02*
D03*
Y0321500D02*
D03*
Y0324000D02*
D03*
X0558699Y0329000D02*
D03*
Y0326500D02*
D03*
Y0324000D02*
D03*
Y0321500D02*
D03*
X0561199D02*
D03*
X0563699D02*
D03*
X0566199D02*
D03*
Y0329000D02*
D03*
Y0326500D02*
D03*
Y0324000D02*
D03*
X0563699D02*
D03*
X0561199D02*
D03*
Y0326500D02*
D03*
X0563699Y0329000D02*
D03*
Y0326500D02*
D03*
X0556199D02*
D03*
X0561199Y0329000D02*
D03*
Y0331500D02*
D03*
X0556199Y0334000D02*
D03*
X0603199Y0336500D02*
D03*
X0605699D02*
D03*
X0608199D02*
D03*
X0610699D02*
D03*
X0613199D02*
D03*
X0605699Y0334000D02*
D03*
X0608199D02*
D03*
X0610699D02*
D03*
X0613199D02*
D03*
Y0331500D02*
D03*
X0610699D02*
D03*
X0605699D02*
D03*
X0603199D02*
D03*
Y0329000D02*
D03*
Y0321500D02*
D03*
Y0324000D02*
D03*
X0605699Y0329000D02*
D03*
Y0326500D02*
D03*
Y0324000D02*
D03*
Y0321500D02*
D03*
X0608199D02*
D03*
X0610699D02*
D03*
X0613199D02*
D03*
Y0329000D02*
D03*
Y0326500D02*
D03*
Y0324000D02*
D03*
X0610699D02*
D03*
X0608199D02*
D03*
Y0326500D02*
D03*
X0610699Y0329000D02*
D03*
Y0326500D02*
D03*
X0603199D02*
D03*
X0608199Y0329000D02*
D03*
Y0331500D02*
D03*
X0603199Y0334000D02*
D03*
X0608199Y0296272D02*
D03*
X0558199Y0292500D02*
D03*
X0560699Y0283500D02*
D03*
X0589199Y0287500D02*
D03*
X0585199Y0297500D02*
D03*
X0589199Y0310500D02*
D03*
X0592199Y0317500D02*
D03*
X0536624Y0314500D02*
D03*
X0576928Y0318728D02*
D03*
X0650199Y0334000D02*
D03*
X0655199Y0331500D02*
D03*
Y0329000D02*
D03*
X0650199Y0326500D02*
D03*
X0657699D02*
D03*
Y0329000D02*
D03*
X0655199Y0326500D02*
D03*
Y0324000D02*
D03*
X0657699D02*
D03*
X0660199D02*
D03*
Y0326500D02*
D03*
Y0329000D02*
D03*
Y0321500D02*
D03*
X0657699D02*
D03*
X0655199D02*
D03*
X0652699D02*
D03*
Y0324000D02*
D03*
Y0326500D02*
D03*
Y0329000D02*
D03*
X0650199Y0324000D02*
D03*
Y0321500D02*
D03*
Y0329000D02*
D03*
Y0331500D02*
D03*
X0652699D02*
D03*
X0657699D02*
D03*
X0660199D02*
D03*
Y0334000D02*
D03*
X0657699D02*
D03*
X0655199D02*
D03*
X0652699D02*
D03*
X0660199Y0336500D02*
D03*
X0657699D02*
D03*
X0655199D02*
D03*
X0652699D02*
D03*
X0650199D02*
D03*
X0538224Y0331050D02*
D03*
X0585224D02*
D03*
X0600199Y0250500D02*
D03*
X0597199D02*
D03*
X0604624Y0255500D02*
D03*
X0605199Y0281500D02*
D03*
X0563199Y0240500D02*
D03*
X0562999Y0263777D02*
D03*
X0567699Y0262000D02*
D03*
X0565099D02*
D03*
X0560999Y0262100D02*
D03*
X0540599Y0254900D02*
D03*
X0548199Y0240500D02*
D03*
Y0243500D02*
D03*
X0545199Y0240500D02*
D03*
X0551199Y0246500D02*
D03*
X0548199Y0237500D02*
D03*
X0551699Y0233500D02*
D03*
X0551199Y0243500D02*
D03*
X0554199Y0246500D02*
D03*
Y0243500D02*
D03*
X0557199D02*
D03*
Y0240500D02*
D03*
X0560199D02*
D03*
Y0237500D02*
D03*
X0567199Y0232000D02*
D03*
X0575156D02*
D03*
X0551199Y0237500D02*
D03*
Y0240500D02*
D03*
X0569199Y0237500D02*
D03*
X0566199D02*
D03*
X0572199D02*
D03*
X0583699Y0278000D02*
D03*
X0586699D02*
D03*
X0589795Y0277904D02*
D03*
X0578699Y0284000D02*
D03*
X0622199Y0318500D02*
D03*
X0593199Y0264500D02*
D03*
X0588699Y0284000D02*
D03*
X0583699D02*
D03*
X0530199Y0333500D02*
D03*
X0637199Y0303500D02*
D03*
Y0306500D02*
D03*
X0634199D02*
D03*
Y0303500D02*
D03*
X0631199D02*
D03*
Y0306500D02*
D03*
X0628199D02*
D03*
Y0303500D02*
D03*
X0631346Y0295647D02*
D03*
X0661199Y0269500D02*
D03*
Y0266500D02*
D03*
Y0287500D02*
D03*
X0625199Y0297500D02*
D03*
X0622199Y0300500D02*
D03*
X0616199Y0303500D02*
D03*
X0619199D02*
D03*
X0622199D02*
D03*
X0625199D02*
D03*
Y0306500D02*
D03*
X0622199D02*
D03*
X0619199D02*
D03*
X0616199D02*
D03*
X0667199Y0266500D02*
D03*
X0664199D02*
D03*
Y0275500D02*
D03*
X0667199D02*
D03*
Y0278500D02*
D03*
X0664199D02*
D03*
Y0281500D02*
D03*
X0667199D02*
D03*
Y0284500D02*
D03*
X0664199D02*
D03*
X0663199Y0302500D02*
D03*
X0660199D02*
D03*
Y0305500D02*
D03*
X0663199Y0308500D02*
D03*
X0660199D02*
D03*
X0666199Y0311500D02*
D03*
X0663199D02*
D03*
X0660199D02*
D03*
X0657199Y0284574D02*
D03*
X0630199Y0263500D02*
D03*
X0633199D02*
D03*
X0636199Y0263642D02*
D03*
X0639199Y0266500D02*
D03*
X0636199D02*
D03*
X0633199D02*
D03*
X0630199D02*
D03*
Y0269500D02*
D03*
X0633199D02*
D03*
X0636199D02*
D03*
X0639199D02*
D03*
X0630199Y0272500D02*
D03*
X0633199D02*
D03*
X0639199D02*
D03*
X0636199D02*
D03*
X0639199Y0263500D02*
D03*
Y0260500D02*
D03*
X0636199D02*
D03*
X0557199Y0246500D02*
D03*
X0560199D02*
D03*
Y0243500D02*
D03*
X0572199Y0240500D02*
D03*
X0569199D02*
D03*
X0563199Y0237500D02*
D03*
X0554199Y0240500D02*
D03*
Y0237500D02*
D03*
X0557199D02*
D03*
X0600199Y0247500D02*
D03*
X0597199D02*
D03*
Y0241500D02*
D03*
Y0238500D02*
D03*
X0600199D02*
D03*
Y0241500D02*
D03*
Y0244500D02*
D03*
X0597199D02*
D03*
X0613199Y0233000D02*
D03*
X0554573Y0408000D02*
D03*
Y0405000D02*
D03*
X0601573Y0408000D02*
D03*
Y0405000D02*
D03*
X0648573Y0408000D02*
D03*
Y0405000D02*
D03*
X0589199Y0349500D02*
D03*
X0636199D02*
D03*
Y0352000D02*
D03*
X0542199Y0349500D02*
D03*
Y0352000D02*
D03*
X0575699Y0385500D02*
D03*
X0585699Y0388000D02*
D03*
X0583199D02*
D03*
X0580699D02*
D03*
X0578199D02*
D03*
X0575699D02*
D03*
X0573199D02*
D03*
X0570699D02*
D03*
X0585699Y0385500D02*
D03*
X0583199D02*
D03*
X0580699D02*
D03*
X0578199D02*
D03*
X0573199D02*
D03*
X0570699D02*
D03*
Y0383000D02*
D03*
X0573199D02*
D03*
X0575699D02*
D03*
X0578199D02*
D03*
X0580699D02*
D03*
X0583199D02*
D03*
X0585699D02*
D03*
Y0380500D02*
D03*
X0583199D02*
D03*
X0580699D02*
D03*
X0578199D02*
D03*
X0575699D02*
D03*
X0573199D02*
D03*
X0570699D02*
D03*
Y0378000D02*
D03*
X0585699D02*
D03*
X0573199D02*
D03*
X0575699D02*
D03*
X0583199D02*
D03*
X0580699D02*
D03*
X0578199D02*
D03*
X0625199Y0383000D02*
D03*
X0632699Y0388000D02*
D03*
X0622699Y0385500D02*
D03*
X0630199Y0388000D02*
D03*
X0627699D02*
D03*
X0625199D02*
D03*
X0622699D02*
D03*
X0620199D02*
D03*
X0617699D02*
D03*
X0632699Y0385500D02*
D03*
X0630199D02*
D03*
X0627699D02*
D03*
X0625199D02*
D03*
X0620199D02*
D03*
X0617699D02*
D03*
Y0383000D02*
D03*
X0620199D02*
D03*
X0622699D02*
D03*
X0627699D02*
D03*
X0630199D02*
D03*
X0632699D02*
D03*
Y0380500D02*
D03*
X0630199D02*
D03*
X0627699D02*
D03*
X0625199D02*
D03*
X0622699D02*
D03*
X0620199D02*
D03*
X0617699D02*
D03*
Y0378000D02*
D03*
Y0375500D02*
D03*
X0632699Y0378000D02*
D03*
Y0375500D02*
D03*
X0620199D02*
D03*
Y0378000D02*
D03*
X0622699D02*
D03*
Y0375500D02*
D03*
X0630199Y0378000D02*
D03*
Y0375500D02*
D03*
X0627699Y0378000D02*
D03*
Y0375500D02*
D03*
X0625199Y0378000D02*
D03*
Y0375500D02*
D03*
X0578199Y0390500D02*
D03*
X0580699D02*
D03*
X0583199D02*
D03*
X0585699D02*
D03*
X0575699D02*
D03*
X0573199D02*
D03*
X0570699D02*
D03*
X0617699D02*
D03*
X0620199D02*
D03*
X0622699D02*
D03*
X0625199D02*
D03*
X0630199D02*
D03*
X0632699D02*
D03*
X0627699D02*
D03*
X0531699D02*
D03*
Y0388000D02*
D03*
Y0385500D02*
D03*
Y0383000D02*
D03*
Y0378000D02*
D03*
Y0375500D02*
D03*
Y0380500D02*
D03*
X0536699Y0388000D02*
D03*
Y0380500D02*
D03*
X0534199D02*
D03*
Y0375500D02*
D03*
X0536699D02*
D03*
X0539199D02*
D03*
Y0378000D02*
D03*
X0536699D02*
D03*
X0534199D02*
D03*
X0539199Y0380500D02*
D03*
X0534199Y0383000D02*
D03*
X0536699D02*
D03*
X0539199D02*
D03*
Y0385500D02*
D03*
X0536699D02*
D03*
X0534199D02*
D03*
X0539199Y0388000D02*
D03*
X0534199D02*
D03*
Y0390500D02*
D03*
X0536699D02*
D03*
X0539199D02*
D03*
X0632699Y0373000D02*
D03*
X0630199D02*
D03*
X0627699D02*
D03*
X0625199D02*
D03*
X0622699D02*
D03*
X0570699Y0375500D02*
D03*
X0573199D02*
D03*
X0533427Y0236500D02*
D03*
X0536199Y0233500D02*
D03*
X0594199Y0247500D02*
D03*
Y0250500D02*
D03*
X0570742Y0232000D02*
D03*
X0578699D02*
D03*
X0608199Y0308000D02*
D03*
X0668699Y0390500D02*
D03*
X0666199D02*
D03*
Y0388000D02*
D03*
Y0385500D02*
D03*
X0668699D02*
D03*
Y0383000D02*
D03*
X0666199D02*
D03*
Y0378000D02*
D03*
X0668699D02*
D03*
Y0375500D02*
D03*
X0666199D02*
D03*
Y0380500D02*
D03*
X0668699D02*
D03*
Y0388000D02*
D03*
X0663699Y0380500D02*
D03*
Y0375500D02*
D03*
Y0378000D02*
D03*
Y0383000D02*
D03*
Y0385500D02*
D03*
Y0388000D02*
D03*
Y0390500D02*
D03*
X0619199Y0300500D02*
D03*
X0616199D02*
D03*
X0619199Y0297500D02*
D03*
X0622199D02*
D03*
X0624199Y0293500D02*
D03*
X0613199Y0303500D02*
D03*
Y0300500D02*
D03*
Y0297500D02*
D03*
X0622199Y0275500D02*
D03*
X0619199D02*
D03*
X0616199D02*
D03*
X0589199Y0352000D02*
D03*
M02*
