G04 Layer_Color=32896*
%FSAX24Y24*%
%MOIN*%
G70*
G01*
G75*
%ADD42C,0.0100*%
%ADD77C,0.0098*%
%ADD78C,0.0039*%
%ADD79C,0.0080*%
%ADD80C,0.0079*%
%ADD82C,0.0050*%
%ADD136C,0.0157*%
%ADD137C,0.0236*%
D42*
X053569Y026924D02*
X053923Y026570D01*
X053569Y026924D02*
Y027003D01*
Y026570D02*
X054671D01*
X053569Y027830D02*
X054671D01*
Y026570D02*
Y027830D01*
X053569Y026570D02*
Y027830D01*
X055865Y029825D02*
X056475D01*
X055865Y031275D02*
X056475D01*
X064020Y036350D02*
Y036850D01*
X063770D01*
X063687Y036767D01*
Y036600D01*
X063770Y036517D01*
X064020D01*
X063520Y036850D02*
Y036350D01*
X063353Y036517D01*
X063187Y036350D01*
Y036850D01*
X063020Y036350D02*
Y036850D01*
X062770D01*
X062687Y036767D01*
Y036600D01*
X062770Y036517D01*
X063020D01*
X062854D02*
X062687Y036350D01*
X058787Y035117D02*
X058870Y035200D01*
X059037D01*
X059120Y035117D01*
Y034783D01*
X059037Y034700D01*
X058870D01*
X058787Y034783D01*
Y034950D01*
X058953D01*
X058620Y034700D02*
Y035200D01*
X058287Y034700D01*
Y035200D01*
X058120D02*
Y034700D01*
X057870D01*
X057787Y034783D01*
Y035117D01*
X057870Y035200D01*
X058120D01*
D77*
X066014Y028500D02*
G03*
X066014Y028500I-000049J000000D01*
G01*
X061454Y027489D02*
G03*
X061454Y027489I-000049J000000D01*
G01*
X062238Y028835D02*
G03*
X062238Y028835I-000049J000000D01*
G01*
X054269Y038540D02*
G03*
X054269Y038540I-000049J000000D01*
G01*
X064913Y041107D02*
G03*
X064913Y041107I-000049J000000D01*
G01*
X060213D02*
G03*
X060213Y041107I-000049J000000D01*
G01*
X055513D02*
G03*
X055513Y041107I-000049J000000D01*
G01*
X059238Y031954D02*
G03*
X059238Y031954I-000049J000000D01*
G01*
X054538D02*
G03*
X054538Y031954I-000049J000000D01*
G01*
X063938D02*
G03*
X063938Y031954I-000049J000000D01*
G01*
X056027Y029225D02*
G03*
X056027Y029225I-000049J000000D01*
G01*
X061828Y022579D02*
G03*
X061828Y022579I-000049J000000D01*
G01*
D78*
X057099Y023853D02*
G03*
X057099Y023853I-000020J000000D01*
G01*
D79*
X063920Y021300D02*
X064020D01*
X064070Y021350D01*
Y021450D01*
X064020Y021500D01*
X063920D01*
X063870Y021450D01*
Y021400D01*
X064070D01*
X063770Y021300D02*
X063670D01*
X063720D01*
Y021600D01*
X063770D01*
X063370Y021300D02*
X063470D01*
X063520Y021350D01*
Y021450D01*
X063470Y021500D01*
X063370D01*
X063320Y021450D01*
Y021400D01*
X063520D01*
X063020Y021500D02*
X063170D01*
X063220Y021450D01*
Y021350D01*
X063170Y021300D01*
X063020D01*
X062870Y021550D02*
Y021500D01*
X062920D01*
X062820D01*
X062870D01*
Y021350D01*
X062820Y021300D01*
X062670Y021500D02*
Y021300D01*
Y021400D01*
X062620Y021450D01*
X062570Y021500D01*
X062520D01*
X062320Y021300D02*
X062221D01*
X062171Y021350D01*
Y021450D01*
X062221Y021500D01*
X062320D01*
X062370Y021450D01*
Y021350D01*
X062320Y021300D01*
X062071D02*
Y021500D01*
X061921D01*
X061871Y021450D01*
Y021300D01*
X061471Y021500D02*
X061371Y021300D01*
X061271Y021500D01*
X061021Y021300D02*
Y021600D01*
X061171Y021450D01*
X060971D01*
X060871Y021300D02*
Y021350D01*
X060821D01*
Y021300D01*
X060871D01*
X060621D02*
X060521D01*
X060571D01*
Y021600D01*
X060621Y021550D01*
X060071Y021450D02*
X059871D01*
X059471Y021300D02*
Y021600D01*
X059321D01*
X059271Y021550D01*
Y021450D01*
X059321Y021400D01*
X059471D01*
X059371D02*
X059271Y021300D01*
X059122Y021500D02*
X059022D01*
X058972Y021450D01*
Y021300D01*
X059122D01*
X059172Y021350D01*
X059122Y021400D01*
X058972D01*
X058872Y021200D02*
Y021500D01*
X058722D01*
X058672Y021450D01*
Y021350D01*
X058722Y021300D01*
X058872D01*
X058572Y021600D02*
Y021300D01*
Y021450D01*
X058522Y021500D01*
X058422D01*
X058372Y021450D01*
Y021300D01*
X058222Y021500D02*
X058122D01*
X058072Y021450D01*
Y021300D01*
X058222D01*
X058272Y021350D01*
X058222Y021400D01*
X058072D01*
X057822Y021300D02*
X057922D01*
X057972Y021350D01*
Y021450D01*
X057922Y021500D01*
X057822D01*
X057772Y021450D01*
Y021400D01*
X057972D01*
X057672Y021300D02*
X057572D01*
X057622D01*
Y021600D01*
X057672D01*
X056922Y021550D02*
X056972Y021600D01*
X057072D01*
X057122Y021550D01*
Y021350D01*
X057072Y021300D01*
X056972D01*
X056922Y021350D01*
X056822Y021600D02*
Y021300D01*
Y021450D01*
X056772Y021500D01*
X056672D01*
X056622Y021450D01*
Y021300D01*
X056472Y021500D02*
X056372D01*
X056322Y021450D01*
Y021300D01*
X056472D01*
X056522Y021350D01*
X056472Y021400D01*
X056322D01*
X056222Y021300D02*
Y021500D01*
X056073D01*
X056023Y021450D01*
Y021300D01*
X055823Y021200D02*
X055773D01*
X055723Y021250D01*
Y021500D01*
X055873D01*
X055923Y021450D01*
Y021350D01*
X055873Y021300D01*
X055723D01*
D80*
X054722Y033246D02*
Y033954D01*
X057478Y033246D02*
Y033954D01*
X064130Y025913D02*
Y026878D01*
X062910Y025913D02*
Y026878D01*
Y027822D02*
Y028846D01*
X064130Y027822D02*
Y028846D01*
X063087Y025736D02*
X063953D01*
X062910Y025913D02*
X063087Y025736D01*
X063953D02*
X064130Y025913D01*
X062910Y028846D02*
X064130D01*
X057296Y023755D02*
X058044D01*
X057296Y024345D02*
X058044D01*
X057296Y023755D02*
Y023853D01*
X058044Y023755D02*
Y023853D01*
X057296Y024247D02*
Y024345D01*
X058044Y024247D02*
Y024345D01*
X057324Y036585D02*
Y037727D01*
X055316Y036585D02*
Y037727D01*
X064935Y026766D02*
X066195D01*
X064935Y028734D02*
X066195D01*
X064935Y026766D02*
Y028734D01*
X066195Y026766D02*
Y028734D01*
X063578Y029683D02*
Y030117D01*
X064562Y029683D02*
Y030117D01*
X064828Y029683D02*
Y030117D01*
X065812Y029683D02*
Y030117D01*
X066855Y029804D02*
Y030237D01*
X066185Y029804D02*
Y030237D01*
X062068Y028296D02*
Y028483D01*
X061714D02*
X062068D01*
Y027617D02*
Y027804D01*
X061714Y027617D02*
X062068D01*
X061195Y029498D02*
X061382D01*
X061195Y029144D02*
Y029498D01*
X061874D02*
X062061D01*
Y029144D02*
Y029498D01*
X053669Y036365D02*
Y038136D01*
X054771Y036365D02*
Y038136D01*
X053669D02*
X053757D01*
X053669Y036365D02*
X053757D01*
X054683Y038136D02*
X054771D01*
X054683Y036365D02*
X054771D01*
X063913Y040335D02*
Y040965D01*
Y040335D02*
X064527D01*
X063913Y040965D02*
X064527D01*
Y040335D02*
Y040965D01*
X059213Y040335D02*
Y040965D01*
Y040335D02*
X059827D01*
X059213Y040965D02*
X059827D01*
Y040335D02*
Y040965D01*
X054513Y040335D02*
Y040965D01*
Y040335D02*
X055127D01*
X054513Y040965D02*
X055127D01*
Y040335D02*
Y040965D01*
X057890Y032426D02*
Y033174D01*
X059110Y032426D02*
Y033174D01*
X057890D02*
X059110D01*
X057890Y032426D02*
X059110D01*
X053190D02*
Y033174D01*
X054410Y032426D02*
Y033174D01*
X053190D02*
X054410D01*
X053190Y032426D02*
X054410D01*
X062024Y036579D02*
Y037721D01*
X060016Y036579D02*
Y037721D01*
X066724Y036579D02*
Y037721D01*
X064716Y036579D02*
Y037721D01*
X062178Y033246D02*
Y033954D01*
X059422Y033246D02*
Y033954D01*
X066878Y033246D02*
Y033954D01*
X064122Y033246D02*
Y033954D01*
X062590Y032426D02*
Y033174D01*
X063810Y032426D02*
Y033174D01*
X062590D02*
X063810D01*
X062590Y032426D02*
X063810D01*
X056007Y028763D02*
X059433D01*
X056007Y025337D02*
X059433D01*
X056007D02*
Y028763D01*
X059433Y025337D02*
Y028763D01*
X062517Y022559D02*
Y023741D01*
X062123Y022559D02*
Y023741D01*
X062517D01*
X062123Y022559D02*
X062517D01*
D82*
X057520Y031700D02*
Y032000D01*
X057370D01*
X057320Y031950D01*
Y031850D01*
X057370Y031800D01*
X057520D01*
X057420D02*
X057320Y031700D01*
X057220D02*
X057120D01*
X057170D01*
Y032000D01*
X057220Y031950D01*
X056970D02*
X056920Y032000D01*
X056820D01*
X056770Y031950D01*
Y031750D01*
X056820Y031700D01*
X056920D01*
X056970Y031750D01*
Y031950D01*
X058637Y030474D02*
X058670Y030507D01*
X058737D01*
X058770Y030474D01*
Y030341D01*
X058737Y030307D01*
X058670D01*
X058637Y030341D01*
X058437Y030507D02*
X058503Y030474D01*
X058570Y030407D01*
Y030341D01*
X058537Y030307D01*
X058470D01*
X058437Y030341D01*
Y030374D01*
X058470Y030407D01*
X058570D01*
X064120Y025600D02*
Y025300D01*
X063970D01*
X063920Y025350D01*
Y025550D01*
X063970Y025600D01*
X064120D01*
X063620D02*
X063720Y025550D01*
X063820Y025450D01*
Y025350D01*
X063770Y025300D01*
X063670D01*
X063620Y025350D01*
Y025400D01*
X063670Y025450D01*
X063820D01*
X058070Y023650D02*
Y023450D01*
X057970D01*
X057937Y023483D01*
Y023617D01*
X057970Y023650D01*
X058070D01*
X057870Y023450D02*
X057803D01*
X057837D01*
Y023650D01*
X057870Y023617D01*
X057703Y023450D02*
X057637D01*
X057670D01*
Y023650D01*
X057703Y023617D01*
X057937Y029783D02*
X057970Y029750D01*
Y029683D01*
X057937Y029650D01*
X057803D01*
X057770Y029683D01*
Y029750D01*
X057803Y029783D01*
X057937Y029850D02*
X057970Y029883D01*
Y029950D01*
X057937Y029983D01*
X057903D01*
X057870Y029950D01*
Y029917D01*
Y029950D01*
X057837Y029983D01*
X057803D01*
X057770Y029950D01*
Y029883D01*
X057803Y029850D01*
X057937Y030050D02*
X057970Y030083D01*
Y030150D01*
X057937Y030183D01*
X057903D01*
X057870Y030150D01*
X057837Y030183D01*
X057803D01*
X057770Y030150D01*
Y030083D01*
X057803Y030050D01*
X057837D01*
X057870Y030083D01*
X057903Y030050D01*
X057937D01*
X057870Y030083D02*
Y030150D01*
X057170Y022800D02*
Y023000D01*
X057070D01*
X057037Y022967D01*
Y022900D01*
X057070Y022867D01*
X057170D01*
X057103D02*
X057037Y022800D01*
X056837D02*
X056970D01*
X056837Y022933D01*
Y022967D01*
X056870Y023000D01*
X056937D01*
X056970Y022967D01*
X056670Y022800D02*
Y023000D01*
X056770Y022900D01*
X056637D01*
X057970Y022800D02*
Y023000D01*
X057870D01*
X057837Y022967D01*
Y022900D01*
X057870Y022867D01*
X057970D01*
X057903D02*
X057837Y022800D01*
X057637D02*
X057770D01*
X057637Y022933D01*
Y022967D01*
X057670Y023000D01*
X057737D01*
X057770Y022967D01*
X057437Y023000D02*
X057570D01*
Y022900D01*
X057503Y022933D01*
X057470D01*
X057437Y022900D01*
Y022833D01*
X057470Y022800D01*
X057537D01*
X057570Y022833D01*
X055870Y038750D02*
X055920Y038800D01*
X056020D01*
X056070Y038750D01*
Y038550D01*
X056020Y038500D01*
X055920D01*
X055870Y038550D01*
X055770Y038500D02*
X055670D01*
X055720D01*
Y038800D01*
X055770Y038750D01*
X055320Y038800D02*
X055520D01*
Y038650D01*
X055420Y038700D01*
X055370D01*
X055320Y038650D01*
Y038550D01*
X055370Y038500D01*
X055470D01*
X055520Y038550D01*
X066570Y026350D02*
Y026550D01*
X066620Y026600D01*
X066720D01*
X066770Y026550D01*
Y026350D01*
X066720Y026300D01*
X066620D01*
X066670Y026400D02*
X066570Y026300D01*
X066620D02*
X066570Y026350D01*
X066470Y026600D02*
X066270D01*
Y026550D01*
X066470Y026350D01*
Y026300D01*
X063270Y029000D02*
X063470D01*
Y029100D01*
X063437Y029133D01*
X063370D01*
X063337Y029100D01*
Y029000D01*
Y029067D02*
X063270Y029133D01*
Y029200D02*
Y029267D01*
Y029233D01*
X063470D01*
X063437Y029200D01*
X063470Y029367D02*
Y029500D01*
X063437D01*
X063303Y029367D01*
X063270D01*
Y029950D02*
X063470D01*
Y030050D01*
X063437Y030083D01*
X063370D01*
X063337Y030050D01*
Y029950D01*
Y030017D02*
X063270Y030083D01*
Y030150D02*
Y030217D01*
Y030183D01*
X063470D01*
X063437Y030150D01*
X063470Y030450D02*
X063437Y030383D01*
X063370Y030317D01*
X063303D01*
X063270Y030350D01*
Y030417D01*
X063303Y030450D01*
X063337D01*
X063370Y030417D01*
Y030317D01*
X063937Y030967D02*
X063970Y031000D01*
X064037D01*
X064070Y030967D01*
Y030833D01*
X064037Y030800D01*
X063970D01*
X063937Y030833D01*
X063870Y030800D02*
X063803D01*
X063837D01*
Y031000D01*
X063870Y030967D01*
X063703Y031000D02*
X063570D01*
Y030967D01*
X063703Y030833D01*
Y030800D01*
X065187Y030967D02*
X065220Y031000D01*
X065287D01*
X065320Y030967D01*
Y030833D01*
X065287Y030800D01*
X065220D01*
X065187Y030833D01*
X065120Y030800D02*
X065053D01*
X065087D01*
Y031000D01*
X065120Y030967D01*
X064820Y031000D02*
X064887Y030967D01*
X064953Y030900D01*
Y030833D01*
X064920Y030800D01*
X064853D01*
X064820Y030833D01*
Y030867D01*
X064853Y030900D01*
X064953D01*
X066737Y028957D02*
X066770Y028990D01*
X066837D01*
X066870Y028957D01*
Y028823D01*
X066837Y028790D01*
X066770D01*
X066737Y028823D01*
X066670Y028790D02*
X066603D01*
X066637D01*
Y028990D01*
X066670Y028957D01*
X066370Y028790D02*
X066503D01*
X066370Y028923D01*
Y028957D01*
X066403Y028990D01*
X066470D01*
X066503Y028957D01*
X062537Y030083D02*
X062570Y030050D01*
Y029983D01*
X062537Y029950D01*
X062403D01*
X062370Y029983D01*
Y030050D01*
X062403Y030083D01*
X062537Y030150D02*
X062570Y030183D01*
Y030250D01*
X062537Y030283D01*
X062503D01*
X062470Y030250D01*
Y030217D01*
Y030250D01*
X062437Y030283D01*
X062403D01*
X062370Y030250D01*
Y030183D01*
X062403Y030150D01*
X062370Y030350D02*
Y030417D01*
Y030383D01*
X062570D01*
X062537Y030350D01*
X062437Y029717D02*
X062470Y029750D01*
X062537D01*
X062570Y029717D01*
Y029583D01*
X062537Y029550D01*
X062470D01*
X062437Y029583D01*
X062370Y029717D02*
X062337Y029750D01*
X062270D01*
X062237Y029717D01*
Y029683D01*
X062270Y029650D01*
X062303D01*
X062270D01*
X062237Y029617D01*
Y029583D01*
X062270Y029550D01*
X062337D01*
X062370Y029583D01*
X062037Y029550D02*
X062170D01*
X062037Y029683D01*
Y029717D01*
X062070Y029750D01*
X062137D01*
X062170Y029717D01*
X062570Y028300D02*
X062770D01*
Y028400D01*
X062737Y028433D01*
X062670D01*
X062637Y028400D01*
Y028300D01*
Y028367D02*
X062570Y028433D01*
Y028633D02*
Y028500D01*
X062703Y028633D01*
X062737D01*
X062770Y028600D01*
Y028533D01*
X062737Y028500D01*
X062570Y028833D02*
Y028700D01*
X062703Y028833D01*
X062737D01*
X062770Y028800D01*
Y028733D01*
X062737Y028700D01*
X060920Y028550D02*
X061120D01*
Y028650D01*
X061087Y028683D01*
X061020D01*
X060987Y028650D01*
Y028550D01*
Y028617D02*
X060920Y028683D01*
Y028850D02*
X061120D01*
X061020Y028750D01*
Y028883D01*
X060920Y028950D02*
Y029017D01*
Y028983D01*
X061120D01*
X061087Y028950D01*
X060420Y029150D02*
X060620D01*
Y029250D01*
X060587Y029283D01*
X060520D01*
X060487Y029250D01*
Y029150D01*
Y029217D02*
X060420Y029283D01*
Y029450D02*
X060620D01*
X060520Y029350D01*
Y029483D01*
X060587Y029550D02*
X060620Y029583D01*
Y029650D01*
X060587Y029683D01*
X060453D01*
X060420Y029650D01*
Y029583D01*
X060453Y029550D01*
X060587D01*
X061937Y027333D02*
Y027467D01*
X061970Y027500D01*
X062037D01*
X062070Y027467D01*
Y027333D01*
X062037Y027300D01*
X061970D01*
X062003Y027367D02*
X061937Y027300D01*
X061970D02*
X061937Y027333D01*
X061870D02*
X061837Y027300D01*
X061770D01*
X061737Y027333D01*
Y027467D01*
X061770Y027500D01*
X061837D01*
X061870Y027467D01*
Y027433D01*
X061837Y027400D01*
X061737D01*
X062203Y029283D02*
X062337D01*
X062370Y029250D01*
Y029183D01*
X062337Y029150D01*
X062203D01*
X062170Y029183D01*
Y029250D01*
X062237Y029217D02*
X062170Y029283D01*
Y029250D02*
X062203Y029283D01*
X062337Y029350D02*
X062370Y029383D01*
Y029450D01*
X062337Y029483D01*
X062303D01*
X062270Y029450D01*
X062237Y029483D01*
X062203D01*
X062170Y029450D01*
Y029383D01*
X062203Y029350D01*
X062237D01*
X062270Y029383D01*
X062303Y029350D01*
X062337D01*
X062270Y029383D02*
Y029450D01*
X060737Y026867D02*
X060770Y026900D01*
X060837D01*
X060870Y026867D01*
Y026733D01*
X060837Y026700D01*
X060770D01*
X060737Y026733D01*
X060670Y026867D02*
X060637Y026900D01*
X060570D01*
X060537Y026867D01*
Y026833D01*
X060570Y026800D01*
X060603D01*
X060570D01*
X060537Y026767D01*
Y026733D01*
X060570Y026700D01*
X060637D01*
X060670Y026733D01*
X060470Y026900D02*
X060337D01*
Y026867D01*
X060470Y026733D01*
Y026700D01*
X054470Y036050D02*
Y035850D01*
X054370D01*
X054337Y035883D01*
Y036017D01*
X054370Y036050D01*
X054470D01*
X054270Y035850D02*
X054203D01*
X054237D01*
Y036050D01*
X054270Y036017D01*
X054103D02*
X054070Y036050D01*
X054003D01*
X053970Y036017D01*
Y035883D01*
X054003Y035850D01*
X054070D01*
X054103Y035883D01*
Y036017D01*
X064520Y040200D02*
Y040000D01*
X064420D01*
X064387Y040033D01*
Y040167D01*
X064420Y040200D01*
X064520D01*
X064187D02*
X064320D01*
Y040100D01*
X064253Y040133D01*
X064220D01*
X064187Y040100D01*
Y040033D01*
X064220Y040000D01*
X064287D01*
X064320Y040033D01*
X059820Y040200D02*
Y040000D01*
X059720D01*
X059687Y040033D01*
Y040167D01*
X059720Y040200D01*
X059820D01*
X059520Y040000D02*
Y040200D01*
X059620Y040100D01*
X059487D01*
X055120Y040200D02*
Y040000D01*
X055020D01*
X054987Y040033D01*
Y040167D01*
X055020Y040200D01*
X055120D01*
X054920Y040167D02*
X054887Y040200D01*
X054820D01*
X054787Y040167D01*
Y040133D01*
X054820Y040100D01*
X054853D01*
X054820D01*
X054787Y040067D01*
Y040033D01*
X054820Y040000D01*
X054887D01*
X054920Y040033D01*
X061087Y023033D02*
X061120Y023000D01*
Y022933D01*
X061087Y022900D01*
X060953D01*
X060920Y022933D01*
Y023000D01*
X060953Y023033D01*
X061087Y023100D02*
X061120Y023133D01*
Y023200D01*
X061087Y023233D01*
X061053D01*
X061020Y023200D01*
Y023167D01*
Y023200D01*
X060987Y023233D01*
X060953D01*
X060920Y023200D01*
Y023133D01*
X060953Y023100D01*
X061120Y023433D02*
X061087Y023367D01*
X061020Y023300D01*
X060953D01*
X060920Y023333D01*
Y023400D01*
X060953Y023433D01*
X060987D01*
X061020Y023400D01*
Y023300D01*
X059320Y033300D02*
X059153D01*
X059120Y033333D01*
Y033400D01*
X059153Y033433D01*
X059320D01*
X059287Y033500D02*
X059320Y033533D01*
Y033600D01*
X059287Y033633D01*
X059253D01*
X059220Y033600D01*
X059187Y033633D01*
X059153D01*
X059120Y033600D01*
Y033533D01*
X059153Y033500D01*
X059187D01*
X059220Y033533D01*
X059253Y033500D01*
X059287D01*
X059220Y033533D02*
Y033600D01*
X054620Y033300D02*
X054453D01*
X054420Y033333D01*
Y033400D01*
X054453Y033433D01*
X054620D01*
Y033500D02*
Y033633D01*
X054587D01*
X054453Y033500D01*
X054420D01*
X060620Y038750D02*
X060670Y038800D01*
X060770D01*
X060820Y038750D01*
Y038550D01*
X060770Y038500D01*
X060670D01*
X060620Y038550D01*
X060320Y038500D02*
X060520D01*
X060320Y038700D01*
Y038750D01*
X060370Y038800D01*
X060470D01*
X060520Y038750D01*
X060020Y038800D02*
X060120Y038750D01*
X060220Y038650D01*
Y038550D01*
X060170Y038500D01*
X060070D01*
X060020Y038550D01*
Y038600D01*
X060070Y038650D01*
X060220D01*
X065320Y038750D02*
X065370Y038800D01*
X065470D01*
X065520Y038750D01*
Y038550D01*
X065470Y038500D01*
X065370D01*
X065320Y038550D01*
X065020Y038500D02*
X065220D01*
X065020Y038700D01*
Y038750D01*
X065070Y038800D01*
X065170D01*
X065220Y038750D01*
X064720Y038800D02*
X064920D01*
Y038650D01*
X064820Y038700D01*
X064770D01*
X064720Y038650D01*
Y038550D01*
X064770Y038500D01*
X064870D01*
X064920Y038550D01*
X060537Y028817D02*
X060570Y028850D01*
X060637D01*
X060670Y028817D01*
Y028683D01*
X060637Y028650D01*
X060570D01*
X060537Y028683D01*
X060337Y028850D02*
X060470D01*
Y028750D01*
X060403Y028783D01*
X060370D01*
X060337Y028750D01*
Y028683D01*
X060370Y028650D01*
X060437D01*
X060470Y028683D01*
X060687Y025317D02*
X060720Y025350D01*
X060787D01*
X060820Y025317D01*
Y025183D01*
X060787Y025150D01*
X060720D01*
X060687Y025183D01*
X060520Y025150D02*
Y025350D01*
X060620Y025250D01*
X060487D01*
X055987Y024117D02*
X056020Y024150D01*
X056087D01*
X056120Y024117D01*
Y023983D01*
X056087Y023950D01*
X056020D01*
X055987Y023983D01*
X055920Y024117D02*
X055887Y024150D01*
X055820D01*
X055787Y024117D01*
Y024083D01*
X055820Y024050D01*
X055853D01*
X055820D01*
X055787Y024017D01*
Y023983D01*
X055820Y023950D01*
X055887D01*
X055920Y023983D01*
X055087Y029017D02*
X055120Y029050D01*
X055187D01*
X055220Y029017D01*
Y028883D01*
X055187Y028850D01*
X055120D01*
X055087Y028883D01*
X054887Y028850D02*
X055020D01*
X054887Y028983D01*
Y029017D01*
X054920Y029050D01*
X054987D01*
X055020Y029017D01*
X055637Y029617D02*
X055670Y029650D01*
X055737D01*
X055770Y029617D01*
Y029483D01*
X055737Y029450D01*
X055670D01*
X055637Y029483D01*
X055570Y029450D02*
X055503D01*
X055537D01*
Y029650D01*
X055570Y029617D01*
X057937Y030483D02*
X057970Y030450D01*
Y030383D01*
X057937Y030350D01*
X057803D01*
X057770Y030383D01*
Y030450D01*
X057803Y030483D01*
X057937Y030550D02*
X057970Y030583D01*
Y030650D01*
X057937Y030683D01*
X057903D01*
X057870Y030650D01*
X057837Y030683D01*
X057803D01*
X057770Y030650D01*
Y030583D01*
X057803Y030550D01*
X057837D01*
X057870Y030583D01*
X057903Y030550D01*
X057937D01*
X057870Y030583D02*
Y030650D01*
X054537Y030433D02*
X054570Y030400D01*
Y030333D01*
X054537Y030300D01*
X054403D01*
X054370Y030333D01*
Y030400D01*
X054403Y030433D01*
X054570Y030500D02*
Y030633D01*
X054537D01*
X054403Y030500D01*
X054370D01*
X054407Y031517D02*
X054440Y031550D01*
X054507D01*
X054540Y031517D01*
Y031383D01*
X054507Y031350D01*
X054440D01*
X054407Y031383D01*
X054340D02*
X054307Y031350D01*
X054240D01*
X054207Y031383D01*
Y031517D01*
X054240Y031550D01*
X054307D01*
X054340Y031517D01*
Y031483D01*
X054307Y031450D01*
X054207D01*
X062220Y031700D02*
Y032000D01*
X062070D01*
X062020Y031950D01*
Y031850D01*
X062070Y031800D01*
X062220D01*
X062120D02*
X062020Y031700D01*
X061920D02*
X061820D01*
X061870D01*
Y032000D01*
X061920Y031950D01*
X061670Y031700D02*
X061570D01*
X061620D01*
Y032000D01*
X061670Y031950D01*
X066920Y031700D02*
Y032000D01*
X066770D01*
X066720Y031950D01*
Y031850D01*
X066770Y031800D01*
X066920D01*
X066820D02*
X066720Y031700D01*
X066620D02*
X066520D01*
X066570D01*
Y032000D01*
X066620Y031950D01*
X066170Y031700D02*
X066370D01*
X066170Y031900D01*
Y031950D01*
X066220Y032000D01*
X066320D01*
X066370Y031950D01*
X056137Y024467D02*
X056170Y024500D01*
X056237D01*
X056270Y024467D01*
Y024333D01*
X056237Y024300D01*
X056170D01*
X056137Y024333D01*
X056070Y024300D02*
X056003D01*
X056037D01*
Y024500D01*
X056070Y024467D01*
X055903D02*
X055870Y024500D01*
X055803D01*
X055770Y024467D01*
Y024433D01*
X055803Y024400D01*
X055837D01*
X055803D01*
X055770Y024367D01*
Y024333D01*
X055803Y024300D01*
X055870D01*
X055903Y024333D01*
X060787Y025883D02*
X060820Y025850D01*
Y025783D01*
X060787Y025750D01*
X060653D01*
X060620Y025783D01*
Y025850D01*
X060653Y025883D01*
X060620Y025950D02*
Y026017D01*
Y025983D01*
X060820D01*
X060787Y025950D01*
X060620Y026217D02*
X060820D01*
X060720Y026117D01*
Y026250D01*
X059207Y031517D02*
X059240Y031550D01*
X059307D01*
X059340Y031517D01*
Y031383D01*
X059307Y031350D01*
X059240D01*
X059207Y031383D01*
X059007Y031350D02*
X059140D01*
X059007Y031483D01*
Y031517D01*
X059040Y031550D01*
X059107D01*
X059140Y031517D01*
X058940Y031350D02*
X058873D01*
X058907D01*
Y031550D01*
X058940Y031517D01*
X064007D02*
X064040Y031550D01*
X064106D01*
X064140Y031517D01*
Y031383D01*
X064106Y031350D01*
X064040D01*
X064007Y031383D01*
X063807Y031350D02*
X063940D01*
X063807Y031483D01*
Y031517D01*
X063840Y031550D01*
X063907D01*
X063940Y031517D01*
X063607Y031350D02*
X063740D01*
X063607Y031483D01*
Y031517D01*
X063640Y031550D01*
X063707D01*
X063740Y031517D01*
X064020Y033300D02*
X063853D01*
X063820Y033333D01*
Y033400D01*
X063853Y033433D01*
X064020D01*
X063853Y033500D02*
X063820Y033533D01*
Y033600D01*
X063853Y033633D01*
X063987D01*
X064020Y033600D01*
Y033533D01*
X063987Y033500D01*
X063953D01*
X063920Y033533D01*
Y033633D01*
X063590Y024450D02*
Y024283D01*
X063556Y024250D01*
X063490D01*
X063457Y024283D01*
Y024450D01*
X063390Y024250D02*
X063323D01*
X063357D01*
Y024450D01*
X063390Y024417D01*
X063223D02*
X063190Y024450D01*
X063123D01*
X063090Y024417D01*
Y024283D01*
X063123Y024250D01*
X063190D01*
X063223Y024283D01*
Y024417D01*
X057620Y031000D02*
X057587D01*
X057520Y031067D01*
X057587Y031133D01*
X057620D01*
X057520Y031067D02*
X057420D01*
Y031200D02*
Y031267D01*
Y031233D01*
X057620D01*
X057587Y031200D01*
X062520Y021800D02*
Y022000D01*
X062420D01*
X062387Y021967D01*
Y021900D01*
X062420Y021867D01*
X062520D01*
X062453D02*
X062387Y021800D01*
X062187D02*
X062320D01*
X062187Y021933D01*
Y021967D01*
X062220Y022000D01*
X062287D01*
X062320Y021967D01*
X062120D02*
X062087Y022000D01*
X062020D01*
X061987Y021967D01*
Y021933D01*
X062020Y021900D01*
X062053D01*
X062020D01*
X061987Y021867D01*
Y021833D01*
X062020Y021800D01*
X062087D01*
X062120Y021833D01*
X059840Y029250D02*
Y029000D01*
X059790Y028950D01*
X059690D01*
X059640Y029000D01*
Y029250D01*
X059540Y028950D02*
X059440D01*
X059490D01*
Y029250D01*
X059540Y029200D01*
X066320Y023967D02*
X066287Y024000D01*
X066220D01*
X066187Y023967D01*
Y023933D01*
X066220Y023900D01*
X066253D01*
X066220D01*
X066187Y023867D01*
Y023833D01*
X066220Y023800D01*
X066287D01*
X066320Y023833D01*
X066120Y024000D02*
Y023867D01*
X066053Y023800D01*
X065987Y023867D01*
Y024000D01*
X065920Y023967D02*
X065887Y024000D01*
X065820D01*
X065787Y023967D01*
Y023933D01*
X065820Y023900D01*
X065853D01*
X065820D01*
X065787Y023867D01*
Y023833D01*
X065820Y023800D01*
X065887D01*
X065920Y023833D01*
X065287Y023967D02*
X065320Y024000D01*
X065387D01*
X065420Y023967D01*
Y023833D01*
X065387Y023800D01*
X065320D01*
X065287Y023833D01*
X065087Y023967D02*
X065120Y024000D01*
X065187D01*
X065220Y023967D01*
Y023933D01*
X065187Y023900D01*
X065120D01*
X065087Y023867D01*
Y023833D01*
X065120Y023800D01*
X065187D01*
X065220Y023833D01*
X064637Y023967D02*
X064670Y024000D01*
X064737D01*
X064770Y023967D01*
Y023833D01*
X064737Y023800D01*
X064670D01*
X064637Y023833D01*
X064570Y024000D02*
Y023800D01*
X064437D01*
X064370Y024000D02*
Y023800D01*
Y023867D01*
X064237Y024000D01*
X064337Y023900D01*
X064237Y023800D01*
X064120Y024800D02*
Y025000D01*
X064053Y024933D01*
X063987Y025000D01*
Y024800D01*
X063920Y025000D02*
X063853D01*
X063887D01*
Y024800D01*
X063920D01*
X063853D01*
X063620Y024967D02*
X063653Y025000D01*
X063720D01*
X063753Y024967D01*
Y024933D01*
X063720Y024900D01*
X063653D01*
X063620Y024867D01*
Y024833D01*
X063653Y024800D01*
X063720D01*
X063753Y024833D01*
X063453Y025000D02*
X063520D01*
X063553Y024967D01*
Y024833D01*
X063520Y024800D01*
X063453D01*
X063420Y024833D01*
Y024967D01*
X063453Y025000D01*
X063170Y024800D02*
Y025000D01*
X063103Y024933D01*
X063037Y025000D01*
Y024800D01*
X062870Y025000D02*
X062937D01*
X062970Y024967D01*
Y024833D01*
X062937Y024800D01*
X062870D01*
X062837Y024833D01*
Y024967D01*
X062870Y025000D01*
X062637Y024967D02*
X062670Y025000D01*
X062737D01*
X062770Y024967D01*
Y024933D01*
X062737Y024900D01*
X062670D01*
X062637Y024867D01*
Y024833D01*
X062670Y024800D01*
X062737D01*
X062770Y024833D01*
X062570Y025000D02*
X062503D01*
X062537D01*
Y024800D01*
X062570D01*
X062503D01*
X062170D02*
Y024933D01*
X062103Y025000D01*
X062037Y024933D01*
Y024800D01*
Y024900D01*
X062170D01*
X061370Y025000D02*
Y024800D01*
X061270D01*
X061237Y024833D01*
Y024867D01*
X061270Y024900D01*
X061370D01*
X061270D01*
X061237Y024933D01*
Y024967D01*
X061270Y025000D01*
X061370D01*
X060687Y023967D02*
X060720Y024000D01*
X060787D01*
X060820Y023967D01*
Y023833D01*
X060787Y023800D01*
X060720D01*
X060687Y023833D01*
Y023900D01*
X060753D01*
X060620Y023800D02*
Y024000D01*
X060487Y023800D01*
Y024000D01*
X060420D02*
Y023800D01*
X060320D01*
X060287Y023833D01*
Y023967D01*
X060320Y024000D01*
X060420D01*
D136*
X058874Y032741D02*
G03*
X058874Y032741I-000079J000000D01*
G01*
X054174D02*
G03*
X054174Y032741I-000079J000000D01*
G01*
X063574D02*
G03*
X063574Y032741I-000079J000000D01*
G01*
D137*
X056519Y028369D02*
G03*
X056519Y028369I-000118J000000D01*
G01*
M02*
