G04 Layer_Color=128*
%FSAX24Y24*%
%MOIN*%
G70*
G01*
G75*
%ADD12R,0.0205X0.0205*%
%ADD13R,0.0205X0.0205*%
%ADD26R,0.0177X0.0217*%
%ADD27R,0.0217X0.0177*%
%ADD58R,0.2205X0.0961*%
%ADD59R,0.0350X0.0961*%
%ADD60R,0.0906X0.0906*%
%ADD61R,0.0335X0.0157*%
%ADD62R,0.0315X0.0551*%
%ADD63O,0.0098X0.0610*%
%ADD64O,0.0610X0.0098*%
%ADD65R,0.0630X0.0550*%
%ADD66O,0.0177X0.0630*%
%ADD67R,0.2087X0.0532*%
%ADD68R,0.0358X0.0480*%
%ADD69R,0.0610X0.0945*%
%ADD70R,0.0748X0.0532*%
%ADD71R,0.1063X0.0453*%
%ADD72R,0.0470X0.0220*%
%ADD73R,0.0177X0.0335*%
%ADD74R,0.0335X0.0177*%
%ADD75R,0.0394X0.0177*%
D12*
X058570Y030065D02*
D03*
Y029750D02*
D03*
X057570Y030057D02*
D03*
Y029743D02*
D03*
X060400Y025843D02*
D03*
Y026157D02*
D03*
X054770Y030343D02*
D03*
Y030657D02*
D03*
X057570Y030657D02*
D03*
Y030343D02*
D03*
X055020Y028665D02*
D03*
Y028350D02*
D03*
X060520Y028150D02*
D03*
Y028465D02*
D03*
X061320Y022993D02*
D03*
Y023307D02*
D03*
X062770Y030355D02*
D03*
Y030040D02*
D03*
D13*
X063377Y031450D02*
D03*
X063062D02*
D03*
X058677D02*
D03*
X058362D02*
D03*
X056462Y024400D02*
D03*
X056777D02*
D03*
X053977Y031450D02*
D03*
X053662D02*
D03*
X055820Y029250D02*
D03*
X055505D02*
D03*
X056312Y024050D02*
D03*
X056627D02*
D03*
X060462Y025550D02*
D03*
X060777D02*
D03*
X060757Y026500D02*
D03*
X060443D02*
D03*
X062812Y029697D02*
D03*
X063127D02*
D03*
D26*
X057870Y023200D02*
D03*
X057516D02*
D03*
X057074D02*
D03*
X056720D02*
D03*
X062447Y022200D02*
D03*
X062093D02*
D03*
D27*
X062720Y029404D02*
D03*
Y029050D02*
D03*
X063120Y030375D02*
D03*
Y030020D02*
D03*
Y029375D02*
D03*
Y029020D02*
D03*
X060820Y029273D02*
D03*
Y029627D02*
D03*
X061020Y028327D02*
D03*
Y027973D02*
D03*
D58*
X056450Y032624D02*
D03*
Y034576D02*
D03*
X065850D02*
D03*
Y032624D02*
D03*
X061150Y034576D02*
D03*
Y032624D02*
D03*
D59*
X054822Y034576D02*
D03*
Y032624D02*
D03*
X064222D02*
D03*
Y034576D02*
D03*
X059522Y032624D02*
D03*
Y034576D02*
D03*
D60*
X063520Y026464D02*
D03*
Y028236D02*
D03*
D61*
X057207Y024050D02*
D03*
X058133D02*
D03*
D62*
X053834Y028224D02*
D03*
X054405D02*
D03*
X053834Y026176D02*
D03*
X054405D02*
D03*
D63*
X056244Y029225D02*
D03*
X056440D02*
D03*
X056637D02*
D03*
X056834D02*
D03*
X057031D02*
D03*
X057228D02*
D03*
X057425D02*
D03*
X057621D02*
D03*
X057818D02*
D03*
X058015D02*
D03*
X058212D02*
D03*
X058409D02*
D03*
X058606D02*
D03*
X058803D02*
D03*
X058999D02*
D03*
X059196D02*
D03*
Y024875D02*
D03*
X058999D02*
D03*
X058803D02*
D03*
X058606D02*
D03*
X058409D02*
D03*
X058212D02*
D03*
X058015D02*
D03*
X057818D02*
D03*
X057621D02*
D03*
X057425D02*
D03*
X057228D02*
D03*
X057031D02*
D03*
X056834D02*
D03*
X056637D02*
D03*
X056440D02*
D03*
X056244D02*
D03*
D64*
X059895Y028526D02*
D03*
Y028330D02*
D03*
Y028133D02*
D03*
Y027936D02*
D03*
Y027739D02*
D03*
Y027542D02*
D03*
Y027345D02*
D03*
Y027148D02*
D03*
Y026952D02*
D03*
Y026755D02*
D03*
Y026558D02*
D03*
Y026361D02*
D03*
Y026164D02*
D03*
Y025967D02*
D03*
Y025770D02*
D03*
Y025574D02*
D03*
X055545D02*
D03*
Y025770D02*
D03*
Y025967D02*
D03*
Y026164D02*
D03*
Y026361D02*
D03*
Y026558D02*
D03*
Y026755D02*
D03*
Y026952D02*
D03*
Y027148D02*
D03*
Y027345D02*
D03*
Y027542D02*
D03*
Y027739D02*
D03*
Y027936D02*
D03*
Y028133D02*
D03*
Y028330D02*
D03*
Y028526D02*
D03*
D65*
X055355Y030075D02*
D03*
X056985D02*
D03*
Y031025D02*
D03*
X055355D02*
D03*
D66*
X062816Y033646D02*
D03*
X063072D02*
D03*
X063328D02*
D03*
X063584D02*
D03*
X062816Y031954D02*
D03*
X063072D02*
D03*
X063328D02*
D03*
X063584D02*
D03*
X053416Y033646D02*
D03*
X053672D02*
D03*
X053928D02*
D03*
X054184D02*
D03*
X053416Y031954D02*
D03*
X053672D02*
D03*
X053928D02*
D03*
X054184D02*
D03*
X058116Y033646D02*
D03*
X058372D02*
D03*
X058628D02*
D03*
X058884D02*
D03*
X058116Y031954D02*
D03*
X058372D02*
D03*
X058628D02*
D03*
X058884D02*
D03*
D67*
X065720Y036156D02*
D03*
Y038144D02*
D03*
X061020Y036156D02*
D03*
Y038144D02*
D03*
X056320Y036162D02*
D03*
Y038150D02*
D03*
D68*
X054176Y040650D02*
D03*
X055464D02*
D03*
X058876D02*
D03*
X060164D02*
D03*
X063576D02*
D03*
X064864D02*
D03*
D69*
X054220Y037851D02*
D03*
Y036650D02*
D03*
D70*
X066520Y029390D02*
D03*
Y030650D02*
D03*
D71*
X065320Y030491D02*
D03*
Y029309D02*
D03*
X064070Y030491D02*
D03*
Y029309D02*
D03*
D72*
X064570Y027000D02*
D03*
Y027500D02*
D03*
Y028000D02*
D03*
Y028500D02*
D03*
X066560Y027000D02*
D03*
Y027500D02*
D03*
Y028000D02*
D03*
Y028500D02*
D03*
D73*
X061628Y029665D02*
D03*
X061372Y028835D02*
D03*
X061884D02*
D03*
D74*
X062235Y028050D02*
D03*
X061405Y028306D02*
D03*
Y027794D02*
D03*
D75*
X061808Y023534D02*
D03*
X062832D02*
D03*
Y022766D02*
D03*
Y023022D02*
D03*
Y023278D02*
D03*
X061808D02*
D03*
Y023022D02*
D03*
Y022766D02*
D03*
M02*
