G04 Layer_Color=32896*
%FSAX24Y24*%
%MOIN*%
G70*
G01*
G75*
%ADD36C,0.0100*%
%ADD60C,0.0098*%
%ADD61C,0.0080*%
%ADD63C,0.0079*%
%ADD64C,0.0050*%
%ADD111C,0.0236*%
%ADD112C,0.0157*%
D36*
X061798Y029533D02*
X061994Y029730D01*
X061798Y028667D02*
X061995Y028470D01*
X061798Y028667D02*
Y029533D01*
X061995Y028470D02*
X064002Y028471D01*
X061994Y029730D02*
X064002D01*
Y028471D02*
Y029730D01*
D60*
X058854Y021323D02*
G03*
X058854Y021323I-000049J000000D01*
G01*
X068269Y037639D02*
G03*
X068269Y037639I-000049J000000D01*
G01*
X067672Y034739D02*
G03*
X067672Y034739I-000049J000000D01*
G01*
X062172D02*
G03*
X062172Y034739I-000049J000000D01*
G01*
X056672D02*
G03*
X056672Y034739I-000049J000000D01*
G01*
X064811Y028219D02*
G03*
X064811Y028219I-000049J000000D01*
G01*
X067449Y028750D02*
G03*
X067449Y028750I-000049J000000D01*
G01*
X061024Y029142D02*
G03*
X061024Y029142I-000049J000000D01*
G01*
X067660Y034546D02*
G03*
X067660Y034546I-000049J000000D01*
G01*
X062160D02*
G03*
X062160Y034546I-000049J000000D01*
G01*
X056660D02*
G03*
X056660Y034546I-000049J000000D01*
G01*
X062769Y037639D02*
G03*
X062769Y037639I-000049J000000D01*
G01*
X057269D02*
G03*
X057269Y037639I-000049J000000D01*
G01*
D61*
X063600Y021100D02*
X063800D01*
Y020800D01*
X063600D01*
X063800Y020950D02*
X063700D01*
X063300Y021050D02*
X063350Y021100D01*
X063450D01*
X063500Y021050D01*
Y021000D01*
X063450Y020950D01*
X063350D01*
X063300Y020900D01*
Y020850D01*
X063350Y020800D01*
X063450D01*
X063500Y020850D01*
X063000Y021050D02*
X063050Y021100D01*
X063150D01*
X063200Y021050D01*
Y020850D01*
X063150Y020800D01*
X063050D01*
X063000Y020850D01*
X062600Y021000D02*
X062500Y020800D01*
X062400Y021000D01*
X062300Y021050D02*
X062250Y021100D01*
X062151D01*
X062101Y021050D01*
Y021000D01*
X062151Y020950D01*
X062201D01*
X062151D01*
X062101Y020900D01*
Y020850D01*
X062151Y020800D01*
X062250D01*
X062300Y020850D01*
X062001Y020800D02*
Y020850D01*
X061951D01*
Y020800D01*
X062001D01*
X061751Y021050D02*
X061701Y021100D01*
X061601D01*
X061551Y021050D01*
Y020850D01*
X061601Y020800D01*
X061701D01*
X061751Y020850D01*
Y021050D01*
X061151Y020950D02*
X060951D01*
X060551Y020800D02*
Y021100D01*
X060401D01*
X060351Y021050D01*
Y020950D01*
X060401Y020900D01*
X060551D01*
X060451D02*
X060351Y020800D01*
X060201Y021000D02*
X060101D01*
X060051Y020950D01*
Y020800D01*
X060201D01*
X060251Y020850D01*
X060201Y020900D01*
X060051D01*
X059951Y020700D02*
Y021000D01*
X059801D01*
X059751Y020950D01*
Y020850D01*
X059801Y020800D01*
X059951D01*
X059651Y021100D02*
Y020800D01*
Y020950D01*
X059601Y021000D01*
X059501D01*
X059451Y020950D01*
Y020800D01*
X059301Y021000D02*
X059201D01*
X059152Y020950D01*
Y020800D01*
X059301D01*
X059351Y020850D01*
X059301Y020900D01*
X059152D01*
X058902Y020800D02*
X059002D01*
X059052Y020850D01*
Y020950D01*
X059002Y021000D01*
X058902D01*
X058852Y020950D01*
Y020900D01*
X059052D01*
X058752Y020800D02*
X058652D01*
X058702D01*
Y021100D01*
X058752D01*
X058002Y021050D02*
X058052Y021100D01*
X058152D01*
X058202Y021050D01*
Y020850D01*
X058152Y020800D01*
X058052D01*
X058002Y020850D01*
X057902Y021100D02*
Y020800D01*
Y020950D01*
X057852Y021000D01*
X057752D01*
X057702Y020950D01*
Y020800D01*
X057552Y021000D02*
X057452D01*
X057402Y020950D01*
Y020800D01*
X057552D01*
X057602Y020850D01*
X057552Y020900D01*
X057402D01*
X057302Y020800D02*
Y021000D01*
X057152D01*
X057102Y020950D01*
Y020800D01*
X056902Y020700D02*
X056852D01*
X056802Y020750D01*
Y021000D01*
X056952D01*
X057002Y020950D01*
Y020850D01*
X056952Y020800D01*
X056802D01*
D63*
X059170Y023384D02*
X060430D01*
X059170Y021416D02*
X060430D01*
Y023384D01*
X059170Y021416D02*
Y023384D01*
X067083Y030035D02*
X067517D01*
X067083Y029365D02*
X067517D01*
X068496Y025590D02*
Y026810D01*
X065386Y025767D02*
X065563Y025590D01*
X065386Y026633D02*
X065563Y026810D01*
X065386Y025767D02*
Y026633D01*
X067472Y025590D02*
X068496D01*
X067472Y026810D02*
X068496D01*
X065563D02*
X066528D01*
X065563Y025590D02*
X066528D01*
X068334Y037043D02*
Y037357D01*
X068866Y037043D02*
Y037357D01*
X068334D02*
X068866D01*
X068334Y037043D02*
X068866D01*
X068180Y035043D02*
X068220D01*
X068180Y035357D02*
X068220D01*
X062680Y035043D02*
X062720D01*
X062680Y035357D02*
X062720D01*
X057180Y035043D02*
X057220D01*
X057180Y035357D02*
X057220D01*
X063850Y030852D02*
X065400D01*
X063850Y030850D02*
Y033950D01*
X066950D01*
Y030850D02*
Y033950D01*
X065400Y030852D02*
X066950D01*
X058350D02*
X059900D01*
X058350Y030850D02*
Y033950D01*
X061450D01*
Y030850D02*
Y033950D01*
X059900Y030852D02*
X061450D01*
X063633Y035763D02*
Y036865D01*
Y035763D02*
X067767D01*
Y036865D01*
X062267Y035763D02*
Y036865D01*
X058133Y035763D02*
X062267D01*
X058133D02*
Y036865D01*
X052633Y035763D02*
Y036865D01*
Y035763D02*
X056767D01*
Y036865D01*
X064112Y025581D02*
Y028219D01*
X063088Y025581D02*
Y028219D01*
X064112D01*
X063088Y025581D02*
X064112D01*
X052850Y030852D02*
X054400D01*
X052850Y030850D02*
Y033950D01*
X055950D01*
Y030850D02*
Y033950D01*
X054400Y030852D02*
X055950D01*
X067630Y027016D02*
Y028984D01*
X066370Y027016D02*
Y028984D01*
X067630D01*
X066370Y027016D02*
X067630D01*
X057087Y025687D02*
X060513D01*
X057087Y029113D02*
X060513D01*
X057087Y025687D02*
Y029113D01*
X060513Y025687D02*
Y029113D01*
X067690Y034074D02*
X068910D01*
X067690Y033326D02*
X068910D01*
X067690D02*
Y034074D01*
X068910Y033326D02*
Y034074D01*
X062190D02*
X063410D01*
X062190Y033326D02*
X063410D01*
X062190D02*
Y034074D01*
X063410Y033326D02*
Y034074D01*
X056690D02*
X057910D01*
X056690Y033326D02*
X057910D01*
X056690D02*
Y034074D01*
X057910Y033326D02*
Y034074D01*
X062834Y037043D02*
Y037357D01*
X063366Y037043D02*
Y037357D01*
X062834D02*
X063366D01*
X062834Y037043D02*
X063366D01*
X057334D02*
Y037357D01*
X057866Y037043D02*
Y037357D01*
X057334D02*
X057866D01*
X057334Y037043D02*
X057866D01*
D64*
X067100Y023000D02*
Y023200D01*
X067000D01*
X066967Y023167D01*
Y023100D01*
X067000Y023067D01*
X067100D01*
X067033D02*
X066967Y023000D01*
X066767D02*
X066900D01*
X066767Y023133D01*
Y023167D01*
X066800Y023200D01*
X066867D01*
X066900Y023167D01*
X066567Y023200D02*
X066700D01*
Y023100D01*
X066633Y023133D01*
X066600D01*
X066567Y023100D01*
Y023033D01*
X066600Y023000D01*
X066667D01*
X066700Y023033D01*
X067100Y023700D02*
Y023900D01*
X067000D01*
X066967Y023867D01*
Y023800D01*
X067000Y023767D01*
X067100D01*
X067033D02*
X066967Y023700D01*
X066767D02*
X066900D01*
X066767Y023833D01*
Y023867D01*
X066800Y023900D01*
X066867D01*
X066900Y023867D01*
X066600Y023700D02*
Y023900D01*
X066700Y023800D01*
X066567D01*
X064000Y022100D02*
Y022300D01*
X063900D01*
X063867Y022267D01*
Y022200D01*
X063900Y022167D01*
X064000D01*
X063933D02*
X063867Y022100D01*
X063667D02*
X063800D01*
X063667Y022233D01*
Y022267D01*
X063700Y022300D01*
X063767D01*
X063800Y022267D01*
X063600D02*
X063567Y022300D01*
X063500D01*
X063467Y022267D01*
Y022233D01*
X063500Y022200D01*
X063533D01*
X063500D01*
X063467Y022167D01*
Y022133D01*
X063500Y022100D01*
X063567D01*
X063600Y022133D01*
X068267Y035733D02*
X068300Y035700D01*
Y035633D01*
X068267Y035600D01*
X068133D01*
X068100Y035633D01*
Y035700D01*
X068133Y035733D01*
X068267Y035800D02*
X068300Y035833D01*
Y035900D01*
X068267Y035933D01*
X068233D01*
X068200Y035900D01*
Y035867D01*
Y035900D01*
X068167Y035933D01*
X068133D01*
X068100Y035900D01*
Y035833D01*
X068133Y035800D01*
X068300Y036133D02*
Y036000D01*
X068200D01*
X068233Y036067D01*
Y036100D01*
X068200Y036133D01*
X068133D01*
X068100Y036100D01*
Y036033D01*
X068133Y036000D01*
X062767Y035733D02*
X062800Y035700D01*
Y035633D01*
X062767Y035600D01*
X062633D01*
X062600Y035633D01*
Y035700D01*
X062633Y035733D01*
X062767Y035800D02*
X062800Y035833D01*
Y035900D01*
X062767Y035933D01*
X062733D01*
X062700Y035900D01*
Y035867D01*
Y035900D01*
X062667Y035933D01*
X062633D01*
X062600Y035900D01*
Y035833D01*
X062633Y035800D01*
X062600Y036100D02*
X062800D01*
X062700Y036000D01*
Y036133D01*
X057267Y035733D02*
X057300Y035700D01*
Y035633D01*
X057267Y035600D01*
X057133D01*
X057100Y035633D01*
Y035700D01*
X057133Y035733D01*
X057267Y035800D02*
X057300Y035833D01*
Y035900D01*
X057267Y035933D01*
X057233D01*
X057200Y035900D01*
Y035867D01*
Y035900D01*
X057167Y035933D01*
X057133D01*
X057100Y035900D01*
Y035833D01*
X057133Y035800D01*
X057267Y036000D02*
X057300Y036033D01*
Y036100D01*
X057267Y036133D01*
X057233D01*
X057200Y036100D01*
Y036067D01*
Y036100D01*
X057167Y036133D01*
X057133D01*
X057100Y036100D01*
Y036033D01*
X057133Y036000D01*
X063600Y030200D02*
Y030400D01*
X063500D01*
X063467Y030367D01*
Y030300D01*
X063500Y030267D01*
X063600D01*
X063533D02*
X063467Y030200D01*
X063267D02*
X063400D01*
X063267Y030333D01*
Y030367D01*
X063300Y030400D01*
X063367D01*
X063400Y030367D01*
X063067Y030200D02*
X063200D01*
X063067Y030333D01*
Y030367D01*
X063100Y030400D01*
X063167D01*
X063200Y030367D01*
X064567Y029767D02*
X064600Y029800D01*
X064667D01*
X064700Y029767D01*
Y029633D01*
X064667Y029600D01*
X064600D01*
X064567Y029633D01*
X064500Y029767D02*
X064467Y029800D01*
X064400D01*
X064367Y029767D01*
Y029733D01*
X064400Y029700D01*
X064433D01*
X064400D01*
X064367Y029667D01*
Y029633D01*
X064400Y029600D01*
X064467D01*
X064500Y029633D01*
X064167Y029600D02*
X064300D01*
X064167Y029733D01*
Y029767D01*
X064200Y029800D01*
X064267D01*
X064300Y029767D01*
X061967Y030067D02*
X062000Y030100D01*
X062067D01*
X062100Y030067D01*
Y029933D01*
X062067Y029900D01*
X062000D01*
X061967Y029933D01*
X061900Y030067D02*
X061867Y030100D01*
X061800D01*
X061767Y030067D01*
Y030033D01*
X061800Y030000D01*
X061833D01*
X061800D01*
X061767Y029967D01*
Y029933D01*
X061800Y029900D01*
X061867D01*
X061900Y029933D01*
X061700Y029900D02*
X061633D01*
X061667D01*
Y030100D01*
X061700Y030067D01*
X059200Y023800D02*
Y023550D01*
X059150Y023500D01*
X059050D01*
X059000Y023550D01*
Y023800D01*
X058900Y023500D02*
X058800D01*
X058850D01*
Y023800D01*
X058900Y023750D01*
X058650D02*
X058600Y023800D01*
X058500D01*
X058450Y023750D01*
Y023550D01*
X058500Y023500D01*
X058600D01*
X058650Y023550D01*
Y023750D01*
X069100Y034300D02*
X068933D01*
X068900Y034333D01*
Y034400D01*
X068933Y034433D01*
X069100D01*
X068933Y034500D02*
X068900Y034533D01*
Y034600D01*
X068933Y034633D01*
X069067D01*
X069100Y034600D01*
Y034533D01*
X069067Y034500D01*
X069033D01*
X069000Y034533D01*
Y034633D01*
X057200Y022400D02*
Y022600D01*
X057100D01*
X057067Y022567D01*
Y022500D01*
X057100Y022467D01*
X057200D01*
X057133D02*
X057067Y022400D01*
X056867D02*
X057000D01*
X056867Y022533D01*
Y022567D01*
X056900Y022600D01*
X056967D01*
X057000Y022567D01*
X056800D02*
X056767Y022600D01*
X056700D01*
X056667Y022567D01*
Y022433D01*
X056700Y022400D01*
X056767D01*
X056800Y022433D01*
Y022567D01*
X054400Y024400D02*
Y024600D01*
X054300D01*
X054267Y024567D01*
Y024500D01*
X054300Y024467D01*
X054400D01*
X054333D02*
X054267Y024400D01*
X054200D02*
X054133D01*
X054167D01*
Y024600D01*
X054200Y024567D01*
X054033Y024433D02*
X054000Y024400D01*
X053933D01*
X053900Y024433D01*
Y024567D01*
X053933Y024600D01*
X054000D01*
X054033Y024567D01*
Y024533D01*
X054000Y024500D01*
X053900D01*
X054400Y023400D02*
Y023600D01*
X054300D01*
X054267Y023567D01*
Y023500D01*
X054300Y023467D01*
X054400D01*
X054333D02*
X054267Y023400D01*
X054200D02*
X054133D01*
X054167D01*
Y023600D01*
X054200Y023567D01*
X054033D02*
X054000Y023600D01*
X053933D01*
X053900Y023567D01*
Y023533D01*
X053933Y023500D01*
X053900Y023467D01*
Y023433D01*
X053933Y023400D01*
X054000D01*
X054033Y023433D01*
Y023467D01*
X054000Y023500D01*
X054033Y023533D01*
Y023567D01*
X054000Y023500D02*
X053933D01*
X068767Y032267D02*
X068800Y032300D01*
X068867D01*
X068900Y032267D01*
Y032133D01*
X068867Y032100D01*
X068800D01*
X068767Y032133D01*
X068567Y032100D02*
X068700D01*
X068567Y032233D01*
Y032267D01*
X068600Y032300D01*
X068667D01*
X068700Y032267D01*
X068367Y032100D02*
X068500D01*
X068367Y032233D01*
Y032267D01*
X068400Y032300D01*
X068467D01*
X068500Y032267D01*
X063267D02*
X063300Y032300D01*
X063367D01*
X063400Y032267D01*
Y032133D01*
X063367Y032100D01*
X063300D01*
X063267Y032133D01*
X063067Y032100D02*
X063200D01*
X063067Y032233D01*
Y032267D01*
X063100Y032300D01*
X063167D01*
X063200Y032267D01*
X063000Y032100D02*
X062933D01*
X062967D01*
Y032300D01*
X063000Y032267D01*
X057167Y024667D02*
X057200Y024700D01*
X057267D01*
X057300Y024667D01*
Y024533D01*
X057267Y024500D01*
X057200D01*
X057167Y024533D01*
X057100Y024500D02*
X057033D01*
X057067D01*
Y024700D01*
X057100Y024667D01*
X056833Y024500D02*
Y024700D01*
X056933Y024600D01*
X056800D01*
X055767Y028433D02*
X055800Y028400D01*
Y028333D01*
X055767Y028300D01*
X055633D01*
X055600Y028333D01*
Y028400D01*
X055633Y028433D01*
X055600Y028500D02*
Y028567D01*
Y028533D01*
X055800D01*
X055767Y028500D01*
Y028667D02*
X055800Y028700D01*
Y028767D01*
X055767Y028800D01*
X055733D01*
X055700Y028767D01*
Y028733D01*
Y028767D01*
X055667Y028800D01*
X055633D01*
X055600Y028767D01*
Y028700D01*
X055633Y028667D01*
X068800Y038100D02*
Y037900D01*
X068700D01*
X068667Y037933D01*
Y038067D01*
X068700Y038100D01*
X068800D01*
X068600Y037933D02*
X068567Y037900D01*
X068500D01*
X068467Y037933D01*
Y038067D01*
X068500Y038100D01*
X068567D01*
X068600Y038067D01*
Y038033D01*
X068567Y038000D01*
X068467D01*
X068800Y035000D02*
X069000D01*
Y035100D01*
X068967Y035133D01*
X068900D01*
X068867Y035100D01*
Y035000D01*
Y035067D02*
X068800Y035133D01*
Y035200D02*
Y035267D01*
Y035233D01*
X069000D01*
X068967Y035200D01*
X069000Y035500D02*
Y035367D01*
X068900D01*
X068933Y035433D01*
Y035467D01*
X068900Y035500D01*
X068833D01*
X068800Y035467D01*
Y035400D01*
X068833Y035367D01*
X063300Y035000D02*
X063500D01*
Y035100D01*
X063467Y035133D01*
X063400D01*
X063367Y035100D01*
Y035000D01*
Y035067D02*
X063300Y035133D01*
Y035200D02*
Y035267D01*
Y035233D01*
X063500D01*
X063467Y035200D01*
X063300Y035467D02*
X063500D01*
X063400Y035367D01*
Y035500D01*
X057800Y035000D02*
X058000D01*
Y035100D01*
X057967Y035133D01*
X057900D01*
X057867Y035100D01*
Y035000D01*
Y035067D02*
X057800Y035133D01*
Y035200D02*
Y035267D01*
Y035233D01*
X058000D01*
X057967Y035200D01*
Y035367D02*
X058000Y035400D01*
Y035467D01*
X057967Y035500D01*
X057933D01*
X057900Y035467D01*
Y035433D01*
Y035467D01*
X057867Y035500D01*
X057833D01*
X057800Y035467D01*
Y035400D01*
X057833Y035367D01*
X067100Y033000D02*
X067400D01*
Y033150D01*
X067350Y033200D01*
X067250D01*
X067200Y033150D01*
Y033000D01*
Y033100D02*
X067100Y033200D01*
Y033300D02*
Y033400D01*
Y033350D01*
X067400D01*
X067350Y033300D01*
X067100Y033750D02*
Y033550D01*
X067300Y033750D01*
X067350D01*
X067400Y033700D01*
Y033600D01*
X067350Y033550D01*
X061600Y033000D02*
X061900D01*
Y033150D01*
X061850Y033200D01*
X061750D01*
X061700Y033150D01*
Y033000D01*
Y033100D02*
X061600Y033200D01*
Y033300D02*
Y033400D01*
Y033350D01*
X061900D01*
X061850Y033300D01*
X061600Y033550D02*
Y033650D01*
Y033600D01*
X061900D01*
X061850Y033550D01*
X063250Y040100D02*
X063450D01*
X063500Y040050D01*
Y039950D01*
X063450Y039900D01*
X063250D01*
X063200Y039950D01*
Y040050D01*
X063300Y040000D02*
X063200Y040100D01*
Y040050D02*
X063250Y040100D01*
X063500Y040400D02*
X063450Y040300D01*
X063350Y040200D01*
X063250D01*
X063200Y040250D01*
Y040350D01*
X063250Y040400D01*
X063300D01*
X063350Y040350D01*
Y040200D01*
X057750Y040100D02*
X057950D01*
X058000Y040050D01*
Y039950D01*
X057950Y039900D01*
X057750D01*
X057700Y039950D01*
Y040050D01*
X057800Y040000D02*
X057700Y040100D01*
Y040050D02*
X057750Y040100D01*
X058000Y040400D02*
Y040200D01*
X057850D01*
X057900Y040300D01*
Y040350D01*
X057850Y040400D01*
X057750D01*
X057700Y040350D01*
Y040250D01*
X057750Y040200D01*
X052250Y040100D02*
X052450D01*
X052500Y040050D01*
Y039950D01*
X052450Y039900D01*
X052250D01*
X052200Y039950D01*
Y040050D01*
X052300Y040000D02*
X052200Y040100D01*
Y040050D02*
X052250Y040100D01*
X052200Y040350D02*
X052500D01*
X052350Y040200D01*
Y040400D01*
X057667Y032267D02*
X057700Y032300D01*
X057767D01*
X057800Y032267D01*
Y032133D01*
X057767Y032100D01*
X057700D01*
X057667Y032133D01*
X057600D02*
X057567Y032100D01*
X057500D01*
X057467Y032133D01*
Y032267D01*
X057500Y032300D01*
X057567D01*
X057600Y032267D01*
Y032233D01*
X057567Y032200D01*
X057467D01*
X064367Y028633D02*
X064400Y028600D01*
Y028533D01*
X064367Y028500D01*
X064233D01*
X064200Y028533D01*
Y028600D01*
X064233Y028633D01*
X064367Y028700D02*
X064400Y028733D01*
Y028800D01*
X064367Y028833D01*
X064333D01*
X064300Y028800D01*
Y028767D01*
Y028800D01*
X064267Y028833D01*
X064233D01*
X064200Y028800D01*
Y028733D01*
X064233Y028700D01*
X064367Y028900D02*
X064400Y028933D01*
Y029000D01*
X064367Y029033D01*
X064233D01*
X064200Y029000D01*
Y028933D01*
X064233Y028900D01*
X064367D01*
X061267Y030267D02*
X061300Y030300D01*
X061367D01*
X061400Y030267D01*
Y030133D01*
X061367Y030100D01*
X061300D01*
X061267Y030133D01*
X061200Y030100D02*
X061133D01*
X061167D01*
Y030300D01*
X061200Y030267D01*
X060867D02*
X060900Y030300D01*
X060967D01*
X061000Y030267D01*
Y030133D01*
X060967Y030100D01*
X060900D01*
X060867Y030133D01*
X060667Y030100D02*
X060800D01*
X060667Y030233D01*
Y030267D01*
X060700Y030300D01*
X060767D01*
X060800Y030267D01*
X056367Y029291D02*
X056400Y029257D01*
Y029191D01*
X056367Y029157D01*
X056233D01*
X056200Y029191D01*
Y029257D01*
X056233Y029291D01*
X056367Y029357D02*
X056400Y029391D01*
Y029457D01*
X056367Y029491D01*
X056333D01*
X056300Y029457D01*
Y029424D01*
Y029457D01*
X056267Y029491D01*
X056233D01*
X056200Y029457D01*
Y029391D01*
X056233Y029357D01*
X057167Y024267D02*
X057200Y024300D01*
X057267D01*
X057300Y024267D01*
Y024133D01*
X057267Y024100D01*
X057200D01*
X057167Y024133D01*
X057000Y024100D02*
Y024300D01*
X057100Y024200D01*
X056967D01*
X061667Y027267D02*
X061700Y027300D01*
X061767D01*
X061800Y027267D01*
Y027133D01*
X061767Y027100D01*
X061700D01*
X061667Y027133D01*
X061467Y027300D02*
X061533Y027267D01*
X061600Y027200D01*
Y027133D01*
X061567Y027100D01*
X061500D01*
X061467Y027133D01*
Y027167D01*
X061500Y027200D01*
X061600D01*
X066167Y029533D02*
X066200Y029500D01*
Y029433D01*
X066167Y029400D01*
X066033D01*
X066000Y029433D01*
Y029500D01*
X066033Y029533D01*
X066000Y029600D02*
Y029667D01*
Y029633D01*
X066200D01*
X066167Y029600D01*
X066000Y029900D02*
Y029767D01*
X066133Y029900D01*
X066167D01*
X066200Y029867D01*
Y029800D01*
X066167Y029767D01*
X062867Y027833D02*
X062900Y027800D01*
Y027733D01*
X062867Y027700D01*
X062733D01*
X062700Y027733D01*
Y027800D01*
X062733Y027833D01*
X062700Y027900D02*
Y027967D01*
Y027933D01*
X062900D01*
X062867Y027900D01*
X062900Y028200D02*
Y028067D01*
X062800D01*
X062833Y028133D01*
Y028167D01*
X062800Y028200D01*
X062733D01*
X062700Y028167D01*
Y028100D01*
X062733Y028067D01*
X069000Y025600D02*
X068700D01*
Y025750D01*
X068750Y025800D01*
X068950D01*
X069000Y025750D01*
Y025600D01*
Y026100D02*
X068950Y026000D01*
X068850Y025900D01*
X068750D01*
X068700Y025950D01*
Y026050D01*
X068750Y026100D01*
X068800D01*
X068850Y026050D01*
Y025900D01*
X057800Y038100D02*
Y037900D01*
X057700D01*
X057667Y037933D01*
Y038067D01*
X057700Y038100D01*
X057800D01*
X057600D02*
X057467D01*
Y038067D01*
X057600Y037933D01*
Y037900D01*
X063300Y038100D02*
Y037900D01*
X063200D01*
X063167Y037933D01*
Y038067D01*
X063200Y038100D01*
X063300D01*
X063100Y038067D02*
X063067Y038100D01*
X063000D01*
X062967Y038067D01*
Y038033D01*
X063000Y038000D01*
X062967Y037967D01*
Y037933D01*
X063000Y037900D01*
X063067D01*
X063100Y037933D01*
Y037967D01*
X063067Y038000D01*
X063100Y038033D01*
Y038067D01*
X063067Y038000D02*
X063000D01*
X068450Y027400D02*
X068650D01*
X068700Y027350D01*
Y027250D01*
X068650Y027200D01*
X068450D01*
X068400Y027250D01*
Y027350D01*
X068500Y027300D02*
X068400Y027400D01*
Y027350D02*
X068450Y027400D01*
X068700Y027500D02*
Y027700D01*
X068650D01*
X068450Y027500D01*
X068400D01*
X057100Y023400D02*
Y023600D01*
X057000D01*
X056967Y023567D01*
Y023500D01*
X057000Y023467D01*
X057100D01*
X057033D02*
X056967Y023400D01*
X056767Y023600D02*
X056833Y023567D01*
X056900Y023500D01*
Y023433D01*
X056867Y023400D01*
X056800D01*
X056767Y023433D01*
Y023467D01*
X056800Y023500D01*
X056900D01*
X056100Y033000D02*
X056400D01*
Y033150D01*
X056350Y033200D01*
X056250D01*
X056200Y033150D01*
Y033000D01*
Y033100D02*
X056100Y033200D01*
Y033300D02*
Y033400D01*
Y033350D01*
X056400D01*
X056350Y033300D01*
Y033550D02*
X056400Y033600D01*
Y033700D01*
X056350Y033750D01*
X056150D01*
X056100Y033700D01*
Y033600D01*
X056150Y033550D01*
X056350D01*
X061300Y025700D02*
Y025450D01*
X061250Y025400D01*
X061150D01*
X061100Y025450D01*
Y025700D01*
X061000Y025400D02*
X060900D01*
X060950D01*
Y025700D01*
X061000Y025650D01*
X065300Y028700D02*
Y028450D01*
X065250Y028400D01*
X065150D01*
X065100Y028450D01*
Y028700D01*
X065000Y028650D02*
X064950Y028700D01*
X064850D01*
X064800Y028650D01*
Y028600D01*
X064850Y028550D01*
X064900D01*
X064850D01*
X064800Y028500D01*
Y028450D01*
X064850Y028400D01*
X064950D01*
X065000Y028450D01*
X058100Y034300D02*
X057933D01*
X057900Y034333D01*
Y034400D01*
X057933Y034433D01*
X058100D01*
Y034500D02*
Y034633D01*
X058067D01*
X057933Y034500D01*
X057900D01*
X063600Y034300D02*
X063433D01*
X063400Y034333D01*
Y034400D01*
X063433Y034433D01*
X063600D01*
X063567Y034500D02*
X063600Y034533D01*
Y034600D01*
X063567Y034633D01*
X063533D01*
X063500Y034600D01*
X063467Y034633D01*
X063433D01*
X063400Y034600D01*
Y034533D01*
X063433Y034500D01*
X063467D01*
X063500Y034533D01*
X063533Y034500D01*
X063567D01*
X063500Y034533D02*
Y034600D01*
X057967Y022233D02*
X058000Y022200D01*
Y022133D01*
X057967Y022100D01*
X057833D01*
X057800Y022133D01*
Y022200D01*
X057833Y022233D01*
X057967Y022300D02*
X058000Y022333D01*
Y022400D01*
X057967Y022433D01*
X057933D01*
X057900Y022400D01*
Y022367D01*
Y022400D01*
X057867Y022433D01*
X057833D01*
X057800Y022400D01*
Y022333D01*
X057833Y022300D01*
X058000Y022633D02*
X057967Y022567D01*
X057900Y022500D01*
X057833D01*
X057800Y022533D01*
Y022600D01*
X057833Y022633D01*
X057867D01*
X057900Y022600D01*
Y022500D01*
D111*
X059682Y021809D02*
G03*
X059682Y021809I-000118J000000D01*
G01*
X060237Y028719D02*
G03*
X060237Y028719I-000118J000000D01*
G01*
D112*
X068083Y033759D02*
G03*
X068083Y033759I-000079J000000D01*
G01*
X062583D02*
G03*
X062583Y033759I-000079J000000D01*
G01*
X057083D02*
G03*
X057083Y033759I-000079J000000D01*
G01*
M02*
