G04 Layer_Physical_Order=4*
G04 Layer_Color=16711680*
%FSAX24Y24*%
%MOIN*%
G70*
G01*
G75*
%ADD12R,0.0205X0.0205*%
%ADD13R,0.0205X0.0205*%
%ADD26R,0.0177X0.0217*%
%ADD27R,0.0217X0.0177*%
%ADD40C,0.0150*%
%ADD42C,0.0100*%
%ADD44C,0.0200*%
%ADD45C,0.0630*%
%ADD46C,0.0787*%
%ADD47C,0.1220*%
%ADD48O,0.0472X0.0787*%
%ADD49C,0.0200*%
%ADD58R,0.2205X0.0961*%
%ADD59R,0.0350X0.0961*%
%ADD60R,0.0906X0.0906*%
%ADD61R,0.0335X0.0157*%
%ADD62R,0.0315X0.0551*%
%ADD63O,0.0098X0.0610*%
%ADD64O,0.0610X0.0098*%
%ADD65R,0.0630X0.0550*%
%ADD66O,0.0177X0.0630*%
%ADD67R,0.2087X0.0532*%
%ADD68R,0.0358X0.0480*%
%ADD69R,0.0610X0.0945*%
%ADD70R,0.0748X0.0532*%
%ADD71R,0.1063X0.0453*%
%ADD72R,0.0470X0.0220*%
%ADD73R,0.0177X0.0335*%
%ADD74R,0.0335X0.0177*%
%ADD75R,0.0394X0.0177*%
%ADD76R,0.1200X0.1600*%
G36*
X061138Y023306D02*
X061136Y023300D01*
X061138Y023294D01*
Y023195D01*
X061118D01*
Y023093D01*
X061320D01*
Y022893D01*
X061118D01*
Y022790D01*
X061081Y022758D01*
X060430D01*
X060411Y022804D01*
X061009Y023401D01*
X061138D01*
Y023306D01*
D02*
G37*
G36*
X058470Y024167D02*
X059065D01*
X059127Y024105D01*
Y023784D01*
X059137Y023733D01*
X059166Y023690D01*
X059470Y023386D01*
X059513Y023358D01*
X059564Y023347D01*
X060515D01*
X060534Y023301D01*
X060150Y022918D01*
X057486D01*
X057467Y022964D01*
X057515Y023012D01*
X057684D01*
Y023012D01*
X057701D01*
Y023012D01*
X058038D01*
Y023128D01*
X058039Y023130D01*
X058053Y023200D01*
X058039Y023270D01*
X058038Y023272D01*
Y023388D01*
X057861D01*
X057842Y023434D01*
X057912Y023505D01*
X057941Y023548D01*
X057951Y023598D01*
Y023871D01*
X058033D01*
Y024050D01*
X058133D01*
Y024150D01*
X058421D01*
X058450Y024171D01*
X058470Y024167D01*
D02*
G37*
G36*
X065220Y030750D02*
X065820D01*
Y030150D01*
X063420D01*
X063320Y030250D01*
X063320Y030250D01*
X062620D01*
X062320Y029950D01*
X062320Y029950D01*
X061420D01*
X061420Y030850D01*
X065120D01*
X065120Y030850D01*
X065220Y030750D01*
D02*
G37*
G36*
X057944Y033462D02*
X057824Y033341D01*
X057795Y033298D01*
X057785Y033248D01*
Y032083D01*
X057735Y032048D01*
X057693Y032056D01*
X057692Y032056D01*
X057651Y032099D01*
X057651Y032100D01*
X057651Y033150D01*
X057651Y033150D01*
X057645Y033181D01*
X057628Y033208D01*
X057628Y033208D01*
X057081Y033754D01*
X057101Y033800D01*
X057944D01*
Y033462D01*
D02*
G37*
G36*
X066970Y033150D02*
X066970Y032100D01*
X064720Y032100D01*
Y033800D01*
X066320Y033800D01*
X066970Y033150D01*
D02*
G37*
G36*
X062270D02*
X062270Y032100D01*
X060020Y032100D01*
Y033800D01*
X061620Y033800D01*
X062270Y033150D01*
D02*
G37*
G36*
X057570D02*
X057570Y032100D01*
X055320Y032100D01*
Y033800D01*
X056920Y033800D01*
X057570Y033150D01*
D02*
G37*
G36*
X066920Y030050D02*
X065920D01*
Y031350D01*
X066920D01*
Y030050D01*
D02*
G37*
G36*
X065865Y028650D02*
Y026795D01*
X065020Y025950D01*
X062920D01*
Y027350D01*
X063920D01*
X064320Y027750D01*
Y028650D01*
X065865Y028650D01*
D02*
G37*
G36*
X056340Y026130D02*
X056380Y026070D01*
X056440Y026030D01*
X056459Y026027D01*
X056702Y025784D01*
Y025299D01*
X056652Y025260D01*
X056637Y025262D01*
X056587Y025252D01*
X056578Y025247D01*
X056539Y025227D01*
X056499Y025247D01*
X056491Y025252D01*
X056440Y025262D01*
X056390Y025252D01*
X056382Y025247D01*
X056342Y025227D01*
X056302Y025247D01*
X056294Y025252D01*
X056244Y025262D01*
X056193Y025252D01*
X056150Y025224D01*
X056122Y025181D01*
X056112Y025131D01*
Y024879D01*
X056111Y024875D01*
Y024861D01*
X056061Y024825D01*
X056020Y024834D01*
X055950Y024820D01*
X055904Y024789D01*
X055870Y024783D01*
X055836Y024789D01*
X055790Y024820D01*
X055720Y024834D01*
X055650Y024820D01*
X055604Y024789D01*
X055570Y024783D01*
X055536Y024789D01*
X055490Y024820D01*
X055420Y024834D01*
X055350Y024820D01*
X055304Y024789D01*
X055270Y024783D01*
X055236Y024789D01*
X055190Y024820D01*
X055120Y024834D01*
X055050Y024820D01*
X055004Y024789D01*
X054970Y024783D01*
X054936Y024789D01*
X054890Y024820D01*
X054820Y024834D01*
X054750Y024820D01*
X054704Y024789D01*
X054670Y024783D01*
X054636Y024789D01*
X054590Y024820D01*
X054520Y024834D01*
X054514Y024832D01*
X054469Y024868D01*
X054467Y024910D01*
X055110Y025553D01*
X055164Y025536D01*
X055167Y025523D01*
X055196Y025480D01*
X055238Y025452D01*
X055289Y025442D01*
X055801D01*
X055851Y025452D01*
X055894Y025480D01*
X055922Y025523D01*
X055932Y025574D01*
X055922Y025624D01*
X055917Y025632D01*
X055896Y025672D01*
X055917Y025712D01*
X055922Y025720D01*
X055932Y025770D01*
X055922Y025821D01*
X055917Y025829D01*
X055896Y025869D01*
X055917Y025908D01*
X055922Y025917D01*
X055932Y025967D01*
X055922Y026018D01*
X055917Y026026D01*
X055911Y026038D01*
X055924Y026060D01*
X055934Y026064D01*
X055985Y026070D01*
X056030Y026040D01*
X056100Y026026D01*
X056170Y026040D01*
X056230Y026080D01*
X056269Y026140D01*
X056278Y026185D01*
X056329D01*
X056340Y026130D01*
D02*
G37*
G36*
X066820Y027350D02*
X066320D01*
Y028650D01*
X066820D01*
Y027350D01*
D02*
G37*
G36*
X062776Y024998D02*
Y024773D01*
X062710Y024745D01*
X062627Y024682D01*
X062564Y024599D01*
X062541Y024544D01*
X062487D01*
X062464Y024599D01*
X062401Y024682D01*
X062318Y024745D01*
X062222Y024785D01*
X062119Y024798D01*
X062016Y024785D01*
X061920Y024745D01*
X061837Y024682D01*
X061774Y024599D01*
X061752Y024547D01*
X061698D01*
X061677Y024599D01*
X061613Y024682D01*
X061531Y024745D01*
X061435Y024785D01*
X061332Y024798D01*
X061228Y024785D01*
X061132Y024745D01*
X061050Y024682D01*
X060986Y024599D01*
X060976Y024573D01*
X060922D01*
X060907Y024609D01*
X060840Y024696D01*
X060753Y024762D01*
X060652Y024804D01*
X060644Y024805D01*
Y024400D01*
X060444D01*
Y024805D01*
X060436Y024804D01*
X060335Y024762D01*
X060248Y024696D01*
X060242Y024688D01*
X060195Y024709D01*
X060203Y024750D01*
X060189Y024820D01*
X060150Y024880D01*
Y024920D01*
X060189Y024980D01*
X060203Y025050D01*
X060189Y025120D01*
X060150Y025180D01*
X060090Y025220D01*
X060020Y025234D01*
X059950Y025220D01*
X059890Y025180D01*
X059850D01*
X059790Y025220D01*
X059720Y025234D01*
X059650Y025220D01*
X059590Y025180D01*
X059550D01*
X059490Y025220D01*
X059420Y025234D01*
X059350Y025220D01*
X059310Y025193D01*
X059289Y025224D01*
X059247Y025252D01*
X059196Y025262D01*
X059182Y025260D01*
X059132Y025299D01*
Y026317D01*
X059182Y026332D01*
X059190Y026320D01*
X059250Y026280D01*
X059320Y026266D01*
X059390Y026280D01*
X059445Y026317D01*
X059471Y026313D01*
X059499Y026303D01*
X059499Y026303D01*
X059532Y026253D01*
X059534Y026240D01*
X059517Y026215D01*
X059507Y026164D01*
X059517Y026114D01*
X059523Y026105D01*
X059543Y026066D01*
X059523Y026026D01*
X059517Y026018D01*
X059507Y025967D01*
X059517Y025917D01*
X059523Y025908D01*
X059543Y025869D01*
X059523Y025829D01*
X059517Y025821D01*
X059507Y025770D01*
X059517Y025720D01*
X059523Y025712D01*
X059543Y025672D01*
X059523Y025632D01*
X059517Y025624D01*
X059507Y025574D01*
X059517Y025523D01*
X059546Y025480D01*
X059589Y025452D01*
X059639Y025442D01*
X059891D01*
X059895Y025441D01*
X060280D01*
Y025368D01*
X060457D01*
X060462Y025366D01*
X060468Y025368D01*
X060575D01*
Y025348D01*
X060677D01*
Y025550D01*
Y025752D01*
X060582D01*
Y025955D01*
X060602D01*
Y026057D01*
X060400D01*
Y026257D01*
X060602D01*
Y026298D01*
X060657D01*
Y026500D01*
Y026702D01*
X060555D01*
Y026682D01*
X060425D01*
X060385Y026690D01*
X060319D01*
X060280Y026740D01*
X060283Y026755D01*
X060273Y026805D01*
X060267Y026814D01*
X060247Y026853D01*
X060267Y026893D01*
X060273Y026901D01*
X060283Y026952D01*
X060273Y027002D01*
X060267Y027010D01*
X060247Y027050D01*
X060267Y027090D01*
X060273Y027098D01*
X060283Y027148D01*
X060280Y027163D01*
X060319Y027213D01*
X060561D01*
X062776Y024998D01*
D02*
G37*
G36*
X056570Y031125D02*
X056985D01*
Y031025D01*
X057085D01*
Y030650D01*
X057368D01*
Y030475D01*
X057252D01*
X057202Y030465D01*
X057159Y030436D01*
X057152Y030430D01*
X056590D01*
Y029823D01*
X056235D01*
X055952Y030105D01*
Y030560D01*
X055942Y030611D01*
X055914Y030654D01*
X055750Y030817D01*
Y031354D01*
X056570D01*
Y031125D01*
D02*
G37*
G36*
X057366Y024503D02*
X057374Y024497D01*
X057425Y024487D01*
X057475Y024497D01*
X057484Y024503D01*
X057523Y024523D01*
X057563Y024503D01*
X057571Y024497D01*
X057621Y024487D01*
X057636Y024490D01*
X057686Y024451D01*
Y023653D01*
X057583Y023551D01*
X057336D01*
X057321Y023601D01*
X057350Y023620D01*
X057389Y023680D01*
X057403Y023750D01*
X057389Y023820D01*
X057375Y023841D01*
X057402Y023891D01*
X057455D01*
Y024209D01*
X057306D01*
X057290Y024220D01*
X057220Y024234D01*
X057150Y024220D01*
X057133Y024209D01*
X057006D01*
X056990Y024220D01*
X056980Y024222D01*
Y024446D01*
X057030Y024487D01*
X057031Y024487D01*
X057081Y024497D01*
X057090Y024503D01*
X057129Y024523D01*
X057169Y024503D01*
X057177Y024497D01*
X057228Y024487D01*
X057278Y024497D01*
X057287Y024503D01*
X057326Y024523D01*
X057366Y024503D01*
D02*
G37*
G36*
X058223Y027695D02*
X058240Y027670D01*
X058300Y027630D01*
X058365Y027617D01*
X058473Y027509D01*
Y025299D01*
X058423Y025260D01*
X058409Y025262D01*
X058358Y025252D01*
X058350Y025247D01*
X058310Y025227D01*
X058271Y025247D01*
X058262Y025252D01*
X058212Y025262D01*
X058162Y025252D01*
X058153Y025247D01*
X058114Y025227D01*
X058074Y025247D01*
X058066Y025252D01*
X058015Y025262D01*
X057965Y025252D01*
X057956Y025247D01*
X057917Y025227D01*
X057877Y025247D01*
X057869Y025252D01*
X057818Y025262D01*
X057804Y025260D01*
X057754Y025299D01*
Y025579D01*
X057964Y025788D01*
X057992Y025831D01*
X058002Y025882D01*
Y027545D01*
X058159Y027702D01*
X058223Y027695D01*
D02*
G37*
G36*
X057920Y037500D02*
X059420Y037500D01*
X059420Y037500D01*
X059469Y037500D01*
X059566Y037481D01*
X059657Y037443D01*
X059739Y037388D01*
X059808Y037319D01*
X059854Y037250D01*
X061941D01*
X061988Y037250D01*
X061995Y037219D01*
X062012Y037192D01*
X062012Y037192D01*
X062212Y036992D01*
X062212Y036992D01*
X062239Y036975D01*
X062270Y036968D01*
X062270Y036968D01*
X064370D01*
X064401Y036975D01*
X064428Y036992D01*
X064428Y036992D01*
X064628Y037192D01*
X064645Y037219D01*
X064651Y037250D01*
X064651Y037250D01*
X067058D01*
Y035205D01*
X067053Y035157D01*
X067053D01*
Y034050D01*
X064478D01*
Y035137D01*
X063967D01*
Y034050D01*
X059778D01*
Y035137D01*
X059267D01*
Y034050D01*
X055078D01*
Y035137D01*
X054567D01*
Y034050D01*
X052832D01*
Y036299D01*
Y036388D01*
Y037100D01*
X053425D01*
X053414Y037127D01*
X053360Y037197D01*
X053353Y037203D01*
X053369Y037250D01*
X053776D01*
X053815Y037222D01*
X053815Y037200D01*
Y037100D01*
X054604D01*
X054625Y037079D01*
Y037200D01*
X054625Y037222D01*
X054664Y037250D01*
X057486D01*
X057532Y037319D01*
X057601Y037388D01*
X057683Y037443D01*
X057774Y037481D01*
X057871Y037500D01*
X057920Y037500D01*
D02*
G37*
G36*
X067058Y040404D02*
Y037332D01*
X064651D01*
X064644Y037330D01*
X064636D01*
X064631Y037328D01*
X064626Y037327D01*
X064623Y037326D01*
X064620Y037325D01*
X064614Y037321D01*
X064606Y037318D01*
X064603Y037314D01*
X064598Y037312D01*
X064596Y037309D01*
X064594Y037308D01*
X064589Y037301D01*
X064584Y037295D01*
X064582Y037291D01*
X064579Y037286D01*
X064578Y037284D01*
X064576Y037281D01*
X064575Y037273D01*
X064571Y037266D01*
X064570Y037258D01*
Y037250D01*
X064564Y037244D01*
X064564Y037244D01*
X064470Y037150D01*
D01*
X064370Y037050D01*
X062270D01*
X062070Y037250D01*
Y037258D01*
X062068Y037266D01*
X062065Y037273D01*
X062064Y037281D01*
X062059Y037288D01*
X062056Y037295D01*
X062050Y037301D01*
X062046Y037308D01*
X062039Y037312D01*
X062034Y037318D01*
X062026Y037321D01*
X062020Y037325D01*
X062012Y037327D01*
X062004Y037330D01*
X061996D01*
X061988Y037332D01*
X061941Y037332D01*
X061941Y037332D01*
X061941Y037332D01*
X059878D01*
X059862Y037355D01*
X059857Y037359D01*
X059854Y037365D01*
X059785Y037434D01*
X059778Y037437D01*
X059775Y037442D01*
X059693Y037497D01*
X059686Y037498D01*
X059682Y037503D01*
X059591Y037541D01*
X059584D01*
X059578Y037544D01*
X059482Y037564D01*
X059475Y037562D01*
X059469Y037565D01*
X059420Y037565D01*
X059420Y037565D01*
X057920Y037565D01*
X057871Y037565D01*
X057865Y037562D01*
X057858Y037564D01*
X057761Y037544D01*
X057756Y037541D01*
X057749D01*
X057658Y037503D01*
X057654Y037498D01*
X057647Y037497D01*
X057565Y037442D01*
X057561Y037437D01*
X057555Y037434D01*
X057486Y037365D01*
X057483Y037359D01*
X057478Y037355D01*
X057462Y037332D01*
X054664D01*
X054635Y037356D01*
X054630Y037364D01*
X054625Y037375D01*
Y037400D01*
X053815D01*
Y037375D01*
X053810Y037364D01*
X053804Y037356D01*
X053776Y037332D01*
X053369D01*
X053366Y037331D01*
X053363Y037331D01*
X053351Y037328D01*
X053338Y037325D01*
X053335Y037324D01*
X053333Y037323D01*
X053322Y037315D01*
X053311Y037308D01*
X053310Y037305D01*
X053307Y037304D01*
X053301Y037292D01*
X053293Y037281D01*
X053293Y037279D01*
X053292Y037276D01*
X053287Y037263D01*
X053230Y037234D01*
X053226Y037234D01*
X053197Y037246D01*
X053120Y037256D01*
X053043Y037246D01*
X052971Y037216D01*
X052909Y037169D01*
X052906Y037165D01*
X052832D01*
Y039340D01*
X052832D01*
Y040165D01*
X052832Y040165D01*
Y040404D01*
X053616Y041188D01*
X066273D01*
X067058Y040404D01*
D02*
G37*
G36*
X052887Y033182D02*
Y031424D01*
X052897Y031373D01*
X052926Y031330D01*
X053300Y030956D01*
X053343Y030928D01*
X053394Y030917D01*
X054246D01*
X054297Y030928D01*
X054340Y030956D01*
X054738Y031354D01*
X054960D01*
Y031035D01*
X054765Y030840D01*
X054588D01*
Y030545D01*
X054568D01*
Y030443D01*
X054770D01*
Y030343D01*
X054870D01*
Y030140D01*
X054940D01*
Y029700D01*
X055255D01*
Y030075D01*
X055455D01*
Y029700D01*
X055770D01*
Y029847D01*
X055816Y029866D01*
X056086Y029596D01*
X056099Y029588D01*
X056122Y029532D01*
X056112Y029481D01*
Y029383D01*
X056002D01*
Y029432D01*
X055826D01*
X055820Y029434D01*
X055814Y029432D01*
X055707D01*
Y029452D01*
X055605D01*
Y029250D01*
Y029048D01*
X055707D01*
Y029068D01*
X055814D01*
X055820Y029066D01*
X055826Y029068D01*
X056002D01*
Y029117D01*
X056112D01*
Y028969D01*
X056122Y028919D01*
X056150Y028876D01*
X056193Y028848D01*
X056244Y028838D01*
X056294Y028848D01*
X056302Y028853D01*
X056342Y028873D01*
X056382Y028853D01*
X056390Y028848D01*
X056440Y028838D01*
X056491Y028848D01*
X056499Y028853D01*
X056539Y028873D01*
X056578Y028853D01*
X056587Y028848D01*
X056637Y028838D01*
X056688Y028848D01*
X056696Y028853D01*
X056736Y028873D01*
X056775Y028853D01*
X056784Y028848D01*
X056808Y028843D01*
X056810Y028841D01*
X056843Y028796D01*
X056844Y028789D01*
X056836Y028750D01*
X056850Y028680D01*
X056890Y028620D01*
X056950Y028580D01*
X057020Y028566D01*
X057090Y028580D01*
X057150Y028620D01*
X057188Y028678D01*
X057294D01*
X057344Y028688D01*
X057387Y028716D01*
X057479Y028808D01*
X057537Y028795D01*
X057750Y028583D01*
X057745Y028533D01*
X057740Y028530D01*
X057700Y028470D01*
X057687Y028405D01*
X057134Y027852D01*
X057105Y027809D01*
X057095Y027758D01*
Y026127D01*
X057049Y026108D01*
X056952Y026205D01*
X056939Y026270D01*
X056900Y026330D01*
X056840Y026370D01*
X056770Y026384D01*
X056700Y026370D01*
X056640Y026330D01*
X056640D01*
X056580Y026370D01*
X056510Y026384D01*
X056483Y026378D01*
X056469Y026448D01*
X056432Y026503D01*
Y026707D01*
X056422Y026758D01*
X056394Y026801D01*
X055952Y027242D01*
X055949Y027244D01*
X055922Y027295D01*
X055932Y027345D01*
X055922Y027396D01*
X055917Y027404D01*
X055896Y027444D01*
X055917Y027483D01*
X055922Y027492D01*
X055932Y027542D01*
X055922Y027593D01*
X055959Y027616D01*
X055960Y027617D01*
X055960Y027617D01*
X056003Y027645D01*
X056164Y027806D01*
X056192Y027849D01*
X056202Y027900D01*
Y028224D01*
X056239Y028280D01*
X056253Y028350D01*
X056239Y028420D01*
X056200Y028480D01*
X056140Y028520D01*
X056070Y028534D01*
X056000Y028520D01*
X055979Y028506D01*
X055956Y028516D01*
X055931Y028534D01*
X055922Y028577D01*
X055894Y028620D01*
X055851Y028648D01*
X055801Y028658D01*
X055549D01*
X055545Y028659D01*
X055259D01*
X055202Y028715D01*
Y028847D01*
X054960D01*
X054852Y028955D01*
X054839Y029020D01*
X054800Y029080D01*
X054740Y029120D01*
X054670Y029134D01*
X054600Y029120D01*
X054540Y029080D01*
X054500Y029020D01*
X054486Y028950D01*
X054500Y028880D01*
X054520Y028850D01*
X054484Y028814D01*
X054476Y028820D01*
X054405Y028834D01*
X054335Y028820D01*
X054299Y028796D01*
X054263Y028784D01*
X054226Y028796D01*
X054190Y028820D01*
X054120Y028834D01*
X054050Y028820D01*
X053990Y028780D01*
X053950Y028720D01*
X053937Y028655D01*
X053862Y028579D01*
X053597D01*
Y027868D01*
X054072D01*
Y028415D01*
X054118Y028461D01*
X054145Y028455D01*
X054168Y028437D01*
Y027868D01*
X054596D01*
X054617Y027818D01*
X054530Y027731D01*
X054501Y027688D01*
X054491Y027637D01*
Y027573D01*
X054441Y027551D01*
X054359Y027614D01*
X054244Y027662D01*
X054120Y027678D01*
X053996Y027662D01*
X053881Y027614D01*
X053782Y027538D01*
X053706Y027439D01*
X053658Y027324D01*
X053642Y027200D01*
X053658Y027076D01*
X053706Y026961D01*
X053782Y026862D01*
X053881Y026786D01*
X053996Y026738D01*
X054099Y026725D01*
X054119Y026674D01*
X054026Y026581D01*
X053997Y026538D01*
X053996Y026532D01*
X053597D01*
Y026126D01*
X053533Y026063D01*
X053505Y026020D01*
X053494Y025969D01*
Y025540D01*
X053497Y025525D01*
Y023823D01*
X053447Y023797D01*
X053413Y023820D01*
X053343Y023834D01*
X053273Y023820D01*
X053213Y023780D01*
X053173Y023720D01*
X053159Y023650D01*
X053173Y023580D01*
X053213Y023520D01*
X053273Y023480D01*
X053343Y023466D01*
X053413Y023480D01*
X053445Y023502D01*
X053481Y023465D01*
X053450Y023420D01*
X053436Y023350D01*
X053450Y023280D01*
X053490Y023220D01*
X053550Y023180D01*
X053620Y023166D01*
X053690Y023180D01*
X053750Y023220D01*
X053762Y023239D01*
X053812Y023244D01*
X054056Y023001D01*
X054033Y022953D01*
X054020Y022954D01*
Y022350D01*
X054624D01*
X054620Y022389D01*
X054602Y022450D01*
X054641Y022492D01*
X055564D01*
X055586Y022448D01*
X055556Y022409D01*
X055515Y022308D01*
X055513Y022300D01*
X055919D01*
Y022200D01*
X056019D01*
Y021795D01*
X056027Y021796D01*
X056128Y021837D01*
X056215Y021904D01*
X056281Y021991D01*
X056296Y022027D01*
X056350D01*
X056361Y022001D01*
X056425Y021918D01*
X056507Y021855D01*
X056603Y021815D01*
X056706Y021802D01*
X056809Y021815D01*
X056905Y021855D01*
X056988Y021918D01*
X057051Y022001D01*
X057073Y022053D01*
X057127D01*
X057149Y022001D01*
X057212Y021918D01*
X057295Y021855D01*
X057391Y021815D01*
X057494Y021802D01*
X057597Y021815D01*
X057693Y021855D01*
X057775Y021918D01*
X057839Y022001D01*
X057862Y022056D01*
X057916D01*
X057939Y022001D01*
X058002Y021918D01*
X058085Y021855D01*
X058181Y021815D01*
X058284Y021802D01*
X058387Y021815D01*
X058483Y021855D01*
X058565Y021918D01*
X058629Y022001D01*
X058669Y022097D01*
X058682Y022200D01*
X058669Y022303D01*
X058629Y022399D01*
X058596Y022442D01*
X058620Y022492D01*
X060170D01*
X060194Y022442D01*
X060161Y022399D01*
X060121Y022303D01*
X060108Y022200D01*
X060121Y022097D01*
X060161Y022001D01*
X060225Y021918D01*
X060307Y021855D01*
X060403Y021815D01*
X060506Y021802D01*
X060609Y021815D01*
X060705Y021855D01*
X060788Y021918D01*
X060851Y022001D01*
X060873Y022053D01*
X060927D01*
X060949Y022001D01*
X061012Y021918D01*
X061094Y021855D01*
X061191Y021815D01*
X061294Y021802D01*
X061397Y021815D01*
X061438Y021832D01*
X061682Y021588D01*
X061733Y021554D01*
X061794Y021542D01*
X063494D01*
X063554Y021554D01*
X063605Y021588D01*
X063849Y021832D01*
X063891Y021815D01*
X063994Y021802D01*
X064097Y021815D01*
X064193Y021855D01*
X064275Y021918D01*
X064339Y022001D01*
X064379Y022097D01*
X064392Y022200D01*
X064379Y022303D01*
X064339Y022399D01*
X064275Y022482D01*
X064193Y022545D01*
X064097Y022585D01*
X064053Y022591D01*
X063254Y023390D01*
X063202Y023424D01*
X063142Y023436D01*
X063109D01*
Y023702D01*
X062555D01*
Y023365D01*
Y023109D01*
Y022853D01*
Y022598D01*
X063003D01*
X063013Y022548D01*
X063007Y022545D01*
X062925Y022482D01*
X062861Y022399D01*
X062844Y022358D01*
X062616D01*
Y022388D01*
X062278D01*
Y022388D01*
X062261D01*
Y022388D01*
X061924D01*
Y022358D01*
X061656D01*
X061639Y022399D01*
X061606Y022442D01*
X061630Y022492D01*
X061667D01*
X061718Y022503D01*
X061761Y022531D01*
X061827Y022598D01*
X062085D01*
Y022833D01*
X062105D01*
Y022922D01*
X062085D01*
Y022935D01*
X061808D01*
Y023109D01*
X062085D01*
Y023122D01*
X062105D01*
Y023211D01*
X062085D01*
Y023702D01*
X061531D01*
Y023666D01*
X061089D01*
X061070Y023713D01*
X061175Y023817D01*
X061669D01*
X061720Y023828D01*
X061763Y023856D01*
X061949Y024043D01*
X062016Y024015D01*
X062119Y024002D01*
X062222Y024015D01*
X062318Y024055D01*
X062401Y024118D01*
X062464Y024201D01*
X062487Y024256D01*
X062541D01*
X062564Y024201D01*
X062627Y024118D01*
X062710Y024055D01*
X062806Y024015D01*
X062909Y024002D01*
X063012Y024015D01*
X063108Y024055D01*
X063191Y024118D01*
X063254Y024201D01*
X063277Y024256D01*
X063331D01*
X063354Y024201D01*
X063417Y024118D01*
X063500Y024055D01*
X063596Y024015D01*
X063699Y024002D01*
X063802Y024015D01*
X063898Y024055D01*
X063981Y024118D01*
X064044Y024201D01*
X064063Y024247D01*
X064117D01*
X064136Y024201D01*
X064199Y024118D01*
X064282Y024055D01*
X064378Y024015D01*
X064481Y024002D01*
X064584Y024015D01*
X064680Y024055D01*
X064763Y024118D01*
X064826Y024201D01*
X064848Y024253D01*
X064902D01*
X064923Y024201D01*
X064987Y024118D01*
X065069Y024055D01*
X065165Y024015D01*
X065269Y024002D01*
X065372Y024015D01*
X065468Y024055D01*
X065550Y024118D01*
X065614Y024201D01*
X065635Y024253D01*
X065689D01*
X065711Y024201D01*
X065774Y024118D01*
X065857Y024055D01*
X065953Y024015D01*
X066056Y024002D01*
X066159Y024015D01*
X066255Y024055D01*
X066338Y024118D01*
X066401Y024201D01*
X066441Y024297D01*
X066454Y024400D01*
X066441Y024503D01*
X066401Y024599D01*
X066338Y024682D01*
X066255Y024745D01*
X066159Y024785D01*
X066056Y024798D01*
X065953Y024785D01*
X065857Y024745D01*
X065774Y024682D01*
X065711Y024599D01*
X065689Y024547D01*
X065635D01*
X065614Y024599D01*
X065550Y024682D01*
X065468Y024745D01*
X065372Y024785D01*
X065269Y024798D01*
X065165Y024785D01*
X065099Y024757D01*
X064612Y025244D01*
X064569Y025272D01*
X064518Y025283D01*
X063545D01*
X063010Y025817D01*
X063015Y025840D01*
X063029Y025868D01*
X063030Y025868D01*
X063310D01*
X063320Y025866D01*
X063330Y025868D01*
X063610D01*
X063620Y025866D01*
X063630Y025868D01*
X063910D01*
X063920Y025866D01*
X063930Y025868D01*
X065020D01*
X065051Y025875D01*
X065078Y025892D01*
X065078Y025892D01*
X065898Y026713D01*
X065944Y026688D01*
X065936Y026650D01*
X065950Y026580D01*
X065990Y026520D01*
X066050Y026480D01*
X066120Y026466D01*
X066190Y026480D01*
X066236Y026511D01*
X066270Y026517D01*
X066304Y026511D01*
X066350Y026480D01*
X066420Y026466D01*
X066490Y026480D01*
X066536Y026511D01*
X066570Y026517D01*
X066604Y026511D01*
X066650Y026480D01*
X066720Y026466D01*
X066790Y026480D01*
X066850Y026520D01*
X066889Y026580D01*
X066903Y026650D01*
X066889Y026720D01*
X066863Y026760D01*
X066875Y026810D01*
X066875D01*
Y027190D01*
X066391D01*
X066366Y027222D01*
X066386Y027268D01*
X066820D01*
X066851Y027275D01*
X066878Y027292D01*
X066895Y027319D01*
X066901Y027350D01*
Y027540D01*
X066903Y027550D01*
X066901Y027560D01*
Y027840D01*
X066903Y027850D01*
X066901Y027860D01*
Y028140D01*
X066903Y028150D01*
X066901Y028160D01*
Y028440D01*
X066903Y028450D01*
X066901Y028460D01*
Y028650D01*
X066895Y028681D01*
X066878Y028708D01*
X066851Y028725D01*
X066820Y028732D01*
X066351D01*
X066313Y028746D01*
X066298Y028778D01*
X066289Y028820D01*
X066250Y028880D01*
X066190Y028920D01*
X066120Y028934D01*
X066050Y028920D01*
X065990Y028880D01*
X065950Y028820D01*
X065938Y028758D01*
X065912Y028738D01*
X065890Y028727D01*
X065865Y028732D01*
X064320Y028732D01*
X064289Y028725D01*
X064262Y028708D01*
X064245Y028681D01*
X064238Y028650D01*
Y027784D01*
X064220Y027765D01*
Y027750D01*
X063920Y027450D01*
X063905D01*
X063886Y027432D01*
X063630D01*
X063620Y027434D01*
X063610Y027432D01*
X063330D01*
X063320Y027434D01*
X063310Y027432D01*
X063030D01*
X063020Y027434D01*
X063010Y027432D01*
X062970D01*
X062952Y027450D01*
X062920D01*
Y027482D01*
X062852Y027549D01*
Y028881D01*
X062908D01*
X062912Y028833D01*
Y028832D01*
X062920D01*
Y029150D01*
X063220D01*
X063308Y029238D01*
Y029515D01*
X063308Y029515D01*
X063310D01*
Y029522D01*
X063318Y029565D01*
X063310Y029607D01*
Y029880D01*
X063308D01*
Y030081D01*
X063354Y030100D01*
X063362Y030092D01*
X063389Y030075D01*
X063420Y030068D01*
X063420Y030068D01*
X065820D01*
X065838Y030053D01*
Y030050D01*
X065845Y030019D01*
X065862Y029992D01*
X065889Y029975D01*
X065920Y029968D01*
X067058D01*
Y021846D01*
X066323Y021112D01*
X053566D01*
X052832Y021846D01*
Y033160D01*
X052882Y033186D01*
X052887Y033182D01*
D02*
G37*
G36*
X059938Y033750D02*
Y032100D01*
X059945Y032069D01*
X059962Y032042D01*
X059989Y032025D01*
X060020Y032018D01*
X060193D01*
X060250Y031980D01*
X060320Y031966D01*
X060390Y031980D01*
X060445Y032017D01*
X060500Y031980D01*
X060570Y031966D01*
X060640Y031980D01*
X060695Y032017D01*
X060750Y031980D01*
X060820Y031966D01*
X060890Y031980D01*
X060945Y032017D01*
X061000Y031980D01*
X061070Y031966D01*
X061140Y031980D01*
X061195Y032017D01*
X061250Y031980D01*
X061320Y031966D01*
X061390Y031980D01*
X061447Y032018D01*
X062065D01*
X062083Y031968D01*
X062050Y031920D01*
X062043Y031883D01*
X060094D01*
X060043Y031872D01*
X060000Y031844D01*
X059142Y030985D01*
X059095Y031010D01*
X059103Y031050D01*
X059089Y031120D01*
X059050Y031180D01*
X058990Y031220D01*
X058924Y031233D01*
X058919Y031234D01*
X058880Y031277D01*
Y031350D01*
X058677D01*
Y031550D01*
X058880D01*
Y031552D01*
X058884Y031555D01*
X058950Y031568D01*
X059005Y031606D01*
X059023Y031631D01*
X059083D01*
X059090Y031620D01*
X059150Y031580D01*
X059220Y031566D01*
X059290Y031580D01*
X059350Y031620D01*
X059389Y031680D01*
X059403Y031750D01*
X059389Y031820D01*
X059350Y031880D01*
X059290Y031920D01*
X059220Y031934D01*
X059150Y031920D01*
X059106Y031890D01*
X059056Y031911D01*
Y032180D01*
X059043Y032246D01*
X059016Y032285D01*
Y032359D01*
X059148Y032491D01*
X059267D01*
Y032063D01*
X059778D01*
Y033184D01*
X059267D01*
Y032756D01*
X059094D01*
X059043Y032746D01*
X059000Y032717D01*
X058790Y032508D01*
X058761Y032465D01*
X058751Y032414D01*
Y032377D01*
X058728Y032365D01*
Y032250D01*
X058725Y032246D01*
X058712Y032180D01*
Y031954D01*
X058528D01*
Y032340D01*
X058500Y032321D01*
X058472Y032340D01*
Y031954D01*
X058288D01*
Y032180D01*
X058275Y032246D01*
X058272Y032250D01*
Y032340D01*
X058236Y032316D01*
X058230Y032307D01*
X058182Y032339D01*
X058116Y032352D01*
X058100Y032349D01*
X058050Y032390D01*
Y033193D01*
X058107Y033250D01*
X058116Y033248D01*
X058182Y033261D01*
X058190Y033266D01*
X058209Y033262D01*
X058242Y033241D01*
X058250Y033205D01*
X058278Y033162D01*
X058340Y033100D01*
X058353Y033035D01*
X058393Y032975D01*
X058452Y032935D01*
X058522Y032921D01*
X058593Y032935D01*
X058652Y032975D01*
X058692Y033035D01*
X058706Y033105D01*
X058692Y033175D01*
X058671Y033206D01*
X058694Y033261D01*
X058694Y033262D01*
X058717Y033277D01*
X058756Y033295D01*
X058795Y033277D01*
X058818Y033261D01*
X058884Y033248D01*
X058950Y033261D01*
X059005Y033299D01*
X059043Y033354D01*
X059056Y033420D01*
Y033514D01*
X059316D01*
X059367Y033524D01*
X059410Y033553D01*
X059439Y033596D01*
X059449Y033646D01*
X059440Y033691D01*
X059457Y033712D01*
X059478Y033729D01*
X059522Y033720D01*
X059573Y033730D01*
X059616Y033759D01*
X059644Y033800D01*
X059888D01*
X059938Y033750D01*
D02*
G37*
G36*
X055238Y032100D02*
X055245Y032069D01*
X055262Y032042D01*
X055289Y032025D01*
X055320Y032018D01*
X055493D01*
X055550Y031980D01*
X055620Y031966D01*
X055690Y031980D01*
X055745Y032017D01*
X055800Y031980D01*
X055870Y031966D01*
X055940Y031980D01*
X055995Y032017D01*
X056050Y031980D01*
X056120Y031966D01*
X056190Y031980D01*
X056245Y032017D01*
X056300Y031980D01*
X056370Y031966D01*
X056440Y031980D01*
X056495Y032017D01*
X056550Y031980D01*
X056620Y031966D01*
X056690Y031980D01*
X056747Y032018D01*
X057513D01*
X057540Y031968D01*
X057523Y031943D01*
X057509Y031873D01*
X057523Y031803D01*
X057560Y031747D01*
Y031689D01*
X057514Y031670D01*
X057440Y031744D01*
X057397Y031772D01*
X057346Y031783D01*
X054620D01*
X054569Y031772D01*
X054526Y031744D01*
X054226Y031443D01*
X054180Y031463D01*
Y031552D01*
X054184Y031555D01*
X054250Y031568D01*
X054305Y031606D01*
X054343Y031661D01*
X054356Y031727D01*
Y032180D01*
X054343Y032246D01*
X054316Y032285D01*
Y032359D01*
X054448Y032491D01*
X054567D01*
Y032063D01*
X055078D01*
Y033184D01*
X054567D01*
Y032756D01*
X054394D01*
X054343Y032746D01*
X054300Y032717D01*
X054090Y032508D01*
X054061Y032465D01*
X054051Y032414D01*
Y032377D01*
X054028Y032365D01*
Y032250D01*
X054025Y032246D01*
X054012Y032180D01*
Y031954D01*
X053828D01*
Y032340D01*
X053800Y032321D01*
X053772Y032340D01*
Y031954D01*
X053588D01*
Y032180D01*
X053575Y032246D01*
X053572Y032250D01*
Y032340D01*
X053536Y032316D01*
X053530Y032307D01*
X053482Y032339D01*
X053416Y032352D01*
X053400Y032349D01*
X053350Y032390D01*
Y033196D01*
X053405Y033250D01*
X053416Y033248D01*
X053482Y033261D01*
X053489Y033266D01*
X053509Y033262D01*
X053542Y033241D01*
X053550Y033205D01*
X053578Y033162D01*
X053640Y033100D01*
X053653Y033035D01*
X053693Y032975D01*
X053752Y032935D01*
X053822Y032921D01*
X053893Y032935D01*
X053952Y032975D01*
X053992Y033035D01*
X054006Y033105D01*
X053992Y033175D01*
X053971Y033206D01*
X053994Y033261D01*
X053994Y033262D01*
X054017Y033277D01*
X054056Y033295D01*
X054095Y033277D01*
X054118Y033261D01*
X054184Y033248D01*
X054250Y033261D01*
X054305Y033299D01*
X054343Y033354D01*
X054356Y033420D01*
Y033514D01*
X054616D01*
X054667Y033524D01*
X054710Y033553D01*
X054916Y033759D01*
X054944Y033800D01*
X055238D01*
Y032100D01*
D02*
G37*
G36*
X062644Y033462D02*
X062388Y033205D01*
X062328Y033208D01*
X062328Y033208D01*
X061781Y033754D01*
X061801Y033800D01*
X062644D01*
Y033462D01*
D02*
G37*
G36*
X064638Y033750D02*
Y032100D01*
X064645Y032069D01*
X064662Y032042D01*
X064689Y032025D01*
X064720Y032018D01*
X064893D01*
X064950Y031980D01*
X065020Y031966D01*
X065090Y031980D01*
X065145Y032017D01*
X065200Y031980D01*
X065270Y031966D01*
X065340Y031980D01*
X065395Y032017D01*
X065450Y031980D01*
X065520Y031966D01*
X065590Y031980D01*
X065645Y032017D01*
X065700Y031980D01*
X065770Y031966D01*
X065840Y031980D01*
X065895Y032017D01*
X065950Y031980D01*
X066020Y031966D01*
X066090Y031980D01*
X066147Y032018D01*
X066970D01*
X067001Y032025D01*
X067008Y032029D01*
X067058Y032004D01*
Y031432D01*
X065620D01*
X065120Y030932D01*
X061420D01*
X061389Y030925D01*
X061362Y030908D01*
X061345Y030881D01*
X061338Y030850D01*
X061338Y029950D01*
X061345Y029919D01*
X061362Y029892D01*
X061389Y029875D01*
X061420Y029868D01*
X061459D01*
Y029454D01*
X061448Y029415D01*
X061414Y029405D01*
X061044D01*
X061008Y029441D01*
X061008Y029491D01*
Y029796D01*
X060892D01*
X060890Y029797D01*
X060820Y029811D01*
X060750Y029797D01*
X060748Y029796D01*
X060632D01*
Y029491D01*
X060632Y029459D01*
X060632Y029409D01*
Y029104D01*
X061008D01*
Y029140D01*
X061155D01*
X061183Y029102D01*
Y028935D01*
X061372D01*
Y028835D01*
X061472D01*
Y028567D01*
X061560D01*
Y028905D01*
X061607Y028924D01*
X061715Y028816D01*
Y028587D01*
X061944D01*
X062103Y028428D01*
Y028219D01*
X061988D01*
Y027881D01*
X062483D01*
Y028219D01*
X062368D01*
Y028483D01*
X062358Y028534D01*
X062329Y028577D01*
X062052Y028854D01*
Y029082D01*
X061824D01*
X061767Y029139D01*
X061774Y029203D01*
X061800Y029220D01*
X061839Y029280D01*
X061853Y029350D01*
X061839Y029420D01*
X061800Y029480D01*
X061796Y029482D01*
Y029563D01*
X061840Y029587D01*
X061850Y029580D01*
X061920Y029566D01*
X061990Y029580D01*
X062036Y029611D01*
X062070Y029617D01*
X062104Y029611D01*
X062150Y029580D01*
X062220Y029566D01*
X062290Y029580D01*
X062336Y029611D01*
X062370Y029617D01*
X062404Y029611D01*
X062450Y029580D01*
X062520Y029566D01*
X062532Y029557D01*
Y029236D01*
X062532D01*
Y029219D01*
X062532D01*
Y028881D01*
X062587D01*
Y027494D01*
X062597Y027444D01*
X062626Y027401D01*
X062838Y027189D01*
Y026960D01*
X062836Y026950D01*
X062838Y026940D01*
Y026660D01*
X062836Y026650D01*
X062838Y026640D01*
Y026360D01*
X062836Y026350D01*
X062838Y026340D01*
Y026060D01*
X062838Y026060D01*
X062810Y026045D01*
X062787Y026040D01*
X061248Y027579D01*
X061268Y027626D01*
X061652D01*
Y027963D01*
X061218D01*
X061208Y027972D01*
Y028117D01*
X061305D01*
Y028306D01*
Y028494D01*
X061228D01*
Y028516D01*
X061120D01*
Y028327D01*
X060920D01*
Y028516D01*
X060902D01*
Y028575D01*
X060892Y028626D01*
X060864Y028669D01*
X060689Y028844D01*
X060646Y028872D01*
X060595Y028883D01*
X060119D01*
X060068Y028872D01*
X060025Y028844D01*
X059839Y028658D01*
X059639D01*
X059589Y028648D01*
X059546Y028620D01*
X059517Y028577D01*
X059507Y028526D01*
X059517Y028476D01*
X059534Y028451D01*
X059532Y028437D01*
X059527Y028430D01*
X059552D01*
X059589Y028405D01*
X059639Y028395D01*
X059891D01*
X059895Y028394D01*
Y028265D01*
X059891Y028264D01*
X059639D01*
X059589Y028254D01*
X059552Y028230D01*
X059527D01*
X059532Y028222D01*
X059534Y028208D01*
X059517Y028183D01*
X059507Y028133D01*
X059517Y028082D01*
X059523Y028074D01*
X059543Y028034D01*
X059523Y027995D01*
X059517Y027986D01*
X059507Y027936D01*
X059517Y027885D01*
X059523Y027877D01*
X059543Y027837D01*
X059523Y027798D01*
X059517Y027789D01*
X059507Y027739D01*
X059517Y027689D01*
X059523Y027680D01*
X059543Y027641D01*
X059523Y027601D01*
X059517Y027593D01*
X059507Y027542D01*
X059517Y027492D01*
X059523Y027483D01*
X059543Y027444D01*
X059523Y027404D01*
X059517Y027396D01*
X059507Y027345D01*
X059517Y027295D01*
X059523Y027286D01*
X059543Y027247D01*
X059523Y027207D01*
X059517Y027199D01*
X059507Y027148D01*
X059517Y027098D01*
X059523Y027090D01*
X059543Y027050D01*
X059523Y027010D01*
X059517Y027002D01*
X059507Y026952D01*
X059517Y026901D01*
X059523Y026893D01*
X059543Y026853D01*
X059523Y026814D01*
X059517Y026805D01*
X059507Y026755D01*
X059510Y026740D01*
X059471Y026690D01*
X059428D01*
X059377Y026680D01*
X059334Y026652D01*
X059315Y026633D01*
X059250Y026620D01*
X059190Y026580D01*
X059182Y026568D01*
X059132Y026583D01*
Y027695D01*
X059149Y027720D01*
X059163Y027790D01*
X059149Y027861D01*
X059109Y027920D01*
X059050Y027960D01*
X058980Y027974D01*
X058909Y027960D01*
X058850Y027920D01*
X058821D01*
X058797Y027931D01*
X058740Y027970D01*
X058670Y027984D01*
X058600Y027970D01*
X058554Y027939D01*
X058520Y027933D01*
X058486Y027939D01*
X058475Y027947D01*
X058468Y028011D01*
X058725Y028267D01*
X058744D01*
X058800Y028230D01*
X058870Y028216D01*
X058940Y028230D01*
X059000Y028270D01*
X059039Y028330D01*
X059053Y028400D01*
X059039Y028470D01*
X059000Y028530D01*
X058998Y028531D01*
X058995Y028547D01*
X059002Y028588D01*
X059050Y028620D01*
X059089Y028680D01*
X059103Y028750D01*
X059089Y028820D01*
X059084Y028829D01*
X059118Y028863D01*
X059137Y028853D01*
X059146Y028848D01*
X059196Y028838D01*
X059247Y028848D01*
X059289Y028876D01*
X059318Y028919D01*
X059328Y028969D01*
Y029221D01*
X059329Y029225D01*
Y030571D01*
X060215Y031457D01*
X061175D01*
X061194Y031411D01*
X060915Y031133D01*
X060850Y031120D01*
X060790Y031080D01*
X060750Y031020D01*
X060736Y030950D01*
X060750Y030880D01*
X060787Y030824D01*
Y030776D01*
X060750Y030720D01*
X060736Y030650D01*
X060750Y030580D01*
X060790Y030520D01*
X060850Y030480D01*
X060920Y030466D01*
X060990Y030480D01*
X061050Y030520D01*
X061089Y030580D01*
X061103Y030650D01*
X061089Y030720D01*
X061052Y030776D01*
Y030824D01*
X061089Y030880D01*
X061102Y030945D01*
X061455Y031297D01*
X062347D01*
X062398Y031308D01*
X062441Y031336D01*
X062590Y031485D01*
X062719Y031356D01*
X062762Y031328D01*
X062812Y031317D01*
X062880D01*
Y031268D01*
X063175D01*
Y031248D01*
X063277D01*
Y031450D01*
X063377D01*
Y031550D01*
X063580D01*
Y031552D01*
X063584Y031555D01*
X063650Y031568D01*
X063705Y031606D01*
X063743Y031661D01*
X063756Y031727D01*
Y032180D01*
X063743Y032246D01*
X063716Y032285D01*
Y032359D01*
X063848Y032491D01*
X063967D01*
Y032063D01*
X064478D01*
Y033184D01*
X063967D01*
Y032756D01*
X063794D01*
X063743Y032746D01*
X063700Y032717D01*
X063490Y032508D01*
X063461Y032465D01*
X063451Y032414D01*
Y032377D01*
X063428Y032365D01*
Y032250D01*
X063425Y032246D01*
X063412Y032180D01*
Y031954D01*
X063228D01*
Y032340D01*
X063200Y032321D01*
X063172Y032340D01*
Y031954D01*
X062988D01*
Y032180D01*
X062975Y032246D01*
X062972Y032250D01*
Y032340D01*
X062936Y032316D01*
X062930Y032307D01*
X062882Y032339D01*
X062816Y032352D01*
X062772Y032343D01*
X062722Y032376D01*
Y032865D01*
X062971Y033114D01*
X062992Y033128D01*
X063123Y033258D01*
X063138Y033261D01*
X063194Y033299D01*
X063206D01*
X063262Y033261D01*
X063328Y033248D01*
X063394Y033261D01*
X063449Y033299D01*
X063462D01*
X063518Y033261D01*
X063584Y033248D01*
X063650Y033261D01*
X063705Y033299D01*
X063743Y033354D01*
X063756Y033420D01*
Y033514D01*
X064016D01*
X064067Y033524D01*
X064110Y033553D01*
X064316Y033759D01*
X064344Y033800D01*
X064588D01*
X064638Y033750D01*
D02*
G37*
%LPC*%
G36*
X058400Y023950D02*
X058233D01*
Y023871D01*
X058400D01*
Y023950D01*
D02*
G37*
G36*
X060980Y025450D02*
X060877D01*
Y025348D01*
X060980D01*
Y025450D01*
D02*
G37*
G36*
Y025752D02*
X060877D01*
Y025650D01*
X060980D01*
Y025752D01*
D02*
G37*
G36*
X060960Y026400D02*
X060857D01*
Y026298D01*
X060960D01*
Y026400D01*
D02*
G37*
G36*
Y026702D02*
X060857D01*
Y026600D01*
X060960D01*
Y026702D01*
D02*
G37*
G36*
X056885Y030925D02*
X056570D01*
Y030650D01*
X056885D01*
Y030925D01*
D02*
G37*
G36*
X063620Y035384D02*
X063550Y035370D01*
X063490Y035330D01*
X063450Y035270D01*
X063436Y035200D01*
X063450Y035130D01*
X063487Y035075D01*
X063450Y035020D01*
X063436Y034950D01*
X063450Y034880D01*
X063490Y034820D01*
X063550Y034780D01*
X063620Y034766D01*
X063690Y034780D01*
X063750Y034820D01*
X063789Y034880D01*
X063803Y034950D01*
X063789Y035020D01*
X063753Y035075D01*
X063789Y035130D01*
X063803Y035200D01*
X063789Y035270D01*
X063750Y035330D01*
X063690Y035370D01*
X063620Y035384D01*
D02*
G37*
G36*
X058920D02*
X058850Y035370D01*
X058790Y035330D01*
X058750Y035270D01*
X058736Y035200D01*
X058750Y035130D01*
X058787Y035075D01*
X058750Y035020D01*
X058736Y034950D01*
X058750Y034880D01*
X058790Y034820D01*
X058850Y034780D01*
X058920Y034766D01*
X058990Y034780D01*
X059050Y034820D01*
X059089Y034880D01*
X059103Y034950D01*
X059089Y035020D01*
X059053Y035075D01*
X059089Y035130D01*
X059103Y035200D01*
X059089Y035270D01*
X059050Y035330D01*
X058990Y035370D01*
X058920Y035384D01*
D02*
G37*
G36*
X054220D02*
X054150Y035370D01*
X054090Y035330D01*
X054050Y035270D01*
X054036Y035200D01*
X054050Y035130D01*
X054087Y035075D01*
X054050Y035020D01*
X054036Y034950D01*
X054050Y034880D01*
X054090Y034820D01*
X054150Y034780D01*
X054220Y034766D01*
X054290Y034780D01*
X054350Y034820D01*
X054389Y034880D01*
X054403Y034950D01*
X054389Y035020D01*
X054353Y035075D01*
X054389Y035130D01*
X054403Y035200D01*
X054389Y035270D01*
X054350Y035330D01*
X054290Y035370D01*
X054220Y035384D01*
D02*
G37*
G36*
X054170Y040963D02*
X054107Y040951D01*
X054107Y040950D01*
X053937D01*
Y040350D01*
X054107D01*
X054107Y040349D01*
X054170Y040337D01*
X054232Y040349D01*
X054233Y040350D01*
X054415D01*
Y040950D01*
X054233D01*
X054232Y040951D01*
X054170Y040963D01*
D02*
G37*
G36*
X062620Y040973D02*
X062489Y040961D01*
X062362Y040922D01*
X062246Y040860D01*
X062144Y040776D01*
X062060Y040674D01*
X061998Y040558D01*
X061959Y040431D01*
X061946Y040300D01*
X061959Y040169D01*
X061998Y040042D01*
X062060Y039926D01*
X062144Y039824D01*
X062246Y039740D01*
X062362Y039678D01*
X062489Y039639D01*
X062620Y039627D01*
X062751Y039639D01*
X062878Y039678D01*
X062994Y039740D01*
X063096Y039824D01*
X063180Y039926D01*
X063242Y040042D01*
X063280Y040169D01*
X063293Y040300D01*
X063292Y040310D01*
X063324Y040349D01*
X063339Y040350D01*
X063380Y040350D01*
X063507D01*
X063507Y040349D01*
X063570Y040337D01*
X063632Y040349D01*
X063633Y040350D01*
X063815D01*
Y040950D01*
X063633D01*
X063632Y040951D01*
X063570Y040963D01*
X063507Y040951D01*
X063507Y040950D01*
X063337D01*
Y040399D01*
X063337Y040399D01*
X063337Y040399D01*
X063337Y040393D01*
X063329Y040366D01*
X063304Y040365D01*
X063286Y040379D01*
X063280Y040431D01*
X063242Y040558D01*
X063180Y040674D01*
X063096Y040776D01*
X062994Y040860D01*
X062878Y040922D01*
X062751Y040961D01*
X062620Y040973D01*
D02*
G37*
G36*
X064857Y040963D02*
X064795Y040951D01*
X064794Y040950D01*
X064624D01*
Y040350D01*
X064794D01*
X064795Y040349D01*
X064857Y040337D01*
X064920Y040349D01*
X064921Y040350D01*
X065103D01*
Y040950D01*
X064921D01*
X064920Y040951D01*
X064857Y040963D01*
D02*
G37*
G36*
X060157D02*
X060095Y040951D01*
X060094Y040950D01*
X059924D01*
Y040350D01*
X060094D01*
X060095Y040349D01*
X060157Y040337D01*
X060220Y040349D01*
X060221Y040350D01*
X060403D01*
Y040950D01*
X060221D01*
X060220Y040951D01*
X060157Y040963D01*
D02*
G37*
G36*
X055457D02*
X055395Y040951D01*
X055394Y040950D01*
X055224D01*
Y040350D01*
X055394D01*
X055395Y040349D01*
X055457Y040337D01*
X055520Y040349D01*
X055521Y040350D01*
X055703D01*
Y040950D01*
X055521D01*
X055520Y040951D01*
X055457Y040963D01*
D02*
G37*
G36*
X057920Y040973D02*
X057789Y040961D01*
X057662Y040922D01*
X057546Y040860D01*
X057444Y040776D01*
X057360Y040674D01*
X057298Y040558D01*
X057259Y040431D01*
X057246Y040300D01*
X057259Y040169D01*
X057298Y040042D01*
X057360Y039926D01*
X057444Y039824D01*
X057546Y039740D01*
X057662Y039678D01*
X057789Y039639D01*
X057920Y039627D01*
X058051Y039639D01*
X058178Y039678D01*
X058294Y039740D01*
X058396Y039824D01*
X058480Y039926D01*
X058542Y040042D01*
X058580Y040169D01*
X058593Y040300D01*
X058592Y040310D01*
X058624Y040349D01*
X058639Y040350D01*
X058680Y040350D01*
X058807D01*
X058807Y040349D01*
X058870Y040337D01*
X058932Y040349D01*
X058933Y040350D01*
X059115D01*
Y040950D01*
X058933D01*
X058932Y040951D01*
X058870Y040963D01*
X058807Y040951D01*
X058807Y040950D01*
X058637D01*
Y040399D01*
X058637Y040399D01*
X058637Y040399D01*
X058637Y040393D01*
X058629Y040366D01*
X058604Y040365D01*
X058586Y040379D01*
X058580Y040431D01*
X058542Y040558D01*
X058480Y040674D01*
X058396Y040776D01*
X058294Y040860D01*
X058178Y040922D01*
X058051Y040961D01*
X057920Y040973D01*
D02*
G37*
G36*
X053820Y022150D02*
X053216D01*
X053220Y022111D01*
X053261Y021977D01*
X053327Y021854D01*
X053415Y021745D01*
X053523Y021657D01*
X053647Y021591D01*
X053781Y021550D01*
X053820Y021546D01*
Y022150D01*
D02*
G37*
G36*
X054624D02*
X054020D01*
Y021546D01*
X054059Y021550D01*
X054193Y021591D01*
X054316Y021657D01*
X054425Y021745D01*
X054513Y021854D01*
X054579Y021977D01*
X054620Y022111D01*
X054624Y022150D01*
D02*
G37*
G36*
X065920D02*
X065316D01*
X065320Y022111D01*
X065361Y021977D01*
X065427Y021854D01*
X065515Y021745D01*
X065623Y021657D01*
X065747Y021591D01*
X065881Y021550D01*
X065920Y021546D01*
Y022150D01*
D02*
G37*
G36*
X053820Y022954D02*
X053781Y022950D01*
X053647Y022909D01*
X053523Y022843D01*
X053415Y022755D01*
X053327Y022646D01*
X053261Y022523D01*
X053220Y022389D01*
X053216Y022350D01*
X053820D01*
Y022954D01*
D02*
G37*
G36*
X065920D02*
X065881Y022950D01*
X065747Y022909D01*
X065623Y022843D01*
X065515Y022755D01*
X065427Y022646D01*
X065361Y022523D01*
X065320Y022389D01*
X065316Y022350D01*
X065920D01*
Y022954D01*
D02*
G37*
G36*
X066120D02*
Y022350D01*
X066724D01*
X066720Y022389D01*
X066679Y022523D01*
X066613Y022646D01*
X066525Y022755D01*
X066416Y022843D01*
X066293Y022909D01*
X066159Y022950D01*
X066120Y022954D01*
D02*
G37*
G36*
X066724Y022150D02*
X066120D01*
Y021546D01*
X066159Y021550D01*
X066293Y021591D01*
X066416Y021657D01*
X066525Y021745D01*
X066613Y021854D01*
X066679Y021977D01*
X066720Y022111D01*
X066724Y022150D01*
D02*
G37*
G36*
X055819Y022100D02*
X055513D01*
X055515Y022092D01*
X055556Y021991D01*
X055623Y021904D01*
X055710Y021837D01*
X055811Y021796D01*
X055819Y021795D01*
Y022100D01*
D02*
G37*
G36*
X066420Y029050D02*
X066120D01*
X066094Y029024D01*
X066420D01*
Y029050D01*
D02*
G37*
G36*
X054670Y030243D02*
X054568D01*
Y030140D01*
X054670D01*
Y030243D01*
D02*
G37*
G36*
X055405Y029452D02*
X055303D01*
Y029350D01*
X055405D01*
Y029452D01*
D02*
G37*
G36*
X066994Y029050D02*
X066620D01*
Y029024D01*
X066994D01*
Y029050D01*
D02*
G37*
G36*
X055405Y029150D02*
X055303D01*
Y029048D01*
X055405D01*
Y029150D01*
D02*
G37*
G36*
X063580Y031350D02*
X063477D01*
Y031248D01*
X063580D01*
Y031350D01*
D02*
G37*
G36*
X061272Y028735D02*
X061183D01*
Y028567D01*
X061272D01*
Y028735D01*
D02*
G37*
G36*
X061672Y028494D02*
X061505D01*
Y028406D01*
X061672D01*
Y028494D01*
D02*
G37*
G36*
Y028206D02*
X061505D01*
Y028117D01*
X061672D01*
Y028206D01*
D02*
G37*
%LPD*%
D12*
X058570Y030065D02*
D03*
Y029750D02*
D03*
X057570Y030057D02*
D03*
Y029743D02*
D03*
X060400Y025843D02*
D03*
Y026157D02*
D03*
X054770Y030343D02*
D03*
Y030657D02*
D03*
X057570Y030657D02*
D03*
Y030343D02*
D03*
X055020Y028665D02*
D03*
Y028350D02*
D03*
X060520Y028150D02*
D03*
Y028465D02*
D03*
X061320Y022993D02*
D03*
Y023307D02*
D03*
X062770Y030355D02*
D03*
Y030040D02*
D03*
D13*
X063377Y031450D02*
D03*
X063062D02*
D03*
X058677D02*
D03*
X058362D02*
D03*
X056462Y024400D02*
D03*
X056777D02*
D03*
X053977Y031450D02*
D03*
X053662D02*
D03*
X055820Y029250D02*
D03*
X055505D02*
D03*
X056312Y024050D02*
D03*
X056627D02*
D03*
X060462Y025550D02*
D03*
X060777D02*
D03*
X060757Y026500D02*
D03*
X060443D02*
D03*
X062812Y029697D02*
D03*
X063127D02*
D03*
D26*
X057870Y023200D02*
D03*
X057516D02*
D03*
X057074D02*
D03*
X056720D02*
D03*
X062447Y022200D02*
D03*
X062093D02*
D03*
D27*
X062720Y029404D02*
D03*
Y029050D02*
D03*
X063120Y030375D02*
D03*
Y030020D02*
D03*
Y029375D02*
D03*
Y029020D02*
D03*
X060820Y029273D02*
D03*
Y029627D02*
D03*
X061020Y028327D02*
D03*
Y027973D02*
D03*
D40*
X061294Y022200D02*
X062093D01*
X062447D02*
X063206D01*
X061294D02*
X061794Y021700D01*
X063494D01*
X063994Y022200D01*
Y022426D01*
X063142Y023278D02*
X063994Y022426D01*
X062832Y023278D02*
X063142D01*
X063206Y022200D02*
Y022914D01*
X063098Y023022D02*
X063206Y022914D01*
X062832Y023022D02*
X063098D01*
D42*
X058520Y030050D02*
Y030090D01*
X057202Y031025D02*
X057570Y030657D01*
X058505Y030007D02*
X058550D01*
X055444Y030936D02*
Y031057D01*
X057620Y029227D02*
Y029750D01*
X054180Y031210D02*
X054620Y031650D01*
X053460Y031210D02*
X054180D01*
X053220Y031450D02*
X053460Y031210D01*
X054246Y031050D02*
X054683Y031487D01*
X053394Y031050D02*
X054246D01*
X053020Y031424D02*
X053394Y031050D01*
X063699Y024400D02*
Y024489D01*
X060646Y027542D02*
X063699Y024489D01*
X062909Y024400D02*
Y025053D01*
X060616Y027345D02*
X062909Y025053D01*
X060675Y027739D02*
X063424Y024990D01*
X063490Y025150D02*
X064518D01*
X060704Y027936D02*
X063490Y025150D01*
X058370Y027800D02*
X058606Y027564D01*
X058803Y024875D02*
Y027667D01*
X058670Y027800D02*
X058803Y027667D01*
X058999Y024875D02*
Y027770D01*
X058980Y027790D02*
X058999Y027770D01*
X057870Y025882D02*
Y027600D01*
X058670Y028400D01*
X057425Y024875D02*
Y027455D01*
X058370Y028400D01*
X057228Y024875D02*
Y027758D01*
X057870Y028400D01*
X057621Y025634D02*
X057870Y025882D01*
X057621Y024875D02*
Y025634D01*
X058606Y024875D02*
Y027564D01*
X056770Y026200D02*
X057031Y025939D01*
Y024875D02*
Y025939D01*
X056510Y026163D02*
X056834Y025839D01*
Y024875D02*
Y025839D01*
X058212Y024558D02*
X058470Y024300D01*
X056020Y026290D02*
Y026761D01*
X057621Y028898D02*
X057901Y028619D01*
X059428Y026558D02*
X059895D01*
X058537Y024460D02*
X059187D01*
X057020Y028750D02*
X057080Y028810D01*
X057294D01*
X057425Y028941D01*
Y029225D01*
X054620Y031650D02*
X057346D01*
X058015Y030981D01*
X057283Y031487D02*
X057818Y030952D01*
X054683Y031487D02*
X057283D01*
X054394Y032624D02*
X054822D01*
X060820Y029273D02*
X061445D01*
X061884Y028835D01*
X061620Y029400D02*
Y029658D01*
Y029400D02*
X061670Y029350D01*
X061620Y029658D02*
X061628Y029665D01*
X062235Y028050D02*
Y028483D01*
X061884Y028835D02*
X062235Y028483D01*
X061199Y027794D02*
X061405D01*
X061020Y027973D02*
X061199Y027794D01*
X057228Y029225D02*
Y029642D01*
X056890Y029980D02*
X057228Y029642D01*
X056890Y029980D02*
X056985Y030075D01*
X057010Y030100D02*
X057252Y030343D01*
X057570D01*
X056985Y031025D02*
X057202D01*
X055037Y030075D02*
X055355D01*
X054770Y030343D02*
X055037Y030075D01*
X055137Y031025D02*
X055355D01*
X054770Y030657D02*
X055137Y031025D01*
X055505Y028965D02*
X055520Y028950D01*
X055505Y028965D02*
Y029250D01*
X056219D02*
X056244Y029225D01*
X055820Y029250D02*
X056219D01*
X056070Y027900D02*
Y028350D01*
X055909Y027739D02*
X056070Y027900D01*
X055545Y027739D02*
X055909D01*
X053834Y028365D02*
X054120Y028650D01*
X054405Y028224D02*
Y028650D01*
X054665Y028658D02*
X054667D01*
X054665D02*
X054670Y028662D01*
Y028950D02*
X054955Y028665D01*
X054667Y028658D02*
X054975Y028350D01*
X053834Y028224D02*
Y028365D01*
X054975Y028350D02*
X055020D01*
X054955Y028665D02*
X055020D01*
Y028350D02*
X055040Y028330D01*
X055545D01*
X055204Y028526D02*
X055545D01*
X055065Y028665D02*
X055204Y028526D01*
X055020Y028665D02*
X055065D01*
X057818Y023598D02*
Y024875D01*
X057638Y023418D02*
X057818Y023598D01*
X055238Y023418D02*
X057638D01*
X058409Y024587D02*
Y024875D01*
Y024587D02*
X058537Y024460D01*
X058470Y024300D02*
X059120D01*
X058212Y024558D02*
Y024875D01*
X058789Y028619D02*
X058920Y028750D01*
X057901Y028619D02*
X058789D01*
X058409Y028861D02*
X058441Y028829D01*
X058429Y028850D02*
X058450Y028829D01*
X058441D02*
X058450D01*
X058409Y028861D02*
Y029225D01*
X058670Y028400D02*
X058870D01*
X058520Y029750D02*
X058570D01*
X058606Y029714D01*
Y029225D02*
Y029714D01*
X058212Y029225D02*
Y031010D01*
X060385Y026558D02*
X060443Y026500D01*
X059895Y026558D02*
X060385D01*
X058677Y031450D02*
X058777Y031350D01*
X058997D01*
X058670Y031050D02*
X058920D01*
X058362Y031357D02*
X058670Y031050D01*
X058362Y031357D02*
Y031450D01*
X063328Y031499D02*
X063377Y031450D01*
X063328Y031499D02*
Y031954D01*
X063072D02*
X063328D01*
X058628Y031499D02*
X058677Y031450D01*
X058628Y031499D02*
Y031954D01*
X058372D02*
X058628D01*
X053928Y031499D02*
Y031954D01*
Y031499D02*
X053977Y031450D01*
X053672Y031954D02*
X053928D01*
X063584Y033646D02*
X064016D01*
X064222Y033853D01*
Y034576D01*
X063584Y031954D02*
Y032414D01*
X063794Y032624D01*
X064222D01*
X058884Y033646D02*
X059316D01*
X059522Y033853D02*
Y034576D01*
X058884Y031954D02*
Y032414D01*
X059094Y032624D01*
X059522D01*
X054184Y032414D02*
X054394Y032624D01*
X054184Y031954D02*
Y032414D01*
X054822Y033853D02*
Y034576D01*
X054616Y033646D02*
X054822Y033853D01*
X054184Y033646D02*
X054616D01*
X058803Y029225D02*
Y030646D01*
X057918Y031531D02*
X058803Y030646D01*
X057693Y031530D02*
X058212Y031010D01*
X057693Y031530D02*
Y031873D01*
X058015Y029225D02*
Y030981D01*
X057818Y029225D02*
Y030952D01*
X057918Y031531D02*
Y033248D01*
X053672Y033255D02*
X053822Y033105D01*
Y033147D01*
X053672Y033255D02*
Y033646D01*
X058372Y033255D02*
X058522Y033105D01*
Y033147D01*
X058372Y033255D02*
Y033646D01*
X060439Y025574D02*
X060462Y025550D01*
X059895Y025574D02*
X060439D01*
X059895Y026361D02*
X060196D01*
X060400Y026157D01*
X060328Y025770D02*
X060400Y025843D01*
X059895Y025770D02*
X060328D01*
X060770Y028223D02*
X061020Y027973D01*
X060770Y028223D02*
Y028575D01*
X060249Y028330D02*
X060385Y028465D01*
X059895Y028330D02*
X060249D01*
X060385Y028465D02*
X060520D01*
X059895Y028133D02*
X060503D01*
X060520Y028150D01*
X060595Y028750D02*
X060770Y028575D01*
X060119Y028750D02*
X060595D01*
X059895Y028526D02*
X060119Y028750D01*
X056440Y024422D02*
Y024875D01*
Y024422D02*
X056462Y024400D01*
X056244Y024119D02*
Y024875D01*
Y024119D02*
X056312Y024050D01*
X057520Y024400D02*
X057570Y024350D01*
X056777Y024400D02*
X057520D01*
X056675Y024297D02*
X056777Y024400D01*
X056675Y024097D02*
Y024297D01*
X056627Y024050D02*
X056675Y024097D01*
X056300Y026378D02*
Y026707D01*
X055545Y027148D02*
X055858D01*
X055829Y026952D02*
X056020Y026761D01*
X055545Y026952D02*
X055829D01*
X055858Y027148D02*
X056300Y026707D01*
X054060Y025490D02*
Y025587D01*
X054405Y025932D02*
Y026176D01*
X054120Y025873D02*
Y026488D01*
X054060Y025587D02*
X054405Y025932D01*
X054120Y026488D02*
X054624Y026991D01*
Y027637D02*
X055119Y028133D01*
X054784Y027571D02*
X055149Y027936D01*
X054624Y026991D02*
Y027637D01*
X055212Y027542D02*
X055545D01*
X054944Y027274D02*
X055212Y027542D01*
X055261Y027345D02*
X055545D01*
X055104Y027188D02*
X055261Y027345D01*
X056020Y026290D02*
X056100Y026210D01*
X056510Y026163D02*
Y026200D01*
X055149Y027936D02*
X055545D01*
X053834Y026176D02*
Y026226D01*
X055170Y023350D02*
X055238Y023418D01*
X054868Y023105D02*
X056625D01*
X056720Y023200D01*
X054802Y022945D02*
X057261D01*
X054619Y022625D02*
X061667D01*
X055119Y028133D02*
X055545D01*
X057261Y022945D02*
X057516Y023200D01*
X055444Y030936D02*
X055820Y030560D01*
Y030050D02*
Y030560D01*
Y030050D02*
X056180Y029690D01*
X059260Y023784D02*
X059564Y023480D01*
X059420Y023850D02*
X059630Y023640D01*
X059260Y023784D02*
Y024160D01*
X059420Y023850D02*
Y024226D01*
X059120Y024300D02*
X059260Y024160D01*
X061669Y023950D02*
X062119Y024400D01*
X059187Y024460D02*
X059420Y024226D01*
X059320Y026450D02*
X059428Y026558D01*
X057031Y029225D02*
Y029539D01*
X056880Y029690D02*
X057031Y029539D01*
X056180Y029690D02*
X056880D01*
X057620Y029227D02*
X057621Y029225D01*
Y028898D02*
Y029225D01*
X063127Y029459D02*
Y029697D01*
X063120Y029375D02*
Y029459D01*
X062347Y031430D02*
X062590Y031673D01*
X061400Y031430D02*
X062347D01*
X062590Y031673D02*
X062812Y031450D01*
X063062D01*
X064518Y025150D02*
X065269Y024400D01*
X064010Y024990D02*
X064481Y024519D01*
Y024400D02*
Y024519D01*
X063072Y033395D02*
Y033646D01*
X062898Y033221D02*
X063072Y033395D01*
X062891Y033221D02*
X062898D01*
X062590Y032920D02*
X062891Y033221D01*
X062590Y031697D02*
Y032920D01*
X060920Y030650D02*
Y030950D01*
X061400Y031430D01*
X053672Y033646D02*
X053928D01*
X058372D02*
X058628D01*
X063072D02*
X063328D01*
X062430Y033060D02*
X062816Y033446D01*
X062257Y031590D02*
X062430Y031763D01*
Y033060D01*
X062120Y031750D02*
X062220Y031850D01*
X057602Y029732D02*
X057620Y029750D01*
X062816Y033446D02*
Y033646D01*
X058116Y033446D02*
Y033646D01*
X057918Y033248D02*
X058116Y033446D01*
X053416Y033449D02*
Y033646D01*
X053218Y033251D02*
X053416Y033449D01*
X053020Y031424D02*
Y033350D01*
X053220Y031450D02*
Y031640D01*
X053221Y031641D01*
Y031641D01*
X053218Y031645D02*
X053221Y031641D01*
X053218Y031645D02*
Y033251D01*
X063120Y029697D02*
Y030020D01*
X066120Y027265D02*
Y028750D01*
X062964Y027250D02*
X063020D01*
X062720Y027494D02*
X062964Y027250D01*
X062720Y027494D02*
Y029050D01*
X066120Y027265D02*
X066385Y027000D01*
X066560D01*
X061320Y023300D02*
X061342Y023278D01*
X061808D01*
X061342Y023022D02*
X061808D01*
X061320Y023000D02*
X061342Y023022D01*
X061667Y022625D02*
X061808Y022766D01*
X061120Y023950D02*
X061669D01*
X059630Y023640D02*
X060571D01*
X061332Y024400D01*
X059564Y023480D02*
X060650D01*
X061120Y023950D01*
X054685Y022785D02*
X060205D01*
X060954Y023534D01*
X061808D01*
X059196Y029225D02*
Y030626D01*
X060160Y031590D01*
X062257D01*
X058999Y030656D02*
X060094Y031750D01*
X058999Y029225D02*
Y030656D01*
X060094Y031750D02*
X062120D01*
X059895Y027345D02*
X060616D01*
X059895Y027936D02*
X060704D01*
X059895Y027739D02*
X060675D01*
X059895Y027542D02*
X060646D01*
X063424Y024990D02*
X064010D01*
X054784Y025866D02*
Y027571D01*
X054944Y025800D02*
Y027274D01*
X055104Y025734D02*
Y027188D01*
X054310Y024940D02*
X055104Y025734D01*
X054150Y025006D02*
X054944Y025800D01*
X053990Y025073D02*
X054784Y025866D01*
X053830Y025583D02*
X054120Y025873D01*
X054310Y023663D02*
Y024940D01*
Y023663D02*
X054868Y023105D01*
X054150Y023597D02*
Y025006D01*
Y023597D02*
X054802Y022945D01*
X053990Y023480D02*
Y025073D01*
Y023480D02*
X054685Y022785D01*
X053830Y023414D02*
Y025583D01*
Y023414D02*
X054619Y022625D01*
X053627Y025540D02*
X053630Y025537D01*
X053627Y025540D02*
Y025969D01*
X053620Y023350D02*
X053630Y023360D01*
Y025537D01*
X053627Y025969D02*
X053834Y026176D01*
D44*
X065762Y029653D02*
Y029847D01*
D45*
X066056Y024400D02*
D03*
X065269D02*
D03*
X063699D02*
D03*
X062909D02*
D03*
X062119D02*
D03*
X061332D02*
D03*
X060544D02*
D03*
X064481D02*
D03*
X058284Y022200D02*
D03*
X057494D02*
D03*
X056706D02*
D03*
X055919D02*
D03*
X061294D02*
D03*
X060506D02*
D03*
X063206D02*
D03*
X063994D02*
D03*
D46*
X054120Y027200D02*
D03*
D47*
X053920Y022250D02*
D03*
X066020D02*
D03*
X062620Y040300D02*
D03*
X057920D02*
D03*
D48*
X053120Y039753D02*
D03*
Y036800D02*
D03*
D49*
X053670Y032350D02*
D03*
X063320D02*
D03*
X058620D02*
D03*
X053420Y030800D02*
D03*
X059020Y023450D02*
D03*
X058720D02*
D03*
X058420D02*
D03*
X058120D02*
D03*
X057650Y026050D02*
D03*
X058070Y026400D02*
D03*
Y026138D02*
D03*
X058370Y026400D02*
D03*
X064820Y029350D02*
D03*
X064520D02*
D03*
X062920Y034250D02*
D03*
Y034500D02*
D03*
X063170D02*
D03*
X057020Y028750D02*
D03*
X053977Y031450D02*
D03*
X063320Y026050D02*
D03*
X063020D02*
D03*
X055620Y033650D02*
D03*
X055870D02*
D03*
X056120D02*
D03*
X056370D02*
D03*
X056620D02*
D03*
X055870Y033400D02*
D03*
X056120D02*
D03*
X056370D02*
D03*
X056620D02*
D03*
Y033150D02*
D03*
X056370D02*
D03*
X055870D02*
D03*
X055620D02*
D03*
Y032900D02*
D03*
Y032150D02*
D03*
Y032400D02*
D03*
X055870Y032900D02*
D03*
Y032650D02*
D03*
Y032400D02*
D03*
Y032150D02*
D03*
X056120D02*
D03*
X056370D02*
D03*
X056620D02*
D03*
Y032900D02*
D03*
Y032650D02*
D03*
Y032400D02*
D03*
X056370D02*
D03*
X056120D02*
D03*
Y032650D02*
D03*
X056370Y032900D02*
D03*
Y032650D02*
D03*
X055620D02*
D03*
X056120Y032900D02*
D03*
Y033150D02*
D03*
X055620Y033400D02*
D03*
X060320Y033650D02*
D03*
X060570D02*
D03*
X060820D02*
D03*
X061070D02*
D03*
X061320D02*
D03*
X060570Y033400D02*
D03*
X060820D02*
D03*
X061070D02*
D03*
X061320D02*
D03*
Y033150D02*
D03*
X061070D02*
D03*
X060570D02*
D03*
X060320D02*
D03*
Y032900D02*
D03*
Y032150D02*
D03*
Y032400D02*
D03*
X060570Y032900D02*
D03*
Y032650D02*
D03*
Y032400D02*
D03*
Y032150D02*
D03*
X060820D02*
D03*
X061070D02*
D03*
X061320D02*
D03*
Y032900D02*
D03*
Y032650D02*
D03*
Y032400D02*
D03*
X061070D02*
D03*
X060820D02*
D03*
Y032650D02*
D03*
X061070Y032900D02*
D03*
Y032650D02*
D03*
X060320D02*
D03*
X060820Y032900D02*
D03*
Y033150D02*
D03*
X060320Y033400D02*
D03*
X060820Y029627D02*
D03*
X061670Y029350D02*
D03*
X057220Y030900D02*
D03*
X056970D02*
D03*
X056720D02*
D03*
X057570Y030057D02*
D03*
X055520Y030350D02*
D03*
Y030100D02*
D03*
Y029850D02*
D03*
Y028950D02*
D03*
X055820Y029250D02*
D03*
X056070Y028350D02*
D03*
X054120Y028650D02*
D03*
X054405D02*
D03*
X054665Y028658D02*
D03*
X054670Y028950D02*
D03*
X057570Y023750D02*
D03*
X058120Y024350D02*
D03*
X058450Y028829D02*
D03*
X058920Y028750D02*
D03*
X058520Y030050D02*
D03*
Y029750D02*
D03*
X060757Y026500D02*
D03*
X063377Y031450D02*
D03*
X058997Y031350D02*
D03*
X058920Y031050D02*
D03*
X059220Y031750D02*
D03*
X053662Y031450D02*
D03*
X065970Y034750D02*
D03*
X065720D02*
D03*
X065470D02*
D03*
X065220D02*
D03*
X064970D02*
D03*
X065970Y034500D02*
D03*
Y034250D02*
D03*
X061270Y034750D02*
D03*
X061020D02*
D03*
X060770D02*
D03*
X060520D02*
D03*
X060270D02*
D03*
X061270Y034500D02*
D03*
Y034250D02*
D03*
X056570D02*
D03*
Y034500D02*
D03*
X055570Y034750D02*
D03*
X055820D02*
D03*
X056070D02*
D03*
X056320D02*
D03*
X056570D02*
D03*
X057693Y031873D02*
D03*
X065020Y033400D02*
D03*
X065520Y033150D02*
D03*
Y032900D02*
D03*
X065020Y032650D02*
D03*
X065770D02*
D03*
Y032900D02*
D03*
X065520Y032650D02*
D03*
Y032400D02*
D03*
X065770D02*
D03*
X066020D02*
D03*
Y032650D02*
D03*
Y032900D02*
D03*
Y032150D02*
D03*
X065770D02*
D03*
X065520D02*
D03*
X065270D02*
D03*
Y032400D02*
D03*
Y032650D02*
D03*
Y032900D02*
D03*
X065020Y032400D02*
D03*
Y032150D02*
D03*
Y032900D02*
D03*
Y033150D02*
D03*
X065270D02*
D03*
X065770D02*
D03*
X066020D02*
D03*
Y033400D02*
D03*
X065770D02*
D03*
X065520D02*
D03*
X065270D02*
D03*
X066020Y033650D02*
D03*
X065770D02*
D03*
X065520D02*
D03*
X065270D02*
D03*
X065020D02*
D03*
X063170Y034250D02*
D03*
X063420D02*
D03*
Y034500D02*
D03*
X058220Y034250D02*
D03*
X058470D02*
D03*
X058720D02*
D03*
Y034500D02*
D03*
X058470D02*
D03*
X058220D02*
D03*
X053520Y034250D02*
D03*
X053770D02*
D03*
X054020D02*
D03*
Y034500D02*
D03*
X053770D02*
D03*
X053520D02*
D03*
X053822Y033105D02*
D03*
X058522D02*
D03*
X060020Y025050D02*
D03*
X059720D02*
D03*
X060777Y025550D02*
D03*
X060462D02*
D03*
X060400Y026157D02*
D03*
X060520Y028150D02*
D03*
Y028465D02*
D03*
X056320Y024050D02*
D03*
X058120D02*
D03*
X057570Y024350D02*
D03*
Y024050D02*
D03*
X058120Y023750D02*
D03*
X056300Y026378D02*
D03*
X056770Y026200D02*
D03*
X056510D02*
D03*
X056100Y026210D02*
D03*
X054060Y025490D02*
D03*
X054820Y024050D02*
D03*
Y024350D02*
D03*
Y024650D02*
D03*
X054520Y024050D02*
D03*
Y024350D02*
D03*
X055120Y024650D02*
D03*
X054820Y023750D02*
D03*
X055170Y023350D02*
D03*
X055120Y024350D02*
D03*
X055420Y024650D02*
D03*
Y024350D02*
D03*
X055720D02*
D03*
Y024050D02*
D03*
X056020D02*
D03*
Y023750D02*
D03*
X056720Y023200D02*
D03*
X057516D02*
D03*
X054520Y024650D02*
D03*
X055120Y023750D02*
D03*
Y024050D02*
D03*
X056920Y023750D02*
D03*
X056620D02*
D03*
X057220D02*
D03*
X059020Y024050D02*
D03*
X058720D02*
D03*
X058420D02*
D03*
X058370Y027800D02*
D03*
X058670D02*
D03*
X058980Y027790D02*
D03*
X057870Y028400D02*
D03*
X060920Y030650D02*
D03*
Y030950D02*
D03*
X062220Y031850D02*
D03*
X059320Y026450D02*
D03*
X058870Y028400D02*
D03*
X058370D02*
D03*
X053020Y033350D02*
D03*
X065444Y030950D02*
D03*
X063720Y030350D02*
D03*
Y030650D02*
D03*
X063420D02*
D03*
Y030350D02*
D03*
X063120D02*
D03*
Y030650D02*
D03*
X062820D02*
D03*
Y030350D02*
D03*
X063135Y029565D02*
D03*
X066120Y026950D02*
D03*
Y026650D02*
D03*
Y028750D02*
D03*
X062520Y029750D02*
D03*
X062220D02*
D03*
X061920D02*
D03*
X062220Y030050D02*
D03*
X061920D02*
D03*
X061620D02*
D03*
Y030350D02*
D03*
X061920D02*
D03*
X062220D02*
D03*
X062520D02*
D03*
Y030650D02*
D03*
X062220D02*
D03*
X061920D02*
D03*
X061620D02*
D03*
X066720Y026650D02*
D03*
X066420D02*
D03*
Y027550D02*
D03*
X066720D02*
D03*
Y027850D02*
D03*
X066420D02*
D03*
Y028150D02*
D03*
X066720D02*
D03*
Y028450D02*
D03*
X066420D02*
D03*
X066320Y030250D02*
D03*
X066020D02*
D03*
Y030550D02*
D03*
X066320Y030850D02*
D03*
X066020D02*
D03*
X066620Y031150D02*
D03*
X066320D02*
D03*
X066020D02*
D03*
X063320Y028750D02*
D03*
X064220Y029350D02*
D03*
X063920D02*
D03*
X063620D02*
D03*
X065420Y029050D02*
D03*
X065120D02*
D03*
X064820D02*
D03*
X064520D02*
D03*
X064220D02*
D03*
X063920D02*
D03*
X063620D02*
D03*
X063320D02*
D03*
X063020Y028750D02*
D03*
X063620D02*
D03*
X063920D02*
D03*
Y028450D02*
D03*
X063620D02*
D03*
X063320D02*
D03*
X063020D02*
D03*
X063620Y028150D02*
D03*
X063320D02*
D03*
X063020D02*
D03*
X063920D02*
D03*
Y027850D02*
D03*
X063620D02*
D03*
X063320D02*
D03*
X063020D02*
D03*
X063620Y027550D02*
D03*
X063320D02*
D03*
X063020D02*
D03*
X065720Y028457D02*
D03*
X063020Y026350D02*
D03*
X063320D02*
D03*
X063620Y026364D02*
D03*
X063920Y026650D02*
D03*
X063620D02*
D03*
X063320D02*
D03*
X063020D02*
D03*
Y026950D02*
D03*
X063320D02*
D03*
X063620D02*
D03*
X063920D02*
D03*
X063020Y027250D02*
D03*
X063320D02*
D03*
X063920D02*
D03*
X063620D02*
D03*
X063920Y026350D02*
D03*
Y026050D02*
D03*
X063620D02*
D03*
X059020Y023750D02*
D03*
X058720D02*
D03*
X058420D02*
D03*
X055720Y024650D02*
D03*
X056020D02*
D03*
Y024350D02*
D03*
X057220Y024050D02*
D03*
X056920D02*
D03*
X056320Y023750D02*
D03*
X055420Y024050D02*
D03*
Y023750D02*
D03*
X055720D02*
D03*
X060020Y024750D02*
D03*
X059720D02*
D03*
Y024150D02*
D03*
Y023850D02*
D03*
X060020D02*
D03*
Y024150D02*
D03*
Y024450D02*
D03*
X059720D02*
D03*
X062747Y036200D02*
D03*
X053347D02*
D03*
X064096Y035400D02*
D03*
X059395D02*
D03*
X058047Y036200D02*
D03*
X065323Y029947D02*
D03*
X065717D02*
D03*
X065323Y029553D02*
D03*
X065717D02*
D03*
X054676Y035400D02*
D03*
X061320Y023300D02*
D03*
Y023000D02*
D03*
X054170Y040500D02*
D03*
Y040800D02*
D03*
X058870D02*
D03*
Y040500D02*
D03*
X063570Y040800D02*
D03*
Y040500D02*
D03*
X055457Y040800D02*
D03*
Y040500D02*
D03*
X060157Y040800D02*
D03*
Y040500D02*
D03*
X064857Y040800D02*
D03*
Y040500D02*
D03*
X062420Y036750D02*
D03*
X062670D02*
D03*
X062420Y036500D02*
D03*
X062670D02*
D03*
X057970D02*
D03*
X057720D02*
D03*
X057970Y036750D02*
D03*
X057720D02*
D03*
Y037000D02*
D03*
X057970D02*
D03*
X058920Y034950D02*
D03*
Y035200D02*
D03*
X063620Y034950D02*
D03*
Y035200D02*
D03*
X054220Y034950D02*
D03*
Y035200D02*
D03*
X057570Y038550D02*
D03*
X058570Y038800D02*
D03*
X058320D02*
D03*
X058070D02*
D03*
X057820D02*
D03*
X057570D02*
D03*
X057320D02*
D03*
X057070D02*
D03*
X058570Y038550D02*
D03*
X058320D02*
D03*
X058070D02*
D03*
X057820D02*
D03*
X057320D02*
D03*
X057070D02*
D03*
Y038300D02*
D03*
X057320D02*
D03*
X057570D02*
D03*
X057820D02*
D03*
X058070D02*
D03*
X058320D02*
D03*
X058570D02*
D03*
Y038050D02*
D03*
X058320D02*
D03*
X058070D02*
D03*
X057820D02*
D03*
X057570D02*
D03*
X057320D02*
D03*
X057070D02*
D03*
Y037800D02*
D03*
X058570D02*
D03*
X057320D02*
D03*
X057570D02*
D03*
X058320D02*
D03*
X058070D02*
D03*
X057820D02*
D03*
X062520Y038300D02*
D03*
X063270Y038800D02*
D03*
X062270Y038550D02*
D03*
X063020Y038800D02*
D03*
X062770D02*
D03*
X062520D02*
D03*
X062270D02*
D03*
X062020D02*
D03*
X061770D02*
D03*
X063270Y038550D02*
D03*
X063020D02*
D03*
X062770D02*
D03*
X062520D02*
D03*
X062020D02*
D03*
X061770D02*
D03*
Y038300D02*
D03*
X062020D02*
D03*
X062270D02*
D03*
X062770D02*
D03*
X063020D02*
D03*
X063270D02*
D03*
Y038050D02*
D03*
X063020D02*
D03*
X062770D02*
D03*
X062520D02*
D03*
X062270D02*
D03*
X062020D02*
D03*
X061770D02*
D03*
Y037800D02*
D03*
Y037550D02*
D03*
X063270Y037800D02*
D03*
Y037550D02*
D03*
X062020D02*
D03*
Y037800D02*
D03*
X062270D02*
D03*
Y037550D02*
D03*
X063020Y037800D02*
D03*
Y037550D02*
D03*
X062770Y037800D02*
D03*
Y037550D02*
D03*
X062520Y037800D02*
D03*
Y037550D02*
D03*
X057820Y039050D02*
D03*
X058070D02*
D03*
X058320D02*
D03*
X058570D02*
D03*
X057570D02*
D03*
X057320D02*
D03*
X057070D02*
D03*
X061770D02*
D03*
X062020D02*
D03*
X062270D02*
D03*
X062520D02*
D03*
X063020D02*
D03*
X063270D02*
D03*
X062770D02*
D03*
X057720Y037250D02*
D03*
X057970D02*
D03*
X066420Y039050D02*
D03*
Y038800D02*
D03*
Y038550D02*
D03*
Y038300D02*
D03*
Y037800D02*
D03*
Y037550D02*
D03*
Y038050D02*
D03*
X066920Y038800D02*
D03*
Y038050D02*
D03*
X066670D02*
D03*
Y037550D02*
D03*
X066920D02*
D03*
Y037800D02*
D03*
X066670D02*
D03*
Y038300D02*
D03*
X066920D02*
D03*
Y038550D02*
D03*
X066670D02*
D03*
Y038800D02*
D03*
Y039050D02*
D03*
X066920D02*
D03*
X053170D02*
D03*
Y038800D02*
D03*
Y038550D02*
D03*
Y038300D02*
D03*
Y037800D02*
D03*
Y037550D02*
D03*
Y038050D02*
D03*
X053670Y038800D02*
D03*
Y038050D02*
D03*
X053420D02*
D03*
Y037550D02*
D03*
X053670D02*
D03*
X053920D02*
D03*
Y037800D02*
D03*
X053670D02*
D03*
X053420D02*
D03*
X053920Y038050D02*
D03*
X053420Y038300D02*
D03*
X053670D02*
D03*
X053920D02*
D03*
Y038550D02*
D03*
X053670D02*
D03*
X053420D02*
D03*
X053920Y038800D02*
D03*
X053420D02*
D03*
Y039050D02*
D03*
X053670D02*
D03*
X053920D02*
D03*
X063270Y037300D02*
D03*
X063020D02*
D03*
X062770D02*
D03*
X062520D02*
D03*
X062270D02*
D03*
X057070Y037550D02*
D03*
X057320D02*
D03*
X053420Y029900D02*
D03*
Y028820D02*
D03*
X053343Y023650D02*
D03*
X053420Y025450D02*
D03*
X066070Y025250D02*
D03*
X059420Y022100D02*
D03*
X059670Y030450D02*
D03*
X061020Y028327D02*
D03*
X061372Y028844D02*
D03*
X061405Y028306D02*
D03*
X053620Y023350D02*
D03*
X059420Y024750D02*
D03*
Y025050D02*
D03*
X057074Y023200D02*
D03*
X057870D02*
D03*
D58*
X056450Y032624D02*
D03*
Y034576D02*
D03*
X065850D02*
D03*
Y032624D02*
D03*
X061150Y034576D02*
D03*
Y032624D02*
D03*
D59*
X054822Y034576D02*
D03*
Y032624D02*
D03*
X064222D02*
D03*
Y034576D02*
D03*
X059522Y032624D02*
D03*
Y034576D02*
D03*
D60*
X063520Y026464D02*
D03*
Y028236D02*
D03*
D61*
X057207Y024050D02*
D03*
X058133D02*
D03*
D62*
X053834Y028224D02*
D03*
X054405D02*
D03*
X053834Y026176D02*
D03*
X054405D02*
D03*
D63*
X056244Y029225D02*
D03*
X056440D02*
D03*
X056637D02*
D03*
X056834D02*
D03*
X057031D02*
D03*
X057228D02*
D03*
X057425D02*
D03*
X057621D02*
D03*
X057818D02*
D03*
X058015D02*
D03*
X058212D02*
D03*
X058409D02*
D03*
X058606D02*
D03*
X058803D02*
D03*
X058999D02*
D03*
X059196D02*
D03*
Y024875D02*
D03*
X058999D02*
D03*
X058803D02*
D03*
X058606D02*
D03*
X058409D02*
D03*
X058212D02*
D03*
X058015D02*
D03*
X057818D02*
D03*
X057621D02*
D03*
X057425D02*
D03*
X057228D02*
D03*
X057031D02*
D03*
X056834D02*
D03*
X056637D02*
D03*
X056440D02*
D03*
X056244D02*
D03*
D64*
X059895Y028526D02*
D03*
Y028330D02*
D03*
Y028133D02*
D03*
Y027936D02*
D03*
Y027739D02*
D03*
Y027542D02*
D03*
Y027345D02*
D03*
Y027148D02*
D03*
Y026952D02*
D03*
Y026755D02*
D03*
Y026558D02*
D03*
Y026361D02*
D03*
Y026164D02*
D03*
Y025967D02*
D03*
Y025770D02*
D03*
Y025574D02*
D03*
X055545D02*
D03*
Y025770D02*
D03*
Y025967D02*
D03*
Y026164D02*
D03*
Y026361D02*
D03*
Y026558D02*
D03*
Y026755D02*
D03*
Y026952D02*
D03*
Y027148D02*
D03*
Y027345D02*
D03*
Y027542D02*
D03*
Y027739D02*
D03*
Y027936D02*
D03*
Y028133D02*
D03*
Y028330D02*
D03*
Y028526D02*
D03*
D65*
X055355Y030075D02*
D03*
X056985D02*
D03*
Y031025D02*
D03*
X055355D02*
D03*
D66*
X062816Y033646D02*
D03*
X063072D02*
D03*
X063328D02*
D03*
X063584D02*
D03*
X062816Y031954D02*
D03*
X063072D02*
D03*
X063328D02*
D03*
X063584D02*
D03*
X053416Y033646D02*
D03*
X053672D02*
D03*
X053928D02*
D03*
X054184D02*
D03*
X053416Y031954D02*
D03*
X053672D02*
D03*
X053928D02*
D03*
X054184D02*
D03*
X058116Y033646D02*
D03*
X058372D02*
D03*
X058628D02*
D03*
X058884D02*
D03*
X058116Y031954D02*
D03*
X058372D02*
D03*
X058628D02*
D03*
X058884D02*
D03*
D67*
X065720Y036156D02*
D03*
Y038144D02*
D03*
X061020Y036156D02*
D03*
Y038144D02*
D03*
X056320Y036162D02*
D03*
Y038150D02*
D03*
D68*
X054176Y040650D02*
D03*
X055464D02*
D03*
X058876D02*
D03*
X060164D02*
D03*
X063576D02*
D03*
X064864D02*
D03*
D69*
X054220Y037851D02*
D03*
Y036650D02*
D03*
D70*
X066520Y029390D02*
D03*
Y030650D02*
D03*
D71*
X065320Y030491D02*
D03*
Y029309D02*
D03*
X064070Y030491D02*
D03*
Y029309D02*
D03*
D72*
X064570Y027000D02*
D03*
Y027500D02*
D03*
Y028000D02*
D03*
Y028500D02*
D03*
X066560Y027000D02*
D03*
Y027500D02*
D03*
Y028000D02*
D03*
Y028500D02*
D03*
D73*
X061628Y029665D02*
D03*
X061372Y028835D02*
D03*
X061884D02*
D03*
D74*
X062235Y028050D02*
D03*
X061405Y028306D02*
D03*
Y027794D02*
D03*
D75*
X061808Y023534D02*
D03*
X062832D02*
D03*
Y022766D02*
D03*
Y023022D02*
D03*
Y023278D02*
D03*
X061808D02*
D03*
Y023022D02*
D03*
Y022766D02*
D03*
D76*
X065265Y027750D02*
D03*
M02*
