G04 Layer_Physical_Order=3*
G04 Layer_Color=128*
%FSAX24Y24*%
%MOIN*%
G70*
G01*
G75*
%ADD43C,0.0400*%
%ADD44C,0.0200*%
%ADD50C,0.0515*%
G04:AMPARAMS|DCode=51|XSize=91.496mil|YSize=91.496mil|CornerRadius=0mil|HoleSize=0mil|Usage=FLASHONLY|Rotation=0.000|XOffset=0mil|YOffset=0mil|HoleType=Round|Shape=Relief|Width=20mil|Gap=10mil|Entries=4|*
%AMTHD51*
7,0,0,0.0915,0.0715,0.0200,45*
%
%ADD51THD51*%
%ADD52C,0.0987*%
%ADD54C,0.1420*%
%ADD55C,0.0594*%
G04:AMPARAMS|DCode=56|XSize=99.37mil|YSize=99.37mil|CornerRadius=0mil|HoleSize=0mil|Usage=FLASHONLY|Rotation=0.000|XOffset=0mil|YOffset=0mil|HoleType=Round|Shape=Relief|Width=20mil|Gap=10mil|Entries=4|*
%AMTHD56*
7,0,0,0.0994,0.0794,0.0200,45*
%
%ADD56THD56*%
%ADD57C,0.0300*%
D43*
X052720Y021800D02*
Y040450D01*
X053570Y041300D01*
X066320D01*
X067170Y040450D01*
Y021800D02*
Y040450D01*
X066370Y021000D02*
X067170Y021800D01*
X053520Y021000D02*
X066370D01*
X052720Y021800D02*
X053520Y021000D01*
D44*
X052720Y035800D02*
Y036350D01*
X066320Y025700D02*
X067170D01*
X052720Y036350D02*
X063520D01*
X064070Y035800D01*
Y028900D02*
Y035800D01*
X062220Y027050D02*
X064070Y028900D01*
X061270Y027050D02*
X062220D01*
X061270Y025900D02*
Y027050D01*
X060670Y025300D02*
X061270Y025900D01*
X059170Y025300D02*
X060670D01*
X059170Y024000D02*
Y025300D01*
Y024000D02*
X059570Y023600D01*
X064220D01*
X066320Y025700D01*
X059370Y033400D02*
X061270Y031500D01*
X054470Y033400D02*
X059370D01*
X052720Y035150D02*
X054470Y033400D01*
X061270Y027050D02*
Y028800D01*
Y029400D01*
Y031500D01*
D50*
X065269Y024400D02*
D03*
X063699D02*
D03*
X062909D02*
D03*
X062119D02*
D03*
X061332D02*
D03*
X060544D02*
D03*
X064481D02*
D03*
X057494Y022200D02*
D03*
X056706D02*
D03*
X055919D02*
D03*
X061294D02*
D03*
X060506D02*
D03*
X063206D02*
D03*
X063994D02*
D03*
D51*
X066056Y024400D02*
D03*
X058284Y022200D02*
D03*
D52*
X054120Y027200D02*
D03*
D54*
X053920Y022250D02*
D03*
X066020D02*
D03*
X062620Y040300D02*
D03*
X057920D02*
D03*
D55*
X053120Y036800D02*
D03*
D56*
Y039753D02*
D03*
D57*
X053670Y032350D02*
D03*
X063320D02*
D03*
X058620D02*
D03*
X053420Y030800D02*
D03*
X059020Y023450D02*
D03*
X058720D02*
D03*
X058420D02*
D03*
X058120D02*
D03*
X058070Y026400D02*
D03*
Y026138D02*
D03*
X058370Y026400D02*
D03*
X064820Y029350D02*
D03*
X064520D02*
D03*
X062920Y034250D02*
D03*
Y034500D02*
D03*
X063170D02*
D03*
X057020Y028750D02*
D03*
X053977Y031450D02*
D03*
X063320Y026050D02*
D03*
X063020D02*
D03*
X055620Y033650D02*
D03*
X055870D02*
D03*
X056120D02*
D03*
X056370D02*
D03*
X056620D02*
D03*
X055870Y033400D02*
D03*
X056120D02*
D03*
X056370D02*
D03*
X056620D02*
D03*
Y033150D02*
D03*
X056370D02*
D03*
X055870D02*
D03*
X055620D02*
D03*
Y032900D02*
D03*
Y032150D02*
D03*
Y032400D02*
D03*
X055870Y032900D02*
D03*
Y032650D02*
D03*
Y032400D02*
D03*
Y032150D02*
D03*
X056120D02*
D03*
X056370D02*
D03*
X056620D02*
D03*
Y032900D02*
D03*
Y032650D02*
D03*
Y032400D02*
D03*
X056370D02*
D03*
X056120D02*
D03*
Y032650D02*
D03*
X056370Y032900D02*
D03*
Y032650D02*
D03*
X055620D02*
D03*
X056120Y032900D02*
D03*
Y033150D02*
D03*
X055620Y033400D02*
D03*
X060320Y033650D02*
D03*
X060570D02*
D03*
X060820D02*
D03*
X061070D02*
D03*
X061320D02*
D03*
X060570Y033400D02*
D03*
X060820D02*
D03*
X061070D02*
D03*
X061320D02*
D03*
Y033150D02*
D03*
X061070D02*
D03*
X060570D02*
D03*
X060320D02*
D03*
Y032900D02*
D03*
Y032150D02*
D03*
Y032400D02*
D03*
X060570Y032900D02*
D03*
Y032650D02*
D03*
Y032400D02*
D03*
Y032150D02*
D03*
X060820D02*
D03*
X061070D02*
D03*
X061320D02*
D03*
Y032900D02*
D03*
Y032650D02*
D03*
Y032400D02*
D03*
X061070D02*
D03*
X060820D02*
D03*
Y032650D02*
D03*
X061070Y032900D02*
D03*
Y032650D02*
D03*
X060320D02*
D03*
X060820Y032900D02*
D03*
Y033150D02*
D03*
X060320Y033400D02*
D03*
X061670Y029350D02*
D03*
X057220Y030900D02*
D03*
X056970D02*
D03*
X056720D02*
D03*
X057570Y030057D02*
D03*
X055520Y030350D02*
D03*
Y030100D02*
D03*
Y029850D02*
D03*
Y028950D02*
D03*
X056070Y028350D02*
D03*
X054405Y028650D02*
D03*
X054665Y028658D02*
D03*
X057570Y023750D02*
D03*
X058120Y024350D02*
D03*
X058450Y028829D02*
D03*
X058920Y028750D02*
D03*
X058520Y030050D02*
D03*
X060757Y026500D02*
D03*
X063377Y031450D02*
D03*
X058997Y031350D02*
D03*
X065970Y034750D02*
D03*
X065720D02*
D03*
X065470D02*
D03*
X065220D02*
D03*
X064970D02*
D03*
X065970Y034500D02*
D03*
Y034250D02*
D03*
X061270Y034750D02*
D03*
X061020D02*
D03*
X060770D02*
D03*
X060520D02*
D03*
X060270D02*
D03*
X061270Y034500D02*
D03*
Y034250D02*
D03*
X056570D02*
D03*
Y034500D02*
D03*
X055570Y034750D02*
D03*
X055820D02*
D03*
X056070D02*
D03*
X056320D02*
D03*
X056570D02*
D03*
X057693Y031873D02*
D03*
X065020Y033400D02*
D03*
X065520Y033150D02*
D03*
Y032900D02*
D03*
X065020Y032650D02*
D03*
X065770D02*
D03*
Y032900D02*
D03*
X065520Y032650D02*
D03*
Y032400D02*
D03*
X065770D02*
D03*
X066020D02*
D03*
Y032650D02*
D03*
Y032900D02*
D03*
Y032150D02*
D03*
X065770D02*
D03*
X065520D02*
D03*
X065270D02*
D03*
Y032400D02*
D03*
Y032650D02*
D03*
Y032900D02*
D03*
X065020Y032400D02*
D03*
Y032150D02*
D03*
Y032900D02*
D03*
Y033150D02*
D03*
X065270D02*
D03*
X065770D02*
D03*
X066020D02*
D03*
Y033400D02*
D03*
X065770D02*
D03*
X065520D02*
D03*
X065270D02*
D03*
X066020Y033650D02*
D03*
X065770D02*
D03*
X065520D02*
D03*
X065270D02*
D03*
X065020D02*
D03*
X063170Y034250D02*
D03*
X063420D02*
D03*
Y034500D02*
D03*
X058220Y034250D02*
D03*
X058470D02*
D03*
X058720D02*
D03*
Y034500D02*
D03*
X058470D02*
D03*
X058220D02*
D03*
X053520Y034250D02*
D03*
X053770D02*
D03*
X054020D02*
D03*
Y034500D02*
D03*
X053770D02*
D03*
X053520D02*
D03*
X060777Y025550D02*
D03*
X060400Y026157D02*
D03*
X060520Y028465D02*
D03*
X058120Y024050D02*
D03*
X057570Y024350D02*
D03*
Y024050D02*
D03*
X058120Y023750D02*
D03*
X056300Y026378D02*
D03*
X056770Y026200D02*
D03*
X056510D02*
D03*
X056100Y026210D02*
D03*
X054060Y025490D02*
D03*
X055170Y023350D02*
D03*
X056720Y023200D02*
D03*
X057516D02*
D03*
X059020Y024050D02*
D03*
X058720D02*
D03*
X058420D02*
D03*
X058370Y027800D02*
D03*
X058670D02*
D03*
X058980Y027790D02*
D03*
X057870Y028400D02*
D03*
X062220Y031850D02*
D03*
X059320Y026450D02*
D03*
X058870Y028400D02*
D03*
X058370D02*
D03*
X053020Y033350D02*
D03*
X065444Y030950D02*
D03*
X063135Y029565D02*
D03*
X066120Y028750D02*
D03*
X063320D02*
D03*
X064220Y029350D02*
D03*
X063920D02*
D03*
X063620D02*
D03*
X065420Y029050D02*
D03*
X065120D02*
D03*
X064820D02*
D03*
X064520D02*
D03*
X064220D02*
D03*
X063920D02*
D03*
X063620D02*
D03*
X063320D02*
D03*
X063020Y028750D02*
D03*
X063620D02*
D03*
X063920D02*
D03*
Y028450D02*
D03*
X063620D02*
D03*
X063320D02*
D03*
X063020D02*
D03*
X063620Y028150D02*
D03*
X063320D02*
D03*
X063020D02*
D03*
X063920D02*
D03*
Y027850D02*
D03*
X063620D02*
D03*
X063320D02*
D03*
X063020D02*
D03*
X063620Y027550D02*
D03*
X063320D02*
D03*
X063020D02*
D03*
X065720Y028457D02*
D03*
X063020Y026350D02*
D03*
X063320D02*
D03*
X063620Y026364D02*
D03*
X063920Y026650D02*
D03*
X063620D02*
D03*
X063320D02*
D03*
X063020D02*
D03*
Y026950D02*
D03*
X063320D02*
D03*
X063620D02*
D03*
X063920D02*
D03*
X063020Y027250D02*
D03*
X063320D02*
D03*
X063920D02*
D03*
X063620D02*
D03*
X063920Y026350D02*
D03*
Y026050D02*
D03*
X063620D02*
D03*
X059020Y023750D02*
D03*
X058720D02*
D03*
X058420D02*
D03*
X062747Y036200D02*
D03*
X053347D02*
D03*
X064096Y035400D02*
D03*
X059395D02*
D03*
X058047Y036200D02*
D03*
X065323Y029947D02*
D03*
X065717D02*
D03*
X065323Y029553D02*
D03*
X065717D02*
D03*
X054676Y035400D02*
D03*
X061320Y023000D02*
D03*
X054170Y040500D02*
D03*
Y040800D02*
D03*
X058870D02*
D03*
Y040500D02*
D03*
X063570Y040800D02*
D03*
Y040500D02*
D03*
X055457Y040800D02*
D03*
Y040500D02*
D03*
X060157Y040800D02*
D03*
Y040500D02*
D03*
X064857Y040800D02*
D03*
Y040500D02*
D03*
X062420Y036750D02*
D03*
X062670D02*
D03*
X062420Y036500D02*
D03*
X062670D02*
D03*
X057970D02*
D03*
X057720D02*
D03*
X057970Y036750D02*
D03*
X057720D02*
D03*
Y037000D02*
D03*
X057970D02*
D03*
X057720Y037250D02*
D03*
X057970D02*
D03*
X053420Y029900D02*
D03*
Y028820D02*
D03*
Y025450D02*
D03*
X066070Y025250D02*
D03*
X059420Y022100D02*
D03*
X059670Y030450D02*
D03*
X061020Y028327D02*
D03*
X061372Y028844D02*
D03*
X061405Y028306D02*
D03*
X053620Y023350D02*
D03*
M02*
