G04 Layer_Physical_Order=1*
G04 Layer_Color=255*
%FSAX24Y24*%
%MOIN*%
G70*
G01*
G75*
%ADD10R,0.0256X0.0217*%
%ADD11R,0.0217X0.0256*%
%ADD12R,0.0205X0.0205*%
%ADD13R,0.0205X0.0205*%
%ADD14R,0.0276X0.0354*%
%ADD15R,0.0354X0.0394*%
%ADD16R,0.0750X0.0750*%
%ADD17R,0.0750X0.0710*%
%ADD18R,0.0560X0.0140*%
%ADD19R,0.0669X0.0433*%
%ADD20R,0.0512X0.0276*%
%ADD21R,0.0335X0.0433*%
%ADD22R,0.0433X0.0669*%
%ADD23R,0.0433X0.0335*%
%ADD24R,0.0276X0.0512*%
%ADD25R,0.0560X0.0480*%
%ADD26R,0.0177X0.0217*%
%ADD27R,0.0217X0.0177*%
%ADD28R,0.0315X0.0819*%
%ADD29R,0.0276X0.0118*%
%ADD30R,0.0118X0.0315*%
%ADD31R,0.1331X0.0965*%
%ADD32R,0.0532X0.2087*%
%ADD33R,0.0394X0.0354*%
%ADD34R,0.1280X0.1230*%
%ADD35R,0.0681X0.0728*%
%ADD36O,0.0610X0.0177*%
G04:AMPARAMS|DCode=37|XSize=82.7mil|YSize=228.3mil|CornerRadius=41.3mil|HoleSize=0mil|Usage=FLASHONLY|Rotation=270.000|XOffset=0mil|YOffset=0mil|HoleType=Round|Shape=RoundedRectangle|*
%AMROUNDEDRECTD37*
21,1,0.0827,0.1457,0,0,270.0*
21,1,0.0000,0.2283,0,0,270.0*
1,1,0.0827,-0.0728,0.0000*
1,1,0.0827,-0.0728,0.0000*
1,1,0.0827,0.0728,0.0000*
1,1,0.0827,0.0728,0.0000*
%
%ADD37ROUNDEDRECTD37*%
%ADD38R,0.1024X0.0374*%
%ADD39R,0.0374X0.1024*%
%ADD40C,0.0150*%
%ADD41C,0.0120*%
%ADD42C,0.0100*%
%ADD43C,0.0400*%
%ADD44C,0.0200*%
%ADD45C,0.0630*%
%ADD46C,0.0787*%
%ADD47C,0.1220*%
%ADD48O,0.0472X0.0787*%
%ADD49C,0.0200*%
G36*
X063412Y032909D02*
X063412D01*
Y032891D01*
X063412D01*
Y032554D01*
X063788D01*
Y032600D01*
X064518D01*
Y032100D01*
X064523Y032075D01*
X064519Y032061D01*
X064494Y032025D01*
X064219D01*
Y031432D01*
X065048D01*
Y031432D01*
X065085D01*
Y031432D01*
X065141D01*
X065143Y031383D01*
X065092Y031372D01*
X065049Y031344D01*
X064901Y031196D01*
X064750D01*
X064732Y031196D01*
X064732Y031196D01*
X064702Y031190D01*
Y031190D01*
X064338D01*
Y031190D01*
X064308Y031196D01*
X064308Y031196D01*
X064290Y031196D01*
X063932D01*
Y030941D01*
X063920Y030932D01*
X061320D01*
X061289Y030925D01*
X061262Y030908D01*
X061245Y030881D01*
X061238Y030850D01*
Y030450D01*
X061035D01*
X061019Y030500D01*
X061050Y030520D01*
X061089Y030580D01*
X061103Y030650D01*
X061089Y030720D01*
X061050Y030780D01*
Y030820D01*
X061089Y030880D01*
X061103Y030950D01*
X061089Y031020D01*
X061065Y031057D01*
X061091Y031107D01*
X062286D01*
X062337Y031118D01*
X062380Y031146D01*
X063106Y031873D01*
X063135Y031916D01*
X063145Y031966D01*
Y033150D01*
X063412D01*
Y032909D01*
D02*
G37*
G36*
X057542Y030892D02*
X057522Y030842D01*
X057270D01*
Y030698D01*
X056170D01*
Y030842D01*
X055656D01*
Y030840D01*
X055338D01*
Y030545D01*
X055318D01*
Y030355D01*
X055271Y030336D01*
X054858Y030750D01*
X054830Y030768D01*
Y031017D01*
X057417D01*
X057542Y030892D01*
D02*
G37*
G36*
X066820Y030850D02*
X066420D01*
X066320Y030750D01*
Y030050D01*
X066120D01*
X065820Y030350D01*
Y031150D01*
X066020Y031350D01*
X066820D01*
Y030850D01*
D02*
G37*
G36*
X057560Y031998D02*
X057523Y031943D01*
X057509Y031873D01*
X057523Y031803D01*
X057563Y031743D01*
X057623Y031703D01*
X057693Y031689D01*
X057763Y031703D01*
X057815Y031738D01*
X057844Y031729D01*
X057865Y031717D01*
Y031236D01*
X057819Y031217D01*
X057632Y031404D01*
X057589Y031432D01*
X057538Y031443D01*
X057381D01*
Y031497D01*
X057395Y031519D01*
X057401Y031550D01*
Y033150D01*
X057560D01*
Y031998D01*
D02*
G37*
G36*
X061700Y032100D02*
X059900D01*
X059900Y034050D01*
X061700D01*
X061700Y032100D01*
D02*
G37*
G36*
X057000D02*
X055200D01*
X055200Y034050D01*
X057000D01*
X057000Y032100D01*
D02*
G37*
G36*
X055118D02*
X055123Y032075D01*
X055119Y032061D01*
X055094Y032025D01*
X054819D01*
Y031443D01*
X054741D01*
X054312Y031871D01*
Y032391D01*
X054302Y032441D01*
X054274Y032484D01*
X054250Y032508D01*
X054269Y032554D01*
X054388D01*
Y032590D01*
X055118D01*
Y032100D01*
D02*
G37*
G36*
X057370Y024850D02*
X057370Y023550D01*
X054520Y023550D01*
X054220Y023850D01*
X054220Y024850D01*
X057370Y024850D01*
D02*
G37*
G36*
X055620Y030250D02*
X055720Y030150D01*
X055813D01*
Y030232D01*
X055722D01*
Y030288D01*
X056170D01*
Y030432D01*
X057142D01*
X057161Y030386D01*
X056926Y030152D01*
X056897Y030109D01*
X056887Y030058D01*
Y028876D01*
X056850Y028820D01*
X056836Y028750D01*
X056842Y028723D01*
X056801Y028673D01*
X056493D01*
X056170Y028995D01*
Y029342D01*
X055975D01*
X055950Y029380D01*
X055890Y029420D01*
X055820Y029434D01*
X055750Y029420D01*
X055690Y029380D01*
X055665Y029342D01*
X055656D01*
Y029328D01*
X055650Y029320D01*
X055636Y029250D01*
X055650Y029180D01*
X055656Y029172D01*
Y028889D01*
X055434D01*
Y029027D01*
X055508D01*
Y029364D01*
X055508D01*
Y029381D01*
X055508D01*
Y029719D01*
X055440D01*
Y029750D01*
X055420D01*
Y030450D01*
X055620D01*
Y030250D01*
D02*
G37*
G36*
X066920Y026350D02*
X065620D01*
X065620Y027850D01*
X066320Y028550D01*
X066920Y028550D01*
Y026350D01*
D02*
G37*
G36*
X064020Y027350D02*
X064020Y025950D01*
X061320D01*
Y027350D01*
X064020Y027350D01*
D02*
G37*
G36*
X056620Y025850D02*
Y025250D01*
X057070D01*
Y024950D01*
X054220D01*
X054220Y025850D01*
X054420Y026050D01*
X056420D01*
X056620Y025850D01*
D02*
G37*
G36*
X059520Y025650D02*
X060120Y025050D01*
X060120Y023750D01*
X059620D01*
Y024550D01*
X058520D01*
Y024950D01*
X058120Y025350D01*
X057570D01*
Y025650D01*
X059520Y025650D01*
D02*
G37*
G36*
X063920Y030150D02*
X063120D01*
X062520Y029550D01*
X061320D01*
Y030850D01*
X063920D01*
Y030150D01*
D02*
G37*
G36*
X057250Y030035D02*
X057527D01*
Y029935D01*
X057627D01*
Y029638D01*
X057737D01*
Y029342D01*
X057270D01*
Y028995D01*
X057199Y028924D01*
X057152Y028943D01*
Y030003D01*
X057204Y030054D01*
X057250Y030035D01*
D02*
G37*
G36*
X066400Y032100D02*
X064600D01*
X064600Y034050D01*
X066400D01*
X066400Y032100D01*
D02*
G37*
G36*
X054662Y041138D02*
X054606Y041114D01*
X054601Y041110D01*
X054594Y041108D01*
X054529Y041065D01*
X054525Y041059D01*
X054519Y041057D01*
X054463Y041001D01*
X054461Y040995D01*
X054455Y040991D01*
X054411Y040926D01*
X054410Y040919D01*
X054405Y040914D01*
X054375Y040842D01*
X054335Y040840D01*
X054325Y040842D01*
X054321Y040862D01*
X054285Y040915D01*
X054232Y040951D01*
X054170Y040963D01*
X054107Y040951D01*
X054055Y040915D01*
X054019Y040862D01*
X054007Y040800D01*
X054019Y040738D01*
X054055Y040685D01*
X054069Y040675D01*
Y040625D01*
X054055Y040615D01*
X054019Y040562D01*
X054007Y040500D01*
X054019Y040438D01*
X054055Y040385D01*
X054107Y040349D01*
X054170Y040337D01*
X054232Y040349D01*
X054285Y040385D01*
X054305Y040414D01*
X054355Y040399D01*
X054355Y039300D01*
X054355Y039300D01*
X054355Y038980D01*
X054374Y038934D01*
X054835Y038473D01*
Y038338D01*
X054470D01*
X054470Y038338D01*
X054417Y038327D01*
X054373Y038297D01*
X054173Y038097D01*
X054143Y038053D01*
X054132Y038000D01*
Y036690D01*
X054091Y036649D01*
X054070Y036658D01*
Y036628D01*
X053892Y036450D01*
X053465Y036450D01*
Y037097D01*
X053412Y037150D01*
Y037146D01*
X053362Y037129D01*
X053331Y037169D01*
X053269Y037216D01*
X053197Y037246D01*
X053120Y037256D01*
X053043Y037246D01*
X052971Y037216D01*
X052909Y037169D01*
X052882Y037134D01*
X052832Y037151D01*
Y039340D01*
X052864Y039351D01*
X052882Y039354D01*
X052950Y039302D01*
X053020Y039273D01*
Y039753D01*
Y040233D01*
X052950Y040204D01*
X052882Y040152D01*
X052864Y040154D01*
X052832Y040165D01*
Y040404D01*
X053616Y041188D01*
X054652D01*
X054662Y041138D01*
D02*
G37*
G36*
X053165Y033047D02*
X053175Y032996D01*
X053204Y032953D01*
X053681Y032476D01*
X053662Y032430D01*
X053520D01*
Y031975D01*
X053420D01*
Y031875D01*
X052945D01*
Y031520D01*
X053453D01*
X053485Y031481D01*
X053479Y031450D01*
X053484Y031425D01*
X053443Y031375D01*
X052945D01*
Y031000D01*
X053420D01*
X053895D01*
Y031375D01*
X053882D01*
X053841Y031425D01*
X053846Y031450D01*
X053840Y031481D01*
X053871Y031520D01*
X053895D01*
Y031617D01*
X053945Y031638D01*
X054474Y031108D01*
X054455Y031062D01*
X054110D01*
Y030762D01*
Y030506D01*
Y030050D01*
X054090D01*
Y029980D01*
X054470D01*
Y029880D01*
X054570D01*
Y029710D01*
X054732D01*
Y029381D01*
X054732D01*
Y029364D01*
X054732D01*
Y029161D01*
X054693Y029129D01*
X054670Y029134D01*
X054600Y029120D01*
X054540Y029080D01*
X054500Y029020D01*
X054486Y028950D01*
X054500Y028880D01*
X054520Y028850D01*
X054484Y028814D01*
X054476Y028820D01*
X054405Y028834D01*
X054335Y028820D01*
X054299Y028796D01*
X054263Y028784D01*
X054226Y028796D01*
X054190Y028820D01*
X054120Y028834D01*
X054050Y028820D01*
X053990Y028780D01*
X053950Y028720D01*
X053945Y028693D01*
X053895Y028698D01*
Y028720D01*
X053520D01*
Y028365D01*
X053895D01*
Y028602D01*
X053945Y028607D01*
X053950Y028580D01*
X053990Y028520D01*
X054050Y028480D01*
X054120Y028466D01*
X054190Y028480D01*
X054223Y028502D01*
X054273Y028476D01*
Y028275D01*
X054283Y028224D01*
X054312Y028181D01*
X056062Y026431D01*
X056047Y026383D01*
X056030Y026380D01*
X055974Y026343D01*
X054424D01*
X054374Y026332D01*
X054331Y026304D01*
X053966Y025939D01*
X053937Y025896D01*
X053927Y025846D01*
Y025829D01*
X053900Y025790D01*
X053620D01*
Y025450D01*
Y025110D01*
X053900D01*
Y025322D01*
X053950Y025347D01*
X053990Y025320D01*
X054060Y025306D01*
X054088Y025312D01*
X054138Y025271D01*
Y024950D01*
X054145Y024919D01*
X054157Y024900D01*
X054145Y024881D01*
X054138Y024850D01*
X054138Y023850D01*
X054145Y023819D01*
X054162Y023792D01*
X054422Y023533D01*
X054401Y023483D01*
X053866D01*
Y023838D01*
X053830D01*
Y023939D01*
X053880D01*
Y024579D01*
X053160D01*
Y023939D01*
X053565D01*
Y023872D01*
X053528Y023838D01*
X053511D01*
Y023838D01*
X053478Y023838D01*
X053174D01*
Y023722D01*
X053173Y023720D01*
X053159Y023650D01*
X053173Y023580D01*
X053174Y023578D01*
Y023462D01*
X053423D01*
X053449Y023412D01*
X053436Y023350D01*
X053450Y023280D01*
X053490Y023220D01*
X053550Y023180D01*
X053620Y023166D01*
X053690Y023180D01*
X053746Y023217D01*
X055044D01*
X055100Y023180D01*
X055170Y023166D01*
X055240Y023180D01*
X055300Y023220D01*
X055339Y023280D01*
X055353Y023350D01*
X055340Y023418D01*
X055339Y023427D01*
X055366Y023468D01*
X057370Y023468D01*
X057401Y023475D01*
X057428Y023492D01*
X057445Y023519D01*
X057451Y023550D01*
X057451Y024850D01*
Y024986D01*
X057470Y025023D01*
X057470Y025050D01*
X057670Y025250D01*
X057947D01*
Y025268D01*
X058086D01*
X058428Y024926D01*
Y024785D01*
X058438D01*
Y024550D01*
X058445Y024519D01*
X058462Y024492D01*
X058489Y024475D01*
X058520Y024468D01*
X059489D01*
X059536Y024450D01*
X059538Y024440D01*
Y024237D01*
X059520D01*
X059520Y023663D01*
X059632D01*
Y023668D01*
X059710D01*
X059720Y023666D01*
X059730Y023668D01*
X060010D01*
X060020Y023666D01*
X060030Y023668D01*
X060120D01*
X060151Y023675D01*
X060178Y023692D01*
X060195Y023719D01*
X060201Y023750D01*
Y023840D01*
X060203Y023850D01*
X060201Y023860D01*
X060201Y024083D01*
X060237Y024099D01*
X060251Y024101D01*
X060335Y024037D01*
X060436Y023996D01*
X060444Y023995D01*
Y024400D01*
Y024805D01*
X060436Y024804D01*
X060335Y024762D01*
X060276Y024717D01*
X060215Y024727D01*
X060202Y024745D01*
X060203Y024750D01*
X060201Y024760D01*
X060201Y025040D01*
X060203Y025050D01*
X060189Y025120D01*
X060150Y025180D01*
X060090Y025220D01*
X060060Y025226D01*
X059578Y025708D01*
X059578Y025708D01*
X059551Y025725D01*
X059528Y025730D01*
X059528Y025841D01*
X059528Y025891D01*
Y026235D01*
X059452D01*
Y026324D01*
X059489Y026380D01*
X059503Y026450D01*
X059489Y026520D01*
X059450Y026580D01*
X059390Y026620D01*
X059320Y026634D01*
X059250Y026620D01*
X059190Y026580D01*
X059150Y026520D01*
X059136Y026450D01*
X059150Y026380D01*
X059187Y026324D01*
Y026235D01*
X059112D01*
X059108Y026258D01*
X058734D01*
Y026278D01*
X058626D01*
Y026050D01*
X058426D01*
Y026278D01*
X058322D01*
X058318Y026278D01*
X058272Y026288D01*
Y026340D01*
X058220D01*
Y026032D01*
X057988Y026032D01*
X057770Y026250D01*
X057540Y026250D01*
X057420Y026130D01*
X057420Y025880D01*
X057220D01*
Y026330D01*
Y026500D01*
X058220D01*
Y026602D01*
X057125D01*
Y026582D01*
X056830D01*
X056830Y026582D01*
Y026582D01*
X056795Y026613D01*
X055434Y027973D01*
Y028177D01*
X055656D01*
Y028158D01*
X056170D01*
Y028200D01*
X056173Y028202D01*
X057270D01*
Y028158D01*
X057784D01*
Y028185D01*
X057834Y028224D01*
X057870Y028216D01*
X057897Y028222D01*
X057947Y028181D01*
Y028090D01*
X057957Y028039D01*
X057986Y027996D01*
X058187Y027795D01*
X058200Y027730D01*
X058240Y027670D01*
X058300Y027630D01*
X058370Y027616D01*
X058440Y027630D01*
X058500Y027670D01*
X058540D01*
X058600Y027630D01*
X058670Y027616D01*
X058740Y027630D01*
X058800Y027670D01*
X058829D01*
X058852Y027659D01*
X058909Y027621D01*
X058980Y027607D01*
X059050Y027621D01*
X059109Y027661D01*
X059149Y027720D01*
X059162Y027785D01*
X059384Y028007D01*
X059412Y028050D01*
X059422Y028101D01*
Y030639D01*
X059891Y031107D01*
X060749D01*
X060775Y031057D01*
X060750Y031020D01*
X060736Y030950D01*
X060750Y030880D01*
X060790Y030820D01*
Y030780D01*
X060750Y030720D01*
X060736Y030650D01*
X060750Y030580D01*
X060790Y030520D01*
X060820Y030500D01*
X060805Y030450D01*
X060020D01*
Y026400D01*
X061203Y026415D01*
X061238Y026379D01*
Y025950D01*
X061245Y025919D01*
X061262Y025892D01*
X061289Y025875D01*
X061320Y025868D01*
X063010D01*
X063020Y025866D01*
X063030Y025868D01*
X063310D01*
X063320Y025866D01*
X063330Y025868D01*
X063610D01*
X063620Y025866D01*
X063630Y025868D01*
X063910D01*
X063920Y025866D01*
X063930Y025868D01*
X064020D01*
X064051Y025875D01*
X064078Y025892D01*
X064095Y025919D01*
X064101Y025950D01*
Y026040D01*
X064103Y026050D01*
X064101Y026060D01*
X064101Y026340D01*
X064103Y026350D01*
X064101Y026360D01*
Y026640D01*
X064103Y026650D01*
X064101Y026660D01*
Y026940D01*
X064103Y026950D01*
X064101Y026960D01*
X064101Y027240D01*
X064103Y027250D01*
X064101Y027260D01*
Y027350D01*
X064095Y027381D01*
X064078Y027408D01*
X064070Y027413D01*
Y027450D01*
X062920Y027450D01*
X062920Y029050D01*
X063320Y029450D01*
X064070D01*
Y029490D01*
X064250D01*
X064262Y029466D01*
X064377D01*
X064381Y029463D01*
X064447Y029450D01*
X064664D01*
Y029450D01*
X065420D01*
Y029750D01*
Y030214D01*
X065079D01*
X065079Y030214D01*
X065029Y030214D01*
X065002Y030255D01*
X064946Y030293D01*
X064880Y030306D01*
X064679D01*
X064652Y030332D01*
Y030510D01*
X064702Y030510D01*
X064732Y030504D01*
Y030504D01*
X064750Y030504D01*
X065108D01*
Y030841D01*
X065108D01*
Y030859D01*
X065108D01*
Y031028D01*
X065157Y031076D01*
X065207Y031056D01*
Y031050D01*
X065444D01*
X065682D01*
Y031117D01*
X065738D01*
Y030350D01*
X065738Y030350D01*
X065745Y030319D01*
X065762Y030292D01*
X065794Y030260D01*
X065775Y030214D01*
X065620D01*
Y029750D01*
Y029286D01*
X065960D01*
X065960Y029286D01*
X066010Y029286D01*
X066038Y029245D01*
X066041Y029218D01*
X065626Y028804D01*
X065597Y028761D01*
X065587Y028710D01*
Y028583D01*
X065550Y028528D01*
X065536Y028457D01*
X065550Y028387D01*
X065590Y028328D01*
X065650Y028288D01*
X065720Y028274D01*
X065790Y028288D01*
X065850Y028328D01*
X065889Y028387D01*
X065903Y028457D01*
X065889Y028528D01*
X065852Y028583D01*
Y028655D01*
X065901Y028703D01*
X065949Y028689D01*
X065950Y028680D01*
X065990Y028620D01*
X066050Y028580D01*
X066120Y028566D01*
X066158Y028574D01*
X066182Y028528D01*
X065562Y027908D01*
X065545Y027881D01*
X065538Y027850D01*
X065538Y027850D01*
X065538Y026350D01*
X065545Y026319D01*
X065562Y026292D01*
X065589Y026275D01*
X065620Y026268D01*
X066920D01*
X066951Y026275D01*
X066978Y026292D01*
X066995Y026319D01*
X067001Y026350D01*
Y028550D01*
X066995Y028581D01*
X066978Y028608D01*
X066951Y028625D01*
X066920Y028632D01*
X066730D01*
X066720Y028634D01*
X066710Y028632D01*
X066460Y028632D01*
X066439Y028682D01*
X066930Y029173D01*
X066959Y029216D01*
X066969Y029266D01*
Y029434D01*
X066959Y029484D01*
X066930Y029527D01*
X066742Y029715D01*
X066742Y029716D01*
X066738Y029721D01*
X066731Y029750D01*
X066738Y029779D01*
X066742Y029784D01*
X066742Y029785D01*
X066914Y029956D01*
X066942Y029999D01*
X066952Y030050D01*
Y030350D01*
X066942Y030401D01*
X066914Y030444D01*
X066897Y030461D01*
Y030807D01*
X066897Y030807D01*
X066901Y030850D01*
Y031202D01*
X067008Y031308D01*
X067016Y031308D01*
X067058Y031292D01*
Y021846D01*
X066323Y021112D01*
X053566D01*
X052832Y021846D01*
Y033150D01*
X053165D01*
Y033047D01*
D02*
G37*
G36*
X061020Y041100D02*
X061059Y041100D01*
X061137Y041085D01*
X061209Y041054D01*
X061275Y041011D01*
X061331Y040955D01*
X061374Y040889D01*
X061405Y040817D01*
X061420Y040739D01*
Y040700D01*
X061420Y039300D01*
X061420D01*
X061420Y036600D01*
X062000Y036020D01*
X062000Y035150D01*
X062020D01*
Y031550D01*
X061820Y031550D01*
Y035000D01*
X059600D01*
X059600Y038500D01*
X059120Y038980D01*
X059120Y039300D01*
X060960Y039300D01*
X059120D01*
X059120Y040700D01*
D01*
Y040700D01*
Y040700D01*
X059120Y040739D01*
X059135Y040817D01*
X059165Y040889D01*
X059209Y040955D01*
X059265Y041011D01*
X059330Y041054D01*
X059403Y041085D01*
X059481Y041100D01*
X059520Y041100D01*
X061020Y041100D01*
X061020Y041100D01*
D02*
G37*
G36*
X059362Y041138D02*
X059306Y041114D01*
X059301Y041110D01*
X059294Y041108D01*
X059229Y041065D01*
X059225Y041059D01*
X059219Y041057D01*
X059163Y041001D01*
X059161Y040995D01*
X059155Y040991D01*
X059111Y040926D01*
X059110Y040919D01*
X059105Y040914D01*
X059075Y040842D01*
X059035Y040840D01*
X059025Y040842D01*
X059021Y040862D01*
X058985Y040915D01*
X058932Y040951D01*
X058870Y040963D01*
X058807Y040951D01*
X058755Y040915D01*
X058719Y040862D01*
X058707Y040800D01*
X058719Y040738D01*
X058755Y040685D01*
X058769Y040675D01*
Y040625D01*
X058755Y040615D01*
X058719Y040562D01*
X058707Y040500D01*
X058719Y040438D01*
X058755Y040385D01*
X058807Y040349D01*
X058870Y040337D01*
X058932Y040349D01*
X058985Y040385D01*
X059005Y040414D01*
X059055Y040399D01*
X059055Y039300D01*
X059055Y039300D01*
X059055Y038980D01*
X059074Y038934D01*
X059535Y038473D01*
Y038338D01*
X059170D01*
X059170Y038338D01*
X059117Y038327D01*
X059073Y038297D01*
X058873Y038097D01*
X058843Y038053D01*
X058832Y038000D01*
Y036690D01*
X058820Y036678D01*
Y036678D01*
X058642Y036500D01*
X058170Y036500D01*
Y037415D01*
X058112D01*
Y037408D01*
X058062Y037381D01*
X058032Y037401D01*
X057970Y037413D01*
X057907Y037401D01*
X057883Y037384D01*
X057845Y037369D01*
X057807Y037384D01*
X057782Y037401D01*
X057720Y037413D01*
X057657Y037401D01*
X057638Y037388D01*
X057588Y037415D01*
X057520D01*
Y036388D01*
X057544Y036368D01*
Y036032D01*
X057581D01*
Y035968D01*
X057544D01*
Y035632D01*
X057581D01*
Y035200D01*
X057365D01*
X057365Y036020D01*
X057346Y036066D01*
X057059Y036353D01*
X057061Y036359D01*
X056920Y036500D01*
Y036507D01*
X056909Y036503D01*
X056785Y036627D01*
X056785Y039300D01*
X056785Y039300D01*
X056785Y040739D01*
X056782Y040746D01*
X056784Y040752D01*
X056768Y040829D01*
X056765Y040835D01*
Y040842D01*
X056734Y040914D01*
X056730Y040919D01*
X056728Y040926D01*
X056685Y040991D01*
X056679Y040995D01*
X056677Y041001D01*
X056621Y041057D01*
X056615Y041059D01*
X056611Y041065D01*
X056545Y041108D01*
X056539Y041110D01*
X056534Y041114D01*
X056478Y041138D01*
X056488Y041188D01*
X059352D01*
X059362Y041138D01*
D02*
G37*
G36*
X064062D02*
X064006Y041114D01*
X064001Y041110D01*
X063994Y041108D01*
X063929Y041065D01*
X063925Y041059D01*
X063919Y041057D01*
X063863Y041001D01*
X063861Y040995D01*
X063855Y040991D01*
X063811Y040926D01*
X063810Y040919D01*
X063805Y040914D01*
X063775Y040842D01*
X063735Y040840D01*
X063725Y040842D01*
X063721Y040862D01*
X063685Y040915D01*
X063632Y040951D01*
X063570Y040963D01*
X063507Y040951D01*
X063455Y040915D01*
X063419Y040862D01*
X063407Y040800D01*
X063419Y040738D01*
X063455Y040685D01*
X063469Y040675D01*
Y040625D01*
X063455Y040615D01*
X063419Y040562D01*
X063407Y040500D01*
X063419Y040438D01*
X063455Y040385D01*
X063507Y040349D01*
X063570Y040337D01*
X063632Y040349D01*
X063685Y040385D01*
X063705Y040414D01*
X063755Y040399D01*
X063755Y039300D01*
X063755Y039300D01*
X063755Y038980D01*
X063774Y038934D01*
X064235Y038473D01*
Y038338D01*
X063870D01*
X063870Y038338D01*
X063817Y038327D01*
X063773Y038297D01*
X063573Y038097D01*
X063543Y038053D01*
X063532Y038000D01*
Y036690D01*
X063520Y036678D01*
Y036678D01*
X063342Y036500D01*
X062870Y036500D01*
Y036915D01*
X062812D01*
Y036908D01*
X062762Y036881D01*
X062732Y036901D01*
X062670Y036913D01*
X062607Y036901D01*
X062583Y036884D01*
X062545Y036869D01*
X062507Y036884D01*
X062482Y036901D01*
X062420Y036913D01*
X062357Y036901D01*
X062338Y036888D01*
X062288Y036915D01*
X062220D01*
Y036388D01*
X062244Y036368D01*
Y036032D01*
X062281D01*
Y035968D01*
X062244D01*
Y035632D01*
X062281D01*
Y035200D01*
X062065D01*
X062065Y036020D01*
X062046Y036066D01*
X061759Y036353D01*
X061761Y036359D01*
X061620Y036500D01*
Y036507D01*
X061609Y036503D01*
X061485Y036627D01*
X061485Y039300D01*
X061485Y039300D01*
X061485Y040739D01*
X061482Y040746D01*
X061484Y040752D01*
X061468Y040829D01*
X061465Y040835D01*
Y040842D01*
X061434Y040914D01*
X061430Y040919D01*
X061428Y040926D01*
X061385Y040991D01*
X061379Y040995D01*
X061377Y041001D01*
X061321Y041057D01*
X061315Y041059D01*
X061311Y041065D01*
X061245Y041108D01*
X061239Y041110D01*
X061234Y041114D01*
X061178Y041138D01*
X061188Y041188D01*
X064052D01*
X064062Y041138D01*
D02*
G37*
G36*
X056320Y041100D02*
X056359Y041100D01*
X056437Y041085D01*
X056509Y041054D01*
X056575Y041011D01*
X056631Y040955D01*
X056674Y040889D01*
X056705Y040817D01*
X056720Y040739D01*
Y040700D01*
X056720Y039300D01*
X056720D01*
X056720Y036600D01*
X057300Y036020D01*
X057300Y035150D01*
X057320D01*
Y031550D01*
X057120Y031550D01*
Y035000D01*
X054900D01*
X054900Y038500D01*
X054420Y038980D01*
X054420Y039300D01*
X054880Y039300D01*
X054420D01*
X054420Y040700D01*
D01*
Y040700D01*
Y040700D01*
X054420Y040739D01*
X054435Y040817D01*
X054465Y040889D01*
X054509Y040955D01*
X054565Y041011D01*
X054630Y041054D01*
X054703Y041085D01*
X054781Y041100D01*
X054820Y041100D01*
X056320Y041100D01*
X056320Y041100D01*
D02*
G37*
G36*
X065720D02*
X065759Y041100D01*
X065837Y041085D01*
X065909Y041054D01*
X065975Y041011D01*
X066031Y040955D01*
X066074Y040889D01*
X066105Y040817D01*
X066120Y040739D01*
Y040700D01*
X066120Y039300D01*
X066120D01*
X066120Y036600D01*
X066700Y036020D01*
X066700Y035150D01*
X066720D01*
Y031550D01*
X066520Y031550D01*
Y035000D01*
X064300D01*
X064300Y038500D01*
X063820Y038980D01*
X063820Y039300D01*
X065660Y039300D01*
X063820D01*
X063820Y040700D01*
D01*
Y040700D01*
Y040700D01*
X063820Y040739D01*
X063835Y040817D01*
X063865Y040889D01*
X063909Y040955D01*
X063965Y041011D01*
X064030Y041054D01*
X064103Y041085D01*
X064181Y041100D01*
X064220Y041100D01*
X065720Y041100D01*
X065720Y041100D01*
D02*
G37*
G36*
X054420Y034850D02*
X054120D01*
Y035150D01*
X054020Y035250D01*
Y035550D01*
X054420D01*
Y034850D01*
D02*
G37*
G36*
X058712Y032974D02*
Y032912D01*
X058712Y032908D01*
X058701Y032863D01*
X058659Y032855D01*
X058616Y032826D01*
X058606Y032817D01*
X058578Y032774D01*
X058567Y032723D01*
X058578Y032672D01*
X058606Y032629D01*
X058649Y032600D01*
X058700Y032590D01*
X058712Y032581D01*
Y032554D01*
X059088D01*
Y032600D01*
X059818D01*
Y032100D01*
X059823Y032075D01*
X059819Y032061D01*
X059794Y032025D01*
X059519D01*
Y031432D01*
X059549D01*
X059568Y031386D01*
X059124Y030942D01*
X059085Y030974D01*
X059089Y030980D01*
X059103Y031050D01*
X059095Y031092D01*
X059131Y031142D01*
X059186D01*
Y031250D01*
X058997D01*
Y031450D01*
X059186D01*
Y031522D01*
X059220Y031566D01*
X059231Y031569D01*
X059290Y031580D01*
X059350Y031620D01*
X059389Y031680D01*
X059403Y031750D01*
X059389Y031820D01*
X059350Y031880D01*
X059290Y031920D01*
X059220Y031934D01*
X059181Y031926D01*
X059166Y031938D01*
Y031938D01*
X058861D01*
X058829Y031938D01*
X058779Y031938D01*
X058474D01*
X058445Y031976D01*
Y032886D01*
X058495Y032927D01*
X058522Y032921D01*
X058593Y032935D01*
X058652Y032975D01*
X058662Y032989D01*
X058712Y032974D01*
D02*
G37*
G36*
X063820Y034850D02*
X063520D01*
Y035150D01*
X063420Y035250D01*
Y035550D01*
X063820D01*
Y034850D01*
D02*
G37*
G36*
X067058Y040404D02*
Y035200D01*
X066765D01*
X066765Y036020D01*
X066746Y036066D01*
X066459Y036353D01*
X066461Y036359D01*
X066320Y036500D01*
Y036507D01*
X066309Y036503D01*
X066185Y036627D01*
X066185Y039300D01*
X066185Y039300D01*
X066185Y040739D01*
X066182Y040746D01*
X066184Y040752D01*
X066168Y040829D01*
X066165Y040835D01*
Y040842D01*
X066134Y040914D01*
X066130Y040919D01*
X066128Y040926D01*
X066085Y040991D01*
X066079Y040995D01*
X066077Y041001D01*
X066021Y041057D01*
X066015Y041059D01*
X066011Y041065D01*
X065945Y041108D01*
X065939Y041110D01*
X065934Y041114D01*
X065878Y041138D01*
X065888Y041188D01*
X066273D01*
X067058Y040404D01*
D02*
G37*
G36*
X059120Y034850D02*
X058820D01*
Y035150D01*
X058720Y035250D01*
Y035550D01*
X059120D01*
Y034850D01*
D02*
G37*
%LPC*%
G36*
X056190Y030232D02*
X056013D01*
Y030150D01*
X056070D01*
Y030035D01*
X056190D01*
Y030232D01*
D02*
G37*
G36*
Y029835D02*
X056070D01*
Y029750D01*
X056013D01*
Y029638D01*
X056190D01*
Y029835D01*
D02*
G37*
G36*
X055813Y029750D02*
X055636D01*
Y029638D01*
X055813D01*
Y029750D01*
D02*
G37*
G36*
X057427Y029835D02*
X057250D01*
Y029638D01*
X057427D01*
Y029835D01*
D02*
G37*
G36*
X053220Y040233D02*
Y039853D01*
X053459D01*
Y039910D01*
X053447Y039998D01*
X053414Y040080D01*
X053360Y040150D01*
X053289Y040204D01*
X053220Y040233D01*
D02*
G37*
G36*
X053459Y039653D02*
X053220D01*
Y039273D01*
X053289Y039302D01*
X053360Y039355D01*
X053414Y039426D01*
X053447Y039508D01*
X053459Y039595D01*
Y039653D01*
D02*
G37*
G36*
X060644Y024805D02*
Y024400D01*
Y023995D01*
X060652Y023996D01*
X060753Y024037D01*
X060840Y024104D01*
X060907Y024191D01*
X060922Y024227D01*
X060976D01*
X060986Y024201D01*
X061050Y024118D01*
X061132Y024055D01*
X061228Y024015D01*
X061332Y024002D01*
X061435Y024015D01*
X061531Y024055D01*
X061613Y024118D01*
X061677Y024201D01*
X061698Y024253D01*
X061752D01*
X061774Y024201D01*
X061837Y024118D01*
X061920Y024055D01*
X062016Y024015D01*
X062119Y024002D01*
X062222Y024015D01*
X062318Y024055D01*
X062401Y024118D01*
X062464Y024201D01*
X062487Y024256D01*
X062541D01*
X062564Y024201D01*
X062627Y024118D01*
X062710Y024055D01*
X062806Y024015D01*
X062909Y024002D01*
X063012Y024015D01*
X063108Y024055D01*
X063191Y024118D01*
X063254Y024201D01*
X063277Y024256D01*
X063331D01*
X063354Y024201D01*
X063417Y024118D01*
X063500Y024055D01*
X063596Y024015D01*
X063699Y024002D01*
X063802Y024015D01*
X063898Y024055D01*
X063981Y024118D01*
X064044Y024201D01*
X064063Y024247D01*
X064117D01*
X064136Y024201D01*
X064199Y024118D01*
X064282Y024055D01*
X064378Y024015D01*
X064481Y024002D01*
X064584Y024015D01*
X064680Y024055D01*
X064763Y024118D01*
X064826Y024201D01*
X064848Y024253D01*
X064902D01*
X064923Y024201D01*
X064987Y024118D01*
X065069Y024055D01*
X065165Y024015D01*
X065269Y024002D01*
X065372Y024015D01*
X065468Y024055D01*
X065550Y024118D01*
X065614Y024201D01*
X065635Y024253D01*
X065689D01*
X065711Y024201D01*
X065774Y024118D01*
X065857Y024055D01*
X065953Y024015D01*
X066056Y024002D01*
X066159Y024015D01*
X066255Y024055D01*
X066338Y024118D01*
X066401Y024201D01*
X066441Y024297D01*
X066454Y024400D01*
X066441Y024503D01*
X066401Y024599D01*
X066338Y024682D01*
X066255Y024745D01*
X066159Y024785D01*
X066056Y024798D01*
X065953Y024785D01*
X065857Y024745D01*
X065774Y024682D01*
X065711Y024599D01*
X065689Y024547D01*
X065635D01*
X065614Y024599D01*
X065550Y024682D01*
X065468Y024745D01*
X065372Y024785D01*
X065269Y024798D01*
X065165Y024785D01*
X065069Y024745D01*
X064987Y024682D01*
X064923Y024599D01*
X064902Y024547D01*
X064848D01*
X064826Y024599D01*
X064763Y024682D01*
X064680Y024745D01*
X064584Y024785D01*
X064481Y024798D01*
X064378Y024785D01*
X064282Y024745D01*
X064199Y024682D01*
X064136Y024599D01*
X064117Y024553D01*
X064063D01*
X064044Y024599D01*
X063981Y024682D01*
X063898Y024745D01*
X063802Y024785D01*
X063699Y024798D01*
X063596Y024785D01*
X063500Y024745D01*
X063417Y024682D01*
X063354Y024599D01*
X063331Y024544D01*
X063277D01*
X063254Y024599D01*
X063191Y024682D01*
X063108Y024745D01*
X063012Y024785D01*
X062909Y024798D01*
X062806Y024785D01*
X062710Y024745D01*
X062627Y024682D01*
X062564Y024599D01*
X062541Y024544D01*
X062487D01*
X062464Y024599D01*
X062401Y024682D01*
X062318Y024745D01*
X062222Y024785D01*
X062119Y024798D01*
X062016Y024785D01*
X061920Y024745D01*
X061837Y024682D01*
X061774Y024599D01*
X061752Y024547D01*
X061698D01*
X061677Y024599D01*
X061613Y024682D01*
X061531Y024745D01*
X061435Y024785D01*
X061332Y024798D01*
X061228Y024785D01*
X061132Y024745D01*
X061050Y024682D01*
X060986Y024599D01*
X060976Y024573D01*
X060922D01*
X060907Y024609D01*
X060840Y024696D01*
X060753Y024762D01*
X060652Y024804D01*
X060644Y024805D01*
D02*
G37*
G36*
X058358Y024834D02*
X058358Y024450D01*
X058358D01*
Y024834D01*
D02*
G37*
G36*
X053420Y025790D02*
X053140D01*
Y025550D01*
X053420D01*
Y025790D01*
D02*
G37*
G36*
X060462Y025734D02*
X060392Y025720D01*
X060333Y025680D01*
X060293Y025620D01*
X060279Y025550D01*
X060293Y025480D01*
X060333Y025420D01*
X060392Y025380D01*
X060462Y025366D01*
X060533Y025380D01*
X060592Y025420D01*
X060632Y025480D01*
X060646Y025550D01*
X060632Y025620D01*
X060592Y025680D01*
X060533Y025720D01*
X060462Y025734D01*
D02*
G37*
G36*
X053420Y025350D02*
X053140D01*
Y025110D01*
X053420D01*
Y025350D01*
D02*
G37*
G36*
X053820Y022150D02*
X053216D01*
X053220Y022111D01*
X053261Y021977D01*
X053327Y021854D01*
X053415Y021745D01*
X053523Y021657D01*
X053647Y021591D01*
X053781Y021550D01*
X053820Y021546D01*
Y022150D01*
D02*
G37*
G36*
X055819Y022605D02*
X055811Y022604D01*
X055710Y022562D01*
X055623Y022496D01*
X055556Y022409D01*
X055515Y022308D01*
X055513Y022300D01*
X055819D01*
Y022605D01*
D02*
G37*
G36*
X063994Y022598D02*
X063891Y022585D01*
X063794Y022545D01*
X063712Y022482D01*
X063649Y022399D01*
X063627Y022347D01*
X063573D01*
X063551Y022399D01*
X063488Y022482D01*
X063405Y022545D01*
X063309Y022585D01*
X063206Y022598D01*
X063103Y022585D01*
X063007Y022545D01*
X062925Y022482D01*
X062861Y022399D01*
X062821Y022303D01*
X062808Y022200D01*
X062821Y022097D01*
X062839Y022056D01*
X062641Y021858D01*
X061575D01*
X061559Y021905D01*
X061575Y021918D01*
X061639Y022001D01*
X061679Y022097D01*
X061692Y022200D01*
X061679Y022303D01*
X061639Y022399D01*
X061575Y022482D01*
X061493Y022545D01*
X061397Y022585D01*
X061294Y022598D01*
X061191Y022585D01*
X061094Y022545D01*
X061012Y022482D01*
X060949Y022399D01*
X060927Y022347D01*
X060873D01*
X060851Y022399D01*
X060788Y022482D01*
X060705Y022545D01*
X060609Y022585D01*
X060506Y022598D01*
X060403Y022585D01*
X060307Y022545D01*
X060225Y022482D01*
X060161Y022399D01*
X060121Y022303D01*
X060108Y022200D01*
X060121Y022097D01*
X060161Y022001D01*
X060225Y021918D01*
X060307Y021855D01*
X060403Y021815D01*
X060506Y021802D01*
X060609Y021815D01*
X060651Y021832D01*
X060895Y021588D01*
X060946Y021554D01*
X061006Y021542D01*
X062706D01*
X062767Y021554D01*
X062818Y021588D01*
X063062Y021832D01*
X063103Y021815D01*
X063206Y021802D01*
X063309Y021815D01*
X063405Y021855D01*
X063488Y021918D01*
X063551Y022001D01*
X063573Y022053D01*
X063627D01*
X063649Y022001D01*
X063712Y021918D01*
X063794Y021855D01*
X063891Y021815D01*
X063994Y021802D01*
X064097Y021815D01*
X064193Y021855D01*
X064275Y021918D01*
X064339Y022001D01*
X064379Y022097D01*
X064392Y022200D01*
X064379Y022303D01*
X064339Y022399D01*
X064275Y022482D01*
X064193Y022545D01*
X064097Y022585D01*
X063994Y022598D01*
D02*
G37*
G36*
X053820Y022954D02*
X053781Y022950D01*
X053647Y022909D01*
X053523Y022843D01*
X053415Y022755D01*
X053327Y022646D01*
X053261Y022523D01*
X053220Y022389D01*
X053216Y022350D01*
X053820D01*
Y022954D01*
D02*
G37*
G36*
X066724Y022150D02*
X066120D01*
Y021546D01*
X066159Y021550D01*
X066293Y021591D01*
X066416Y021657D01*
X066525Y021745D01*
X066613Y021854D01*
X066679Y021977D01*
X066720Y022111D01*
X066724Y022150D01*
D02*
G37*
G36*
X065920D02*
X065316D01*
X065320Y022111D01*
X065361Y021977D01*
X065427Y021854D01*
X065515Y021745D01*
X065623Y021657D01*
X065747Y021591D01*
X065881Y021550D01*
X065920Y021546D01*
Y022150D01*
D02*
G37*
G36*
X055819Y022100D02*
X055513D01*
X055515Y022092D01*
X055556Y021991D01*
X055623Y021904D01*
X055710Y021837D01*
X055811Y021796D01*
X055819Y021795D01*
Y022100D01*
D02*
G37*
G36*
X066120Y022954D02*
Y022350D01*
X066724D01*
X066720Y022389D01*
X066679Y022523D01*
X066613Y022646D01*
X066525Y022755D01*
X066416Y022843D01*
X066293Y022909D01*
X066159Y022950D01*
X066120Y022954D01*
D02*
G37*
G36*
X061320Y023484D02*
X061250Y023470D01*
X061190Y023430D01*
X061150Y023370D01*
X061136Y023300D01*
X061150Y023230D01*
X061190Y023170D01*
X061250Y023130D01*
X061320Y023116D01*
X061390Y023130D01*
X061450Y023170D01*
X061489Y023230D01*
X061503Y023300D01*
X061489Y023370D01*
X061450Y023430D01*
X061390Y023470D01*
X061320Y023484D01*
D02*
G37*
G36*
X057870Y023384D02*
X057800Y023370D01*
X057740Y023330D01*
X057723Y023304D01*
X057663D01*
X057645Y023330D01*
X057586Y023370D01*
X057516Y023384D01*
X057445Y023370D01*
X057386Y023330D01*
X057346Y023270D01*
X057332Y023200D01*
X057346Y023130D01*
X057383Y023074D01*
Y022582D01*
X057295Y022545D01*
X057212Y022482D01*
X057149Y022399D01*
X057127Y022347D01*
X057073D01*
X057051Y022399D01*
X056988Y022482D01*
X056905Y022545D01*
X056852Y022567D01*
Y023074D01*
X056867Y023096D01*
X056927D01*
X056944Y023070D01*
X057004Y023030D01*
X057074Y023016D01*
X057144Y023030D01*
X057204Y023070D01*
X057244Y023130D01*
X057258Y023200D01*
X057244Y023270D01*
X057204Y023330D01*
X057144Y023370D01*
X057074Y023384D01*
X057004Y023370D01*
X056944Y023330D01*
X056927Y023304D01*
X056867D01*
X056850Y023330D01*
X056790Y023370D01*
X056720Y023384D01*
X056650Y023370D01*
X056590Y023330D01*
X056550Y023270D01*
X056536Y023200D01*
X056550Y023130D01*
X056587Y023074D01*
Y022578D01*
X056507Y022545D01*
X056425Y022482D01*
X056361Y022399D01*
X056350Y022373D01*
X056296D01*
X056281Y022409D01*
X056215Y022496D01*
X056128Y022562D01*
X056027Y022604D01*
X056019Y022605D01*
Y022200D01*
Y021795D01*
X056027Y021796D01*
X056128Y021837D01*
X056215Y021904D01*
X056281Y021991D01*
X056296Y022027D01*
X056350D01*
X056361Y022001D01*
X056425Y021918D01*
X056507Y021855D01*
X056603Y021815D01*
X056706Y021802D01*
X056809Y021815D01*
X056905Y021855D01*
X056988Y021918D01*
X057051Y022001D01*
X057073Y022053D01*
X057127D01*
X057149Y022001D01*
X057212Y021918D01*
X057295Y021855D01*
X057391Y021815D01*
X057494Y021802D01*
X057597Y021815D01*
X057693Y021855D01*
X057775Y021918D01*
X057839Y022001D01*
X057862Y022056D01*
X057916D01*
X057939Y022001D01*
X058002Y021918D01*
X058085Y021855D01*
X058181Y021815D01*
X058284Y021802D01*
X058387Y021815D01*
X058483Y021855D01*
X058565Y021918D01*
X058629Y022001D01*
X058669Y022097D01*
X058682Y022200D01*
X058669Y022303D01*
X058629Y022399D01*
X058565Y022482D01*
X058483Y022545D01*
X058387Y022585D01*
X058284Y022598D01*
X058181Y022585D01*
X058085Y022545D01*
X058002Y022482D01*
X057939Y022399D01*
X057916Y022344D01*
X057862D01*
X057839Y022399D01*
X057775Y022482D01*
X057693Y022545D01*
X057648Y022564D01*
Y023074D01*
X057663Y023096D01*
X057723D01*
X057740Y023070D01*
X057800Y023030D01*
X057870Y023016D01*
X057940Y023030D01*
X058000Y023070D01*
X058039Y023130D01*
X058053Y023200D01*
X058039Y023270D01*
X058000Y023330D01*
X057940Y023370D01*
X057870Y023384D01*
D02*
G37*
G36*
X054624Y022150D02*
X054020D01*
Y021546D01*
X054059Y021550D01*
X054193Y021591D01*
X054316Y021657D01*
X054425Y021745D01*
X054513Y021854D01*
X054579Y021977D01*
X054620Y022111D01*
X054624Y022150D01*
D02*
G37*
G36*
X054020Y022954D02*
Y022350D01*
X054624D01*
X054620Y022389D01*
X054579Y022523D01*
X054513Y022646D01*
X054425Y022755D01*
X054316Y022843D01*
X054193Y022909D01*
X054059Y022950D01*
X054020Y022954D01*
D02*
G37*
G36*
X065920D02*
X065881Y022950D01*
X065747Y022909D01*
X065623Y022843D01*
X065515Y022755D01*
X065427Y022646D01*
X065361Y022523D01*
X065320Y022389D01*
X065316Y022350D01*
X065920D01*
Y022954D01*
D02*
G37*
G36*
X064265Y027350D02*
X064205D01*
Y026307D01*
X064471D01*
Y026350D01*
X064265D01*
X064265Y027350D01*
D02*
G37*
G36*
X053895Y030800D02*
X053520D01*
Y030425D01*
X053895D01*
Y030800D01*
D02*
G37*
G36*
X065344Y030850D02*
X065207D01*
Y030673D01*
X065344D01*
Y030850D01*
D02*
G37*
G36*
X053320Y030800D02*
X052945D01*
Y030425D01*
X053320D01*
Y030800D01*
D02*
G37*
G36*
X053895Y030375D02*
X053520D01*
Y030000D01*
X053895D01*
Y030375D01*
D02*
G37*
G36*
X065682Y030850D02*
X065544D01*
Y030673D01*
X065682D01*
Y030850D01*
D02*
G37*
G36*
X053320Y032430D02*
X052945D01*
Y032075D01*
X053320D01*
Y032430D01*
D02*
G37*
G36*
X053320Y030375D02*
X052945D01*
Y030000D01*
X053320D01*
Y030375D01*
D02*
G37*
G36*
Y029275D02*
X052945D01*
Y028920D01*
X053320D01*
Y029275D01*
D02*
G37*
G36*
X053895D02*
X053520D01*
Y028920D01*
X053895D01*
Y029275D01*
D02*
G37*
G36*
X053320Y028720D02*
X052945D01*
Y028365D01*
X053320D01*
Y028720D01*
D02*
G37*
G36*
X064937Y026350D02*
X064671D01*
Y026307D01*
X064937D01*
Y026350D01*
D02*
G37*
G36*
X054120Y027678D02*
X053996Y027662D01*
X053881Y027614D01*
X053782Y027538D01*
X053706Y027439D01*
X053658Y027324D01*
X053642Y027200D01*
X053658Y027076D01*
X053706Y026961D01*
X053782Y026862D01*
X053881Y026786D01*
X053996Y026738D01*
X054120Y026722D01*
X054244Y026738D01*
X054359Y026786D01*
X054458Y026862D01*
X054534Y026961D01*
X054581Y027076D01*
X054598Y027200D01*
X054581Y027324D01*
X054534Y027439D01*
X054458Y027538D01*
X054359Y027614D01*
X054244Y027662D01*
X054120Y027678D01*
D02*
G37*
G36*
X053320Y029800D02*
X052945D01*
Y029425D01*
X053320D01*
Y029800D01*
D02*
G37*
G36*
X054370Y029780D02*
X054090D01*
Y029710D01*
X054370D01*
Y029780D01*
D02*
G37*
G36*
X053895Y029800D02*
X053520D01*
Y029425D01*
X053895D01*
Y029800D01*
D02*
G37*
G36*
X057920Y040973D02*
X057789Y040961D01*
X057662Y040922D01*
X057546Y040860D01*
X057444Y040776D01*
X057360Y040674D01*
X057298Y040558D01*
X057259Y040431D01*
X057246Y040300D01*
X057259Y040169D01*
X057298Y040042D01*
X057360Y039926D01*
X057444Y039824D01*
X057546Y039740D01*
X057662Y039678D01*
X057789Y039639D01*
X057920Y039627D01*
X058051Y039639D01*
X058178Y039678D01*
X058294Y039740D01*
X058396Y039824D01*
X058480Y039926D01*
X058542Y040042D01*
X058580Y040169D01*
X058593Y040300D01*
X058580Y040431D01*
X058542Y040558D01*
X058480Y040674D01*
X058396Y040776D01*
X058294Y040860D01*
X058178Y040922D01*
X058051Y040961D01*
X057920Y040973D01*
D02*
G37*
G36*
X062620D02*
X062489Y040961D01*
X062362Y040922D01*
X062246Y040860D01*
X062144Y040776D01*
X062060Y040674D01*
X061998Y040558D01*
X061959Y040431D01*
X061946Y040300D01*
X061959Y040169D01*
X061998Y040042D01*
X062060Y039926D01*
X062144Y039824D01*
X062246Y039740D01*
X062362Y039678D01*
X062489Y039639D01*
X062620Y039627D01*
X062751Y039639D01*
X062878Y039678D01*
X062994Y039740D01*
X063096Y039824D01*
X063180Y039926D01*
X063242Y040042D01*
X063280Y040169D01*
X063293Y040300D01*
X063280Y040431D01*
X063242Y040558D01*
X063180Y040674D01*
X063096Y040776D01*
X062994Y040860D01*
X062878Y040922D01*
X062751Y040961D01*
X062620Y040973D01*
D02*
G37*
%LPD*%
D10*
X059320Y026047D02*
D03*
Y025653D02*
D03*
D11*
X058920Y026050D02*
D03*
X058526D02*
D03*
D12*
X055520Y030657D02*
D03*
Y030343D02*
D03*
X064520Y030693D02*
D03*
Y031007D02*
D03*
X058070Y026138D02*
D03*
Y025823D02*
D03*
D13*
X057327Y026400D02*
D03*
X057012D02*
D03*
X054627Y035900D02*
D03*
X054312D02*
D03*
X059327D02*
D03*
X059012D02*
D03*
X064027Y035850D02*
D03*
X063712D02*
D03*
D14*
X064096Y035400D02*
D03*
X063544D02*
D03*
X059395D02*
D03*
X058844D02*
D03*
X054696D02*
D03*
X054144D02*
D03*
X065995Y030950D02*
D03*
X065444D02*
D03*
D15*
X055913Y030565D02*
D03*
Y029935D02*
D03*
X057527Y030565D02*
D03*
Y029935D02*
D03*
Y028435D02*
D03*
Y029065D02*
D03*
X055913Y028435D02*
D03*
Y029065D02*
D03*
D16*
X053420Y029900D02*
D03*
Y030900D02*
D03*
D17*
Y028820D02*
D03*
Y031975D02*
D03*
D18*
X054470Y030140D02*
D03*
Y030400D02*
D03*
Y030656D02*
D03*
Y029880D02*
D03*
Y030912D02*
D03*
D19*
X066366Y035272D02*
D03*
X065500D02*
D03*
X064634D02*
D03*
Y031728D02*
D03*
X065500D02*
D03*
X066366D02*
D03*
X061666D02*
D03*
X060800D02*
D03*
X059934D02*
D03*
Y035272D02*
D03*
X060800D02*
D03*
X061666D02*
D03*
X056966D02*
D03*
X056100D02*
D03*
X055234D02*
D03*
Y031728D02*
D03*
X056100D02*
D03*
X056966D02*
D03*
D20*
X065500Y034386D02*
D03*
X060800D02*
D03*
X056100D02*
D03*
D21*
X064821Y033835D02*
D03*
X065274D02*
D03*
X065726D02*
D03*
X066179D02*
D03*
Y032732D02*
D03*
X065726D02*
D03*
X065274D02*
D03*
X064821D02*
D03*
X060121D02*
D03*
X060574D02*
D03*
X061026D02*
D03*
X061479D02*
D03*
Y033835D02*
D03*
X061026D02*
D03*
X060574D02*
D03*
X060121D02*
D03*
X055421D02*
D03*
X055874D02*
D03*
X056326D02*
D03*
X056779D02*
D03*
Y032732D02*
D03*
X056326D02*
D03*
X055874D02*
D03*
X055421D02*
D03*
D22*
X066672Y038566D02*
D03*
Y037700D02*
D03*
Y036834D02*
D03*
X063128D02*
D03*
Y037700D02*
D03*
Y038566D02*
D03*
X058428D02*
D03*
Y037700D02*
D03*
Y036834D02*
D03*
X061972D02*
D03*
Y037700D02*
D03*
Y038566D02*
D03*
X057272D02*
D03*
Y037700D02*
D03*
Y036834D02*
D03*
X053728D02*
D03*
Y037700D02*
D03*
Y038566D02*
D03*
D23*
X065668Y037021D02*
D03*
Y037474D02*
D03*
Y037926D02*
D03*
Y038379D02*
D03*
X064565D02*
D03*
Y037926D02*
D03*
Y037474D02*
D03*
Y037021D02*
D03*
X059865D02*
D03*
Y037474D02*
D03*
Y037926D02*
D03*
Y038379D02*
D03*
X060968D02*
D03*
Y037926D02*
D03*
Y037474D02*
D03*
Y037021D02*
D03*
X056268D02*
D03*
Y037474D02*
D03*
Y037926D02*
D03*
Y038379D02*
D03*
X055165D02*
D03*
Y037926D02*
D03*
Y037474D02*
D03*
Y037021D02*
D03*
D24*
X064014Y037700D02*
D03*
X059314D02*
D03*
X054614D02*
D03*
D25*
X053520Y024259D02*
D03*
Y025450D02*
D03*
D26*
X053343Y023650D02*
D03*
X053697D02*
D03*
X058643Y031750D02*
D03*
X058997D02*
D03*
X058997Y031350D02*
D03*
X058643D02*
D03*
X062693Y035400D02*
D03*
X063047D02*
D03*
X062747Y035800D02*
D03*
X062393D02*
D03*
X062393Y036200D02*
D03*
X062747D02*
D03*
X057993Y035400D02*
D03*
X058347D02*
D03*
X058047Y035800D02*
D03*
X057693D02*
D03*
X057693Y036200D02*
D03*
X058047D02*
D03*
X053347Y035800D02*
D03*
X052993D02*
D03*
X053293Y035400D02*
D03*
X053647D02*
D03*
X052993Y036200D02*
D03*
X053347D02*
D03*
D27*
X055320Y029196D02*
D03*
Y029550D02*
D03*
X054920Y029196D02*
D03*
Y029550D02*
D03*
X055520Y028346D02*
D03*
Y028700D02*
D03*
X064120Y030673D02*
D03*
Y031027D02*
D03*
X064920Y030673D02*
D03*
Y031027D02*
D03*
X063600Y032723D02*
D03*
Y033077D02*
D03*
X058900Y032723D02*
D03*
Y033077D02*
D03*
X054200Y032723D02*
D03*
Y033077D02*
D03*
D28*
X057320Y025580D02*
D03*
D29*
X057710Y025186D02*
D03*
X056930D02*
D03*
Y025383D02*
D03*
Y025580D02*
D03*
Y025777D02*
D03*
Y025974D02*
D03*
X057710D02*
D03*
Y025777D02*
D03*
Y025580D02*
D03*
Y025383D02*
D03*
D30*
X054242Y034978D02*
D03*
X053927D02*
D03*
X053612D02*
D03*
X053297D02*
D03*
X054242Y033422D02*
D03*
X053927D02*
D03*
X053612D02*
D03*
X053297D02*
D03*
X058942Y034978D02*
D03*
X058627D02*
D03*
X058312D02*
D03*
X057997D02*
D03*
X058942Y033422D02*
D03*
X058627D02*
D03*
X058312D02*
D03*
X057997D02*
D03*
X063642Y034978D02*
D03*
X063327D02*
D03*
X063012D02*
D03*
X062697D02*
D03*
X063642Y033422D02*
D03*
X063327D02*
D03*
X063012D02*
D03*
X062697D02*
D03*
D31*
X053770Y034200D02*
D03*
X058470D02*
D03*
X063170D02*
D03*
D32*
X066559Y027450D02*
D03*
X064571D02*
D03*
D33*
X066620Y031180D02*
D03*
Y030550D02*
D03*
D34*
X062035Y026690D02*
D03*
Y030210D02*
D03*
D35*
X065520Y029750D02*
D03*
D36*
X064664Y030134D02*
D03*
Y029878D02*
D03*
Y029622D02*
D03*
Y029366D02*
D03*
X066376Y030134D02*
D03*
Y029878D02*
D03*
Y029622D02*
D03*
Y029366D02*
D03*
D37*
X055420Y025618D02*
D03*
Y024082D02*
D03*
D38*
X059020Y023950D02*
D03*
Y025052D02*
D03*
D39*
X058071Y024280D02*
D03*
X056969D02*
D03*
D40*
X063100Y034200D02*
X063135Y034165D01*
X063327Y033973D01*
Y033422D02*
Y033973D01*
X058470Y034200D02*
X058627Y034043D01*
Y033422D02*
Y034043D01*
X053770Y034200D02*
X053927Y034043D01*
Y033422D02*
Y034043D01*
X060506Y022200D02*
X061006Y021700D01*
X062706D01*
X063206Y022200D01*
X054270Y038000D02*
X054470Y038200D01*
X058970Y036633D02*
Y038000D01*
X059170Y038200D02*
X059665D01*
X058970Y038000D02*
X059170Y038200D01*
X063670Y036633D02*
Y038000D01*
X063870Y038200D02*
X064565D01*
X063670Y038000D02*
X063870Y038200D01*
X054470D02*
X055170D01*
X057997Y034978D02*
Y035661D01*
X058970Y036633D01*
X059665Y038200D02*
X059870D01*
X062697Y034978D02*
Y035661D01*
X063670Y036633D01*
X054270D02*
Y038000D01*
X053297Y034978D02*
Y035661D01*
X054270Y036633D01*
D41*
X058200Y034200D02*
X058357Y034043D01*
X053300Y034200D02*
X053457Y034043D01*
X057320Y025383D02*
Y025580D01*
X056930Y025383D02*
X057320D01*
X054124Y035400D02*
X054172Y035352D01*
X063524Y035400D02*
X063572Y035352D01*
D42*
X064120Y031027D02*
X064920D01*
X057710Y025974D02*
X057720Y025984D01*
X058074Y025777D02*
X058120Y025823D01*
X057710Y025777D02*
X058074D01*
X056013Y028335D02*
X057627D01*
X062393Y032023D02*
Y036200D01*
X054020Y031750D02*
Y032324D01*
X054180Y031816D02*
Y032391D01*
X053297Y033047D02*
Y033422D01*
X053612Y032958D02*
Y033422D01*
Y032958D02*
X054180Y032391D01*
X053297Y033047D02*
X054020Y032324D01*
X057650Y026050D02*
X057654D01*
X057720Y025984D01*
X058526Y026050D02*
Y026244D01*
X058370Y026400D02*
X058526Y026244D01*
X055908Y028341D02*
X056013Y028335D01*
X057107Y028540D02*
X057230Y028663D01*
X056438Y028540D02*
X057107D01*
X055913Y029065D02*
X056438Y028540D01*
X057020Y028750D02*
Y030058D01*
X057230Y028768D02*
X057527Y029065D01*
X057230Y028663D02*
Y028768D01*
X055823Y028346D02*
X055908Y028341D01*
X057020Y030058D02*
X057527Y030565D01*
X063609Y032732D02*
X064821D01*
X054200Y032723D02*
X055411D01*
X058909Y032732D02*
X060121D01*
X061670Y029350D02*
Y029400D01*
X061710Y029440D01*
X064520Y030693D02*
X064540Y030673D01*
X064920D01*
X064520Y030278D02*
Y030693D01*
Y030278D02*
X064664Y030134D01*
X062710Y029440D02*
X063148Y029878D01*
X061710Y029440D02*
X062710D01*
X055913Y030565D02*
X057527D01*
X055308Y029562D02*
Y030112D01*
X054764Y030656D02*
X055308Y030112D01*
X054470Y030656D02*
X054764D01*
X055520Y028700D02*
Y028950D01*
X054405Y028275D02*
Y028650D01*
Y028275D02*
X056300Y026380D01*
X054920Y028074D02*
Y029196D01*
X055302Y027918D02*
Y029177D01*
X055820Y030657D02*
X055913Y030565D01*
X055520Y030657D02*
X055820D01*
X055520Y028346D02*
X055823D01*
X058643Y031027D02*
X058920Y030750D01*
Y028750D02*
Y030750D01*
X058240Y028553D02*
X058370Y028423D01*
X058240Y028553D02*
Y030834D01*
X057997Y031077D02*
X058240Y030834D01*
X057538Y031310D02*
X058080Y030768D01*
Y028090D02*
Y030768D01*
X057750Y030872D02*
X057870Y030752D01*
Y028400D02*
Y030752D01*
X058370Y028400D02*
Y028423D01*
X058660Y027810D02*
X058670Y027800D01*
X058660Y029554D02*
X058730Y029624D01*
X058660Y027810D02*
Y029554D01*
X058730Y029624D02*
Y030640D01*
X058980Y027790D02*
X059290Y028101D01*
X058870Y028400D02*
X059130Y028660D01*
X058312Y031057D02*
X058730Y030640D01*
X058997Y031750D02*
X059220D01*
X057693Y031873D02*
Y035800D01*
X054920Y028074D02*
X056510Y026484D01*
Y026200D02*
Y026484D01*
X056770Y026200D02*
Y026450D01*
X055302Y027918D02*
X056770Y026450D01*
X059317Y026050D02*
X059320Y026047D01*
X058920Y026050D02*
X059317D01*
X057020Y026064D02*
Y026400D01*
X056930Y025974D02*
X057020Y026064D01*
X056300Y026378D02*
Y026380D01*
X054424Y026210D02*
X056100D01*
X054060Y025846D02*
X054424Y026210D01*
X054060Y025490D02*
Y025846D01*
Y025490D02*
X054070Y025480D01*
X056720Y022214D02*
Y023200D01*
X056706Y022200D02*
X056720Y022214D01*
X057516Y022369D02*
Y023200D01*
X057420Y022274D02*
X057516Y022369D01*
X057420Y022274D02*
X057494Y022200D01*
X058080Y028090D02*
X058370Y027800D01*
X062220Y031850D02*
X062393Y032023D01*
X059320Y026047D02*
Y026450D01*
X058643Y031027D02*
Y031350D01*
X058312Y031057D02*
Y033422D01*
X058643Y031750D02*
X058643Y031750D01*
X058643Y031350D02*
Y031750D01*
X055308Y029562D02*
X055320Y029550D01*
X054770Y030400D02*
X054920Y030250D01*
Y029550D02*
Y030250D01*
X055302Y029177D02*
X055320Y029196D01*
X054470Y030400D02*
X054770D01*
X057997Y031077D02*
Y033422D01*
X057746Y030872D02*
X057750D01*
X057677Y030940D02*
X057746Y030872D01*
X057677Y030940D02*
Y030944D01*
X057472Y031150D02*
X057677Y030944D01*
X054686Y031310D02*
X057538D01*
X054620Y031150D02*
X057472D01*
X063012Y031966D02*
Y033422D01*
X062286Y031240D02*
X063012Y031966D01*
X062697Y031878D02*
Y033422D01*
X062220Y031400D02*
X062697Y031878D01*
X054180Y031816D02*
X054686Y031310D01*
X054020Y031750D02*
X054620Y031150D01*
X066836Y029266D02*
Y029434D01*
X066648Y029622D02*
X066836Y029434D01*
X066421Y029622D02*
X066648D01*
X064920Y031027D02*
X065143Y031250D01*
X064920Y031027D02*
X064920Y031027D01*
X064900Y030693D02*
X064920Y030673D01*
X064320Y029878D02*
X064664D01*
X063148D02*
X064320D01*
X064120Y030078D02*
X064320Y029878D01*
X064120Y030078D02*
Y030673D01*
X063192Y029622D02*
X064664D01*
X063135Y029565D02*
X063192Y029622D01*
X066320Y028750D02*
X066836Y029266D01*
X066120Y028750D02*
X066320D01*
X065720Y028457D02*
Y028710D01*
X066376Y029366D01*
Y029878D02*
X066648D01*
X066820Y030050D01*
Y030350D01*
X066620Y030550D02*
X066820Y030350D01*
X054174Y035900D02*
X054312D01*
X053897Y035008D02*
X053927Y034978D01*
X058870Y035900D02*
X059012D01*
X058597Y035627D02*
X058870Y035900D01*
X058597Y035008D02*
Y035627D01*
X059012Y035900D02*
X059043D01*
X059665Y038200D02*
Y038379D01*
Y038100D02*
Y038200D01*
X063524Y035850D02*
X063712D01*
X063297Y035008D02*
Y035623D01*
X063524Y035850D01*
X058597Y035008D02*
X058627Y034978D01*
X063297Y035008D02*
X063327Y034978D01*
X063572Y033105D02*
X063600Y033077D01*
X064565Y038200D02*
Y038379D01*
Y036408D02*
Y037021D01*
X064057Y035900D02*
X064565Y036408D01*
X059665Y038100D02*
X059865D01*
Y036408D02*
Y037021D01*
X059357Y035900D02*
X059865Y036408D01*
X054657Y035900D02*
X055165Y036408D01*
X058700Y032723D02*
X058709Y032732D01*
X063600Y032723D02*
X063609Y032732D01*
X058900Y033077D02*
X058942Y033120D01*
Y033422D01*
X054200Y033077D02*
X054242Y033120D01*
Y033422D01*
X063642Y033120D02*
Y033422D01*
X063600Y033077D02*
X063642Y033120D01*
X053897Y035008D02*
Y035623D01*
X054174Y035900D01*
X057693Y035800D02*
Y036200D01*
X057693Y036200D02*
X057693Y036200D01*
X052993Y035800D02*
Y036200D01*
X052993Y036200D02*
X052993Y036200D01*
Y033377D02*
Y035800D01*
Y033377D02*
X053020Y033350D01*
X059130Y028660D02*
Y030760D01*
X059770Y031400D01*
X062220D01*
X059290Y030694D02*
X059836Y031240D01*
X062286D01*
X059290Y028101D02*
Y030694D01*
X062065Y030210D02*
X062448D01*
X065143Y031250D02*
X066020D01*
Y031150D02*
Y031250D01*
X053697Y023650D02*
Y024082D01*
X053520Y024259D02*
X053697Y024082D01*
X053620Y023350D02*
X055170D01*
D43*
X056100Y031728D02*
X056966D01*
X055234D02*
X056100D01*
X060800D02*
X061666D01*
X059934D02*
X060800D01*
X064634D02*
X065500D01*
X066366D01*
D44*
X055260Y034386D02*
X056000D01*
X054970Y034096D02*
X055260Y034386D01*
X054242Y033422D02*
X054492D01*
X054970Y033900D01*
Y034096D01*
X059960Y034386D02*
X060700D01*
X059670Y034096D02*
X059960Y034386D01*
X058942Y033422D02*
X059192D01*
X059670Y033900D01*
Y034096D01*
X059314Y036645D02*
Y037700D01*
X058312Y035643D02*
X059314Y036645D01*
X064370Y033900D02*
Y034096D01*
X063892Y033422D02*
X064370Y033900D01*
X063642Y033422D02*
X063892D01*
X063012Y035643D02*
X064014Y036645D01*
Y037700D01*
X064370Y034096D02*
X064660Y034386D01*
X065400D01*
X058312Y034978D02*
Y035643D01*
X063012Y034978D02*
Y035643D01*
X066880Y031440D02*
Y035400D01*
X066620Y031180D02*
X066880Y031440D01*
X054614Y036645D02*
Y037700D01*
X053612Y035643D02*
X054614Y036645D01*
X053612Y034978D02*
Y035643D01*
X061805Y029950D02*
X062065Y030210D01*
D45*
X066056Y024400D02*
D03*
X065269D02*
D03*
X063699D02*
D03*
X062909D02*
D03*
X062119D02*
D03*
X061332D02*
D03*
X060544D02*
D03*
X064481D02*
D03*
X058284Y022200D02*
D03*
X057494D02*
D03*
X056706D02*
D03*
X055919D02*
D03*
X061294D02*
D03*
X060506D02*
D03*
X063206D02*
D03*
X063994D02*
D03*
D46*
X054120Y027200D02*
D03*
D47*
X053920Y022250D02*
D03*
X066020D02*
D03*
X062620Y040300D02*
D03*
X057920D02*
D03*
D48*
X053120Y039753D02*
D03*
Y036800D02*
D03*
D49*
X053670Y032350D02*
D03*
X063320D02*
D03*
X058620D02*
D03*
X053420Y030800D02*
D03*
X059020Y023450D02*
D03*
X058720D02*
D03*
X058420D02*
D03*
X058120D02*
D03*
X057650Y026050D02*
D03*
X058070Y026400D02*
D03*
Y026138D02*
D03*
X058370Y026400D02*
D03*
X064820Y029350D02*
D03*
X064520D02*
D03*
X062920Y034250D02*
D03*
Y034500D02*
D03*
X063170D02*
D03*
X057020Y028750D02*
D03*
X053977Y031450D02*
D03*
X063320Y026050D02*
D03*
X063020D02*
D03*
X055620Y033650D02*
D03*
X055870D02*
D03*
X056120D02*
D03*
X056370D02*
D03*
X056620D02*
D03*
X055870Y033400D02*
D03*
X056120D02*
D03*
X056370D02*
D03*
X056620D02*
D03*
Y033150D02*
D03*
X056370D02*
D03*
X055870D02*
D03*
X055620D02*
D03*
Y032900D02*
D03*
Y032150D02*
D03*
Y032400D02*
D03*
X055870Y032900D02*
D03*
Y032650D02*
D03*
Y032400D02*
D03*
Y032150D02*
D03*
X056120D02*
D03*
X056370D02*
D03*
X056620D02*
D03*
Y032900D02*
D03*
Y032650D02*
D03*
Y032400D02*
D03*
X056370D02*
D03*
X056120D02*
D03*
Y032650D02*
D03*
X056370Y032900D02*
D03*
Y032650D02*
D03*
X055620D02*
D03*
X056120Y032900D02*
D03*
Y033150D02*
D03*
X055620Y033400D02*
D03*
X060320Y033650D02*
D03*
X060570D02*
D03*
X060820D02*
D03*
X061070D02*
D03*
X061320D02*
D03*
X060570Y033400D02*
D03*
X060820D02*
D03*
X061070D02*
D03*
X061320D02*
D03*
Y033150D02*
D03*
X061070D02*
D03*
X060570D02*
D03*
X060320D02*
D03*
Y032900D02*
D03*
Y032150D02*
D03*
Y032400D02*
D03*
X060570Y032900D02*
D03*
Y032650D02*
D03*
Y032400D02*
D03*
Y032150D02*
D03*
X060820D02*
D03*
X061070D02*
D03*
X061320D02*
D03*
Y032900D02*
D03*
Y032650D02*
D03*
Y032400D02*
D03*
X061070D02*
D03*
X060820D02*
D03*
Y032650D02*
D03*
X061070Y032900D02*
D03*
Y032650D02*
D03*
X060320D02*
D03*
X060820Y032900D02*
D03*
Y033150D02*
D03*
X060320Y033400D02*
D03*
X060820Y029627D02*
D03*
X061670Y029350D02*
D03*
X057220Y030900D02*
D03*
X056970D02*
D03*
X056720D02*
D03*
X057570Y030057D02*
D03*
X055520Y030350D02*
D03*
Y030100D02*
D03*
Y029850D02*
D03*
Y028950D02*
D03*
X055820Y029250D02*
D03*
X056070Y028350D02*
D03*
X054120Y028650D02*
D03*
X054405D02*
D03*
X054665Y028658D02*
D03*
X054670Y028950D02*
D03*
X057570Y023750D02*
D03*
X058120Y024350D02*
D03*
X058450Y028829D02*
D03*
X058920Y028750D02*
D03*
X058520Y030050D02*
D03*
Y029750D02*
D03*
X060757Y026500D02*
D03*
X063377Y031450D02*
D03*
X058997Y031350D02*
D03*
X058920Y031050D02*
D03*
X059220Y031750D02*
D03*
X053662Y031450D02*
D03*
X065970Y034750D02*
D03*
X065720D02*
D03*
X065470D02*
D03*
X065220D02*
D03*
X064970D02*
D03*
X065970Y034500D02*
D03*
Y034250D02*
D03*
X061270Y034750D02*
D03*
X061020D02*
D03*
X060770D02*
D03*
X060520D02*
D03*
X060270D02*
D03*
X061270Y034500D02*
D03*
Y034250D02*
D03*
X056570D02*
D03*
Y034500D02*
D03*
X055570Y034750D02*
D03*
X055820D02*
D03*
X056070D02*
D03*
X056320D02*
D03*
X056570D02*
D03*
X057693Y031873D02*
D03*
X065020Y033400D02*
D03*
X065520Y033150D02*
D03*
Y032900D02*
D03*
X065020Y032650D02*
D03*
X065770D02*
D03*
Y032900D02*
D03*
X065520Y032650D02*
D03*
Y032400D02*
D03*
X065770D02*
D03*
X066020D02*
D03*
Y032650D02*
D03*
Y032900D02*
D03*
Y032150D02*
D03*
X065770D02*
D03*
X065520D02*
D03*
X065270D02*
D03*
Y032400D02*
D03*
Y032650D02*
D03*
Y032900D02*
D03*
X065020Y032400D02*
D03*
Y032150D02*
D03*
Y032900D02*
D03*
Y033150D02*
D03*
X065270D02*
D03*
X065770D02*
D03*
X066020D02*
D03*
Y033400D02*
D03*
X065770D02*
D03*
X065520D02*
D03*
X065270D02*
D03*
X066020Y033650D02*
D03*
X065770D02*
D03*
X065520D02*
D03*
X065270D02*
D03*
X065020D02*
D03*
X063170Y034250D02*
D03*
X063420D02*
D03*
Y034500D02*
D03*
X058220Y034250D02*
D03*
X058470D02*
D03*
X058720D02*
D03*
Y034500D02*
D03*
X058470D02*
D03*
X058220D02*
D03*
X053520Y034250D02*
D03*
X053770D02*
D03*
X054020D02*
D03*
Y034500D02*
D03*
X053770D02*
D03*
X053520D02*
D03*
X053822Y033105D02*
D03*
X058522D02*
D03*
X060020Y025050D02*
D03*
X059720D02*
D03*
X060777Y025550D02*
D03*
X060462D02*
D03*
X060400Y026157D02*
D03*
X060520Y028150D02*
D03*
Y028465D02*
D03*
X056320Y024050D02*
D03*
X058120D02*
D03*
X057570Y024350D02*
D03*
Y024050D02*
D03*
X058120Y023750D02*
D03*
X056300Y026378D02*
D03*
X056770Y026200D02*
D03*
X056510D02*
D03*
X056100Y026210D02*
D03*
X054060Y025490D02*
D03*
X054820Y024050D02*
D03*
Y024350D02*
D03*
Y024650D02*
D03*
X054520Y024050D02*
D03*
Y024350D02*
D03*
X055120Y024650D02*
D03*
X054820Y023750D02*
D03*
X055170Y023350D02*
D03*
X055120Y024350D02*
D03*
X055420Y024650D02*
D03*
Y024350D02*
D03*
X055720D02*
D03*
Y024050D02*
D03*
X056020D02*
D03*
Y023750D02*
D03*
X056720Y023200D02*
D03*
X057516D02*
D03*
X054520Y024650D02*
D03*
X055120Y023750D02*
D03*
Y024050D02*
D03*
X056920Y023750D02*
D03*
X056620D02*
D03*
X057220D02*
D03*
X059020Y024050D02*
D03*
X058720D02*
D03*
X058420D02*
D03*
X058370Y027800D02*
D03*
X058670D02*
D03*
X058980Y027790D02*
D03*
X057870Y028400D02*
D03*
X060920Y030650D02*
D03*
Y030950D02*
D03*
X062220Y031850D02*
D03*
X059320Y026450D02*
D03*
X058870Y028400D02*
D03*
X058370D02*
D03*
X053020Y033350D02*
D03*
X065444Y030950D02*
D03*
X063720Y030350D02*
D03*
Y030650D02*
D03*
X063420D02*
D03*
Y030350D02*
D03*
X063120D02*
D03*
Y030650D02*
D03*
X062820D02*
D03*
Y030350D02*
D03*
X063135Y029565D02*
D03*
X066120Y026950D02*
D03*
Y026650D02*
D03*
Y028750D02*
D03*
X062520Y029750D02*
D03*
X062220D02*
D03*
X061920D02*
D03*
X062220Y030050D02*
D03*
X061920D02*
D03*
X061620D02*
D03*
Y030350D02*
D03*
X061920D02*
D03*
X062220D02*
D03*
X062520D02*
D03*
Y030650D02*
D03*
X062220D02*
D03*
X061920D02*
D03*
X061620D02*
D03*
X066720Y026650D02*
D03*
X066420D02*
D03*
Y027550D02*
D03*
X066720D02*
D03*
Y027850D02*
D03*
X066420D02*
D03*
Y028150D02*
D03*
X066720D02*
D03*
Y028450D02*
D03*
X066420D02*
D03*
X066320Y030250D02*
D03*
X066020D02*
D03*
Y030550D02*
D03*
X066320Y030850D02*
D03*
X066020D02*
D03*
X066620Y031150D02*
D03*
X066320D02*
D03*
X066020D02*
D03*
X063320Y028750D02*
D03*
X064220Y029350D02*
D03*
X063920D02*
D03*
X063620D02*
D03*
X065420Y029050D02*
D03*
X065120D02*
D03*
X064820D02*
D03*
X064520D02*
D03*
X064220D02*
D03*
X063920D02*
D03*
X063620D02*
D03*
X063320D02*
D03*
X063020Y028750D02*
D03*
X063620D02*
D03*
X063920D02*
D03*
Y028450D02*
D03*
X063620D02*
D03*
X063320D02*
D03*
X063020D02*
D03*
X063620Y028150D02*
D03*
X063320D02*
D03*
X063020D02*
D03*
X063920D02*
D03*
Y027850D02*
D03*
X063620D02*
D03*
X063320D02*
D03*
X063020D02*
D03*
X063620Y027550D02*
D03*
X063320D02*
D03*
X063020D02*
D03*
X065720Y028457D02*
D03*
X063020Y026350D02*
D03*
X063320D02*
D03*
X063620Y026364D02*
D03*
X063920Y026650D02*
D03*
X063620D02*
D03*
X063320D02*
D03*
X063020D02*
D03*
Y026950D02*
D03*
X063320D02*
D03*
X063620D02*
D03*
X063920D02*
D03*
X063020Y027250D02*
D03*
X063320D02*
D03*
X063920D02*
D03*
X063620D02*
D03*
X063920Y026350D02*
D03*
Y026050D02*
D03*
X063620D02*
D03*
X059020Y023750D02*
D03*
X058720D02*
D03*
X058420D02*
D03*
X055720Y024650D02*
D03*
X056020D02*
D03*
Y024350D02*
D03*
X057220Y024050D02*
D03*
X056920D02*
D03*
X056320Y023750D02*
D03*
X055420Y024050D02*
D03*
Y023750D02*
D03*
X055720D02*
D03*
X060020Y024750D02*
D03*
X059720D02*
D03*
Y024150D02*
D03*
Y023850D02*
D03*
X060020D02*
D03*
Y024150D02*
D03*
Y024450D02*
D03*
X059720D02*
D03*
X062747Y036200D02*
D03*
X053347D02*
D03*
X064096Y035400D02*
D03*
X059395D02*
D03*
X058047Y036200D02*
D03*
X065323Y029947D02*
D03*
X065717D02*
D03*
X065323Y029553D02*
D03*
X065717D02*
D03*
X054676Y035400D02*
D03*
X061320Y023300D02*
D03*
Y023000D02*
D03*
X054170Y040500D02*
D03*
Y040800D02*
D03*
X058870D02*
D03*
Y040500D02*
D03*
X063570Y040800D02*
D03*
Y040500D02*
D03*
X055457Y040800D02*
D03*
Y040500D02*
D03*
X060157Y040800D02*
D03*
Y040500D02*
D03*
X064857Y040800D02*
D03*
Y040500D02*
D03*
X062420Y036750D02*
D03*
X062670D02*
D03*
X062420Y036500D02*
D03*
X062670D02*
D03*
X057970D02*
D03*
X057720D02*
D03*
X057970Y036750D02*
D03*
X057720D02*
D03*
Y037000D02*
D03*
X057970D02*
D03*
X058920Y034950D02*
D03*
Y035200D02*
D03*
X063620Y034950D02*
D03*
Y035200D02*
D03*
X054220Y034950D02*
D03*
Y035200D02*
D03*
X057570Y038550D02*
D03*
X058570Y038800D02*
D03*
X058320D02*
D03*
X058070D02*
D03*
X057820D02*
D03*
X057570D02*
D03*
X057320D02*
D03*
X057070D02*
D03*
X058570Y038550D02*
D03*
X058320D02*
D03*
X058070D02*
D03*
X057820D02*
D03*
X057320D02*
D03*
X057070D02*
D03*
Y038300D02*
D03*
X057320D02*
D03*
X057570D02*
D03*
X057820D02*
D03*
X058070D02*
D03*
X058320D02*
D03*
X058570D02*
D03*
Y038050D02*
D03*
X058320D02*
D03*
X058070D02*
D03*
X057820D02*
D03*
X057570D02*
D03*
X057320D02*
D03*
X057070D02*
D03*
Y037800D02*
D03*
X058570D02*
D03*
X057320D02*
D03*
X057570D02*
D03*
X058320D02*
D03*
X058070D02*
D03*
X057820D02*
D03*
X062520Y038300D02*
D03*
X063270Y038800D02*
D03*
X062270Y038550D02*
D03*
X063020Y038800D02*
D03*
X062770D02*
D03*
X062520D02*
D03*
X062270D02*
D03*
X062020D02*
D03*
X061770D02*
D03*
X063270Y038550D02*
D03*
X063020D02*
D03*
X062770D02*
D03*
X062520D02*
D03*
X062020D02*
D03*
X061770D02*
D03*
Y038300D02*
D03*
X062020D02*
D03*
X062270D02*
D03*
X062770D02*
D03*
X063020D02*
D03*
X063270D02*
D03*
Y038050D02*
D03*
X063020D02*
D03*
X062770D02*
D03*
X062520D02*
D03*
X062270D02*
D03*
X062020D02*
D03*
X061770D02*
D03*
Y037800D02*
D03*
Y037550D02*
D03*
X063270Y037800D02*
D03*
Y037550D02*
D03*
X062020D02*
D03*
Y037800D02*
D03*
X062270D02*
D03*
Y037550D02*
D03*
X063020Y037800D02*
D03*
Y037550D02*
D03*
X062770Y037800D02*
D03*
Y037550D02*
D03*
X062520Y037800D02*
D03*
Y037550D02*
D03*
X057820Y039050D02*
D03*
X058070D02*
D03*
X058320D02*
D03*
X058570D02*
D03*
X057570D02*
D03*
X057320D02*
D03*
X057070D02*
D03*
X061770D02*
D03*
X062020D02*
D03*
X062270D02*
D03*
X062520D02*
D03*
X063020D02*
D03*
X063270D02*
D03*
X062770D02*
D03*
X057720Y037250D02*
D03*
X057970D02*
D03*
X066420Y039050D02*
D03*
Y038800D02*
D03*
Y038550D02*
D03*
Y038300D02*
D03*
Y037800D02*
D03*
Y037550D02*
D03*
Y038050D02*
D03*
X066920Y038800D02*
D03*
Y038050D02*
D03*
X066670D02*
D03*
Y037550D02*
D03*
X066920D02*
D03*
Y037800D02*
D03*
X066670D02*
D03*
Y038300D02*
D03*
X066920D02*
D03*
Y038550D02*
D03*
X066670D02*
D03*
Y038800D02*
D03*
Y039050D02*
D03*
X066920D02*
D03*
X053170D02*
D03*
Y038800D02*
D03*
Y038550D02*
D03*
Y038300D02*
D03*
Y037800D02*
D03*
Y037550D02*
D03*
Y038050D02*
D03*
X053670Y038800D02*
D03*
Y038050D02*
D03*
X053420D02*
D03*
Y037550D02*
D03*
X053670D02*
D03*
X053920D02*
D03*
Y037800D02*
D03*
X053670D02*
D03*
X053420D02*
D03*
X053920Y038050D02*
D03*
X053420Y038300D02*
D03*
X053670D02*
D03*
X053920D02*
D03*
Y038550D02*
D03*
X053670D02*
D03*
X053420D02*
D03*
X053920Y038800D02*
D03*
X053420D02*
D03*
Y039050D02*
D03*
X053670D02*
D03*
X053920D02*
D03*
X063270Y037300D02*
D03*
X063020D02*
D03*
X062770D02*
D03*
X062520D02*
D03*
X062270D02*
D03*
X057070Y037550D02*
D03*
X057320D02*
D03*
X053420Y029900D02*
D03*
Y028820D02*
D03*
X053343Y023650D02*
D03*
X053420Y025450D02*
D03*
X066070Y025250D02*
D03*
X059420Y022100D02*
D03*
X059670Y030450D02*
D03*
X061020Y028327D02*
D03*
X061372Y028844D02*
D03*
X061405Y028306D02*
D03*
X053620Y023350D02*
D03*
X059420Y024750D02*
D03*
Y025050D02*
D03*
X057074Y023200D02*
D03*
X057870D02*
D03*
M02*
