G04 Layer_Color=65535*
%FSAX24Y24*%
%MOIN*%
G70*
G01*
G75*
%ADD40C,0.0100*%
%ADD72C,0.0039*%
%ADD73C,0.0098*%
%ADD74C,0.0079*%
%ADD75C,0.0080*%
%ADD76C,0.0080*%
%ADD77C,0.0050*%
D40*
X053368Y036283D02*
G03*
X053368Y036283I-000039J000000D01*
G01*
X058268D02*
G03*
X058268Y036283I-000039J000000D01*
G01*
X063168D02*
G03*
X063168Y036283I-000039J000000D01*
G01*
X054322Y035272D02*
G03*
X054322Y035272I-000039J000000D01*
G01*
X059222D02*
G03*
X059222Y035272I-000039J000000D01*
G01*
X064122D02*
G03*
X064122Y035272I-000039J000000D01*
G01*
X058464Y026258D02*
X058936D01*
X058464Y028542D02*
X058936D01*
X060575Y025775D02*
X061800D01*
X063400D02*
X064625D01*
Y029825D01*
X063400D02*
X064625D01*
X060575Y025775D02*
Y029825D01*
X061800D01*
X053565Y039078D02*
X056635D01*
X053565Y036322D02*
X056635D01*
X058465D02*
X061535D01*
X058465Y039078D02*
X061535D01*
X063365D02*
X066435D01*
X063365Y036322D02*
X066435D01*
X054322Y031965D02*
Y035035D01*
X057078Y031965D02*
Y035035D01*
X061978Y031965D02*
Y035035D01*
X059222Y031965D02*
Y035035D01*
X064122Y031965D02*
Y035035D01*
X066878Y031965D02*
Y035035D01*
X052620Y030600D02*
Y031000D01*
X052820D01*
X052886Y030933D01*
Y030800D01*
X052820Y030733D01*
X052620D01*
X052753D02*
X052886Y030600D01*
X053286Y031000D02*
X053020D01*
Y030600D01*
X053286D01*
X053020Y030800D02*
X053153D01*
X053686Y030933D02*
X053620Y031000D01*
X053486D01*
X053420Y030933D01*
Y030867D01*
X053486Y030800D01*
X053620D01*
X053686Y030733D01*
Y030667D01*
X053620Y030600D01*
X053486D01*
X053420Y030667D01*
X054086Y031000D02*
X053820D01*
Y030600D01*
X054086D01*
X053820Y030800D02*
X053953D01*
X054219Y031000D02*
X054486D01*
X054353D01*
Y030600D01*
X052820Y029000D02*
Y028600D01*
X053020D01*
X053086Y028667D01*
Y028733D01*
X053020Y028800D01*
X052820D01*
X053020D01*
X053086Y028867D01*
Y028933D01*
X053020Y029000D01*
X052820D01*
X053420D02*
X053286D01*
X053220Y028933D01*
Y028667D01*
X053286Y028600D01*
X053420D01*
X053486Y028667D01*
Y028933D01*
X053420Y029000D01*
X053820D02*
X053686D01*
X053620Y028933D01*
Y028667D01*
X053686Y028600D01*
X053820D01*
X053886Y028667D01*
Y028933D01*
X053820Y029000D01*
X054020D02*
X054286D01*
X054153D01*
Y028600D01*
X059467Y021067D02*
X059400Y021000D01*
Y020867D01*
X059467Y020800D01*
X059733D01*
X059800Y020867D01*
Y021000D01*
X059733Y021067D01*
X059800Y021200D02*
X059533D01*
X059400Y021333D01*
X059533Y021466D01*
X059800D01*
X059600D01*
Y021200D01*
X059800Y021600D02*
X059400D01*
X059800Y021866D01*
X059400D01*
X054567Y021067D02*
X054500Y021000D01*
Y020867D01*
X054567Y020800D01*
X054833D01*
X054900Y020867D01*
Y021000D01*
X054833Y021067D01*
X054500Y021400D02*
Y021267D01*
X054567Y021200D01*
X054833D01*
X054900Y021267D01*
Y021400D01*
X054833Y021466D01*
X054567D01*
X054500Y021400D01*
X054900Y021600D02*
X054500D01*
X054633Y021733D01*
X054500Y021866D01*
X054900D01*
Y022000D02*
X054500D01*
X054633Y022133D01*
X054500Y022266D01*
X054900D01*
X064667Y025400D02*
X064400D01*
Y025000D01*
X064667D01*
X064400Y025200D02*
X064533D01*
X064800Y025000D02*
Y025400D01*
X065066Y025000D01*
Y025400D01*
X065466Y025333D02*
X065400Y025400D01*
X065266D01*
X065200Y025333D01*
Y025067D01*
X065266Y025000D01*
X065400D01*
X065466Y025067D01*
X065800Y025400D02*
X065666D01*
X065600Y025333D01*
Y025067D01*
X065666Y025000D01*
X065800D01*
X065866Y025067D01*
Y025333D01*
X065800Y025400D01*
X065999D02*
Y025000D01*
X066199D01*
X066266Y025067D01*
Y025333D01*
X066199Y025400D01*
X065999D01*
X066666D02*
X066399D01*
Y025000D01*
X066666D01*
X066399Y025200D02*
X066533D01*
X066799Y025000D02*
Y025400D01*
X066999D01*
X067066Y025333D01*
Y025200D01*
X066999Y025133D01*
X066799D01*
X066933D02*
X067066Y025000D01*
D72*
X058299Y029497D02*
G03*
X058299Y029497I-000020J000000D01*
G01*
X063789Y035145D02*
G03*
X063789Y035145I-000020J000000D01*
G01*
X058889D02*
G03*
X058889Y035145I-000020J000000D01*
G01*
X053989D02*
G03*
X053989Y035145I-000020J000000D01*
G01*
D73*
X065293Y029889D02*
G03*
X065293Y029889I-000049J000000D01*
G01*
X058856Y024656D02*
G03*
X058856Y024656I-000049J000000D01*
G01*
D74*
X058372Y024983D02*
Y025417D01*
X057428Y024983D02*
Y025417D01*
X058583Y023228D02*
X059017D01*
X058583Y024172D02*
X059017D01*
X059244Y029005D02*
Y029103D01*
X058496Y029005D02*
Y029103D01*
X059244Y029497D02*
Y029595D01*
X058496Y029497D02*
Y029595D01*
Y029005D02*
X059244D01*
X058496Y029595D02*
X059244D01*
X065706Y028590D02*
X066494D01*
X065706Y029810D02*
X066494D01*
X066980Y030043D02*
X067020D01*
X066980Y030357D02*
X067020D01*
X065529Y028004D02*
X066671D01*
X065529Y025996D02*
X066671D01*
X066280Y030838D02*
X066320D01*
X066280Y030562D02*
X066320D01*
X062313Y033413D02*
Y033789D01*
Y034611D02*
Y034987D01*
X063887Y033413D02*
Y033789D01*
Y034611D02*
Y034987D01*
X062313Y033413D02*
X062431D01*
X063769D02*
X063887D01*
X062313Y034987D02*
X062431D01*
X063769D02*
X063887D01*
X057413Y033413D02*
Y033789D01*
Y034611D02*
Y034987D01*
X058987Y033413D02*
Y033789D01*
Y034611D02*
Y034987D01*
X057413Y033413D02*
X057531D01*
X058869D02*
X058987D01*
X057413Y034987D02*
X057531D01*
X058869D02*
X058987D01*
X052513Y033413D02*
Y033789D01*
Y034611D02*
Y034987D01*
X054087Y033413D02*
Y033789D01*
Y034611D02*
Y034987D01*
X052513Y033413D02*
X052631D01*
X053969D02*
X054087D01*
X052513Y034987D02*
X052631D01*
X053969D02*
X054087D01*
X058609Y025224D02*
Y025576D01*
X059791Y025224D02*
Y025576D01*
X053008Y027249D02*
X054032D01*
Y028351D01*
X053008Y027249D02*
Y028351D01*
X054032D01*
X053008Y030351D02*
X054032D01*
X053008Y029249D02*
Y030351D01*
X054032Y029249D02*
Y030351D01*
X053008Y029249D02*
X054032D01*
X053980Y035538D02*
X054020D01*
X053980Y035262D02*
X054020D01*
X058880Y035538D02*
X058920D01*
X058880Y035262D02*
X058920D01*
X063780Y035538D02*
X063820D01*
X063780Y035262D02*
X063820D01*
D75*
X060057Y023031D02*
Y024800D01*
X067143D01*
X063994Y023031D02*
X067143D01*
X063206Y023218D02*
X063994D01*
Y023031D02*
Y023218D01*
X067143Y023031D02*
Y024800D01*
X063206Y023031D02*
Y023218D01*
X060057Y023031D02*
X063206D01*
X055151Y020822D02*
Y022600D01*
X059068D01*
X057494Y020822D02*
X059068D01*
X055151D02*
X056706D01*
Y021018D02*
X057494D01*
Y020822D02*
Y021018D01*
X056706Y020822D02*
Y021018D01*
X059068Y020822D02*
Y022600D01*
X055100Y024500D02*
X056100Y023500D01*
X055760D02*
X056100D01*
X056440D01*
X055750Y025500D02*
X056420D01*
X055079Y023510D02*
X055168D01*
X055079D02*
Y025468D01*
X055080D01*
Y025488D01*
X055187D01*
X057040Y023510D02*
X057130D01*
Y025460D01*
X057140D01*
Y025480D01*
X057040D02*
X057140D01*
X055980Y026600D02*
X056218Y026836D01*
Y026360D02*
Y026836D01*
X055980Y026600D02*
X056218Y026360D01*
X055980Y026600D02*
Y026876D01*
Y026320D02*
Y026600D01*
X055150Y026994D02*
X055700D01*
X055150Y026200D02*
Y026994D01*
Y026200D02*
X055700D01*
X056494Y026994D02*
X057045D01*
Y026200D02*
Y026994D01*
X056494Y026200D02*
X057045D01*
X060039Y020822D02*
Y022600D01*
X062381D01*
X061594Y020822D02*
X062381D01*
X060806Y021018D02*
X061594D01*
Y020822D02*
Y021018D01*
X060806Y020822D02*
Y021018D01*
X062381Y020822D02*
Y022600D01*
X065081Y020822D02*
Y022600D01*
X063506Y020822D02*
Y021018D01*
X064294Y020822D02*
Y021018D01*
X063506D02*
X064294D01*
Y020822D02*
X065081D01*
X062739Y022600D02*
X065081D01*
X062739Y020822D02*
Y022600D01*
X053320Y026239D02*
X053950D01*
Y025766D02*
Y026239D01*
Y023560D02*
Y024030D01*
X053320Y023560D02*
X053950D01*
X052249D02*
Y026239D01*
X053400Y025766D02*
X053950D01*
X053400Y024030D02*
Y025766D01*
Y024030D02*
X053950D01*
D76*
X060039Y020822D02*
X060806D01*
X062739D02*
X063506D01*
D77*
X062270Y036400D02*
Y036600D01*
X062370D01*
X062403Y036567D01*
Y036500D01*
X062370Y036467D01*
X062270D01*
X062337D02*
X062403Y036400D01*
X062470D02*
X062536D01*
X062503D01*
Y036600D01*
X062470Y036567D01*
X062770Y036600D02*
X062636D01*
Y036500D01*
X062703Y036533D01*
X062736D01*
X062770Y036500D01*
Y036433D01*
X062736Y036400D01*
X062670D01*
X062636Y036433D01*
X057370Y036400D02*
Y036600D01*
X057470D01*
X057503Y036567D01*
Y036500D01*
X057470Y036467D01*
X057370D01*
X057437D02*
X057503Y036400D01*
X057570D02*
X057636D01*
X057603D01*
Y036600D01*
X057570Y036567D01*
X057836Y036400D02*
Y036600D01*
X057736Y036500D01*
X057870D01*
X052370Y035900D02*
X052170D01*
Y036000D01*
X052203Y036033D01*
X052270D01*
X052303Y036000D01*
Y035900D01*
Y035967D02*
X052370Y036033D01*
Y036100D02*
Y036167D01*
Y036133D01*
X052170D01*
X052203Y036100D01*
Y036267D02*
X052170Y036300D01*
Y036367D01*
X052203Y036400D01*
X052237D01*
X052270Y036367D01*
Y036333D01*
Y036367D01*
X052303Y036400D01*
X052337D01*
X052370Y036367D01*
Y036300D01*
X052337Y036267D01*
X061770Y035700D02*
Y035900D01*
X061870D01*
X061903Y035867D01*
Y035800D01*
X061870Y035767D01*
X061770D01*
X061837D02*
X061903Y035700D01*
X061970Y035733D02*
X062003Y035700D01*
X062070D01*
X062103Y035733D01*
Y035867D01*
X062070Y035900D01*
X062003D01*
X061970Y035867D01*
Y035833D01*
X062003Y035800D01*
X062103D01*
X056870Y035700D02*
Y035900D01*
X056970D01*
X057003Y035867D01*
Y035800D01*
X056970Y035767D01*
X056870D01*
X056937D02*
X057003Y035700D01*
X057070Y035867D02*
X057103Y035900D01*
X057170D01*
X057203Y035867D01*
Y035833D01*
X057170Y035800D01*
X057203Y035767D01*
Y035733D01*
X057170Y035700D01*
X057103D01*
X057070Y035733D01*
Y035767D01*
X057103Y035800D01*
X057070Y035833D01*
Y035867D01*
X057103Y035800D02*
X057170D01*
X053220Y035700D02*
X053020D01*
Y035800D01*
X053053Y035833D01*
X053120D01*
X053153Y035800D01*
Y035700D01*
Y035767D02*
X053220Y035833D01*
X053020Y035900D02*
Y036033D01*
X053053D01*
X053187Y035900D01*
X053220D01*
X054720Y022800D02*
Y023000D01*
X054820D01*
X054853Y022967D01*
Y022900D01*
X054820Y022867D01*
X054720D01*
X054787D02*
X054853Y022800D01*
X055053D02*
X054920D01*
X055053Y022933D01*
Y022967D01*
X055020Y023000D01*
X054953D01*
X054920Y022967D01*
X055253Y023000D02*
X055120D01*
Y022900D01*
X055186Y022933D01*
X055220D01*
X055253Y022900D01*
Y022833D01*
X055220Y022800D01*
X055153D01*
X055120Y022833D01*
X054020Y022800D02*
Y023000D01*
X054120D01*
X054153Y022967D01*
Y022900D01*
X054120Y022867D01*
X054020D01*
X054087D02*
X054153Y022800D01*
X054353D02*
X054220D01*
X054353Y022933D01*
Y022967D01*
X054320Y023000D01*
X054253D01*
X054220Y022967D01*
X054520Y022800D02*
Y023000D01*
X054420Y022900D01*
X054553D01*
X063103Y035867D02*
X063070Y035900D01*
X063003D01*
X062970Y035867D01*
Y035733D01*
X063003Y035700D01*
X063070D01*
X063103Y035733D01*
X063170Y035867D02*
X063203Y035900D01*
X063270D01*
X063303Y035867D01*
Y035833D01*
X063270Y035800D01*
X063236D01*
X063270D01*
X063303Y035767D01*
Y035733D01*
X063270Y035700D01*
X063203D01*
X063170Y035733D01*
X063503Y035900D02*
X063370D01*
Y035800D01*
X063436Y035833D01*
X063470D01*
X063503Y035800D01*
Y035733D01*
X063470Y035700D01*
X063403D01*
X063370Y035733D01*
X058203Y035867D02*
X058170Y035900D01*
X058103D01*
X058070Y035867D01*
Y035733D01*
X058103Y035700D01*
X058170D01*
X058203Y035733D01*
X058270Y035867D02*
X058303Y035900D01*
X058370D01*
X058403Y035867D01*
Y035833D01*
X058370Y035800D01*
X058336D01*
X058370D01*
X058403Y035767D01*
Y035733D01*
X058370Y035700D01*
X058303D01*
X058270Y035733D01*
X058570Y035700D02*
Y035900D01*
X058470Y035800D01*
X058603D01*
X053353Y035433D02*
X053320Y035400D01*
Y035333D01*
X053353Y035300D01*
X053487D01*
X053520Y035333D01*
Y035400D01*
X053487Y035433D01*
X053353Y035500D02*
X053320Y035533D01*
Y035600D01*
X053353Y035633D01*
X053387D01*
X053420Y035600D01*
Y035567D01*
Y035600D01*
X053453Y035633D01*
X053487D01*
X053520Y035600D01*
Y035533D01*
X053487Y035500D01*
X053353Y035700D02*
X053320Y035733D01*
Y035800D01*
X053353Y035833D01*
X053387D01*
X053420Y035800D01*
Y035767D01*
Y035800D01*
X053453Y035833D01*
X053487D01*
X053520Y035800D01*
Y035733D01*
X053487Y035700D01*
X063870Y032200D02*
X063670D01*
X063620Y032150D01*
Y032050D01*
X063670Y032000D01*
X063870D01*
X063920Y032050D01*
Y032150D01*
X063820Y032100D02*
X063920Y032200D01*
Y032150D02*
X063870Y032200D01*
X063620Y032500D02*
X063670Y032400D01*
X063770Y032300D01*
X063870D01*
X063920Y032350D01*
Y032450D01*
X063870Y032500D01*
X063820D01*
X063770Y032450D01*
Y032300D01*
X058970Y032200D02*
X058770D01*
X058720Y032150D01*
Y032050D01*
X058770Y032000D01*
X058970D01*
X059020Y032050D01*
Y032150D01*
X058920Y032100D02*
X059020Y032200D01*
Y032150D02*
X058970Y032200D01*
X058720Y032500D02*
Y032300D01*
X058870D01*
X058820Y032400D01*
Y032450D01*
X058870Y032500D01*
X058970D01*
X059020Y032450D01*
Y032350D01*
X058970Y032300D01*
X054070Y032200D02*
X053870D01*
X053820Y032150D01*
Y032050D01*
X053870Y032000D01*
X054070D01*
X054120Y032050D01*
Y032150D01*
X054020Y032100D02*
X054120Y032200D01*
Y032150D02*
X054070Y032200D01*
X054120Y032450D02*
X053820D01*
X053970Y032300D01*
Y032500D01*
X063320Y039350D02*
Y039550D01*
X063270Y039600D01*
X063170D01*
X063120Y039550D01*
Y039350D01*
X063170Y039300D01*
X063270D01*
X063220Y039400D02*
X063320Y039300D01*
X063270D02*
X063320Y039350D01*
X063420Y039550D02*
X063470Y039600D01*
X063570D01*
X063620Y039550D01*
Y039500D01*
X063570Y039450D01*
X063520D01*
X063570D01*
X063620Y039400D01*
Y039350D01*
X063570Y039300D01*
X063470D01*
X063420Y039350D01*
X058420D02*
Y039550D01*
X058370Y039600D01*
X058270D01*
X058220Y039550D01*
Y039350D01*
X058270Y039300D01*
X058370D01*
X058320Y039400D02*
X058420Y039300D01*
X058370D02*
X058420Y039350D01*
X058720Y039300D02*
X058520D01*
X058720Y039500D01*
Y039550D01*
X058670Y039600D01*
X058570D01*
X058520Y039550D01*
X053620Y039350D02*
Y039550D01*
X053570Y039600D01*
X053470D01*
X053420Y039550D01*
Y039350D01*
X053470Y039300D01*
X053570D01*
X053520Y039400D02*
X053620Y039300D01*
X053570D02*
X053620Y039350D01*
X053720Y039300D02*
X053820D01*
X053770D01*
Y039600D01*
X053720Y039550D01*
X054603Y035967D02*
X054570Y036000D01*
X054503D01*
X054470Y035967D01*
Y035833D01*
X054503Y035800D01*
X054570D01*
X054603Y035833D01*
X054670Y035800D02*
X054736D01*
X054703D01*
Y036000D01*
X054670Y035967D01*
X054836D02*
X054870Y036000D01*
X054936D01*
X054970Y035967D01*
Y035933D01*
X054936Y035900D01*
X054970Y035867D01*
Y035833D01*
X054936Y035800D01*
X054870D01*
X054836Y035833D01*
Y035867D01*
X054870Y035900D01*
X054836Y035933D01*
Y035967D01*
X054870Y035900D02*
X054936D01*
X059503Y035967D02*
X059470Y036000D01*
X059403D01*
X059370Y035967D01*
Y035833D01*
X059403Y035800D01*
X059470D01*
X059503Y035833D01*
X059570Y035800D02*
X059636D01*
X059603D01*
Y036000D01*
X059570Y035967D01*
X059736Y035833D02*
X059770Y035800D01*
X059836D01*
X059870Y035833D01*
Y035967D01*
X059836Y036000D01*
X059770D01*
X059736Y035967D01*
Y035933D01*
X059770Y035900D01*
X059870D01*
X064403Y035967D02*
X064370Y036000D01*
X064303D01*
X064270Y035967D01*
Y035833D01*
X064303Y035800D01*
X064370D01*
X064403Y035833D01*
X064603Y035800D02*
X064470D01*
X064603Y035933D01*
Y035967D01*
X064570Y036000D01*
X064503D01*
X064470Y035967D01*
X064670D02*
X064703Y036000D01*
X064770D01*
X064803Y035967D01*
Y035833D01*
X064770Y035800D01*
X064703D01*
X064670Y035833D01*
Y035967D01*
X056492Y027508D02*
Y027708D01*
X056592D01*
X056626Y027675D01*
Y027608D01*
X056592Y027575D01*
X056492D01*
X056559D02*
X056626Y027508D01*
X056692D02*
X056759D01*
X056726D01*
Y027708D01*
X056692Y027675D01*
X054420Y025500D02*
Y025700D01*
X054520D01*
X054553Y025667D01*
Y025600D01*
X054520Y025567D01*
X054420D01*
X054487D02*
X054553Y025500D01*
X054753D02*
X054620D01*
X054753Y025633D01*
Y025667D01*
X054720Y025700D01*
X054653D01*
X054620Y025667D01*
X054420Y024500D02*
Y024700D01*
X054520D01*
X054553Y024667D01*
Y024600D01*
X054520Y024567D01*
X054420D01*
X054487D02*
X054553Y024500D01*
X054620Y024667D02*
X054653Y024700D01*
X054720D01*
X054753Y024667D01*
Y024633D01*
X054720Y024600D01*
X054686D01*
X054720D01*
X054753Y024567D01*
Y024533D01*
X054720Y024500D01*
X054653D01*
X054620Y024533D01*
X053920Y026600D02*
Y026800D01*
X054020D01*
X054053Y026767D01*
Y026700D01*
X054020Y026667D01*
X053920D01*
X053987D02*
X054053Y026600D01*
X054253Y026800D02*
X054120D01*
Y026700D01*
X054186Y026733D01*
X054220D01*
X054253Y026700D01*
Y026633D01*
X054220Y026600D01*
X054153D01*
X054120Y026633D01*
X059920Y025000D02*
X060087D01*
X060120Y025033D01*
Y025100D01*
X060087Y025133D01*
X059920D01*
X059953Y025200D02*
X059920Y025233D01*
Y025300D01*
X059953Y025333D01*
X059987D01*
X060020Y025300D01*
Y025267D01*
Y025300D01*
X060053Y025333D01*
X060087D01*
X060120Y025300D01*
Y025233D01*
X060087Y025200D01*
X052520Y033100D02*
Y032933D01*
X052553Y032900D01*
X052620D01*
X052653Y032933D01*
Y033100D01*
X052820Y032900D02*
Y033100D01*
X052720Y033000D01*
X052853D01*
X057420Y033100D02*
Y032933D01*
X057453Y032900D01*
X057520D01*
X057553Y032933D01*
Y033100D01*
X057753D02*
X057620D01*
Y033000D01*
X057686Y033033D01*
X057720D01*
X057753Y033000D01*
Y032933D01*
X057720Y032900D01*
X057653D01*
X057620Y032933D01*
X062320Y033100D02*
Y032933D01*
X062353Y032900D01*
X062420D01*
X062453Y032933D01*
Y033100D01*
X062653D02*
X062586Y033067D01*
X062520Y033000D01*
Y032933D01*
X062553Y032900D01*
X062620D01*
X062653Y032933D01*
Y032967D01*
X062620Y033000D01*
X062520D01*
X055453Y028767D02*
X055420Y028800D01*
X055353D01*
X055320Y028767D01*
Y028633D01*
X055353Y028600D01*
X055420D01*
X055453Y028633D01*
X055520Y028767D02*
X055553Y028800D01*
X055620D01*
X055653Y028767D01*
Y028733D01*
X055620Y028700D01*
X055586D01*
X055620D01*
X055653Y028667D01*
Y028633D01*
X055620Y028600D01*
X055553D01*
X055520Y028633D01*
X055720Y028767D02*
X055753Y028800D01*
X055820D01*
X055853Y028767D01*
Y028733D01*
X055820Y028700D01*
X055853Y028667D01*
Y028633D01*
X055820Y028600D01*
X055753D01*
X055720Y028633D01*
Y028667D01*
X055753Y028700D01*
X055720Y028733D01*
Y028767D01*
X055753Y028700D02*
X055820D01*
X057170Y030700D02*
X056970D01*
Y030800D01*
X057003Y030833D01*
X057070D01*
X057103Y030800D01*
Y030700D01*
Y030767D02*
X057170Y030833D01*
Y031033D02*
Y030900D01*
X057037Y031033D01*
X057003D01*
X056970Y031000D01*
Y030933D01*
X057003Y030900D01*
X056970Y031233D02*
X057003Y031167D01*
X057070Y031100D01*
X057137D01*
X057170Y031133D01*
Y031200D01*
X057137Y031233D01*
X057103D01*
X057070Y031200D01*
Y031100D01*
X056170Y030700D02*
X055970D01*
Y030800D01*
X056003Y030833D01*
X056070D01*
X056103Y030800D01*
Y030700D01*
Y030767D02*
X056170Y030833D01*
Y031033D02*
Y030900D01*
X056037Y031033D01*
X056003D01*
X055970Y031000D01*
Y030933D01*
X056003Y030900D01*
X055970Y031100D02*
Y031233D01*
X056003D01*
X056137Y031100D01*
X056170D01*
X057453Y024267D02*
X057420Y024300D01*
X057353D01*
X057320Y024267D01*
Y024133D01*
X057353Y024100D01*
X057420D01*
X057453Y024133D01*
X057620Y024100D02*
Y024300D01*
X057520Y024200D01*
X057653D01*
X057720Y024100D02*
X057786D01*
X057753D01*
Y024300D01*
X057720Y024267D01*
X060053Y026233D02*
X060020Y026200D01*
Y026133D01*
X060053Y026100D01*
X060187D01*
X060220Y026133D01*
Y026200D01*
X060187Y026233D01*
X060220Y026400D02*
X060020D01*
X060120Y026300D01*
Y026433D01*
X060220Y026633D02*
Y026500D01*
X060087Y026633D01*
X060053D01*
X060020Y026600D01*
Y026533D01*
X060053Y026500D01*
X057753Y023533D02*
X057720Y023500D01*
Y023433D01*
X057753Y023400D01*
X057887D01*
X057920Y023433D01*
Y023500D01*
X057887Y023533D01*
X057920Y023700D02*
X057720D01*
X057820Y023600D01*
Y023733D01*
X057753Y023800D02*
X057720Y023833D01*
Y023900D01*
X057753Y023933D01*
X057787D01*
X057820Y023900D01*
Y023867D01*
Y023900D01*
X057853Y023933D01*
X057887D01*
X057920Y023900D01*
Y023833D01*
X057887Y023800D01*
X059753Y023953D02*
X059720Y023920D01*
Y023853D01*
X059753Y023820D01*
X059887D01*
X059920Y023853D01*
Y023920D01*
X059887Y023953D01*
X059920Y024120D02*
X059720D01*
X059820Y024020D01*
Y024153D01*
X059920Y024320D02*
X059720D01*
X059820Y024220D01*
Y024353D01*
X058270Y030000D02*
Y029800D01*
X058370D01*
X058403Y029833D01*
Y029967D01*
X058370Y030000D01*
X058270D01*
X058470Y029800D02*
X058536D01*
X058503D01*
Y030000D01*
X058470Y029967D01*
X058636Y029800D02*
X058703D01*
X058670D01*
Y030000D01*
X058636Y029967D01*
X057620Y029100D02*
Y028800D01*
X057820D01*
X058120D02*
X057920D01*
X058120Y029000D01*
Y029050D01*
X058070Y029100D01*
X057970D01*
X057920Y029050D01*
X052620Y035100D02*
X052420D01*
Y035200D01*
X052453Y035233D01*
X052520D01*
X052553Y035200D01*
Y035100D01*
Y035167D02*
X052620Y035233D01*
Y035433D02*
Y035300D01*
X052487Y035433D01*
X052453D01*
X052420Y035400D01*
Y035333D01*
X052453Y035300D01*
Y035500D02*
X052420Y035533D01*
Y035600D01*
X052453Y035633D01*
X052487D01*
X052520Y035600D01*
X052553Y035633D01*
X052587D01*
X052620Y035600D01*
Y035533D01*
X052587Y035500D01*
X052553D01*
X052520Y035533D01*
X052487Y035500D01*
X052453D01*
X052520Y035533D02*
Y035600D01*
X057020Y035300D02*
Y035500D01*
X057120D01*
X057153Y035467D01*
Y035400D01*
X057120Y035367D01*
X057020D01*
X057087D02*
X057153Y035300D01*
X057353D02*
X057220D01*
X057353Y035433D01*
Y035467D01*
X057320Y035500D01*
X057253D01*
X057220Y035467D01*
X057420Y035333D02*
X057453Y035300D01*
X057520D01*
X057553Y035333D01*
Y035467D01*
X057520Y035500D01*
X057453D01*
X057420Y035467D01*
Y035433D01*
X057453Y035400D01*
X057553D01*
X061920Y035300D02*
Y035500D01*
X062020D01*
X062053Y035467D01*
Y035400D01*
X062020Y035367D01*
X061920D01*
X061987D02*
X062053Y035300D01*
X062120Y035467D02*
X062153Y035500D01*
X062220D01*
X062253Y035467D01*
Y035433D01*
X062220Y035400D01*
X062186D01*
X062220D01*
X062253Y035367D01*
Y035333D01*
X062220Y035300D01*
X062153D01*
X062120Y035333D01*
X062320Y035467D02*
X062353Y035500D01*
X062420D01*
X062453Y035467D01*
Y035333D01*
X062420Y035300D01*
X062353D01*
X062320Y035333D01*
Y035467D01*
X053520Y032600D02*
X053320D01*
Y032700D01*
X053353Y032733D01*
X053420D01*
X053453Y032700D01*
Y032600D01*
Y032667D02*
X053520Y032733D01*
X053353Y032800D02*
X053320Y032833D01*
Y032900D01*
X053353Y032933D01*
X053387D01*
X053420Y032900D01*
Y032867D01*
Y032900D01*
X053453Y032933D01*
X053487D01*
X053520Y032900D01*
Y032833D01*
X053487Y032800D01*
X053520Y033000D02*
Y033067D01*
Y033033D01*
X053320D01*
X053353Y033000D01*
X058420Y032600D02*
X058220D01*
Y032700D01*
X058253Y032733D01*
X058320D01*
X058353Y032700D01*
Y032600D01*
Y032667D02*
X058420Y032733D01*
X058253Y032800D02*
X058220Y032833D01*
Y032900D01*
X058253Y032933D01*
X058287D01*
X058320Y032900D01*
Y032867D01*
Y032900D01*
X058353Y032933D01*
X058387D01*
X058420Y032900D01*
Y032833D01*
X058387Y032800D01*
X058420Y033133D02*
Y033000D01*
X058287Y033133D01*
X058253D01*
X058220Y033100D01*
Y033033D01*
X058253Y033000D01*
X063320Y032600D02*
X063120D01*
Y032700D01*
X063153Y032733D01*
X063220D01*
X063253Y032700D01*
Y032600D01*
Y032667D02*
X063320Y032733D01*
X063153Y032800D02*
X063120Y032833D01*
Y032900D01*
X063153Y032933D01*
X063187D01*
X063220Y032900D01*
Y032867D01*
Y032900D01*
X063253Y032933D01*
X063287D01*
X063320Y032900D01*
Y032833D01*
X063287Y032800D01*
X063153Y033000D02*
X063120Y033033D01*
Y033100D01*
X063153Y033133D01*
X063187D01*
X063220Y033100D01*
Y033067D01*
Y033100D01*
X063253Y033133D01*
X063287D01*
X063320Y033100D01*
Y033033D01*
X063287Y033000D01*
X064420Y030000D02*
X064220D01*
Y030100D01*
X064253Y030133D01*
X064320D01*
X064353Y030100D01*
Y030000D01*
Y030067D02*
X064420Y030133D01*
Y030333D02*
Y030200D01*
X064287Y030333D01*
X064253D01*
X064220Y030300D01*
Y030233D01*
X064253Y030200D01*
X064420Y030400D02*
Y030467D01*
Y030433D01*
X064220D01*
X064253Y030400D01*
X066053Y031167D02*
X066020Y031200D01*
X065953D01*
X065920Y031167D01*
Y031033D01*
X065953Y031000D01*
X066020D01*
X066053Y031033D01*
X066253Y031000D02*
X066120D01*
X066253Y031133D01*
Y031167D01*
X066220Y031200D01*
X066153D01*
X066120Y031167D01*
X066320Y031033D02*
X066353Y031000D01*
X066420D01*
X066453Y031033D01*
Y031167D01*
X066420Y031200D01*
X066353D01*
X066320Y031167D01*
Y031133D01*
X066353Y031100D01*
X066453D01*
X065053Y028367D02*
X065020Y028400D01*
X064953D01*
X064920Y028367D01*
Y028233D01*
X064953Y028200D01*
X065020D01*
X065053Y028233D01*
X065253Y028200D02*
X065120D01*
X065253Y028333D01*
Y028367D01*
X065220Y028400D01*
X065153D01*
X065120Y028367D01*
X065420Y028200D02*
Y028400D01*
X065320Y028300D01*
X065453D01*
X064753Y031267D02*
X064720Y031300D01*
X064653D01*
X064620Y031267D01*
Y031133D01*
X064653Y031100D01*
X064720D01*
X064753Y031133D01*
X064953Y031100D02*
X064820D01*
X064953Y031233D01*
Y031267D01*
X064920Y031300D01*
X064853D01*
X064820Y031267D01*
X065020D02*
X065053Y031300D01*
X065120D01*
X065153Y031267D01*
Y031233D01*
X065120Y031200D01*
X065086D01*
X065120D01*
X065153Y031167D01*
Y031133D01*
X065120Y031100D01*
X065053D01*
X065020Y031133D01*
X067153Y030667D02*
X067120Y030700D01*
X067053D01*
X067020Y030667D01*
Y030533D01*
X067053Y030500D01*
X067120D01*
X067153Y030533D01*
X067220Y030500D02*
X067286D01*
X067253D01*
Y030700D01*
X067220Y030667D01*
X067386Y030500D02*
X067453D01*
X067420D01*
Y030700D01*
X067386Y030667D01*
X060600Y030379D02*
Y030079D01*
X060800D01*
X060900D02*
X061000D01*
X060950D01*
Y030379D01*
X060900Y030329D01*
X065320Y031100D02*
Y031300D01*
X065420D01*
X065453Y031267D01*
Y031200D01*
X065420Y031167D01*
X065320D01*
X065387D02*
X065453Y031100D01*
X065620D02*
Y031300D01*
X065520Y031200D01*
X065653D01*
X065520Y030100D02*
Y029933D01*
X065553Y029900D01*
X065620D01*
X065653Y029933D01*
Y030100D01*
X065853Y029900D02*
X065720D01*
X065853Y030033D01*
Y030067D01*
X065820Y030100D01*
X065753D01*
X065720Y030067D01*
X064203Y020667D02*
X064170Y020700D01*
X064103D01*
X064070Y020667D01*
Y020533D01*
X064103Y020500D01*
X064170D01*
X064203Y020533D01*
X064270Y020500D02*
Y020633D01*
X064336Y020700D01*
X064403Y020633D01*
Y020500D01*
Y020600D01*
X064270D01*
X064470Y020500D02*
Y020700D01*
X064603Y020500D01*
Y020700D01*
X064670D02*
Y020500D01*
X064803D01*
X063103Y020667D02*
X063070Y020700D01*
X063003D01*
X062970Y020667D01*
Y020533D01*
X063003Y020500D01*
X063070D01*
X063103Y020533D01*
X063170Y020500D02*
Y020633D01*
X063236Y020700D01*
X063303Y020633D01*
Y020500D01*
Y020600D01*
X063170D01*
X063370Y020500D02*
Y020700D01*
X063503Y020500D01*
Y020700D01*
X063570D02*
Y020500D01*
Y020600D01*
X063703D01*
Y020700D01*
Y020500D01*
X061503Y020667D02*
X061470Y020700D01*
X061403D01*
X061370Y020667D01*
Y020533D01*
X061403Y020500D01*
X061470D01*
X061503Y020533D01*
X061570Y020500D02*
Y020633D01*
X061636Y020700D01*
X061703Y020633D01*
Y020500D01*
Y020600D01*
X061570D01*
X061770Y020500D02*
Y020700D01*
X061903Y020500D01*
Y020700D01*
X061970D02*
Y020500D01*
X062103D01*
X060403Y020667D02*
X060370Y020700D01*
X060303D01*
X060270Y020667D01*
Y020533D01*
X060303Y020500D01*
X060370D01*
X060403Y020533D01*
X060470Y020500D02*
Y020633D01*
X060536Y020700D01*
X060603Y020633D01*
Y020500D01*
Y020600D01*
X060470D01*
X060670Y020500D02*
Y020700D01*
X060803Y020500D01*
Y020700D01*
X060870D02*
Y020500D01*
Y020600D01*
X061003D01*
Y020700D01*
Y020500D01*
X057353Y022867D02*
X057320Y022900D01*
X057253D01*
X057220Y022867D01*
Y022833D01*
X057253Y022800D01*
X057320D01*
X057353Y022767D01*
Y022733D01*
X057320Y022700D01*
X057253D01*
X057220Y022733D01*
X057420Y022900D02*
Y022700D01*
X057520D01*
X057553Y022733D01*
Y022867D01*
X057520Y022900D01*
X057420D01*
X057620Y022700D02*
Y022833D01*
X057686Y022900D01*
X057753Y022833D01*
Y022700D01*
Y022800D01*
X057620D01*
X056553Y022867D02*
X056520Y022900D01*
X056453D01*
X056420Y022867D01*
Y022833D01*
X056453Y022800D01*
X056520D01*
X056553Y022767D01*
Y022733D01*
X056520Y022700D01*
X056453D01*
X056420Y022733D01*
X056753Y022867D02*
X056720Y022900D01*
X056653D01*
X056620Y022867D01*
Y022733D01*
X056653Y022700D01*
X056720D01*
X056753Y022733D01*
X056820Y022900D02*
Y022700D01*
X056953D01*
X055753Y020667D02*
X055720Y020700D01*
X055653D01*
X055620Y020667D01*
Y020533D01*
X055653Y020500D01*
X055720D01*
X055753Y020533D01*
Y020600D01*
X055687D01*
X055820Y020500D02*
Y020700D01*
X055953Y020500D01*
Y020700D01*
X056020D02*
Y020500D01*
X056120D01*
X056153Y020533D01*
Y020667D01*
X056120Y020700D01*
X056020D01*
X058020Y020667D02*
X058053Y020700D01*
X058120D01*
X058153Y020667D01*
Y020633D01*
X058120Y020600D01*
X058087D01*
X058120D01*
X058153Y020567D01*
Y020533D01*
X058120Y020500D01*
X058053D01*
X058020Y020533D01*
X058220Y020700D02*
Y020567D01*
X058286Y020500D01*
X058353Y020567D01*
Y020700D01*
X058420Y020667D02*
X058453Y020700D01*
X058520D01*
X058553Y020667D01*
Y020633D01*
X058520Y020600D01*
X058486D01*
X058520D01*
X058553Y020567D01*
Y020533D01*
X058520Y020500D01*
X058453D01*
X058420Y020533D01*
X056520Y020700D02*
X056653D01*
X056587D01*
Y020500D01*
X056720Y020700D02*
X056853Y020500D01*
Y020700D02*
X056720Y020500D01*
X057320D02*
Y020700D01*
X057420D01*
X057453Y020667D01*
Y020600D01*
X057420Y020567D01*
X057320D01*
X057387D02*
X057453Y020500D01*
X057520Y020700D02*
X057653Y020500D01*
Y020700D02*
X057520Y020500D01*
M02*
