G04 Layer_Color=32896*
%FSAX24Y24*%
%MOIN*%
G70*
G01*
G75*
%ADD40C,0.0100*%
%ADD73C,0.0098*%
%ADD74C,0.0079*%
%ADD75C,0.0080*%
%ADD77C,0.0050*%
%ADD134C,0.0157*%
%ADD135C,0.0236*%
D40*
X053716Y030846D02*
X054326D01*
X053716Y029396D02*
X054326D01*
X053787Y037667D02*
X053870Y037750D01*
X054037D01*
X054120Y037667D01*
Y037333D01*
X054037Y037250D01*
X053870D01*
X053787Y037333D01*
Y037500D01*
X053953D01*
X053620Y037250D02*
Y037750D01*
X053287Y037250D01*
Y037750D01*
X053120D02*
Y037250D01*
X052870D01*
X052787Y037333D01*
Y037667D01*
X052870Y037750D01*
X053120D01*
X066920Y039700D02*
Y040200D01*
X066670D01*
X066587Y040117D01*
Y039950D01*
X066670Y039867D01*
X066920D01*
X066420Y040200D02*
Y039700D01*
X066253Y039867D01*
X066087Y039700D01*
Y040200D01*
X065920Y039700D02*
Y040200D01*
X065670D01*
X065587Y040117D01*
Y039950D01*
X065670Y039867D01*
X065920D01*
X065754D02*
X065587Y039700D01*
D73*
X058788Y028715D02*
G03*
X058788Y028715I-000049J000000D01*
G01*
X060134Y028239D02*
G03*
X060134Y028239I-000049J000000D01*
G01*
X066549Y027850D02*
G03*
X066549Y027850I-000049J000000D01*
G01*
X056269Y038089D02*
G03*
X056269Y038089I-000049J000000D01*
G01*
X064712Y037244D02*
G03*
X064712Y037244I-000049J000000D01*
G01*
X059412D02*
G03*
X059412Y037244I-000049J000000D01*
G01*
X054712D02*
G03*
X054712Y037244I-000049J000000D01*
G01*
X058938Y031954D02*
G03*
X058938Y031954I-000049J000000D01*
G01*
X054238D02*
G03*
X054238Y031954I-000049J000000D01*
G01*
X063638D02*
G03*
X063638Y031954I-000049J000000D01*
G01*
X057954Y021923D02*
G03*
X057954Y021923I-000049J000000D01*
G01*
X054007Y028775D02*
G03*
X054007Y028775I-000049J000000D01*
G01*
D74*
X057216Y036229D02*
Y037371D01*
X059224Y036229D02*
Y037371D01*
X058867Y028052D02*
Y028406D01*
Y028052D02*
X059054D01*
X059733D02*
Y028406D01*
X059546Y028052D02*
X059733D01*
X060394Y028367D02*
X060748D01*
Y028554D01*
X060394Y029233D02*
X060748D01*
Y029046D02*
Y029233D01*
X066730Y026116D02*
Y028084D01*
X065470Y026116D02*
Y028084D01*
X066730D01*
X065470Y026116D02*
X066730D01*
X063390Y029096D02*
X064610D01*
X064433Y025986D02*
X064610Y026163D01*
X063390D02*
X063567Y025986D01*
X064433D01*
X064610Y028072D02*
Y029096D01*
X063390Y028072D02*
Y029096D01*
Y026163D02*
Y027128D01*
X064610Y026163D02*
Y027128D01*
X062083Y028092D02*
X062517D01*
X062083Y027108D02*
X062517D01*
X062083Y029392D02*
X062517D01*
X062083Y028408D02*
X062517D01*
X066183Y029535D02*
X066617D01*
X066183Y028865D02*
X066617D01*
X056683Y035914D02*
X056771D01*
X056683Y037686D02*
X056771D01*
X055669Y035914D02*
X055757D01*
X055669Y037686D02*
X055757D01*
X056771Y035914D02*
Y037686D01*
X055669Y035914D02*
Y037686D01*
X064805Y036907D02*
X065435D01*
X064805Y036293D02*
Y036907D01*
X065435Y036293D02*
Y036907D01*
X064805Y036293D02*
X065435D01*
X059505Y036907D02*
X060135D01*
X059505Y036293D02*
Y036907D01*
X060135Y036293D02*
Y036907D01*
X059505Y036293D02*
X060135D01*
X054805Y036907D02*
X055435D01*
X054805Y036293D02*
Y036907D01*
X055435Y036293D02*
Y036907D01*
X054805Y036293D02*
X055435D01*
X057590Y032426D02*
X058810D01*
X057590Y033174D02*
X058810D01*
Y032426D02*
Y033174D01*
X057590Y032426D02*
Y033174D01*
X052890Y032426D02*
X054110D01*
X052890Y033174D02*
X054110D01*
Y032426D02*
Y033174D01*
X052890Y032426D02*
Y033174D01*
X054422Y033246D02*
Y033954D01*
X057178Y033246D02*
Y033954D01*
X060316Y036229D02*
Y037371D01*
X062324Y036229D02*
Y037371D01*
X062616Y036229D02*
Y037371D01*
X064624Y036229D02*
Y037371D01*
X059122Y033246D02*
Y033954D01*
X061878Y033246D02*
Y033954D01*
X063822Y033246D02*
Y033954D01*
X066578Y033246D02*
Y033954D01*
X062290Y032426D02*
X063510D01*
X062290Y033174D02*
X063510D01*
Y032426D02*
Y033174D01*
X062290Y032426D02*
Y033174D01*
X058270Y023984D02*
X059530D01*
X058270Y022016D02*
X059530D01*
Y023984D01*
X058270Y022016D02*
Y023984D01*
X057413Y024887D02*
Y028313D01*
X053987Y024887D02*
Y028313D01*
Y024887D02*
X057413D01*
X053987Y028313D02*
X057413D01*
D75*
X063620Y020800D02*
Y020600D01*
Y020700D01*
X063570Y020750D01*
X063520Y020800D01*
X063470D01*
X063120Y020900D02*
X063320D01*
Y020600D01*
X063120D01*
X063320Y020750D02*
X063220D01*
X062820Y020850D02*
X062870Y020900D01*
X062970D01*
X063020Y020850D01*
Y020800D01*
X062970Y020750D01*
X062870D01*
X062820Y020700D01*
Y020650D01*
X062870Y020600D01*
X062970D01*
X063020Y020650D01*
X062520Y020850D02*
X062570Y020900D01*
X062670D01*
X062720Y020850D01*
Y020650D01*
X062670Y020600D01*
X062570D01*
X062520Y020650D01*
X062120Y020800D02*
X062020Y020600D01*
X061920Y020800D01*
X061671Y020600D02*
Y020900D01*
X061820Y020750D01*
X061621D01*
X061521Y020600D02*
Y020650D01*
X061471D01*
Y020600D01*
X061521D01*
X061271Y020850D02*
X061221Y020900D01*
X061121D01*
X061071Y020850D01*
Y020650D01*
X061121Y020600D01*
X061221D01*
X061271Y020650D01*
Y020850D01*
X060671Y020750D02*
X060471D01*
X060071Y020600D02*
Y020900D01*
X059921D01*
X059871Y020850D01*
Y020750D01*
X059921Y020700D01*
X060071D01*
X059971D02*
X059871Y020600D01*
X059721Y020800D02*
X059621D01*
X059571Y020750D01*
Y020600D01*
X059721D01*
X059771Y020650D01*
X059721Y020700D01*
X059571D01*
X059471Y020500D02*
Y020800D01*
X059321D01*
X059271Y020750D01*
Y020650D01*
X059321Y020600D01*
X059471D01*
X059171Y020900D02*
Y020600D01*
Y020750D01*
X059121Y020800D01*
X059021D01*
X058971Y020750D01*
Y020600D01*
X058821Y020800D02*
X058721D01*
X058672Y020750D01*
Y020600D01*
X058821D01*
X058871Y020650D01*
X058821Y020700D01*
X058672D01*
X058422Y020600D02*
X058522D01*
X058572Y020650D01*
Y020750D01*
X058522Y020800D01*
X058422D01*
X058372Y020750D01*
Y020700D01*
X058572D01*
X058272Y020600D02*
X058172D01*
X058222D01*
Y020900D01*
X058272D01*
X057522Y020850D02*
X057572Y020900D01*
X057672D01*
X057722Y020850D01*
Y020650D01*
X057672Y020600D01*
X057572D01*
X057522Y020650D01*
X057422Y020900D02*
Y020600D01*
Y020750D01*
X057372Y020800D01*
X057272D01*
X057222Y020750D01*
Y020600D01*
X057072Y020800D02*
X056972D01*
X056922Y020750D01*
Y020600D01*
X057072D01*
X057122Y020650D01*
X057072Y020700D01*
X056922D01*
X056822Y020600D02*
Y020800D01*
X056672D01*
X056622Y020750D01*
Y020600D01*
X056422Y020500D02*
X056372D01*
X056322Y020550D01*
Y020800D01*
X056472D01*
X056522Y020750D01*
Y020650D01*
X056472Y020600D01*
X056322D01*
D77*
X057820Y028800D02*
Y028550D01*
X057770Y028500D01*
X057670D01*
X057620Y028550D01*
Y028800D01*
X057520Y028500D02*
X057420D01*
X057470D01*
Y028800D01*
X057520Y028750D01*
X062900Y021800D02*
Y022000D01*
X062800D01*
X062767Y021967D01*
Y021900D01*
X062800Y021867D01*
X062900D01*
X062833D02*
X062767Y021800D01*
X062567D02*
X062700D01*
X062567Y021933D01*
Y021967D01*
X062600Y022000D01*
X062667D01*
X062700Y021967D01*
X062500D02*
X062467Y022000D01*
X062400D01*
X062367Y021967D01*
Y021933D01*
X062400Y021900D01*
X062433D01*
X062400D01*
X062367Y021867D01*
Y021833D01*
X062400Y021800D01*
X062467D01*
X062500Y021833D01*
X055120Y031200D02*
Y031167D01*
X055053Y031100D01*
X054987Y031167D01*
Y031200D01*
X055053Y031100D02*
Y031000D01*
X054920D02*
X054853D01*
X054887D01*
Y031200D01*
X054920Y031167D01*
X060170Y024300D02*
Y024133D01*
X060137Y024100D01*
X060070D01*
X060037Y024133D01*
Y024300D01*
X059970Y024100D02*
X059903D01*
X059937D01*
Y024300D01*
X059970Y024267D01*
X059803D02*
X059770Y024300D01*
X059703D01*
X059670Y024267D01*
Y024133D01*
X059703Y024100D01*
X059770D01*
X059803Y024133D01*
Y024267D01*
X063720Y033300D02*
X063553D01*
X063520Y033333D01*
Y033400D01*
X063553Y033433D01*
X063720D01*
X063553Y033500D02*
X063520Y033533D01*
Y033600D01*
X063553Y033633D01*
X063687D01*
X063720Y033600D01*
Y033533D01*
X063687Y033500D01*
X063653D01*
X063620Y033533D01*
Y033633D01*
X059340Y026100D02*
X059540D01*
Y026200D01*
X059506Y026233D01*
X059440D01*
X059406Y026200D01*
Y026100D01*
Y026167D02*
X059340Y026233D01*
Y026300D02*
Y026367D01*
Y026333D01*
X059540D01*
X059506Y026300D01*
X059373Y026467D02*
X059340Y026500D01*
Y026567D01*
X059373Y026600D01*
X059506D01*
X059540Y026567D01*
Y026500D01*
X059506Y026467D01*
X059473D01*
X059440Y026500D01*
Y026600D01*
X059690Y026100D02*
X059890D01*
Y026200D01*
X059856Y026233D01*
X059790D01*
X059756Y026200D01*
Y026100D01*
Y026167D02*
X059690Y026233D01*
Y026300D02*
Y026367D01*
Y026333D01*
X059890D01*
X059856Y026300D01*
Y026467D02*
X059890Y026500D01*
Y026567D01*
X059856Y026600D01*
X059823D01*
X059790Y026567D01*
X059756Y026600D01*
X059723D01*
X059690Y026567D01*
Y026500D01*
X059723Y026467D01*
X059756D01*
X059790Y026500D01*
X059823Y026467D01*
X059856D01*
X059790Y026500D02*
Y026567D01*
X063687Y031467D02*
X063720Y031500D01*
X063787D01*
X063820Y031467D01*
Y031333D01*
X063787Y031300D01*
X063720D01*
X063687Y031333D01*
X063487Y031300D02*
X063620D01*
X063487Y031433D01*
Y031467D01*
X063520Y031500D01*
X063587D01*
X063620Y031467D01*
X063287Y031300D02*
X063420D01*
X063287Y031433D01*
Y031467D01*
X063320Y031500D01*
X063387D01*
X063420Y031467D01*
X058887D02*
X058920Y031500D01*
X058987D01*
X059020Y031467D01*
Y031333D01*
X058987Y031300D01*
X058920D01*
X058887Y031333D01*
X058687Y031300D02*
X058820D01*
X058687Y031433D01*
Y031467D01*
X058720Y031500D01*
X058787D01*
X058820Y031467D01*
X058620Y031300D02*
X058553D01*
X058587D01*
Y031500D01*
X058620Y031467D01*
X058767Y025433D02*
X058801Y025400D01*
Y025333D01*
X058767Y025300D01*
X058634D01*
X058601Y025333D01*
Y025400D01*
X058634Y025433D01*
X058601Y025500D02*
Y025567D01*
Y025533D01*
X058801D01*
X058767Y025500D01*
X058601Y025767D02*
X058801D01*
X058701Y025667D01*
Y025800D01*
X054687Y023567D02*
X054720Y023600D01*
X054787D01*
X054820Y023567D01*
Y023433D01*
X054787Y023400D01*
X054720D01*
X054687Y023433D01*
X054620Y023400D02*
X054553D01*
X054587D01*
Y023600D01*
X054620Y023567D01*
X054453D02*
X054420Y023600D01*
X054353D01*
X054320Y023567D01*
Y023533D01*
X054353Y023500D01*
X054387D01*
X054353D01*
X054320Y023467D01*
Y023433D01*
X054353Y023400D01*
X054420D01*
X054453Y023433D01*
X066620Y031700D02*
Y032000D01*
X066470D01*
X066420Y031950D01*
Y031850D01*
X066470Y031800D01*
X066620D01*
X066520D02*
X066420Y031700D01*
X066320D02*
X066220D01*
X066270D01*
Y032000D01*
X066320Y031950D01*
X065870Y031700D02*
X066070D01*
X065870Y031900D01*
Y031950D01*
X065920Y032000D01*
X066020D01*
X066070Y031950D01*
X061920Y031700D02*
Y032000D01*
X061770D01*
X061720Y031950D01*
Y031850D01*
X061770Y031800D01*
X061920D01*
X061820D02*
X061720Y031700D01*
X061620D02*
X061520D01*
X061570D01*
Y032000D01*
X061620Y031950D01*
X061370Y031700D02*
X061270D01*
X061320D01*
Y032000D01*
X061370Y031950D01*
X055787Y030433D02*
X055820Y030400D01*
Y030333D01*
X055787Y030300D01*
X055653D01*
X055620Y030333D01*
Y030400D01*
X055653Y030433D01*
X055620Y030500D02*
Y030567D01*
Y030533D01*
X055820D01*
X055787Y030500D01*
Y030667D02*
X055820Y030700D01*
Y030767D01*
X055787Y030800D01*
X055653D01*
X055620Y030767D01*
Y030700D01*
X055653Y030667D01*
X055787D01*
X054087Y031467D02*
X054120Y031500D01*
X054187D01*
X054220Y031467D01*
Y031333D01*
X054187Y031300D01*
X054120D01*
X054087Y031333D01*
X054020D02*
X053987Y031300D01*
X053920D01*
X053887Y031333D01*
Y031467D01*
X053920Y031500D01*
X053987D01*
X054020Y031467D01*
Y031433D01*
X053987Y031400D01*
X053887D01*
X052387Y030433D02*
X052420Y030400D01*
Y030333D01*
X052387Y030300D01*
X052253D01*
X052220Y030333D01*
Y030400D01*
X052253Y030433D01*
X052420Y030500D02*
Y030633D01*
X052387D01*
X052253Y030500D01*
X052220D01*
X055787Y029633D02*
X055820Y029600D01*
Y029533D01*
X055787Y029500D01*
X055653D01*
X055620Y029533D01*
Y029600D01*
X055653Y029633D01*
X055787Y029700D02*
X055820Y029733D01*
Y029800D01*
X055787Y029833D01*
X055753D01*
X055720Y029800D01*
X055687Y029833D01*
X055653D01*
X055620Y029800D01*
Y029733D01*
X055653Y029700D01*
X055687D01*
X055720Y029733D01*
X055753Y029700D01*
X055787D01*
X055720Y029733D02*
Y029800D01*
X053007Y029067D02*
X053040Y029100D01*
X053107D01*
X053140Y029067D01*
Y028933D01*
X053107Y028900D01*
X053040D01*
X053007Y028933D01*
X052940Y028900D02*
X052874D01*
X052907D01*
Y029100D01*
X052940Y029067D01*
X052687Y028567D02*
X052720Y028600D01*
X052787D01*
X052820Y028567D01*
Y028433D01*
X052787Y028400D01*
X052720D01*
X052687Y028433D01*
X052487Y028400D02*
X052620D01*
X052487Y028533D01*
Y028567D01*
X052520Y028600D01*
X052587D01*
X052620Y028567D01*
X053187Y024533D02*
X053220Y024500D01*
Y024433D01*
X053187Y024400D01*
X053053D01*
X053020Y024433D01*
Y024500D01*
X053053Y024533D01*
X053187Y024600D02*
X053220Y024633D01*
Y024700D01*
X053187Y024733D01*
X053153D01*
X053120Y024700D01*
Y024667D01*
Y024700D01*
X053087Y024733D01*
X053053D01*
X053020Y024700D01*
Y024633D01*
X053053Y024600D01*
X058087Y024567D02*
X058120Y024600D01*
X058187D01*
X058220Y024567D01*
Y024433D01*
X058187Y024400D01*
X058120D01*
X058087Y024433D01*
X057920Y024400D02*
Y024600D01*
X058020Y024500D01*
X057887D01*
X058987Y027733D02*
X059020Y027700D01*
Y027633D01*
X058987Y027600D01*
X058853D01*
X058820Y027633D01*
Y027700D01*
X058853Y027733D01*
X059020Y027933D02*
Y027800D01*
X058920D01*
X058953Y027867D01*
Y027900D01*
X058920Y027933D01*
X058853D01*
X058820Y027900D01*
Y027833D01*
X058853Y027800D01*
X056617Y030017D02*
X056650Y030050D01*
X056717D01*
X056750Y030017D01*
Y029883D01*
X056717Y029850D01*
X056650D01*
X056617Y029883D01*
X056417Y030050D02*
X056483Y030017D01*
X056550Y029950D01*
Y029883D01*
X056517Y029850D01*
X056450D01*
X056417Y029883D01*
Y029917D01*
X056450Y029950D01*
X056550D01*
X064537Y038367D02*
X064570Y038400D01*
X064637D01*
X064670Y038367D01*
Y038233D01*
X064637Y038200D01*
X064570D01*
X064537Y038233D01*
X064337Y038200D02*
X064470D01*
X064337Y038333D01*
Y038367D01*
X064370Y038400D01*
X064437D01*
X064470Y038367D01*
X064137Y038400D02*
X064270D01*
Y038300D01*
X064203Y038333D01*
X064170D01*
X064137Y038300D01*
Y038233D01*
X064170Y038200D01*
X064237D01*
X064270Y038233D01*
X062237Y038367D02*
X062270Y038400D01*
X062337D01*
X062370Y038367D01*
Y038233D01*
X062337Y038200D01*
X062270D01*
X062237Y038233D01*
X062037Y038200D02*
X062170D01*
X062037Y038333D01*
Y038367D01*
X062070Y038400D01*
X062137D01*
X062170Y038367D01*
X061837Y038400D02*
X061903Y038367D01*
X061970Y038300D01*
Y038233D01*
X061937Y038200D01*
X061870D01*
X061837Y038233D01*
Y038267D01*
X061870Y038300D01*
X061970D01*
X057220Y031700D02*
Y032000D01*
X057070D01*
X057020Y031950D01*
Y031850D01*
X057070Y031800D01*
X057220D01*
X057120D02*
X057020Y031700D01*
X056920D02*
X056820D01*
X056870D01*
Y032000D01*
X056920Y031950D01*
X056670D02*
X056620Y032000D01*
X056520D01*
X056470Y031950D01*
Y031750D01*
X056520Y031700D01*
X056620D01*
X056670Y031750D01*
Y031950D01*
X054320Y033300D02*
X054153D01*
X054120Y033333D01*
Y033400D01*
X054153Y033433D01*
X054320D01*
Y033500D02*
Y033633D01*
X054287D01*
X054153Y033500D01*
X054120D01*
X059020Y033300D02*
X058853D01*
X058820Y033333D01*
Y033400D01*
X058853Y033433D01*
X059020D01*
X058987Y033500D02*
X059020Y033533D01*
Y033600D01*
X058987Y033633D01*
X058953D01*
X058920Y033600D01*
X058887Y033633D01*
X058853D01*
X058820Y033600D01*
Y033533D01*
X058853Y033500D01*
X058887D01*
X058920Y033533D01*
X058953Y033500D01*
X058987D01*
X058920Y033533D02*
Y033600D01*
X057067Y022833D02*
X057100Y022800D01*
Y022733D01*
X057067Y022700D01*
X056933D01*
X056900Y022733D01*
Y022800D01*
X056933Y022833D01*
X057067Y022900D02*
X057100Y022933D01*
Y023000D01*
X057067Y023033D01*
X057033D01*
X057000Y023000D01*
Y022967D01*
Y023000D01*
X056967Y023033D01*
X056933D01*
X056900Y023000D01*
Y022933D01*
X056933Y022900D01*
X057100Y023233D02*
X057067Y023167D01*
X057000Y023100D01*
X056933D01*
X056900Y023133D01*
Y023200D01*
X056933Y023233D01*
X056967D01*
X057000Y023200D01*
Y023100D01*
X055270Y035600D02*
Y035400D01*
X055170D01*
X055137Y035433D01*
Y035567D01*
X055170Y035600D01*
X055270D01*
X055070Y035567D02*
X055037Y035600D01*
X054970D01*
X054937Y035567D01*
Y035533D01*
X054970Y035500D01*
X055003D01*
X054970D01*
X054937Y035467D01*
Y035433D01*
X054970Y035400D01*
X055037D01*
X055070Y035433D01*
X059970Y035600D02*
Y035400D01*
X059870D01*
X059837Y035433D01*
Y035567D01*
X059870Y035600D01*
X059970D01*
X059670Y035400D02*
Y035600D01*
X059770Y035500D01*
X059637D01*
X065270Y035600D02*
Y035400D01*
X065170D01*
X065137Y035433D01*
Y035567D01*
X065170Y035600D01*
X065270D01*
X064937D02*
X065070D01*
Y035500D01*
X065003Y035533D01*
X064970D01*
X064937Y035500D01*
Y035433D01*
X064970Y035400D01*
X065037D01*
X065070Y035433D01*
X056470Y035600D02*
Y035400D01*
X056370D01*
X056337Y035433D01*
Y035567D01*
X056370Y035600D01*
X056470D01*
X056270Y035400D02*
X056203D01*
X056237D01*
Y035600D01*
X056270Y035567D01*
X056103D02*
X056070Y035600D01*
X056003D01*
X055970Y035567D01*
Y035433D01*
X056003Y035400D01*
X056070D01*
X056103Y035433D01*
Y035567D01*
X058787Y026467D02*
X058820Y026500D01*
X058887D01*
X058920Y026467D01*
Y026333D01*
X058887Y026300D01*
X058820D01*
X058787Y026333D01*
X058720Y026467D02*
X058687Y026500D01*
X058620D01*
X058587Y026467D01*
Y026433D01*
X058620Y026400D01*
X058653D01*
X058620D01*
X058587Y026367D01*
Y026333D01*
X058620Y026300D01*
X058687D01*
X058720Y026333D01*
X058520Y026500D02*
X058387D01*
Y026467D01*
X058520Y026333D01*
Y026300D01*
X060587Y029433D02*
Y029567D01*
X060620Y029600D01*
X060687D01*
X060720Y029567D01*
Y029433D01*
X060687Y029400D01*
X060620D01*
X060653Y029467D02*
X060587Y029400D01*
X060620D02*
X060587Y029433D01*
X060520Y029567D02*
X060487Y029600D01*
X060420D01*
X060387Y029567D01*
Y029533D01*
X060420Y029500D01*
X060387Y029467D01*
Y029433D01*
X060420Y029400D01*
X060487D01*
X060520Y029433D01*
Y029467D01*
X060487Y029500D01*
X060520Y029533D01*
Y029567D01*
X060487Y029500D02*
X060420D01*
X059687Y027733D02*
Y027867D01*
X059720Y027900D01*
X059787D01*
X059820Y027867D01*
Y027733D01*
X059787Y027700D01*
X059720D01*
X059753Y027767D02*
X059687Y027700D01*
X059720D02*
X059687Y027733D01*
X059620D02*
X059587Y027700D01*
X059520D01*
X059487Y027733D01*
Y027867D01*
X059520Y027900D01*
X059587D01*
X059620Y027867D01*
Y027833D01*
X059587Y027800D01*
X059487D01*
X060320Y027600D02*
X060520D01*
Y027700D01*
X060487Y027733D01*
X060420D01*
X060387Y027700D01*
Y027600D01*
Y027667D02*
X060320Y027733D01*
Y027900D02*
X060520D01*
X060420Y027800D01*
Y027933D01*
X060487Y028000D02*
X060520Y028033D01*
Y028100D01*
X060487Y028133D01*
X060353D01*
X060320Y028100D01*
Y028033D01*
X060353Y028000D01*
X060487D01*
X059577Y029434D02*
Y029634D01*
X059477D01*
X059444Y029600D01*
Y029534D01*
X059477Y029501D01*
X059577D01*
X059511D02*
X059444Y029434D01*
X059277D02*
Y029634D01*
X059377Y029534D01*
X059244D01*
X059177Y029434D02*
X059111D01*
X059144D01*
Y029634D01*
X059177Y029600D01*
X061770Y026000D02*
Y026200D01*
X061670D01*
X061637Y026167D01*
Y026100D01*
X061670Y026067D01*
X061770D01*
X061703D02*
X061637Y026000D01*
X061437D02*
X061570D01*
X061437Y026133D01*
Y026167D01*
X061470Y026200D01*
X061537D01*
X061570Y026167D01*
X061237Y026000D02*
X061370D01*
X061237Y026133D01*
Y026167D01*
X061270Y026200D01*
X061337D01*
X061370Y026167D01*
X062787Y026567D02*
X062820Y026600D01*
X062887D01*
X062920Y026567D01*
Y026433D01*
X062887Y026400D01*
X062820D01*
X062787Y026433D01*
X062720Y026567D02*
X062687Y026600D01*
X062620D01*
X062587Y026567D01*
Y026533D01*
X062620Y026500D01*
X062653D01*
X062620D01*
X062587Y026467D01*
Y026433D01*
X062620Y026400D01*
X062687D01*
X062720Y026433D01*
X062387Y026400D02*
X062520D01*
X062387Y026533D01*
Y026567D01*
X062420Y026600D01*
X062487D01*
X062520Y026567D01*
X061187Y026517D02*
X061220Y026550D01*
X061287D01*
X061320Y026517D01*
Y026383D01*
X061287Y026350D01*
X061220D01*
X061187Y026383D01*
X061120Y026517D02*
X061087Y026550D01*
X061020D01*
X060987Y026517D01*
Y026483D01*
X061020Y026450D01*
X061053D01*
X061020D01*
X060987Y026417D01*
Y026383D01*
X061020Y026350D01*
X061087D01*
X061120Y026383D01*
X060920Y026350D02*
X060853D01*
X060887D01*
Y026550D01*
X060920Y026517D01*
X065337Y028983D02*
X065370Y028950D01*
Y028883D01*
X065337Y028850D01*
X065203D01*
X065170Y028883D01*
Y028950D01*
X065203Y028983D01*
X065170Y029050D02*
Y029117D01*
Y029083D01*
X065370D01*
X065337Y029050D01*
X065170Y029350D02*
Y029217D01*
X065303Y029350D01*
X065337D01*
X065370Y029317D01*
Y029250D01*
X065337Y029217D01*
X061337Y028533D02*
X061370Y028500D01*
Y028433D01*
X061337Y028400D01*
X061203D01*
X061170Y028433D01*
Y028500D01*
X061203Y028533D01*
X061170Y028600D02*
Y028667D01*
Y028633D01*
X061370D01*
X061337Y028600D01*
X061370Y028900D02*
X061337Y028833D01*
X061270Y028767D01*
X061203D01*
X061170Y028800D01*
Y028867D01*
X061203Y028900D01*
X061237D01*
X061270Y028867D01*
Y028767D01*
X061337Y027233D02*
X061370Y027200D01*
Y027133D01*
X061337Y027100D01*
X061203D01*
X061170Y027133D01*
Y027200D01*
X061203Y027233D01*
X061170Y027300D02*
Y027367D01*
Y027333D01*
X061370D01*
X061337Y027300D01*
X061370Y027467D02*
Y027600D01*
X061337D01*
X061203Y027467D01*
X061170D01*
X064600Y029600D02*
Y029300D01*
X064450D01*
X064400Y029350D01*
Y029550D01*
X064450Y029600D01*
X064600D01*
X064100D02*
X064200Y029550D01*
X064300Y029450D01*
Y029350D01*
X064250Y029300D01*
X064150D01*
X064100Y029350D01*
Y029400D01*
X064150Y029450D01*
X064300D01*
X061320Y026700D02*
Y026900D01*
X061220D01*
X061187Y026867D01*
Y026800D01*
X061220Y026767D01*
X061320D01*
X061253D02*
X061187Y026700D01*
X061120D02*
X061053D01*
X061087D01*
Y026900D01*
X061120Y026867D01*
X060820Y026900D02*
X060887Y026867D01*
X060953Y026800D01*
Y026733D01*
X060920Y026700D01*
X060853D01*
X060820Y026733D01*
Y026767D01*
X060853Y026800D01*
X060953D01*
X063070Y026500D02*
X063270D01*
Y026600D01*
X063237Y026633D01*
X063170D01*
X063137Y026600D01*
Y026500D01*
Y026567D02*
X063070Y026633D01*
Y026700D02*
Y026767D01*
Y026733D01*
X063270D01*
X063237Y026700D01*
X063270Y026867D02*
Y027000D01*
X063237D01*
X063103Y026867D01*
X063070D01*
X066520Y028300D02*
Y028500D01*
X066570Y028550D01*
X066670D01*
X066720Y028500D01*
Y028300D01*
X066670Y028250D01*
X066570D01*
X066620Y028350D02*
X066520Y028250D01*
X066570D02*
X066520Y028300D01*
X066420Y028550D02*
X066220D01*
Y028500D01*
X066420Y028300D01*
Y028250D01*
X059137Y038367D02*
X059170Y038400D01*
X059237D01*
X059270Y038367D01*
Y038233D01*
X059237Y038200D01*
X059170D01*
X059137Y038233D01*
X059070Y038200D02*
X059003D01*
X059037D01*
Y038400D01*
X059070Y038367D01*
X058770Y038400D02*
X058903D01*
Y038300D01*
X058837Y038333D01*
X058803D01*
X058770Y038300D01*
Y038233D01*
X058803Y038200D01*
X058870D01*
X058903Y038233D01*
X060987Y023267D02*
X061020Y023300D01*
X061087D01*
X061120Y023267D01*
Y023133D01*
X061087Y023100D01*
X061020D01*
X060987Y023133D01*
Y023200D01*
X061053D01*
X060920Y023100D02*
Y023300D01*
X060787Y023100D01*
Y023300D01*
X060720D02*
Y023100D01*
X060620D01*
X060587Y023133D01*
Y023267D01*
X060620Y023300D01*
X060720D01*
X061670D02*
Y023100D01*
X061570D01*
X061537Y023133D01*
Y023167D01*
X061570Y023200D01*
X061670D01*
X061570D01*
X061537Y023233D01*
Y023267D01*
X061570Y023300D01*
X061670D01*
X062470Y023100D02*
Y023233D01*
X062403Y023300D01*
X062337Y023233D01*
Y023100D01*
Y023200D01*
X062470D01*
X063470Y024100D02*
Y024300D01*
X063403Y024233D01*
X063337Y024300D01*
Y024100D01*
X063170Y024300D02*
X063237D01*
X063270Y024267D01*
Y024133D01*
X063237Y024100D01*
X063170D01*
X063137Y024133D01*
Y024267D01*
X063170Y024300D01*
X062937Y024267D02*
X062970Y024300D01*
X063037D01*
X063070Y024267D01*
Y024233D01*
X063037Y024200D01*
X062970D01*
X062937Y024167D01*
Y024133D01*
X062970Y024100D01*
X063037D01*
X063070Y024133D01*
X062870Y024300D02*
X062803D01*
X062837D01*
Y024100D01*
X062870D01*
X062803D01*
X064420D02*
Y024300D01*
X064353Y024233D01*
X064287Y024300D01*
Y024100D01*
X064220Y024300D02*
X064153D01*
X064187D01*
Y024100D01*
X064220D01*
X064153D01*
X063920Y024267D02*
X063953Y024300D01*
X064020D01*
X064053Y024267D01*
Y024233D01*
X064020Y024200D01*
X063953D01*
X063920Y024167D01*
Y024133D01*
X063953Y024100D01*
X064020D01*
X064053Y024133D01*
X063753Y024300D02*
X063820D01*
X063853Y024267D01*
Y024133D01*
X063820Y024100D01*
X063753D01*
X063720Y024133D01*
Y024267D01*
X063753Y024300D01*
X064937Y023267D02*
X064970Y023300D01*
X065037D01*
X065070Y023267D01*
Y023133D01*
X065037Y023100D01*
X064970D01*
X064937Y023133D01*
X064870Y023300D02*
Y023100D01*
X064737D01*
X064670Y023300D02*
Y023100D01*
Y023167D01*
X064537Y023300D01*
X064637Y023200D01*
X064537Y023100D01*
X065587Y023267D02*
X065620Y023300D01*
X065687D01*
X065720Y023267D01*
Y023133D01*
X065687Y023100D01*
X065620D01*
X065587Y023133D01*
X065387Y023267D02*
X065420Y023300D01*
X065487D01*
X065520Y023267D01*
Y023233D01*
X065487Y023200D01*
X065420D01*
X065387Y023167D01*
Y023133D01*
X065420Y023100D01*
X065487D01*
X065520Y023133D01*
X066620Y023267D02*
X066587Y023300D01*
X066520D01*
X066487Y023267D01*
Y023233D01*
X066520Y023200D01*
X066553D01*
X066520D01*
X066487Y023167D01*
Y023133D01*
X066520Y023100D01*
X066587D01*
X066620Y023133D01*
X066420Y023300D02*
Y023167D01*
X066353Y023100D01*
X066287Y023167D01*
Y023300D01*
X066220Y023267D02*
X066187Y023300D01*
X066120D01*
X066087Y023267D01*
Y023233D01*
X066120Y023200D01*
X066153D01*
X066120D01*
X066087Y023167D01*
Y023133D01*
X066120Y023100D01*
X066187D01*
X066220Y023133D01*
D134*
X058574Y032741D02*
G03*
X058574Y032741I-000079J000000D01*
G01*
X053874D02*
G03*
X053874Y032741I-000079J000000D01*
G01*
X063274D02*
G03*
X063274Y032741I-000079J000000D01*
G01*
D135*
X058782Y022409D02*
G03*
X058782Y022409I-000118J000000D01*
G01*
X054499Y027919D02*
G03*
X054499Y027919I-000118J000000D01*
G01*
M02*
