G04 Layer_Color=32896*
%FSAX25Y25*%
%MOIN*%
G70*
G01*
G75*
%ADD42C,0.01000*%
%ADD77C,0.00984*%
%ADD78C,0.00394*%
%ADD79C,0.00800*%
%ADD80C,0.00787*%
%ADD82C,0.00500*%
%ADD136C,0.01575*%
%ADD137C,0.02362*%
D42*
X0535727Y0269214D02*
X0539271Y0265671D01*
X0535727Y0269214D02*
Y0270002D01*
Y0265671D02*
X0546751D01*
X0535727Y0278269D02*
X0546751D01*
Y0265671D02*
Y0278269D01*
X0535727Y0265671D02*
Y0278269D01*
X0558649Y0298250D02*
X0564749D01*
X0558649Y0312750D02*
X0564749D01*
X0639199Y0364500D02*
Y0368499D01*
X0637200D01*
X0636533Y0367832D01*
Y0366499D01*
X0637200Y0365833D01*
X0639199D01*
X0635200Y0368499D02*
Y0364500D01*
X0633868Y0365833D01*
X0632535Y0364500D01*
Y0368499D01*
X0631202Y0364500D02*
Y0368499D01*
X0629202D01*
X0628536Y0367832D01*
Y0366499D01*
X0629202Y0365833D01*
X0631202D01*
X0629869D02*
X0628536Y0364500D01*
X0589033Y0350832D02*
X0589700Y0351499D01*
X0591033D01*
X0591699Y0350832D01*
Y0348166D01*
X0591033Y0347500D01*
X0589700D01*
X0589033Y0348166D01*
Y0349499D01*
X0590366D01*
X0587700Y0347500D02*
Y0351499D01*
X0585035Y0347500D01*
Y0351499D01*
X0583702D02*
Y0347500D01*
X0581702D01*
X0581036Y0348166D01*
Y0350832D01*
X0581702Y0351499D01*
X0583702D01*
D77*
X0660142Y0285000D02*
G03*
X0660142Y0285000I-0000492J0000000D01*
G01*
X0614538Y0274890D02*
G03*
X0614538Y0274890I-0000492J0000000D01*
G01*
X0622380Y0288347D02*
G03*
X0622380Y0288347I-0000492J0000000D01*
G01*
X0542691Y0385398D02*
G03*
X0542691Y0385398I-0000492J0000000D01*
G01*
X0649128Y0411067D02*
G03*
X0649128Y0411067I-0000492J0000000D01*
G01*
X0602128D02*
G03*
X0602128Y0411067I-0000492J0000000D01*
G01*
X0555128D02*
G03*
X0555128Y0411067I-0000492J0000000D01*
G01*
X0592382Y0319535D02*
G03*
X0592382Y0319535I-0000492J0000000D01*
G01*
X0545382D02*
G03*
X0545382Y0319535I-0000492J0000000D01*
G01*
X0639382D02*
G03*
X0639382Y0319535I-0000492J0000000D01*
G01*
X0560270Y0292252D02*
G03*
X0560270Y0292252I-0000492J0000000D01*
G01*
X0618278Y0225791D02*
G03*
X0618278Y0225791I-0000492J0000000D01*
G01*
D78*
X0570991Y0238531D02*
G03*
X0570991Y0238531I-0000197J0000000D01*
G01*
D79*
X0639700Y0213000D02*
X0640699D01*
X0641199Y0213500D01*
Y0214499D01*
X0640699Y0214999D01*
X0639700D01*
X0639200Y0214499D01*
Y0214000D01*
X0641199D01*
X0638200Y0213000D02*
X0637200D01*
X0637700D01*
Y0215999D01*
X0638200D01*
X0634201Y0213000D02*
X0635201D01*
X0635701Y0213500D01*
Y0214499D01*
X0635201Y0214999D01*
X0634201D01*
X0633702Y0214499D01*
Y0214000D01*
X0635701D01*
X0630702Y0214999D02*
X0632202D01*
X0632702Y0214499D01*
Y0213500D01*
X0632202Y0213000D01*
X0630702D01*
X0629203Y0215499D02*
Y0214999D01*
X0629703D01*
X0628703D01*
X0629203D01*
Y0213500D01*
X0628703Y0213000D01*
X0627204Y0214999D02*
Y0213000D01*
Y0214000D01*
X0626704Y0214499D01*
X0626204Y0214999D01*
X0625704D01*
X0623705Y0213000D02*
X0622705D01*
X0622205Y0213500D01*
Y0214499D01*
X0622705Y0214999D01*
X0623705D01*
X0624205Y0214499D01*
Y0213500D01*
X0623705Y0213000D01*
X0621206D02*
Y0214999D01*
X0619706D01*
X0619206Y0214499D01*
Y0213000D01*
X0615207Y0214999D02*
X0614208Y0213000D01*
X0613208Y0214999D01*
X0610709Y0213000D02*
Y0215999D01*
X0612209Y0214499D01*
X0610209D01*
X0609209Y0213000D02*
Y0213500D01*
X0608710D01*
Y0213000D01*
X0609209D01*
X0606710D02*
X0605711D01*
X0606210D01*
Y0215999D01*
X0606710Y0215499D01*
X0601212Y0214499D02*
X0599213D01*
X0595214Y0213000D02*
Y0215999D01*
X0593715D01*
X0593215Y0215499D01*
Y0214499D01*
X0593715Y0214000D01*
X0595214D01*
X0594214D02*
X0593215Y0213000D01*
X0591715Y0214999D02*
X0590715D01*
X0590216Y0214499D01*
Y0213000D01*
X0591715D01*
X0592215Y0213500D01*
X0591715Y0214000D01*
X0590216D01*
X0589216Y0212000D02*
Y0214999D01*
X0587716D01*
X0587217Y0214499D01*
Y0213500D01*
X0587716Y0213000D01*
X0589216D01*
X0586217Y0215999D02*
Y0213000D01*
Y0214499D01*
X0585717Y0214999D01*
X0584717D01*
X0584218Y0214499D01*
Y0213000D01*
X0582718Y0214999D02*
X0581718D01*
X0581218Y0214499D01*
Y0213000D01*
X0582718D01*
X0583218Y0213500D01*
X0582718Y0214000D01*
X0581218D01*
X0578719Y0213000D02*
X0579719D01*
X0580219Y0213500D01*
Y0214499D01*
X0579719Y0214999D01*
X0578719D01*
X0578220Y0214499D01*
Y0214000D01*
X0580219D01*
X0577220Y0213000D02*
X0576220D01*
X0576720D01*
Y0215999D01*
X0577220D01*
X0569722Y0215499D02*
X0570222Y0215999D01*
X0571222D01*
X0571722Y0215499D01*
Y0213500D01*
X0571222Y0213000D01*
X0570222D01*
X0569722Y0213500D01*
X0568723Y0215999D02*
Y0213000D01*
Y0214499D01*
X0568223Y0214999D01*
X0567223D01*
X0566723Y0214499D01*
Y0213000D01*
X0565224Y0214999D02*
X0564224D01*
X0563724Y0214499D01*
Y0213000D01*
X0565224D01*
X0565724Y0213500D01*
X0565224Y0214000D01*
X0563724D01*
X0562724Y0213000D02*
Y0214999D01*
X0561225D01*
X0560725Y0214499D01*
Y0213000D01*
X0558726Y0212000D02*
X0558226D01*
X0557726Y0212500D01*
Y0214999D01*
X0559226D01*
X0559726Y0214499D01*
Y0213500D01*
X0559226Y0213000D01*
X0557726D01*
D80*
X0547221Y0332457D02*
Y0339543D01*
X0574780Y0332457D02*
Y0339543D01*
X0641301Y0259130D02*
Y0268776D01*
X0629097Y0259130D02*
Y0268776D01*
Y0278224D02*
Y0288461D01*
X0641301Y0278224D02*
Y0288461D01*
X0630868Y0257358D02*
X0639530D01*
X0629097Y0259130D02*
X0630868Y0257358D01*
X0639530D02*
X0641301Y0259130D01*
X0629097Y0288461D02*
X0641301D01*
X0572959Y0237547D02*
X0580439D01*
X0572959Y0243453D02*
X0580439D01*
X0572959Y0237547D02*
Y0238531D01*
X0580439Y0237547D02*
Y0238531D01*
X0572959Y0242469D02*
Y0243453D01*
X0580439Y0242469D02*
Y0243453D01*
X0573239Y0365850D02*
Y0377268D01*
X0553160Y0365850D02*
Y0377268D01*
X0649351Y0267657D02*
X0661949D01*
X0649351Y0287343D02*
X0661949D01*
X0649351Y0267657D02*
Y0287343D01*
X0661949Y0267657D02*
Y0287343D01*
X0635778Y0296835D02*
Y0301165D01*
X0645620Y0296835D02*
Y0301165D01*
X0648278Y0296835D02*
Y0301165D01*
X0658120Y0296835D02*
Y0301165D01*
X0668546Y0298035D02*
Y0302366D01*
X0661853Y0298035D02*
Y0302366D01*
X0620679Y0282961D02*
Y0284831D01*
X0617136D02*
X0620679D01*
Y0276169D02*
Y0278039D01*
X0617136Y0276169D02*
X0620679D01*
X0611947Y0294980D02*
X0613817D01*
X0611947Y0291437D02*
Y0294980D01*
X0618738D02*
X0620608D01*
Y0291437D02*
Y0294980D01*
X0536687Y0363646D02*
Y0381362D01*
X0547711Y0363646D02*
Y0381362D01*
X0536687D02*
X0537573D01*
X0536687Y0363646D02*
X0537573D01*
X0546825Y0381362D02*
X0547711D01*
X0546825Y0363646D02*
X0547711D01*
X0639128Y0403350D02*
Y0409650D01*
Y0403350D02*
X0645270D01*
X0639128Y0409650D02*
X0645270D01*
Y0403350D02*
Y0409650D01*
X0592128Y0403350D02*
Y0409650D01*
Y0403350D02*
X0598270D01*
X0592128Y0409650D02*
X0598270D01*
Y0403350D02*
Y0409650D01*
X0545128Y0403350D02*
Y0409650D01*
Y0403350D02*
X0551270D01*
X0545128Y0409650D02*
X0551270D01*
Y0403350D02*
Y0409650D01*
X0578898Y0324260D02*
Y0331740D01*
X0591102Y0324260D02*
Y0331740D01*
X0578898D02*
X0591102D01*
X0578898Y0324260D02*
X0591102D01*
X0531898D02*
Y0331740D01*
X0544102Y0324260D02*
Y0331740D01*
X0531898D02*
X0544102D01*
X0531898Y0324260D02*
X0544102D01*
X0620238Y0365791D02*
Y0377209D01*
X0600160Y0365791D02*
Y0377209D01*
X0667239Y0365791D02*
Y0377209D01*
X0647160Y0365791D02*
Y0377209D01*
X0621779Y0332457D02*
Y0339543D01*
X0594220Y0332457D02*
Y0339543D01*
X0668780Y0332457D02*
Y0339543D01*
X0641221Y0332457D02*
Y0339543D01*
X0625898Y0324260D02*
Y0331740D01*
X0638102Y0324260D02*
Y0331740D01*
X0625898D02*
X0638102D01*
X0625898Y0324260D02*
X0638102D01*
X0560073Y0287626D02*
X0594325D01*
X0560073Y0253374D02*
X0594325D01*
X0560073D02*
Y0287626D01*
X0594325Y0253374D02*
Y0287626D01*
X0625168Y0225594D02*
Y0237405D01*
X0621231Y0225594D02*
Y0237405D01*
X0625168D01*
X0621231Y0225594D02*
X0625168D01*
D82*
X0546199Y0292000D02*
Y0293999D01*
X0545199D01*
X0544866Y0293666D01*
Y0293000D01*
X0545199Y0292666D01*
X0546199D01*
X0545533D02*
X0544866Y0292000D01*
X0542867D02*
X0544200D01*
X0542867Y0293333D01*
Y0293666D01*
X0543200Y0293999D01*
X0543866D01*
X0544200Y0293666D01*
X0542200D02*
X0541867Y0293999D01*
X0541201D01*
X0540868Y0293666D01*
Y0292333D01*
X0541201Y0292000D01*
X0541867D01*
X0542200Y0292333D01*
Y0293666D01*
X0545199Y0250000D02*
Y0251999D01*
X0544199D01*
X0543866Y0251666D01*
Y0251000D01*
X0544199Y0250666D01*
X0545199D01*
X0544533D02*
X0543866Y0250000D01*
X0541867Y0251999D02*
X0542533Y0251666D01*
X0543200Y0251000D01*
Y0250333D01*
X0542867Y0250000D01*
X0542200D01*
X0541867Y0250333D01*
Y0250666D01*
X0542200Y0251000D01*
X0543200D01*
X0538199Y0249728D02*
Y0251728D01*
X0537199D01*
X0536866Y0251395D01*
Y0250728D01*
X0537199Y0250395D01*
X0538199D01*
X0537533D02*
X0536866Y0249728D01*
X0536200Y0251395D02*
X0535866Y0251728D01*
X0535200D01*
X0534867Y0251395D01*
Y0251061D01*
X0535200Y0250728D01*
X0535533D01*
X0535200D01*
X0534867Y0250395D01*
Y0250062D01*
X0535200Y0249728D01*
X0535866D01*
X0536200Y0250062D01*
X0533201Y0249728D02*
Y0251728D01*
X0534200Y0250728D01*
X0532867D01*
X0575199Y0317000D02*
Y0319999D01*
X0573700D01*
X0573200Y0319499D01*
Y0318499D01*
X0573700Y0318000D01*
X0575199D01*
X0574199D02*
X0573200Y0317000D01*
X0572200D02*
X0571200D01*
X0571700D01*
Y0319999D01*
X0572200Y0319499D01*
X0569701D02*
X0569201Y0319999D01*
X0568201D01*
X0567702Y0319499D01*
Y0317500D01*
X0568201Y0317000D01*
X0569201D01*
X0569701Y0317500D01*
Y0319499D01*
X0585866Y0304166D02*
X0586199Y0304499D01*
X0586866D01*
X0587199Y0304166D01*
Y0302833D01*
X0586866Y0302500D01*
X0586199D01*
X0585866Y0302833D01*
X0583867Y0304499D02*
X0584533Y0304166D01*
X0585200Y0303500D01*
Y0302833D01*
X0584867Y0302500D01*
X0584200D01*
X0583867Y0302833D01*
Y0303166D01*
X0584200Y0303500D01*
X0585200D01*
X0645698Y0257500D02*
X0642699D01*
Y0258999D01*
X0643199Y0259499D01*
X0645198D01*
X0645698Y0258999D01*
Y0257500D01*
Y0262498D02*
X0645198Y0261499D01*
X0644199Y0260499D01*
X0643199D01*
X0642699Y0260999D01*
Y0261999D01*
X0643199Y0262498D01*
X0643699D01*
X0644199Y0261999D01*
Y0260499D01*
X0580699Y0236499D02*
Y0234500D01*
X0579699D01*
X0579366Y0234833D01*
Y0236166D01*
X0579699Y0236499D01*
X0580699D01*
X0578700Y0236166D02*
X0578367Y0236499D01*
X0577700D01*
X0577367Y0236166D01*
Y0235833D01*
X0577700Y0235500D01*
X0577367Y0235166D01*
Y0234833D01*
X0577700Y0234500D01*
X0578367D01*
X0578700Y0234833D01*
Y0235166D01*
X0578367Y0235500D01*
X0578700Y0235833D01*
Y0236166D01*
X0578367Y0235500D02*
X0577700D01*
X0579365Y0297833D02*
X0579699Y0297500D01*
Y0296833D01*
X0579365Y0296500D01*
X0578032D01*
X0577699Y0296833D01*
Y0297500D01*
X0578032Y0297833D01*
X0579365Y0298499D02*
X0579699Y0298833D01*
Y0299499D01*
X0579365Y0299832D01*
X0579032D01*
X0578699Y0299499D01*
Y0299166D01*
Y0299499D01*
X0578366Y0299832D01*
X0578032D01*
X0577699Y0299499D01*
Y0298833D01*
X0578032Y0298499D01*
X0579365Y0300499D02*
X0579699Y0300832D01*
Y0301498D01*
X0579365Y0301832D01*
X0579032D01*
X0578699Y0301498D01*
X0578366Y0301832D01*
X0578032D01*
X0577699Y0301498D01*
Y0300832D01*
X0578032Y0300499D01*
X0578366D01*
X0578699Y0300832D01*
X0579032Y0300499D01*
X0579365D01*
X0578699Y0300832D02*
Y0301498D01*
X0571699Y0228000D02*
Y0229999D01*
X0570699D01*
X0570366Y0229666D01*
Y0229000D01*
X0570699Y0228666D01*
X0571699D01*
X0571033D02*
X0570366Y0228000D01*
X0568367D02*
X0569700D01*
X0568367Y0229333D01*
Y0229666D01*
X0568700Y0229999D01*
X0569367D01*
X0569700Y0229666D01*
X0566701Y0228000D02*
Y0229999D01*
X0567700Y0229000D01*
X0566367D01*
X0579699Y0228000D02*
Y0229999D01*
X0578699D01*
X0578366Y0229666D01*
Y0229000D01*
X0578699Y0228666D01*
X0579699D01*
X0579033D02*
X0578366Y0228000D01*
X0576367D02*
X0577700D01*
X0576367Y0229333D01*
Y0229666D01*
X0576700Y0229999D01*
X0577366D01*
X0577700Y0229666D01*
X0574368Y0229999D02*
X0575700D01*
Y0229000D01*
X0575034Y0229333D01*
X0574701D01*
X0574368Y0229000D01*
Y0228333D01*
X0574701Y0228000D01*
X0575367D01*
X0575700Y0228333D01*
X0558700Y0387499D02*
X0559200Y0387999D01*
X0560199D01*
X0560699Y0387499D01*
Y0385500D01*
X0560199Y0385000D01*
X0559200D01*
X0558700Y0385500D01*
X0555701Y0385000D02*
X0557700D01*
X0555701Y0386999D01*
Y0387499D01*
X0556201Y0387999D01*
X0557200D01*
X0557700Y0387499D01*
X0554701Y0387999D02*
X0552702D01*
Y0387499D01*
X0554701Y0385500D01*
Y0385000D01*
X0665700Y0263500D02*
Y0265499D01*
X0666200Y0265999D01*
X0667199D01*
X0667699Y0265499D01*
Y0263500D01*
X0667199Y0263000D01*
X0666200D01*
X0666699Y0264000D02*
X0665700Y0263000D01*
X0666200D02*
X0665700Y0263500D01*
X0664700Y0265999D02*
X0662701D01*
Y0265499D01*
X0664700Y0263500D01*
Y0263000D01*
X0632699Y0290000D02*
X0634698D01*
Y0291000D01*
X0634365Y0291333D01*
X0633699D01*
X0633366Y0291000D01*
Y0290000D01*
Y0290666D02*
X0632699Y0291333D01*
Y0291999D02*
Y0292666D01*
Y0292333D01*
X0634698D01*
X0634365Y0291999D01*
X0634698Y0293666D02*
Y0294998D01*
X0634365D01*
X0633032Y0293666D01*
X0632699D01*
X0633699Y0305500D02*
Y0307499D01*
X0632699D01*
X0632366Y0307166D01*
Y0306500D01*
X0632699Y0306166D01*
X0633699D01*
X0633033D02*
X0632366Y0305500D01*
X0631700D02*
X0631033D01*
X0631366D01*
Y0307499D01*
X0631700Y0307166D01*
X0628701Y0307499D02*
X0629367Y0307166D01*
X0630034Y0306500D01*
Y0305833D01*
X0629700Y0305500D01*
X0629034D01*
X0628701Y0305833D01*
Y0306166D01*
X0629034Y0306500D01*
X0630034D01*
X0639366Y0309666D02*
X0639699Y0309999D01*
X0640366D01*
X0640699Y0309666D01*
Y0308333D01*
X0640366Y0308000D01*
X0639699D01*
X0639366Y0308333D01*
X0638700Y0308000D02*
X0638033D01*
X0638367D01*
Y0309999D01*
X0638700Y0309666D01*
X0637034Y0309999D02*
X0635701D01*
Y0309666D01*
X0637034Y0308333D01*
Y0308000D01*
X0651866Y0309666D02*
X0652199Y0309999D01*
X0652866D01*
X0653199Y0309666D01*
Y0308333D01*
X0652866Y0308000D01*
X0652199D01*
X0651866Y0308333D01*
X0651200Y0308000D02*
X0650533D01*
X0650867D01*
Y0309999D01*
X0651200Y0309666D01*
X0648201Y0309999D02*
X0648867Y0309666D01*
X0649534Y0309000D01*
Y0308333D01*
X0649200Y0308000D01*
X0648534D01*
X0648201Y0308333D01*
Y0308666D01*
X0648534Y0309000D01*
X0649534D01*
X0667366Y0289566D02*
X0667699Y0289899D01*
X0668366D01*
X0668699Y0289566D01*
Y0288233D01*
X0668366Y0287900D01*
X0667699D01*
X0667366Y0288233D01*
X0666700Y0287900D02*
X0666033D01*
X0666366D01*
Y0289899D01*
X0666700Y0289566D01*
X0663701Y0287900D02*
X0665034D01*
X0663701Y0289233D01*
Y0289566D01*
X0664034Y0289899D01*
X0664700D01*
X0665034Y0289566D01*
X0625365Y0300833D02*
X0625699Y0300500D01*
Y0299833D01*
X0625365Y0299500D01*
X0624032D01*
X0623699Y0299833D01*
Y0300500D01*
X0624032Y0300833D01*
X0625365Y0301499D02*
X0625699Y0301833D01*
Y0302499D01*
X0625365Y0302832D01*
X0625032D01*
X0624699Y0302499D01*
Y0302166D01*
Y0302499D01*
X0624366Y0302832D01*
X0624032D01*
X0623699Y0302499D01*
Y0301833D01*
X0624032Y0301499D01*
X0623699Y0303499D02*
Y0304165D01*
Y0303832D01*
X0625699D01*
X0625365Y0303499D01*
X0624366Y0297666D02*
X0624699Y0297999D01*
X0625366D01*
X0625699Y0297666D01*
Y0296333D01*
X0625366Y0296000D01*
X0624699D01*
X0624366Y0296333D01*
X0623700Y0297666D02*
X0623366Y0297999D01*
X0622700D01*
X0622367Y0297666D01*
Y0297333D01*
X0622700Y0297000D01*
X0623033D01*
X0622700D01*
X0622367Y0296666D01*
Y0296333D01*
X0622700Y0296000D01*
X0623366D01*
X0623700Y0296333D01*
X0620367Y0296000D02*
X0621700D01*
X0620367Y0297333D01*
Y0297666D01*
X0620701Y0297999D01*
X0621367D01*
X0621700Y0297666D01*
X0625699Y0283000D02*
X0627699D01*
Y0284000D01*
X0627365Y0284333D01*
X0626699D01*
X0626366Y0284000D01*
Y0283000D01*
Y0283666D02*
X0625699Y0284333D01*
Y0286332D02*
Y0284999D01*
X0627032Y0286332D01*
X0627365D01*
X0627699Y0285999D01*
Y0285333D01*
X0627365Y0284999D01*
X0625699Y0288332D02*
Y0286999D01*
X0627032Y0288332D01*
X0627365D01*
X0627699Y0287998D01*
Y0287332D01*
X0627365Y0286999D01*
X0609199Y0285500D02*
X0611199D01*
Y0286500D01*
X0610865Y0286833D01*
X0610199D01*
X0609866Y0286500D01*
Y0285500D01*
Y0286166D02*
X0609199Y0286833D01*
Y0288499D02*
X0611199D01*
X0610199Y0287499D01*
Y0288832D01*
X0609199Y0289499D02*
Y0290165D01*
Y0289832D01*
X0611199D01*
X0610865Y0289499D01*
X0604199Y0291500D02*
X0606199D01*
Y0292500D01*
X0605865Y0292833D01*
X0605199D01*
X0604866Y0292500D01*
Y0291500D01*
Y0292166D02*
X0604199Y0292833D01*
Y0294499D02*
X0606199D01*
X0605199Y0293499D01*
Y0294832D01*
X0605865Y0295499D02*
X0606199Y0295832D01*
Y0296498D01*
X0605865Y0296832D01*
X0604532D01*
X0604199Y0296498D01*
Y0295832D01*
X0604532Y0295499D01*
X0605865D01*
X0619366Y0273333D02*
Y0274666D01*
X0619699Y0274999D01*
X0620366D01*
X0620699Y0274666D01*
Y0273333D01*
X0620366Y0273000D01*
X0619699D01*
X0620033Y0273666D02*
X0619366Y0273000D01*
X0619699D02*
X0619366Y0273333D01*
X0618700D02*
X0618366Y0273000D01*
X0617700D01*
X0617367Y0273333D01*
Y0274666D01*
X0617700Y0274999D01*
X0618366D01*
X0618700Y0274666D01*
Y0274333D01*
X0618366Y0274000D01*
X0617367D01*
X0622032Y0292333D02*
X0623365D01*
X0623699Y0292000D01*
Y0291333D01*
X0623365Y0291000D01*
X0622032D01*
X0621699Y0291333D01*
Y0292000D01*
X0622366Y0291666D02*
X0621699Y0292333D01*
Y0292000D02*
X0622032Y0292333D01*
X0623365Y0292999D02*
X0623699Y0293333D01*
Y0293999D01*
X0623365Y0294332D01*
X0623032D01*
X0622699Y0293999D01*
X0622366Y0294332D01*
X0622032D01*
X0621699Y0293999D01*
Y0293333D01*
X0622032Y0292999D01*
X0622366D01*
X0622699Y0293333D01*
X0623032Y0292999D01*
X0623365D01*
X0622699Y0293333D02*
Y0293999D01*
X0607366Y0268666D02*
X0607699Y0268999D01*
X0608366D01*
X0608699Y0268666D01*
Y0267333D01*
X0608366Y0267000D01*
X0607699D01*
X0607366Y0267333D01*
X0606700Y0268666D02*
X0606366Y0268999D01*
X0605700D01*
X0605367Y0268666D01*
Y0268333D01*
X0605700Y0268000D01*
X0606033D01*
X0605700D01*
X0605367Y0267666D01*
Y0267333D01*
X0605700Y0267000D01*
X0606366D01*
X0606700Y0267333D01*
X0604700Y0268999D02*
X0603368D01*
Y0268666D01*
X0604700Y0267333D01*
Y0267000D01*
X0544199Y0360499D02*
Y0358500D01*
X0543199D01*
X0542866Y0358833D01*
Y0360166D01*
X0543199Y0360499D01*
X0544199D01*
X0542200D02*
X0540867D01*
Y0360166D01*
X0542200Y0358833D01*
Y0358500D01*
X0645199Y0401999D02*
Y0400000D01*
X0644199D01*
X0643866Y0400333D01*
Y0401666D01*
X0644199Y0401999D01*
X0645199D01*
X0641867D02*
X0643200D01*
Y0401000D01*
X0642533Y0401333D01*
X0642200D01*
X0641867Y0401000D01*
Y0400333D01*
X0642200Y0400000D01*
X0642867D01*
X0643200Y0400333D01*
X0598199Y0401999D02*
Y0400000D01*
X0597199D01*
X0596866Y0400333D01*
Y0401666D01*
X0597199Y0401999D01*
X0598199D01*
X0595200Y0400000D02*
Y0401999D01*
X0596200Y0401000D01*
X0594867D01*
X0551199Y0401999D02*
Y0400000D01*
X0550199D01*
X0549866Y0400333D01*
Y0401666D01*
X0550199Y0401999D01*
X0551199D01*
X0549200Y0401666D02*
X0548867Y0401999D01*
X0548200D01*
X0547867Y0401666D01*
Y0401333D01*
X0548200Y0401000D01*
X0548533D01*
X0548200D01*
X0547867Y0400666D01*
Y0400333D01*
X0548200Y0400000D01*
X0548867D01*
X0549200Y0400333D01*
X0610865Y0230333D02*
X0611199Y0230000D01*
Y0229333D01*
X0610865Y0229000D01*
X0609532D01*
X0609199Y0229333D01*
Y0230000D01*
X0609532Y0230333D01*
X0610865Y0230999D02*
X0611199Y0231333D01*
Y0231999D01*
X0610865Y0232332D01*
X0610532D01*
X0610199Y0231999D01*
Y0231666D01*
Y0231999D01*
X0609866Y0232332D01*
X0609532D01*
X0609199Y0231999D01*
Y0231333D01*
X0609532Y0230999D01*
X0611199Y0234332D02*
X0610865Y0233665D01*
X0610199Y0232999D01*
X0609532D01*
X0609199Y0233332D01*
Y0233998D01*
X0609532Y0234332D01*
X0609866D01*
X0610199Y0233998D01*
Y0232999D01*
X0593198Y0333000D02*
X0591532D01*
X0591199Y0333333D01*
Y0334000D01*
X0591532Y0334333D01*
X0593198D01*
X0592865Y0334999D02*
X0593198Y0335333D01*
Y0335999D01*
X0592865Y0336332D01*
X0592532D01*
X0592199Y0335999D01*
X0591866Y0336332D01*
X0591532D01*
X0591199Y0335999D01*
Y0335333D01*
X0591532Y0334999D01*
X0591866D01*
X0592199Y0335333D01*
X0592532Y0334999D01*
X0592865D01*
X0592199Y0335333D02*
Y0335999D01*
X0546199Y0333000D02*
X0544532D01*
X0544199Y0333333D01*
Y0334000D01*
X0544532Y0334333D01*
X0546199D01*
Y0334999D02*
Y0336332D01*
X0545865D01*
X0544532Y0334999D01*
X0544199D01*
X0606200Y0387499D02*
X0606700Y0387999D01*
X0607699D01*
X0608199Y0387499D01*
Y0385500D01*
X0607699Y0385000D01*
X0606700D01*
X0606200Y0385500D01*
X0603201Y0385000D02*
X0605200D01*
X0603201Y0386999D01*
Y0387499D01*
X0603701Y0387999D01*
X0604700D01*
X0605200Y0387499D01*
X0600202Y0387999D02*
X0601201Y0387499D01*
X0602201Y0386500D01*
Y0385500D01*
X0601701Y0385000D01*
X0600702D01*
X0600202Y0385500D01*
Y0386000D01*
X0600702Y0386500D01*
X0602201D01*
X0653200Y0387499D02*
X0653700Y0387999D01*
X0654699D01*
X0655199Y0387499D01*
Y0385500D01*
X0654699Y0385000D01*
X0653700D01*
X0653200Y0385500D01*
X0650201Y0385000D02*
X0652200D01*
X0650201Y0386999D01*
Y0387499D01*
X0650701Y0387999D01*
X0651700D01*
X0652200Y0387499D01*
X0647202Y0387999D02*
X0649201D01*
Y0386500D01*
X0648201Y0386999D01*
X0647702D01*
X0647202Y0386500D01*
Y0385500D01*
X0647702Y0385000D01*
X0648701D01*
X0649201Y0385500D01*
X0605366Y0288166D02*
X0605699Y0288499D01*
X0606366D01*
X0606699Y0288166D01*
Y0286833D01*
X0606366Y0286500D01*
X0605699D01*
X0605366Y0286833D01*
X0603367Y0288499D02*
X0604700D01*
Y0287500D01*
X0604033Y0287833D01*
X0603700D01*
X0603367Y0287500D01*
Y0286833D01*
X0603700Y0286500D01*
X0604366D01*
X0604700Y0286833D01*
X0606866Y0253166D02*
X0607199Y0253499D01*
X0607866D01*
X0608199Y0253166D01*
Y0251833D01*
X0607866Y0251500D01*
X0607199D01*
X0606866Y0251833D01*
X0605200Y0251500D02*
Y0253499D01*
X0606200Y0252500D01*
X0604867D01*
X0559866Y0241166D02*
X0560199Y0241499D01*
X0560866D01*
X0561199Y0241166D01*
Y0239833D01*
X0560866Y0239500D01*
X0560199D01*
X0559866Y0239833D01*
X0559200Y0241166D02*
X0558867Y0241499D01*
X0558200D01*
X0557867Y0241166D01*
Y0240833D01*
X0558200Y0240500D01*
X0558533D01*
X0558200D01*
X0557867Y0240166D01*
Y0239833D01*
X0558200Y0239500D01*
X0558867D01*
X0559200Y0239833D01*
X0550866Y0290166D02*
X0551199Y0290499D01*
X0551866D01*
X0552199Y0290166D01*
Y0288833D01*
X0551866Y0288500D01*
X0551199D01*
X0550866Y0288833D01*
X0548867Y0288500D02*
X0550200D01*
X0548867Y0289833D01*
Y0290166D01*
X0549200Y0290499D01*
X0549866D01*
X0550200Y0290166D01*
X0556366Y0296166D02*
X0556699Y0296499D01*
X0557366D01*
X0557699Y0296166D01*
Y0294833D01*
X0557366Y0294500D01*
X0556699D01*
X0556366Y0294833D01*
X0555700Y0294500D02*
X0555033D01*
X0555367D01*
Y0296499D01*
X0555700Y0296166D01*
X0579365Y0304833D02*
X0579699Y0304500D01*
Y0303833D01*
X0579365Y0303500D01*
X0578032D01*
X0577699Y0303833D01*
Y0304500D01*
X0578032Y0304833D01*
X0579365Y0305499D02*
X0579699Y0305833D01*
Y0306499D01*
X0579365Y0306832D01*
X0579032D01*
X0578699Y0306499D01*
X0578366Y0306832D01*
X0578032D01*
X0577699Y0306499D01*
Y0305833D01*
X0578032Y0305499D01*
X0578366D01*
X0578699Y0305833D01*
X0579032Y0305499D01*
X0579365D01*
X0578699Y0305833D02*
Y0306499D01*
X0545365Y0304333D02*
X0545698Y0304000D01*
Y0303333D01*
X0545365Y0303000D01*
X0544032D01*
X0543699Y0303333D01*
Y0304000D01*
X0544032Y0304333D01*
X0545698Y0304999D02*
Y0306332D01*
X0545365D01*
X0544032Y0304999D01*
X0543699D01*
X0544065Y0315166D02*
X0544399Y0315499D01*
X0545065D01*
X0545398Y0315166D01*
Y0313833D01*
X0545065Y0313500D01*
X0544399D01*
X0544065Y0313833D01*
X0543399D02*
X0543066Y0313500D01*
X0542399D01*
X0542066Y0313833D01*
Y0315166D01*
X0542399Y0315499D01*
X0543066D01*
X0543399Y0315166D01*
Y0314833D01*
X0543066Y0314500D01*
X0542066D01*
X0622199Y0317000D02*
Y0319999D01*
X0620700D01*
X0620200Y0319499D01*
Y0318499D01*
X0620700Y0318000D01*
X0622199D01*
X0621199D02*
X0620200Y0317000D01*
X0619200D02*
X0618200D01*
X0618700D01*
Y0319999D01*
X0619200Y0319499D01*
X0616701Y0317000D02*
X0615701D01*
X0616201D01*
Y0319999D01*
X0616701Y0319499D01*
X0669199Y0317000D02*
Y0319999D01*
X0667700D01*
X0667200Y0319499D01*
Y0318499D01*
X0667700Y0318000D01*
X0669199D01*
X0668199D02*
X0667200Y0317000D01*
X0666200D02*
X0665200D01*
X0665700D01*
Y0319999D01*
X0666200Y0319499D01*
X0661702Y0317000D02*
X0663701D01*
X0661702Y0318999D01*
Y0319499D01*
X0662201Y0319999D01*
X0663201D01*
X0663701Y0319499D01*
X0561366Y0244666D02*
X0561699Y0244999D01*
X0562366D01*
X0562699Y0244666D01*
Y0243333D01*
X0562366Y0243000D01*
X0561699D01*
X0561366Y0243333D01*
X0560700Y0243000D02*
X0560033D01*
X0560366D01*
Y0244999D01*
X0560700Y0244666D01*
X0559034D02*
X0558700Y0244999D01*
X0558034D01*
X0557701Y0244666D01*
Y0244333D01*
X0558034Y0244000D01*
X0558367D01*
X0558034D01*
X0557701Y0243666D01*
Y0243333D01*
X0558034Y0243000D01*
X0558700D01*
X0559034Y0243333D01*
X0607865Y0258833D02*
X0608198Y0258500D01*
Y0257833D01*
X0607865Y0257500D01*
X0606532D01*
X0606199Y0257833D01*
Y0258500D01*
X0606532Y0258833D01*
X0606199Y0259499D02*
Y0260166D01*
Y0259833D01*
X0608198D01*
X0607865Y0259499D01*
X0606199Y0262165D02*
X0608198D01*
X0607199Y0261165D01*
Y0262498D01*
X0592065Y0315166D02*
X0592399Y0315499D01*
X0593065D01*
X0593398Y0315166D01*
Y0313833D01*
X0593065Y0313500D01*
X0592399D01*
X0592065Y0313833D01*
X0590066Y0313500D02*
X0591399D01*
X0590066Y0314833D01*
Y0315166D01*
X0590399Y0315499D01*
X0591066D01*
X0591399Y0315166D01*
X0589399Y0313500D02*
X0588733D01*
X0589066D01*
Y0315499D01*
X0589399Y0315166D01*
X0640065D02*
X0640399Y0315499D01*
X0641065D01*
X0641398Y0315166D01*
Y0313833D01*
X0641065Y0313500D01*
X0640399D01*
X0640065Y0313833D01*
X0638066Y0313500D02*
X0639399D01*
X0638066Y0314833D01*
Y0315166D01*
X0638399Y0315499D01*
X0639066D01*
X0639399Y0315166D01*
X0636067Y0313500D02*
X0637399D01*
X0636067Y0314833D01*
Y0315166D01*
X0636400Y0315499D01*
X0637066D01*
X0637399Y0315166D01*
X0640199Y0333000D02*
X0638532D01*
X0638199Y0333333D01*
Y0334000D01*
X0638532Y0334333D01*
X0640199D01*
X0638532Y0334999D02*
X0638199Y0335333D01*
Y0335999D01*
X0638532Y0336332D01*
X0639865D01*
X0640199Y0335999D01*
Y0335333D01*
X0639865Y0334999D01*
X0639532D01*
X0639199Y0335333D01*
Y0336332D01*
X0631199Y0239499D02*
Y0237833D01*
X0630866Y0237500D01*
X0630199D01*
X0629866Y0237833D01*
Y0239499D01*
X0629200Y0237500D02*
X0628533D01*
X0628866D01*
Y0239499D01*
X0629200Y0239166D01*
X0627534D02*
X0627200Y0239499D01*
X0626534D01*
X0626201Y0239166D01*
Y0237833D01*
X0626534Y0237500D01*
X0627200D01*
X0627534Y0237833D01*
Y0239166D01*
X0576198Y0310000D02*
X0575865D01*
X0575199Y0310666D01*
X0575865Y0311333D01*
X0576198D01*
X0575199Y0310666D02*
X0574199D01*
Y0311999D02*
Y0312666D01*
Y0312333D01*
X0576198D01*
X0575865Y0311999D01*
X0625199Y0218000D02*
Y0219999D01*
X0624199D01*
X0623866Y0219666D01*
Y0219000D01*
X0624199Y0218666D01*
X0625199D01*
X0624533D02*
X0623866Y0218000D01*
X0621867D02*
X0623200D01*
X0621867Y0219333D01*
Y0219666D01*
X0622200Y0219999D01*
X0622866D01*
X0623200Y0219666D01*
X0621200D02*
X0620867Y0219999D01*
X0620201D01*
X0619868Y0219666D01*
Y0219333D01*
X0620201Y0219000D01*
X0620534D01*
X0620201D01*
X0619868Y0218666D01*
Y0218333D01*
X0620201Y0218000D01*
X0620867D01*
X0621200Y0218333D01*
X0600699Y0292499D02*
Y0290000D01*
X0600199Y0289500D01*
X0599200D01*
X0598700Y0290000D01*
Y0292499D01*
X0597700Y0289500D02*
X0596700D01*
X0597200D01*
Y0292499D01*
X0597700Y0291999D01*
X0663199Y0239666D02*
X0662866Y0239999D01*
X0662199D01*
X0661866Y0239666D01*
Y0239333D01*
X0662199Y0239000D01*
X0662533D01*
X0662199D01*
X0661866Y0238666D01*
Y0238333D01*
X0662199Y0238000D01*
X0662866D01*
X0663199Y0238333D01*
X0661200Y0239999D02*
Y0238666D01*
X0660533Y0238000D01*
X0659867Y0238666D01*
Y0239999D01*
X0659200Y0239666D02*
X0658867Y0239999D01*
X0658201D01*
X0657867Y0239666D01*
Y0239333D01*
X0658201Y0239000D01*
X0658534D01*
X0658201D01*
X0657867Y0238666D01*
Y0238333D01*
X0658201Y0238000D01*
X0658867D01*
X0659200Y0238333D01*
X0652866Y0239666D02*
X0653199Y0239999D01*
X0653866D01*
X0654199Y0239666D01*
Y0238333D01*
X0653866Y0238000D01*
X0653199D01*
X0652866Y0238333D01*
X0650867Y0239666D02*
X0651200Y0239999D01*
X0651866D01*
X0652200Y0239666D01*
Y0239333D01*
X0651866Y0239000D01*
X0651200D01*
X0650867Y0238666D01*
Y0238333D01*
X0651200Y0238000D01*
X0651866D01*
X0652200Y0238333D01*
X0646366Y0239666D02*
X0646699Y0239999D01*
X0647366D01*
X0647699Y0239666D01*
Y0238333D01*
X0647366Y0238000D01*
X0646699D01*
X0646366Y0238333D01*
X0645700Y0239999D02*
Y0238000D01*
X0644367D01*
X0643700Y0239999D02*
Y0238000D01*
Y0238666D01*
X0642368Y0239999D01*
X0643367Y0239000D01*
X0642368Y0238000D01*
X0641199Y0248000D02*
Y0249999D01*
X0640533Y0249333D01*
X0639866Y0249999D01*
Y0248000D01*
X0639200Y0249999D02*
X0638533D01*
X0638867D01*
Y0248000D01*
X0639200D01*
X0638533D01*
X0636201Y0249666D02*
X0636534Y0249999D01*
X0637200D01*
X0637534Y0249666D01*
Y0249333D01*
X0637200Y0249000D01*
X0636534D01*
X0636201Y0248666D01*
Y0248333D01*
X0636534Y0248000D01*
X0637200D01*
X0637534Y0248333D01*
X0634535Y0249999D02*
X0635201D01*
X0635534Y0249666D01*
Y0248333D01*
X0635201Y0248000D01*
X0634535D01*
X0634201Y0248333D01*
Y0249666D01*
X0634535Y0249999D01*
X0631699Y0248000D02*
Y0249999D01*
X0631033Y0249333D01*
X0630366Y0249999D01*
Y0248000D01*
X0628700Y0249999D02*
X0629366D01*
X0629700Y0249666D01*
Y0248333D01*
X0629366Y0248000D01*
X0628700D01*
X0628367Y0248333D01*
Y0249666D01*
X0628700Y0249999D01*
X0626368Y0249666D02*
X0626701Y0249999D01*
X0627367D01*
X0627700Y0249666D01*
Y0249333D01*
X0627367Y0249000D01*
X0626701D01*
X0626368Y0248666D01*
Y0248333D01*
X0626701Y0248000D01*
X0627367D01*
X0627700Y0248333D01*
X0625701Y0249999D02*
X0625035D01*
X0625368D01*
Y0248000D01*
X0625701D01*
X0625035D01*
X0621699D02*
Y0249333D01*
X0621033Y0249999D01*
X0620366Y0249333D01*
Y0248000D01*
Y0249000D01*
X0621699D01*
X0613699Y0249999D02*
Y0248000D01*
X0612699D01*
X0612366Y0248333D01*
Y0248666D01*
X0612699Y0249000D01*
X0613699D01*
X0612699D01*
X0612366Y0249333D01*
Y0249666D01*
X0612699Y0249999D01*
X0613699D01*
X0606866Y0239666D02*
X0607199Y0239999D01*
X0607866D01*
X0608199Y0239666D01*
Y0238333D01*
X0607866Y0238000D01*
X0607199D01*
X0606866Y0238333D01*
Y0239000D01*
X0607533D01*
X0606200Y0238000D02*
Y0239999D01*
X0604867Y0238000D01*
Y0239999D01*
X0604200D02*
Y0238000D01*
X0603201D01*
X0602868Y0238333D01*
Y0239666D01*
X0603201Y0239999D01*
X0604200D01*
D136*
X0588740Y0327410D02*
G03*
X0588740Y0327410I-0000787J0000000D01*
G01*
X0541740D02*
G03*
X0541740Y0327410I-0000787J0000000D01*
G01*
X0635740D02*
G03*
X0635740Y0327410I-0000787J0000000D01*
G01*
D137*
X0565191Y0283689D02*
G03*
X0565191Y0283689I-0001181J0000000D01*
G01*
M02*
