G04 Layer_Color=16711935*
%FSAX24Y24*%
%MOIN*%
G70*
G01*
G75*
%ADD46C,0.0787*%
%ADD85R,0.0285X0.0285*%
%ADD86R,0.0285X0.0285*%
%ADD99R,0.0257X0.0297*%
%ADD100R,0.0297X0.0257*%
%ADD113C,0.0710*%
%ADD114C,0.1300*%
%ADD115O,0.0552X0.0867*%
%ADD116C,0.0180*%
%ADD117R,0.2285X0.1041*%
%ADD118R,0.0430X0.1041*%
%ADD119R,0.0986X0.0986*%
%ADD120R,0.0415X0.0237*%
%ADD121R,0.0395X0.0631*%
%ADD122O,0.0178X0.0690*%
%ADD123O,0.0690X0.0178*%
%ADD124R,0.0710X0.0630*%
%ADD125O,0.0257X0.0710*%
%ADD126R,0.2167X0.0612*%
%ADD127R,0.0438X0.0560*%
%ADD128R,0.0690X0.1025*%
%ADD129R,0.0828X0.0612*%
%ADD130R,0.1143X0.0533*%
%ADD131R,0.0550X0.0300*%
%ADD132R,0.0257X0.0415*%
%ADD133R,0.0415X0.0257*%
%ADD134R,0.0457X0.0240*%
%ADD135R,0.1280X0.1680*%
G36*
X057920Y037540D02*
X059420Y037540D01*
X059420Y037540D01*
X059469Y037540D01*
X059470Y037540D01*
X059472D01*
X059473Y037540D01*
X059474Y037540D01*
X059476Y037539D01*
X059477Y037539D01*
X059574Y037520D01*
X059575Y037520D01*
X059576Y037520D01*
X059577Y037519D01*
X059579Y037519D01*
X059580Y037518D01*
X059581Y037518D01*
X059672Y037480D01*
X059673Y037480D01*
X059674Y037479D01*
X059676Y037478D01*
X059677Y037478D01*
X059678Y037477D01*
X059679Y037476D01*
X059761Y037422D01*
X059762Y037421D01*
X059763Y037420D01*
X059764Y037419D01*
X059765Y037419D01*
X059766Y037418D01*
X059767Y037417D01*
X059837Y037347D01*
X059837Y037346D01*
X059838Y037345D01*
X059839Y037344D01*
X059840Y037343D01*
X059841Y037342D01*
X059842Y037341D01*
X059896Y037259D01*
X059897Y037258D01*
X059898Y037257D01*
X059898Y037256D01*
X059899Y037255D01*
X059899Y037253D01*
X059900Y037252D01*
X059938Y037161D01*
X059938Y037160D01*
X059939Y037159D01*
X059939Y037157D01*
X059939Y037156D01*
X059940Y037155D01*
X059940Y037154D01*
X059959Y037057D01*
X059959Y037056D01*
X059960Y037054D01*
X059960Y037053D01*
X059960Y037052D01*
Y037051D01*
X059960Y037049D01*
X059960Y037000D01*
X059960Y035600D01*
X059960Y035595D01*
X059959Y035590D01*
X059957Y035585D01*
X059955Y035580D01*
X059952Y035576D01*
X059948Y035572D01*
X059748Y035372D01*
X059744Y035368D01*
X059740Y035365D01*
X059735Y035363D01*
X059730Y035361D01*
X059725Y035360D01*
X059720Y035360D01*
X057620D01*
X057615Y035360D01*
X057610Y035361D01*
X057605Y035363D01*
X057600Y035365D01*
X057596Y035368D01*
X057592Y035372D01*
X057392Y035572D01*
X057388Y035576D01*
X057385Y035580D01*
X057383Y035585D01*
X057381Y035590D01*
X057380Y035595D01*
X057380Y035600D01*
X057380Y037000D01*
D01*
X057380Y037049D01*
X057380Y037051D01*
Y037052D01*
X057380Y037053D01*
X057380Y037054D01*
X057380Y037056D01*
X057381Y037057D01*
X057400Y037154D01*
X057400Y037155D01*
X057400Y037156D01*
X057401Y037157D01*
X057401Y037159D01*
X057402Y037160D01*
X057402Y037161D01*
X057440Y037252D01*
X057440Y037253D01*
X057441Y037255D01*
X057442Y037256D01*
X057442Y037257D01*
X057443Y037258D01*
X057443Y037259D01*
X057498Y037341D01*
X057499Y037342D01*
X057500Y037343D01*
X057501Y037344D01*
X057501Y037345D01*
X057502Y037346D01*
X057503Y037347D01*
X057573Y037417D01*
X057574Y037418D01*
X057575Y037419D01*
X057576Y037419D01*
X057577Y037420D01*
X057578Y037421D01*
X057579Y037422D01*
X057661Y037476D01*
X057662Y037477D01*
X057663Y037478D01*
X057664Y037478D01*
X057665Y037479D01*
X057667Y037480D01*
X057668Y037480D01*
X057759Y037518D01*
X057760Y037518D01*
X057761Y037519D01*
X057762Y037519D01*
X057764Y037520D01*
X057765Y037520D01*
X057766Y037520D01*
X057863Y037539D01*
X057864Y037539D01*
X057865Y037540D01*
X057867Y037540D01*
X057868Y037540D01*
X057869D01*
X057871Y037540D01*
X057920Y037540D01*
D02*
G37*
G36*
X062570Y039190D02*
X064070Y039190D01*
X064070Y039190D01*
X064119Y039190D01*
X064120Y039190D01*
X064122D01*
X064123Y039190D01*
X064124Y039190D01*
X064126Y039189D01*
X064127Y039189D01*
X064224Y039170D01*
X064225Y039170D01*
X064226Y039169D01*
X064227Y039169D01*
X064229Y039169D01*
X064230Y039168D01*
X064231Y039168D01*
X064322Y039130D01*
X064323Y039130D01*
X064324Y039129D01*
X064326Y039128D01*
X064327Y039128D01*
X064328Y039127D01*
X064329Y039126D01*
X064411Y039072D01*
X064412Y039071D01*
X064413Y039070D01*
X064414Y039069D01*
X064415Y039069D01*
X064416Y039068D01*
X064417Y039067D01*
X064487Y038997D01*
X064488Y038996D01*
X064488Y038995D01*
X064489Y038994D01*
X064490Y038993D01*
X064491Y038992D01*
X064492Y038991D01*
X064546Y038909D01*
X064547Y038908D01*
X064548Y038907D01*
X064548Y038906D01*
X064549Y038905D01*
X064549Y038903D01*
X064550Y038902D01*
X064588Y038811D01*
X064588Y038810D01*
X064589Y038809D01*
X064589Y038807D01*
X064589Y038806D01*
X064590Y038805D01*
X064590Y038804D01*
X064609Y038707D01*
X064609Y038706D01*
X064610Y038704D01*
X064610Y038703D01*
X064610Y038702D01*
Y038701D01*
X064610Y038699D01*
X064610Y038650D01*
X064610Y037250D01*
X064610Y037245D01*
X064609Y037240D01*
X064607Y037235D01*
X064605Y037230D01*
X064602Y037226D01*
X064598Y037222D01*
X064398Y037022D01*
X064394Y037018D01*
X064390Y037015D01*
X064385Y037013D01*
X064380Y037011D01*
X064375Y037010D01*
X064370Y037010D01*
X062270D01*
X062265Y037010D01*
X062260Y037011D01*
X062255Y037013D01*
X062250Y037015D01*
X062246Y037018D01*
X062242Y037022D01*
X062042Y037222D01*
X062038Y037226D01*
X062035Y037230D01*
X062033Y037235D01*
X062031Y037240D01*
X062030Y037245D01*
X062030Y037250D01*
X062030Y038650D01*
D01*
X062030Y038699D01*
X062030Y038701D01*
Y038702D01*
X062030Y038703D01*
X062030Y038704D01*
X062030Y038706D01*
X062031Y038707D01*
X062050Y038804D01*
X062050Y038805D01*
X062050Y038806D01*
X062051Y038807D01*
X062051Y038809D01*
X062052Y038810D01*
X062052Y038811D01*
X062090Y038902D01*
X062090Y038903D01*
X062091Y038905D01*
X062092Y038906D01*
X062092Y038907D01*
X062093Y038908D01*
X062093Y038909D01*
X062148Y038991D01*
X062149Y038992D01*
X062150Y038993D01*
X062151Y038994D01*
X062151Y038995D01*
X062152Y038996D01*
X062153Y038997D01*
X062223Y039067D01*
X062224Y039068D01*
X062225Y039069D01*
X062226Y039069D01*
X062227Y039070D01*
X062228Y039071D01*
X062229Y039072D01*
X062311Y039126D01*
X062312Y039127D01*
X062313Y039128D01*
X062314Y039128D01*
X062315Y039129D01*
X062317Y039130D01*
X062318Y039130D01*
X062409Y039168D01*
X062410Y039168D01*
X062411Y039169D01*
X062412Y039169D01*
X062414Y039170D01*
X062415Y039170D01*
X062416Y039170D01*
X062513Y039189D01*
X062514Y039189D01*
X062515Y039190D01*
X062517Y039190D01*
X062518Y039190D01*
X062519D01*
X062521Y039190D01*
X062570Y039190D01*
D02*
G37*
D46*
X054120Y027200D02*
D03*
D85*
X058570Y030065D02*
D03*
Y029750D02*
D03*
X057570Y030057D02*
D03*
Y029743D02*
D03*
X060400Y025843D02*
D03*
Y026157D02*
D03*
X054770Y030343D02*
D03*
Y030657D02*
D03*
X057570Y030657D02*
D03*
Y030343D02*
D03*
X055020Y028665D02*
D03*
Y028350D02*
D03*
X060520Y028150D02*
D03*
Y028465D02*
D03*
X061320Y022993D02*
D03*
Y023307D02*
D03*
X062770Y030355D02*
D03*
Y030040D02*
D03*
D86*
X063377Y031450D02*
D03*
X063062D02*
D03*
X058677D02*
D03*
X058362D02*
D03*
X056462Y024400D02*
D03*
X056777D02*
D03*
X053977Y031450D02*
D03*
X053662D02*
D03*
X055820Y029250D02*
D03*
X055505D02*
D03*
X056312Y024050D02*
D03*
X056627D02*
D03*
X060462Y025550D02*
D03*
X060777D02*
D03*
X060757Y026500D02*
D03*
X060443D02*
D03*
X062812Y029697D02*
D03*
X063127D02*
D03*
D99*
X057870Y023200D02*
D03*
X057516D02*
D03*
X057074D02*
D03*
X056720D02*
D03*
X062447Y022200D02*
D03*
X062093D02*
D03*
D100*
X062720Y029404D02*
D03*
Y029050D02*
D03*
X063120Y030375D02*
D03*
Y030020D02*
D03*
Y029375D02*
D03*
Y029020D02*
D03*
X060820Y029273D02*
D03*
Y029627D02*
D03*
X061020Y028327D02*
D03*
Y027973D02*
D03*
D113*
X066056Y024400D02*
D03*
X065269D02*
D03*
X063699D02*
D03*
X062909D02*
D03*
X062119D02*
D03*
X061332D02*
D03*
X060544D02*
D03*
X064481D02*
D03*
X058284Y022200D02*
D03*
X057494D02*
D03*
X056706D02*
D03*
X055919D02*
D03*
X061294D02*
D03*
X060506D02*
D03*
X063206D02*
D03*
X063994D02*
D03*
D114*
X053920Y022250D02*
D03*
X066020D02*
D03*
X062620Y040300D02*
D03*
X057920D02*
D03*
D115*
X053120Y039753D02*
D03*
Y036800D02*
D03*
D116*
X053670Y032350D02*
D03*
X063320D02*
D03*
X058620D02*
D03*
X053420Y030800D02*
D03*
X059020Y023450D02*
D03*
X058720D02*
D03*
X058420D02*
D03*
X058120D02*
D03*
X057650Y026050D02*
D03*
X058070Y026400D02*
D03*
Y026138D02*
D03*
X058370Y026400D02*
D03*
X064820Y029350D02*
D03*
X064520D02*
D03*
X062920Y034250D02*
D03*
Y034500D02*
D03*
X063170D02*
D03*
X057020Y028750D02*
D03*
X053977Y031450D02*
D03*
X063320Y026050D02*
D03*
X063020D02*
D03*
X055620Y033650D02*
D03*
X055870D02*
D03*
X056120D02*
D03*
X056370D02*
D03*
X056620D02*
D03*
X055870Y033400D02*
D03*
X056120D02*
D03*
X056370D02*
D03*
X056620D02*
D03*
Y033150D02*
D03*
X056370D02*
D03*
X055870D02*
D03*
X055620D02*
D03*
Y032900D02*
D03*
Y032150D02*
D03*
Y032400D02*
D03*
X055870Y032900D02*
D03*
Y032650D02*
D03*
Y032400D02*
D03*
Y032150D02*
D03*
X056120D02*
D03*
X056370D02*
D03*
X056620D02*
D03*
Y032900D02*
D03*
Y032650D02*
D03*
Y032400D02*
D03*
X056370D02*
D03*
X056120D02*
D03*
Y032650D02*
D03*
X056370Y032900D02*
D03*
Y032650D02*
D03*
X055620D02*
D03*
X056120Y032900D02*
D03*
Y033150D02*
D03*
X055620Y033400D02*
D03*
X060320Y033650D02*
D03*
X060570D02*
D03*
X060820D02*
D03*
X061070D02*
D03*
X061320D02*
D03*
X060570Y033400D02*
D03*
X060820D02*
D03*
X061070D02*
D03*
X061320D02*
D03*
Y033150D02*
D03*
X061070D02*
D03*
X060570D02*
D03*
X060320D02*
D03*
Y032900D02*
D03*
Y032150D02*
D03*
Y032400D02*
D03*
X060570Y032900D02*
D03*
Y032650D02*
D03*
Y032400D02*
D03*
Y032150D02*
D03*
X060820D02*
D03*
X061070D02*
D03*
X061320D02*
D03*
Y032900D02*
D03*
Y032650D02*
D03*
Y032400D02*
D03*
X061070D02*
D03*
X060820D02*
D03*
Y032650D02*
D03*
X061070Y032900D02*
D03*
Y032650D02*
D03*
X060320D02*
D03*
X060820Y032900D02*
D03*
Y033150D02*
D03*
X060320Y033400D02*
D03*
X060820Y029627D02*
D03*
X061670Y029350D02*
D03*
X057220Y030900D02*
D03*
X056970D02*
D03*
X056720D02*
D03*
X057570Y030057D02*
D03*
X055520Y030350D02*
D03*
Y030100D02*
D03*
Y029850D02*
D03*
Y028950D02*
D03*
X055820Y029250D02*
D03*
X056070Y028350D02*
D03*
X054120Y028650D02*
D03*
X054405D02*
D03*
X054665Y028658D02*
D03*
X054670Y028950D02*
D03*
X057570Y023750D02*
D03*
X058120Y024350D02*
D03*
X058450Y028829D02*
D03*
X058920Y028750D02*
D03*
X058520Y030050D02*
D03*
Y029750D02*
D03*
X060757Y026500D02*
D03*
X063377Y031450D02*
D03*
X058997Y031350D02*
D03*
X058920Y031050D02*
D03*
X059220Y031750D02*
D03*
X053662Y031450D02*
D03*
X065970Y034750D02*
D03*
X065720D02*
D03*
X065470D02*
D03*
X065220D02*
D03*
X064970D02*
D03*
X065970Y034500D02*
D03*
Y034250D02*
D03*
X061270Y034750D02*
D03*
X061020D02*
D03*
X060770D02*
D03*
X060520D02*
D03*
X060270D02*
D03*
X061270Y034500D02*
D03*
Y034250D02*
D03*
X056570D02*
D03*
Y034500D02*
D03*
X055570Y034750D02*
D03*
X055820D02*
D03*
X056070D02*
D03*
X056320D02*
D03*
X056570D02*
D03*
X057693Y031873D02*
D03*
X065020Y033400D02*
D03*
X065520Y033150D02*
D03*
Y032900D02*
D03*
X065020Y032650D02*
D03*
X065770D02*
D03*
Y032900D02*
D03*
X065520Y032650D02*
D03*
Y032400D02*
D03*
X065770D02*
D03*
X066020D02*
D03*
Y032650D02*
D03*
Y032900D02*
D03*
Y032150D02*
D03*
X065770D02*
D03*
X065520D02*
D03*
X065270D02*
D03*
Y032400D02*
D03*
Y032650D02*
D03*
Y032900D02*
D03*
X065020Y032400D02*
D03*
Y032150D02*
D03*
Y032900D02*
D03*
Y033150D02*
D03*
X065270D02*
D03*
X065770D02*
D03*
X066020D02*
D03*
Y033400D02*
D03*
X065770D02*
D03*
X065520D02*
D03*
X065270D02*
D03*
X066020Y033650D02*
D03*
X065770D02*
D03*
X065520D02*
D03*
X065270D02*
D03*
X065020D02*
D03*
X063170Y034250D02*
D03*
X063420D02*
D03*
Y034500D02*
D03*
X058220Y034250D02*
D03*
X058470D02*
D03*
X058720D02*
D03*
Y034500D02*
D03*
X058470D02*
D03*
X058220D02*
D03*
X053520Y034250D02*
D03*
X053770D02*
D03*
X054020D02*
D03*
Y034500D02*
D03*
X053770D02*
D03*
X053520D02*
D03*
X053822Y033105D02*
D03*
X058522D02*
D03*
X060020Y025050D02*
D03*
X059720D02*
D03*
X060777Y025550D02*
D03*
X060462D02*
D03*
X060400Y026157D02*
D03*
X060520Y028150D02*
D03*
Y028465D02*
D03*
X056320Y024050D02*
D03*
X058120D02*
D03*
X057570Y024350D02*
D03*
Y024050D02*
D03*
X058120Y023750D02*
D03*
X056300Y026378D02*
D03*
X056770Y026200D02*
D03*
X056510D02*
D03*
X056100Y026210D02*
D03*
X054060Y025490D02*
D03*
X054820Y024050D02*
D03*
Y024350D02*
D03*
Y024650D02*
D03*
X054520Y024050D02*
D03*
Y024350D02*
D03*
X055120Y024650D02*
D03*
X054820Y023750D02*
D03*
X055170Y023350D02*
D03*
X055120Y024350D02*
D03*
X055420Y024650D02*
D03*
Y024350D02*
D03*
X055720D02*
D03*
Y024050D02*
D03*
X056020D02*
D03*
Y023750D02*
D03*
X056720Y023200D02*
D03*
X057516D02*
D03*
X054520Y024650D02*
D03*
X055120Y023750D02*
D03*
Y024050D02*
D03*
X056920Y023750D02*
D03*
X056620D02*
D03*
X057220D02*
D03*
X059020Y024050D02*
D03*
X058720D02*
D03*
X058420D02*
D03*
X058370Y027800D02*
D03*
X058670D02*
D03*
X058980Y027790D02*
D03*
X057870Y028400D02*
D03*
X060920Y030650D02*
D03*
Y030950D02*
D03*
X062220Y031850D02*
D03*
X059320Y026450D02*
D03*
X058870Y028400D02*
D03*
X058370D02*
D03*
X053020Y033350D02*
D03*
X065444Y030950D02*
D03*
X063720Y030350D02*
D03*
Y030650D02*
D03*
X063420D02*
D03*
Y030350D02*
D03*
X063120D02*
D03*
Y030650D02*
D03*
X062820D02*
D03*
Y030350D02*
D03*
X063135Y029565D02*
D03*
X066120Y026950D02*
D03*
Y026650D02*
D03*
Y028750D02*
D03*
X062520Y029750D02*
D03*
X062220D02*
D03*
X061920D02*
D03*
X062220Y030050D02*
D03*
X061920D02*
D03*
X061620D02*
D03*
Y030350D02*
D03*
X061920D02*
D03*
X062220D02*
D03*
X062520D02*
D03*
Y030650D02*
D03*
X062220D02*
D03*
X061920D02*
D03*
X061620D02*
D03*
X066720Y026650D02*
D03*
X066420D02*
D03*
Y027550D02*
D03*
X066720D02*
D03*
Y027850D02*
D03*
X066420D02*
D03*
Y028150D02*
D03*
X066720D02*
D03*
Y028450D02*
D03*
X066420D02*
D03*
X066320Y030250D02*
D03*
X066020D02*
D03*
Y030550D02*
D03*
X066320Y030850D02*
D03*
X066020D02*
D03*
X066620Y031150D02*
D03*
X066320D02*
D03*
X066020D02*
D03*
X063320Y028750D02*
D03*
X064220Y029350D02*
D03*
X063920D02*
D03*
X063620D02*
D03*
X065420Y029050D02*
D03*
X065120D02*
D03*
X064820D02*
D03*
X064520D02*
D03*
X064220D02*
D03*
X063920D02*
D03*
X063620D02*
D03*
X063320D02*
D03*
X063020Y028750D02*
D03*
X063620D02*
D03*
X063920D02*
D03*
Y028450D02*
D03*
X063620D02*
D03*
X063320D02*
D03*
X063020D02*
D03*
X063620Y028150D02*
D03*
X063320D02*
D03*
X063020D02*
D03*
X063920D02*
D03*
Y027850D02*
D03*
X063620D02*
D03*
X063320D02*
D03*
X063020D02*
D03*
X063620Y027550D02*
D03*
X063320D02*
D03*
X063020D02*
D03*
X065720Y028457D02*
D03*
X063020Y026350D02*
D03*
X063320D02*
D03*
X063620Y026364D02*
D03*
X063920Y026650D02*
D03*
X063620D02*
D03*
X063320D02*
D03*
X063020D02*
D03*
Y026950D02*
D03*
X063320D02*
D03*
X063620D02*
D03*
X063920D02*
D03*
X063020Y027250D02*
D03*
X063320D02*
D03*
X063920D02*
D03*
X063620D02*
D03*
X063920Y026350D02*
D03*
Y026050D02*
D03*
X063620D02*
D03*
X059020Y023750D02*
D03*
X058720D02*
D03*
X058420D02*
D03*
X055720Y024650D02*
D03*
X056020D02*
D03*
Y024350D02*
D03*
X057220Y024050D02*
D03*
X056920D02*
D03*
X056320Y023750D02*
D03*
X055420Y024050D02*
D03*
Y023750D02*
D03*
X055720D02*
D03*
X060020Y024750D02*
D03*
X059720D02*
D03*
Y024150D02*
D03*
Y023850D02*
D03*
X060020D02*
D03*
Y024150D02*
D03*
Y024450D02*
D03*
X059720D02*
D03*
X062747Y036200D02*
D03*
X053347D02*
D03*
X064096Y035400D02*
D03*
X059395D02*
D03*
X058047Y036200D02*
D03*
X065323Y029947D02*
D03*
X065717D02*
D03*
X065323Y029553D02*
D03*
X065717D02*
D03*
X054676Y035400D02*
D03*
X061320Y023300D02*
D03*
Y023000D02*
D03*
X054170Y040500D02*
D03*
Y040800D02*
D03*
X058870D02*
D03*
Y040500D02*
D03*
X063570Y040800D02*
D03*
Y040500D02*
D03*
X055457Y040800D02*
D03*
Y040500D02*
D03*
X060157Y040800D02*
D03*
Y040500D02*
D03*
X064857Y040800D02*
D03*
Y040500D02*
D03*
X062420Y036750D02*
D03*
X062670D02*
D03*
X062420Y036500D02*
D03*
X062670D02*
D03*
X057970D02*
D03*
X057720D02*
D03*
X057970Y036750D02*
D03*
X057720D02*
D03*
Y037000D02*
D03*
X057970D02*
D03*
X058920Y034950D02*
D03*
Y035200D02*
D03*
X063620Y034950D02*
D03*
Y035200D02*
D03*
X054220Y034950D02*
D03*
Y035200D02*
D03*
X057570Y038550D02*
D03*
X058570Y038800D02*
D03*
X058320D02*
D03*
X058070D02*
D03*
X057820D02*
D03*
X057570D02*
D03*
X057320D02*
D03*
X057070D02*
D03*
X058570Y038550D02*
D03*
X058320D02*
D03*
X058070D02*
D03*
X057820D02*
D03*
X057320D02*
D03*
X057070D02*
D03*
Y038300D02*
D03*
X057320D02*
D03*
X057570D02*
D03*
X057820D02*
D03*
X058070D02*
D03*
X058320D02*
D03*
X058570D02*
D03*
Y038050D02*
D03*
X058320D02*
D03*
X058070D02*
D03*
X057820D02*
D03*
X057570D02*
D03*
X057320D02*
D03*
X057070D02*
D03*
Y037800D02*
D03*
X058570D02*
D03*
X057320D02*
D03*
X057570D02*
D03*
X058320D02*
D03*
X058070D02*
D03*
X057820D02*
D03*
X062520Y038300D02*
D03*
X063270Y038800D02*
D03*
X062270Y038550D02*
D03*
X063020Y038800D02*
D03*
X062770D02*
D03*
X062520D02*
D03*
X062270D02*
D03*
X062020D02*
D03*
X061770D02*
D03*
X063270Y038550D02*
D03*
X063020D02*
D03*
X062770D02*
D03*
X062520D02*
D03*
X062020D02*
D03*
X061770D02*
D03*
Y038300D02*
D03*
X062020D02*
D03*
X062270D02*
D03*
X062770D02*
D03*
X063020D02*
D03*
X063270D02*
D03*
Y038050D02*
D03*
X063020D02*
D03*
X062770D02*
D03*
X062520D02*
D03*
X062270D02*
D03*
X062020D02*
D03*
X061770D02*
D03*
Y037800D02*
D03*
Y037550D02*
D03*
X063270Y037800D02*
D03*
Y037550D02*
D03*
X062020D02*
D03*
Y037800D02*
D03*
X062270D02*
D03*
Y037550D02*
D03*
X063020Y037800D02*
D03*
Y037550D02*
D03*
X062770Y037800D02*
D03*
Y037550D02*
D03*
X062520Y037800D02*
D03*
Y037550D02*
D03*
X057820Y039050D02*
D03*
X058070D02*
D03*
X058320D02*
D03*
X058570D02*
D03*
X057570D02*
D03*
X057320D02*
D03*
X057070D02*
D03*
X061770D02*
D03*
X062020D02*
D03*
X062270D02*
D03*
X062520D02*
D03*
X063020D02*
D03*
X063270D02*
D03*
X062770D02*
D03*
X057720Y037250D02*
D03*
X057970D02*
D03*
X066420Y039050D02*
D03*
Y038800D02*
D03*
Y038550D02*
D03*
Y038300D02*
D03*
Y037800D02*
D03*
Y037550D02*
D03*
Y038050D02*
D03*
X066920Y038800D02*
D03*
Y038050D02*
D03*
X066670D02*
D03*
Y037550D02*
D03*
X066920D02*
D03*
Y037800D02*
D03*
X066670D02*
D03*
Y038300D02*
D03*
X066920D02*
D03*
Y038550D02*
D03*
X066670D02*
D03*
Y038800D02*
D03*
Y039050D02*
D03*
X066920D02*
D03*
X053170D02*
D03*
Y038800D02*
D03*
Y038550D02*
D03*
Y038300D02*
D03*
Y037800D02*
D03*
Y037550D02*
D03*
Y038050D02*
D03*
X053670Y038800D02*
D03*
Y038050D02*
D03*
X053420D02*
D03*
Y037550D02*
D03*
X053670D02*
D03*
X053920D02*
D03*
Y037800D02*
D03*
X053670D02*
D03*
X053420D02*
D03*
X053920Y038050D02*
D03*
X053420Y038300D02*
D03*
X053670D02*
D03*
X053920D02*
D03*
Y038550D02*
D03*
X053670D02*
D03*
X053420D02*
D03*
X053920Y038800D02*
D03*
X053420D02*
D03*
Y039050D02*
D03*
X053670D02*
D03*
X053920D02*
D03*
X063270Y037300D02*
D03*
X063020D02*
D03*
X062770D02*
D03*
X062520D02*
D03*
X062270D02*
D03*
X057070Y037550D02*
D03*
X057320D02*
D03*
X053420Y029900D02*
D03*
Y028820D02*
D03*
X053343Y023650D02*
D03*
X053420Y025450D02*
D03*
X066070Y025250D02*
D03*
X059420Y022100D02*
D03*
X059670Y030450D02*
D03*
X061020Y028327D02*
D03*
X061372Y028844D02*
D03*
X061405Y028306D02*
D03*
X053620Y023350D02*
D03*
X059420Y024750D02*
D03*
Y025050D02*
D03*
X057074Y023200D02*
D03*
X057870D02*
D03*
D117*
X056450Y032624D02*
D03*
Y034576D02*
D03*
X065850D02*
D03*
Y032624D02*
D03*
X061150Y034576D02*
D03*
Y032624D02*
D03*
D118*
X054822Y034576D02*
D03*
Y032624D02*
D03*
X064222D02*
D03*
Y034576D02*
D03*
X059522Y032624D02*
D03*
Y034576D02*
D03*
D119*
X063520Y026464D02*
D03*
Y028236D02*
D03*
D120*
X057207Y024050D02*
D03*
X058133D02*
D03*
D121*
X053834Y028224D02*
D03*
X054405D02*
D03*
X053834Y026176D02*
D03*
X054405D02*
D03*
D122*
X056244Y029225D02*
D03*
X056440D02*
D03*
X056637D02*
D03*
X056834D02*
D03*
X057031D02*
D03*
X057228D02*
D03*
X057425D02*
D03*
X057621D02*
D03*
X057818D02*
D03*
X058015D02*
D03*
X058212D02*
D03*
X058409D02*
D03*
X058606D02*
D03*
X058803D02*
D03*
X058999D02*
D03*
X059196D02*
D03*
Y024875D02*
D03*
X058999D02*
D03*
X058803D02*
D03*
X058606D02*
D03*
X058409D02*
D03*
X058212D02*
D03*
X058015D02*
D03*
X057818D02*
D03*
X057621D02*
D03*
X057425D02*
D03*
X057228D02*
D03*
X057031D02*
D03*
X056834D02*
D03*
X056637D02*
D03*
X056440D02*
D03*
X056244D02*
D03*
D123*
X059895Y028526D02*
D03*
Y028330D02*
D03*
Y028133D02*
D03*
Y027936D02*
D03*
Y027739D02*
D03*
Y027542D02*
D03*
Y027345D02*
D03*
Y027148D02*
D03*
Y026952D02*
D03*
Y026755D02*
D03*
Y026558D02*
D03*
Y026361D02*
D03*
Y026164D02*
D03*
Y025967D02*
D03*
Y025770D02*
D03*
Y025574D02*
D03*
X055545D02*
D03*
Y025770D02*
D03*
Y025967D02*
D03*
Y026164D02*
D03*
Y026361D02*
D03*
Y026558D02*
D03*
Y026755D02*
D03*
Y026952D02*
D03*
Y027148D02*
D03*
Y027345D02*
D03*
Y027542D02*
D03*
Y027739D02*
D03*
Y027936D02*
D03*
Y028133D02*
D03*
Y028330D02*
D03*
Y028526D02*
D03*
D124*
X055355Y030075D02*
D03*
X056985D02*
D03*
Y031025D02*
D03*
X055355D02*
D03*
D125*
X062816Y033646D02*
D03*
X063072D02*
D03*
X063328D02*
D03*
X063584D02*
D03*
X062816Y031954D02*
D03*
X063072D02*
D03*
X063328D02*
D03*
X063584D02*
D03*
X053416Y033646D02*
D03*
X053672D02*
D03*
X053928D02*
D03*
X054184D02*
D03*
X053416Y031954D02*
D03*
X053672D02*
D03*
X053928D02*
D03*
X054184D02*
D03*
X058116Y033646D02*
D03*
X058372D02*
D03*
X058628D02*
D03*
X058884D02*
D03*
X058116Y031954D02*
D03*
X058372D02*
D03*
X058628D02*
D03*
X058884D02*
D03*
D126*
X065720Y036156D02*
D03*
Y038144D02*
D03*
X061020Y036156D02*
D03*
Y038144D02*
D03*
X056320Y036162D02*
D03*
Y038150D02*
D03*
D127*
X054176Y040650D02*
D03*
X055464D02*
D03*
X058876D02*
D03*
X060164D02*
D03*
X063576D02*
D03*
X064864D02*
D03*
D128*
X054220Y037851D02*
D03*
Y036650D02*
D03*
D129*
X066520Y029390D02*
D03*
Y030650D02*
D03*
D130*
X065320Y030491D02*
D03*
Y029309D02*
D03*
X064070Y030491D02*
D03*
Y029309D02*
D03*
D131*
X064570Y027000D02*
D03*
Y027500D02*
D03*
Y028000D02*
D03*
Y028500D02*
D03*
X066560Y027000D02*
D03*
Y027500D02*
D03*
Y028000D02*
D03*
Y028500D02*
D03*
D132*
X061628Y029665D02*
D03*
X061372Y028835D02*
D03*
X061884D02*
D03*
D133*
X062235Y028050D02*
D03*
X061405Y028306D02*
D03*
Y027794D02*
D03*
D134*
X061808Y023534D02*
D03*
X062832D02*
D03*
Y022766D02*
D03*
Y023022D02*
D03*
Y023278D02*
D03*
X061808D02*
D03*
Y023022D02*
D03*
Y022766D02*
D03*
D135*
X065265Y027750D02*
D03*
M02*
