G04 Layer_Physical_Order=3*
G04 Layer_Color=128*
%FSAX25Y25*%
%MOIN*%
G70*
G01*
G75*
%ADD39C,0.01000*%
%ADD43C,0.04000*%
%ADD49C,0.05143*%
%ADD50C,0.04750*%
%ADD51C,0.09080*%
%ADD52C,0.02600*%
%ADD53C,0.13805*%
D39*
X0537699Y0310500D02*
X0538699D01*
X0549199D01*
X0539199Y0237500D02*
X0543199Y0233500D01*
X0539199Y0237500D02*
Y0240779D01*
X0661199Y0238500D02*
X0671699D01*
X0641199Y0218500D02*
X0661199Y0238500D01*
X0558199Y0218500D02*
X0641199D01*
X0551199Y0225500D02*
X0558199Y0218500D01*
X0543199Y0233500D02*
X0551199Y0225500D01*
X0549199Y0297500D02*
Y0310500D01*
X0656199Y0254500D02*
X0671199D01*
X0632199Y0364500D02*
X0639699Y0357000D01*
Y0288000D02*
Y0357000D01*
X0622199Y0270500D02*
X0639699Y0288000D01*
X0611199Y0270500D02*
X0622199D01*
X0591699Y0253000D02*
X0606699D01*
X0591699Y0240000D02*
Y0253000D01*
Y0240000D02*
X0595699Y0236000D01*
X0642199D01*
X0656199Y0250000D01*
X0585699Y0334000D02*
X0611199Y0308500D01*
X0543699Y0334000D02*
X0585699D01*
X0611199Y0295500D02*
Y0308500D01*
X0527199Y0350500D02*
Y0351500D01*
X0671699Y0250000D02*
Y0257000D01*
X0656199Y0250000D02*
Y0254500D01*
X0654199Y0256500D02*
X0656199Y0254500D01*
X0616199Y0256500D02*
X0654199D01*
X0611199Y0270500D02*
Y0295500D01*
X0608699Y0256500D02*
X0616199D01*
X0608699D02*
Y0268000D01*
X0611199Y0270500D01*
X0606699Y0253000D02*
X0608699Y0255000D01*
Y0259000D01*
X0671699Y0235000D02*
Y0238500D01*
X0540199Y0334000D02*
X0543699D01*
X0537699Y0331500D02*
X0540199Y0334000D01*
X0537699Y0310500D02*
Y0331500D01*
X0533699Y0312500D02*
Y0334000D01*
X0534199Y0307000D02*
X0537699Y0310500D01*
X0534199Y0282500D02*
Y0307000D01*
X0533699Y0334000D02*
Y0352500D01*
X0537199Y0356000D01*
X0531199Y0310000D02*
X0533699Y0312500D01*
X0531199Y0281000D02*
Y0310000D01*
X0527199Y0274000D02*
Y0275500D01*
X0528199Y0281000D02*
X0533199D01*
X0534199Y0282000D01*
Y0282500D01*
X0527199Y0358000D02*
X0530699D01*
X0527199Y0280000D02*
X0528199Y0281000D01*
X0542199Y0364500D02*
X0632199D01*
X0537199Y0359500D02*
X0542199Y0364500D01*
X0537199Y0356000D02*
Y0359500D01*
X0539199Y0240779D02*
Y0274500D01*
X0544199Y0279500D01*
Y0292500D01*
X0549199Y0297500D01*
D43*
X0541199Y0413000D02*
G03*
X0527199Y0399000I-0000000J-0014000D01*
G01*
X0671699D02*
G03*
X0657699Y0413000I-0014000J0000000D01*
G01*
X0660699Y0210000D02*
G03*
X0671699Y0221000I0000000J0011000D01*
G01*
X0527199D02*
G03*
X0538199Y0210000I0011000J0000000D01*
G01*
X0527199Y0221000D02*
Y0399000D01*
X0671699Y0221000D02*
Y0399000D01*
X0538199Y0210000D02*
X0660699D01*
X0527199Y0399000D02*
X0527199D01*
X0541199Y0413000D02*
X0657699D01*
X0671699Y0399000D02*
X0671699D01*
D49*
X0530499Y0359000D02*
D03*
D50*
X0652569Y0243500D02*
D03*
X0636873D02*
D03*
X0628973D02*
D03*
X0621073D02*
D03*
X0613199D02*
D03*
X0605325D02*
D03*
X0644695D02*
D03*
X0574937Y0222000D02*
D03*
X0567063D02*
D03*
X0559189D02*
D03*
X0612937D02*
D03*
X0605063D02*
D03*
X0632063D02*
D03*
X0639937D02*
D03*
D51*
X0541239Y0271970D02*
D03*
D52*
X0586774Y0314500D02*
D03*
X0629199Y0362500D02*
D03*
X0640955Y0354000D02*
D03*
X0546955D02*
D03*
X0593955D02*
D03*
X0582199Y0362500D02*
D03*
X0662199Y0288000D02*
D03*
X0577199Y0360000D02*
D03*
X0574699D02*
D03*
Y0362500D02*
D03*
X0579699D02*
D03*
X0577199D02*
D03*
X0621699Y0357500D02*
D03*
Y0360000D02*
D03*
Y0362500D02*
D03*
X0624199Y0357500D02*
D03*
Y0360000D02*
D03*
X0626699Y0362500D02*
D03*
X0624199D02*
D03*
X0624699Y0329500D02*
D03*
X0577699D02*
D03*
X0530199Y0325728D02*
D03*
X0589699Y0287500D02*
D03*
X0585199Y0300500D02*
D03*
X0584592Y0288200D02*
D03*
X0588699Y0284000D02*
D03*
X0583699D02*
D03*
X0578699D02*
D03*
X0596699Y0304500D02*
D03*
Y0301500D02*
D03*
Y0298500D02*
D03*
X0631199Y0295000D02*
D03*
X0607699Y0254500D02*
D03*
X0653231Y0299468D02*
D03*
X0657168D02*
D03*
X0653231Y0295532D02*
D03*
X0657168D02*
D03*
X0565099Y0262000D02*
D03*
X0567699D02*
D03*
X0613699Y0254500D02*
D03*
X0610699D02*
D03*
Y0308500D02*
D03*
X0560199Y0233500D02*
D03*
X0563199D02*
D03*
X0624199Y0293500D02*
D03*
X0534199Y0288200D02*
D03*
Y0299000D02*
D03*
X0555199Y0298500D02*
D03*
Y0301000D02*
D03*
Y0303500D02*
D03*
X0575299Y0244146D02*
D03*
X0581699Y0231500D02*
D03*
Y0234500D02*
D03*
X0584699Y0231500D02*
D03*
Y0237500D02*
D03*
Y0234500D02*
D03*
Y0240500D02*
D03*
Y0243500D02*
D03*
X0580699Y0261376D02*
D03*
Y0264000D02*
D03*
X0583699D02*
D03*
X0575699Y0300575D02*
D03*
X0535199Y0342500D02*
D03*
X0537699D02*
D03*
X0539774Y0314500D02*
D03*
X0540199Y0342500D02*
D03*
X0535199Y0345000D02*
D03*
X0537699D02*
D03*
X0540199D02*
D03*
X0541699Y0405000D02*
D03*
X0555699Y0347500D02*
D03*
X0565699Y0345000D02*
D03*
X0558199Y0347500D02*
D03*
X0565699D02*
D03*
X0541699Y0408000D02*
D03*
X0563199Y0347500D02*
D03*
X0560699D02*
D03*
X0569699Y0309000D02*
D03*
X0567199D02*
D03*
X0565699Y0342500D02*
D03*
X0572199Y0309000D02*
D03*
X0582199Y0342500D02*
D03*
X0587199D02*
D03*
X0577199Y0365000D02*
D03*
Y0367500D02*
D03*
Y0372500D02*
D03*
Y0370000D02*
D03*
X0582199Y0345000D02*
D03*
X0584699Y0342500D02*
D03*
Y0345000D02*
D03*
X0587199D02*
D03*
X0579699Y0370000D02*
D03*
Y0372500D02*
D03*
Y0367500D02*
D03*
Y0365000D02*
D03*
X0587699Y0231500D02*
D03*
Y0234500D02*
D03*
X0590699Y0231500D02*
D03*
Y0234500D02*
D03*
X0587699Y0237500D02*
D03*
Y0240500D02*
D03*
X0590699Y0237500D02*
D03*
X0587699Y0243500D02*
D03*
X0590699Y0240500D02*
D03*
X0594199Y0221000D02*
D03*
X0593699Y0231500D02*
D03*
X0613199Y0230000D02*
D03*
X0593699Y0234500D02*
D03*
Y0237500D02*
D03*
X0596699Y0231500D02*
D03*
X0593699Y0240500D02*
D03*
X0596699Y0234500D02*
D03*
X0593699Y0243500D02*
D03*
X0590699D02*
D03*
X0607575Y0265000D02*
D03*
X0605199Y0284650D02*
D03*
X0610199Y0283272D02*
D03*
X0633199Y0275500D02*
D03*
X0630199Y0278500D02*
D03*
Y0275500D02*
D03*
X0614046Y0283059D02*
D03*
X0633199Y0278500D02*
D03*
X0630199Y0284500D02*
D03*
Y0281500D02*
D03*
X0636199Y0275500D02*
D03*
Y0278500D02*
D03*
X0640699Y0235000D02*
D03*
X0636199Y0281500D02*
D03*
X0633199D02*
D03*
X0639199Y0278500D02*
D03*
X0636199Y0284500D02*
D03*
X0639199Y0281500D02*
D03*
X0633199Y0284500D02*
D03*
X0630199Y0287500D02*
D03*
X0613719Y0288437D02*
D03*
X0633199Y0287500D02*
D03*
Y0290500D02*
D03*
X0636199Y0287500D02*
D03*
Y0290500D02*
D03*
X0639199Y0284500D02*
D03*
Y0290500D02*
D03*
Y0287500D02*
D03*
X0645199Y0290500D02*
D03*
X0642199D02*
D03*
X0654199D02*
D03*
X0648199D02*
D03*
X0651199D02*
D03*
X0612699Y0345000D02*
D03*
X0629199Y0342500D02*
D03*
X0612699D02*
D03*
X0629199Y0345000D02*
D03*
X0631699Y0342500D02*
D03*
X0602699Y0347500D02*
D03*
X0605199D02*
D03*
X0588699Y0405000D02*
D03*
Y0408000D02*
D03*
X0610199Y0347500D02*
D03*
X0607699D02*
D03*
X0631699Y0345000D02*
D03*
X0612699Y0347500D02*
D03*
X0624199Y0365000D02*
D03*
Y0367500D02*
D03*
X0626699D02*
D03*
Y0365000D02*
D03*
X0639199Y0293500D02*
D03*
X0636199D02*
D03*
X0642199D02*
D03*
X0648199D02*
D03*
X0645199D02*
D03*
X0654443Y0309500D02*
D03*
X0634199Y0342500D02*
D03*
Y0345000D02*
D03*
X0635699Y0405000D02*
D03*
Y0408000D02*
D03*
X0659699Y0345000D02*
D03*
X0649699Y0347500D02*
D03*
X0659699Y0342500D02*
D03*
X0654699Y0347500D02*
D03*
X0652199D02*
D03*
X0657199D02*
D03*
X0659699D02*
D03*
X0630199Y0263500D02*
D03*
Y0260500D02*
D03*
Y0266500D02*
D03*
X0633199Y0263500D02*
D03*
Y0260500D02*
D03*
X0630199Y0269500D02*
D03*
X0633199Y0266500D02*
D03*
X0630199Y0272500D02*
D03*
X0633199Y0269500D02*
D03*
Y0272500D02*
D03*
X0636199Y0263642D02*
D03*
Y0260500D02*
D03*
Y0269500D02*
D03*
Y0266500D02*
D03*
X0639199Y0263500D02*
D03*
Y0260500D02*
D03*
Y0266500D02*
D03*
Y0269500D02*
D03*
X0636199Y0272500D02*
D03*
X0639199D02*
D03*
X0657199Y0284574D02*
D03*
X0567699Y0281000D02*
D03*
X0554573Y0405000D02*
D03*
Y0408000D02*
D03*
X0601573D02*
D03*
Y0405000D02*
D03*
X0648573Y0408000D02*
D03*
Y0405000D02*
D03*
X0575156Y0232000D02*
D03*
X0567199D02*
D03*
X0570199Y0287500D02*
D03*
X0556199Y0334000D02*
D03*
X0561199Y0331500D02*
D03*
Y0329000D02*
D03*
X0556199Y0326500D02*
D03*
X0563699D02*
D03*
Y0329000D02*
D03*
X0561199Y0326500D02*
D03*
Y0324000D02*
D03*
X0563699D02*
D03*
X0566199D02*
D03*
Y0326500D02*
D03*
Y0329000D02*
D03*
Y0321500D02*
D03*
X0563699D02*
D03*
X0561199D02*
D03*
X0558699D02*
D03*
Y0324000D02*
D03*
Y0326500D02*
D03*
Y0329000D02*
D03*
X0556199Y0324000D02*
D03*
Y0321500D02*
D03*
Y0329000D02*
D03*
Y0331500D02*
D03*
X0558699D02*
D03*
X0563699D02*
D03*
X0566199D02*
D03*
Y0334000D02*
D03*
X0563699D02*
D03*
X0561199D02*
D03*
X0558699D02*
D03*
X0566199Y0336500D02*
D03*
X0563699D02*
D03*
X0561199D02*
D03*
X0558699D02*
D03*
X0556199D02*
D03*
X0603199Y0334000D02*
D03*
X0608199Y0331500D02*
D03*
Y0329000D02*
D03*
X0603199Y0326500D02*
D03*
X0610699D02*
D03*
Y0329000D02*
D03*
X0608199Y0326500D02*
D03*
Y0324000D02*
D03*
X0610699D02*
D03*
X0613199D02*
D03*
Y0326500D02*
D03*
Y0329000D02*
D03*
Y0321500D02*
D03*
X0610699D02*
D03*
X0608199D02*
D03*
X0605699D02*
D03*
Y0324000D02*
D03*
Y0326500D02*
D03*
Y0329000D02*
D03*
X0603199Y0324000D02*
D03*
Y0321500D02*
D03*
Y0329000D02*
D03*
Y0331500D02*
D03*
X0605699D02*
D03*
X0610699D02*
D03*
X0613199D02*
D03*
Y0334000D02*
D03*
X0610699D02*
D03*
X0608199D02*
D03*
X0605699D02*
D03*
X0613199Y0336500D02*
D03*
X0610699D02*
D03*
X0608199D02*
D03*
X0605699D02*
D03*
X0603199D02*
D03*
X0650199D02*
D03*
X0652699D02*
D03*
X0655199D02*
D03*
X0657699D02*
D03*
X0660199D02*
D03*
X0652699Y0334000D02*
D03*
X0655199D02*
D03*
X0657699D02*
D03*
X0660199D02*
D03*
Y0331500D02*
D03*
X0657699D02*
D03*
X0652699D02*
D03*
X0650199D02*
D03*
Y0329000D02*
D03*
Y0321500D02*
D03*
Y0324000D02*
D03*
X0652699Y0329000D02*
D03*
Y0326500D02*
D03*
Y0324000D02*
D03*
Y0321500D02*
D03*
X0655199D02*
D03*
X0657699D02*
D03*
X0660199D02*
D03*
Y0329000D02*
D03*
Y0326500D02*
D03*
Y0324000D02*
D03*
X0657699D02*
D03*
X0655199D02*
D03*
Y0326500D02*
D03*
X0657699Y0329000D02*
D03*
Y0326500D02*
D03*
X0650199D02*
D03*
X0655199Y0329000D02*
D03*
Y0331500D02*
D03*
X0650199Y0334000D02*
D03*
X0589795Y0277904D02*
D03*
X0586699Y0278000D02*
D03*
X0583699D02*
D03*
X0622199Y0318500D02*
D03*
X0604425Y0265000D02*
D03*
X0592699Y0264000D02*
D03*
Y0275000D02*
D03*
X0642199Y0284500D02*
D03*
Y0287500D02*
D03*
Y0281500D02*
D03*
X0536699Y0324300D02*
D03*
X0576928Y0318728D02*
D03*
X0534199Y0307000D02*
D03*
X0607699Y0308500D02*
D03*
X0531199Y0239728D02*
D03*
Y0256728D02*
D03*
X0557199Y0233500D02*
D03*
X0538699Y0231000D02*
D03*
X0535604D02*
D03*
X0531199Y0248228D02*
D03*
X0540599Y0251000D02*
D03*
X0530699Y0329500D02*
D03*
X0564199Y0281000D02*
D03*
Y0284500D02*
D03*
X0555199Y0289500D02*
D03*
X0547199Y0287000D02*
D03*
X0541199D02*
D03*
X0586699Y0324000D02*
D03*
X0591699Y0317500D02*
D03*
D53*
X0538199Y0221000D02*
D03*
X0660699D02*
D03*
X0626199Y0404000D02*
D03*
X0579199D02*
D03*
M02*
