G04 Layer_Physical_Order=2*
G04 Layer_Color=32768*
%FSAX25Y25*%
%MOIN*%
G70*
G01*
G75*
%ADD39C,0.01000*%
%ADD43C,0.04000*%
%ADD49C,0.05143*%
%ADD50C,0.04750*%
%ADD51C,0.09080*%
%ADD52C,0.02600*%
D39*
X0535199Y0338500D02*
X0587699D01*
X0616199Y0278500D02*
Y0307000D01*
X0611199Y0312000D02*
X0616199Y0307000D01*
Y0278500D02*
X0621199Y0273500D01*
D43*
X0541199Y0413000D02*
G03*
X0527199Y0399000I-0000000J-0014000D01*
G01*
X0671699D02*
G03*
X0657699Y0413000I-0014000J0000000D01*
G01*
X0660699Y0210000D02*
G03*
X0671699Y0221000I0000000J0011000D01*
G01*
X0527199D02*
G03*
X0538199Y0210000I0011000J0000000D01*
G01*
X0527199Y0221000D02*
Y0399000D01*
X0671699Y0221000D02*
Y0399000D01*
X0538199Y0210000D02*
X0660699D01*
X0527199Y0399000D02*
X0527199D01*
X0541199Y0413000D02*
X0657699D01*
X0671699Y0399000D02*
X0671699D01*
D49*
X0530499Y0388528D02*
D03*
D50*
X0660443Y0243500D02*
D03*
X0652569D02*
D03*
X0636873D02*
D03*
X0628973D02*
D03*
X0621073D02*
D03*
X0613199D02*
D03*
X0644695D02*
D03*
X0582837Y0222000D02*
D03*
X0574937D02*
D03*
X0567063D02*
D03*
X0612937D02*
D03*
X0605063D02*
D03*
X0632063D02*
D03*
X0639937D02*
D03*
D51*
X0541239Y0271970D02*
D03*
D52*
X0592199Y0314500D02*
D03*
X0591199Y0323500D02*
D03*
X0544199Y0349000D02*
D03*
X0591199D02*
D03*
X0541699Y0351500D02*
D03*
X0588699D02*
D03*
Y0349000D02*
D03*
X0541699D02*
D03*
X0557624Y0292500D02*
D03*
X0662199Y0288000D02*
D03*
X0638199Y0349000D02*
D03*
X0635699Y0351500D02*
D03*
Y0349000D02*
D03*
X0539699Y0330500D02*
D03*
X0530199Y0325728D02*
D03*
X0589699Y0287500D02*
D03*
X0585199Y0297500D02*
D03*
X0588699Y0284000D02*
D03*
X0583699D02*
D03*
X0578699D02*
D03*
X0586699Y0330500D02*
D03*
X0610668Y0260500D02*
D03*
X0631199Y0295000D02*
D03*
X0604699Y0254500D02*
D03*
X0565099Y0262000D02*
D03*
X0567699D02*
D03*
X0572199Y0240500D02*
D03*
X0668699Y0233500D02*
D03*
X0665699D02*
D03*
X0662699D02*
D03*
X0659699D02*
D03*
X0636199Y0255000D02*
D03*
X0560199Y0233500D02*
D03*
X0563199D02*
D03*
X0624199Y0293500D02*
D03*
X0613199Y0300500D02*
D03*
X0616199Y0275500D02*
D03*
X0613199Y0297500D02*
D03*
Y0303500D02*
D03*
X0616199Y0300500D02*
D03*
Y0303500D02*
D03*
X0619199Y0297500D02*
D03*
Y0300500D02*
D03*
Y0303500D02*
D03*
X0616199Y0306500D02*
D03*
X0619199D02*
D03*
Y0275500D02*
D03*
X0622199D02*
D03*
Y0297500D02*
D03*
Y0300500D02*
D03*
X0625199Y0297500D02*
D03*
X0622199Y0303500D02*
D03*
X0625199D02*
D03*
X0628199D02*
D03*
X0634199D02*
D03*
X0631199D02*
D03*
X0637199D02*
D03*
X0625199Y0306500D02*
D03*
X0628199D02*
D03*
X0631199D02*
D03*
X0634199D02*
D03*
X0637199D02*
D03*
X0630199Y0263500D02*
D03*
Y0260500D02*
D03*
Y0266500D02*
D03*
X0633199Y0263500D02*
D03*
Y0260500D02*
D03*
X0630199Y0269500D02*
D03*
X0633199Y0266500D02*
D03*
X0630199Y0272500D02*
D03*
X0633199Y0269500D02*
D03*
Y0272500D02*
D03*
X0636199Y0263642D02*
D03*
Y0260500D02*
D03*
Y0269500D02*
D03*
Y0266500D02*
D03*
X0639199Y0263500D02*
D03*
Y0260500D02*
D03*
Y0266500D02*
D03*
Y0269500D02*
D03*
X0636199Y0272500D02*
D03*
X0639199D02*
D03*
X0657199Y0284574D02*
D03*
X0567699Y0281000D02*
D03*
X0554573Y0405000D02*
D03*
Y0408000D02*
D03*
X0601573D02*
D03*
Y0405000D02*
D03*
X0648573Y0408000D02*
D03*
Y0405000D02*
D03*
X0575156Y0232000D02*
D03*
X0567199D02*
D03*
X0551199Y0237500D02*
D03*
X0554199D02*
D03*
X0548199Y0240500D02*
D03*
X0554199D02*
D03*
X0551199Y0243500D02*
D03*
Y0240500D02*
D03*
X0554199Y0243500D02*
D03*
X0557199Y0240500D02*
D03*
Y0237500D02*
D03*
X0560199Y0240500D02*
D03*
X0563199D02*
D03*
X0570742Y0232000D02*
D03*
X0557199Y0243500D02*
D03*
X0560199D02*
D03*
X0569199Y0240500D02*
D03*
X0554199Y0246500D02*
D03*
X0557199D02*
D03*
X0560199D02*
D03*
X0578699Y0232000D02*
D03*
X0576499Y0260500D02*
D03*
X0613199Y0233000D02*
D03*
X0605199Y0281500D02*
D03*
X0608199Y0296272D02*
D03*
X0531699Y0375500D02*
D03*
X0534199D02*
D03*
X0536699D02*
D03*
Y0378000D02*
D03*
X0539199Y0375500D02*
D03*
Y0378000D02*
D03*
X0573199Y0375500D02*
D03*
X0570699D02*
D03*
X0578199Y0378000D02*
D03*
X0575699D02*
D03*
X0534199D02*
D03*
X0531699D02*
D03*
X0536699Y0380500D02*
D03*
X0534199D02*
D03*
X0570699Y0378000D02*
D03*
X0573199D02*
D03*
X0580699Y0380500D02*
D03*
X0573199D02*
D03*
X0583199Y0378000D02*
D03*
X0580699D02*
D03*
X0585699D02*
D03*
Y0380500D02*
D03*
X0617699Y0378000D02*
D03*
Y0375500D02*
D03*
X0531699Y0380500D02*
D03*
X0534199Y0383000D02*
D03*
X0531699D02*
D03*
X0534199Y0385500D02*
D03*
X0536699Y0383000D02*
D03*
Y0385500D02*
D03*
X0539199Y0380500D02*
D03*
Y0383000D02*
D03*
X0570699Y0380500D02*
D03*
X0573199Y0383000D02*
D03*
X0570699D02*
D03*
X0539199Y0385500D02*
D03*
X0573199D02*
D03*
X0570699D02*
D03*
X0534199Y0388000D02*
D03*
X0536699D02*
D03*
X0534199Y0390500D02*
D03*
X0570699Y0388000D02*
D03*
X0539199D02*
D03*
X0573199D02*
D03*
X0539199Y0390500D02*
D03*
X0536699D02*
D03*
X0573199D02*
D03*
X0570699D02*
D03*
X0575699Y0383000D02*
D03*
X0578199Y0380500D02*
D03*
X0575699D02*
D03*
X0578199Y0385500D02*
D03*
X0575699D02*
D03*
X0580699Y0383000D02*
D03*
X0578199D02*
D03*
X0583199Y0380500D02*
D03*
Y0383000D02*
D03*
X0617699Y0380500D02*
D03*
X0585699Y0383000D02*
D03*
X0583199Y0385500D02*
D03*
X0580699D02*
D03*
X0617699Y0383000D02*
D03*
Y0385500D02*
D03*
X0578199Y0388000D02*
D03*
X0575699D02*
D03*
X0583199D02*
D03*
X0580699D02*
D03*
X0578199Y0390500D02*
D03*
X0575699D02*
D03*
X0583199D02*
D03*
X0580699D02*
D03*
X0585699Y0385500D02*
D03*
Y0388000D02*
D03*
X0617699D02*
D03*
X0585699Y0390500D02*
D03*
X0620199Y0388000D02*
D03*
X0617699Y0390500D02*
D03*
X0662699Y0301500D02*
D03*
Y0304500D02*
D03*
Y0307500D02*
D03*
Y0310500D02*
D03*
X0622699Y0373000D02*
D03*
X0625199D02*
D03*
X0620199Y0375500D02*
D03*
X0627699Y0373000D02*
D03*
Y0375500D02*
D03*
X0632699Y0373000D02*
D03*
X0630199D02*
D03*
Y0375500D02*
D03*
X0632699D02*
D03*
X0665699Y0301500D02*
D03*
Y0310500D02*
D03*
X0668699D02*
D03*
X0620199Y0378000D02*
D03*
X0622699Y0375500D02*
D03*
Y0378000D02*
D03*
X0620199Y0380500D02*
D03*
Y0383000D02*
D03*
X0622699Y0380500D02*
D03*
Y0383000D02*
D03*
X0625199Y0375500D02*
D03*
Y0378000D02*
D03*
X0630199D02*
D03*
X0627699D02*
D03*
X0625199Y0380500D02*
D03*
Y0383000D02*
D03*
X0630199Y0380500D02*
D03*
X0627699D02*
D03*
X0622699Y0385500D02*
D03*
X0620199D02*
D03*
X0625199D02*
D03*
X0622699Y0388000D02*
D03*
Y0390500D02*
D03*
X0620199D02*
D03*
X0625199Y0388000D02*
D03*
Y0390500D02*
D03*
X0627699Y0383000D02*
D03*
Y0385500D02*
D03*
X0630199Y0383000D02*
D03*
Y0385500D02*
D03*
X0627699Y0388000D02*
D03*
Y0390500D02*
D03*
X0630199Y0388000D02*
D03*
Y0390500D02*
D03*
X0632699Y0378000D02*
D03*
X0663699Y0375500D02*
D03*
Y0378000D02*
D03*
X0632699Y0380500D02*
D03*
Y0383000D02*
D03*
X0663699Y0380500D02*
D03*
X0666199Y0375500D02*
D03*
Y0378000D02*
D03*
X0668699Y0375500D02*
D03*
Y0378000D02*
D03*
X0666199Y0380500D02*
D03*
Y0383000D02*
D03*
X0668699Y0380500D02*
D03*
Y0383000D02*
D03*
X0632699Y0385500D02*
D03*
X0663699Y0383000D02*
D03*
X0632699Y0388000D02*
D03*
Y0390500D02*
D03*
X0663699Y0385500D02*
D03*
Y0390500D02*
D03*
X0666199Y0385500D02*
D03*
X0663699Y0388000D02*
D03*
X0668699Y0385500D02*
D03*
X0666199Y0388000D02*
D03*
Y0390500D02*
D03*
X0668699Y0388000D02*
D03*
Y0390500D02*
D03*
X0570199Y0287500D02*
D03*
X0556199Y0334000D02*
D03*
X0561199Y0331500D02*
D03*
Y0329000D02*
D03*
X0556199Y0326500D02*
D03*
X0563699D02*
D03*
Y0329000D02*
D03*
X0561199Y0326500D02*
D03*
Y0324000D02*
D03*
X0563699D02*
D03*
X0566199D02*
D03*
Y0326500D02*
D03*
Y0329000D02*
D03*
Y0321500D02*
D03*
X0563699D02*
D03*
X0561199D02*
D03*
X0558699D02*
D03*
Y0324000D02*
D03*
Y0326500D02*
D03*
Y0329000D02*
D03*
X0556199Y0324000D02*
D03*
Y0321500D02*
D03*
Y0329000D02*
D03*
Y0331500D02*
D03*
X0558699D02*
D03*
X0563699D02*
D03*
X0566199D02*
D03*
Y0334000D02*
D03*
X0563699D02*
D03*
X0561199D02*
D03*
X0558699D02*
D03*
X0566199Y0336500D02*
D03*
X0563699D02*
D03*
X0561199D02*
D03*
X0558699D02*
D03*
X0556199D02*
D03*
X0603199Y0334000D02*
D03*
X0608199Y0331500D02*
D03*
Y0329000D02*
D03*
X0603199Y0326500D02*
D03*
X0610699D02*
D03*
Y0329000D02*
D03*
X0608199Y0326500D02*
D03*
Y0324000D02*
D03*
X0610699D02*
D03*
X0613199D02*
D03*
Y0326500D02*
D03*
Y0329000D02*
D03*
Y0321500D02*
D03*
X0610699D02*
D03*
X0608199D02*
D03*
X0605699D02*
D03*
Y0324000D02*
D03*
Y0326500D02*
D03*
Y0329000D02*
D03*
X0603199Y0324000D02*
D03*
Y0321500D02*
D03*
Y0329000D02*
D03*
Y0331500D02*
D03*
X0605699D02*
D03*
X0610699D02*
D03*
X0613199D02*
D03*
Y0334000D02*
D03*
X0610699D02*
D03*
X0608199D02*
D03*
X0605699D02*
D03*
X0613199Y0336500D02*
D03*
X0610699D02*
D03*
X0608199D02*
D03*
X0605699D02*
D03*
X0603199D02*
D03*
X0650199D02*
D03*
X0652699D02*
D03*
X0655199D02*
D03*
X0657699D02*
D03*
X0660199D02*
D03*
X0652699Y0334000D02*
D03*
X0655199D02*
D03*
X0657699D02*
D03*
X0660199D02*
D03*
Y0331500D02*
D03*
X0657699D02*
D03*
X0652699D02*
D03*
X0650199D02*
D03*
Y0329000D02*
D03*
Y0321500D02*
D03*
Y0324000D02*
D03*
X0652699Y0329000D02*
D03*
Y0326500D02*
D03*
Y0324000D02*
D03*
Y0321500D02*
D03*
X0655199D02*
D03*
X0657699D02*
D03*
X0660199D02*
D03*
Y0329000D02*
D03*
Y0326500D02*
D03*
Y0324000D02*
D03*
X0657699D02*
D03*
X0655199D02*
D03*
Y0326500D02*
D03*
X0657699Y0329000D02*
D03*
Y0326500D02*
D03*
X0650199D02*
D03*
X0655199Y0329000D02*
D03*
Y0331500D02*
D03*
X0650199Y0334000D02*
D03*
X0589795Y0277904D02*
D03*
X0586699Y0278000D02*
D03*
X0583699D02*
D03*
X0622199Y0318500D02*
D03*
X0600199Y0247500D02*
D03*
X0597199Y0250500D02*
D03*
Y0247500D02*
D03*
X0600199Y0244500D02*
D03*
Y0241500D02*
D03*
X0597199D02*
D03*
X0600199Y0238500D02*
D03*
X0594199Y0250500D02*
D03*
Y0247500D02*
D03*
X0597199Y0244500D02*
D03*
Y0238500D02*
D03*
X0604425Y0265000D02*
D03*
X0639199Y0252000D02*
D03*
X0642199D02*
D03*
X0645199D02*
D03*
X0648199D02*
D03*
X0651199D02*
D03*
X0654199D02*
D03*
X0639199Y0255000D02*
D03*
X0642199D02*
D03*
X0645199D02*
D03*
X0662699Y0236500D02*
D03*
X0665699D02*
D03*
X0668699D02*
D03*
X0668199Y0263500D02*
D03*
X0665199D02*
D03*
X0662199D02*
D03*
X0668199Y0284500D02*
D03*
Y0281500D02*
D03*
Y0278500D02*
D03*
Y0275500D02*
D03*
Y0266500D02*
D03*
X0665199Y0278500D02*
D03*
Y0275500D02*
D03*
Y0284500D02*
D03*
Y0281500D02*
D03*
Y0266500D02*
D03*
X0662199D02*
D03*
Y0260500D02*
D03*
X0665199D02*
D03*
X0668199D02*
D03*
X0576928Y0318728D02*
D03*
X0547786Y0308913D02*
D03*
X0545286Y0308913D02*
D03*
X0545199Y0318500D02*
D03*
X0622199Y0306500D02*
D03*
X0604699Y0308500D02*
D03*
X0529699Y0283000D02*
D03*
X0532699D02*
D03*
X0554622Y0224150D02*
D03*
X0531199Y0239728D02*
D03*
Y0256728D02*
D03*
X0557199Y0233500D02*
D03*
X0545199Y0237500D02*
D03*
X0538699Y0231000D02*
D03*
X0531199Y0248228D02*
D03*
X0548199Y0246500D02*
D03*
X0551199D02*
D03*
X0548199Y0243500D02*
D03*
X0545199D02*
D03*
X0540599Y0251000D02*
D03*
X0564199Y0281000D02*
D03*
Y0284500D02*
D03*
X0541199Y0287000D02*
D03*
X0547199Y0290000D02*
D03*
X0545199Y0240500D02*
D03*
X0548199Y0237500D02*
D03*
M02*
