M48
;Layer_Color=9474304
;FILE_FORMAT=2:4
INCH
;TYPE=PLATED
T1F00S00C0.0100
T2F00S00C0.0315
T3F00S00C0.0354
T4F00S00C0.0748
T5F00S00C0.1220
%
T01
X064070Y023500
X063920Y025200
X064220
X064520
X064820
X065120
X065420
X064520Y025500
X064220
X063920
X063620
Y026050
X063320
X063020
Y026350
Y026650
Y026950
Y027250
Y027550
X063320
Y027850
X063020
Y028150
Y028450
X063320
Y028150
X063620
Y027850
Y027550
Y027250
X063320
Y026950
Y026650
Y026350
X063620Y026364
Y026650
Y026950
X063920
Y026650
Y026350
Y026050
Y027250
Y027850
Y028150
Y028450
X063620
Y028750
X063320
X063020
X063320Y029050
X063620
X063920
Y028750
X064220
Y029050
X064520
X064820
X065120
X065420
X065323Y029553
Y029947
X065717
Y029553
X065720Y028457
X066520Y028450
X066820
Y028150
Y027850
Y027550
X066520
Y027850
Y028150
X066220Y028800
X066270Y030150
Y030450
Y030750
Y031050
X066570
X066870
X066570Y030150
X065444Y030950
X063720Y030650
Y030350
X063420
X063120
X062820
X062520
Y030650
X062820
X063120
X063420
X063120Y029500
X063620Y029350
X063920
X064220
X064520
X064820
X064220Y028450
Y028150
X062520Y029750
X066220Y026650
Y026350
X066520
X066820
Y026650
X066520
Y026050
X066220
X066820
X066870Y023650
Y023350
X066570
X066270
X065970
X066270Y023650
X066570
X061320Y023300
Y023000
X059670Y023150
X059370
X059070
X058770
X058470
X058170
Y023450
X058470
Y023750
Y024050
Y024350
X058770
Y024050
Y023750
Y023450
X059070
Y023750
Y024050
X059370
Y023750
Y023450
X059670
X059720Y023850
Y024150
X060020
Y024450
Y024750
X059720
Y025050
X059420
Y024750
X059370Y024350
X059070
X059720Y024450
X060020Y023850
X060470Y025450
X060770
X061070
X061370
X061067Y026050
X060757Y026500
X060443
X059270Y026400
X058370
X058070
Y026138
X057650Y026050
X056770Y026200
X056510
X056420Y028100
X056770
X056420Y028450
X057020Y028750
X057870Y028400
X058370
X058870
X058970Y028750
X058459Y028820
X058520Y029750
Y030050
X057570Y030057
X057220Y030900
X056970
X056720
X055520Y030350
Y030100
Y029850
X055762Y029250
X055520Y028950
X054720Y029000
Y028700
X054120
X053420Y028820
X053270Y028300
X052970
X053420Y029900
Y030700
X054529Y030891
X054779Y030891
X059670Y030450
Y030150
Y029850
X060820Y029627
X061320Y029750
Y030050
Y030350
X061620
Y030050
X061920
Y029750
X062220
Y030050
Y030350
X061920
Y030650
X061620
X062220
X061070Y030850
X060770
X060470
X060520Y028465
Y028150
X061020Y028327
X061405Y028306
X061372Y028844
X061620Y027550
X061920
X062220
X062420Y029350
X058980Y027790
X058670Y027800
X058370
X059270Y027500
X057530Y024415
X057220Y024050
X056920
X056320
X056020
X055720
X055420
Y023750
X055120
Y024050
X054820
Y024350
X055120
X055420
X055720
X056020
Y024650
X055720
X055420
X055120
X054820
X054520Y024350
Y024050
Y023750
X054820
X055720
Y023350
X056020
X056320
X056720Y023200
X057074
X057516
X057870
X059420Y022100
X055462Y022415
X053870Y023100
X053560
X053120Y023973
Y024823
Y025673
X054060Y025100
X053977Y031450
X054520Y031850
X055620Y032150
X055870
X056120
Y032400
Y032650
Y032900
Y033150
X055870
Y032900
Y032650
X055620
Y032400
X055870
X056370
Y032650
Y032900
X056620
Y032650
Y032400
Y032150
X056370
Y033150
X056620
Y033400
X056370
X056120
X055870
X055620
Y033150
Y032900
Y033650
X055870
X056120
X056370
X056620
X056570Y034250
Y034500
Y034750
X056320
X056070
X055820
X055570
X054420Y034900
X054170
Y035150
X054696Y035400
X054020Y034500
Y034250
X053770
X053520
Y034500
X053770
X053970Y033050
X053670Y032430
X053020Y032573
X053070Y032950
X057770
X058670Y033050
Y032400
X059120Y032350
X059170Y031750
X059220Y031450
X058677
X057693Y031873
X058220Y034250
Y034500
X058470
Y034250
X058720
Y034500
X058870Y034900
X059120
X058870Y035150
X059395Y035400
X060270Y034750
X060520
X060770
X061020
X061270
Y034500
Y034250
X061320Y033650
Y033400
Y033150
Y032900
X061070
X060820
Y033150
X060570
Y032900
Y032650
X060320
Y032400
X060570
X060820
Y032650
X061070
Y032400
X061320
Y032650
Y032150
X061070
X060820
X060570
X060320
Y032900
Y033150
Y033400
X060570
X060820
X061070
Y033150
Y033650
X060820
X060570
X060320
X062470Y032950
X062220Y031850
X062170Y035750
Y036000
Y036250
X062420
Y036000
Y035750
Y036500
Y036750
X062270Y037300
Y037550
X062020
X061770
Y037800
Y038050
Y038300
Y038550
Y038800
X062020
Y038550
Y038300
Y038050
Y037800
X062270
Y038050
Y038300
Y038550
Y038800
Y039050
X062020
X061770
X060157Y040500
Y040800
X058870
Y040500
X058570Y039050
X058320
Y038800
Y038550
Y038300
X058070
Y038050
Y037800
X057820
X057570
X057320
Y037550
X057070
Y037800
Y038050
X057320
Y038300
X057070
Y038550
X057320
Y038800
X057070
Y039050
X057320
X057570
Y038800
Y038550
Y038300
Y038050
X057820
Y038300
Y038550
X058070
Y038800
X057820
Y039050
X058070
X058570Y038800
Y038550
Y038300
Y038050
Y037800
X058320
Y038050
X057970Y037250
X057720
Y037000
Y036750
Y036500
Y036250
Y036000
X057470
Y036250
X057970
X058220
X057970Y036500
Y036750
Y037000
X053920Y037550
X053670
X053420
X053170
Y037800
X053420
X053670
X053920
Y038050
X053670
X053420
X053170
Y038300
X053420
Y038550
X053670
Y038300
X053920
Y038550
Y038800
X053670
X053420
Y039050
X053670
X053920
X054170Y040500
Y040800
X055457
Y040500
X063570
Y040800
X064857
Y040500
X066370Y039050
Y038800
Y038550
Y038300
Y038050
Y037800
Y037550
X066620
Y037800
X066870
Y037550
Y038050
X066620
Y038300
X066870
Y038550
X066620
Y038800
Y039050
X066870
Y038800
X063270
X063020
Y038550
X062770
X062520
Y038300
Y038050
Y037800
Y037550
Y037300
X062770
Y037550
X063020
Y037300
X063270
Y037550
Y037800
X063020
X062770
Y038050
X063020
Y038300
X062770
Y038800
X062520
Y039050
X062770
X063020
X063270
Y038550
Y038300
Y038050
X062670Y036750
Y036500
Y036250
X062920
X063570Y035150
Y034900
X063820
X064096Y035400
X064970Y034750
X065220
X065470
X065720
X065970
Y034500
Y034250
X066020Y033650
X065770
X065520
X065270
X065020
Y033400
X065270
X065520
X065770
X066020
Y033150
X065770
Y032900
X066020
Y032650
Y032400
Y032150
X065770
X065520
X065270
X065020
Y032400
X065270
Y032650
Y032900
Y033150
X065020
Y032900
Y032650
X065520
Y032400
X065770
Y032650
X065520Y032900
Y033150
X063420Y034250
X063170
X062920
Y034500
X063170
X063420
T02
X063206Y022200
X063994
X063687Y024350
X064470
X065257
X066044
X062897
X062107
X061320
X060533
X060506Y022200
X061294
X058284
X057494
X056706
X055919
T03
X053050Y035900
Y038853
T04
X054124Y027197
T05
X066070Y022100
X053820
X057920Y040400
X062620
M30
