G04 Layer_Color=65535*
%FSAX24Y24*%
%MOIN*%
G70*
G01*
G75*
%ADD26C,0.0100*%
%ADD45C,0.0098*%
%ADD46C,0.0039*%
%ADD47C,0.0080*%
%ADD48C,0.0079*%
D26*
X054331Y026326D02*
G03*
X054333Y025069I001669J-000626D01*
G01*
X056640Y027364D02*
G03*
X055369Y027367I-000640J-001664D01*
G01*
X057669Y025074D02*
G03*
X057669Y026326I-001669J000626D01*
G01*
X055338Y024045D02*
G03*
X056660Y024044I000662J001655D01*
G01*
X061172Y028378D02*
G03*
X061172Y028378I-000050J000000D01*
G01*
X058471Y030002D02*
X059730D01*
Y027994D02*
Y030002D01*
X058470Y027995D02*
X058471Y030002D01*
X058667Y027798D02*
X059533D01*
X058470Y027995D02*
X058667Y027798D01*
X059533D02*
X059730Y027994D01*
X058800Y030800D02*
X058700Y030900D01*
X058500D01*
X058400Y030800D01*
Y030400D01*
X058500Y030300D01*
X058700D01*
X058800Y030400D01*
X059000Y030300D02*
X059200D01*
X059100D01*
Y030900D01*
X059000Y030800D01*
X059500D02*
X059600Y030900D01*
X059800D01*
X059900Y030800D01*
Y030700D01*
X059800Y030600D01*
X059700D01*
X059800D01*
X059900Y030500D01*
Y030400D01*
X059800Y030300D01*
X059600D01*
X059500Y030400D01*
X055033Y029333D02*
X055100Y029400D01*
Y029533D01*
X055033Y029600D01*
X054767D01*
X054700Y029533D01*
Y029400D01*
X054767Y029333D01*
X054700Y029200D02*
Y029067D01*
Y029133D01*
X055100D01*
X055033Y029200D01*
X055100Y028600D02*
X055033Y028734D01*
X054900Y028867D01*
X054767D01*
X054700Y028800D01*
Y028667D01*
X054767Y028600D01*
X054833D01*
X054900Y028667D01*
Y028867D01*
X061967Y030733D02*
X061900Y030800D01*
X061767D01*
X061700Y030733D01*
Y030467D01*
X061767Y030400D01*
X061900D01*
X061967Y030467D01*
X062100Y030400D02*
X062233D01*
X062167D01*
Y030800D01*
X062100Y030733D01*
X062433Y030800D02*
X062700D01*
Y030733D01*
X062433Y030467D01*
Y030400D01*
X063227Y030795D02*
X063161Y030861D01*
X063027D01*
X062961Y030795D01*
Y030528D01*
X063027Y030462D01*
X063161D01*
X063227Y030528D01*
X063627Y030462D02*
X063361D01*
X063627Y030728D01*
Y030795D01*
X063560Y030861D01*
X063427D01*
X063361Y030795D01*
X063760D02*
X063827Y030861D01*
X063960D01*
X064027Y030795D01*
Y030528D01*
X063960Y030462D01*
X063827D01*
X063760Y030528D01*
Y030795D01*
X065783Y028683D02*
X065850Y028750D01*
Y028883D01*
X065783Y028950D01*
X065517D01*
X065450Y028883D01*
Y028750D01*
X065517Y028683D01*
X065450Y028284D02*
Y028550D01*
X065717Y028284D01*
X065783D01*
X065850Y028350D01*
Y028483D01*
X065783Y028550D01*
X065450Y027884D02*
Y028150D01*
X065717Y027884D01*
X065783D01*
X065850Y027950D01*
Y028084D01*
X065783Y028150D01*
Y027333D02*
X065850Y027400D01*
Y027533D01*
X065783Y027600D01*
X065517D01*
X065450Y027533D01*
Y027400D01*
X065517Y027333D01*
X065450Y026934D02*
Y027200D01*
X065717Y026934D01*
X065783D01*
X065850Y027000D01*
Y027133D01*
X065783Y027200D01*
Y026800D02*
X065850Y026734D01*
Y026600D01*
X065783Y026534D01*
X065717D01*
X065650Y026600D01*
Y026667D01*
Y026600D01*
X065583Y026534D01*
X065517D01*
X065450Y026600D01*
Y026734D01*
X065517Y026800D01*
X065783Y026033D02*
X065850Y026100D01*
Y026233D01*
X065783Y026300D01*
X065517D01*
X065450Y026233D01*
Y026100D01*
X065517Y026033D01*
X065450Y025634D02*
Y025900D01*
X065717Y025634D01*
X065783D01*
X065850Y025700D01*
Y025833D01*
X065783Y025900D01*
X065450Y025300D02*
X065850D01*
X065650Y025500D01*
Y025234D01*
X060533Y024433D02*
X060600Y024500D01*
Y024633D01*
X060533Y024700D01*
X060267D01*
X060200Y024633D01*
Y024500D01*
X060267Y024433D01*
X060533Y024300D02*
X060600Y024233D01*
Y024100D01*
X060533Y024034D01*
X060467D01*
X060400Y024100D01*
Y024167D01*
Y024100D01*
X060333Y024034D01*
X060267D01*
X060200Y024100D01*
Y024233D01*
X060267Y024300D01*
X060200Y023900D02*
Y023767D01*
Y023834D01*
X060600D01*
X060533Y023900D01*
X064833Y024533D02*
X064900Y024600D01*
Y024733D01*
X064833Y024800D01*
X064567D01*
X064500Y024733D01*
Y024600D01*
X064567Y024533D01*
X064833Y024400D02*
X064900Y024333D01*
Y024200D01*
X064833Y024134D01*
X064767D01*
X064700Y024200D01*
Y024267D01*
Y024200D01*
X064633Y024134D01*
X064567D01*
X064500Y024200D01*
Y024333D01*
X064567Y024400D01*
X064900Y023734D02*
Y024000D01*
X064700D01*
X064767Y023867D01*
Y023800D01*
X064700Y023734D01*
X064567D01*
X064500Y023800D01*
Y023934D01*
X064567Y024000D01*
X060100Y026250D02*
X059500D01*
Y025950D01*
X059600Y025850D01*
X060000D01*
X060100Y025950D01*
Y026250D01*
X059500Y025250D02*
Y025650D01*
X059900Y025250D01*
X060000D01*
X060100Y025350D01*
Y025550D01*
X060000Y025650D01*
X052560Y026790D02*
X052360D01*
X052460D01*
Y026290D01*
X052360Y026190D01*
X052260D01*
X052160Y026290D01*
X052760Y026190D02*
Y026790D01*
X053060D01*
X053160Y026690D01*
Y026490D01*
X053060Y026390D01*
X052760D01*
X053360Y026190D02*
X053560D01*
X053460D01*
Y026790D01*
X053360Y026690D01*
X066980Y031190D02*
X066780D01*
X066880D01*
Y030690D01*
X066780Y030590D01*
X066680D01*
X066580Y030690D01*
X067180Y030590D02*
Y031190D01*
X067480D01*
X067580Y031090D01*
Y030890D01*
X067480Y030790D01*
X067180D01*
X068179Y030590D02*
X067780D01*
X068179Y030990D01*
Y031090D01*
X068080Y031190D01*
X067880D01*
X067780Y031090D01*
X054500Y028200D02*
Y027600D01*
X054900D01*
X055100D02*
X055300D01*
X055200D01*
Y028200D01*
X055100Y028100D01*
X057100Y035800D02*
X057500D01*
X057600Y035900D01*
Y036100D01*
X057500Y036200D01*
X057100D01*
X057000Y036100D01*
Y035900D01*
X057200Y036000D02*
X057000Y035800D01*
Y035900D02*
X057100Y035800D01*
X057000Y035600D02*
Y035400D01*
Y035500D01*
X057600D01*
X057500Y035600D01*
X062600Y035800D02*
X063000D01*
X063100Y035900D01*
Y036100D01*
X063000Y036200D01*
X062600D01*
X062500Y036100D01*
Y035900D01*
X062700Y036000D02*
X062500Y035800D01*
Y035900D02*
X062600Y035800D01*
X062500Y035200D02*
Y035600D01*
X062900Y035200D01*
X063000D01*
X063100Y035300D01*
Y035500D01*
X063000Y035600D01*
X068100Y035800D02*
X068500D01*
X068600Y035900D01*
Y036100D01*
X068500Y036200D01*
X068100D01*
X068000Y036100D01*
Y035900D01*
X068200Y036000D02*
X068000Y035800D01*
Y035900D02*
X068100Y035800D01*
X068500Y035600D02*
X068600Y035500D01*
Y035300D01*
X068500Y035200D01*
X068400D01*
X068300Y035300D01*
Y035400D01*
Y035300D01*
X068200Y035200D01*
X068100D01*
X068000Y035300D01*
Y035500D01*
X068100Y035600D01*
X057750Y037900D02*
X058150D01*
Y037700D01*
X058083Y037633D01*
X057950D01*
X057883Y037700D01*
Y037900D01*
Y037767D02*
X057750Y037633D01*
X058150Y037500D02*
Y037234D01*
X058083D01*
X057817Y037500D01*
X057750D01*
X063250Y037900D02*
X063650D01*
Y037700D01*
X063583Y037633D01*
X063450D01*
X063383Y037700D01*
Y037900D01*
Y037767D02*
X063250Y037633D01*
X063583Y037500D02*
X063650Y037433D01*
Y037300D01*
X063583Y037234D01*
X063517D01*
X063450Y037300D01*
X063383Y037234D01*
X063317D01*
X063250Y037300D01*
Y037433D01*
X063317Y037500D01*
X063383D01*
X063450Y037433D01*
X063517Y037500D01*
X063583D01*
X063450Y037433D02*
Y037300D01*
X067700Y038800D02*
X068100D01*
Y038600D01*
X068033Y038533D01*
X067900D01*
X067833Y038600D01*
Y038800D01*
Y038667D02*
X067700Y038533D01*
X067767Y038400D02*
X067700Y038333D01*
Y038200D01*
X067767Y038134D01*
X068033D01*
X068100Y038200D01*
Y038333D01*
X068033Y038400D01*
X067967D01*
X067900Y038333D01*
Y038134D01*
X060400Y030650D02*
Y031050D01*
X060600D01*
X060667Y030983D01*
Y030850D01*
X060600Y030783D01*
X060400D01*
X060533D02*
X060667Y030650D01*
X060800D02*
X060933D01*
X060867D01*
Y031050D01*
X060800Y030983D01*
X061133D02*
X061200Y031050D01*
X061333D01*
X061400Y030983D01*
Y030717D01*
X061333Y030650D01*
X061200D01*
X061133Y030717D01*
Y030983D01*
X060400Y029300D02*
Y028800D01*
X060500Y028700D01*
X060700D01*
X060800Y028800D01*
Y029300D01*
X061000Y028700D02*
X061200D01*
X061100D01*
Y029300D01*
X061000Y029200D01*
X056500Y031100D02*
Y030600D01*
X056600Y030500D01*
X056800D01*
X056900Y030600D01*
Y031100D01*
X057100Y031000D02*
X057200Y031100D01*
X057400D01*
X057500Y031000D01*
Y030900D01*
X057400Y030800D01*
X057300D01*
X057400D01*
X057500Y030700D01*
Y030600D01*
X057400Y030500D01*
X057200D01*
X057100Y030600D01*
X068000Y022400D02*
X067500D01*
X067400Y022300D01*
Y022100D01*
X067500Y022000D01*
X068000D01*
X067400Y021400D02*
Y021800D01*
X067800Y021400D01*
X067900D01*
X068000Y021500D01*
Y021700D01*
X067900Y021800D01*
D45*
X058749Y026689D02*
G03*
X058749Y026689I-000049J000000D01*
G01*
X056672Y037161D02*
G03*
X056672Y037161I-000049J000000D01*
G01*
X067672D02*
G03*
X067672Y037161I-000049J000000D01*
G01*
X062172D02*
G03*
X062172Y037161I-000049J000000D01*
G01*
D46*
X056393Y030263D02*
G03*
X056393Y030263I-000020J000000D01*
G01*
D47*
X053494Y016500D02*
X054045D01*
Y017294D01*
X053494D02*
X054045D01*
X052150Y016500D02*
X052700D01*
X052150D02*
Y017294D01*
X052700D01*
X052980Y016620D02*
Y016900D01*
Y017176D01*
Y016900D02*
X053218Y016660D01*
Y017136D01*
X052980Y016900D02*
X053218Y017136D01*
X053494Y017600D02*
X054045D01*
Y018394D01*
X053494D02*
X054045D01*
X052150Y017600D02*
X052700D01*
X052150D02*
Y018394D01*
X052700D01*
X052980Y017720D02*
Y018000D01*
Y018276D01*
Y018000D02*
X053218Y017760D01*
Y018236D01*
X052980Y018000D02*
X053218Y018236D01*
X053494Y019800D02*
X054045D01*
Y020594D01*
X053494D02*
X054045D01*
X052150Y019800D02*
X052700D01*
X052150D02*
Y020594D01*
X052700D01*
X052980Y019920D02*
Y020200D01*
Y020476D01*
Y020200D02*
X053218Y019960D01*
Y020436D01*
X052980Y020200D02*
X053218Y020436D01*
X053494Y018700D02*
X054045D01*
Y019494D01*
X053494D02*
X054045D01*
X052150Y018700D02*
X052700D01*
X052150D02*
Y019494D01*
X052700D01*
X052980Y018820D02*
Y019100D01*
Y019376D01*
Y019100D02*
X053218Y018860D01*
Y019336D01*
X052980Y019100D02*
X053218Y019336D01*
X052100Y025850D02*
X053878D01*
X053682Y023106D02*
X053878D01*
X053682Y023900D02*
X053878D01*
X053682Y023106D02*
Y023900D01*
X053878Y021157D02*
Y023106D01*
Y023900D02*
Y025850D01*
X052100Y021157D02*
Y025850D01*
Y021157D02*
X053878D01*
X066522Y030250D02*
X068300D01*
Y023950D02*
Y030250D01*
X066522Y023950D02*
Y026700D01*
Y027494D02*
Y030250D01*
X066718Y026700D02*
Y027494D01*
X066522Y026700D02*
X066718D01*
X066522Y027494D02*
X066718D01*
X066522Y023950D02*
X068300D01*
X067800Y019500D02*
Y020500D01*
Y019500D02*
X068300D01*
Y016500D02*
Y019500D01*
X054300Y016500D02*
X068300D01*
X054300D02*
Y023500D01*
X068300D01*
Y020500D02*
Y023500D01*
X067800Y020500D02*
X068300D01*
D48*
X063457Y024180D02*
Y024220D01*
X063143Y024180D02*
Y024220D01*
X062657Y024180D02*
Y024220D01*
X062343Y024180D02*
Y024220D01*
X061345Y025859D02*
Y028154D01*
Y025859D02*
X063641D01*
Y028154D01*
X061345D02*
X063641D01*
X058149Y024514D02*
X058237D01*
X058149Y026286D02*
X058237D01*
X059163Y024514D02*
X059251D01*
X059163Y026286D02*
X059251D01*
X058149Y024514D02*
Y026286D01*
X059251Y024514D02*
Y026286D01*
X055846Y029080D02*
Y029120D01*
X055354Y029080D02*
Y029120D01*
X056531Y030096D02*
Y030263D01*
Y028137D02*
Y028304D01*
X057869Y030096D02*
Y030263D01*
Y028137D02*
Y028304D01*
X056531Y030263D02*
X056789D01*
X057611D02*
X057869D01*
X056531Y028137D02*
X056789D01*
X057611D02*
X057869D01*
X062180Y029843D02*
X062220D01*
X062180Y030157D02*
X062220D01*
X063541Y029716D02*
X063580D01*
X063541Y030208D02*
X063580D01*
X060693Y029930D02*
Y029970D01*
X061007Y029930D02*
Y029970D01*
X052633Y035035D02*
Y036137D01*
X056767D01*
Y035035D02*
Y036137D01*
X063633Y035035D02*
Y036137D01*
X067767D01*
Y035035D02*
Y036137D01*
X058133Y035035D02*
Y036137D01*
X062267D01*
Y035035D02*
Y036137D01*
X057243Y037480D02*
Y037520D01*
X057557Y037480D02*
Y037520D01*
X062743Y037480D02*
Y037520D01*
X063057Y037480D02*
Y037520D01*
X067743Y037380D02*
Y037420D01*
X068057Y037380D02*
Y037420D01*
X061157Y024180D02*
Y024220D01*
X060843Y024180D02*
Y024220D01*
X061907Y024180D02*
Y024220D01*
X061593Y024180D02*
Y024220D01*
X064257Y024180D02*
Y024220D01*
X063943Y024180D02*
Y024220D01*
X064962Y025880D02*
Y025920D01*
X065238Y025880D02*
Y025920D01*
X064962Y027080D02*
Y027120D01*
X065238Y027080D02*
Y027120D01*
X064962Y028280D02*
Y028320D01*
X065238Y028280D02*
Y028320D01*
M02*
