G04 Layer_Color=16711935*
%FSAX24Y24*%
%MOIN*%
G70*
G01*
G75*
%ADD52R,0.0474X0.0434*%
%ADD60R,0.0434X0.0474*%
%ADD62R,0.4253X0.3545*%
%ADD63R,0.0453X0.1674*%
%ADD64R,0.0434X0.0356*%
%ADD66C,0.0710*%
%ADD67C,0.0650*%
%ADD68C,0.2090*%
%ADD69C,0.0360*%
%ADD70C,0.0320*%
%ADD71C,0.0180*%
%ADD72R,0.2986X0.1041*%
%ADD73R,0.0828X0.0612*%
%ADD74R,0.0986X0.0986*%
%ADD75R,0.0474X0.1064*%
%ADD76R,0.1379X0.1064*%
%ADD77R,0.0533X0.1143*%
%ADD78R,0.0356X0.0434*%
%ADD79O,0.0710X0.0257*%
G36*
X054724Y030040D02*
X054724Y030040D01*
X054744D01*
X054749Y030040D01*
X054808Y030032D01*
X054814Y030031D01*
X054818Y030029D01*
X054892Y029999D01*
X054897Y029996D01*
X054901Y029993D01*
X054965Y029945D01*
X054965Y029945D01*
X054969Y029941D01*
X054972Y029937D01*
X055021Y029874D01*
X055024Y029869D01*
X055026Y029865D01*
X055057Y029791D01*
X055059Y029786D01*
X055060Y029781D01*
X055070Y029701D01*
X055070Y029701D01*
X055070Y029700D01*
X055070Y029698D01*
X055071Y029696D01*
X055071Y029696D01*
X055071Y029695D01*
X055070Y029693D01*
X055070Y029691D01*
X055070Y029690D01*
X055070Y029690D01*
X055058Y029608D01*
X055057Y029606D01*
X055057Y029605D01*
X055057Y029604D01*
X055056Y029603D01*
X055056Y029601D01*
X055055Y029600D01*
X055046Y029574D01*
X055046Y029574D01*
X055001Y029456D01*
X054880Y029095D01*
X054763Y028637D01*
X054679Y028171D01*
X054627Y027640D01*
X054620Y027462D01*
X054620Y027462D01*
X054618Y027403D01*
X054618Y027402D01*
X054618Y027402D01*
X054618Y027400D01*
X054618Y027398D01*
X054618Y027397D01*
X054617Y027396D01*
X054617Y027395D01*
X054617Y027393D01*
X054616Y027392D01*
X054616Y027391D01*
X054558Y027225D01*
X054557Y027224D01*
X054557Y027223D01*
X054556Y027222D01*
X054556Y027220D01*
X054555Y027219D01*
X054555Y027218D01*
X054554Y027217D01*
X054553Y027216D01*
X054552Y027215D01*
X054552Y027214D01*
X054475Y027113D01*
X054471Y027109D01*
X054471D01*
Y027109D01*
X054467Y027106D01*
X054367Y027029D01*
X054362Y027026D01*
X054358Y027024D01*
X054241Y026975D01*
X054236Y026974D01*
X054231Y026973D01*
X054137Y026960D01*
X054131Y026960D01*
X054100D01*
X052500Y026960D01*
X052500Y026960D01*
X052434D01*
X052433Y026960D01*
X052432D01*
X052430Y026960D01*
X052429Y026960D01*
X052428Y026961D01*
X052426Y026961D01*
X052425Y026961D01*
X052424Y026961D01*
X052423Y026962D01*
X052421Y026962D01*
X052235Y027025D01*
X052234Y027026D01*
X052232Y027026D01*
X052231Y027027D01*
X052230Y027027D01*
X052229Y027028D01*
X052228Y027029D01*
X052227Y027029D01*
X052226Y027030D01*
X052225Y027031D01*
X052223Y027031D01*
X052119Y027112D01*
X052119Y027112D01*
X052115Y027115D01*
X052112Y027119D01*
X052031Y027223D01*
X052030Y027226D01*
X052029Y027228D01*
X052026Y027232D01*
X051976Y027354D01*
X051974Y027359D01*
X051973Y027364D01*
X051960Y027462D01*
X051960Y027467D01*
Y027500D01*
X051960Y029700D01*
X051960Y029700D01*
Y029739D01*
X051960Y029741D01*
Y029742D01*
X051960Y029743D01*
X051960Y029745D01*
X051961Y029746D01*
X051961Y029747D01*
X051961Y029749D01*
X051961Y029750D01*
X051962Y029751D01*
X051962Y029752D01*
X052000Y029864D01*
X052000Y029865D01*
X052001Y029867D01*
X052002Y029868D01*
X052002Y029869D01*
X052003Y029870D01*
X052003Y029871D01*
X052004Y029872D01*
X052005Y029874D01*
X052005Y029875D01*
X052006Y029876D01*
X052054Y029938D01*
X052054Y029938D01*
X052058Y029942D01*
X052062Y029946D01*
X052062Y029946D01*
X052124Y029994D01*
X052125Y029995D01*
X052126Y029995D01*
X052128Y029996D01*
X052129Y029997D01*
X052130Y029997D01*
X052131Y029998D01*
X052132Y029999D01*
X052133Y029999D01*
X052135Y029999D01*
X052136Y030000D01*
X052248Y030038D01*
X052249Y030038D01*
X052250Y030039D01*
X052251Y030039D01*
X052253Y030039D01*
X052254Y030039D01*
X052255Y030040D01*
X052257Y030040D01*
X052258Y030040D01*
X052259D01*
X052260Y030040D01*
X052300D01*
X054724Y030040D01*
D02*
G37*
G36*
X066467Y033190D02*
X066468D01*
X066470Y033190D01*
X066471Y033190D01*
X066472Y033189D01*
X066474Y033189D01*
X066475Y033189D01*
X066476Y033189D01*
X066477Y033188D01*
X066479Y033188D01*
X066665Y033125D01*
X066666Y033124D01*
X066667Y033124D01*
X066669Y033123D01*
X066670Y033123D01*
X066671Y033122D01*
X066672Y033121D01*
X066673Y033121D01*
X066674Y033120D01*
X066675Y033119D01*
X066677Y033119D01*
X066781Y033038D01*
X066781Y033038D01*
X066785Y033035D01*
X066788Y033031D01*
X066869Y032927D01*
X066870Y032924D01*
X066871Y032922D01*
X066874Y032917D01*
X066924Y032796D01*
X066926Y032791D01*
X066927Y032786D01*
X066940Y032688D01*
X066940Y032683D01*
Y032650D01*
X066940Y030200D01*
X066940Y030195D01*
X066939Y030190D01*
X066937Y030185D01*
X066935Y030180D01*
X066932Y030176D01*
X066928Y030172D01*
X066924Y030168D01*
X066920Y030165D01*
X066915Y030163D01*
X066910Y030161D01*
X066905Y030160D01*
X066900Y030160D01*
X064000D01*
X063995Y030160D01*
X063990Y030161D01*
X063985Y030163D01*
X063980Y030165D01*
X063976Y030168D01*
X063972Y030172D01*
X063968Y030176D01*
X063965Y030180D01*
X063963Y030185D01*
X063961Y030190D01*
X063960Y030195D01*
X063960Y030200D01*
Y032060D01*
X061584D01*
X061538Y032051D01*
X061485Y032015D01*
X061449Y031962D01*
X061440Y031916D01*
Y031900D01*
X061440Y028200D01*
X061440Y028200D01*
Y028167D01*
D01*
Y028167D01*
X061440Y028162D01*
X061427Y028064D01*
X061426Y028059D01*
X061424Y028054D01*
X061374Y027932D01*
X061371Y027928D01*
X061369Y027923D01*
X061288Y027819D01*
X061285Y027815D01*
X061285D01*
Y027815D01*
X061281Y027812D01*
X061177Y027731D01*
X061175Y027731D01*
X061174Y027730D01*
X061173Y027729D01*
X061172Y027729D01*
X061171Y027728D01*
X061170Y027727D01*
X061169Y027727D01*
X061167Y027726D01*
X061166Y027726D01*
X061165Y027725D01*
X060979Y027662D01*
X060977Y027662D01*
X060976Y027661D01*
X060975Y027661D01*
X060974Y027661D01*
X060972Y027661D01*
X060971Y027660D01*
X060970Y027660D01*
X060968Y027660D01*
X060967D01*
X060966Y027660D01*
X060900D01*
X058900Y027660D01*
X058900Y027660D01*
X058900D01*
X058867D01*
X058862Y027660D01*
X058764Y027673D01*
X058759Y027674D01*
X058754Y027676D01*
X058632Y027726D01*
X058628Y027729D01*
X058623Y027731D01*
X058519Y027812D01*
X058515Y027815D01*
Y027815D01*
X058515D01*
X058512Y027819D01*
X058431Y027923D01*
X058429Y027928D01*
X058426Y027932D01*
X058376Y028054D01*
X058374Y028059D01*
X058373Y028064D01*
X058360Y028162D01*
X058360Y028167D01*
Y028167D01*
D01*
X058360Y028200D01*
D01*
X058360Y031900D01*
Y031916D01*
X058351Y031962D01*
X058315Y032015D01*
X058262Y032051D01*
X058216Y032060D01*
X056084D01*
X056038Y032051D01*
X055985Y032015D01*
X055949Y031962D01*
X055940Y031916D01*
Y031900D01*
Y030200D01*
X055940Y030195D01*
X055939Y030190D01*
X055937Y030185D01*
X055935Y030180D01*
X055932Y030176D01*
X055928Y030172D01*
X055924Y030168D01*
X055920Y030165D01*
X055915Y030163D01*
X055910Y030161D01*
X055905Y030160D01*
X055900Y030160D01*
X052900D01*
X052895Y030160D01*
X052890Y030161D01*
X052885Y030163D01*
X052880Y030165D01*
X052876Y030168D01*
X052872Y030172D01*
X052868Y030176D01*
X052865Y030180D01*
X052863Y030185D01*
X052861Y030190D01*
X052860Y030195D01*
X052860Y030200D01*
X052860Y032650D01*
D01*
X052860Y032683D01*
D01*
Y032683D01*
X052860Y032688D01*
X052873Y032786D01*
X052874Y032791D01*
X052876Y032796D01*
X052926Y032917D01*
X052929Y032922D01*
X052931Y032927D01*
X053012Y033031D01*
X053015Y033035D01*
X053015D01*
Y033035D01*
X053019Y033038D01*
X053123Y033119D01*
X053128Y033121D01*
X053132Y033124D01*
X053254Y033174D01*
X053259Y033176D01*
X053264Y033177D01*
X053362Y033190D01*
X053367Y033190D01*
D01*
X053367D01*
X053400Y033190D01*
X066400Y033190D01*
X066466D01*
X066467Y033190D01*
D02*
G37*
D52*
X067100Y018885D02*
D03*
Y019515D02*
D03*
X066400Y018885D02*
D03*
Y019515D02*
D03*
X065700Y018885D02*
D03*
Y019515D02*
D03*
X065000Y018885D02*
D03*
Y019515D02*
D03*
X064300Y018885D02*
D03*
Y019515D02*
D03*
X059000Y017985D02*
D03*
Y018615D02*
D03*
X058200Y017985D02*
D03*
Y018615D02*
D03*
X062800Y031615D02*
D03*
Y030985D02*
D03*
X057300Y031615D02*
D03*
Y030985D02*
D03*
X068000Y031115D02*
D03*
Y030485D02*
D03*
D60*
X059315Y026700D02*
D03*
X058685D02*
D03*
X053415Y016900D02*
D03*
X052785D02*
D03*
X053415Y018000D02*
D03*
X052785D02*
D03*
X053415Y019100D02*
D03*
X052785D02*
D03*
X053415Y020200D02*
D03*
X052785D02*
D03*
D62*
X054700Y035055D02*
D03*
X065700D02*
D03*
X060200D02*
D03*
D63*
X053200Y031039D02*
D03*
X053700D02*
D03*
X054200D02*
D03*
X055200D02*
D03*
X055700D02*
D03*
X056200D02*
D03*
X064200D02*
D03*
X064700D02*
D03*
X065200D02*
D03*
X066200D02*
D03*
X066700D02*
D03*
X067200D02*
D03*
X058700D02*
D03*
X059200D02*
D03*
X059700D02*
D03*
X060700D02*
D03*
X061200D02*
D03*
X061700D02*
D03*
D64*
X059700Y018576D02*
D03*
Y018024D02*
D03*
X060700Y038424D02*
D03*
Y038976D02*
D03*
X059300Y038424D02*
D03*
Y038976D02*
D03*
D66*
X053200Y025080D02*
D03*
Y024290D02*
D03*
Y023500D02*
D03*
Y022713D02*
D03*
Y021925D02*
D03*
X067200Y025525D02*
D03*
Y029462D02*
D03*
Y028675D02*
D03*
Y027887D02*
D03*
Y027097D02*
D03*
Y026307D02*
D03*
Y024738D02*
D03*
D67*
X067800Y023000D02*
D03*
X066800D02*
D03*
X065800D02*
D03*
X064800D02*
D03*
X063800D02*
D03*
X062800D02*
D03*
X061800D02*
D03*
X060800D02*
D03*
X059800D02*
D03*
X058800D02*
D03*
X057800D02*
D03*
X056800D02*
D03*
X055800D02*
D03*
X054800D02*
D03*
Y022000D02*
D03*
Y021000D02*
D03*
Y020000D02*
D03*
Y019000D02*
D03*
Y018000D02*
D03*
Y017000D02*
D03*
X055800D02*
D03*
X056800D02*
D03*
X057800D02*
D03*
X058800D02*
D03*
X059800D02*
D03*
X060800D02*
D03*
X061800D02*
D03*
X062800D02*
D03*
X063800D02*
D03*
X064800D02*
D03*
X065800D02*
D03*
X066800D02*
D03*
X067800D02*
D03*
X066800Y018000D02*
D03*
X064800D02*
D03*
X063800D02*
D03*
X062800D02*
D03*
D68*
X052800Y015000D02*
D03*
X067600D02*
D03*
D69*
X052350Y024200D02*
D03*
X064550Y029050D02*
D03*
X066850Y021150D02*
D03*
X055000Y023900D02*
D03*
X052400Y021150D02*
D03*
X055950Y018400D02*
D03*
X065450Y024270D02*
D03*
X061356Y029923D02*
D03*
X055550Y028450D02*
D03*
X068100D02*
D03*
X057650Y038800D02*
D03*
X062450Y039900D02*
D03*
X061719Y039900D02*
D03*
X058050D02*
D03*
X052450Y038850D02*
D03*
X053300Y039500D02*
D03*
X052400Y038250D02*
D03*
X054000Y025200D02*
D03*
X055400Y017600D02*
D03*
X058900Y037500D02*
D03*
X059600D02*
D03*
X060300D02*
D03*
X061000D02*
D03*
X063850Y029700D02*
D03*
X065300Y022400D02*
D03*
X063100Y021200D02*
D03*
X058000Y026800D02*
D03*
X058800Y024300D02*
D03*
X060100Y028600D02*
D03*
Y030000D02*
D03*
Y029300D02*
D03*
X056165Y029854D02*
D03*
X057100Y030400D02*
D03*
X055700Y027000D02*
D03*
X057900Y030500D02*
D03*
X055612Y020600D02*
D03*
X057300Y019800D02*
D03*
X056900Y020600D02*
D03*
X056500Y021200D02*
D03*
X064200Y018700D02*
D03*
X055400Y019500D02*
D03*
X059200Y021200D02*
D03*
X056000Y019500D02*
D03*
X058276Y022459D02*
D03*
X060600Y022200D02*
D03*
X059500Y019800D02*
D03*
X061200Y019100D02*
D03*
X053100Y029600D02*
D03*
X053800D02*
D03*
Y029000D02*
D03*
X053100D02*
D03*
Y028400D02*
D03*
X053800D02*
D03*
X054000Y039500D02*
D03*
X054700D02*
D03*
X055400D02*
D03*
X066500D02*
D03*
X065800D02*
D03*
X065100D02*
D03*
X064400D02*
D03*
X055400Y037500D02*
D03*
X054700D02*
D03*
X054000D02*
D03*
X053300D02*
D03*
X066500D02*
D03*
X065800D02*
D03*
X065100D02*
D03*
X064400D02*
D03*
D70*
X063700Y030950D02*
D03*
X065700Y027750D02*
D03*
X062300Y030500D02*
D03*
X066450Y026100D02*
D03*
X053200Y020850D02*
D03*
X053691Y020200D02*
D03*
X059300Y026600D02*
D03*
X065628Y026422D02*
D03*
X051900Y016350D02*
D03*
X054250Y016561D02*
D03*
X052050Y039800D02*
D03*
X052529Y039371D02*
D03*
X065550Y029850D02*
D03*
X065350Y029100D02*
D03*
X063050Y031150D02*
D03*
X065500Y025050D02*
D03*
X057700Y031200D02*
D03*
X058817Y025583D02*
D03*
X057300Y028300D02*
D03*
X058100Y027700D02*
D03*
X057300D02*
D03*
X059400Y027200D02*
D03*
X059900D02*
D03*
X057834Y025850D02*
D03*
X058200Y024000D02*
D03*
X060800Y024800D02*
D03*
X061700Y029300D02*
D03*
X058494Y027445D02*
D03*
X056600Y027700D02*
D03*
X058900Y027200D02*
D03*
X053691Y019100D02*
D03*
Y018000D02*
D03*
Y016900D02*
D03*
D71*
X061673Y027827D02*
D03*
X061909D02*
D03*
X062146D02*
D03*
X062382D02*
D03*
X062618D02*
D03*
X062854D02*
D03*
X063091D02*
D03*
X063327D02*
D03*
Y027591D02*
D03*
X063091D02*
D03*
X062854D02*
D03*
X062618D02*
D03*
X062382D02*
D03*
X062146D02*
D03*
X061909D02*
D03*
X061673D02*
D03*
X063327Y027354D02*
D03*
X063091D02*
D03*
X062854D02*
D03*
X062618D02*
D03*
X062382D02*
D03*
X062146D02*
D03*
X061909D02*
D03*
X061673D02*
D03*
X063327Y027118D02*
D03*
X063091D02*
D03*
X062854D02*
D03*
X062618D02*
D03*
X062382D02*
D03*
X062146D02*
D03*
X061909D02*
D03*
X061673D02*
D03*
X063327Y026882D02*
D03*
X063091D02*
D03*
X062854D02*
D03*
X062618D02*
D03*
X062382D02*
D03*
X062146D02*
D03*
X061909D02*
D03*
X061673D02*
D03*
X063327Y026646D02*
D03*
X063091D02*
D03*
X062854D02*
D03*
X062618D02*
D03*
X062382D02*
D03*
X062146D02*
D03*
X061909D02*
D03*
X061673D02*
D03*
X063327Y026409D02*
D03*
X063091D02*
D03*
X062854D02*
D03*
X062618D02*
D03*
X062382D02*
D03*
X062146D02*
D03*
X061909D02*
D03*
X061673D02*
D03*
X063327Y026173D02*
D03*
X063091D02*
D03*
X062854D02*
D03*
X062618D02*
D03*
X062382D02*
D03*
X062146D02*
D03*
X061909D02*
D03*
X061673D02*
D03*
D72*
X054400Y037524D02*
D03*
Y039476D02*
D03*
X065400Y037524D02*
D03*
Y039476D02*
D03*
D73*
X066100Y025530D02*
D03*
Y024270D02*
D03*
X064800Y025530D02*
D03*
Y024270D02*
D03*
X063500Y025530D02*
D03*
Y024270D02*
D03*
X062200Y025530D02*
D03*
Y024270D02*
D03*
X060900Y025530D02*
D03*
Y024270D02*
D03*
X059600Y025530D02*
D03*
Y024270D02*
D03*
X064900Y028440D02*
D03*
Y029700D02*
D03*
X063600Y028440D02*
D03*
Y029700D02*
D03*
X062300Y028440D02*
D03*
Y029700D02*
D03*
X057700Y029530D02*
D03*
Y028270D02*
D03*
D74*
X054900Y026086D02*
D03*
Y024314D02*
D03*
D75*
X056294Y026601D02*
D03*
X057200D02*
D03*
X058106D02*
D03*
D76*
X057200Y024199D02*
D03*
D77*
X056791Y028000D02*
D03*
X055609D02*
D03*
X056791Y029300D02*
D03*
X055609D02*
D03*
D78*
X062724Y039900D02*
D03*
X063276D02*
D03*
X057276Y039900D02*
D03*
X056724D02*
D03*
D79*
X061554Y038416D02*
D03*
Y038672D02*
D03*
Y038928D02*
D03*
Y039184D02*
D03*
X063246Y038416D02*
D03*
Y038672D02*
D03*
Y038928D02*
D03*
Y039184D02*
D03*
X058446Y039184D02*
D03*
Y038928D02*
D03*
Y038672D02*
D03*
Y038416D02*
D03*
X056754Y039184D02*
D03*
Y038928D02*
D03*
Y038672D02*
D03*
Y038416D02*
D03*
M02*
