G04 Layer_Color=8388736*
%FSAX24Y24*%
%MOIN*%
G70*
G01*
G75*
%ADD49R,0.0560X0.0640*%
%ADD50R,0.1005X0.0592*%
G04:AMPARAMS|DCode=51|XSize=114.3mil|YSize=323mil|CornerRadius=57.2mil|HoleSize=0mil|Usage=FLASHONLY|Rotation=0.000|XOffset=0mil|YOffset=0mil|HoleType=Round|Shape=RoundedRectangle|*
%AMROUNDEDRECTD51*
21,1,0.1143,0.2087,0,0,0.0*
21,1,0.0000,0.3230,0,0,0.0*
1,1,0.1143,0.0000,-0.1043*
1,1,0.1143,0.0000,-0.1043*
1,1,0.1143,0.0000,0.1043*
1,1,0.1143,0.0000,0.1043*
%
%ADD51ROUNDEDRECTD51*%
%ADD52R,0.0474X0.0434*%
%ADD53R,0.2049X0.2049*%
%ADD54R,0.0729X0.0178*%
%ADD55R,0.0178X0.0729*%
%ADD56R,0.0690X0.1025*%
%ADD57R,0.0651X0.0533*%
%ADD58R,0.0414X0.0158*%
%ADD59R,0.0647X0.1792*%
%ADD60R,0.0434X0.0474*%
%ADD61R,0.0533X0.0651*%
%ADD62R,0.4253X0.3545*%
%ADD63R,0.0453X0.1674*%
%ADD64R,0.0434X0.0356*%
%ADD65R,0.3085X0.1780*%
%ADD66C,0.0710*%
%ADD67C,0.0650*%
%ADD68C,0.2090*%
%ADD69C,0.0360*%
%ADD70C,0.0320*%
%ADD71C,0.0180*%
G36*
X067805Y034340D02*
X067810Y034339D01*
X067815Y034337D01*
X067820Y034335D01*
X067824Y034332D01*
X067828Y034328D01*
X067832Y034324D01*
X067835Y034320D01*
X067837Y034315D01*
X067839Y034310D01*
X067840Y034305D01*
X067840Y034300D01*
Y031900D01*
X067840Y031895D01*
X067839Y031890D01*
X067837Y031885D01*
X067835Y031880D01*
X067832Y031876D01*
X067828Y031872D01*
X067824Y031868D01*
X067820Y031865D01*
X067815Y031863D01*
X067810Y031861D01*
X067805Y031860D01*
X067800Y031860D01*
X056723Y031860D01*
X056659Y031829D01*
X056446Y031713D01*
X056225Y031554D01*
X056156Y031496D01*
X056156Y031496D01*
X056155Y031495D01*
X056154Y031495D01*
X056153Y031494D01*
X056151Y031493D01*
X056039Y031420D01*
X055717Y031178D01*
X055450Y030934D01*
X055205Y030667D01*
X054985Y030380D01*
X054791Y030074D01*
X054624Y029753D01*
X054485Y029419D01*
X054376Y029074D01*
X054298Y028721D01*
X054257Y028399D01*
X054249Y028292D01*
X054249Y028292D01*
X054249Y028292D01*
X054249Y028292D01*
X054249Y028291D01*
X054247Y028256D01*
X054247Y028256D01*
X054246Y028255D01*
X054246Y028253D01*
X054246Y028251D01*
X054246Y028251D01*
X054246Y028250D01*
X054245Y028248D01*
X054244Y028246D01*
X054244Y028245D01*
X054244Y028245D01*
X054207Y028144D01*
X054207Y028143D01*
X054207Y028142D01*
X054206Y028140D01*
X054205Y028139D01*
X054205Y028138D01*
X054204Y028137D01*
X054204Y028136D01*
X054203Y028134D01*
X054202Y028134D01*
X054202Y028133D01*
X054151Y028067D01*
X054147Y028063D01*
X054143Y028059D01*
X054077Y028008D01*
X054074Y028006D01*
X054073Y028005D01*
X054068Y028003D01*
X053991Y027971D01*
X053986Y027969D01*
X053981Y027968D01*
X053919Y027960D01*
X053913Y027960D01*
X053893D01*
X052700Y027960D01*
X052700Y027960D01*
X052680D01*
X052675Y027960D01*
X052616Y027968D01*
X052616D01*
X052611Y027969D01*
X052610Y027970D01*
X052606Y027971D01*
X052606Y027971D01*
X052533Y028001D01*
X052533Y028001D01*
X052529Y028003D01*
X052524Y028006D01*
X052462Y028054D01*
X052458Y028058D01*
X052454Y028062D01*
X052406Y028124D01*
X052403Y028129D01*
X052401Y028133D01*
X052371Y028206D01*
X052371Y028206D01*
X052370Y028210D01*
X052369Y028211D01*
X052368Y028216D01*
Y028216D01*
X052360Y028275D01*
X052360Y028280D01*
Y028300D01*
Y033600D01*
Y033600D01*
Y033634D01*
X052360Y033636D01*
X052360Y033638D01*
X052370Y033741D01*
X052370Y033742D01*
X052371Y033744D01*
X052371Y033745D01*
X052371Y033746D01*
X052371Y033748D01*
X052372Y033749D01*
X052412Y033881D01*
X052412Y033882D01*
X052413Y033883D01*
X052413Y033884D01*
X052414Y033886D01*
X052414Y033887D01*
X052415Y033888D01*
X052480Y034010D01*
X052481Y034011D01*
X052481Y034012D01*
X052482Y034013D01*
X052483Y034014D01*
X052483Y034015D01*
X052484Y034016D01*
X052572Y034123D01*
X052573Y034124D01*
X052573Y034125D01*
X052574Y034126D01*
X052575Y034127D01*
X052576Y034127D01*
X052577Y034128D01*
X052684Y034216D01*
X052685Y034217D01*
X052686Y034217D01*
X052687Y034218D01*
X052688Y034219D01*
X052689Y034220D01*
X052690Y034220D01*
X052812Y034285D01*
X052813Y034286D01*
X052814Y034286D01*
X052816Y034287D01*
X052817Y034287D01*
X052818Y034288D01*
X052819Y034288D01*
X052951Y034328D01*
X052952Y034329D01*
X052954Y034329D01*
X052955Y034329D01*
X052956Y034329D01*
X052958Y034330D01*
X052959Y034330D01*
X053062Y034340D01*
X053064Y034340D01*
X053066Y034340D01*
X053100D01*
X067800Y034340D01*
X067805Y034340D01*
D02*
G37*
G36*
X055493Y027315D02*
X055499Y027314D01*
X055504Y027312D01*
X055508Y027310D01*
X055513Y027307D01*
X055517Y027303D01*
X055520Y027299D01*
X055523Y027295D01*
X055525Y027290D01*
X055527Y027285D01*
X055528Y027280D01*
X055528Y027275D01*
Y024125D01*
X055528Y024120D01*
X055527Y024115D01*
X055525Y024110D01*
X055523Y024105D01*
X055520Y024101D01*
X055517Y024097D01*
X055513Y024093D01*
X055508Y024090D01*
X055504Y024088D01*
X055499Y024086D01*
X055493Y024085D01*
X055488Y024085D01*
X054701D01*
X054696Y024085D01*
X054638Y024093D01*
X054633Y024094D01*
X054628Y024096D01*
X054556Y024126D01*
X054552Y024128D01*
X054547Y024131D01*
X054485Y024178D01*
X054482Y024182D01*
X054478Y024185D01*
X054431Y024247D01*
X054429Y024249D01*
X054428Y024252D01*
X054426Y024256D01*
X054396Y024328D01*
X054394Y024333D01*
X054393Y024338D01*
X054385Y024396D01*
X054385Y024401D01*
Y024420D01*
Y026980D01*
Y026999D01*
X054385Y027004D01*
X054393Y027062D01*
X054394Y027067D01*
X054396Y027072D01*
X054426Y027144D01*
X054428Y027148D01*
X054431Y027153D01*
X054478Y027215D01*
X054482Y027218D01*
X054485Y027222D01*
X054485Y027222D01*
X054547Y027269D01*
X054549Y027271D01*
X054552Y027272D01*
X054556Y027274D01*
X054628Y027304D01*
X054633Y027306D01*
X054638Y027307D01*
X054696Y027315D01*
X054701Y027315D01*
X054701D01*
X054701D01*
X054720Y027315D01*
X054720Y027315D01*
X055488D01*
X055493Y027315D01*
D02*
G37*
G36*
X057304D02*
X057362Y027307D01*
X057367Y027306D01*
X057372Y027304D01*
X057444Y027274D01*
X057448Y027272D01*
X057451Y027271D01*
X057453Y027269D01*
X057515Y027222D01*
X057518Y027218D01*
X057522Y027215D01*
X057569Y027153D01*
X057572Y027148D01*
X057574Y027144D01*
X057604Y027072D01*
X057606Y027067D01*
X057607Y027062D01*
X057615Y027004D01*
X057615Y026999D01*
Y026980D01*
Y024420D01*
Y024401D01*
X057615Y024396D01*
X057607Y024338D01*
X057606Y024333D01*
X057604Y024328D01*
X057574Y024256D01*
X057572Y024252D01*
X057571Y024249D01*
X057569Y024247D01*
X057522Y024185D01*
X057518Y024182D01*
X057515Y024178D01*
X057453Y024131D01*
X057448Y024128D01*
X057444Y024126D01*
X057372Y024096D01*
X057367Y024094D01*
X057362Y024093D01*
X057304Y024085D01*
X057299Y024085D01*
X056512D01*
X056507Y024085D01*
X056501Y024086D01*
X056496Y024088D01*
X056492Y024090D01*
X056487Y024093D01*
X056483Y024097D01*
X056480Y024101D01*
X056477Y024105D01*
X056475Y024110D01*
X056473Y024115D01*
X056472Y024120D01*
X056472Y024125D01*
Y027275D01*
X056472Y027280D01*
X056473Y027285D01*
X056475Y027290D01*
X056477Y027295D01*
X056480Y027299D01*
X056483Y027303D01*
X056487Y027307D01*
X056492Y027310D01*
X056496Y027312D01*
X056501Y027314D01*
X056507Y027315D01*
X056512Y027315D01*
X057299D01*
X057304Y027315D01*
D02*
G37*
G36*
X060831Y040740D02*
X060833Y040740D01*
X060922Y040731D01*
X060923Y040731D01*
X060924Y040731D01*
X060925Y040731D01*
X060927Y040730D01*
X060928Y040730D01*
X060929Y040730D01*
X061042Y040695D01*
X061044Y040695D01*
X061045Y040695D01*
X061046Y040694D01*
X061047Y040694D01*
X061048Y040693D01*
X061050Y040692D01*
X061154Y040637D01*
X061155Y040636D01*
X061156Y040635D01*
X061157Y040635D01*
X061158Y040634D01*
X061159Y040633D01*
X061160Y040632D01*
X061252Y040557D01*
X061253Y040556D01*
X061254Y040556D01*
X061255Y040555D01*
X061256Y040554D01*
X061256Y040553D01*
X061257Y040552D01*
X061332Y040460D01*
X061333Y040459D01*
X061334Y040458D01*
X061335Y040457D01*
X061335Y040456D01*
X061336Y040455D01*
X061337Y040454D01*
X061392Y040350D01*
X061393Y040348D01*
X061394Y040347D01*
X061394Y040346D01*
X061395Y040345D01*
X061395Y040344D01*
X061395Y040342D01*
X061430Y040229D01*
X061430Y040228D01*
X061430Y040227D01*
X061431Y040225D01*
X061431Y040224D01*
X061431Y040223D01*
X061431Y040222D01*
X061440Y040133D01*
X061440Y040131D01*
X061440Y040129D01*
X061440Y040100D01*
D01*
X061440Y036300D01*
X061440Y036295D01*
X061439Y036290D01*
X061437Y036285D01*
X061435Y036280D01*
X061432Y036276D01*
X061428Y036272D01*
X061424Y036268D01*
X061420Y036265D01*
X061415Y036263D01*
X061410Y036261D01*
X061405Y036260D01*
X061400Y036260D01*
X058400D01*
X058395Y036260D01*
X058390Y036261D01*
X058385Y036263D01*
X058380Y036265D01*
X058376Y036268D01*
X058372Y036272D01*
X058368Y036276D01*
X058365Y036280D01*
X058363Y036285D01*
X058361Y036290D01*
X058360Y036295D01*
X058360Y036300D01*
Y040100D01*
X058360Y040129D01*
X058360Y040131D01*
X058360Y040133D01*
X058369Y040222D01*
X058369Y040223D01*
X058369Y040224D01*
X058369Y040225D01*
X058370Y040227D01*
X058370Y040228D01*
X058370Y040229D01*
X058405Y040342D01*
X058405Y040344D01*
X058405Y040345D01*
X058406Y040346D01*
X058406Y040347D01*
X058407Y040348D01*
X058408Y040350D01*
X058463Y040454D01*
X058464Y040455D01*
X058465Y040456D01*
X058465Y040457D01*
X058466Y040458D01*
X058467Y040459D01*
X058468Y040460D01*
X058543Y040552D01*
X058544Y040553D01*
X058544Y040554D01*
X058545Y040555D01*
X058546Y040556D01*
X058547Y040556D01*
X058548Y040557D01*
X058640Y040632D01*
X058641Y040633D01*
X058642Y040634D01*
X058643Y040635D01*
X058644Y040635D01*
X058645Y040636D01*
X058646Y040637D01*
X058750Y040692D01*
X058752Y040693D01*
X058753Y040694D01*
X058754Y040694D01*
X058755Y040695D01*
X058756Y040695D01*
X058758Y040695D01*
X058871Y040730D01*
X058872Y040730D01*
X058873Y040730D01*
X058875Y040731D01*
X058876Y040731D01*
X058877Y040731D01*
X058878Y040731D01*
X058967Y040740D01*
X058969Y040740D01*
X058971Y040740D01*
X059000Y040740D01*
X060800Y040740D01*
X060800Y040740D01*
X060829Y040740D01*
X060831Y040740D01*
D02*
G37*
G36*
X066331Y040740D02*
X066333Y040740D01*
X066422Y040731D01*
X066423Y040731D01*
X066424Y040731D01*
X066425Y040731D01*
X066427Y040730D01*
X066428Y040730D01*
X066429Y040730D01*
X066542Y040695D01*
X066544Y040695D01*
X066545Y040695D01*
X066546Y040694D01*
X066547Y040694D01*
X066548Y040693D01*
X066550Y040692D01*
X066654Y040637D01*
X066655Y040636D01*
X066656Y040635D01*
X066657Y040635D01*
X066658Y040634D01*
X066659Y040633D01*
X066660Y040632D01*
X066752Y040557D01*
X066753Y040556D01*
X066754Y040556D01*
X066755Y040555D01*
X066756Y040554D01*
X066756Y040553D01*
X066757Y040552D01*
X066832Y040460D01*
X066833Y040459D01*
X066834Y040458D01*
X066835Y040457D01*
X066835Y040456D01*
X066836Y040455D01*
X066837Y040454D01*
X066892Y040350D01*
X066893Y040348D01*
X066894Y040347D01*
X066894Y040346D01*
X066895Y040345D01*
X066895Y040344D01*
X066895Y040342D01*
X066930Y040229D01*
X066930Y040228D01*
X066930Y040227D01*
X066931Y040225D01*
X066931Y040224D01*
X066931Y040223D01*
X066931Y040222D01*
X066940Y040133D01*
X066940Y040131D01*
X066940Y040129D01*
X066940Y040100D01*
D01*
X066940Y038400D01*
X066940Y038395D01*
X066939Y038390D01*
X066937Y038385D01*
X066935Y038380D01*
X066932Y038376D01*
X066928Y038372D01*
X066924Y038368D01*
X066920Y038365D01*
X066915Y038363D01*
X066910Y038361D01*
X066905Y038360D01*
X066900Y038360D01*
X063900D01*
X063895Y038360D01*
X063890Y038361D01*
X063885Y038363D01*
X063880Y038365D01*
X063876Y038368D01*
X063872Y038372D01*
X063868Y038376D01*
X063865Y038380D01*
X063863Y038385D01*
X063861Y038390D01*
X063860Y038395D01*
X063860Y038400D01*
Y040100D01*
Y040129D01*
X063860Y040131D01*
X063860Y040133D01*
X063869Y040222D01*
X063869Y040223D01*
X063869Y040224D01*
X063869Y040225D01*
X063870Y040227D01*
X063870Y040228D01*
X063870Y040229D01*
X063905Y040342D01*
X063905Y040344D01*
X063905Y040345D01*
X063906Y040346D01*
X063906Y040347D01*
X063907Y040348D01*
X063908Y040350D01*
X063963Y040454D01*
X063964Y040455D01*
X063965Y040456D01*
X063965Y040457D01*
X063966Y040458D01*
X063967Y040459D01*
X063968Y040460D01*
X064043Y040552D01*
X064044Y040553D01*
X064044Y040554D01*
X064045Y040555D01*
X064046Y040556D01*
X064047Y040556D01*
X064048Y040557D01*
X064140Y040632D01*
X064141Y040633D01*
X064142Y040634D01*
X064143Y040635D01*
X064144Y040635D01*
X064145Y040636D01*
X064146Y040637D01*
X064250Y040692D01*
X064252Y040693D01*
X064253Y040694D01*
X064254Y040694D01*
X064255Y040695D01*
X064256Y040695D01*
X064258Y040695D01*
X064371Y040730D01*
X064372Y040730D01*
X064373Y040730D01*
X064375Y040731D01*
X064376Y040731D01*
X064377Y040731D01*
X064378Y040731D01*
X064467Y040740D01*
X064469Y040740D01*
X064471Y040740D01*
X064500D01*
X066300Y040740D01*
D01*
X066329Y040740D01*
X066331Y040740D01*
D02*
G37*
G36*
X055331D02*
X055333Y040740D01*
X055422Y040731D01*
X055423Y040731D01*
X055424Y040731D01*
X055425Y040731D01*
X055427Y040730D01*
X055428Y040730D01*
X055429Y040730D01*
X055542Y040695D01*
X055544Y040695D01*
X055545Y040695D01*
X055546Y040694D01*
X055547Y040694D01*
X055548Y040693D01*
X055550Y040692D01*
X055654Y040637D01*
X055655Y040636D01*
X055656Y040635D01*
X055657Y040635D01*
X055658Y040634D01*
X055659Y040633D01*
X055660Y040632D01*
X055752Y040557D01*
X055753Y040556D01*
X055754Y040556D01*
X055755Y040555D01*
X055756Y040554D01*
X055756Y040553D01*
X055757Y040552D01*
X055832Y040460D01*
X055833Y040459D01*
X055834Y040458D01*
X055835Y040457D01*
X055835Y040456D01*
X055836Y040455D01*
X055837Y040454D01*
X055892Y040350D01*
X055893Y040348D01*
X055894Y040347D01*
X055894Y040346D01*
X055895Y040345D01*
X055895Y040344D01*
X055895Y040342D01*
X055930Y040229D01*
X055930Y040228D01*
X055930Y040227D01*
X055931Y040225D01*
X055931Y040224D01*
X055931Y040223D01*
X055931Y040222D01*
X055940Y040133D01*
X055940Y040131D01*
X055940Y040129D01*
X055940Y040100D01*
D01*
X055940Y038400D01*
X055940Y038395D01*
X055939Y038390D01*
X055937Y038385D01*
X055935Y038380D01*
X055932Y038376D01*
X055928Y038372D01*
X055924Y038368D01*
X055920Y038365D01*
X055915Y038363D01*
X055910Y038361D01*
X055905Y038360D01*
X055900Y038360D01*
X052900D01*
X052895Y038360D01*
X052890Y038361D01*
X052885Y038363D01*
X052880Y038365D01*
X052876Y038368D01*
X052872Y038372D01*
X052868Y038376D01*
X052865Y038380D01*
X052863Y038385D01*
X052861Y038390D01*
X052860Y038395D01*
X052860Y038400D01*
Y040100D01*
Y040129D01*
X052860Y040131D01*
X052860Y040133D01*
X052869Y040222D01*
X052869Y040223D01*
X052869Y040224D01*
X052869Y040225D01*
X052870Y040227D01*
X052870Y040228D01*
X052870Y040229D01*
X052905Y040342D01*
X052905Y040344D01*
X052905Y040345D01*
X052906Y040346D01*
X052906Y040347D01*
X052907Y040348D01*
X052908Y040350D01*
X052963Y040454D01*
X052964Y040455D01*
X052965Y040456D01*
X052965Y040457D01*
X052966Y040458D01*
X052967Y040459D01*
X052968Y040460D01*
X053043Y040552D01*
X053044Y040553D01*
X053044Y040554D01*
X053045Y040555D01*
X053046Y040556D01*
X053047Y040556D01*
X053048Y040557D01*
X053140Y040632D01*
X053141Y040633D01*
X053142Y040634D01*
X053143Y040635D01*
X053144Y040635D01*
X053145Y040636D01*
X053146Y040637D01*
X053250Y040692D01*
X053252Y040693D01*
X053253Y040694D01*
X053254Y040694D01*
X053255Y040695D01*
X053256Y040695D01*
X053258Y040695D01*
X053371Y040730D01*
X053372Y040730D01*
X053373Y040730D01*
X053375Y040731D01*
X053376Y040731D01*
X053377Y040731D01*
X053378Y040731D01*
X053467Y040740D01*
X053469Y040740D01*
X053471Y040740D01*
X053500D01*
X055300Y040740D01*
D01*
X055329Y040740D01*
X055331Y040740D01*
D02*
G37*
D49*
X053691Y016900D02*
D03*
X052500D02*
D03*
X053691Y018000D02*
D03*
X052500D02*
D03*
X053691Y020200D02*
D03*
X052500D02*
D03*
X053691Y019100D02*
D03*
X052500D02*
D03*
D50*
X059100Y028296D02*
D03*
Y029496D02*
D03*
D51*
X057043Y025700D02*
D03*
X054957D02*
D03*
D52*
X063300Y024515D02*
D03*
Y023885D02*
D03*
X062500Y024515D02*
D03*
Y023885D02*
D03*
X060850Y030265D02*
D03*
Y029635D02*
D03*
X057400Y037815D02*
D03*
Y037185D02*
D03*
X062900Y037815D02*
D03*
Y037185D02*
D03*
X067900Y037715D02*
D03*
Y037085D02*
D03*
X061000Y024515D02*
D03*
Y023885D02*
D03*
X061750Y024515D02*
D03*
Y023885D02*
D03*
X064100Y024515D02*
D03*
Y023885D02*
D03*
D53*
X062500Y027000D02*
D03*
D54*
X060800Y028089D02*
D03*
Y027893D02*
D03*
Y027696D02*
D03*
Y027499D02*
D03*
Y027302D02*
D03*
Y027105D02*
D03*
Y026908D02*
D03*
Y026711D02*
D03*
Y026515D02*
D03*
Y026318D02*
D03*
Y026121D02*
D03*
Y025924D02*
D03*
X064186D02*
D03*
Y026121D02*
D03*
Y026318D02*
D03*
Y026515D02*
D03*
Y026711D02*
D03*
Y026908D02*
D03*
Y027105D02*
D03*
Y027302D02*
D03*
Y027499D02*
D03*
Y027696D02*
D03*
Y027893D02*
D03*
Y028089D02*
D03*
D55*
X061410Y025314D02*
D03*
X061607D02*
D03*
X061804D02*
D03*
X062001D02*
D03*
X062198D02*
D03*
X062394D02*
D03*
X062591D02*
D03*
X062788D02*
D03*
X062985D02*
D03*
X063182D02*
D03*
X063379D02*
D03*
X063576D02*
D03*
Y028700D02*
D03*
X063379D02*
D03*
X063182D02*
D03*
X062985D02*
D03*
X062788D02*
D03*
X062591D02*
D03*
X062394D02*
D03*
X062198D02*
D03*
X062001D02*
D03*
X061804D02*
D03*
X061607D02*
D03*
X061410D02*
D03*
D56*
X058700Y024800D02*
D03*
Y026000D02*
D03*
D57*
X055600Y029454D02*
D03*
Y028746D02*
D03*
D58*
X056651Y029889D02*
D03*
Y029692D02*
D03*
Y029495D02*
D03*
Y029298D02*
D03*
Y029102D02*
D03*
Y028905D02*
D03*
Y028708D02*
D03*
Y028511D02*
D03*
X057749Y029889D02*
D03*
Y029692D02*
D03*
Y029495D02*
D03*
Y029298D02*
D03*
Y029102D02*
D03*
Y028905D02*
D03*
Y028708D02*
D03*
Y028511D02*
D03*
D59*
X057200Y029200D02*
D03*
D60*
X062515Y030000D02*
D03*
X061885D02*
D03*
D61*
X063915Y029962D02*
D03*
X063206D02*
D03*
D62*
X054700Y033145D02*
D03*
X065700D02*
D03*
X060200D02*
D03*
D63*
X053200Y037161D02*
D03*
X053700D02*
D03*
X054200D02*
D03*
X055200D02*
D03*
X055700D02*
D03*
X056200D02*
D03*
X064200D02*
D03*
X064700D02*
D03*
X065200D02*
D03*
X066200D02*
D03*
X066700D02*
D03*
X067200D02*
D03*
X058700D02*
D03*
X059200D02*
D03*
X059700D02*
D03*
X060700D02*
D03*
X061200D02*
D03*
X061700D02*
D03*
D64*
X065100Y025624D02*
D03*
Y026176D02*
D03*
Y026824D02*
D03*
Y027376D02*
D03*
Y028024D02*
D03*
Y028576D02*
D03*
D65*
X054397Y037150D02*
D03*
X065397D02*
D03*
D66*
X053200Y025080D02*
D03*
Y024290D02*
D03*
Y023500D02*
D03*
Y022713D02*
D03*
Y021925D02*
D03*
X067200Y025525D02*
D03*
Y029462D02*
D03*
Y028675D02*
D03*
Y027887D02*
D03*
Y027097D02*
D03*
Y026307D02*
D03*
Y024738D02*
D03*
D67*
X067800Y023000D02*
D03*
X066800D02*
D03*
X065800D02*
D03*
X064800D02*
D03*
X063800D02*
D03*
X062800D02*
D03*
X061800D02*
D03*
X060800D02*
D03*
X059800D02*
D03*
X058800D02*
D03*
X057800D02*
D03*
X056800D02*
D03*
X055800D02*
D03*
X054800D02*
D03*
Y022000D02*
D03*
Y021000D02*
D03*
Y020000D02*
D03*
Y019000D02*
D03*
Y018000D02*
D03*
Y017000D02*
D03*
X055800D02*
D03*
X056800D02*
D03*
X057800D02*
D03*
X058800D02*
D03*
X059800D02*
D03*
X060800D02*
D03*
X061800D02*
D03*
X062800D02*
D03*
X063800D02*
D03*
X064800D02*
D03*
X065800D02*
D03*
X066800D02*
D03*
X067800D02*
D03*
X066800Y018000D02*
D03*
X064800D02*
D03*
X063800D02*
D03*
X062800D02*
D03*
D68*
X052800Y015000D02*
D03*
X067600D02*
D03*
D69*
X052350Y024200D02*
D03*
X064550Y029050D02*
D03*
X066850Y021150D02*
D03*
X055000Y023900D02*
D03*
X052400Y021150D02*
D03*
X055950Y018400D02*
D03*
X065450Y024270D02*
D03*
X061356Y029923D02*
D03*
X055550Y028450D02*
D03*
X068100D02*
D03*
X057650Y038800D02*
D03*
X062450Y039900D02*
D03*
X061719Y039900D02*
D03*
X058050D02*
D03*
X052450Y038850D02*
D03*
X053300Y039500D02*
D03*
X052400Y038250D02*
D03*
X054000Y025200D02*
D03*
X055400Y017600D02*
D03*
X058900Y037500D02*
D03*
X059600D02*
D03*
X060300D02*
D03*
X061000D02*
D03*
X063850Y029700D02*
D03*
X065300Y022400D02*
D03*
X063100Y021200D02*
D03*
X058000Y026800D02*
D03*
X058800Y024300D02*
D03*
X060100Y028600D02*
D03*
Y030000D02*
D03*
Y029300D02*
D03*
X056165Y029854D02*
D03*
X057100Y030400D02*
D03*
X055700Y027000D02*
D03*
X057900Y030500D02*
D03*
X055612Y020600D02*
D03*
X057300Y019800D02*
D03*
X056900Y020600D02*
D03*
X056500Y021200D02*
D03*
X064200Y018700D02*
D03*
X055400Y019500D02*
D03*
X059200Y021200D02*
D03*
X056000Y019500D02*
D03*
X058276Y022459D02*
D03*
X060600Y022200D02*
D03*
X059500Y019800D02*
D03*
X061200Y019100D02*
D03*
X053100Y029600D02*
D03*
X053800D02*
D03*
Y029000D02*
D03*
X053100D02*
D03*
Y028400D02*
D03*
X053800D02*
D03*
X054000Y039500D02*
D03*
X054700D02*
D03*
X055400D02*
D03*
X066500D02*
D03*
X065800D02*
D03*
X065100D02*
D03*
X064400D02*
D03*
X055400Y037500D02*
D03*
X054700D02*
D03*
X054000D02*
D03*
X053300D02*
D03*
X066500D02*
D03*
X065800D02*
D03*
X065100D02*
D03*
X064400D02*
D03*
D70*
X063700Y030950D02*
D03*
X065700Y027750D02*
D03*
X062300Y030500D02*
D03*
X066450Y026100D02*
D03*
X053200Y020850D02*
D03*
X053691Y020200D02*
D03*
X059300Y026600D02*
D03*
X065628Y026422D02*
D03*
X051900Y016350D02*
D03*
X054250Y016561D02*
D03*
X052050Y039800D02*
D03*
X052529Y039371D02*
D03*
X065550Y029850D02*
D03*
X065350Y029100D02*
D03*
X063050Y031150D02*
D03*
X065500Y025050D02*
D03*
X057700Y031200D02*
D03*
X058817Y025583D02*
D03*
X057300Y028300D02*
D03*
X058100Y027700D02*
D03*
X057300D02*
D03*
X059400Y027200D02*
D03*
X059900D02*
D03*
X057834Y025850D02*
D03*
X058200Y024000D02*
D03*
X060800Y024800D02*
D03*
X061700Y029300D02*
D03*
X058494Y027445D02*
D03*
X056600Y027700D02*
D03*
X058900Y027200D02*
D03*
X053691Y019100D02*
D03*
Y018000D02*
D03*
Y016900D02*
D03*
D71*
X061673Y027827D02*
D03*
X061909D02*
D03*
X062146D02*
D03*
X062382D02*
D03*
X062618D02*
D03*
X062854D02*
D03*
X063091D02*
D03*
X063327D02*
D03*
Y027591D02*
D03*
X063091D02*
D03*
X062854D02*
D03*
X062618D02*
D03*
X062382D02*
D03*
X062146D02*
D03*
X061909D02*
D03*
X061673D02*
D03*
X063327Y027354D02*
D03*
X063091D02*
D03*
X062854D02*
D03*
X062618D02*
D03*
X062382D02*
D03*
X062146D02*
D03*
X061909D02*
D03*
X061673D02*
D03*
X063327Y027118D02*
D03*
X063091D02*
D03*
X062854D02*
D03*
X062618D02*
D03*
X062382D02*
D03*
X062146D02*
D03*
X061909D02*
D03*
X061673D02*
D03*
X063327Y026882D02*
D03*
X063091D02*
D03*
X062854D02*
D03*
X062618D02*
D03*
X062382D02*
D03*
X062146D02*
D03*
X061909D02*
D03*
X061673D02*
D03*
X063327Y026646D02*
D03*
X063091D02*
D03*
X062854D02*
D03*
X062618D02*
D03*
X062382D02*
D03*
X062146D02*
D03*
X061909D02*
D03*
X061673D02*
D03*
X063327Y026409D02*
D03*
X063091D02*
D03*
X062854D02*
D03*
X062618D02*
D03*
X062382D02*
D03*
X062146D02*
D03*
X061909D02*
D03*
X061673D02*
D03*
X063327Y026173D02*
D03*
X063091D02*
D03*
X062854D02*
D03*
X062618D02*
D03*
X062382D02*
D03*
X062146D02*
D03*
X061909D02*
D03*
X061673D02*
D03*
M02*
