G04 Layer_Physical_Order=2*
G04 Layer_Color=16711680*
%FSAX24Y24*%
%MOIN*%
G70*
G01*
G75*
%ADD10R,0.0177X0.0217*%
%ADD19R,0.0205X0.0205*%
%ADD21R,0.0413X0.1634*%
%ADD22R,0.4173X0.3465*%
%ADD25R,0.0532X0.0748*%
%ADD32R,0.0205X0.0205*%
%ADD36C,0.0100*%
%ADD37C,0.0600*%
%ADD38C,0.0200*%
%ADD39C,0.0400*%
%ADD40C,0.0630*%
%ADD41C,0.1575*%
%ADD42C,0.0500*%
%ADD43C,0.0400*%
%ADD44C,0.0300*%
%ADD45C,0.0157*%
%ADD46R,0.0610X0.0236*%
%ADD47R,0.0906X0.0906*%
%ADD48R,0.0327X0.0248*%
%ADD49R,0.0354X0.0394*%
%ADD50R,0.2906X0.0961*%
%ADD51R,0.0512X0.0925*%
%ADD52R,0.1063X0.0394*%
%ADD53R,0.1063X0.1299*%
%ADD54R,0.0470X0.0220*%
%ADD55O,0.0098X0.0610*%
%ADD56O,0.0610X0.0098*%
%ADD57R,0.0217X0.0256*%
%ADD58O,0.0177X0.0630*%
%ADD59R,0.3000X0.2700*%
G36*
X051775Y026911D02*
X052305Y026381D01*
X052290Y026325D01*
X052221Y026279D01*
X052166Y026197D01*
X052147Y026100D01*
X052166Y026003D01*
X052212Y025934D01*
X052218Y025900D01*
X052212Y025866D01*
X052166Y025797D01*
X052147Y025700D01*
X052166Y025603D01*
X052212Y025534D01*
X052218Y025500D01*
X052212Y025466D01*
X052166Y025397D01*
X052147Y025300D01*
X052166Y025203D01*
X052221Y025121D01*
X052303Y025066D01*
X052400Y025047D01*
X052497Y025066D01*
X052579Y025121D01*
X052634Y025203D01*
X052653Y025300D01*
X052647Y025333D01*
X052704Y025390D01*
X055059D01*
X055059Y025390D01*
X055117Y025401D01*
X055166Y025434D01*
X055701Y025969D01*
X056188D01*
X056220Y025930D01*
X056218Y025924D01*
X056222Y025906D01*
X056181Y025856D01*
X056057D01*
X056051Y025861D01*
X055978Y025891D01*
X055900Y025901D01*
X055822Y025891D01*
X055750Y025861D01*
X055687Y025813D01*
X055639Y025751D01*
X055609Y025678D01*
X055599Y025600D01*
X055609Y025522D01*
X055639Y025450D01*
X055687Y025387D01*
X055750Y025339D01*
X055822Y025309D01*
X055900Y025299D01*
X055978Y025309D01*
X056051Y025339D01*
X056113Y025387D01*
X056161Y025450D01*
X056191Y025522D01*
X056195Y025553D01*
X057148D01*
X057172Y025524D01*
X057172Y025524D01*
Y025225D01*
Y024419D01*
X057172Y024419D01*
X057184Y024361D01*
X057217Y024312D01*
X057342Y024187D01*
Y023999D01*
X057342D01*
X057337Y023951D01*
X054504D01*
Y024426D01*
X054111D01*
Y024428D01*
X054003D01*
Y024200D01*
X053903D01*
Y024100D01*
X053695D01*
Y024029D01*
X053621Y023979D01*
X053566Y023897D01*
X053547Y023800D01*
X053566Y023703D01*
X053621Y023621D01*
X053703Y023566D01*
X053800Y023547D01*
X053897Y023566D01*
X053908Y023574D01*
X054504D01*
Y023649D01*
X058037D01*
X058037Y023649D01*
X058071Y023655D01*
X058095Y023610D01*
X058095Y023609D01*
X057837Y023351D01*
X057264D01*
Y023407D01*
X056536D01*
Y023351D01*
X056451D01*
X056422Y023371D01*
X056325Y023390D01*
X056228Y023371D01*
X056146Y023316D01*
X056091Y023234D01*
X056072Y023137D01*
X056091Y023040D01*
X056146Y022958D01*
X056228Y022903D01*
X056325Y022884D01*
X056422Y022903D01*
X056484Y022944D01*
X056534Y022920D01*
Y022900D01*
X056723D01*
Y022800D01*
X056823D01*
Y022592D01*
X056911D01*
Y022593D01*
X057264D01*
Y023007D01*
X057264Y023007D01*
X057264D01*
X057264Y023007D01*
X057284Y023049D01*
X057900D01*
X057900Y023049D01*
X057958Y023060D01*
X058007Y023093D01*
X058286Y023372D01*
X058333Y023349D01*
Y022933D01*
X058703D01*
X058728Y022883D01*
X058716Y022867D01*
X058333D01*
Y022830D01*
X058293Y022801D01*
X058235Y022790D01*
X058187Y022758D01*
X057999D01*
Y022445D01*
X057998D01*
Y022343D01*
X058200D01*
Y022243D01*
X058300D01*
Y022040D01*
X058332D01*
Y021932D01*
X058637D01*
Y022150D01*
Y022368D01*
X058402D01*
Y022433D01*
X059141D01*
Y022749D01*
X060459D01*
Y022433D01*
X061135D01*
X061148Y022417D01*
X061123Y022367D01*
X060459D01*
Y021933D01*
X060929D01*
X060941Y021917D01*
X060916Y021867D01*
X060459D01*
Y021433D01*
X061267D01*
Y021554D01*
X061313Y021573D01*
X061593Y021293D01*
X061593Y021293D01*
X061642Y021260D01*
X061700Y021249D01*
X062194D01*
X062194Y021249D01*
X062252Y021260D01*
X062301Y021293D01*
X062529Y021521D01*
X062586Y021497D01*
X062694Y021483D01*
X062802Y021497D01*
X062859Y021521D01*
X063087Y021293D01*
X063087Y021293D01*
X063136Y021260D01*
X063194Y021249D01*
X063194Y021249D01*
X064894D01*
X064894Y021249D01*
X064952Y021260D01*
X065001Y021293D01*
X065229Y021521D01*
X065286Y021497D01*
X065394Y021483D01*
X065502Y021497D01*
X065602Y021539D01*
X065689Y021605D01*
X065755Y021692D01*
X065796Y021792D01*
X065811Y021900D01*
X065796Y022008D01*
X065755Y022109D01*
X065689Y022195D01*
X065602Y022261D01*
X065502Y022303D01*
X065394Y022317D01*
X065286Y022303D01*
X065185Y022261D01*
X065099Y022195D01*
X065033Y022109D01*
X065025Y022090D01*
X064975D01*
X064967Y022109D01*
X064901Y022195D01*
X064815Y022261D01*
X064714Y022303D01*
X064606Y022317D01*
X064498Y022303D01*
X064441Y022279D01*
X064213Y022507D01*
X064164Y022540D01*
X064106Y022551D01*
X064106Y022551D01*
X062406D01*
X062406Y022551D01*
X062348Y022540D01*
X062299Y022507D01*
X062299Y022507D01*
X062071Y022279D01*
X062014Y022303D01*
X061906Y022317D01*
X061798Y022303D01*
X061741Y022279D01*
X061318Y022702D01*
X061337Y022749D01*
X061502D01*
X061521Y022721D01*
X061603Y022666D01*
X061700Y022647D01*
X061797Y022666D01*
X061879Y022721D01*
X061898Y022749D01*
X064356D01*
X064356Y022749D01*
X064414Y022760D01*
X064463Y022793D01*
X065291Y023621D01*
X065348Y023597D01*
X065456Y023583D01*
X065564Y023597D01*
X065664Y023639D01*
X065751Y023705D01*
X065817Y023791D01*
X065841Y023849D01*
X066060D01*
X066436Y023473D01*
Y023293D01*
X066472D01*
Y023007D01*
X066436D01*
Y022593D01*
X067164D01*
Y022655D01*
X067315D01*
X067339Y022598D01*
X067405Y022511D01*
X067491Y022445D01*
X067508Y022438D01*
Y022388D01*
X067491Y022381D01*
X067404Y022315D01*
X067337Y022228D01*
X067296Y022127D01*
X067295Y022119D01*
X067700D01*
X068105D01*
X068104Y022127D01*
X068063Y022228D01*
X067996Y022315D01*
X067909Y022381D01*
X067892Y022388D01*
Y022438D01*
X067909Y022445D01*
X067995Y022511D01*
X068061Y022598D01*
X068103Y022698D01*
X068117Y022806D01*
X068103Y022914D01*
X068061Y023015D01*
X067995Y023101D01*
X067909Y023167D01*
X067890Y023175D01*
Y023225D01*
X067909Y023233D01*
X067995Y023299D01*
X068061Y023385D01*
X068103Y023486D01*
X068117Y023594D01*
X068103Y023702D01*
X068061Y023802D01*
X067995Y023889D01*
X067909Y023955D01*
X067887Y023964D01*
Y024014D01*
X067909Y024023D01*
X067995Y024089D01*
X068061Y024175D01*
X068103Y024276D01*
X068117Y024384D01*
X068103Y024492D01*
X068061Y024592D01*
X067995Y024679D01*
X067909Y024745D01*
X067808Y024786D01*
X067700Y024801D01*
X067592Y024786D01*
X067491Y024745D01*
X067405Y024679D01*
X067339Y024592D01*
X067297Y024492D01*
X067283Y024384D01*
X067297Y024276D01*
X067321Y024219D01*
X067254Y024151D01*
X066123D01*
X066123Y024151D01*
X066123Y024151D01*
X065841D01*
X065817Y024209D01*
X065751Y024295D01*
X065664Y024361D01*
X065564Y024403D01*
X065456Y024417D01*
X065348Y024403D01*
X065291Y024379D01*
X064786Y024884D01*
X064805Y024931D01*
X068632D01*
X068632Y024931D01*
X068690Y024942D01*
X068739Y024975D01*
X069139Y025375D01*
X069173Y025366D01*
X069189Y025356D01*
Y019746D01*
X068754Y019311D01*
X067246D01*
X066811Y019746D01*
Y020200D01*
X066803Y020243D01*
X066779Y020279D01*
X066479Y020579D01*
X066443Y020603D01*
X066400Y020611D01*
X066400Y020611D01*
X054500D01*
X054457Y020603D01*
X054421Y020579D01*
X054121Y020279D01*
X054097Y020243D01*
X054089Y020200D01*
X054089Y020200D01*
Y019746D01*
X053654Y019311D01*
X052146D01*
X051711Y019746D01*
Y026916D01*
X051761Y026932D01*
X051775Y026911D01*
D02*
G37*
G36*
X061941Y028539D02*
X061991D01*
Y028278D01*
X061972Y028265D01*
X061941Y028256D01*
X061877Y028306D01*
X061800Y028337D01*
Y028000D01*
Y027623D01*
X061807Y027617D01*
X061809Y027613D01*
Y027107D01*
X061802Y027060D01*
X061700D01*
Y026857D01*
X061500D01*
Y027060D01*
X061424D01*
X061381Y027103D01*
X061382Y027105D01*
X061370Y027162D01*
X061343Y027203D01*
X061370Y027244D01*
X061382Y027302D01*
X061370Y027359D01*
X061343Y027400D01*
X061370Y027441D01*
X061382Y027498D01*
X061370Y027556D01*
X061343Y027597D01*
X061370Y027638D01*
X061382Y027695D01*
X061370Y027753D01*
X061369Y027755D01*
X061375Y027767D01*
X061435Y027771D01*
X061450Y027750D01*
X061523Y027694D01*
X061600Y027663D01*
Y028000D01*
Y028337D01*
X061523Y028306D01*
X061450Y028250D01*
X061406Y028191D01*
X061365Y028221D01*
X061370Y028228D01*
X061382Y028286D01*
X061370Y028343D01*
X061343Y028384D01*
X061370Y028425D01*
X061382Y028483D01*
X061370Y028540D01*
X061343Y028581D01*
X061370Y028622D01*
X061382Y028680D01*
X061380Y028686D01*
X061412Y028725D01*
X061941D01*
Y028539D01*
D02*
G37*
G36*
X060579Y027447D02*
X060580Y027441D01*
X060607Y027400D01*
X060580Y027359D01*
X060569Y027302D01*
X060580Y027244D01*
X060607Y027203D01*
X060580Y027162D01*
X060569Y027105D01*
X060580Y027047D01*
X060608Y027006D01*
X060580Y026965D01*
X060569Y026908D01*
X060580Y026850D01*
X060607Y026811D01*
X060607Y026811D01*
X060613Y026801D01*
X060662Y026769D01*
X060719Y026757D01*
X060975D01*
Y026666D01*
X060692D01*
X060634Y026654D01*
X060595Y026628D01*
X060595Y026628D01*
X060585Y026621D01*
X060585Y026621D01*
X059998Y026034D01*
X059997Y026034D01*
X059900Y026053D01*
X059803Y026034D01*
X059721Y025979D01*
X059666Y025897D01*
X059658Y025856D01*
X059367D01*
X059364Y025906D01*
X059378Y025908D01*
X059451Y025938D01*
X059514Y025986D01*
X059562Y026049D01*
X059583Y026100D01*
X059017D01*
X059038Y026049D01*
X059086Y025986D01*
X059149Y025938D01*
X059222Y025908D01*
X059236Y025906D01*
X059233Y025856D01*
X057654D01*
X057629Y025906D01*
X057662Y025949D01*
X057683Y026000D01*
X057400D01*
Y026200D01*
X057683D01*
X057662Y026251D01*
X057624Y026301D01*
X057634Y026344D01*
X057642Y026355D01*
X057697Y026366D01*
X057779Y026421D01*
X057809Y026465D01*
X057856Y026446D01*
X057847Y026400D01*
X057866Y026303D01*
X057921Y026221D01*
X058003Y026166D01*
X058100Y026147D01*
X058197Y026166D01*
X058266Y026212D01*
X058300Y026218D01*
X058334Y026212D01*
X058403Y026166D01*
X058500Y026147D01*
X058597Y026166D01*
X058679Y026221D01*
X058734Y026303D01*
X058753Y026400D01*
X058734Y026497D01*
X058679Y026579D01*
X058651Y026598D01*
Y027135D01*
X058701Y027150D01*
X058721Y027121D01*
X058803Y027066D01*
X058900Y027047D01*
X058997Y027066D01*
X059079Y027121D01*
X059134Y027203D01*
X059153Y027300D01*
X059147Y027333D01*
X059263Y027449D01*
X059654D01*
X059674Y027399D01*
X059638Y027351D01*
X059617Y027300D01*
X060183D01*
X060162Y027351D01*
X060126Y027399D01*
X060146Y027449D01*
X060466D01*
X060466Y027449D01*
X060524Y027460D01*
X060533Y027466D01*
X060579Y027447D01*
D02*
G37*
G36*
X064187Y029787D02*
X064228Y029756D01*
X064232Y029696D01*
X064216Y029684D01*
X064152Y029601D01*
X064112Y029504D01*
X064098Y029400D01*
X064112Y029296D01*
X064152Y029199D01*
X064216Y029116D01*
X064916Y028416D01*
X064999Y028352D01*
X065096Y028312D01*
X065200Y028298D01*
X065603D01*
Y026751D01*
X065563D01*
Y025751D01*
X065391D01*
Y026290D01*
X064949D01*
X064937Y026299D01*
X064852Y026334D01*
X064761Y026346D01*
X064670Y026334D01*
X064586Y026299D01*
X064574Y026290D01*
X064131D01*
Y025751D01*
X063801D01*
X063068Y026484D01*
Y026749D01*
X064131D01*
Y026605D01*
X065391D01*
Y027195D01*
X064131D01*
Y027051D01*
X063068D01*
Y027648D01*
X062294D01*
Y027798D01*
X062357D01*
Y028000D01*
Y028202D01*
X062294D01*
Y028539D01*
X062650D01*
Y029661D01*
X062386D01*
X062378Y029709D01*
X062450Y029739D01*
X062513Y029787D01*
X062522Y029799D01*
X062936D01*
Y029793D01*
X063184D01*
X063190Y029743D01*
X063203Y029712D01*
X063170Y029662D01*
X063141D01*
Y029200D01*
X063496D01*
X063852D01*
Y029662D01*
X063792D01*
X063759Y029712D01*
X063772Y029743D01*
X063779Y029799D01*
X064178D01*
X064187Y029787D01*
D02*
G37*
G36*
X060599Y029342D02*
X060787D01*
X060824Y029305D01*
Y029027D01*
X060719D01*
X060662Y029015D01*
X060629Y028994D01*
X060579Y028979D01*
X060497Y029034D01*
X060400Y029053D01*
X060303Y029034D01*
X060221Y028979D01*
X060166Y028897D01*
X060147Y028800D01*
X060166Y028703D01*
X060174Y028691D01*
X060144Y028646D01*
X060100Y028655D01*
X060081Y028651D01*
X060034Y028693D01*
Y029137D01*
X060073Y029169D01*
X060080Y029167D01*
X060138Y029179D01*
X060179Y029207D01*
X060219Y029180D01*
X060276Y029169D01*
X060334Y029180D01*
X060383Y029213D01*
X060415Y029262D01*
X060427Y029319D01*
Y029391D01*
X060599D01*
Y029342D01*
D02*
G37*
G36*
X069189Y039654D02*
Y036396D01*
X069139Y036379D01*
X069113Y036413D01*
X069050Y036461D01*
X068978Y036491D01*
X068900Y036501D01*
X068888Y036499D01*
X068862Y036546D01*
Y036983D01*
X068675D01*
X068650Y037033D01*
X068662Y037049D01*
X068683Y037100D01*
X068117D01*
X068138Y037049D01*
X068186Y036986D01*
X068249Y036938D01*
X068322Y036908D01*
X068312Y036860D01*
X068300D01*
Y036657D01*
X068200D01*
Y036557D01*
X067998D01*
Y036455D01*
X067999D01*
Y036292D01*
X064380D01*
X064376Y036295D01*
X064291Y036330D01*
X064200Y036342D01*
X064109Y036330D01*
X064024Y036295D01*
X063952Y036239D01*
X063896Y036167D01*
X063861Y036082D01*
X063849Y035991D01*
X063861Y035900D01*
X063896Y035815D01*
X063945Y035750D01*
X063932Y035700D01*
X063900D01*
X063862Y035693D01*
X063829Y035671D01*
X063807Y035638D01*
X063800Y035600D01*
Y033080D01*
X063753Y033061D01*
X063207Y033607D01*
X063158Y033640D01*
X063100Y033651D01*
X063100Y033651D01*
X062232D01*
X062232Y033651D01*
X062174Y033640D01*
X062125Y033607D01*
X061793Y033275D01*
X061760Y033226D01*
X061749Y033168D01*
X061749Y033168D01*
Y032863D01*
X061537Y032651D01*
X058000D01*
X057875Y032777D01*
Y033080D01*
X057860Y033153D01*
X057819Y033215D01*
X057757Y033256D01*
X057684Y033271D01*
X057611Y033256D01*
X057556Y033219D01*
X057501Y033256D01*
X057428Y033271D01*
X057355Y033256D01*
X057300Y033219D01*
X057245Y033256D01*
X057172Y033271D01*
X057099Y033256D01*
X057046Y033220D01*
X056990Y033258D01*
X056916Y033272D01*
X056843Y033258D01*
X056780Y033216D01*
X056739Y033154D01*
X056724Y033080D01*
Y032803D01*
X056121Y032200D01*
X055067D01*
X055037Y032194D01*
X055013Y032178D01*
X054839Y032004D01*
X052847D01*
Y031826D01*
X052925Y031867D01*
X053095Y031919D01*
X053227Y031932D01*
X053271Y031932D01*
X055953D01*
Y032000D01*
X056172D01*
X056202Y032006D01*
X056226Y032022D01*
X056590Y032386D01*
X056640Y032365D01*
Y032300D01*
X056843D01*
Y032200D01*
X056943D01*
Y031998D01*
X057045D01*
Y031999D01*
X057358D01*
Y032389D01*
X057402Y032415D01*
X057595Y032223D01*
X057595Y032223D01*
X057644Y032190D01*
X057702Y032178D01*
X060442D01*
X060463Y032128D01*
X060339Y032004D01*
X058347D01*
Y031932D01*
X061453Y031932D01*
Y032000D01*
X061672D01*
X061702Y032006D01*
X061726Y032022D01*
X062090Y032386D01*
X062140Y032365D01*
Y032300D01*
X062343D01*
Y032200D01*
X062443D01*
Y031998D01*
X062545D01*
Y031999D01*
X062858D01*
Y032389D01*
X062902Y032415D01*
X063081Y032236D01*
X063081Y032236D01*
X063131Y032203D01*
X063189Y032192D01*
X063189Y032192D01*
X065979D01*
X066000Y032142D01*
X065862Y032004D01*
X063847D01*
Y031932D01*
X066671D01*
X066701Y031932D01*
X066789Y031923D01*
X066902Y031889D01*
X066953Y031862D01*
Y032000D01*
X067172D01*
X067202Y032006D01*
X067226Y032022D01*
X067590Y032386D01*
X067640Y032365D01*
Y032300D01*
X067843D01*
Y032100D01*
X067640D01*
Y031998D01*
X067817D01*
X067839Y031953D01*
X067838Y031951D01*
X067817Y031900D01*
X068100D01*
Y031700D01*
X067817D01*
X067838Y031649D01*
X067886Y031586D01*
X067940Y031544D01*
X067938Y031513D01*
X067929Y031492D01*
X067896Y031488D01*
X067799Y031448D01*
X067716Y031384D01*
X067652Y031301D01*
X067612Y031204D01*
X067598Y031100D01*
Y030172D01*
X067566D01*
Y029228D01*
X067598D01*
Y029000D01*
Y028300D01*
Y027981D01*
X067553Y027959D01*
X067551Y027961D01*
X067478Y027991D01*
X067400Y028001D01*
X067346Y027994D01*
X067336Y028001D01*
X067312Y028038D01*
X067337Y028100D01*
X067100D01*
Y027849D01*
X067126Y027819D01*
X067109Y027778D01*
X067099Y027700D01*
X067109Y027622D01*
X067126Y027581D01*
X067100Y027551D01*
Y027300D01*
X067337D01*
X067312Y027362D01*
X067336Y027399D01*
X067346Y027406D01*
X067400Y027399D01*
X067477Y027409D01*
X067662Y027224D01*
Y027041D01*
X068329D01*
X068335Y026994D01*
Y026753D01*
X067986D01*
Y026200D01*
X067886D01*
Y026100D01*
X067333D01*
Y025751D01*
X066665D01*
Y026751D01*
X066407D01*
Y028700D01*
X066393Y028804D01*
X066353Y028901D01*
X066338Y028920D01*
Y028959D01*
X066309D01*
X066289Y028984D01*
X066206Y029048D01*
X066109Y029088D01*
X066005Y029102D01*
X065440D01*
X065437Y029152D01*
X065491Y029159D01*
X065577Y029194D01*
X065650Y029250D01*
X065706Y029323D01*
X065737Y029400D01*
X065400D01*
Y029500D01*
X065300D01*
Y029837D01*
X065223Y029806D01*
X065150Y029750D01*
X065094Y029677D01*
X065059Y029591D01*
X065047Y029500D01*
X065049Y029487D01*
X065004Y029464D01*
X064784Y029684D01*
X064701Y029748D01*
X064659Y029765D01*
X064643Y029826D01*
X064661Y029850D01*
X064691Y029922D01*
X064701Y030000D01*
X064691Y030078D01*
X064661Y030150D01*
X064613Y030213D01*
X064550Y030261D01*
X064478Y030291D01*
X064400Y030301D01*
X064322Y030291D01*
X064250Y030261D01*
X064187Y030213D01*
X064178Y030201D01*
X063856D01*
X063732Y030324D01*
X063683Y030357D01*
X063625Y030369D01*
X063625Y030369D01*
X063340D01*
X063282Y030357D01*
X063233Y030324D01*
X063233Y030324D01*
X063116Y030207D01*
X062936D01*
Y030201D01*
X062522D01*
X062513Y030213D01*
X062450Y030261D01*
X062378Y030291D01*
X062300Y030301D01*
X062222Y030291D01*
X062150Y030261D01*
X062087Y030213D01*
X062039Y030150D01*
X062009Y030078D01*
X061999Y030000D01*
X062009Y029922D01*
X062039Y029850D01*
X062087Y029787D01*
X062150Y029739D01*
X062222Y029709D01*
X062214Y029661D01*
X061941D01*
Y029028D01*
X061127D01*
Y029255D01*
X061213Y029342D01*
X061401D01*
Y029655D01*
X061402D01*
Y029757D01*
X061200D01*
Y029857D01*
X061100D01*
Y030060D01*
X060900D01*
Y029857D01*
X060800D01*
Y029757D01*
X060598D01*
Y029694D01*
X060428D01*
Y029924D01*
X060416Y029982D01*
X060383Y030031D01*
X060383Y030031D01*
X060207Y030207D01*
X060158Y030240D01*
X060100Y030251D01*
X060100Y030251D01*
X057200D01*
X057200Y030251D01*
X057142Y030240D01*
X057093Y030207D01*
X057093Y030207D01*
X057033Y030147D01*
X057000Y030153D01*
X056903Y030134D01*
X056821Y030079D01*
X056766Y029997D01*
X056747Y029900D01*
X056766Y029803D01*
X056790Y029767D01*
X056763Y029717D01*
X056700D01*
Y029515D01*
X056600D01*
Y029415D01*
X056398D01*
Y029313D01*
X056399D01*
Y029027D01*
X056369D01*
X056311Y029015D01*
X056262Y028983D01*
X056252Y028968D01*
X056202Y028983D01*
Y029160D01*
X056100D01*
Y028957D01*
X056000D01*
Y028857D01*
X055798D01*
Y028755D01*
X055799D01*
Y028442D01*
X055825D01*
X055840Y028392D01*
X055821Y028379D01*
X055766Y028297D01*
X055747Y028200D01*
X055750Y028186D01*
X055714Y028150D01*
X055700Y028153D01*
X055603Y028134D01*
X055521Y028079D01*
X055466Y027997D01*
X055447Y027900D01*
X055466Y027803D01*
X055521Y027721D01*
X055603Y027666D01*
X055700Y027647D01*
X055769Y027661D01*
X055794Y027614D01*
X054667Y026488D01*
X054550D01*
X054533Y026538D01*
X054550Y026550D01*
X054606Y026623D01*
X054637Y026700D01*
X053963D01*
X053994Y026623D01*
X054050Y026550D01*
X054067Y026538D01*
X054050Y026488D01*
X053076D01*
X052369Y027194D01*
Y034861D01*
X052397Y034866D01*
X052479Y034921D01*
X052534Y035003D01*
X052553Y035100D01*
X052534Y035197D01*
X052479Y035279D01*
X052397Y035334D01*
X052300Y035353D01*
X052242Y035342D01*
X052192Y035382D01*
Y035449D01*
X052279Y035466D01*
X052361Y035521D01*
X052416Y035603D01*
X052435Y035700D01*
X052416Y035797D01*
X052361Y035879D01*
X052279Y035934D01*
X052182Y035953D01*
X052085Y035934D01*
X052077Y035929D01*
X052033Y035952D01*
Y036053D01*
X052097Y036066D01*
X052179Y036121D01*
X052234Y036203D01*
X052253Y036300D01*
X052234Y036397D01*
X052179Y036479D01*
X052097Y036534D01*
X052000Y036553D01*
X051903Y036534D01*
X051821Y036479D01*
X051766Y036397D01*
X051761Y036373D01*
X051711Y036378D01*
Y039400D01*
Y040054D01*
X052646Y040989D01*
X067854D01*
X069189Y039654D01*
D02*
G37*
G36*
X060200Y028166D02*
X060207Y028171D01*
X060266Y028156D01*
X060279Y028130D01*
X060270Y028112D01*
X060221Y028079D01*
X060166Y027997D01*
X060147Y027900D01*
X060166Y027803D01*
X060171Y027795D01*
X060148Y027751D01*
X059261D01*
X059240Y027801D01*
X059802Y028363D01*
X059856Y028346D01*
X059865Y028302D01*
X059920Y028220D01*
X060000Y028166D01*
Y028400D01*
X060200D01*
Y028166D01*
D02*
G37*
%LPC*%
G36*
X059400Y026483D02*
Y026300D01*
X059583D01*
X059562Y026351D01*
X059514Y026414D01*
X059451Y026462D01*
X059400Y026483D01*
D02*
G37*
G36*
X066900Y027100D02*
X066663D01*
X066694Y027023D01*
X066750Y026950D01*
X066823Y026894D01*
X066900Y026863D01*
Y027100D01*
D02*
G37*
G36*
X056600Y024800D02*
X056363D01*
X056394Y024723D01*
X056450Y024650D01*
X056523Y024594D01*
X056600Y024563D01*
Y024800D01*
D02*
G37*
G36*
X057037D02*
X056800D01*
Y024563D01*
X056877Y024594D01*
X056950Y024650D01*
X057006Y024723D01*
X057037Y024800D01*
D02*
G37*
G36*
X056600Y025237D02*
X056523Y025206D01*
X056450Y025150D01*
X056394Y025077D01*
X056363Y025000D01*
X056600D01*
Y025237D01*
D02*
G37*
G36*
X056800D02*
Y025000D01*
X057037D01*
X057006Y025077D01*
X056950Y025150D01*
X056877Y025206D01*
X056800Y025237D01*
D02*
G37*
G36*
X059200Y026483D02*
X059149Y026462D01*
X059086Y026414D01*
X059038Y026351D01*
X059017Y026300D01*
X059200D01*
Y026483D01*
D02*
G37*
G36*
X067786Y026753D02*
X067333D01*
Y026300D01*
X067786D01*
Y026753D01*
D02*
G37*
G36*
X067337Y027100D02*
X067100D01*
Y026863D01*
X067177Y026894D01*
X067250Y026950D01*
X067306Y027023D01*
X067337Y027100D01*
D02*
G37*
G36*
X065393Y027706D02*
X064861D01*
Y027509D01*
X065393D01*
Y027706D01*
D02*
G37*
G36*
X064661D02*
X064130D01*
Y027509D01*
X064661D01*
Y027706D01*
D02*
G37*
G36*
X062660Y027900D02*
X062557D01*
Y027798D01*
X062660D01*
Y027900D01*
D02*
G37*
G36*
X063500Y028137D02*
X063423Y028106D01*
X063350Y028050D01*
X063294Y027977D01*
X063263Y027900D01*
X063500D01*
Y028137D01*
D02*
G37*
G36*
X066900Y028100D02*
X066663D01*
X066694Y028023D01*
X066750Y027950D01*
X066823Y027894D01*
X066900Y027863D01*
Y028100D01*
D02*
G37*
G36*
X060183Y027100D02*
X060000D01*
Y026917D01*
X060051Y026938D01*
X060114Y026986D01*
X060162Y027049D01*
X060183Y027100D01*
D02*
G37*
G36*
X059800D02*
X059617D01*
X059638Y027049D01*
X059686Y026986D01*
X059749Y026938D01*
X059800Y026917D01*
Y027100D01*
D02*
G37*
G36*
X066900Y027537D02*
X066823Y027506D01*
X066750Y027450D01*
X066694Y027377D01*
X066663Y027300D01*
X066900D01*
Y027537D01*
D02*
G37*
G36*
X063937Y027700D02*
X063700D01*
Y027463D01*
X063777Y027494D01*
X063850Y027550D01*
X063906Y027623D01*
X063937Y027700D01*
D02*
G37*
G36*
X063500D02*
X063263D01*
X063294Y027623D01*
X063350Y027550D01*
X063423Y027494D01*
X063500Y027463D01*
Y027700D01*
D02*
G37*
G36*
X068105Y021919D02*
X067800D01*
Y021613D01*
X067808Y021615D01*
X067909Y021656D01*
X067996Y021723D01*
X068063Y021810D01*
X068104Y021911D01*
X068105Y021919D01*
D02*
G37*
G36*
X067600D02*
X067295D01*
X067296Y021911D01*
X067337Y021810D01*
X067404Y021723D01*
X067491Y021656D01*
X067592Y021615D01*
X067600Y021613D01*
Y021919D01*
D02*
G37*
G36*
X059142Y022050D02*
X058837D01*
Y021932D01*
X058870D01*
X058895Y021882D01*
X058883Y021867D01*
X058333D01*
Y021433D01*
X059141D01*
Y021455D01*
X059197Y021466D01*
X059279Y021521D01*
X059334Y021603D01*
X059353Y021700D01*
X059334Y021797D01*
X059279Y021879D01*
X059197Y021934D01*
X059142Y021945D01*
Y022050D01*
D02*
G37*
G36*
X056623Y022700D02*
X056534D01*
Y022592D01*
X056623D01*
Y022700D01*
D02*
G37*
G36*
X059142Y022368D02*
X058837D01*
Y022250D01*
X059142D01*
Y022368D01*
D02*
G37*
G36*
X058100Y022143D02*
X057998D01*
Y022040D01*
X058100D01*
Y022143D01*
D02*
G37*
G36*
X054200Y021100D02*
X053963D01*
X053994Y021023D01*
X054050Y020950D01*
X054123Y020894D01*
X054200Y020863D01*
Y021100D01*
D02*
G37*
G36*
X068000Y021190D02*
X067826Y021173D01*
X067659Y021122D01*
X067505Y021040D01*
X067371Y020929D01*
X067260Y020795D01*
X067178Y020641D01*
X067127Y020474D01*
X067110Y020300D01*
X067127Y020126D01*
X067178Y019959D01*
X067260Y019805D01*
X067371Y019671D01*
X067505Y019560D01*
X067659Y019478D01*
X067826Y019427D01*
X068000Y019410D01*
X068174Y019427D01*
X068341Y019478D01*
X068495Y019560D01*
X068629Y019671D01*
X068740Y019805D01*
X068822Y019959D01*
X068873Y020126D01*
X068890Y020300D01*
X068873Y020474D01*
X068822Y020641D01*
X068740Y020795D01*
X068629Y020929D01*
X068495Y021040D01*
X068341Y021122D01*
X068174Y021173D01*
X068000Y021190D01*
D02*
G37*
G36*
X052900D02*
X052726Y021173D01*
X052559Y021122D01*
X052405Y021040D01*
X052271Y020929D01*
X052160Y020795D01*
X052078Y020641D01*
X052027Y020474D01*
X052010Y020300D01*
X052027Y020126D01*
X052078Y019959D01*
X052160Y019805D01*
X052271Y019671D01*
X052405Y019560D01*
X052559Y019478D01*
X052726Y019427D01*
X052900Y019410D01*
X053074Y019427D01*
X053241Y019478D01*
X053395Y019560D01*
X053529Y019671D01*
X053640Y019805D01*
X053722Y019959D01*
X053773Y020126D01*
X053790Y020300D01*
X053773Y020474D01*
X053722Y020641D01*
X053640Y020795D01*
X053529Y020929D01*
X053395Y021040D01*
X053241Y021122D01*
X053074Y021173D01*
X052900Y021190D01*
D02*
G37*
G36*
X054400Y021537D02*
Y021300D01*
X054637D01*
X054606Y021377D01*
X054550Y021450D01*
X054477Y021506D01*
X054400Y021537D01*
D02*
G37*
G36*
X054200D02*
X054123Y021506D01*
X054050Y021450D01*
X053994Y021377D01*
X053963Y021300D01*
X054200D01*
Y021537D01*
D02*
G37*
G36*
X054637Y021100D02*
X054400D01*
Y020863D01*
X054477Y020894D01*
X054550Y020950D01*
X054606Y021023D01*
X054637Y021100D01*
D02*
G37*
G36*
X065400Y023000D02*
X065163D01*
X065194Y022923D01*
X065250Y022850D01*
X065323Y022794D01*
X065400Y022763D01*
Y023000D01*
D02*
G37*
G36*
X052300Y024137D02*
Y023900D01*
X052537D01*
X052506Y023977D01*
X052450Y024050D01*
X052377Y024106D01*
X052300Y024137D01*
D02*
G37*
G36*
X052100D02*
X052023Y024106D01*
X051950Y024050D01*
X051894Y023977D01*
X051863Y023900D01*
X052100D01*
Y024137D01*
D02*
G37*
G36*
X068937Y023900D02*
X068700D01*
Y023663D01*
X068777Y023694D01*
X068850Y023750D01*
X068906Y023823D01*
X068937Y023900D01*
D02*
G37*
G36*
X053803Y024428D02*
X053695D01*
Y024300D01*
X053803D01*
Y024428D01*
D02*
G37*
G36*
X068700Y024337D02*
Y024100D01*
X068937D01*
X068906Y024177D01*
X068850Y024250D01*
X068777Y024306D01*
X068700Y024337D01*
D02*
G37*
G36*
X068500D02*
X068423Y024306D01*
X068350Y024250D01*
X068294Y024177D01*
X068263Y024100D01*
X068500D01*
Y024337D01*
D02*
G37*
G36*
X065600Y023437D02*
Y023200D01*
X065837D01*
X065806Y023277D01*
X065750Y023350D01*
X065677Y023406D01*
X065600Y023437D01*
D02*
G37*
G36*
X065400D02*
X065323Y023406D01*
X065250Y023350D01*
X065194Y023277D01*
X065163Y023200D01*
X065400D01*
Y023437D01*
D02*
G37*
G36*
X065837Y023000D02*
X065600D01*
Y022763D01*
X065677Y022794D01*
X065750Y022850D01*
X065806Y022923D01*
X065837Y023000D01*
D02*
G37*
G36*
X068500Y023900D02*
X068263D01*
X068294Y023823D01*
X068350Y023750D01*
X068423Y023694D01*
X068500Y023663D01*
Y023900D01*
D02*
G37*
G36*
X052537Y023700D02*
X052300D01*
Y023463D01*
X052377Y023494D01*
X052450Y023550D01*
X052506Y023623D01*
X052537Y023700D01*
D02*
G37*
G36*
X052100D02*
X051863D01*
X051894Y023623D01*
X051950Y023550D01*
X052023Y023494D01*
X052100Y023463D01*
Y023700D01*
D02*
G37*
G36*
X068600Y039001D02*
X068522Y038991D01*
X068450Y038961D01*
X068387Y038913D01*
X068339Y038851D01*
X068309Y038778D01*
X068299Y038700D01*
X068309Y038622D01*
X068339Y038549D01*
X068387Y038487D01*
X068398Y038479D01*
Y037861D01*
X068338D01*
Y037494D01*
X068322Y037492D01*
X068249Y037462D01*
X068186Y037414D01*
X068138Y037351D01*
X068117Y037300D01*
X068683D01*
X068662Y037351D01*
X068650Y037367D01*
X068675Y037417D01*
X068862D01*
Y037861D01*
X068802D01*
Y038479D01*
X068813Y038487D01*
X068861Y038549D01*
X068891Y038622D01*
X068901Y038700D01*
X068891Y038778D01*
X068861Y038851D01*
X068813Y038913D01*
X068751Y038961D01*
X068678Y038991D01*
X068600Y039001D01*
D02*
G37*
G36*
X063100D02*
X063022Y038991D01*
X062950Y038961D01*
X062887Y038913D01*
X062839Y038851D01*
X062809Y038778D01*
X062799Y038700D01*
X062809Y038622D01*
X062839Y038549D01*
X062887Y038487D01*
X062898Y038479D01*
Y037861D01*
X062838D01*
Y037494D01*
X062822Y037492D01*
X062749Y037462D01*
X062686Y037414D01*
X062638Y037351D01*
X062617Y037300D01*
X063183D01*
X063162Y037351D01*
X063150Y037367D01*
X063175Y037417D01*
X063362D01*
Y037861D01*
X063302D01*
Y038479D01*
X063313Y038487D01*
X063361Y038549D01*
X063391Y038622D01*
X063401Y038700D01*
X063391Y038778D01*
X063361Y038851D01*
X063313Y038913D01*
X063250Y038961D01*
X063178Y038991D01*
X063100Y039001D01*
D02*
G37*
G36*
X052100Y038000D02*
X051863D01*
X051894Y037923D01*
X051950Y037850D01*
X052023Y037794D01*
X052100Y037763D01*
Y038000D01*
D02*
G37*
G36*
X056885Y040586D02*
X052515D01*
Y038347D01*
X052465Y038330D01*
X052450Y038350D01*
X052377Y038406D01*
X052300Y038437D01*
Y038100D01*
Y037763D01*
X052377Y037794D01*
X052450Y037850D01*
X052465Y037870D01*
X052515Y037853D01*
Y036924D01*
X056885D01*
Y040586D01*
D02*
G37*
G36*
X052100Y038437D02*
X052023Y038406D01*
X051950Y038350D01*
X051894Y038277D01*
X051863Y038200D01*
X052100D01*
Y038437D01*
D02*
G37*
G36*
X057600Y039001D02*
X057522Y038991D01*
X057449Y038961D01*
X057387Y038913D01*
X057339Y038851D01*
X057309Y038778D01*
X057299Y038700D01*
X057309Y038622D01*
X057339Y038549D01*
X057387Y038487D01*
X057398Y038479D01*
Y037861D01*
X057338D01*
Y037494D01*
X057322Y037492D01*
X057249Y037462D01*
X057186Y037414D01*
X057138Y037351D01*
X057117Y037300D01*
X057683D01*
X057662Y037351D01*
X057650Y037367D01*
X057675Y037417D01*
X057862D01*
Y037861D01*
X057802D01*
Y038479D01*
X057813Y038487D01*
X057861Y038549D01*
X057891Y038622D01*
X057901Y038700D01*
X057891Y038778D01*
X057861Y038851D01*
X057813Y038913D01*
X057751Y038961D01*
X057678Y038991D01*
X057600Y039001D01*
D02*
G37*
G36*
X062600Y036860D02*
X062498D01*
Y036757D01*
X062600D01*
Y036860D01*
D02*
G37*
G36*
X057100D02*
X056998D01*
Y036757D01*
X057100D01*
Y036860D01*
D02*
G37*
G36*
X068100D02*
X067998D01*
Y036757D01*
X068100D01*
Y036860D01*
D02*
G37*
G36*
X067885Y040586D02*
X063515D01*
Y036924D01*
X067885D01*
Y040586D01*
D02*
G37*
G36*
X062385D02*
X058015D01*
Y036924D01*
X062385D01*
Y040586D01*
D02*
G37*
G36*
X068300Y039600D02*
X068063D01*
X068094Y039523D01*
X068150Y039450D01*
X068223Y039394D01*
X068300Y039363D01*
Y039600D01*
D02*
G37*
G36*
X057300Y040537D02*
X057223Y040506D01*
X057150Y040450D01*
X057094Y040377D01*
X057063Y040300D01*
X057300D01*
Y040537D01*
D02*
G37*
G36*
X063237Y040100D02*
X063000D01*
Y039863D01*
X063077Y039894D01*
X063150Y039950D01*
X063206Y040023D01*
X063237Y040100D01*
D02*
G37*
G36*
X057500Y040537D02*
Y040300D01*
X057737D01*
X057706Y040377D01*
X057650Y040450D01*
X057577Y040506D01*
X057500Y040537D01*
D02*
G37*
G36*
X063000D02*
Y040300D01*
X063237D01*
X063206Y040377D01*
X063150Y040450D01*
X063077Y040506D01*
X063000Y040537D01*
D02*
G37*
G36*
X062800D02*
X062723Y040506D01*
X062650Y040450D01*
X062594Y040377D01*
X062563Y040300D01*
X062800D01*
Y040537D01*
D02*
G37*
G36*
Y040100D02*
X062563D01*
X062594Y040023D01*
X062650Y039950D01*
X062723Y039894D01*
X062800Y039863D01*
Y040100D01*
D02*
G37*
G36*
X068300Y040037D02*
X068223Y040006D01*
X068150Y039950D01*
X068094Y039877D01*
X068063Y039800D01*
X068300D01*
Y040037D01*
D02*
G37*
G36*
X068737Y039600D02*
X068500D01*
Y039363D01*
X068577Y039394D01*
X068650Y039450D01*
X068706Y039523D01*
X068737Y039600D01*
D02*
G37*
G36*
X068500Y040037D02*
Y039800D01*
X068737D01*
X068706Y039877D01*
X068650Y039950D01*
X068577Y040006D01*
X068500Y040037D01*
D02*
G37*
G36*
X057737Y040100D02*
X057500D01*
Y039863D01*
X057577Y039894D01*
X057650Y039950D01*
X057706Y040023D01*
X057737Y040100D01*
D02*
G37*
G36*
X057300D02*
X057063D01*
X057094Y040023D01*
X057150Y039950D01*
X057223Y039894D01*
X057300Y039863D01*
Y040100D01*
D02*
G37*
G36*
X063852Y029000D02*
X063596D01*
Y028537D01*
X063852D01*
Y029000D01*
D02*
G37*
G36*
X063396D02*
X063141D01*
Y028537D01*
X063396D01*
Y029000D01*
D02*
G37*
G36*
X055900Y029160D02*
X055798D01*
Y029057D01*
X055900D01*
Y029160D01*
D02*
G37*
G36*
X067337Y029400D02*
X067100D01*
Y029163D01*
X067177Y029194D01*
X067250Y029250D01*
X067306Y029323D01*
X067337Y029400D01*
D02*
G37*
G36*
X067036Y030174D02*
X066770D01*
Y029700D01*
Y029226D01*
X066782D01*
X066823Y029194D01*
X066900Y029163D01*
Y029500D01*
X067000D01*
Y029600D01*
X067337D01*
X067306Y029677D01*
X067250Y029750D01*
X067177Y029806D01*
X067091Y029841D01*
X067036Y029848D01*
Y030174D01*
D02*
G37*
G36*
X067100Y028537D02*
Y028300D01*
X067337D01*
X067306Y028377D01*
X067250Y028450D01*
X067177Y028506D01*
X067100Y028537D01*
D02*
G37*
G36*
X064661Y028102D02*
X064130D01*
Y027906D01*
X064661D01*
Y028102D01*
D02*
G37*
G36*
X063700Y028137D02*
Y027900D01*
X063937D01*
X063906Y027977D01*
X063850Y028050D01*
X063777Y028106D01*
X063700Y028137D01*
D02*
G37*
G36*
X065393Y028102D02*
X064861D01*
Y027906D01*
X065393D01*
Y028102D01*
D02*
G37*
G36*
X066900Y028537D02*
X066823Y028506D01*
X066750Y028450D01*
X066694Y028377D01*
X066663Y028300D01*
X066900D01*
Y028537D01*
D02*
G37*
G36*
X062660Y028202D02*
X062557D01*
Y028100D01*
X062660D01*
Y028202D01*
D02*
G37*
G36*
X066570Y029600D02*
X066304D01*
Y029226D01*
X066570D01*
Y029600D01*
D02*
G37*
G36*
X056743Y032100D02*
X056640D01*
Y031998D01*
X056743D01*
Y032100D01*
D02*
G37*
G36*
X066103Y030303D02*
X066055D01*
X066074Y030274D01*
X066103Y030255D01*
Y030303D01*
D02*
G37*
G36*
X062243Y032100D02*
X062140D01*
Y031998D01*
X062243D01*
Y032100D01*
D02*
G37*
G36*
X063183Y037100D02*
X062617D01*
X062638Y037049D01*
X062686Y036986D01*
X062749Y036938D01*
X062822Y036908D01*
X062812Y036860D01*
X062800D01*
Y036657D01*
X062700D01*
Y036557D01*
X062498D01*
Y036455D01*
X062499D01*
Y036142D01*
X062474Y036102D01*
X058991D01*
X058948Y036158D01*
X058876Y036213D01*
X058791Y036249D01*
X058700Y036260D01*
X058609Y036249D01*
X058524Y036213D01*
X058451Y036158D01*
X058396Y036085D01*
X058361Y036000D01*
X058349Y035909D01*
X058361Y035818D01*
X058389Y035749D01*
X058373Y035706D01*
X058364Y035693D01*
X058362Y035693D01*
X058329Y035671D01*
X058307Y035638D01*
X058300Y035600D01*
Y032900D01*
X058307Y032862D01*
X058329Y032829D01*
X058349Y032816D01*
Y032798D01*
X061451D01*
Y032816D01*
X061471Y032829D01*
X061493Y032862D01*
X061500Y032900D01*
Y033179D01*
X061515Y033225D01*
X061573Y033237D01*
X061622Y033269D01*
X062511Y034159D01*
X062543Y034180D01*
X062572Y034160D01*
Y034217D01*
X062592Y034247D01*
X062607Y034320D01*
Y034546D01*
X062772D01*
Y034160D01*
X062800Y034179D01*
X062828Y034160D01*
Y034546D01*
X062993D01*
Y034320D01*
X063008Y034247D01*
X063028Y034217D01*
Y034160D01*
X063057Y034180D01*
X063111Y034144D01*
X063184Y034129D01*
X063257Y034144D01*
X063319Y034185D01*
X063360Y034247D01*
X063375Y034320D01*
Y034773D01*
X063360Y034846D01*
X063319Y034908D01*
X063291Y034926D01*
Y035189D01*
X063343Y035242D01*
X063373Y035287D01*
X063543Y035457D01*
X063587Y035523D01*
X063602Y035600D01*
Y035979D01*
X063613Y035987D01*
X063661Y036049D01*
X063691Y036122D01*
X063701Y036200D01*
X063691Y036278D01*
X063661Y036351D01*
X063613Y036413D01*
X063551Y036461D01*
X063478Y036491D01*
X063400Y036501D01*
X063388Y036499D01*
X063362Y036546D01*
Y036983D01*
X063175D01*
X063150Y037033D01*
X063162Y037049D01*
X063183Y037100D01*
D02*
G37*
G36*
X057683D02*
X057117D01*
X057138Y037049D01*
X057186Y036986D01*
X057249Y036938D01*
X057322Y036908D01*
X057312Y036860D01*
X057300D01*
Y036657D01*
X057200D01*
Y036557D01*
X056998D01*
Y036455D01*
X056999D01*
Y036142D01*
X057060D01*
X057093Y036093D01*
X057209Y035977D01*
X057199Y035900D01*
X057209Y035822D01*
X057239Y035749D01*
X057287Y035687D01*
X057350Y035639D01*
X057422Y035609D01*
X057500Y035599D01*
X057549Y035605D01*
X057572Y035558D01*
X057572Y035558D01*
X057542Y035513D01*
X057524Y035495D01*
X057239D01*
Y034996D01*
X057199Y034967D01*
X057161Y034982D01*
Y035495D01*
X056609D01*
Y035392D01*
X056583Y035387D01*
X056555Y035368D01*
X056505Y035395D01*
Y035655D01*
X055982D01*
X055971Y035671D01*
X055938Y035693D01*
X055900Y035700D01*
X052900D01*
X052862Y035693D01*
X052829Y035671D01*
X052807Y035638D01*
X052800Y035600D01*
Y032900D01*
X052807Y032862D01*
X052829Y032829D01*
X052849Y032816D01*
Y032798D01*
X055951D01*
Y032816D01*
X055971Y032829D01*
X055993Y032862D01*
X056000Y032900D01*
Y033225D01*
X056076D01*
X056076Y033225D01*
X056134Y033237D01*
X056183Y033269D01*
X057023Y034109D01*
X057023Y034109D01*
X057034Y034125D01*
X057072Y034139D01*
Y034217D01*
X057092Y034247D01*
X057107Y034320D01*
Y034546D01*
X057272D01*
Y034160D01*
X057300Y034179D01*
X057328Y034160D01*
Y034546D01*
X057493D01*
Y034320D01*
X057508Y034247D01*
X057528Y034217D01*
Y034160D01*
X057557Y034180D01*
X057611Y034144D01*
X057684Y034129D01*
X057757Y034144D01*
X057819Y034185D01*
X057860Y034247D01*
X057875Y034320D01*
Y034773D01*
X057860Y034846D01*
X057819Y034908D01*
X057791Y034926D01*
Y035189D01*
X057858Y035257D01*
X057888Y035302D01*
X058043Y035457D01*
X058087Y035523D01*
X058102Y035600D01*
Y035979D01*
X058113Y035987D01*
X058161Y036049D01*
X058191Y036122D01*
X058201Y036200D01*
X058191Y036278D01*
X058161Y036351D01*
X058113Y036413D01*
X058050Y036461D01*
X057978Y036491D01*
X057900Y036501D01*
X057888Y036499D01*
X057862Y036546D01*
Y036983D01*
X057675D01*
X057650Y037033D01*
X057662Y037049D01*
X057683Y037100D01*
D02*
G37*
G36*
X066303Y030400D02*
Y030255D01*
X066332Y030274D01*
X066372Y030333D01*
X066375Y030348D01*
X066425D01*
X066428Y030333D01*
X066468Y030274D01*
X066527Y030235D01*
X066565Y030227D01*
X066581Y030224D01*
X066576Y030174D01*
X066617D01*
X066612Y030224D01*
X066629Y030227D01*
X066667Y030235D01*
X066726Y030274D01*
X066745Y030303D01*
X066597D01*
Y030400D01*
X066303D01*
D02*
G37*
G36*
X056500Y029717D02*
X056398D01*
Y029615D01*
X056500D01*
Y029717D01*
D02*
G37*
G36*
X065500Y029837D02*
Y029600D01*
X065737D01*
X065706Y029677D01*
X065650Y029750D01*
X065577Y029806D01*
X065500Y029837D01*
D02*
G37*
G36*
X066570Y030174D02*
X066304D01*
Y029800D01*
X066570D01*
Y030174D01*
D02*
G37*
G36*
X061402Y030060D02*
X061300D01*
Y029957D01*
X061402D01*
Y030060D01*
D02*
G37*
G36*
X060700D02*
X060598D01*
Y029957D01*
X060700D01*
Y030060D01*
D02*
G37*
%LPD*%
D10*
X066977Y023500D02*
D03*
X066623D02*
D03*
X066977Y022800D02*
D03*
X066623D02*
D03*
X063877Y021900D02*
D03*
X063523D02*
D03*
X056723Y022800D02*
D03*
X057077D02*
D03*
X057077Y023200D02*
D03*
X056723D02*
D03*
X063477Y030000D02*
D03*
X063123D02*
D03*
D19*
X057157Y032200D02*
D03*
X056843D02*
D03*
X064157Y030000D02*
D03*
X063843D02*
D03*
X062757D02*
D03*
X062443D02*
D03*
X062457Y028000D02*
D03*
X062143D02*
D03*
X057857Y024200D02*
D03*
X057543D02*
D03*
X057857Y024600D02*
D03*
X057543D02*
D03*
X068157Y032200D02*
D03*
X067843D02*
D03*
X062657D02*
D03*
X062343D02*
D03*
D21*
X064200Y034739D02*
D03*
X064700D02*
D03*
X065200D02*
D03*
X066200D02*
D03*
X066700D02*
D03*
X067200D02*
D03*
X061700D02*
D03*
X061200D02*
D03*
X060700D02*
D03*
X059700D02*
D03*
X059200D02*
D03*
X058700D02*
D03*
X053200D02*
D03*
X053700D02*
D03*
X054200D02*
D03*
X055200D02*
D03*
X055700D02*
D03*
X056200D02*
D03*
D22*
X065700Y038755D02*
D03*
X060200D02*
D03*
X054700D02*
D03*
D25*
X067930Y029700D02*
D03*
X066670D02*
D03*
D32*
X058200Y022557D02*
D03*
Y022243D02*
D03*
X061600Y026857D02*
D03*
Y026543D02*
D03*
X061200Y029857D02*
D03*
Y029543D02*
D03*
X060800Y029857D02*
D03*
Y029543D02*
D03*
X056000Y028957D02*
D03*
Y028643D02*
D03*
X056600Y029515D02*
D03*
Y029200D02*
D03*
X068200Y036657D02*
D03*
Y036343D02*
D03*
X062700Y036657D02*
D03*
Y036343D02*
D03*
X057200Y036657D02*
D03*
Y036343D02*
D03*
D36*
X066977Y022800D02*
X066983Y022806D01*
X067700D01*
X066977Y023500D02*
X067606D01*
X067700Y023594D01*
X066123Y024000D02*
X067316D01*
X065456D02*
X066123D01*
X066623Y023500D01*
Y022800D02*
Y023500D01*
X067850Y027250D02*
X067995D01*
X067400Y027700D02*
X067850Y027250D01*
X056388Y023200D02*
X056723D01*
X056325Y023137D02*
X056388Y023200D01*
X059095Y024105D02*
Y025225D01*
Y024105D02*
X059700Y023500D01*
X058789Y021695D02*
X058867Y021616D01*
X058987Y022900D02*
X061700D01*
X058737Y022650D02*
X058987Y022900D01*
X058509Y024700D02*
X058600D01*
X058308Y024329D02*
Y025225D01*
X058111Y024854D02*
Y025225D01*
X057857Y024600D02*
X058111Y024854D01*
X058308Y024329D02*
X058309Y024328D01*
X058293Y022150D02*
X058737D01*
X058200Y022243D02*
X058293Y022150D01*
X058200Y022557D02*
X058293Y022650D01*
X058737D01*
X060863D02*
X061156D01*
X061906Y021900D01*
X061700Y021400D02*
X062194D01*
X060950Y022150D02*
X061700Y021400D01*
X060863Y022150D02*
X060950D01*
X064356Y022900D02*
X065456Y024000D01*
X061700Y022900D02*
X064356D01*
X063877Y021900D02*
X064606D01*
X062694D02*
X063523D01*
X061900Y033168D02*
X062232Y033500D01*
X061900Y032800D02*
Y033168D01*
X062232Y033500D02*
X063100D01*
X062234Y033278D02*
X062498D01*
X062059Y033102D02*
X062234Y033278D01*
X062059Y032734D02*
Y033102D01*
X062498Y033278D02*
X062672Y033104D01*
X061654Y032330D02*
X062059Y032734D01*
X061663Y032100D02*
X062416Y032854D01*
X060576Y032100D02*
X061663D01*
X059900Y031424D02*
X060576Y032100D01*
X057702Y032330D02*
X061654D01*
X061600Y032500D02*
X061900Y032800D01*
X057937Y032500D02*
X061600D01*
X068486Y025741D02*
Y032795D01*
X067750Y033300D02*
X067976D01*
X067618Y033168D02*
X067750Y033300D01*
X067618Y032868D02*
Y033168D01*
X067725Y033500D02*
X068543D01*
X067459Y033234D02*
X067725Y033500D01*
X067459Y032934D02*
Y033234D01*
X067659Y033659D02*
X068609D01*
X067300Y033300D02*
X067659Y033659D01*
X067300Y033000D02*
Y033300D01*
X067093Y032343D02*
X067618Y032868D01*
X067976Y033300D02*
X068172Y033104D01*
X067015Y033376D02*
X067891Y034252D01*
X063189Y032343D02*
X067093D01*
X063435Y032502D02*
X067027D01*
X067459Y032934D01*
X066961Y032661D02*
X067300Y033000D01*
X063939Y032661D02*
X066961D01*
X067163Y032100D02*
X067916Y032854D01*
X054400Y031424D02*
X055076Y032100D01*
X056163D01*
X065400Y031424D02*
X065424D01*
X066100Y032100D01*
X067163D01*
X065400Y031424D02*
Y031500D01*
X056163Y032100D02*
X056916Y032854D01*
X062976Y035800D02*
X063002D01*
X063041Y035839D01*
X062980Y035900D02*
X063041Y035839D01*
X068172Y034128D02*
X068200Y034100D01*
X068172Y034128D02*
Y034546D01*
X056916Y034216D02*
Y034546D01*
X056076Y033376D02*
X056916Y034216D01*
X054400Y033376D02*
X056076D01*
X062416Y034278D02*
Y034546D01*
X061515Y033376D02*
X062416Y034278D01*
X057684Y032754D02*
Y032854D01*
Y032754D02*
X057937Y032500D01*
X068157Y032839D02*
X068172Y032854D01*
X068157Y032200D02*
Y032839D01*
Y032200D02*
X068172Y032215D01*
X062657Y032200D02*
Y032839D01*
X062672Y032854D01*
X057157Y032200D02*
Y032839D01*
X057172Y032854D01*
X057428D01*
Y032604D02*
X057702Y032330D01*
X057428Y032604D02*
Y032854D01*
X063184Y032754D02*
Y032854D01*
Y032754D02*
X063435Y032502D01*
X062672Y032854D02*
X062928D01*
Y032604D02*
Y032854D01*
Y032604D02*
X063189Y032343D01*
X062672Y032854D02*
Y033104D01*
X063100Y033500D02*
X063939Y032661D01*
X067891Y034252D02*
Y034521D01*
X065400Y033376D02*
X067015D01*
X067891Y034521D02*
X067916Y034546D01*
X069041Y025491D02*
Y033228D01*
X068632Y025082D02*
X069041Y025491D01*
X068566Y025241D02*
X068882Y025557D01*
X068682Y025582D02*
Y032756D01*
X068500Y025400D02*
X068682Y025582D01*
X068346Y025600D02*
X068486Y025741D01*
X062250Y025400D02*
X068500D01*
X063739Y025600D02*
X068346D01*
X068882Y025557D02*
Y033162D01*
X068172Y032854D02*
Y033104D01*
Y032854D02*
X068428D01*
X068172Y034546D02*
X068428D01*
X068609Y033659D02*
X069041Y033228D01*
X068543Y033500D02*
X068882Y033162D01*
X068428Y032854D02*
X068486Y032795D01*
X059900Y033376D02*
X061515D01*
X051882Y036182D02*
X052000Y036300D01*
X052100Y035700D02*
X052182D01*
X052041Y035641D02*
X052100Y035700D01*
X052041Y027084D02*
Y035641D01*
X051882Y027018D02*
Y036182D01*
X052300Y035100D02*
X052318D01*
X062072Y028876D02*
X062296Y029100D01*
X060975Y028876D02*
X062072D01*
X060080Y028420D02*
X060100Y028400D01*
X060080Y028420D02*
Y029575D01*
X060400Y028266D02*
X060577Y028089D01*
X060400Y028266D02*
Y028800D01*
X062143Y026896D02*
X062439Y026600D01*
Y026900D02*
X064761D01*
X057857Y024200D02*
X058000D01*
X057857D02*
Y024600D01*
X058309Y024072D02*
Y024328D01*
X058037Y023800D02*
X058309Y024072D01*
X054297Y023800D02*
X058037D01*
X056556Y029143D02*
X056600D01*
X061513Y026857D02*
X061600D01*
X061367Y026711D02*
X061513Y026857D01*
X060975Y026711D02*
X061367D01*
X060105Y025639D02*
X060342D01*
X060080Y025613D02*
X060105Y025639D01*
X060080Y025225D02*
Y025613D01*
X060700Y025200D02*
Y025281D01*
X060342Y025639D02*
X060700Y025281D01*
X061482Y024918D02*
X064538D01*
X060600Y025800D02*
X061482Y024918D01*
X059978Y025800D02*
X060600D01*
X058500Y026400D02*
Y027275D01*
X059883Y028658D01*
X059686Y028686D02*
Y029575D01*
X058100Y027100D02*
X059686Y028686D01*
X058100Y026400D02*
Y027100D01*
X068200Y036100D02*
X068500Y035800D01*
X068200Y036100D02*
Y036343D01*
X062700Y036180D02*
X062980Y035900D01*
X062700Y036180D02*
Y036343D01*
X057200Y036200D02*
X057500Y035900D01*
X057200Y036200D02*
Y036343D01*
X063481Y029819D02*
X063500Y029800D01*
X063481Y029819D02*
Y029821D01*
X063500Y029840D01*
Y029977D01*
X063477Y030000D02*
X063500Y029977D01*
X063625Y030217D02*
X063843Y030000D01*
X063340Y030217D02*
X063625D01*
X063123Y030000D02*
X063340Y030217D01*
X062757Y030000D02*
X063123D01*
X057200Y030100D02*
X060100D01*
X057000Y029900D02*
X057200Y030100D01*
X057000Y029400D02*
Y029900D01*
X060100Y030100D02*
X060276Y029924D01*
X055900Y025600D02*
Y025700D01*
X055905Y025705D01*
X058898Y024198D02*
Y025225D01*
X057900Y023200D02*
X058898Y024198D01*
X057077Y023200D02*
X057900D01*
X057077Y022800D02*
X057077Y022800D01*
X057077Y022800D02*
Y023200D01*
X054297Y024200D02*
X054300Y024203D01*
X054297Y023800D02*
Y024200D01*
X058505Y024705D02*
X058509Y024700D01*
X062118Y025082D02*
X068632D01*
X062184Y025241D02*
X068566D01*
X062439Y026900D02*
X063739Y025600D01*
X061276Y025924D02*
X062118Y025082D01*
X061304Y026120D02*
X062184Y025241D01*
X061333Y026317D02*
X062250Y025400D01*
X064538Y024918D02*
X065456Y024000D01*
X063909Y024759D02*
X064668Y024000D01*
X059800Y024759D02*
X063909D01*
X063381Y024600D02*
X063881Y024100D01*
X059700Y024600D02*
X063381D01*
X062758Y024441D02*
X063099Y024100D01*
X059559Y024441D02*
X062758D01*
X059095Y029200D02*
Y029575D01*
X058700Y028804D02*
X059095Y029200D01*
X059100Y028866D02*
X059292Y029058D01*
X059100Y028500D02*
Y028866D01*
X058700Y028500D02*
Y028804D01*
X059292Y029058D02*
Y029575D01*
X064894Y021400D02*
X065394Y021900D01*
X063194Y021400D02*
X064894D01*
X062694Y021900D02*
X063194Y021400D01*
X064106Y022400D02*
X064606Y021900D01*
X062406Y022400D02*
X064106D01*
X061906Y021900D02*
X062406Y022400D01*
X062194Y021400D02*
X062694Y021900D01*
X057292Y026908D02*
X057600Y026600D01*
X057089Y026711D02*
X057200Y026600D01*
X057505Y025705D02*
X059883D01*
Y028658D02*
Y029575D01*
X059200Y027600D02*
X060466D01*
X058900Y027300D02*
X059200Y027600D01*
X059400Y028800D02*
X059489Y028889D01*
X059900Y025722D02*
Y025800D01*
X059978D01*
X056625Y026711D02*
X057089D01*
X056625Y026908D02*
X057292D01*
X059900Y025722D02*
X059978Y025800D01*
X067316Y024000D02*
X067700Y024384D01*
X059686Y024873D02*
X059800Y024759D01*
X059686Y024873D02*
Y025225D01*
X059293Y024707D02*
X059559Y024441D01*
X059489Y024811D02*
X059700Y024600D01*
X061800Y023500D02*
X062309Y024009D01*
X059700Y023500D02*
X061800D01*
X059489Y024811D02*
Y025225D01*
X059293Y024707D02*
Y025225D01*
X062309Y024009D02*
Y024100D01*
X059978Y025800D02*
X060692Y026514D01*
X059883Y025705D02*
X059900Y025722D01*
X058505Y024705D02*
Y025225D01*
X055905Y025705D02*
X057505D01*
X056066Y027900D02*
X056255Y028089D01*
X055700Y027900D02*
X056066D01*
X056314Y027695D02*
X056625D01*
X056342Y027498D02*
X056625D01*
X056000Y028200D02*
X056086Y028286D01*
X056625D01*
X056255Y028089D02*
X056625D01*
X055972Y028200D02*
X056000D01*
X056286Y027892D02*
X056625D01*
X055583Y026514D02*
X056625D01*
X060577Y028089D02*
X060975D01*
X060309Y029543D02*
X060800D01*
X059489Y028889D02*
Y029575D01*
X060466Y027600D02*
X060562Y027695D01*
X060975D01*
X060408Y027892D02*
X060975D01*
X060400Y027900D02*
X060408Y027892D01*
X056022Y028680D02*
X056625D01*
X056000Y028657D02*
X056022Y028680D01*
X057520Y024622D02*
X057543Y024600D01*
X057520Y024622D02*
Y025225D01*
X057324Y024419D02*
X057543Y024200D01*
X057324Y024419D02*
Y025225D01*
Y025524D01*
X057505Y025705D01*
X059883Y025225D02*
Y025705D01*
X060975Y026514D02*
X061600D01*
X060692D02*
X060975D01*
X056600Y028901D02*
X056625Y028876D01*
X056600Y028901D02*
Y029143D01*
X060276Y029575D02*
Y029924D01*
X060975Y029318D02*
X061200Y029543D01*
X060975Y028876D02*
Y029318D01*
X061600Y026514D02*
Y026543D01*
X062381D01*
X062439Y026600D01*
X062143Y028946D02*
X062296Y029100D01*
X062143Y026896D02*
Y028946D01*
X060975Y026317D02*
X061333D01*
X060975Y026120D02*
X061304D01*
X060975Y025924D02*
X061276D01*
X052218Y027132D02*
Y035000D01*
X060975Y029318D02*
Y029367D01*
X060800Y029543D02*
X060975Y029367D01*
X052400Y026100D02*
X052418Y026082D01*
X052400D02*
X052418D01*
X052482D01*
X052400Y025300D02*
X052641Y025541D01*
X052218Y027132D02*
X053014Y026336D01*
X052041Y027084D02*
X052948Y026177D01*
X051882Y027018D02*
X052882Y026018D01*
X052418Y026082D02*
X052641Y025859D01*
Y025541D02*
X055059D01*
X052400Y025700D02*
X054993D01*
X052641Y025859D02*
X054927D01*
X052882Y026018D02*
X054862D01*
X052948Y026177D02*
X054796D01*
X053014Y026336D02*
X054730D01*
X055059Y025541D02*
X055639Y026120D01*
X056625D01*
X054993Y025700D02*
X055611Y026317D01*
X056625D01*
X054927Y025859D02*
X055583Y026514D01*
X054862Y026018D02*
X056342Y027498D01*
X054796Y026177D02*
X056314Y027695D01*
X054730Y026336D02*
X056286Y027892D01*
X056600Y029143D02*
X056657Y029200D01*
X056800D01*
X057000Y029400D01*
D37*
X066005Y026409D02*
Y028700D01*
X065200D02*
X066005D01*
X064500Y029400D02*
X065200Y028700D01*
X068000Y029770D02*
Y031100D01*
Y028300D02*
Y029000D01*
Y029630D01*
X066005Y026409D02*
X066214Y026200D01*
X068000Y027750D02*
Y028300D01*
D38*
X069000Y035600D02*
Y036100D01*
X068600Y035200D02*
X069000Y035600D01*
X068900Y036200D02*
X069000Y036100D01*
X063400Y035600D02*
Y036200D01*
X063200Y035400D02*
X063400Y035600D01*
X063200Y035385D02*
Y035400D01*
X063015Y035200D02*
X063200Y035385D01*
X058700Y035900D02*
X062980D01*
X063041Y035839D02*
Y036761D01*
X057900Y035600D02*
Y036200D01*
X057715Y035415D02*
X057900Y035600D01*
X068541Y035841D02*
Y036761D01*
X057541Y035941D02*
Y036761D01*
X067200Y034739D02*
X067661Y035200D01*
X067885D01*
X061700Y034739D02*
X062161Y035200D01*
X062385D01*
X056200Y034739D02*
X056661Y035200D01*
X056885D01*
X057515D02*
X057715Y035400D01*
Y035415D01*
X068515Y035200D02*
X068600D01*
Y037639D02*
Y038700D01*
X063100Y037639D02*
Y038700D01*
X057600Y037639D02*
Y038700D01*
X063041Y036761D02*
X063100D01*
X057541D02*
X057600D01*
X057500Y035900D02*
X057541Y035941D01*
X068541Y036761D02*
X068600D01*
X068500Y035800D02*
X068541Y035841D01*
D39*
X068306Y035991D02*
X068497Y035800D01*
X064200Y035991D02*
X068306D01*
D40*
X061906Y021900D02*
D03*
X062694D02*
D03*
X065394D02*
D03*
X064606D02*
D03*
X063881Y024000D02*
D03*
X059944D02*
D03*
X060732D02*
D03*
X061519D02*
D03*
X062309D02*
D03*
X063099D02*
D03*
X064668D02*
D03*
X065456D02*
D03*
X067700Y022019D02*
D03*
Y022806D02*
D03*
Y023594D02*
D03*
Y024384D02*
D03*
D41*
X068000Y020300D02*
D03*
X052900D02*
D03*
D42*
X067000Y029500D02*
D03*
X064400Y038800D02*
D03*
X065100D02*
D03*
X065800D02*
D03*
X066500D02*
D03*
X058900D02*
D03*
X059600D02*
D03*
X060300D02*
D03*
X061000D02*
D03*
X053400D02*
D03*
X054100D02*
D03*
X054800D02*
D03*
X055500D02*
D03*
X062976Y035800D02*
D03*
X058700Y035909D02*
D03*
X064200Y035991D02*
D03*
X068400Y039700D02*
D03*
X062900Y040200D02*
D03*
X057400D02*
D03*
X052200Y038100D02*
D03*
X057300Y030800D02*
D03*
X056700Y024900D02*
D03*
X052200Y023800D02*
D03*
X054300Y021200D02*
D03*
X068600Y024000D02*
D03*
X061700Y028000D02*
D03*
X065400Y029500D02*
D03*
X067000Y028200D02*
D03*
X061300Y030800D02*
D03*
X063600Y027800D02*
D03*
X064500Y029400D02*
D03*
X068000Y031100D02*
D03*
X064761Y025994D02*
D03*
X064400Y038100D02*
D03*
X065100D02*
D03*
X065800D02*
D03*
X066500D02*
D03*
X064400Y037400D02*
D03*
X065100D02*
D03*
X065800D02*
D03*
X066500D02*
D03*
X058900Y038100D02*
D03*
X059600D02*
D03*
X060300D02*
D03*
X061000D02*
D03*
X058900Y037400D02*
D03*
X059600D02*
D03*
X060300D02*
D03*
X061000D02*
D03*
X055500D02*
D03*
X054800D02*
D03*
X054100D02*
D03*
X053400D02*
D03*
X055500Y038100D02*
D03*
X054800D02*
D03*
X054100D02*
D03*
X053400D02*
D03*
X068500Y035800D02*
D03*
X068000Y028300D02*
D03*
Y029000D02*
D03*
X065500Y023100D02*
D03*
X054300Y027400D02*
D03*
Y026800D02*
D03*
X067000Y027200D02*
D03*
D43*
X067400Y027700D02*
D03*
X068100Y031800D02*
D03*
X068200Y034100D02*
D03*
X057400Y037200D02*
D03*
X068400D02*
D03*
X062900D02*
D03*
X058000Y024200D02*
D03*
X059300Y026200D02*
D03*
X060700Y025200D02*
D03*
X057400Y026100D02*
D03*
X059900Y027200D02*
D03*
X063481Y029821D02*
D03*
X064400Y030000D02*
D03*
X062300D02*
D03*
X055900Y025600D02*
D03*
X068600Y038700D02*
D03*
X063100D02*
D03*
X057600D02*
D03*
X063400Y036200D02*
D03*
X057500Y035900D02*
D03*
X057900Y036200D02*
D03*
X068900D02*
D03*
X066400Y031100D02*
D03*
D44*
X056325Y023137D02*
D03*
X059100Y021700D02*
D03*
X058900Y023200D02*
D03*
X058600Y024700D02*
D03*
X061700Y022900D02*
D03*
X052182Y035700D02*
D03*
X052300Y035100D02*
D03*
X052000Y036300D02*
D03*
X057000Y029900D02*
D03*
X060100Y028400D02*
D03*
X060400Y028800D02*
D03*
X058100Y026400D02*
D03*
X058500D02*
D03*
X053800Y023800D02*
D03*
X058700Y028500D02*
D03*
X059100D02*
D03*
X057600Y026600D02*
D03*
X057200D02*
D03*
X058900Y027300D02*
D03*
X059400Y028800D02*
D03*
X059900Y025800D02*
D03*
X055700Y027900D02*
D03*
X056000Y028200D02*
D03*
X060400Y027900D02*
D03*
X052400Y025300D02*
D03*
Y025700D02*
D03*
Y026100D02*
D03*
D45*
X066597Y030403D02*
D03*
X066203D02*
D03*
X066597Y030797D02*
D03*
X066203D02*
D03*
D46*
X060863Y023150D02*
D03*
Y022650D02*
D03*
Y022150D02*
D03*
Y021650D02*
D03*
X058737Y023150D02*
D03*
Y022650D02*
D03*
Y022150D02*
D03*
Y021650D02*
D03*
D47*
X067886Y026200D02*
D03*
X066114D02*
D03*
D48*
X068600Y037639D02*
D03*
Y036761D02*
D03*
X063100Y037639D02*
D03*
Y036761D02*
D03*
X057600Y037639D02*
D03*
Y036761D02*
D03*
D49*
X068515Y035200D02*
D03*
X067885D02*
D03*
X063015D02*
D03*
X062385D02*
D03*
X057515D02*
D03*
X056885D02*
D03*
D50*
X065400Y031424D02*
D03*
Y033376D02*
D03*
X059900Y031424D02*
D03*
Y033376D02*
D03*
X054400Y031424D02*
D03*
Y033376D02*
D03*
D51*
X063496Y029100D02*
D03*
X062296D02*
D03*
D52*
X064761Y027806D02*
D03*
Y026900D02*
D03*
Y025994D02*
D03*
D53*
X062439Y026900D02*
D03*
D54*
X067995Y028750D02*
D03*
Y028250D02*
D03*
Y027750D02*
D03*
Y027250D02*
D03*
X066005Y028750D02*
D03*
Y028250D02*
D03*
Y027750D02*
D03*
Y027250D02*
D03*
D55*
X060276Y029575D02*
D03*
X060080D02*
D03*
X059883D02*
D03*
X059686D02*
D03*
X059489D02*
D03*
X059292D02*
D03*
X059095D02*
D03*
X058898D02*
D03*
X058702D02*
D03*
X058505D02*
D03*
X058308D02*
D03*
X058111D02*
D03*
X057914D02*
D03*
X057717D02*
D03*
X057520D02*
D03*
X057324D02*
D03*
Y025225D02*
D03*
X057520D02*
D03*
X057717D02*
D03*
X057914D02*
D03*
X058111D02*
D03*
X058308D02*
D03*
X058505D02*
D03*
X058702D02*
D03*
X058898D02*
D03*
X059095D02*
D03*
X059292D02*
D03*
X059489D02*
D03*
X059686D02*
D03*
X059883D02*
D03*
X060080D02*
D03*
X060276D02*
D03*
D56*
X056625Y028876D02*
D03*
Y028680D02*
D03*
Y028483D02*
D03*
Y028286D02*
D03*
Y028089D02*
D03*
Y027892D02*
D03*
Y027695D02*
D03*
Y027498D02*
D03*
Y027302D02*
D03*
Y027105D02*
D03*
Y026908D02*
D03*
Y026711D02*
D03*
Y026514D02*
D03*
Y026317D02*
D03*
Y026120D02*
D03*
Y025924D02*
D03*
X060975D02*
D03*
Y026120D02*
D03*
Y026317D02*
D03*
Y026514D02*
D03*
Y026711D02*
D03*
Y026908D02*
D03*
Y027105D02*
D03*
Y027302D02*
D03*
Y027498D02*
D03*
Y027695D02*
D03*
Y027892D02*
D03*
Y028089D02*
D03*
Y028286D02*
D03*
Y028483D02*
D03*
Y028680D02*
D03*
Y028876D02*
D03*
D57*
X053903Y023800D02*
D03*
X054297D02*
D03*
X053903Y024200D02*
D03*
X054297D02*
D03*
D58*
X067916Y034546D02*
D03*
X068172D02*
D03*
X068428D02*
D03*
X068684D02*
D03*
X067916Y032854D02*
D03*
X068172D02*
D03*
X068428D02*
D03*
X068684D02*
D03*
X062416Y034546D02*
D03*
X062672D02*
D03*
X062928D02*
D03*
X063184D02*
D03*
X062416Y032854D02*
D03*
X062672D02*
D03*
X062928D02*
D03*
X063184D02*
D03*
X056916Y034546D02*
D03*
X057172D02*
D03*
X057428D02*
D03*
X057684D02*
D03*
X056916Y032854D02*
D03*
X057172D02*
D03*
X057428D02*
D03*
X057684D02*
D03*
D59*
X065400Y034250D02*
D03*
X059900D02*
D03*
X054400D02*
D03*
M02*
