G04 Layer_Physical_Order=2*
G04 Layer_Color=32768*
%FSAX25Y25*%
%MOIN*%
G70*
G01*
G75*
%ADD40C,0.01000*%
%ADD44C,0.04000*%
%ADD50C,0.05143*%
%ADD51C,0.04750*%
%ADD52C,0.02600*%
D40*
X0615199Y0279500D02*
X0621199Y0273500D01*
X0611199Y0312000D02*
X0615199Y0308000D01*
Y0279500D02*
Y0308000D01*
X0535199Y0338500D02*
X0587699D01*
D44*
X0541199Y0413000D02*
G03*
X0527199Y0399000I-0000000J-0014000D01*
G01*
X0671699D02*
G03*
X0657699Y0413000I-0014000J0000000D01*
G01*
X0660699Y0210000D02*
G03*
X0671699Y0221000I0000000J0011000D01*
G01*
X0527199D02*
G03*
X0538199Y0210000I0011000J0000000D01*
G01*
X0527199Y0221000D02*
Y0399000D01*
X0671699Y0221000D02*
Y0399000D01*
X0538199Y0210000D02*
X0660699D01*
X0671699Y0399000D02*
X0671699D01*
X0541199Y0413000D02*
X0657699D01*
X0527199Y0399000D02*
X0527199D01*
D50*
X0530499Y0388528D02*
D03*
D51*
X0661821Y0243000D02*
D03*
X0646125D02*
D03*
X0638225D02*
D03*
X0630325D02*
D03*
X0622451D02*
D03*
X0653947D02*
D03*
X0597936Y0222000D02*
D03*
X0590062D02*
D03*
X0582162D02*
D03*
X0574262D02*
D03*
X0566388D02*
D03*
X0638099D02*
D03*
X0630199D02*
D03*
X0622325D02*
D03*
X0614451D02*
D03*
D52*
X0554199Y0403000D02*
D03*
Y0406000D02*
D03*
X0601199Y0403000D02*
D03*
Y0406000D02*
D03*
X0648199Y0403000D02*
D03*
Y0406000D02*
D03*
X0590199Y0279000D02*
D03*
X0587199D02*
D03*
X0584199D02*
D03*
X0583699Y0284000D02*
D03*
X0579199D02*
D03*
X0589699Y0287500D02*
D03*
X0592199Y0314500D02*
D03*
X0588199Y0284000D02*
D03*
X0570165Y0287534D02*
D03*
X0612199Y0233614D02*
D03*
X0557664Y0292500D02*
D03*
X0604199Y0280461D02*
D03*
X0604085Y0266000D02*
D03*
X0604585Y0254000D02*
D03*
X0665199Y0288900D02*
D03*
X0542199Y0234500D02*
D03*
X0544699D02*
D03*
X0547199D02*
D03*
X0632699Y0249000D02*
D03*
X0618199Y0250500D02*
D03*
X0539699Y0232500D02*
D03*
X0536699D02*
D03*
X0533699D02*
D03*
X0597699Y0238000D02*
D03*
X0600699Y0241000D02*
D03*
X0597699D02*
D03*
X0600699Y0244000D02*
D03*
X0597699D02*
D03*
X0610699Y0259500D02*
D03*
X0667199Y0260000D02*
D03*
X0664199D02*
D03*
X0661199D02*
D03*
X0658199D02*
D03*
X0630199Y0260500D02*
D03*
Y0263500D02*
D03*
Y0266500D02*
D03*
Y0269500D02*
D03*
Y0272500D02*
D03*
X0667199Y0280000D02*
D03*
X0656699D02*
D03*
X0659699D02*
D03*
X0662699D02*
D03*
Y0283000D02*
D03*
Y0286000D02*
D03*
X0659699D02*
D03*
Y0283000D02*
D03*
X0656699Y0286000D02*
D03*
Y0283000D02*
D03*
X0653699D02*
D03*
Y0286000D02*
D03*
X0668364Y0288840D02*
D03*
X0597699Y0250000D02*
D03*
X0594699D02*
D03*
X0597699Y0247000D02*
D03*
X0600699D02*
D03*
X0576066Y0260866D02*
D03*
X0547199Y0290000D02*
D03*
X0564199Y0284500D02*
D03*
X0531199Y0248228D02*
D03*
Y0256728D02*
D03*
Y0239728D02*
D03*
X0532699Y0283000D02*
D03*
X0529699D02*
D03*
X0604699Y0308500D02*
D03*
X0622199Y0306500D02*
D03*
X0545199Y0318500D02*
D03*
X0545286Y0308913D02*
D03*
X0547786Y0308913D02*
D03*
X0576928Y0318728D02*
D03*
X0622199Y0318500D02*
D03*
X0650199Y0334000D02*
D03*
X0655199Y0331500D02*
D03*
Y0329000D02*
D03*
X0650199Y0326500D02*
D03*
X0657699D02*
D03*
Y0329000D02*
D03*
X0655199Y0326500D02*
D03*
Y0324000D02*
D03*
X0657699D02*
D03*
X0660199D02*
D03*
Y0326500D02*
D03*
Y0329000D02*
D03*
Y0321500D02*
D03*
X0657699D02*
D03*
X0655199D02*
D03*
X0652699D02*
D03*
Y0324000D02*
D03*
Y0326500D02*
D03*
Y0329000D02*
D03*
X0650199Y0324000D02*
D03*
Y0321500D02*
D03*
Y0329000D02*
D03*
Y0331500D02*
D03*
X0652699D02*
D03*
X0657699D02*
D03*
X0660199D02*
D03*
Y0334000D02*
D03*
X0657699D02*
D03*
X0655199D02*
D03*
X0652699D02*
D03*
X0660199Y0336500D02*
D03*
X0657699D02*
D03*
X0655199D02*
D03*
X0652699D02*
D03*
X0650199D02*
D03*
X0603199D02*
D03*
X0605699D02*
D03*
X0608199D02*
D03*
X0610699D02*
D03*
X0613199D02*
D03*
X0605699Y0334000D02*
D03*
X0608199D02*
D03*
X0610699D02*
D03*
X0613199D02*
D03*
Y0331500D02*
D03*
X0610699D02*
D03*
X0605699D02*
D03*
X0603199D02*
D03*
Y0329000D02*
D03*
Y0321500D02*
D03*
Y0324000D02*
D03*
X0605699Y0329000D02*
D03*
Y0326500D02*
D03*
Y0324000D02*
D03*
Y0321500D02*
D03*
X0608199D02*
D03*
X0610699D02*
D03*
X0613199D02*
D03*
Y0329000D02*
D03*
Y0326500D02*
D03*
Y0324000D02*
D03*
X0610699D02*
D03*
X0608199D02*
D03*
Y0326500D02*
D03*
X0610699Y0329000D02*
D03*
Y0326500D02*
D03*
X0603199D02*
D03*
X0608199Y0329000D02*
D03*
Y0331500D02*
D03*
X0603199Y0334000D02*
D03*
X0556199Y0336500D02*
D03*
X0558699D02*
D03*
X0561199D02*
D03*
X0563699D02*
D03*
X0566199D02*
D03*
X0558699Y0334000D02*
D03*
X0561199D02*
D03*
X0563699D02*
D03*
X0566199D02*
D03*
Y0331500D02*
D03*
X0563699D02*
D03*
X0558699D02*
D03*
X0556199D02*
D03*
Y0329000D02*
D03*
Y0321500D02*
D03*
Y0324000D02*
D03*
X0558699Y0329000D02*
D03*
Y0326500D02*
D03*
Y0324000D02*
D03*
Y0321500D02*
D03*
X0561199D02*
D03*
X0563699D02*
D03*
X0566199D02*
D03*
Y0329000D02*
D03*
Y0326500D02*
D03*
Y0324000D02*
D03*
X0563699D02*
D03*
X0561199D02*
D03*
Y0326500D02*
D03*
X0563699Y0329000D02*
D03*
Y0326500D02*
D03*
X0556199D02*
D03*
X0561199Y0329000D02*
D03*
Y0331500D02*
D03*
X0556199Y0334000D02*
D03*
X0668699Y0390500D02*
D03*
Y0388000D02*
D03*
X0666199Y0390500D02*
D03*
Y0388000D02*
D03*
X0668699Y0385500D02*
D03*
X0663699Y0388000D02*
D03*
X0666199Y0385500D02*
D03*
X0663699Y0390500D02*
D03*
Y0385500D02*
D03*
X0632699Y0390500D02*
D03*
Y0388000D02*
D03*
X0663699Y0383000D02*
D03*
X0632699Y0385500D02*
D03*
X0668699Y0383000D02*
D03*
Y0380500D02*
D03*
X0666199Y0383000D02*
D03*
Y0380500D02*
D03*
X0668699Y0378000D02*
D03*
Y0375500D02*
D03*
X0666199Y0378000D02*
D03*
Y0375500D02*
D03*
X0663699Y0380500D02*
D03*
X0632699Y0383000D02*
D03*
Y0380500D02*
D03*
X0663699Y0378000D02*
D03*
Y0375500D02*
D03*
X0632699Y0378000D02*
D03*
X0630199Y0390500D02*
D03*
Y0388000D02*
D03*
X0627699Y0390500D02*
D03*
Y0388000D02*
D03*
X0630199Y0385500D02*
D03*
Y0383000D02*
D03*
X0627699Y0385500D02*
D03*
Y0383000D02*
D03*
X0625199Y0390500D02*
D03*
Y0388000D02*
D03*
X0620199Y0390500D02*
D03*
X0622699D02*
D03*
Y0388000D02*
D03*
X0625199Y0385500D02*
D03*
X0620199D02*
D03*
X0622699D02*
D03*
X0627699Y0380500D02*
D03*
X0630199D02*
D03*
X0625199Y0383000D02*
D03*
Y0380500D02*
D03*
X0627699Y0378000D02*
D03*
X0630199D02*
D03*
X0625199D02*
D03*
Y0375500D02*
D03*
X0622699Y0383000D02*
D03*
Y0380500D02*
D03*
X0620199Y0383000D02*
D03*
Y0380500D02*
D03*
X0622699Y0378000D02*
D03*
Y0375500D02*
D03*
X0620199Y0378000D02*
D03*
X0668699Y0310500D02*
D03*
X0665699D02*
D03*
Y0301500D02*
D03*
X0632699Y0375500D02*
D03*
X0630199D02*
D03*
Y0373000D02*
D03*
X0632699D02*
D03*
X0627699Y0375500D02*
D03*
Y0373000D02*
D03*
X0620199Y0375500D02*
D03*
X0625199Y0373000D02*
D03*
X0622699D02*
D03*
X0662699Y0310500D02*
D03*
Y0307500D02*
D03*
Y0304500D02*
D03*
Y0301500D02*
D03*
X0617699Y0390500D02*
D03*
X0620199Y0388000D02*
D03*
X0585699Y0390500D02*
D03*
X0617699Y0388000D02*
D03*
X0585699D02*
D03*
Y0385500D02*
D03*
X0580699Y0390500D02*
D03*
X0583199D02*
D03*
X0575699D02*
D03*
X0578199D02*
D03*
X0580699Y0388000D02*
D03*
X0583199D02*
D03*
X0575699D02*
D03*
X0578199D02*
D03*
X0617699Y0385500D02*
D03*
Y0383000D02*
D03*
X0580699Y0385500D02*
D03*
X0583199D02*
D03*
X0585699Y0383000D02*
D03*
X0617699Y0380500D02*
D03*
X0583199Y0383000D02*
D03*
Y0380500D02*
D03*
X0578199Y0383000D02*
D03*
X0580699D02*
D03*
X0575699Y0385500D02*
D03*
X0578199D02*
D03*
X0575699Y0380500D02*
D03*
X0578199D02*
D03*
X0575699Y0383000D02*
D03*
X0570699Y0390500D02*
D03*
X0573199D02*
D03*
X0536699D02*
D03*
X0539199D02*
D03*
X0573199Y0388000D02*
D03*
X0539199D02*
D03*
X0570699D02*
D03*
X0534199Y0390500D02*
D03*
X0536699Y0388000D02*
D03*
X0534199D02*
D03*
X0570699Y0385500D02*
D03*
X0573199D02*
D03*
X0539199D02*
D03*
X0570699Y0383000D02*
D03*
X0573199D02*
D03*
X0570699Y0380500D02*
D03*
X0539199Y0383000D02*
D03*
Y0380500D02*
D03*
X0536699Y0385500D02*
D03*
Y0383000D02*
D03*
X0534199Y0385500D02*
D03*
X0531699Y0383000D02*
D03*
X0534199D02*
D03*
X0531699Y0380500D02*
D03*
X0617699Y0375500D02*
D03*
Y0378000D02*
D03*
X0585699Y0380500D02*
D03*
Y0378000D02*
D03*
X0580699D02*
D03*
X0583199D02*
D03*
X0573199Y0380500D02*
D03*
X0580699D02*
D03*
X0573199Y0378000D02*
D03*
X0570699D02*
D03*
X0534199Y0380500D02*
D03*
X0536699D02*
D03*
X0531699Y0378000D02*
D03*
X0534199D02*
D03*
X0575699D02*
D03*
X0578199D02*
D03*
X0570699Y0375500D02*
D03*
X0573199D02*
D03*
X0539199Y0378000D02*
D03*
Y0375500D02*
D03*
X0536699Y0378000D02*
D03*
Y0375500D02*
D03*
X0534199D02*
D03*
X0531699D02*
D03*
X0605428Y0296000D02*
D03*
X0639199Y0272500D02*
D03*
X0636199D02*
D03*
X0639199Y0269500D02*
D03*
Y0266500D02*
D03*
Y0260500D02*
D03*
Y0263500D02*
D03*
X0636199Y0266500D02*
D03*
Y0269500D02*
D03*
Y0260500D02*
D03*
Y0263642D02*
D03*
X0633199Y0272500D02*
D03*
Y0269500D02*
D03*
Y0266500D02*
D03*
Y0260500D02*
D03*
Y0263500D02*
D03*
X0637199Y0306500D02*
D03*
X0634199D02*
D03*
X0631199D02*
D03*
X0628199D02*
D03*
X0625199D02*
D03*
X0637199Y0303500D02*
D03*
X0631199D02*
D03*
X0634199D02*
D03*
X0628199D02*
D03*
X0625199D02*
D03*
X0622199D02*
D03*
X0625199Y0297500D02*
D03*
X0622199Y0300500D02*
D03*
Y0297500D02*
D03*
X0619199Y0306500D02*
D03*
X0616199D02*
D03*
X0619199Y0303500D02*
D03*
Y0300500D02*
D03*
Y0297500D02*
D03*
X0616199Y0303500D02*
D03*
Y0300500D02*
D03*
X0613199Y0303500D02*
D03*
Y0297500D02*
D03*
Y0300500D02*
D03*
X0624199Y0293500D02*
D03*
X0631199Y0295000D02*
D03*
X0586699Y0330500D02*
D03*
X0585199Y0297500D02*
D03*
X0530199Y0325728D02*
D03*
X0539699Y0330500D02*
D03*
X0635699Y0349000D02*
D03*
Y0351500D02*
D03*
X0638199Y0349000D02*
D03*
X0541699D02*
D03*
X0588699D02*
D03*
Y0351500D02*
D03*
X0541699D02*
D03*
X0591199Y0349000D02*
D03*
X0544199D02*
D03*
X0591199Y0323500D02*
D03*
X0570199Y0242000D02*
D03*
X0573199D02*
D03*
X0572199Y0230500D02*
D03*
X0575199D02*
D03*
X0578199D02*
D03*
X0581199D02*
D03*
Y0233500D02*
D03*
X0578199D02*
D03*
X0575199D02*
D03*
Y0236500D02*
D03*
X0594699Y0247000D02*
D03*
X0621199Y0285500D02*
D03*
X0624199D02*
D03*
X0627199Y0266500D02*
D03*
Y0263500D02*
D03*
X0642199Y0260500D02*
D03*
X0624199Y0275500D02*
D03*
X0621199D02*
D03*
X0618199D02*
D03*
X0624199Y0266500D02*
D03*
X0569199Y0230500D02*
D03*
X0603699Y0224500D02*
D03*
X0600699Y0238000D02*
D03*
Y0232000D02*
D03*
X0556199Y0245000D02*
D03*
X0553199D02*
D03*
X0550199D02*
D03*
X0547199D02*
D03*
X0544199D02*
D03*
Y0242000D02*
D03*
X0547199D02*
D03*
X0550199D02*
D03*
Y0239000D02*
D03*
X0547199D02*
D03*
X0544199D02*
D03*
X0567699Y0262000D02*
D03*
X0565099D02*
D03*
X0560199Y0247500D02*
D03*
X0593199Y0272000D02*
D03*
M02*
