G04 Layer_Physical_Order=3*
G04 Layer_Color=128*
%FSAX25Y25*%
%MOIN*%
G70*
G01*
G75*
%ADD40C,0.01000*%
%ADD44C,0.04000*%
%ADD50C,0.05143*%
%ADD51C,0.04750*%
%ADD52C,0.02600*%
%ADD53C,0.13805*%
%ADD54C,0.08687*%
D40*
X0654699Y0248500D02*
X0658199D01*
X0542699Y0238500D02*
Y0240500D01*
Y0238500D02*
X0544699Y0236500D01*
X0548699D01*
Y0230500D02*
Y0233500D01*
Y0236500D01*
X0543199Y0210000D02*
Y0225000D01*
X0548699Y0230500D01*
X0542699Y0240000D02*
Y0260500D01*
X0671199Y0248500D02*
Y0254500D01*
X0658199Y0240500D02*
Y0248500D01*
X0634199Y0236000D02*
X0646699Y0248500D01*
X0560699Y0232500D02*
Y0242500D01*
X0539199Y0264000D02*
Y0274500D01*
Y0264000D02*
X0560699Y0242500D01*
Y0232500D02*
X0570699Y0222500D01*
X0544199Y0292500D02*
X0549199Y0297500D01*
X0544199Y0279500D02*
Y0292500D01*
X0539199Y0274500D02*
X0544199Y0279500D01*
X0537199Y0356000D02*
Y0359500D01*
X0542199Y0364500D01*
X0632199D01*
X0527199Y0280000D02*
X0528199Y0281000D01*
X0527199Y0358000D02*
X0530699D01*
X0534199Y0282000D02*
Y0282500D01*
X0533199Y0281000D02*
X0534199Y0282000D01*
X0528199Y0281000D02*
X0533199D01*
X0527199Y0274000D02*
Y0275500D01*
X0531199Y0281000D02*
Y0310000D01*
X0533699Y0312500D01*
Y0352500D02*
X0537199Y0356000D01*
X0533699Y0334000D02*
Y0352500D01*
X0534199Y0282500D02*
Y0307000D01*
X0537699Y0310500D01*
X0533699Y0312500D02*
Y0334000D01*
X0537699Y0310500D02*
Y0331500D01*
X0540199Y0334000D01*
X0543699D01*
X0671699Y0235000D02*
Y0238500D01*
X0608699Y0255500D02*
Y0259000D01*
X0605699Y0252500D02*
X0608699Y0255500D01*
Y0268000D02*
X0611199Y0270500D01*
X0608699Y0256500D02*
Y0268000D01*
X0611199Y0270500D02*
Y0295500D01*
X0646699Y0248500D02*
X0653199D01*
X0671699Y0250000D02*
Y0257000D01*
X0527199Y0350500D02*
Y0351500D01*
X0611199Y0295500D02*
Y0308500D01*
X0543699Y0334000D02*
X0585699D01*
X0611199Y0308500D01*
X0596699Y0236000D02*
X0634199D01*
X0592699Y0240000D02*
X0596699Y0236000D01*
X0592699Y0240000D02*
Y0252500D01*
X0605699D01*
X0611199Y0270500D02*
X0622199D01*
X0639699Y0288000D01*
Y0357000D01*
X0632199Y0364500D02*
X0639699Y0357000D01*
X0653199Y0248500D02*
X0671199D01*
X0549199Y0297500D02*
Y0310500D01*
X0640199Y0222500D02*
X0658199Y0240500D01*
X0538699Y0310500D02*
X0549199D01*
X0537699D02*
X0538699D01*
X0592699Y0222500D02*
X0593199D01*
X0595199Y0224500D01*
X0600699D01*
X0602699Y0222500D01*
X0570699D02*
X0593199D01*
X0602699D02*
X0640199D01*
D44*
X0541199Y0413000D02*
G03*
X0527199Y0399000I-0000000J-0014000D01*
G01*
X0671699D02*
G03*
X0657699Y0413000I-0014000J0000000D01*
G01*
X0660699Y0210000D02*
G03*
X0671699Y0221000I0000000J0011000D01*
G01*
X0527199D02*
G03*
X0538199Y0210000I0011000J0000000D01*
G01*
X0527199Y0221000D02*
Y0399000D01*
X0671699Y0221000D02*
Y0399000D01*
X0538199Y0210000D02*
X0660699D01*
X0671699Y0399000D02*
X0671699D01*
X0541199Y0413000D02*
X0657699D01*
X0527199Y0399000D02*
X0527199D01*
D50*
X0530499Y0359000D02*
D03*
D51*
X0646125Y0243000D02*
D03*
X0638225D02*
D03*
X0630325D02*
D03*
X0622451D02*
D03*
X0614577D02*
D03*
X0590062Y0222000D02*
D03*
X0582162D02*
D03*
X0574262D02*
D03*
X0566388D02*
D03*
X0558514D02*
D03*
X0638099D02*
D03*
X0630199D02*
D03*
X0622325D02*
D03*
X0614451D02*
D03*
D52*
X0554199Y0403000D02*
D03*
Y0406000D02*
D03*
X0601199Y0403000D02*
D03*
Y0406000D02*
D03*
X0648199Y0403000D02*
D03*
Y0406000D02*
D03*
X0636199D02*
D03*
Y0403000D02*
D03*
X0589199Y0406000D02*
D03*
Y0403000D02*
D03*
X0542199D02*
D03*
Y0406000D02*
D03*
X0590199Y0279000D02*
D03*
X0587199D02*
D03*
X0584199D02*
D03*
X0584592Y0288200D02*
D03*
X0583699Y0284000D02*
D03*
X0579199D02*
D03*
X0589699Y0287500D02*
D03*
X0588199Y0284000D02*
D03*
X0570165Y0287534D02*
D03*
X0571699Y0309000D02*
D03*
X0569199D02*
D03*
X0566699D02*
D03*
X0555199Y0288500D02*
D03*
Y0299500D02*
D03*
Y0302000D02*
D03*
Y0304500D02*
D03*
X0586813Y0314500D02*
D03*
X0539813D02*
D03*
X0612199Y0230386D02*
D03*
X0575699Y0300614D02*
D03*
X0604199Y0283689D02*
D03*
X0607313Y0266000D02*
D03*
X0604085D02*
D03*
X0607813Y0254000D02*
D03*
X0593199Y0279000D02*
D03*
X0665199Y0288900D02*
D03*
X0648199Y0228000D02*
D03*
X0632699Y0249000D02*
D03*
X0618199Y0250500D02*
D03*
X0539699Y0232500D02*
D03*
X0536699D02*
D03*
X0533699D02*
D03*
X0654199Y0249500D02*
D03*
X0606199Y0216000D02*
D03*
X0648199Y0275500D02*
D03*
Y0278500D02*
D03*
Y0281500D02*
D03*
Y0284500D02*
D03*
Y0287500D02*
D03*
X0645199Y0278500D02*
D03*
Y0275500D02*
D03*
Y0281500D02*
D03*
X0630199Y0260500D02*
D03*
Y0263500D02*
D03*
Y0266500D02*
D03*
Y0269500D02*
D03*
Y0272500D02*
D03*
X0642199Y0275500D02*
D03*
X0668364Y0288840D02*
D03*
X0593199Y0233500D02*
D03*
X0537199Y0248500D02*
D03*
X0576066Y0260866D02*
D03*
X0583699Y0263500D02*
D03*
X0591699Y0317500D02*
D03*
X0586699Y0324000D02*
D03*
X0547199Y0287000D02*
D03*
X0564199Y0284500D02*
D03*
X0530699Y0329500D02*
D03*
X0531199Y0248228D02*
D03*
Y0256728D02*
D03*
Y0239728D02*
D03*
X0607699Y0308500D02*
D03*
X0534199Y0307000D02*
D03*
X0576928Y0318728D02*
D03*
X0536699Y0324300D02*
D03*
X0642199Y0281500D02*
D03*
Y0287500D02*
D03*
Y0284500D02*
D03*
X0593199Y0263500D02*
D03*
X0622199Y0318500D02*
D03*
X0650199Y0334000D02*
D03*
X0655199Y0331500D02*
D03*
Y0329000D02*
D03*
X0650199Y0326500D02*
D03*
X0657699D02*
D03*
Y0329000D02*
D03*
X0655199Y0326500D02*
D03*
Y0324000D02*
D03*
X0657699D02*
D03*
X0660199D02*
D03*
Y0326500D02*
D03*
Y0329000D02*
D03*
Y0321500D02*
D03*
X0657699D02*
D03*
X0655199D02*
D03*
X0652699D02*
D03*
Y0324000D02*
D03*
Y0326500D02*
D03*
Y0329000D02*
D03*
X0650199Y0324000D02*
D03*
Y0321500D02*
D03*
Y0329000D02*
D03*
Y0331500D02*
D03*
X0652699D02*
D03*
X0657699D02*
D03*
X0660199D02*
D03*
Y0334000D02*
D03*
X0657699D02*
D03*
X0655199D02*
D03*
X0652699D02*
D03*
X0660199Y0336500D02*
D03*
X0657699D02*
D03*
X0655199D02*
D03*
X0652699D02*
D03*
X0650199D02*
D03*
X0603199D02*
D03*
X0605699D02*
D03*
X0608199D02*
D03*
X0610699D02*
D03*
X0613199D02*
D03*
X0605699Y0334000D02*
D03*
X0608199D02*
D03*
X0610699D02*
D03*
X0613199D02*
D03*
Y0331500D02*
D03*
X0610699D02*
D03*
X0605699D02*
D03*
X0603199D02*
D03*
Y0329000D02*
D03*
Y0321500D02*
D03*
Y0324000D02*
D03*
X0605699Y0329000D02*
D03*
Y0326500D02*
D03*
Y0324000D02*
D03*
Y0321500D02*
D03*
X0608199D02*
D03*
X0610699D02*
D03*
X0613199D02*
D03*
Y0329000D02*
D03*
Y0326500D02*
D03*
Y0324000D02*
D03*
X0610699D02*
D03*
X0608199D02*
D03*
Y0326500D02*
D03*
X0610699Y0329000D02*
D03*
Y0326500D02*
D03*
X0603199D02*
D03*
X0608199Y0329000D02*
D03*
Y0331500D02*
D03*
X0603199Y0334000D02*
D03*
X0556199Y0336500D02*
D03*
X0558699D02*
D03*
X0561199D02*
D03*
X0563699D02*
D03*
X0566199D02*
D03*
X0558699Y0334000D02*
D03*
X0561199D02*
D03*
X0563699D02*
D03*
X0566199D02*
D03*
Y0331500D02*
D03*
X0563699D02*
D03*
X0558699D02*
D03*
X0556199D02*
D03*
Y0329000D02*
D03*
Y0321500D02*
D03*
Y0324000D02*
D03*
X0558699Y0329000D02*
D03*
Y0326500D02*
D03*
Y0324000D02*
D03*
Y0321500D02*
D03*
X0561199D02*
D03*
X0563699D02*
D03*
X0566199D02*
D03*
Y0329000D02*
D03*
Y0326500D02*
D03*
Y0324000D02*
D03*
X0563699D02*
D03*
X0561199D02*
D03*
Y0326500D02*
D03*
X0563699Y0329000D02*
D03*
Y0326500D02*
D03*
X0556199D02*
D03*
X0561199Y0329000D02*
D03*
Y0331500D02*
D03*
X0556199Y0334000D02*
D03*
X0639199Y0272500D02*
D03*
X0636199D02*
D03*
X0639199Y0269500D02*
D03*
Y0266500D02*
D03*
Y0260500D02*
D03*
Y0263500D02*
D03*
X0636199Y0266500D02*
D03*
Y0269500D02*
D03*
Y0260500D02*
D03*
Y0263642D02*
D03*
X0633199Y0272500D02*
D03*
Y0269500D02*
D03*
Y0266500D02*
D03*
Y0260500D02*
D03*
Y0263500D02*
D03*
X0659699Y0347500D02*
D03*
X0657199D02*
D03*
X0652199D02*
D03*
X0654699D02*
D03*
X0659699Y0342500D02*
D03*
X0649699Y0347500D02*
D03*
X0659699Y0345000D02*
D03*
X0634199D02*
D03*
Y0342500D02*
D03*
X0645199Y0293500D02*
D03*
X0642199D02*
D03*
X0636199D02*
D03*
X0639199D02*
D03*
X0626699Y0365000D02*
D03*
Y0367500D02*
D03*
X0624199D02*
D03*
Y0365000D02*
D03*
X0612699Y0347500D02*
D03*
X0631699Y0345000D02*
D03*
X0607699Y0347500D02*
D03*
X0610199D02*
D03*
X0605199D02*
D03*
X0602699D02*
D03*
X0631699Y0342500D02*
D03*
X0629199Y0345000D02*
D03*
X0612699Y0342500D02*
D03*
X0629199D02*
D03*
X0612699Y0345000D02*
D03*
X0642199Y0290500D02*
D03*
X0645199D02*
D03*
X0639199Y0287500D02*
D03*
Y0290500D02*
D03*
Y0284500D02*
D03*
X0636199Y0290500D02*
D03*
Y0287500D02*
D03*
X0633199Y0290500D02*
D03*
Y0287500D02*
D03*
X0645199Y0284500D02*
D03*
X0633199D02*
D03*
X0639199Y0281500D02*
D03*
X0636199Y0284500D02*
D03*
X0639199Y0278500D02*
D03*
X0633199Y0281500D02*
D03*
X0636199D02*
D03*
Y0278500D02*
D03*
Y0275500D02*
D03*
X0645199Y0287500D02*
D03*
X0633199Y0278500D02*
D03*
X0639199Y0275500D02*
D03*
X0642199Y0278500D02*
D03*
X0633199Y0275500D02*
D03*
X0579699Y0365000D02*
D03*
Y0367500D02*
D03*
Y0372500D02*
D03*
Y0370000D02*
D03*
X0587199Y0345000D02*
D03*
X0584699D02*
D03*
Y0342500D02*
D03*
X0582199Y0345000D02*
D03*
X0577199Y0370000D02*
D03*
Y0372500D02*
D03*
Y0367500D02*
D03*
Y0365000D02*
D03*
X0587199Y0342500D02*
D03*
X0582199D02*
D03*
X0565699D02*
D03*
X0560699Y0347500D02*
D03*
X0563199D02*
D03*
X0565699D02*
D03*
X0558199D02*
D03*
X0565699Y0345000D02*
D03*
X0555699Y0347500D02*
D03*
X0540199Y0345000D02*
D03*
X0537699D02*
D03*
X0535199D02*
D03*
X0540199Y0342500D02*
D03*
X0537699D02*
D03*
X0535199D02*
D03*
X0584199Y0233500D02*
D03*
X0534199Y0299000D02*
D03*
Y0288200D02*
D03*
X0624199Y0293500D02*
D03*
X0610699Y0308500D02*
D03*
Y0254000D02*
D03*
X0631199Y0295000D02*
D03*
X0596699Y0298500D02*
D03*
Y0301500D02*
D03*
Y0304500D02*
D03*
X0585199Y0300500D02*
D03*
X0530199Y0325728D02*
D03*
X0577699Y0329500D02*
D03*
X0624699D02*
D03*
X0624199Y0362500D02*
D03*
X0626699D02*
D03*
X0624199Y0360000D02*
D03*
Y0357500D02*
D03*
X0621699Y0362500D02*
D03*
Y0360000D02*
D03*
Y0357500D02*
D03*
X0577199Y0362500D02*
D03*
X0579699D02*
D03*
X0574699D02*
D03*
Y0360000D02*
D03*
X0577199D02*
D03*
X0582199Y0362500D02*
D03*
X0593955Y0354000D02*
D03*
X0546955D02*
D03*
X0640955D02*
D03*
X0629199Y0362500D02*
D03*
X0562699Y0232000D02*
D03*
Y0234500D02*
D03*
X0570199Y0242000D02*
D03*
X0573199D02*
D03*
X0584199Y0236500D02*
D03*
Y0239500D02*
D03*
Y0242500D02*
D03*
X0587199D02*
D03*
Y0239500D02*
D03*
Y0236500D02*
D03*
Y0233500D02*
D03*
X0590199D02*
D03*
Y0236500D02*
D03*
Y0239500D02*
D03*
Y0242500D02*
D03*
X0604199Y0290272D02*
D03*
X0627199Y0266500D02*
D03*
Y0263500D02*
D03*
X0642199Y0260500D02*
D03*
X0613140Y0288347D02*
D03*
X0609546Y0283559D02*
D03*
X0624199Y0266500D02*
D03*
X0600699Y0232000D02*
D03*
X0654443Y0309500D02*
D03*
X0567699Y0262000D02*
D03*
X0565099D02*
D03*
X0560199Y0247500D02*
D03*
X0593199Y0272000D02*
D03*
X0657168Y0295532D02*
D03*
X0653231D02*
D03*
X0657168Y0299468D02*
D03*
X0653231D02*
D03*
D53*
X0579199Y0404000D02*
D03*
X0626199D02*
D03*
X0660699Y0221000D02*
D03*
X0538199D02*
D03*
D54*
X0542239Y0271970D02*
D03*
M02*
