G04 Layer_Physical_Order=4*
G04 Layer_Color=16711680*
%FSAX25Y25*%
%MOIN*%
G70*
G01*
G75*
%ADD10R,0.01969X0.02047*%
%ADD11R,0.02165X0.01772*%
%ADD12R,0.02047X0.01969*%
%ADD14R,0.01772X0.02165*%
%ADD18R,0.02756X0.05118*%
%ADD30R,0.10236X0.03740*%
%ADD31R,0.09843X0.03740*%
%ADD40C,0.01000*%
%ADD41C,0.02000*%
%ADD42C,0.01500*%
%ADD45C,0.12205*%
%ADD47C,0.06300*%
%ADD48C,0.07087*%
%ADD49C,0.02000*%
%ADD55R,0.03200X0.03600*%
%ADD56R,0.22047X0.09606*%
%ADD57R,0.03504X0.09606*%
%ADD58R,0.09055X0.09055*%
%ADD59R,0.01969X0.01772*%
%ADD60R,0.03150X0.05512*%
%ADD61R,0.20866X0.05512*%
%ADD62R,0.02205X0.04701*%
%ADD63R,0.06693X0.03740*%
%ADD64R,0.03347X0.01772*%
%ADD65R,0.01772X0.03347*%
%ADD66R,0.07677X0.04331*%
%ADD67R,0.03937X0.04331*%
%ADD68O,0.01772X0.05512*%
%ADD69R,0.03937X0.01772*%
%ADD70R,0.06300X0.05500*%
%ADD71O,0.00984X0.06102*%
%ADD72O,0.06102X0.00984*%
%ADD73R,0.04331X0.04803*%
%ADD74R,0.03543X0.01969*%
%ADD75R,0.03937X0.06299*%
%ADD76R,0.01772X0.01181*%
%ADD77R,0.16000X0.12500*%
%ADD78O,0.04331X0.07480*%
G36*
X0565699Y0311250D02*
X0569849D01*
Y0310250D01*
X0570849D01*
Y0306500D01*
X0573675D01*
Y0306130D01*
X0573876D01*
Y0304976D01*
X0573199Y0304300D01*
X0565899D01*
Y0299772D01*
X0565437Y0299581D01*
X0557499Y0307519D01*
Y0313074D01*
X0565699D01*
Y0311250D01*
D02*
G37*
G36*
X0669699Y0300500D02*
X0661699D01*
Y0312000D01*
X0669699D01*
Y0300500D01*
D02*
G37*
G36*
X0528874Y0324045D02*
Y0314237D01*
X0528974Y0313730D01*
X0529262Y0313300D01*
X0533214Y0309348D01*
X0533023Y0308886D01*
X0532089D01*
Y0308000D01*
X0534073D01*
Y0307000D01*
X0535073D01*
Y0305114D01*
X0536057D01*
Y0307851D01*
X0540883D01*
Y0306000D01*
X0540945Y0305688D01*
X0541122Y0305423D01*
X0541387Y0305246D01*
X0541699Y0305184D01*
X0544699D01*
X0544699Y0305184D01*
X0545011Y0305246D01*
X0545276Y0305423D01*
X0545276Y0305423D01*
X0545414Y0305561D01*
X0545876Y0305370D01*
Y0304870D01*
X0545676D01*
Y0303886D01*
X0547699D01*
Y0302886D01*
X0548699D01*
Y0300902D01*
X0549399D01*
Y0297000D01*
X0552549D01*
Y0300750D01*
X0553549D01*
Y0301750D01*
X0557699D01*
Y0302917D01*
X0558161Y0303108D01*
X0564687Y0296582D01*
X0564441Y0296121D01*
X0564404Y0296129D01*
X0563900Y0296028D01*
X0563815Y0295972D01*
X0563420Y0295770D01*
X0563024Y0295972D01*
X0562940Y0296028D01*
X0562435Y0296129D01*
X0561931Y0296028D01*
X0561504Y0295743D01*
X0561218Y0295315D01*
X0561118Y0294811D01*
Y0293826D01*
X0559448D01*
Y0294324D01*
X0557722D01*
X0557664Y0294335D01*
X0557605Y0294324D01*
X0556420D01*
Y0294524D01*
X0555435D01*
Y0292500D01*
Y0290476D01*
X0556420D01*
Y0290676D01*
X0557605D01*
X0557664Y0290665D01*
X0557722Y0290676D01*
X0559448D01*
Y0291175D01*
X0561118D01*
Y0289693D01*
X0561218Y0289189D01*
X0561504Y0288761D01*
X0561931Y0288476D01*
X0562435Y0288375D01*
X0562940Y0288476D01*
X0563024Y0288532D01*
X0563420Y0288734D01*
X0563815Y0288532D01*
X0563900Y0288476D01*
X0564404Y0288375D01*
X0564908Y0288476D01*
X0564993Y0288532D01*
X0565388Y0288734D01*
X0565784Y0288532D01*
X0565868Y0288476D01*
X0566372Y0288375D01*
X0566877Y0288476D01*
X0566961Y0288532D01*
X0567357Y0288734D01*
X0567752Y0288532D01*
X0567837Y0288476D01*
X0568038Y0288436D01*
X0568048Y0288431D01*
X0568396Y0287931D01*
X0568401Y0287893D01*
X0568329Y0287534D01*
X0568469Y0286832D01*
X0568867Y0286237D01*
X0569462Y0285839D01*
X0570165Y0285699D01*
X0570867Y0285839D01*
X0571421Y0286209D01*
X0572164D01*
X0572336Y0286175D01*
X0572844Y0286275D01*
X0573274Y0286563D01*
X0574791Y0288080D01*
X0575371Y0287953D01*
X0577913Y0285412D01*
X0577901Y0285298D01*
X0577504Y0284702D01*
X0577498Y0284673D01*
X0577462Y0284637D01*
X0577175Y0284207D01*
X0577074Y0283700D01*
Y0262913D01*
X0576574Y0262601D01*
X0576115Y0262692D01*
X0573769Y0265037D01*
X0573339Y0265325D01*
X0572832Y0265425D01*
X0564229D01*
X0563722Y0265325D01*
X0563292Y0265037D01*
X0561762Y0263507D01*
X0561475Y0263077D01*
X0561374Y0262570D01*
Y0254372D01*
X0559262Y0252260D01*
X0558975Y0251830D01*
X0558874Y0251322D01*
Y0248756D01*
X0558504Y0248202D01*
X0558364Y0247500D01*
X0558504Y0246798D01*
X0558901Y0246202D01*
X0559497Y0245804D01*
X0560199Y0245665D01*
X0560610Y0245746D01*
X0561110Y0245388D01*
Y0242524D01*
X0560585D01*
Y0240500D01*
X0558585D01*
Y0242524D01*
X0557715D01*
Y0243000D01*
X0557676Y0243194D01*
Y0243357D01*
X0557776Y0243423D01*
X0557953Y0243688D01*
X0558015Y0244000D01*
X0558015Y0244901D01*
X0558034Y0245000D01*
X0558015Y0245098D01*
X0558015Y0245500D01*
X0557953Y0245812D01*
X0557776Y0246077D01*
X0557776Y0246077D01*
X0556276Y0247577D01*
X0556011Y0247754D01*
X0555699Y0247816D01*
X0555699Y0247816D01*
X0549043Y0247816D01*
X0548851Y0248278D01*
X0552233Y0251660D01*
X0552521Y0252090D01*
X0552622Y0252597D01*
Y0254200D01*
X0552888Y0254419D01*
X0558006D01*
X0558510Y0254519D01*
X0558938Y0254805D01*
X0559223Y0255232D01*
X0559324Y0255736D01*
X0559223Y0256240D01*
X0559167Y0256325D01*
X0558965Y0256720D01*
X0559167Y0257116D01*
X0559223Y0257201D01*
X0559324Y0257705D01*
X0559223Y0258209D01*
X0559167Y0258293D01*
X0558965Y0258689D01*
X0559167Y0259085D01*
X0559223Y0259169D01*
X0559324Y0259673D01*
X0559223Y0260177D01*
X0559167Y0260262D01*
X0558965Y0260658D01*
X0559167Y0261053D01*
X0559223Y0261138D01*
X0559324Y0261642D01*
X0559223Y0262146D01*
X0559167Y0262230D01*
X0558965Y0262626D01*
X0559167Y0263022D01*
X0559223Y0263106D01*
X0559324Y0263610D01*
X0559223Y0264114D01*
X0559167Y0264199D01*
X0558965Y0264595D01*
X0559167Y0264990D01*
X0559223Y0265075D01*
X0559324Y0265579D01*
X0559223Y0266083D01*
X0559167Y0266167D01*
X0558965Y0266563D01*
X0559167Y0266959D01*
X0559223Y0267043D01*
X0559324Y0267547D01*
X0559223Y0268051D01*
X0559167Y0268136D01*
X0558965Y0268531D01*
X0559167Y0268927D01*
X0559223Y0269012D01*
X0559324Y0269516D01*
X0559223Y0270020D01*
X0559167Y0270104D01*
X0558965Y0270500D01*
X0559167Y0270896D01*
X0559223Y0270980D01*
X0559324Y0271484D01*
X0559223Y0271988D01*
X0559167Y0272073D01*
X0558965Y0272468D01*
X0559167Y0272864D01*
X0559223Y0272949D01*
X0559324Y0273453D01*
X0559223Y0273957D01*
X0559167Y0274041D01*
X0558965Y0274437D01*
X0559167Y0274833D01*
X0559223Y0274917D01*
X0559324Y0275421D01*
X0559223Y0275925D01*
X0559593Y0276164D01*
X0559596Y0276165D01*
X0559596Y0276165D01*
X0560026Y0276452D01*
X0565136Y0281563D01*
X0565424Y0281993D01*
X0565525Y0282500D01*
Y0283244D01*
X0565895Y0283798D01*
X0566034Y0284500D01*
X0565895Y0285202D01*
X0565497Y0285798D01*
X0564901Y0286196D01*
X0564199Y0286335D01*
X0563497Y0286196D01*
X0562901Y0285798D01*
X0562504Y0285202D01*
X0562364Y0284500D01*
X0562504Y0283798D01*
X0562874Y0283244D01*
Y0283049D01*
X0559716Y0279891D01*
X0559243Y0279990D01*
X0559022Y0280455D01*
X0559167Y0280738D01*
X0559223Y0280823D01*
X0559324Y0281327D01*
X0559223Y0281831D01*
X0559055Y0282083D01*
X0559082Y0282220D01*
X0559133Y0282295D01*
X0558883D01*
X0558510Y0282544D01*
X0558006Y0282644D01*
X0555447D01*
Y0283938D01*
X0555487Y0283946D01*
X0558006D01*
X0558510Y0284047D01*
X0558883Y0284295D01*
X0559133D01*
X0559082Y0284371D01*
X0559055Y0284507D01*
X0559223Y0284760D01*
X0559324Y0285264D01*
X0559223Y0285768D01*
X0558938Y0286195D01*
X0558510Y0286481D01*
X0558006Y0286581D01*
X0555488D01*
X0555447Y0286589D01*
X0553087D01*
X0552523Y0287154D01*
Y0288473D01*
X0551100D01*
X0548901Y0290673D01*
X0548895Y0290702D01*
X0548497Y0291298D01*
X0547901Y0291696D01*
X0547199Y0291835D01*
X0546497Y0291696D01*
X0546324Y0291580D01*
X0542699D01*
X0542094Y0291460D01*
X0541582Y0291118D01*
X0538432Y0287968D01*
X0538090Y0287455D01*
X0537969Y0286851D01*
Y0285762D01*
X0537010D01*
Y0278650D01*
X0538464D01*
X0538581Y0278150D01*
X0538262Y0277937D01*
X0535490Y0275166D01*
X0535203Y0274736D01*
X0535102Y0274228D01*
Y0267179D01*
X0534602Y0266972D01*
X0534125Y0267449D01*
Y0281893D01*
X0534395Y0282298D01*
X0534534Y0283000D01*
X0534395Y0283702D01*
X0533997Y0284298D01*
X0533401Y0284696D01*
X0532699Y0284835D01*
X0531997Y0284696D01*
X0531537Y0284389D01*
X0531199Y0284332D01*
X0530861Y0284389D01*
X0530401Y0284696D01*
X0529699Y0284835D01*
X0528997Y0284696D01*
X0528821Y0284578D01*
X0528321Y0284845D01*
Y0323833D01*
X0528821Y0324084D01*
X0528874Y0324045D01*
D02*
G37*
G36*
X0587437Y0245028D02*
X0587522Y0244972D01*
X0588026Y0244871D01*
X0588530Y0244972D01*
X0588647Y0245050D01*
X0589057Y0244969D01*
X0591474Y0242552D01*
Y0237400D01*
X0591574Y0236893D01*
X0591862Y0236463D01*
X0591939Y0236386D01*
X0591732Y0235886D01*
X0591325D01*
Y0235000D01*
X0592309D01*
Y0235308D01*
X0592809Y0235515D01*
X0595162Y0233163D01*
X0595592Y0232875D01*
X0596099Y0232774D01*
X0598508D01*
X0598918Y0232275D01*
X0598874Y0232049D01*
X0592179Y0225354D01*
X0592054Y0225450D01*
X0591093Y0225848D01*
X0590062Y0225984D01*
X0589031Y0225848D01*
X0588070Y0225450D01*
X0587245Y0224817D01*
X0586612Y0223992D01*
X0586383Y0223439D01*
X0585842D01*
X0585612Y0223992D01*
X0584979Y0224817D01*
X0584154Y0225450D01*
X0583193Y0225848D01*
X0582162Y0225984D01*
X0581131Y0225848D01*
X0580170Y0225450D01*
X0579345Y0224817D01*
X0578712Y0223992D01*
X0578483Y0223439D01*
X0577942D01*
X0577712Y0223992D01*
X0577079Y0224817D01*
X0576254Y0225450D01*
X0575293Y0225848D01*
X0574262Y0225984D01*
X0573231Y0225848D01*
X0572723Y0225638D01*
D01*
D01*
D01*
X0572723D01*
X0567829D01*
X0567483Y0225984D01*
X0564683Y0225984D01*
X0564255Y0225556D01*
X0560755D01*
X0560699Y0225500D01*
Y0232800D01*
X0560699Y0234500D01*
X0559679Y0235520D01*
X0557999D01*
Y0238633D01*
X0562566Y0238633D01*
X0563199Y0238000D01*
X0564699D01*
X0564699Y0229500D01*
X0565515Y0228684D01*
X0572298D01*
X0572298Y0228684D01*
X0575101D01*
X0575101Y0228684D01*
X0575298D01*
X0575298Y0228684D01*
X0578101D01*
X0578101Y0228684D01*
X0578298D01*
X0578298Y0228684D01*
X0581101D01*
X0581101Y0228684D01*
X0581298D01*
X0581298Y0228684D01*
X0582199D01*
X0582511Y0228746D01*
X0582776Y0228923D01*
X0582953Y0229188D01*
X0583015Y0229500D01*
Y0230401D01*
X0583034Y0230500D01*
X0583015Y0230598D01*
Y0233401D01*
X0583034Y0233500D01*
X0583015Y0233598D01*
Y0237000D01*
X0583015Y0237000D01*
X0582953Y0237312D01*
X0582776Y0237577D01*
X0581276Y0239077D01*
X0581011Y0239254D01*
X0580699Y0239316D01*
X0580699Y0239316D01*
X0573758D01*
X0573389Y0239684D01*
X0573596Y0240184D01*
X0573699D01*
X0573699Y0240184D01*
X0574011Y0240246D01*
X0574276Y0240423D01*
X0574276Y0240423D01*
X0574776Y0240923D01*
X0574776Y0240923D01*
X0574953Y0241188D01*
X0574953Y0241188D01*
X0574978Y0241313D01*
X0575015Y0241500D01*
X0575015Y0241500D01*
X0575015Y0241902D01*
X0575034Y0242000D01*
X0575015Y0242098D01*
X0575015Y0242500D01*
X0574953Y0242812D01*
X0574776Y0243077D01*
X0574776Y0243077D01*
X0574276Y0243577D01*
X0574276Y0243577D01*
X0574011Y0243754D01*
X0573699Y0243816D01*
X0573699Y0243816D01*
X0573298D01*
X0573199Y0243835D01*
X0573101Y0243816D01*
X0570374Y0243816D01*
X0569964Y0244177D01*
X0569964Y0244541D01*
X0570309Y0244871D01*
X0570814Y0244972D01*
X0570898Y0245028D01*
X0571294Y0245231D01*
X0571689Y0245028D01*
X0571774Y0244972D01*
X0572278Y0244871D01*
X0572782Y0244972D01*
X0572866Y0245028D01*
X0573262Y0245231D01*
X0573658Y0245028D01*
X0573742Y0244972D01*
X0574246Y0244871D01*
X0574751Y0244972D01*
X0574835Y0245028D01*
X0575231Y0245231D01*
X0575626Y0245028D01*
X0575711Y0244972D01*
X0576215Y0244871D01*
X0576719Y0244972D01*
X0576803Y0245028D01*
X0577199Y0245231D01*
X0577595Y0245028D01*
X0577679Y0244972D01*
X0578183Y0244871D01*
X0578687Y0244972D01*
X0578772Y0245028D01*
X0579168Y0245231D01*
X0579563Y0245028D01*
X0579648Y0244972D01*
X0580152Y0244871D01*
X0580656Y0244972D01*
X0580740Y0245028D01*
X0581136Y0245231D01*
X0581532Y0245028D01*
X0581616Y0244972D01*
X0582120Y0244871D01*
X0582624Y0244972D01*
X0582709Y0245028D01*
X0583105Y0245231D01*
X0583500Y0245028D01*
X0583585Y0244972D01*
X0584089Y0244871D01*
X0584593Y0244972D01*
X0584678Y0245028D01*
X0585073Y0245231D01*
X0585469Y0245028D01*
X0585553Y0244972D01*
X0586057Y0244871D01*
X0586561Y0244972D01*
X0586646Y0245028D01*
X0587042Y0245231D01*
X0587437Y0245028D01*
D02*
G37*
G36*
X0574199Y0242500D02*
X0574199Y0241500D01*
X0573699Y0241000D01*
X0569699Y0241000D01*
X0569199Y0241500D01*
X0569199Y0242500D01*
X0569699Y0243000D01*
X0573699Y0243000D01*
X0574199Y0242500D01*
D02*
G37*
G36*
X0652199Y0307500D02*
X0660699D01*
Y0301500D01*
X0634199D01*
X0633199Y0302500D01*
X0626199D01*
X0623199Y0299500D01*
X0612199Y0299500D01*
X0612199Y0304500D01*
X0616199Y0308500D01*
X0651199Y0308500D01*
X0652199Y0307500D01*
D02*
G37*
G36*
X0575699Y0331500D02*
X0575699Y0321000D01*
X0553199Y0321000D01*
Y0338000D01*
X0569199Y0338000D01*
X0575699Y0331500D01*
D02*
G37*
G36*
X0622699D02*
X0622699Y0321000D01*
X0600199Y0321000D01*
Y0338000D01*
X0616199Y0338000D01*
X0622699Y0331500D01*
D02*
G37*
G36*
X0579443Y0337500D02*
Y0334201D01*
X0579573Y0333543D01*
X0579836Y0333150D01*
Y0326511D01*
X0578238Y0324914D01*
X0577951Y0324484D01*
X0577850Y0323976D01*
Y0320832D01*
X0577350Y0320479D01*
X0576928Y0320564D01*
X0576925Y0320563D01*
X0576513Y0320991D01*
X0576515Y0321000D01*
X0576515Y0331500D01*
X0576515Y0331500D01*
X0576453Y0331812D01*
X0576276Y0332077D01*
X0576276Y0332077D01*
X0570815Y0337538D01*
X0571006Y0338000D01*
X0578967D01*
X0579443Y0337500D01*
D02*
G37*
G36*
X0557199Y0245500D02*
X0557199Y0244000D01*
X0552199D01*
X0551699Y0243500D01*
X0551699Y0237500D01*
X0541199D01*
Y0243000D01*
X0545199Y0247000D01*
X0555699Y0247000D01*
X0557199Y0245500D01*
D02*
G37*
G36*
X0548699Y0309500D02*
X0548699Y0308500D01*
X0548199Y0308000D01*
X0546699Y0308000D01*
X0544699Y0306000D01*
X0541699D01*
Y0308000D01*
X0543199D01*
X0545199Y0310000D01*
X0548199Y0310000D01*
X0548699Y0309500D01*
D02*
G37*
G36*
X0668699Y0262000D02*
X0657199D01*
X0654199Y0259000D01*
X0628374Y0259000D01*
X0622699Y0264674D01*
X0622699Y0268000D01*
X0628699Y0268000D01*
X0628699Y0273500D01*
X0649199Y0273500D01*
X0650199Y0274500D01*
Y0278000D01*
X0668699D01*
Y0262000D01*
D02*
G37*
G36*
X0625699Y0276500D02*
X0625699Y0275000D01*
X0627699Y0273000D01*
X0627699Y0269000D01*
X0621199Y0269000D01*
X0616699Y0273500D01*
Y0276500D01*
X0625699Y0276500D01*
D02*
G37*
G36*
X0630874Y0248951D02*
X0631004Y0248298D01*
X0631401Y0247702D01*
X0631997Y0247304D01*
X0632699Y0247165D01*
X0633401Y0247304D01*
X0633997Y0247702D01*
X0634395Y0248298D01*
X0634432Y0248485D01*
X0634975Y0248650D01*
X0636316Y0247308D01*
Y0246543D01*
X0635946Y0246230D01*
X0635408Y0245817D01*
X0634775Y0244992D01*
X0634546Y0244439D01*
X0634004D01*
X0633775Y0244992D01*
X0633142Y0245817D01*
X0632317Y0246450D01*
X0631356Y0246848D01*
X0630325Y0246984D01*
X0629294Y0246848D01*
X0628627Y0246572D01*
X0626262Y0248937D01*
X0625832Y0249225D01*
X0625325Y0249325D01*
X0620154D01*
X0619898Y0249738D01*
X0619900Y0249826D01*
X0620034Y0250500D01*
X0619895Y0251202D01*
X0619497Y0251798D01*
X0618901Y0252196D01*
X0618199Y0252335D01*
X0617497Y0252196D01*
X0616943Y0251825D01*
X0610235D01*
X0609797Y0251976D01*
Y0253000D01*
X0607813D01*
Y0255000D01*
X0609797D01*
Y0255476D01*
Y0257382D01*
X0610297Y0257745D01*
X0610699Y0257665D01*
X0611401Y0257804D01*
X0611997Y0258202D01*
X0612395Y0258798D01*
X0612534Y0259500D01*
X0612480Y0259774D01*
X0612890Y0260275D01*
X0619550D01*
X0630874Y0248951D01*
D02*
G37*
G36*
X0670578Y0288178D02*
Y0221000D01*
X0670590Y0220935D01*
X0670407Y0219069D01*
X0669843Y0217212D01*
X0668929Y0215501D01*
X0667698Y0214001D01*
X0666198Y0212770D01*
X0664487Y0211856D01*
X0662630Y0211293D01*
X0660764Y0211109D01*
X0660699Y0211122D01*
X0538199D01*
X0538134Y0211109D01*
X0536268Y0211293D01*
X0534411Y0211856D01*
X0532700Y0212770D01*
X0531200Y0214001D01*
X0529970Y0215501D01*
X0529055Y0217212D01*
X0528492Y0219069D01*
X0528308Y0220935D01*
X0528321Y0221000D01*
Y0231851D01*
X0528783Y0232042D01*
X0532262Y0228563D01*
X0532692Y0228275D01*
X0533199Y0228174D01*
X0535661D01*
X0535735Y0227675D01*
X0535468Y0227593D01*
X0534234Y0226934D01*
X0533153Y0226046D01*
X0532265Y0224965D01*
X0531606Y0223731D01*
X0531200Y0222392D01*
X0531161Y0222000D01*
X0545237D01*
X0545199Y0222392D01*
X0545178Y0222461D01*
X0545607Y0222718D01*
X0555534Y0212791D01*
X0555964Y0212504D01*
X0556471Y0212403D01*
X0564316D01*
Y0212042D01*
X0568082D01*
Y0212403D01*
X0572316D01*
Y0212042D01*
X0576082D01*
Y0212403D01*
X0580316D01*
Y0212042D01*
X0584082D01*
Y0212403D01*
X0588316D01*
Y0212042D01*
X0592082D01*
Y0212403D01*
X0596427D01*
X0596935Y0212504D01*
X0597365Y0212791D01*
X0604636Y0220063D01*
X0604924Y0220493D01*
X0605025Y0221000D01*
Y0223244D01*
X0605395Y0223798D01*
X0605534Y0224500D01*
X0605395Y0225202D01*
X0604997Y0225798D01*
X0604401Y0226196D01*
X0603699Y0226335D01*
X0602997Y0226196D01*
X0602401Y0225798D01*
X0602004Y0225202D01*
X0601864Y0224500D01*
X0602004Y0223798D01*
X0602374Y0223244D01*
Y0222387D01*
X0601874Y0222354D01*
X0601785Y0223031D01*
X0601386Y0223992D01*
X0600753Y0224817D01*
X0599928Y0225450D01*
X0598967Y0225848D01*
X0597936Y0225984D01*
X0597163Y0225882D01*
X0596930Y0226356D01*
X0600748Y0230174D01*
X0601401Y0230304D01*
X0601997Y0230702D01*
X0602395Y0231298D01*
X0602534Y0232000D01*
X0602480Y0232275D01*
X0602890Y0232774D01*
X0604050D01*
X0609600Y0227224D01*
X0610031Y0226937D01*
X0610538Y0226836D01*
X0613812D01*
Y0226476D01*
X0614354D01*
X0614387Y0225976D01*
X0614043Y0225930D01*
X0613420Y0225848D01*
X0612459Y0225450D01*
X0611634Y0224817D01*
X0611001Y0223992D01*
X0610603Y0223031D01*
X0610467Y0222000D01*
X0610603Y0220969D01*
X0611001Y0220008D01*
X0611634Y0219183D01*
X0612459Y0218550D01*
X0613420Y0218152D01*
X0614451Y0218016D01*
X0614742Y0217761D01*
Y0214617D01*
X0618113D01*
Y0214617D01*
X0618285D01*
Y0214617D01*
X0621657D01*
Y0217725D01*
X0622032Y0218054D01*
X0622325Y0218016D01*
X0623356Y0218152D01*
X0623768Y0218322D01*
X0626208Y0215882D01*
X0626720Y0215540D01*
X0627325Y0215420D01*
X0633099D01*
X0633704Y0215540D01*
X0634217Y0215882D01*
X0636656Y0218322D01*
X0637068Y0218152D01*
X0638099Y0218016D01*
X0639130Y0218152D01*
X0640091Y0218550D01*
X0640916Y0219183D01*
X0641549Y0220008D01*
X0641948Y0220969D01*
X0642083Y0222000D01*
X0641948Y0223031D01*
X0641549Y0223992D01*
X0640916Y0224817D01*
X0640091Y0225450D01*
X0639675Y0225623D01*
X0639559Y0226205D01*
X0639217Y0226717D01*
X0631537Y0234397D01*
X0631024Y0234740D01*
X0630420Y0234860D01*
X0629586D01*
Y0237524D01*
X0624049D01*
Y0234153D01*
Y0231594D01*
Y0229035D01*
Y0226476D01*
X0628619D01*
Y0225621D01*
X0628207Y0225450D01*
X0627382Y0224817D01*
X0626749Y0223992D01*
X0626533Y0223470D01*
X0625991D01*
X0625775Y0223992D01*
X0625142Y0224817D01*
X0624317Y0225450D01*
X0623356Y0225848D01*
X0622325Y0225984D01*
X0621294Y0225848D01*
X0620333Y0225450D01*
X0619508Y0224817D01*
X0618875Y0223992D01*
X0618659Y0223470D01*
X0618118D01*
X0617901Y0223992D01*
X0617268Y0224817D01*
X0616443Y0225450D01*
X0615482Y0225848D01*
X0614859Y0225930D01*
X0614515Y0225976D01*
X0614548Y0226476D01*
X0619349D01*
Y0228835D01*
X0619550D01*
Y0229720D01*
X0619350D01*
Y0229847D01*
X0616581D01*
Y0231593D01*
X0619350D01*
Y0231720D01*
X0619550D01*
Y0232606D01*
X0619349D01*
Y0237524D01*
X0613812D01*
Y0237164D01*
X0602861D01*
X0602468Y0237664D01*
X0602534Y0238000D01*
X0602395Y0238702D01*
X0601997Y0239298D01*
Y0239702D01*
X0602395Y0240298D01*
X0602534Y0241000D01*
X0602395Y0241702D01*
X0601997Y0242298D01*
Y0242702D01*
X0602395Y0243298D01*
X0602534Y0244000D01*
X0602395Y0244702D01*
X0601997Y0245298D01*
Y0245702D01*
X0602395Y0246298D01*
X0602505Y0246850D01*
X0602929Y0247042D01*
X0603016Y0247052D01*
X0603429Y0246775D01*
X0603936Y0246674D01*
X0611727D01*
X0611897Y0246175D01*
X0611617Y0245960D01*
X0610952Y0245093D01*
X0610534Y0244083D01*
X0610523Y0244000D01*
X0614577D01*
Y0243000D01*
X0615577D01*
Y0238946D01*
X0615660Y0238957D01*
X0616670Y0239375D01*
X0617537Y0240040D01*
X0618202Y0240907D01*
X0618352Y0241268D01*
X0618893D01*
X0619001Y0241008D01*
X0619634Y0240183D01*
X0620459Y0239550D01*
X0621420Y0239152D01*
X0622451Y0239016D01*
X0623482Y0239152D01*
X0624443Y0239550D01*
X0625268Y0240183D01*
X0625901Y0241008D01*
X0626118Y0241530D01*
X0626659D01*
X0626875Y0241008D01*
X0627508Y0240183D01*
X0628333Y0239550D01*
X0629294Y0239152D01*
X0630325Y0239016D01*
X0631356Y0239152D01*
X0632317Y0239550D01*
X0633142Y0240183D01*
X0633775Y0241008D01*
X0634004Y0241561D01*
X0634546D01*
X0634775Y0241008D01*
X0635408Y0240183D01*
X0636233Y0239550D01*
X0637194Y0239152D01*
X0638225Y0239016D01*
X0639256Y0239152D01*
X0640217Y0239550D01*
X0641042Y0240183D01*
X0641675Y0241008D01*
X0641904Y0241561D01*
X0642446D01*
X0642675Y0241008D01*
X0643308Y0240183D01*
X0644133Y0239550D01*
X0645094Y0239152D01*
X0646125Y0239016D01*
X0647156Y0239152D01*
X0648117Y0239550D01*
X0648942Y0240183D01*
X0649575Y0241008D01*
X0649765Y0241467D01*
X0650307D01*
X0650497Y0241008D01*
X0651130Y0240183D01*
X0651955Y0239550D01*
X0652916Y0239152D01*
X0653947Y0239016D01*
X0654978Y0239152D01*
X0655939Y0239550D01*
X0656764Y0240183D01*
X0657398Y0241008D01*
X0657614Y0241530D01*
X0658155D01*
X0658371Y0241008D01*
X0659004Y0240183D01*
X0659829Y0239550D01*
X0660790Y0239152D01*
X0661821Y0239016D01*
X0662852Y0239152D01*
X0663813Y0239550D01*
X0664638Y0240183D01*
X0665272Y0241008D01*
X0665669Y0241969D01*
X0665805Y0243000D01*
X0665669Y0244031D01*
X0665272Y0244992D01*
X0664638Y0245817D01*
X0663813Y0246450D01*
X0662852Y0246848D01*
X0661821Y0246984D01*
X0660790Y0246848D01*
X0659829Y0246450D01*
X0659004Y0245817D01*
X0658371Y0244992D01*
X0658155Y0244470D01*
X0657614D01*
X0657398Y0244992D01*
X0656764Y0245817D01*
X0655939Y0246450D01*
X0654978Y0246848D01*
X0653947Y0246984D01*
X0652987Y0246858D01*
X0648082Y0251764D01*
Y0253457D01*
X0644316D01*
Y0253097D01*
X0640082D01*
Y0253457D01*
X0636316D01*
Y0251710D01*
X0635854Y0251519D01*
X0629651Y0257722D01*
X0629843Y0258184D01*
X0654199Y0258184D01*
X0654511Y0258246D01*
X0654776Y0258423D01*
X0655937Y0259584D01*
X0656479Y0259419D01*
X0656504Y0259298D01*
X0656901Y0258702D01*
X0657497Y0258304D01*
X0658199Y0258165D01*
X0658901Y0258304D01*
X0659361Y0258611D01*
X0659699Y0258668D01*
X0660037Y0258611D01*
X0660497Y0258304D01*
X0661199Y0258165D01*
X0661901Y0258304D01*
X0662361Y0258611D01*
X0662699Y0258668D01*
X0663037Y0258611D01*
X0663497Y0258304D01*
X0664199Y0258165D01*
X0664901Y0258304D01*
X0665361Y0258611D01*
X0665699Y0258668D01*
X0666037Y0258611D01*
X0666497Y0258304D01*
X0667199Y0258165D01*
X0667901Y0258304D01*
X0668497Y0258702D01*
X0668895Y0259298D01*
X0669034Y0260000D01*
X0668895Y0260702D01*
X0668888Y0260712D01*
X0668978Y0261102D01*
X0669095Y0261302D01*
X0669276Y0261423D01*
X0669453Y0261688D01*
X0669515Y0262000D01*
Y0278000D01*
X0669453Y0278312D01*
X0669276Y0278577D01*
X0669095Y0278698D01*
X0668978Y0278898D01*
X0668888Y0279288D01*
X0668895Y0279298D01*
X0669034Y0280000D01*
X0668895Y0280702D01*
X0668829Y0280800D01*
X0669096Y0281300D01*
X0669101D01*
Y0286028D01*
X0669301Y0286228D01*
X0669589Y0286658D01*
X0669690Y0287165D01*
Y0287583D01*
X0670060Y0288137D01*
X0670078Y0288227D01*
X0670578Y0288178D01*
D02*
G37*
G36*
X0545749Y0274305D02*
X0546179Y0274018D01*
X0546686Y0273917D01*
X0548503D01*
X0548695Y0273455D01*
X0541490Y0266251D01*
X0541203Y0265821D01*
X0541102Y0265313D01*
Y0265290D01*
X0537753D01*
Y0273679D01*
X0539748Y0275675D01*
X0544380D01*
X0545749Y0274305D01*
D02*
G37*
G36*
X0663699Y0279000D02*
X0650199D01*
Y0287000D01*
X0663699D01*
Y0279000D01*
D02*
G37*
G36*
X0545955Y0253655D02*
X0544925Y0252625D01*
X0543004D01*
X0542497Y0252525D01*
X0542067Y0252237D01*
X0535885Y0246055D01*
X0535719Y0246085D01*
X0535396Y0246274D01*
Y0254117D01*
X0538113D01*
Y0254117D01*
X0538285D01*
Y0254117D01*
X0544113D01*
Y0254117D01*
X0544285D01*
Y0254117D01*
X0545763D01*
X0545955Y0253655D01*
D02*
G37*
G36*
X0633622Y0300923D02*
X0633622Y0300923D01*
X0633887Y0300746D01*
X0634199Y0300684D01*
X0634199Y0300684D01*
X0660699D01*
X0660883Y0300533D01*
Y0300500D01*
X0660946Y0300188D01*
X0661122Y0299923D01*
X0661387Y0299746D01*
X0661699Y0299684D01*
X0662601D01*
X0662699Y0299665D01*
X0662798Y0299684D01*
X0665601D01*
X0665699Y0299665D01*
X0665798Y0299684D01*
X0669699D01*
X0670011Y0299746D01*
X0670078Y0299791D01*
X0670578Y0299543D01*
Y0289501D01*
X0670078Y0289452D01*
X0670060Y0289542D01*
X0669662Y0290137D01*
X0669119Y0290500D01*
X0667609Y0290500D01*
X0667066Y0290137D01*
X0667052Y0290115D01*
X0666552D01*
X0666497Y0290198D01*
X0666045Y0290500D01*
X0664354Y0290500D01*
X0663901Y0290198D01*
X0663504Y0289602D01*
X0663364Y0288900D01*
X0663480Y0288316D01*
X0663275Y0287946D01*
X0663157Y0287816D01*
X0662798D01*
X0662699Y0287835D01*
X0662601Y0287816D01*
X0659798D01*
X0659699Y0287835D01*
X0659601Y0287816D01*
X0656798D01*
X0656699Y0287835D01*
X0656601Y0287816D01*
X0653798D01*
X0653699Y0287835D01*
X0653601Y0287816D01*
X0650199D01*
X0649887Y0287754D01*
X0649622Y0287577D01*
X0649445Y0287312D01*
X0649383Y0287000D01*
Y0279000D01*
X0649445Y0278688D01*
X0649571Y0278500D01*
X0649445Y0278312D01*
X0649383Y0278000D01*
Y0274838D01*
X0648861Y0274316D01*
X0639298Y0274316D01*
X0639199Y0274335D01*
X0639101Y0274316D01*
X0636298Y0274316D01*
X0636199Y0274335D01*
X0636100Y0274316D01*
X0633298D01*
X0633199Y0274335D01*
X0633101Y0274316D01*
X0630298Y0274316D01*
X0630199Y0274335D01*
X0630100Y0274316D01*
X0629814D01*
X0628129Y0276000D01*
X0628125D01*
X0628125Y0283143D01*
Y0288814D01*
X0629082D01*
X0629104Y0288500D01*
X0630199D01*
Y0290203D01*
X0631199D01*
Y0291203D01*
X0633199D01*
Y0291500D01*
X0633282D01*
Y0292089D01*
X0633082D01*
Y0295151D01*
X0633098D01*
Y0298798D01*
X0633082D01*
Y0300811D01*
X0633544Y0301002D01*
X0633622Y0300923D01*
D02*
G37*
G36*
X0593451Y0264641D02*
X0593881Y0264354D01*
X0594388Y0264253D01*
X0594489D01*
X0594899Y0263753D01*
X0594871Y0263610D01*
X0594986Y0263028D01*
X0595316Y0262534D01*
X0595343Y0262398D01*
X0595175Y0262146D01*
X0595075Y0261642D01*
X0595175Y0261138D01*
X0595231Y0261053D01*
X0595434Y0260658D01*
X0595231Y0260262D01*
X0595175Y0260177D01*
X0595075Y0259673D01*
X0595175Y0259169D01*
X0595231Y0259085D01*
X0595434Y0258689D01*
X0595231Y0258293D01*
X0595175Y0258209D01*
X0595075Y0257705D01*
X0595175Y0257201D01*
X0595231Y0257116D01*
X0595434Y0256720D01*
X0595231Y0256325D01*
X0595175Y0256240D01*
X0595135Y0256039D01*
X0594969Y0255917D01*
X0594602Y0255745D01*
X0594200Y0255825D01*
X0588672D01*
X0588165Y0255724D01*
X0587735Y0255436D01*
X0585120Y0252822D01*
X0585098Y0252788D01*
X0584593Y0252524D01*
X0584089Y0252625D01*
X0583585Y0252524D01*
X0583500Y0252468D01*
X0583105Y0252266D01*
X0582709Y0252468D01*
X0582624Y0252524D01*
X0582120Y0252625D01*
X0581616Y0252524D01*
X0581532Y0252468D01*
X0581136Y0252266D01*
X0580740Y0252468D01*
X0580656Y0252524D01*
X0580152Y0252625D01*
X0579648Y0252524D01*
X0579563Y0252468D01*
X0579206Y0252285D01*
X0578753Y0252492D01*
X0578585Y0253011D01*
X0582536Y0256963D01*
X0582824Y0257393D01*
X0582925Y0257900D01*
Y0274460D01*
X0583425Y0274668D01*
X0593451Y0264641D01*
D02*
G37*
G36*
X0546497Y0288304D02*
X0547199Y0288165D01*
X0547583Y0288241D01*
X0548876Y0286949D01*
Y0285445D01*
X0548675D01*
Y0284461D01*
X0550699D01*
Y0282461D01*
X0548675D01*
Y0282457D01*
X0548316D01*
Y0282097D01*
X0547468D01*
Y0285762D01*
X0542719D01*
Y0283473D01*
X0542475Y0283108D01*
X0542374Y0282601D01*
X0542475Y0282093D01*
X0542688Y0281774D01*
X0542703Y0281699D01*
X0542719Y0281675D01*
Y0278650D01*
X0542353Y0278326D01*
X0542125D01*
X0541760Y0278650D01*
Y0285762D01*
X0541290D01*
X0541196Y0286262D01*
X0543354Y0288420D01*
X0546324D01*
X0546497Y0288304D01*
D02*
G37*
G36*
X0625199Y0284500D02*
X0620199D01*
Y0286500D01*
X0625199D01*
Y0284500D01*
D02*
G37*
G36*
X0571699Y0237500D02*
X0571699Y0232500D01*
X0568199D01*
X0568199Y0235000D01*
X0567699Y0235500D01*
X0565699Y0235500D01*
Y0238000D01*
X0571199D01*
X0571699Y0237500D01*
D02*
G37*
G36*
X0577199Y0375000D02*
X0592199Y0375000D01*
X0592199Y0375000D01*
X0592692Y0375000D01*
X0593658Y0374808D01*
X0594567Y0374431D01*
X0595386Y0373884D01*
X0596083Y0373187D01*
X0596542Y0372500D01*
X0617912D01*
X0618384Y0372500D01*
X0618446Y0372188D01*
X0618622Y0371923D01*
X0618622Y0371923D01*
X0620622Y0369923D01*
X0620622Y0369923D01*
X0620887Y0369746D01*
X0621199Y0369684D01*
X0621199Y0369684D01*
X0642199D01*
X0642511Y0369746D01*
X0642776Y0369923D01*
X0642776Y0369923D01*
X0644776Y0371923D01*
X0644953Y0372188D01*
X0645015Y0372500D01*
X0645015Y0372500D01*
X0670578D01*
Y0352046D01*
X0670528Y0351567D01*
X0670528D01*
Y0340500D01*
X0644776D01*
Y0351367D01*
X0639672D01*
Y0350782D01*
X0639172Y0350515D01*
X0638901Y0350696D01*
X0638199Y0350835D01*
X0637900Y0350776D01*
X0637475Y0351201D01*
X0637534Y0351500D01*
X0637395Y0352202D01*
X0636997Y0352798D01*
X0636401Y0353196D01*
X0635699Y0353335D01*
X0634997Y0353196D01*
X0634401Y0352798D01*
X0634004Y0352202D01*
X0633864Y0351500D01*
X0634004Y0350798D01*
X0634370Y0350250D01*
X0634004Y0349702D01*
X0633864Y0349000D01*
X0634004Y0348298D01*
X0634401Y0347702D01*
X0634997Y0347304D01*
X0635699Y0347165D01*
X0636401Y0347304D01*
X0636949Y0347670D01*
X0637497Y0347304D01*
X0638199Y0347165D01*
X0638901Y0347304D01*
X0639172Y0347485D01*
X0639672Y0347218D01*
Y0340500D01*
X0597776D01*
Y0351367D01*
X0592672D01*
Y0350782D01*
X0592172Y0350515D01*
X0591901Y0350696D01*
X0591199Y0350835D01*
X0590900Y0350776D01*
X0590475Y0351201D01*
X0590534Y0351500D01*
X0590395Y0352202D01*
X0589997Y0352798D01*
X0589401Y0353196D01*
X0588699Y0353335D01*
X0587997Y0353196D01*
X0587401Y0352798D01*
X0587004Y0352202D01*
X0586864Y0351500D01*
X0587004Y0350798D01*
X0587369Y0350250D01*
X0587004Y0349702D01*
X0586864Y0349000D01*
X0587004Y0348298D01*
X0587401Y0347702D01*
X0587997Y0347304D01*
X0588699Y0347165D01*
X0589401Y0347304D01*
X0589949Y0347670D01*
X0590497Y0347304D01*
X0591199Y0347165D01*
X0591901Y0347304D01*
X0592172Y0347485D01*
X0592672Y0347218D01*
Y0340500D01*
X0550776D01*
Y0351367D01*
X0545672D01*
Y0350782D01*
X0545172Y0350515D01*
X0544901Y0350696D01*
X0544199Y0350835D01*
X0543900Y0350776D01*
X0543475Y0351201D01*
X0543534Y0351500D01*
X0543395Y0352202D01*
X0542997Y0352798D01*
X0542401Y0353196D01*
X0541699Y0353335D01*
X0540997Y0353196D01*
X0540401Y0352798D01*
X0540004Y0352202D01*
X0539864Y0351500D01*
X0540004Y0350798D01*
X0540370Y0350250D01*
X0540004Y0349702D01*
X0539864Y0349000D01*
X0540004Y0348298D01*
X0540401Y0347702D01*
X0540997Y0347304D01*
X0541699Y0347165D01*
X0542401Y0347304D01*
X0542949Y0347670D01*
X0543497Y0347304D01*
X0544199Y0347165D01*
X0544901Y0347304D01*
X0545172Y0347485D01*
X0545672Y0347218D01*
Y0340500D01*
X0528321D01*
Y0354542D01*
D01*
X0528321Y0360878D01*
Y0363458D01*
X0528321D01*
Y0372500D01*
X0572856D01*
X0573315Y0373187D01*
X0574012Y0373884D01*
X0574831Y0374431D01*
X0575741Y0374808D01*
X0576707Y0375000D01*
X0577199Y0375000D01*
D02*
G37*
G36*
X0646383Y0337500D02*
Y0321000D01*
X0646446Y0320688D01*
X0646622Y0320423D01*
X0646887Y0320246D01*
X0647199Y0320184D01*
X0648928D01*
X0649497Y0319804D01*
X0650199Y0319665D01*
X0650901Y0319804D01*
X0651449Y0320170D01*
X0651997Y0319804D01*
X0652699Y0319665D01*
X0653401Y0319804D01*
X0653949Y0320170D01*
X0654497Y0319804D01*
X0655199Y0319665D01*
X0655901Y0319804D01*
X0656449Y0320170D01*
X0656997Y0319804D01*
X0657699Y0319665D01*
X0658401Y0319804D01*
X0658949Y0320170D01*
X0659497Y0319804D01*
X0660199Y0319665D01*
X0660901Y0319804D01*
X0661470Y0320184D01*
X0669699D01*
X0670011Y0320246D01*
X0670078Y0320291D01*
X0670578Y0320043D01*
Y0312957D01*
X0670078Y0312709D01*
X0670011Y0312754D01*
X0669699Y0312816D01*
X0661699D01*
X0661387Y0312754D01*
X0661122Y0312577D01*
X0660946Y0312312D01*
X0660883Y0312000D01*
Y0310598D01*
X0660864Y0310500D01*
X0660883Y0310402D01*
Y0308467D01*
X0660699Y0308316D01*
X0656034D01*
X0655783Y0308816D01*
X0655943Y0309202D01*
X0655943Y0309500D01*
X0655943Y0309798D01*
X0655715Y0310350D01*
X0655293Y0310772D01*
X0654742Y0311000D01*
X0654443Y0311000D01*
X0654145Y0311000D01*
X0653986Y0310934D01*
X0653593Y0310772D01*
X0653172Y0310350D01*
X0652943Y0309798D01*
X0652943Y0309500D01*
X0652943Y0309202D01*
X0653038Y0308973D01*
X0652770Y0308496D01*
X0652400Y0308453D01*
X0651776Y0309077D01*
X0651511Y0309254D01*
X0651199Y0309316D01*
X0651199Y0309316D01*
X0616199Y0309316D01*
X0616199Y0309316D01*
X0615887Y0309254D01*
X0615622Y0309077D01*
X0615622Y0309077D01*
X0611622Y0305077D01*
X0611622Y0305077D01*
X0611446Y0304812D01*
X0611383Y0304500D01*
X0611383Y0304500D01*
Y0303598D01*
X0611364Y0303500D01*
X0611383Y0303401D01*
X0611383Y0300599D01*
X0611364Y0300500D01*
X0611383Y0300401D01*
Y0299500D01*
X0611446Y0299188D01*
X0611622Y0298923D01*
X0611706Y0298505D01*
X0611504Y0298202D01*
X0611431Y0297836D01*
X0611340Y0297769D01*
X0610804Y0297647D01*
X0610657Y0297740D01*
Y0297883D01*
X0607613D01*
X0607285Y0297883D01*
X0606785Y0297883D01*
X0603742D01*
Y0296717D01*
X0603732Y0296702D01*
X0603592Y0296000D01*
X0603732Y0295298D01*
X0603742Y0295283D01*
Y0294117D01*
X0606785D01*
X0607113Y0294117D01*
X0607613Y0294117D01*
X0610657D01*
Y0294117D01*
X0611035Y0294274D01*
X0613827Y0291482D01*
X0613636Y0291020D01*
X0611254D01*
Y0289347D01*
X0615026D01*
Y0289629D01*
X0615488Y0289821D01*
X0616572Y0288736D01*
Y0285873D01*
X0616933D01*
Y0282686D01*
X0615379D01*
Y0279314D01*
X0618648D01*
X0619559Y0278403D01*
Y0277316D01*
X0618298Y0277316D01*
X0618199Y0277335D01*
X0618101Y0277316D01*
X0616699D01*
X0616387Y0277254D01*
X0616122Y0277077D01*
X0615945Y0276812D01*
X0615883Y0276500D01*
Y0273500D01*
X0615883Y0273500D01*
X0615945Y0273188D01*
X0616122Y0272923D01*
X0616122Y0272923D01*
X0620622Y0268423D01*
X0620622Y0268423D01*
X0620887Y0268246D01*
X0621199Y0268184D01*
X0621199Y0268184D01*
X0621732D01*
X0621883Y0268000D01*
X0621883Y0265025D01*
X0621445Y0264526D01*
X0609298D01*
Y0265000D01*
X0607313D01*
Y0266000D01*
X0606313D01*
Y0268024D01*
X0605383D01*
X0605309Y0268393D01*
X0605022Y0268823D01*
X0603392Y0270453D01*
X0603105Y0270645D01*
X0602727Y0270980D01*
X0602828Y0271484D01*
X0602727Y0271988D01*
X0602671Y0272073D01*
X0602469Y0272468D01*
X0602671Y0272864D01*
X0602727Y0272949D01*
X0602828Y0273453D01*
X0602727Y0273957D01*
X0602671Y0274041D01*
X0602469Y0274437D01*
X0602671Y0274833D01*
X0602727Y0274917D01*
X0602828Y0275421D01*
X0602727Y0275925D01*
X0602671Y0276010D01*
X0602469Y0276406D01*
X0602671Y0276801D01*
X0602727Y0276886D01*
X0602828Y0277390D01*
X0602727Y0277894D01*
X0602671Y0277978D01*
X0602530Y0278254D01*
X0602719Y0278630D01*
X0602760Y0278676D01*
X0603943D01*
X0604199Y0278625D01*
X0604456Y0278676D01*
X0606023D01*
Y0279436D01*
X0606485Y0279627D01*
X0607072Y0279040D01*
Y0276755D01*
X0612019D01*
Y0280127D01*
X0609734D01*
X0608650Y0281211D01*
X0608841Y0281673D01*
X0612219D01*
Y0282559D01*
X0609546D01*
Y0283559D01*
X0608546D01*
Y0285445D01*
X0608507D01*
X0608025Y0285500D01*
X0607924Y0286007D01*
X0607636Y0286437D01*
X0606408Y0287666D01*
X0606082Y0287884D01*
Y0288386D01*
X0606282D01*
Y0289272D01*
X0604199D01*
X0602116D01*
Y0288386D01*
X0602316D01*
Y0287884D01*
X0601990Y0287666D01*
X0600914Y0286589D01*
X0598951D01*
X0598911Y0286581D01*
X0596392D01*
X0595888Y0286481D01*
X0595461Y0286195D01*
X0595175Y0285768D01*
X0595075Y0285264D01*
X0595175Y0284760D01*
X0595343Y0284507D01*
X0595316Y0284371D01*
X0595266Y0284295D01*
X0595515D01*
X0595888Y0284046D01*
X0596392Y0283946D01*
X0598911D01*
X0598951Y0283938D01*
Y0282652D01*
X0598911Y0282644D01*
X0596392D01*
X0595888Y0282544D01*
X0595515Y0282295D01*
X0595266D01*
X0595316Y0282220D01*
X0595343Y0282083D01*
X0595175Y0281831D01*
X0595075Y0281327D01*
X0595175Y0280823D01*
X0595231Y0280738D01*
X0595434Y0280343D01*
X0595231Y0279947D01*
X0595175Y0279862D01*
X0595075Y0279358D01*
X0595175Y0278854D01*
X0595231Y0278770D01*
X0595434Y0278374D01*
X0595231Y0277978D01*
X0595175Y0277894D01*
X0595075Y0277390D01*
X0595175Y0276886D01*
X0595231Y0276801D01*
X0595434Y0276406D01*
X0595231Y0276010D01*
X0595175Y0275925D01*
X0595122Y0275659D01*
X0594592Y0275482D01*
X0591847Y0278226D01*
X0591895Y0278298D01*
X0592034Y0279000D01*
X0591895Y0279702D01*
X0591497Y0280298D01*
X0590901Y0280696D01*
X0590199Y0280835D01*
X0589497Y0280696D01*
X0589037Y0280389D01*
X0588699Y0280332D01*
X0588361Y0280389D01*
X0587901Y0280696D01*
X0587547Y0280766D01*
X0587382Y0281309D01*
X0588248Y0282174D01*
X0588901Y0282304D01*
X0589497Y0282702D01*
X0589895Y0283298D01*
X0590034Y0284000D01*
X0589895Y0284702D01*
X0589531Y0285247D01*
X0589696Y0285556D01*
X0589794Y0285684D01*
X0590401Y0285804D01*
X0590997Y0286202D01*
X0591395Y0286798D01*
X0591534Y0287500D01*
X0591441Y0287969D01*
X0591805Y0288393D01*
X0591826Y0288403D01*
X0591963Y0288375D01*
X0592467Y0288476D01*
X0592895Y0288761D01*
X0593180Y0289189D01*
X0593280Y0289693D01*
Y0292212D01*
X0593288Y0292252D01*
Y0305715D01*
X0602148Y0314575D01*
X0606746D01*
X0606937Y0314113D01*
X0603762Y0310937D01*
X0603475Y0310507D01*
X0603374Y0310000D01*
Y0309756D01*
X0603004Y0309202D01*
X0602864Y0308500D01*
X0603004Y0307798D01*
X0603401Y0307202D01*
X0603997Y0306804D01*
X0604699Y0306665D01*
X0605401Y0306804D01*
X0605997Y0307202D01*
X0606395Y0307798D01*
X0606534Y0308500D01*
X0606395Y0309202D01*
X0606147Y0309573D01*
X0609548Y0312975D01*
X0623474D01*
X0623981Y0313075D01*
X0624411Y0313363D01*
X0625899Y0314851D01*
X0627187Y0313563D01*
X0627618Y0313275D01*
X0628125Y0313175D01*
X0628801D01*
Y0312676D01*
X0631829D01*
Y0312476D01*
X0632813D01*
Y0314500D01*
X0633813D01*
Y0315500D01*
X0635798D01*
Y0316306D01*
X0635839Y0316340D01*
X0636496Y0316471D01*
X0637054Y0316844D01*
X0637427Y0317401D01*
X0637557Y0318059D01*
Y0321799D01*
X0637427Y0322457D01*
X0637164Y0322850D01*
Y0323590D01*
X0638484Y0324911D01*
X0639672D01*
Y0320633D01*
X0644776D01*
Y0331839D01*
X0639672D01*
Y0327562D01*
X0637935D01*
X0637428Y0327461D01*
X0636998Y0327173D01*
X0634901Y0325077D01*
X0634614Y0324647D01*
X0634513Y0324139D01*
Y0323773D01*
X0634279Y0323649D01*
Y0322501D01*
X0634250Y0322457D01*
X0634120Y0321799D01*
Y0319929D01*
X0632440D01*
Y0321799D01*
X0632309Y0322457D01*
X0632279Y0322501D01*
Y0323399D01*
X0631920Y0323159D01*
X0631858Y0323066D01*
X0631378Y0323387D01*
X0630721Y0323518D01*
X0630063Y0323387D01*
X0629832Y0323233D01*
X0629660Y0323151D01*
X0629285Y0323354D01*
X0629217Y0323881D01*
X0631636Y0326300D01*
X0631924Y0326730D01*
X0632025Y0327237D01*
X0632025Y0327237D01*
Y0332410D01*
X0632525Y0332678D01*
X0632622Y0332613D01*
X0633280Y0332482D01*
X0633937Y0332613D01*
X0634168Y0332767D01*
X0634559Y0332955D01*
X0634950Y0332767D01*
X0635181Y0332613D01*
X0635839Y0332482D01*
X0636496Y0332613D01*
X0637054Y0332985D01*
X0637427Y0333543D01*
X0637557Y0334201D01*
Y0335139D01*
X0640164D01*
X0640671Y0335240D01*
X0641101Y0335527D01*
X0643162Y0337588D01*
X0643437Y0338000D01*
X0645883D01*
X0646383Y0337500D01*
D02*
G37*
G36*
X0551483Y0229900D02*
X0551545Y0229588D01*
X0551722Y0229323D01*
X0551722Y0229323D01*
X0555498Y0225547D01*
X0555545Y0225057D01*
X0555507Y0224899D01*
X0554889Y0224093D01*
X0554471Y0223083D01*
X0554460Y0223000D01*
X0558514D01*
Y0222000D01*
X0559514D01*
Y0217946D01*
X0559597Y0217957D01*
X0560607Y0218375D01*
X0561474Y0219040D01*
X0562139Y0219907D01*
X0562289Y0220268D01*
X0562830D01*
X0562938Y0220008D01*
X0563571Y0219183D01*
X0564316Y0218611D01*
Y0215586D01*
X0564316D01*
Y0215554D01*
X0563979Y0215054D01*
X0557020D01*
X0542851Y0229222D01*
X0543043Y0229684D01*
X0549199Y0229684D01*
X0549511Y0229746D01*
X0549776Y0229923D01*
X0549953Y0230188D01*
X0550015Y0230500D01*
X0550015Y0236500D01*
X0550166Y0236684D01*
X0551483D01*
Y0229900D01*
D02*
G37*
G36*
X0556899Y0243000D02*
X0556899Y0235300D01*
X0557699Y0234500D01*
X0559699Y0234500D01*
Y0226000D01*
X0556199D01*
X0552299Y0229900D01*
Y0243000D01*
X0556899Y0243000D01*
D02*
G37*
G36*
X0582199Y0237000D02*
Y0229500D01*
X0565699D01*
Y0231500D01*
X0572699D01*
Y0238500D01*
X0580699D01*
X0582199Y0237000D01*
D02*
G37*
G36*
X0549199Y0236500D02*
X0549199Y0230500D01*
X0541699Y0230500D01*
X0541699Y0233000D01*
X0541199Y0233500D01*
Y0236500D01*
X0549199Y0236500D01*
D02*
G37*
G36*
X0552383Y0321000D02*
X0552446Y0320688D01*
X0552622Y0320423D01*
X0552887Y0320246D01*
X0553199Y0320184D01*
X0554928D01*
X0555497Y0319804D01*
X0556199Y0319665D01*
X0556901Y0319804D01*
X0557449Y0320170D01*
X0557997Y0319804D01*
X0558699Y0319665D01*
X0559401Y0319804D01*
X0559949Y0320170D01*
X0560497Y0319804D01*
X0561199Y0319665D01*
X0561901Y0319804D01*
X0562449Y0320170D01*
X0562997Y0319804D01*
X0563699Y0319665D01*
X0564401Y0319804D01*
X0564949Y0320170D01*
X0565497Y0319804D01*
X0566199Y0319665D01*
X0566901Y0319804D01*
X0567470Y0320184D01*
X0575134D01*
X0575401Y0319684D01*
X0575232Y0319431D01*
X0575092Y0318728D01*
X0575232Y0318026D01*
X0575602Y0317472D01*
Y0316888D01*
X0575140Y0316696D01*
X0574899Y0316937D01*
X0574469Y0317225D01*
X0573962Y0317325D01*
X0547181D01*
X0547084Y0317427D01*
X0546886Y0317785D01*
X0546895Y0317798D01*
X0547034Y0318500D01*
X0546895Y0319202D01*
X0546497Y0319798D01*
X0545995Y0320133D01*
X0546065Y0320600D01*
X0546078Y0320633D01*
X0550776D01*
Y0331839D01*
X0545672D01*
Y0327562D01*
X0543935D01*
X0543428Y0327461D01*
X0542998Y0327173D01*
X0540901Y0325077D01*
X0540614Y0324647D01*
X0540513Y0324139D01*
Y0323773D01*
X0540279Y0323649D01*
Y0322501D01*
X0540250Y0322457D01*
X0540120Y0321799D01*
Y0319929D01*
X0538440D01*
Y0321799D01*
X0538309Y0322457D01*
X0538279Y0322501D01*
Y0323399D01*
X0537920Y0323159D01*
X0537858Y0323066D01*
X0537378Y0323387D01*
X0536721Y0323518D01*
X0536063Y0323387D01*
X0535832Y0323233D01*
X0535441Y0323045D01*
X0535050Y0323233D01*
X0534819Y0323387D01*
X0534276Y0323495D01*
X0534110Y0323823D01*
X0534079Y0324006D01*
X0535099Y0325025D01*
X0535386Y0325455D01*
X0535487Y0325962D01*
Y0331205D01*
X0535987Y0331413D01*
X0537837Y0329563D01*
X0538267Y0329275D01*
X0538366Y0329256D01*
X0538401Y0329202D01*
X0538997Y0328804D01*
X0539699Y0328665D01*
X0540401Y0328804D01*
X0540997Y0329202D01*
X0541395Y0329798D01*
X0541534Y0330500D01*
X0541395Y0331202D01*
X0540997Y0331798D01*
X0540401Y0332196D01*
X0540256Y0332224D01*
X0540160Y0332708D01*
X0540580Y0332945D01*
X0540950Y0332767D01*
X0541181Y0332613D01*
X0541839Y0332482D01*
X0542496Y0332613D01*
X0543054Y0332985D01*
X0543427Y0333543D01*
X0543557Y0334201D01*
Y0335139D01*
X0546164D01*
X0546671Y0335240D01*
X0547101Y0335527D01*
X0549162Y0337588D01*
X0549437Y0338000D01*
X0552383D01*
Y0321000D01*
D02*
G37*
G36*
X0532443Y0337500D02*
Y0334201D01*
X0532573Y0333543D01*
X0532836Y0333150D01*
Y0326511D01*
X0532463Y0326138D01*
X0531920Y0326303D01*
X0531895Y0326431D01*
X0531497Y0327026D01*
X0530901Y0327424D01*
X0530199Y0327564D01*
X0529497Y0327424D01*
X0528901Y0327026D01*
X0528821Y0326905D01*
X0528321Y0327057D01*
Y0338000D01*
X0531967D01*
X0532443Y0337500D01*
D02*
G37*
G36*
X0659716Y0411731D02*
X0661682Y0411259D01*
X0663551Y0410485D01*
X0665275Y0409428D01*
X0666814Y0408114D01*
X0668127Y0406576D01*
X0669184Y0404852D01*
X0669958Y0402983D01*
X0670430Y0401016D01*
X0670586Y0399041D01*
X0670578Y0399000D01*
Y0373316D01*
X0645015D01*
X0644936Y0373300D01*
X0644856D01*
X0644808Y0373280D01*
X0644757Y0373274D01*
X0644731Y0373259D01*
X0644703Y0373254D01*
X0644636Y0373209D01*
X0644562Y0373178D01*
X0644525Y0373142D01*
X0644480Y0373116D01*
X0644462Y0373093D01*
X0644438Y0373077D01*
X0644393Y0373010D01*
X0644337Y0372953D01*
X0644317Y0372905D01*
X0644285Y0372865D01*
X0644277Y0372836D01*
X0644261Y0372812D01*
X0644246Y0372733D01*
X0644215Y0372659D01*
X0644199Y0372580D01*
Y0372500D01*
X0644142Y0372443D01*
X0644142Y0372443D01*
X0643199Y0371500D01*
D01*
X0642199Y0370500D01*
X0621199D01*
X0619199Y0372500D01*
Y0372580D01*
X0619183Y0372659D01*
X0619153Y0372733D01*
X0619137Y0372812D01*
X0619093Y0372879D01*
X0619062Y0372953D01*
X0619005Y0373010D01*
X0618960Y0373077D01*
X0618893Y0373121D01*
X0618837Y0373178D01*
X0618762Y0373209D01*
X0618696Y0373253D01*
X0618617Y0373269D01*
X0618543Y0373300D01*
X0618462D01*
X0618384Y0373316D01*
X0617913Y0373316D01*
X0617913Y0373316D01*
X0617912Y0373316D01*
X0596778D01*
X0596623Y0373548D01*
X0596568Y0373585D01*
X0596542Y0373647D01*
X0595846Y0374343D01*
X0595784Y0374368D01*
X0595747Y0374424D01*
X0594928Y0374971D01*
X0594863Y0374984D01*
X0594816Y0375031D01*
X0593906Y0375408D01*
X0593840D01*
X0593784Y0375445D01*
X0592818Y0375637D01*
X0592753Y0375624D01*
X0592692Y0375649D01*
X0592199Y0375649D01*
X0592199Y0375649D01*
X0577199Y0375649D01*
X0576707Y0375649D01*
X0576645Y0375624D01*
X0576580Y0375637D01*
X0575614Y0375445D01*
X0575559Y0375408D01*
X0575492D01*
X0574582Y0375031D01*
X0574535Y0374984D01*
X0574470Y0374971D01*
X0573651Y0374424D01*
X0573614Y0374369D01*
X0573553Y0374343D01*
X0572856Y0373647D01*
X0572831Y0373585D01*
X0572775Y0373548D01*
X0572620Y0373316D01*
X0528321D01*
Y0381515D01*
X0528321Y0396000D01*
X0528321D01*
Y0399000D01*
X0528313Y0399041D01*
X0528468Y0401016D01*
X0528940Y0402983D01*
X0529714Y0404852D01*
X0530771Y0406576D01*
X0532085Y0408114D01*
X0533623Y0409428D01*
X0535347Y0410485D01*
X0537216Y0411259D01*
X0539183Y0411731D01*
X0541158Y0411887D01*
X0541199Y0411878D01*
X0657699D01*
X0657740Y0411887D01*
X0659716Y0411731D01*
D02*
G37*
G36*
X0669699Y0331500D02*
X0669699Y0321000D01*
X0647199Y0321000D01*
Y0338000D01*
X0663199Y0338000D01*
X0669699Y0331500D01*
D02*
G37*
G36*
X0626443Y0337500D02*
Y0334201D01*
X0626573Y0333543D01*
X0626836Y0333150D01*
Y0327511D01*
X0623977Y0324652D01*
X0623515Y0324844D01*
X0623515Y0331500D01*
X0623515Y0331500D01*
X0623453Y0331812D01*
X0623276Y0332077D01*
X0623276Y0332077D01*
X0617815Y0337538D01*
X0618006Y0338000D01*
X0625967D01*
X0626443Y0337500D01*
D02*
G37*
G36*
X0599383Y0337500D02*
Y0321000D01*
X0599445Y0320688D01*
X0599622Y0320423D01*
X0599887Y0320246D01*
X0600199Y0320184D01*
X0601928D01*
X0602497Y0319804D01*
X0603199Y0319665D01*
X0603901Y0319804D01*
X0604449Y0320170D01*
X0604997Y0319804D01*
X0605699Y0319665D01*
X0606401Y0319804D01*
X0606949Y0320170D01*
X0607497Y0319804D01*
X0608199Y0319665D01*
X0608901Y0319804D01*
X0609449Y0320170D01*
X0609997Y0319804D01*
X0610699Y0319665D01*
X0611401Y0319804D01*
X0611949Y0320170D01*
X0612497Y0319804D01*
X0613199Y0319665D01*
X0613901Y0319804D01*
X0614470Y0320184D01*
X0620648D01*
X0620826Y0319684D01*
X0620504Y0319202D01*
X0620429Y0318826D01*
X0600936D01*
X0600429Y0318725D01*
X0599999Y0318437D01*
X0589057Y0307495D01*
X0588620Y0307741D01*
X0585773Y0310589D01*
X0585964Y0311051D01*
X0590075D01*
X0590583Y0311152D01*
X0591013Y0311439D01*
X0592248Y0312674D01*
X0592901Y0312804D01*
X0593497Y0313202D01*
X0593895Y0313798D01*
X0594034Y0314500D01*
X0593895Y0315202D01*
X0593497Y0315798D01*
X0592901Y0316196D01*
X0592199Y0316335D01*
X0591497Y0316196D01*
X0590901Y0315798D01*
X0590504Y0315202D01*
X0590374Y0314549D01*
X0589527Y0313702D01*
X0588798D01*
Y0316306D01*
X0588839Y0316340D01*
X0589496Y0316471D01*
X0590054Y0316844D01*
X0590427Y0317401D01*
X0590557Y0318059D01*
Y0321398D01*
X0590944Y0321715D01*
X0591199Y0321665D01*
X0591901Y0321804D01*
X0592172Y0321986D01*
X0592672Y0321718D01*
Y0320633D01*
X0597776D01*
Y0331839D01*
X0592672D01*
Y0327562D01*
X0590935D01*
X0590428Y0327461D01*
X0589998Y0327173D01*
X0587901Y0325077D01*
X0587614Y0324647D01*
X0587513Y0324139D01*
Y0323773D01*
X0587280Y0323649D01*
Y0322501D01*
X0587250Y0322457D01*
X0587119Y0321799D01*
Y0319929D01*
X0585439D01*
Y0321799D01*
X0585309Y0322457D01*
X0585280Y0322501D01*
Y0323399D01*
X0584920Y0323159D01*
X0584858Y0323066D01*
X0584378Y0323387D01*
X0583720Y0323518D01*
X0583063Y0323387D01*
X0582832Y0323233D01*
X0582441Y0323045D01*
X0582050Y0323233D01*
X0581819Y0323387D01*
X0581276Y0323495D01*
X0581110Y0323823D01*
X0581079Y0324006D01*
X0582099Y0325025D01*
X0582386Y0325455D01*
X0582487Y0325962D01*
Y0331205D01*
X0582987Y0331413D01*
X0584837Y0329563D01*
X0585267Y0329275D01*
X0585366Y0329256D01*
X0585401Y0329202D01*
X0585997Y0328804D01*
X0586699Y0328665D01*
X0587401Y0328804D01*
X0587997Y0329202D01*
X0588395Y0329798D01*
X0588534Y0330500D01*
X0588395Y0331202D01*
X0587997Y0331798D01*
X0587401Y0332196D01*
X0587256Y0332224D01*
X0587160Y0332708D01*
X0587579Y0332945D01*
X0587950Y0332767D01*
X0588181Y0332613D01*
X0588839Y0332482D01*
X0589496Y0332613D01*
X0590054Y0332985D01*
X0590427Y0333543D01*
X0590557Y0334201D01*
Y0335139D01*
X0593164D01*
X0593671Y0335240D01*
X0594101Y0335527D01*
X0596162Y0337588D01*
X0596437Y0338000D01*
X0598883D01*
X0599383Y0337500D01*
D02*
G37*
%LPC*%
G36*
X0568849Y0309250D02*
X0565699D01*
Y0306500D01*
X0568849D01*
Y0309250D01*
D02*
G37*
G36*
X0553435Y0291500D02*
X0552451D01*
Y0290476D01*
X0553435D01*
Y0291500D01*
D02*
G37*
G36*
X0546699Y0301886D02*
X0545676D01*
Y0300902D01*
X0546699D01*
Y0301886D01*
D02*
G37*
G36*
X0533073Y0306000D02*
X0532089D01*
Y0305114D01*
X0533073D01*
Y0306000D01*
D02*
G37*
G36*
X0557699Y0299750D02*
X0554549D01*
Y0297000D01*
X0557699D01*
Y0299750D01*
D02*
G37*
G36*
X0553435Y0294524D02*
X0552451D01*
Y0293500D01*
X0553435D01*
Y0294524D01*
D02*
G37*
G36*
X0580325Y0241000D02*
X0579341D01*
Y0240114D01*
X0580325D01*
Y0241000D01*
D02*
G37*
G36*
X0583309D02*
X0582325D01*
Y0240114D01*
X0583309D01*
Y0241000D01*
D02*
G37*
G36*
X0589325Y0235886D02*
X0588341D01*
Y0235000D01*
X0589325D01*
Y0235886D01*
D02*
G37*
G36*
X0580325Y0243886D02*
X0579341D01*
Y0243000D01*
X0580325D01*
Y0243886D01*
D02*
G37*
G36*
X0583309D02*
X0582325D01*
Y0243000D01*
X0583309D01*
Y0243886D01*
D02*
G37*
G36*
X0592309Y0233000D02*
X0591325D01*
Y0232114D01*
X0592309D01*
Y0233000D01*
D02*
G37*
G36*
X0589325D02*
X0588341D01*
Y0232114D01*
X0589325D01*
Y0233000D01*
D02*
G37*
G36*
X0659699Y0228038D02*
X0659307Y0228000D01*
X0657968Y0227593D01*
X0656734Y0226934D01*
X0655653Y0226046D01*
X0654765Y0224965D01*
X0654106Y0223731D01*
X0653699Y0222392D01*
X0653661Y0222000D01*
X0659699D01*
Y0228038D01*
D02*
G37*
G36*
X0545237Y0220000D02*
X0539199D01*
Y0213962D01*
X0539591Y0214000D01*
X0540930Y0214406D01*
X0542164Y0215066D01*
X0543246Y0215954D01*
X0544133Y0217035D01*
X0544793Y0218269D01*
X0545199Y0219608D01*
X0545237Y0220000D01*
D02*
G37*
G36*
X0537199D02*
X0531161D01*
X0531200Y0219608D01*
X0531606Y0218269D01*
X0532265Y0217035D01*
X0533153Y0215954D01*
X0534234Y0215066D01*
X0535468Y0214406D01*
X0536807Y0214000D01*
X0537199Y0213962D01*
Y0220000D01*
D02*
G37*
G36*
X0667737D02*
X0661699D01*
Y0213962D01*
X0662091Y0214000D01*
X0663430Y0214406D01*
X0664664Y0215066D01*
X0665746Y0215954D01*
X0666633Y0217035D01*
X0667293Y0218269D01*
X0667699Y0219608D01*
X0667737Y0220000D01*
D02*
G37*
G36*
X0659699D02*
X0653661D01*
X0653699Y0219608D01*
X0654106Y0218269D01*
X0654765Y0217035D01*
X0655653Y0215954D01*
X0656734Y0215066D01*
X0657968Y0214406D01*
X0659307Y0214000D01*
X0659699Y0213962D01*
Y0220000D01*
D02*
G37*
G36*
X0661699Y0228038D02*
Y0222000D01*
X0667737D01*
X0667699Y0222392D01*
X0667293Y0223731D01*
X0666633Y0224965D01*
X0665746Y0226046D01*
X0664664Y0226934D01*
X0663430Y0227593D01*
X0662091Y0228000D01*
X0661699Y0228038D01*
D02*
G37*
G36*
X0613577Y0242000D02*
X0610523D01*
X0610534Y0241917D01*
X0610952Y0240907D01*
X0611617Y0240040D01*
X0612484Y0239375D01*
X0613494Y0238957D01*
X0613577Y0238946D01*
Y0242000D01*
D02*
G37*
G36*
X0633199Y0289203D02*
X0632199D01*
Y0288500D01*
X0633199D01*
Y0289203D01*
D02*
G37*
G36*
X0635798Y0313500D02*
X0634813D01*
Y0312476D01*
X0635798D01*
Y0313500D01*
D02*
G37*
G36*
X0603199Y0292158D02*
X0602116D01*
Y0291272D01*
X0603199D01*
Y0292158D01*
D02*
G37*
G36*
X0609298Y0268024D02*
X0608313D01*
Y0267000D01*
X0609298D01*
Y0268024D01*
D02*
G37*
G36*
X0615026Y0287347D02*
X0611254D01*
Y0285673D01*
X0610849Y0285445D01*
X0610546D01*
Y0284559D01*
X0612219D01*
Y0285445D01*
X0612624Y0285673D01*
X0615026D01*
Y0287347D01*
D02*
G37*
G36*
X0606282Y0292158D02*
X0605199D01*
Y0291272D01*
X0606282D01*
Y0292158D01*
D02*
G37*
G36*
X0557514Y0221000D02*
X0554460D01*
X0554471Y0220917D01*
X0554889Y0219907D01*
X0555554Y0219040D01*
X0556421Y0218375D01*
X0557431Y0217957D01*
X0557514Y0217946D01*
Y0221000D01*
D02*
G37*
G36*
X0626199Y0410735D02*
X0624885Y0410605D01*
X0623622Y0410222D01*
X0622458Y0409600D01*
X0621437Y0408762D01*
X0620599Y0407742D01*
X0619977Y0406577D01*
X0619594Y0405314D01*
X0619464Y0404000D01*
X0619594Y0402686D01*
X0619977Y0401423D01*
X0620599Y0400258D01*
X0621437Y0399238D01*
X0622458Y0398400D01*
X0623622Y0397778D01*
X0624885Y0397395D01*
X0626199Y0397265D01*
X0627513Y0397395D01*
X0628776Y0397778D01*
X0629941Y0398400D01*
X0630961Y0399238D01*
X0631799Y0400258D01*
X0632421Y0401423D01*
X0632804Y0402686D01*
X0632934Y0404000D01*
X0632804Y0405314D01*
X0632421Y0406577D01*
X0631799Y0407742D01*
X0630961Y0408762D01*
X0629941Y0409600D01*
X0628776Y0410222D01*
X0627513Y0410605D01*
X0626199Y0410735D01*
D02*
G37*
G36*
X0544199Y0407649D02*
X0540199D01*
X0539740Y0407459D01*
X0539660Y0407265D01*
X0539528D01*
Y0401735D01*
X0539660D01*
X0539740Y0401541D01*
X0540199Y0401351D01*
X0544199D01*
X0544658Y0401541D01*
X0544849Y0402000D01*
Y0407000D01*
X0544658Y0407459D01*
X0544199Y0407649D01*
D02*
G37*
G36*
X0579199Y0410735D02*
X0577885Y0410605D01*
X0576622Y0410222D01*
X0575457Y0409600D01*
X0574437Y0408762D01*
X0573599Y0407742D01*
X0572977Y0406577D01*
X0572594Y0405314D01*
X0572464Y0404000D01*
X0572594Y0402686D01*
X0572977Y0401423D01*
X0573599Y0400258D01*
X0574437Y0399238D01*
X0575457Y0398400D01*
X0576622Y0397778D01*
X0577885Y0397395D01*
X0579199Y0397265D01*
X0580513Y0397395D01*
X0581776Y0397778D01*
X0582941Y0398400D01*
X0583961Y0399238D01*
X0584799Y0400258D01*
X0585421Y0401423D01*
X0585805Y0402686D01*
X0585934Y0404000D01*
X0585805Y0405314D01*
X0585421Y0406577D01*
X0584799Y0407742D01*
X0583961Y0408762D01*
X0582941Y0409600D01*
X0581776Y0410222D01*
X0580513Y0410605D01*
X0579199Y0410735D01*
D02*
G37*
G36*
X0638199Y0407649D02*
X0634199D01*
X0633740Y0407459D01*
X0633660Y0407265D01*
X0633528D01*
Y0401735D01*
X0633660D01*
X0633740Y0401541D01*
X0634199Y0401351D01*
X0638199D01*
X0638658Y0401541D01*
X0638849Y0402000D01*
Y0407000D01*
X0638658Y0407459D01*
X0638199Y0407649D01*
D02*
G37*
G36*
X0650199D02*
X0646199D01*
X0645740Y0407459D01*
X0645550Y0407000D01*
Y0402000D01*
X0645740Y0401541D01*
X0646199Y0401351D01*
X0650199D01*
X0650658Y0401541D01*
X0650739Y0401735D01*
X0650870D01*
Y0407265D01*
X0650739D01*
X0650658Y0407459D01*
X0650199Y0407649D01*
D02*
G37*
G36*
X0603199D02*
X0599199D01*
X0598740Y0407459D01*
X0598550Y0407000D01*
Y0402000D01*
X0598740Y0401541D01*
X0599199Y0401351D01*
X0603199D01*
X0603658Y0401541D01*
X0603739Y0401735D01*
X0603870D01*
Y0407265D01*
X0603739D01*
X0603658Y0407459D01*
X0603199Y0407649D01*
D02*
G37*
G36*
X0556199D02*
X0552199D01*
X0551740Y0407459D01*
X0551550Y0407000D01*
Y0402000D01*
X0551740Y0401541D01*
X0552199Y0401351D01*
X0556199D01*
X0556658Y0401541D01*
X0556739Y0401735D01*
X0556870D01*
Y0407265D01*
X0556739D01*
X0556658Y0407459D01*
X0556199Y0407649D01*
D02*
G37*
G36*
X0591199D02*
X0587199D01*
X0586740Y0407459D01*
X0586660Y0407265D01*
X0586528D01*
Y0401735D01*
X0586660D01*
X0586740Y0401541D01*
X0587199Y0401351D01*
X0591199D01*
X0591658Y0401541D01*
X0591849Y0402000D01*
Y0407000D01*
X0591658Y0407459D01*
X0591199Y0407649D01*
D02*
G37*
%LPD*%
G36*
X0544199Y0402000D02*
X0540199D01*
Y0407000D01*
X0544199D01*
Y0402000D01*
D02*
G37*
G36*
X0638199D02*
X0634199D01*
Y0407000D01*
X0638199D01*
Y0402000D01*
D02*
G37*
G36*
X0650199D02*
X0646199D01*
Y0407000D01*
X0650199D01*
Y0402000D01*
D02*
G37*
G36*
X0603199D02*
X0599199D01*
Y0407000D01*
X0603199D01*
Y0402000D01*
D02*
G37*
G36*
X0556199D02*
X0552199D01*
Y0407000D01*
X0556199D01*
Y0402000D01*
D02*
G37*
G36*
X0591199D02*
X0587199D01*
Y0407000D01*
X0591199D01*
Y0402000D01*
D02*
G37*
D10*
X0628085Y0296974D02*
D03*
X0631313D02*
D03*
X0607313Y0266000D02*
D03*
X0604085D02*
D03*
X0604585Y0254000D02*
D03*
X0607813D02*
D03*
X0559585Y0240500D02*
D03*
X0562813D02*
D03*
X0554435Y0292500D02*
D03*
X0557664D02*
D03*
X0539813Y0314500D02*
D03*
X0536585D02*
D03*
X0564585Y0244000D02*
D03*
X0567813D02*
D03*
X0607813Y0257500D02*
D03*
X0604585D02*
D03*
X0586813Y0314500D02*
D03*
X0583585D02*
D03*
X0630585D02*
D03*
X0633813D02*
D03*
X0558585Y0227500D02*
D03*
X0561813D02*
D03*
D11*
X0590199Y0213728D02*
D03*
Y0217272D02*
D03*
X0550199Y0280772D02*
D03*
Y0277228D02*
D03*
X0531199Y0248228D02*
D03*
Y0251772D02*
D03*
X0638199D02*
D03*
Y0248228D02*
D03*
X0646199D02*
D03*
Y0251772D02*
D03*
X0631199Y0293746D02*
D03*
Y0290203D02*
D03*
Y0300203D02*
D03*
Y0303746D02*
D03*
X0627199Y0294043D02*
D03*
Y0290500D02*
D03*
X0604199Y0290272D02*
D03*
Y0286728D02*
D03*
X0531199Y0243272D02*
D03*
Y0239728D02*
D03*
X0582199Y0217272D02*
D03*
Y0213728D02*
D03*
X0574199D02*
D03*
Y0217272D02*
D03*
X0566199D02*
D03*
Y0213728D02*
D03*
D12*
X0570199Y0227386D02*
D03*
Y0230614D02*
D03*
X0585699Y0297461D02*
D03*
Y0300689D02*
D03*
X0575699Y0297386D02*
D03*
Y0300614D02*
D03*
X0627699Y0300360D02*
D03*
Y0303589D02*
D03*
X0612199Y0233614D02*
D03*
Y0230386D02*
D03*
X0604199Y0283689D02*
D03*
Y0280461D02*
D03*
X0550699Y0286689D02*
D03*
Y0283461D02*
D03*
X0575699Y0308114D02*
D03*
Y0304886D02*
D03*
X0547699Y0306114D02*
D03*
Y0302886D02*
D03*
D14*
X0536427Y0256000D02*
D03*
X0539971D02*
D03*
X0542427D02*
D03*
X0545971D02*
D03*
X0605428Y0296000D02*
D03*
X0608971D02*
D03*
X0619971Y0216500D02*
D03*
X0616428D02*
D03*
D18*
X0569959Y0235000D02*
D03*
X0577439D02*
D03*
D30*
X0642699Y0293488D02*
D03*
X0655199D02*
D03*
D31*
X0642699Y0304512D02*
D03*
X0655199D02*
D03*
D40*
X0531199Y0262240D02*
Y0271756D01*
X0573524Y0310250D02*
X0575699Y0308075D01*
X0569849Y0310250D02*
X0573524D01*
X0585047Y0300075D02*
X0585500D01*
X0585199Y0300500D02*
Y0300898D01*
X0584089Y0288110D02*
Y0292252D01*
X0567774Y0244100D02*
X0575099D01*
X0550404Y0283295D02*
X0555447D01*
X0630721Y0333951D02*
Y0336465D01*
X0633280D01*
X0583720D02*
X0586279D01*
X0583720Y0332554D02*
Y0336465D01*
X0585699Y0297500D02*
X0586057Y0297142D01*
X0547199Y0290500D02*
X0550699Y0287000D01*
X0536721Y0336465D02*
X0539280D01*
X0536721Y0332554D02*
Y0336465D01*
X0556471Y0213728D02*
X0596427D01*
X0562774Y0240500D02*
X0563774Y0239500D01*
X0546686Y0275242D02*
X0552442D01*
X0544929Y0277000D02*
X0546686Y0275242D01*
X0552442D02*
X0552620Y0275421D01*
X0542427Y0265313D02*
X0550567Y0273453D01*
X0555447D01*
X0552016Y0271484D02*
X0555447D01*
X0548096Y0267564D02*
X0552016Y0271484D01*
X0552311Y0269516D02*
X0555447D01*
X0549696Y0266901D02*
X0552311Y0269516D01*
X0590199Y0221500D02*
X0600699Y0232000D01*
X0590199Y0278000D02*
Y0279000D01*
Y0278000D02*
X0594746Y0273453D01*
X0587199Y0275030D02*
Y0279000D01*
X0584129Y0281900D02*
X0586099D01*
X0581599Y0257900D02*
Y0279370D01*
X0584129Y0281900D01*
X0584199Y0275767D02*
Y0279000D01*
X0586099Y0281900D02*
X0588199Y0284000D01*
X0584179Y0288200D02*
X0584592D01*
X0579099Y0286100D02*
X0588299D01*
X0589699Y0287500D01*
X0579999Y0280300D02*
X0583699Y0284000D01*
X0578699D02*
X0579199D01*
X0590075Y0312376D02*
X0592199Y0314500D01*
X0576215Y0288984D02*
X0579099Y0286100D01*
X0578399Y0283700D02*
X0578699Y0284000D01*
X0570165Y0287534D02*
X0572302D01*
X0572336Y0287500D01*
X0586774Y0314500D02*
X0586813D01*
X0586279Y0314994D02*
X0586774Y0314500D01*
X0539774D02*
X0539813D01*
X0539280Y0314994D02*
X0539774Y0314500D01*
X0612199Y0233500D02*
Y0233614D01*
Y0233500D02*
X0612420Y0233279D01*
X0596623Y0235839D02*
X0616581D01*
X0612199Y0230386D02*
Y0230500D01*
X0612420Y0230720D01*
X0616581D01*
X0604199Y0283650D02*
Y0283689D01*
X0603845Y0283295D02*
X0604199Y0283650D01*
Y0280461D02*
Y0280500D01*
X0603372Y0281327D02*
X0604199Y0280500D01*
X0602455Y0269516D02*
X0604085Y0267886D01*
X0598951Y0269516D02*
X0602455D01*
X0605337Y0263610D02*
X0607313Y0265586D01*
Y0266000D01*
X0604085D02*
X0604131D01*
X0604199Y0265931D01*
X0604085Y0266000D02*
Y0267886D01*
X0630585Y0314500D02*
X0630624D01*
X0628125D02*
X0630585D01*
X0603699Y0254000D02*
X0604585D01*
X0550699Y0286650D02*
Y0286689D01*
X0627699Y0300400D02*
X0628124Y0299974D01*
Y0294969D02*
Y0299974D01*
X0579176Y0315312D02*
X0588026Y0306462D01*
X0579176Y0315312D02*
Y0323976D01*
X0588026Y0292252D02*
Y0306462D01*
X0576928Y0315297D02*
X0582120Y0310104D01*
Y0292252D02*
Y0310104D01*
X0573962Y0316000D02*
X0580152Y0309810D01*
Y0292252D02*
Y0309810D01*
X0573299Y0314400D02*
X0578183Y0309516D01*
Y0292252D02*
Y0309516D01*
X0576928Y0315297D02*
Y0318728D01*
X0538385Y0261734D02*
X0539971Y0260148D01*
X0557664Y0292500D02*
X0562187D01*
X0550699Y0286689D02*
Y0287000D01*
X0579999Y0258563D02*
Y0280300D01*
X0664997Y0277298D02*
Y0288698D01*
X0665199Y0288900D01*
X0533199Y0229500D02*
X0540699D01*
X0528799Y0233900D02*
X0533199Y0229500D01*
X0528799Y0233900D02*
Y0249372D01*
X0564199Y0282500D02*
Y0284500D01*
X0559089Y0277390D02*
X0564199Y0282500D01*
X0560199Y0251322D02*
X0562699Y0253822D01*
X0610538Y0228161D02*
X0616581D01*
X0594399Y0238063D02*
X0596623Y0235839D01*
X0582162Y0222000D02*
X0582199Y0221963D01*
Y0217272D02*
Y0221963D01*
X0574199Y0221937D02*
X0574262Y0222000D01*
X0574199Y0217272D02*
Y0221937D01*
X0566199Y0221811D02*
X0566388Y0222000D01*
X0566199Y0217272D02*
Y0221811D01*
X0625325Y0248000D02*
X0630325Y0243000D01*
X0620099Y0261600D02*
X0632699Y0249000D01*
X0608799Y0261600D02*
X0620099D01*
X0637271Y0248228D02*
X0638199D01*
X0622299Y0263200D02*
X0637271Y0248228D01*
X0653947Y0243000D02*
Y0244024D01*
X0646199Y0251772D02*
X0653947Y0244024D01*
X0646125Y0248154D02*
X0646199Y0248228D01*
X0646125Y0243000D02*
Y0248154D01*
X0638199Y0243026D02*
X0638225Y0243000D01*
X0638199Y0243026D02*
Y0248228D01*
X0603699Y0250500D02*
X0618199D01*
X0536699Y0232500D02*
Y0242733D01*
X0533699Y0232500D02*
Y0241995D01*
X0612420Y0233279D02*
X0616581D01*
X0615075Y0228446D02*
X0615075Y0228446D01*
X0534071Y0246143D02*
Y0265628D01*
X0532799Y0266900D02*
X0534071Y0265628D01*
X0531199Y0243272D02*
X0534071Y0246143D01*
X0638199Y0251772D02*
X0646199D01*
X0608077Y0263200D02*
X0622299D01*
X0603936Y0248000D02*
X0625325D01*
X0606519Y0261642D02*
X0608077Y0263200D01*
X0606872Y0259673D02*
X0608799Y0261600D01*
X0598951Y0259673D02*
X0606872D01*
X0668364Y0287165D02*
Y0288840D01*
X0667199Y0286000D02*
X0668364Y0287165D01*
X0667199Y0284451D02*
Y0286000D01*
X0664699Y0277000D02*
X0664997Y0277298D01*
X0598951Y0261642D02*
X0606519D01*
X0604624Y0257500D02*
X0604829Y0257705D01*
X0601963Y0255736D02*
X0603699Y0254000D01*
X0599400Y0252536D02*
X0603936Y0248000D01*
X0593900Y0252536D02*
X0599400D01*
X0600063Y0254136D02*
X0603699Y0250500D01*
X0598288Y0254136D02*
X0600063D01*
X0598951Y0255736D02*
X0601963D01*
X0593537Y0252899D02*
X0593900Y0252536D01*
X0594555Y0254144D02*
X0598280D01*
X0594200Y0254499D02*
X0594555Y0254144D01*
X0598280D02*
X0598288Y0254136D01*
X0528799Y0249372D02*
X0531199Y0251772D01*
X0572278Y0253104D02*
X0578399Y0259226D01*
X0574246Y0252810D02*
X0579999Y0258563D01*
X0576215Y0252516D02*
X0581599Y0257900D01*
X0578399Y0259226D02*
Y0283700D01*
X0588839Y0324139D02*
X0590935Y0326236D01*
X0547199Y0290000D02*
Y0290500D01*
X0543699Y0282601D02*
X0543927Y0282372D01*
X0550246Y0283500D02*
X0550699D01*
X0543927Y0282206D02*
Y0282372D01*
X0532799Y0266900D02*
Y0282900D01*
X0532699Y0283000D02*
X0532799Y0282900D01*
X0550699Y0286650D02*
X0551152D01*
X0552538Y0285264D01*
X0572336Y0287500D02*
X0574246Y0289410D01*
X0531199Y0271756D02*
X0531199Y0271756D01*
X0531199Y0271756D02*
Y0281500D01*
X0529699Y0283000D02*
X0531199Y0281500D01*
X0545199Y0316322D02*
Y0318500D01*
X0547140Y0316000D02*
X0573962D01*
X0541916Y0310776D02*
X0547140Y0316000D01*
X0547802Y0314400D02*
X0573299D01*
X0542579Y0309176D02*
X0547802Y0314400D01*
X0541253Y0312376D02*
X0545199Y0316322D01*
X0535260Y0309176D02*
X0542579D01*
X0535923Y0310776D02*
X0541916D01*
X0537823Y0312376D02*
X0541253D01*
X0549949Y0300750D02*
X0553549D01*
X0548274Y0302425D02*
X0549949Y0300750D01*
X0547699Y0302425D02*
X0548274D01*
X0552449Y0310250D02*
X0553549D01*
X0548237Y0306037D02*
X0552449Y0310250D01*
X0569849Y0300750D02*
X0571524D01*
X0530199Y0314237D02*
X0535260Y0309176D01*
X0532176Y0314524D02*
X0535923Y0310776D01*
X0536624Y0313575D02*
X0537823Y0312376D01*
X0536624Y0313575D02*
Y0314500D01*
X0530199Y0314237D02*
Y0325728D01*
X0532176Y0314524D02*
Y0323976D01*
X0621199Y0317500D02*
X0622199Y0318500D01*
X0600936Y0317500D02*
X0621199D01*
X0555447Y0277390D02*
X0559089D01*
X0574246Y0289410D02*
Y0292252D01*
X0568899Y0299800D02*
X0572278Y0296421D01*
X0568899Y0299800D02*
X0569849Y0300750D01*
X0568799Y0296900D02*
X0570309Y0295390D01*
X0622569Y0315900D02*
X0624299Y0317630D01*
X0601599Y0315900D02*
X0622569D01*
X0625899Y0316726D02*
X0628125Y0314500D01*
X0623474Y0314300D02*
X0625899Y0316726D01*
X0633280Y0314994D02*
X0633774Y0314500D01*
X0633280Y0314994D02*
Y0319535D01*
X0586279Y0314994D02*
Y0319535D01*
X0539280Y0314994D02*
Y0319535D01*
X0550199Y0283500D02*
X0550404Y0283295D01*
X0631199Y0293746D02*
Y0294594D01*
Y0296974D02*
Y0300203D01*
X0576199Y0292268D02*
X0576215Y0292252D01*
Y0288984D02*
Y0292252D01*
X0576016Y0297317D02*
X0576199Y0297500D01*
X0543935Y0326236D02*
X0548224D01*
X0541839Y0324139D02*
X0543935Y0326236D01*
X0635839Y0324139D02*
X0637935Y0326236D01*
X0642224D01*
X0548224Y0338525D02*
Y0345764D01*
X0546164Y0336465D02*
X0548224Y0338525D01*
X0595224D02*
Y0345764D01*
X0593164Y0336465D02*
X0595224Y0338525D01*
X0640164Y0336465D02*
X0642224Y0338525D01*
Y0345764D01*
X0554443Y0308700D02*
X0566244Y0296900D01*
X0568799D01*
X0627199Y0294043D02*
X0628124Y0294969D01*
X0628161Y0319929D02*
X0630721D01*
X0581161D02*
X0583720D01*
X0534161D02*
X0536721D01*
X0590935Y0326236D02*
X0595224D01*
X0585774Y0330500D02*
X0586699D01*
X0583720Y0332554D02*
X0585774Y0330500D01*
X0584089Y0288110D02*
X0584179Y0288200D01*
X0585199Y0297500D02*
X0585699D01*
X0536721Y0332554D02*
X0538774Y0330500D01*
X0539699D01*
X0532176Y0323976D02*
X0534161Y0325962D01*
X0579176Y0323976D02*
X0581161Y0325962D01*
X0624299Y0317630D02*
Y0323100D01*
X0628161Y0326962D01*
X0625899Y0316967D02*
Y0322437D01*
X0630699Y0327237D01*
Y0333930D01*
X0630721Y0333951D01*
X0562187Y0292500D02*
X0562435Y0292252D01*
X0564404Y0244220D02*
Y0248748D01*
X0590062Y0222000D02*
X0590199Y0221863D01*
Y0217272D02*
Y0221500D01*
Y0221863D01*
X0588631Y0219932D02*
X0590199Y0221500D01*
X0540699Y0229500D02*
X0556471Y0213728D01*
X0567774Y0244000D02*
Y0244100D01*
X0562435Y0240764D02*
Y0248748D01*
X0567699Y0243925D02*
X0567774Y0244000D01*
X0562699Y0234000D02*
X0566538D01*
X0589994Y0245906D02*
Y0248748D01*
Y0245906D02*
X0592799Y0243101D01*
Y0237400D02*
Y0243101D01*
X0594399Y0238063D02*
Y0243800D01*
X0598951Y0283295D02*
X0603845D01*
X0598951Y0281327D02*
X0603372D01*
X0598951Y0285264D02*
X0601463D01*
X0602927Y0286728D01*
X0605471D02*
X0606699Y0285500D01*
Y0281287D02*
Y0285500D01*
Y0281287D02*
X0609546Y0278441D01*
X0610546D01*
X0618853Y0293500D02*
X0624199D01*
X0615699Y0296654D02*
X0618853Y0293500D01*
X0626799Y0290100D02*
X0627199Y0290500D01*
X0618258Y0281578D02*
Y0288347D01*
Y0288925D01*
X0608971Y0296000D02*
X0611183D01*
X0618258Y0288925D01*
X0603699Y0221000D02*
Y0224500D01*
X0596427Y0213728D02*
X0603699Y0221000D01*
X0592799Y0237400D02*
X0596099Y0234100D01*
X0604599D02*
X0610538Y0228161D01*
X0596099Y0234100D02*
X0604599D01*
X0629699Y0272500D02*
X0630199D01*
X0626799Y0275456D02*
Y0290100D01*
X0629699Y0272500D02*
X0629727Y0272528D01*
X0626799Y0275456D02*
X0629727Y0272528D01*
X0572832Y0264100D02*
X0576066Y0260866D01*
X0589335Y0252899D02*
X0593537D01*
X0586057Y0251884D02*
X0588672Y0254499D01*
X0588026Y0251590D02*
X0589335Y0252899D01*
X0588672Y0254499D02*
X0594200D01*
X0591963Y0246236D02*
X0594399Y0243800D01*
X0591963Y0246236D02*
Y0248748D01*
Y0306264D02*
X0601599Y0315900D01*
X0589994Y0306558D02*
X0600936Y0317500D01*
X0583699Y0313972D02*
X0585295Y0312376D01*
X0590075D01*
X0583699Y0313972D02*
Y0314500D01*
X0546799Y0248100D02*
X0551296Y0252597D01*
X0546136Y0249700D02*
X0549696Y0253260D01*
X0545474Y0251300D02*
X0548096Y0253922D01*
X0543004Y0251300D02*
X0545474D01*
X0543667Y0249700D02*
X0546136D01*
X0544329Y0248100D02*
X0546799D01*
X0536699Y0242733D02*
X0543667Y0249700D01*
X0533699Y0241995D02*
X0543004Y0251300D01*
X0539699Y0232500D02*
Y0243470D01*
X0544329Y0248100D01*
X0604699Y0308500D02*
Y0310000D01*
X0608999Y0314300D01*
X0623474D01*
X0586057Y0292252D02*
Y0297142D01*
X0552538Y0285264D02*
X0555447D01*
X0572278Y0248748D02*
Y0253104D01*
X0576215Y0248748D02*
Y0252516D01*
X0591963Y0292252D02*
Y0306264D01*
X0589994Y0292252D02*
Y0306558D01*
X0572278Y0292252D02*
Y0296421D01*
X0588026Y0248748D02*
Y0251590D01*
X0570309Y0292252D02*
Y0295390D01*
X0568341Y0248748D02*
Y0258388D01*
X0574246Y0248748D02*
Y0252810D01*
X0570309Y0248748D02*
Y0259390D01*
X0552620Y0275421D02*
X0555447D01*
X0586057Y0248748D02*
Y0251884D01*
X0584089Y0248748D02*
X0586057D01*
X0567699Y0262000D02*
X0570309Y0259390D01*
X0564229Y0264100D02*
X0572832D01*
X0565099Y0261630D02*
X0568341Y0258388D01*
X0562699Y0253822D02*
Y0262570D01*
X0564229Y0264100D01*
X0565099Y0261630D02*
Y0262000D01*
X0562435Y0240764D02*
X0562699Y0240500D01*
X0560199Y0247500D02*
Y0251322D01*
X0571699Y0239500D02*
X0573199Y0238000D01*
X0563774Y0239500D02*
X0571699D01*
X0594746Y0273453D02*
X0598951D01*
X0594682Y0267547D02*
X0598951D01*
X0593309Y0263610D02*
X0598951D01*
X0593199Y0263500D02*
X0593309Y0263610D01*
X0598951D02*
X0605337D01*
X0587199Y0275030D02*
X0594682Y0267547D01*
X0593199Y0272000D02*
X0593715Y0271484D01*
X0598951D01*
X0584199Y0275767D02*
X0594388Y0265579D01*
X0598951D01*
X0545528Y0280772D02*
X0550199D01*
X0588839Y0336465D02*
X0593164D01*
X0541839Y0319535D02*
Y0324139D01*
Y0336465D02*
X0546164D01*
X0635839Y0319535D02*
Y0324139D01*
Y0336465D02*
X0640164D01*
X0588839Y0319535D02*
Y0324139D01*
X0551296Y0252597D02*
Y0266238D01*
X0552605Y0267547D01*
X0555447D01*
X0549696Y0253260D02*
Y0266901D01*
X0548096Y0253922D02*
Y0267564D01*
X0536427Y0256500D02*
Y0274228D01*
X0542419Y0264945D02*
X0542427Y0264954D01*
Y0265313D01*
X0536427Y0274228D02*
X0539199Y0277000D01*
X0544929D01*
X0550199Y0277228D02*
X0552329Y0279358D01*
X0555447D01*
X0542427Y0256000D02*
Y0258513D01*
X0542419Y0258522D02*
X0542427Y0258513D01*
X0542419Y0258522D02*
Y0264945D01*
X0539971Y0256000D02*
Y0260148D01*
X0545971Y0256000D02*
Y0259856D01*
X0544094Y0261734D02*
X0545971Y0259856D01*
X0628161Y0326962D02*
Y0336465D01*
X0564404Y0244220D02*
X0564624Y0244000D01*
X0631274Y0294594D02*
Y0296974D01*
X0603847Y0265579D02*
X0604199Y0265931D01*
X0581161Y0325962D02*
Y0336465D01*
X0576199Y0292268D02*
Y0297500D01*
X0598951Y0257705D02*
X0604829D01*
X0534161Y0325962D02*
Y0336465D01*
X0571524Y0300750D02*
X0575699Y0304925D01*
X0554443Y0308700D02*
Y0310575D01*
X0602927Y0286728D02*
X0605471D01*
X0618258Y0281578D02*
X0620900Y0278937D01*
X0622459D01*
D41*
X0607774Y0254039D02*
Y0257500D01*
Y0254039D02*
X0607813Y0254000D01*
X0657618Y0296532D02*
Y0298468D01*
X0559624Y0238075D02*
Y0240500D01*
D42*
X0638099Y0222000D02*
Y0225600D01*
X0630420Y0233279D02*
X0638099Y0225600D01*
X0626817Y0233279D02*
X0630420D01*
X0614451Y0222000D02*
X0616428Y0220024D01*
Y0216500D02*
Y0220024D01*
X0619971Y0219646D02*
X0622325Y0222000D01*
X0619971Y0216500D02*
Y0219646D01*
X0633099Y0217000D02*
X0638099Y0222000D01*
X0627325Y0217000D02*
X0633099D01*
X0622325Y0222000D02*
X0627325Y0217000D01*
X0630199Y0222000D02*
Y0230000D01*
X0629479Y0230720D02*
X0630199Y0230000D01*
X0626817Y0230720D02*
X0629479D01*
X0628971Y0222000D02*
X0630199D01*
X0539550Y0283371D02*
Y0286851D01*
X0542699Y0290000D01*
X0546849D01*
D45*
X0579199Y0404000D02*
D03*
X0626199D02*
D03*
X0660699Y0221000D02*
D03*
X0538199D02*
D03*
D47*
X0661821Y0243000D02*
D03*
X0646125D02*
D03*
X0638225D02*
D03*
X0630325D02*
D03*
X0622451D02*
D03*
X0614577D02*
D03*
X0653947D02*
D03*
X0597936Y0222000D02*
D03*
X0590062D02*
D03*
X0582162D02*
D03*
X0574262D02*
D03*
X0566388D02*
D03*
X0558514D02*
D03*
X0638099D02*
D03*
X0630199D02*
D03*
X0622325D02*
D03*
X0614451D02*
D03*
D48*
X0542239Y0271970D02*
D03*
D49*
X0554199Y0403000D02*
D03*
Y0406000D02*
D03*
X0601199Y0403000D02*
D03*
Y0406000D02*
D03*
X0648199Y0403000D02*
D03*
Y0406000D02*
D03*
X0636199D02*
D03*
Y0403000D02*
D03*
X0589199Y0406000D02*
D03*
Y0403000D02*
D03*
X0542199D02*
D03*
Y0406000D02*
D03*
X0590199Y0279000D02*
D03*
X0587199D02*
D03*
X0584199D02*
D03*
X0584592Y0288200D02*
D03*
X0583699Y0284000D02*
D03*
X0579199D02*
D03*
X0589699Y0287500D02*
D03*
X0592199Y0314500D02*
D03*
X0588199Y0284000D02*
D03*
X0570165Y0287534D02*
D03*
X0571699Y0309000D02*
D03*
X0569199D02*
D03*
X0566699D02*
D03*
X0555199Y0288500D02*
D03*
Y0299500D02*
D03*
Y0302000D02*
D03*
Y0304500D02*
D03*
X0586813Y0314500D02*
D03*
X0539813D02*
D03*
X0612199Y0233614D02*
D03*
Y0230386D02*
D03*
X0557664Y0292500D02*
D03*
X0575699Y0300614D02*
D03*
X0604199Y0283689D02*
D03*
Y0280461D02*
D03*
X0607313Y0266000D02*
D03*
X0604085D02*
D03*
X0607813Y0254000D02*
D03*
X0604585D02*
D03*
X0593199Y0279000D02*
D03*
X0665199Y0288900D02*
D03*
X0648199Y0228000D02*
D03*
X0542199Y0234500D02*
D03*
X0544699D02*
D03*
X0547199D02*
D03*
X0632699Y0249000D02*
D03*
X0618199Y0250500D02*
D03*
X0539699Y0232500D02*
D03*
X0536699D02*
D03*
X0533699D02*
D03*
X0654199Y0249500D02*
D03*
X0606199Y0216000D02*
D03*
X0597699Y0238000D02*
D03*
X0600699Y0241000D02*
D03*
X0597699D02*
D03*
X0600699Y0244000D02*
D03*
X0597699D02*
D03*
X0610699Y0259500D02*
D03*
X0667199Y0260000D02*
D03*
X0664199D02*
D03*
X0661199D02*
D03*
X0658199D02*
D03*
X0648199Y0275500D02*
D03*
Y0278500D02*
D03*
Y0281500D02*
D03*
Y0284500D02*
D03*
Y0287500D02*
D03*
X0645199Y0278500D02*
D03*
Y0275500D02*
D03*
Y0281500D02*
D03*
X0630199Y0260500D02*
D03*
Y0263500D02*
D03*
Y0266500D02*
D03*
Y0269500D02*
D03*
Y0272500D02*
D03*
X0642199Y0275500D02*
D03*
X0667199Y0280000D02*
D03*
X0656699D02*
D03*
X0659699D02*
D03*
X0662699D02*
D03*
Y0283000D02*
D03*
Y0286000D02*
D03*
X0659699D02*
D03*
Y0283000D02*
D03*
X0656699Y0286000D02*
D03*
Y0283000D02*
D03*
X0653699D02*
D03*
Y0286000D02*
D03*
X0668364Y0288840D02*
D03*
X0597699Y0250000D02*
D03*
X0594699D02*
D03*
X0597699Y0247000D02*
D03*
X0600699D02*
D03*
X0593199Y0233500D02*
D03*
X0537199Y0248500D02*
D03*
X0576066Y0260866D02*
D03*
X0583699Y0263500D02*
D03*
X0591699Y0317500D02*
D03*
X0586699Y0324000D02*
D03*
X0547199Y0290000D02*
D03*
Y0287000D02*
D03*
X0564199Y0284500D02*
D03*
X0530699Y0329500D02*
D03*
X0531199Y0248228D02*
D03*
Y0256728D02*
D03*
Y0239728D02*
D03*
X0532699Y0283000D02*
D03*
X0529699D02*
D03*
X0607699Y0308500D02*
D03*
X0604699D02*
D03*
X0622199Y0306500D02*
D03*
X0545199Y0318500D02*
D03*
X0545286Y0308913D02*
D03*
X0547786Y0308913D02*
D03*
X0534199Y0307000D02*
D03*
X0576928Y0318728D02*
D03*
X0536699Y0324300D02*
D03*
X0642199Y0281500D02*
D03*
Y0287500D02*
D03*
Y0284500D02*
D03*
X0593199Y0263500D02*
D03*
X0622199Y0318500D02*
D03*
X0650199Y0334000D02*
D03*
X0655199Y0331500D02*
D03*
Y0329000D02*
D03*
X0650199Y0326500D02*
D03*
X0657699D02*
D03*
Y0329000D02*
D03*
X0655199Y0326500D02*
D03*
Y0324000D02*
D03*
X0657699D02*
D03*
X0660199D02*
D03*
Y0326500D02*
D03*
Y0329000D02*
D03*
Y0321500D02*
D03*
X0657699D02*
D03*
X0655199D02*
D03*
X0652699D02*
D03*
Y0324000D02*
D03*
Y0326500D02*
D03*
Y0329000D02*
D03*
X0650199Y0324000D02*
D03*
Y0321500D02*
D03*
Y0329000D02*
D03*
Y0331500D02*
D03*
X0652699D02*
D03*
X0657699D02*
D03*
X0660199D02*
D03*
Y0334000D02*
D03*
X0657699D02*
D03*
X0655199D02*
D03*
X0652699D02*
D03*
X0660199Y0336500D02*
D03*
X0657699D02*
D03*
X0655199D02*
D03*
X0652699D02*
D03*
X0650199D02*
D03*
X0603199D02*
D03*
X0605699D02*
D03*
X0608199D02*
D03*
X0610699D02*
D03*
X0613199D02*
D03*
X0605699Y0334000D02*
D03*
X0608199D02*
D03*
X0610699D02*
D03*
X0613199D02*
D03*
Y0331500D02*
D03*
X0610699D02*
D03*
X0605699D02*
D03*
X0603199D02*
D03*
Y0329000D02*
D03*
Y0321500D02*
D03*
Y0324000D02*
D03*
X0605699Y0329000D02*
D03*
Y0326500D02*
D03*
Y0324000D02*
D03*
Y0321500D02*
D03*
X0608199D02*
D03*
X0610699D02*
D03*
X0613199D02*
D03*
Y0329000D02*
D03*
Y0326500D02*
D03*
Y0324000D02*
D03*
X0610699D02*
D03*
X0608199D02*
D03*
Y0326500D02*
D03*
X0610699Y0329000D02*
D03*
Y0326500D02*
D03*
X0603199D02*
D03*
X0608199Y0329000D02*
D03*
Y0331500D02*
D03*
X0603199Y0334000D02*
D03*
X0556199Y0336500D02*
D03*
X0558699D02*
D03*
X0561199D02*
D03*
X0563699D02*
D03*
X0566199D02*
D03*
X0558699Y0334000D02*
D03*
X0561199D02*
D03*
X0563699D02*
D03*
X0566199D02*
D03*
Y0331500D02*
D03*
X0563699D02*
D03*
X0558699D02*
D03*
X0556199D02*
D03*
Y0329000D02*
D03*
Y0321500D02*
D03*
Y0324000D02*
D03*
X0558699Y0329000D02*
D03*
Y0326500D02*
D03*
Y0324000D02*
D03*
Y0321500D02*
D03*
X0561199D02*
D03*
X0563699D02*
D03*
X0566199D02*
D03*
Y0329000D02*
D03*
Y0326500D02*
D03*
Y0324000D02*
D03*
X0563699D02*
D03*
X0561199D02*
D03*
Y0326500D02*
D03*
X0563699Y0329000D02*
D03*
Y0326500D02*
D03*
X0556199D02*
D03*
X0561199Y0329000D02*
D03*
Y0331500D02*
D03*
X0556199Y0334000D02*
D03*
X0668699Y0390500D02*
D03*
Y0388000D02*
D03*
X0666199Y0390500D02*
D03*
Y0388000D02*
D03*
X0668699Y0385500D02*
D03*
X0663699Y0388000D02*
D03*
X0666199Y0385500D02*
D03*
X0663699Y0390500D02*
D03*
Y0385500D02*
D03*
X0632699Y0390500D02*
D03*
Y0388000D02*
D03*
X0663699Y0383000D02*
D03*
X0632699Y0385500D02*
D03*
X0668699Y0383000D02*
D03*
Y0380500D02*
D03*
X0666199Y0383000D02*
D03*
Y0380500D02*
D03*
X0668699Y0378000D02*
D03*
Y0375500D02*
D03*
X0666199Y0378000D02*
D03*
Y0375500D02*
D03*
X0663699Y0380500D02*
D03*
X0632699Y0383000D02*
D03*
Y0380500D02*
D03*
X0663699Y0378000D02*
D03*
Y0375500D02*
D03*
X0632699Y0378000D02*
D03*
X0630199Y0390500D02*
D03*
Y0388000D02*
D03*
X0627699Y0390500D02*
D03*
Y0388000D02*
D03*
X0630199Y0385500D02*
D03*
Y0383000D02*
D03*
X0627699Y0385500D02*
D03*
Y0383000D02*
D03*
X0625199Y0390500D02*
D03*
Y0388000D02*
D03*
X0620199Y0390500D02*
D03*
X0622699D02*
D03*
Y0388000D02*
D03*
X0625199Y0385500D02*
D03*
X0620199D02*
D03*
X0622699D02*
D03*
X0627699Y0380500D02*
D03*
X0630199D02*
D03*
X0625199Y0383000D02*
D03*
Y0380500D02*
D03*
X0627699Y0378000D02*
D03*
X0630199D02*
D03*
X0625199D02*
D03*
Y0375500D02*
D03*
X0622699Y0383000D02*
D03*
Y0380500D02*
D03*
X0620199Y0383000D02*
D03*
Y0380500D02*
D03*
X0622699Y0378000D02*
D03*
Y0375500D02*
D03*
X0620199Y0378000D02*
D03*
X0668699Y0310500D02*
D03*
X0665699D02*
D03*
Y0301500D02*
D03*
X0632699Y0375500D02*
D03*
X0630199D02*
D03*
Y0373000D02*
D03*
X0632699D02*
D03*
X0627699Y0375500D02*
D03*
Y0373000D02*
D03*
X0620199Y0375500D02*
D03*
X0625199Y0373000D02*
D03*
X0622699D02*
D03*
X0662699Y0310500D02*
D03*
Y0307500D02*
D03*
Y0304500D02*
D03*
Y0301500D02*
D03*
X0617699Y0390500D02*
D03*
X0620199Y0388000D02*
D03*
X0585699Y0390500D02*
D03*
X0617699Y0388000D02*
D03*
X0585699D02*
D03*
Y0385500D02*
D03*
X0580699Y0390500D02*
D03*
X0583199D02*
D03*
X0575699D02*
D03*
X0578199D02*
D03*
X0580699Y0388000D02*
D03*
X0583199D02*
D03*
X0575699D02*
D03*
X0578199D02*
D03*
X0617699Y0385500D02*
D03*
Y0383000D02*
D03*
X0580699Y0385500D02*
D03*
X0583199D02*
D03*
X0585699Y0383000D02*
D03*
X0617699Y0380500D02*
D03*
X0583199Y0383000D02*
D03*
Y0380500D02*
D03*
X0578199Y0383000D02*
D03*
X0580699D02*
D03*
X0575699Y0385500D02*
D03*
X0578199D02*
D03*
X0575699Y0380500D02*
D03*
X0578199D02*
D03*
X0575699Y0383000D02*
D03*
X0570699Y0390500D02*
D03*
X0573199D02*
D03*
X0536699D02*
D03*
X0539199D02*
D03*
X0573199Y0388000D02*
D03*
X0539199D02*
D03*
X0570699D02*
D03*
X0534199Y0390500D02*
D03*
X0536699Y0388000D02*
D03*
X0534199D02*
D03*
X0570699Y0385500D02*
D03*
X0573199D02*
D03*
X0539199D02*
D03*
X0570699Y0383000D02*
D03*
X0573199D02*
D03*
X0570699Y0380500D02*
D03*
X0539199Y0383000D02*
D03*
Y0380500D02*
D03*
X0536699Y0385500D02*
D03*
Y0383000D02*
D03*
X0534199Y0385500D02*
D03*
X0531699Y0383000D02*
D03*
X0534199D02*
D03*
X0531699Y0380500D02*
D03*
X0617699Y0375500D02*
D03*
Y0378000D02*
D03*
X0585699Y0380500D02*
D03*
Y0378000D02*
D03*
X0580699D02*
D03*
X0583199D02*
D03*
X0573199Y0380500D02*
D03*
X0580699D02*
D03*
X0573199Y0378000D02*
D03*
X0570699D02*
D03*
X0534199Y0380500D02*
D03*
X0536699D02*
D03*
X0531699Y0378000D02*
D03*
X0534199D02*
D03*
X0575699D02*
D03*
X0578199D02*
D03*
X0570699Y0375500D02*
D03*
X0573199D02*
D03*
X0539199Y0378000D02*
D03*
Y0375500D02*
D03*
X0536699Y0378000D02*
D03*
Y0375500D02*
D03*
X0534199D02*
D03*
X0531699D02*
D03*
X0605428Y0296000D02*
D03*
X0639199Y0272500D02*
D03*
X0636199D02*
D03*
X0639199Y0269500D02*
D03*
Y0266500D02*
D03*
Y0260500D02*
D03*
Y0263500D02*
D03*
X0636199Y0266500D02*
D03*
Y0269500D02*
D03*
Y0260500D02*
D03*
Y0263642D02*
D03*
X0633199Y0272500D02*
D03*
Y0269500D02*
D03*
Y0266500D02*
D03*
Y0260500D02*
D03*
Y0263500D02*
D03*
X0659699Y0347500D02*
D03*
X0657199D02*
D03*
X0652199D02*
D03*
X0654699D02*
D03*
X0659699Y0342500D02*
D03*
X0649699Y0347500D02*
D03*
X0659699Y0345000D02*
D03*
X0634199D02*
D03*
Y0342500D02*
D03*
X0645199Y0293500D02*
D03*
X0642199D02*
D03*
X0636199D02*
D03*
X0639199D02*
D03*
X0626699Y0365000D02*
D03*
Y0367500D02*
D03*
X0624199D02*
D03*
Y0365000D02*
D03*
X0612699Y0347500D02*
D03*
X0631699Y0345000D02*
D03*
X0607699Y0347500D02*
D03*
X0610199D02*
D03*
X0605199D02*
D03*
X0602699D02*
D03*
X0631699Y0342500D02*
D03*
X0629199Y0345000D02*
D03*
X0612699Y0342500D02*
D03*
X0629199D02*
D03*
X0612699Y0345000D02*
D03*
X0642199Y0290500D02*
D03*
X0645199D02*
D03*
X0639199Y0287500D02*
D03*
Y0290500D02*
D03*
Y0284500D02*
D03*
X0636199Y0290500D02*
D03*
Y0287500D02*
D03*
X0633199Y0290500D02*
D03*
Y0287500D02*
D03*
X0645199Y0284500D02*
D03*
X0633199D02*
D03*
X0639199Y0281500D02*
D03*
X0636199Y0284500D02*
D03*
X0639199Y0278500D02*
D03*
X0633199Y0281500D02*
D03*
X0636199D02*
D03*
Y0278500D02*
D03*
Y0275500D02*
D03*
X0645199Y0287500D02*
D03*
X0633199Y0278500D02*
D03*
X0639199Y0275500D02*
D03*
X0642199Y0278500D02*
D03*
X0633199Y0275500D02*
D03*
X0579699Y0365000D02*
D03*
Y0367500D02*
D03*
Y0372500D02*
D03*
Y0370000D02*
D03*
X0587199Y0345000D02*
D03*
X0584699D02*
D03*
Y0342500D02*
D03*
X0582199Y0345000D02*
D03*
X0577199Y0370000D02*
D03*
Y0372500D02*
D03*
Y0367500D02*
D03*
Y0365000D02*
D03*
X0587199Y0342500D02*
D03*
X0582199D02*
D03*
X0565699D02*
D03*
X0560699Y0347500D02*
D03*
X0563199D02*
D03*
X0565699D02*
D03*
X0558199D02*
D03*
X0565699Y0345000D02*
D03*
X0555699Y0347500D02*
D03*
X0540199Y0345000D02*
D03*
X0537699D02*
D03*
X0535199D02*
D03*
X0540199Y0342500D02*
D03*
X0537699D02*
D03*
X0535199D02*
D03*
X0584199Y0233500D02*
D03*
X0534199Y0299000D02*
D03*
Y0288200D02*
D03*
X0637199Y0306500D02*
D03*
X0634199D02*
D03*
X0631199D02*
D03*
X0628199D02*
D03*
X0625199D02*
D03*
X0637199Y0303500D02*
D03*
X0631199D02*
D03*
X0634199D02*
D03*
X0628199D02*
D03*
X0625199D02*
D03*
X0622199D02*
D03*
X0625199Y0297500D02*
D03*
X0622199Y0300500D02*
D03*
Y0297500D02*
D03*
X0619199Y0306500D02*
D03*
X0616199D02*
D03*
X0619199Y0303500D02*
D03*
Y0300500D02*
D03*
Y0297500D02*
D03*
X0616199Y0303500D02*
D03*
Y0300500D02*
D03*
X0613199Y0303500D02*
D03*
Y0297500D02*
D03*
Y0300500D02*
D03*
X0624199Y0293500D02*
D03*
X0610699Y0308500D02*
D03*
Y0254000D02*
D03*
X0631199Y0295000D02*
D03*
X0596699Y0298500D02*
D03*
Y0301500D02*
D03*
Y0304500D02*
D03*
X0586699Y0330500D02*
D03*
X0585199Y0297500D02*
D03*
Y0300500D02*
D03*
X0530199Y0325728D02*
D03*
X0539699Y0330500D02*
D03*
X0577699Y0329500D02*
D03*
X0624699D02*
D03*
X0624199Y0362500D02*
D03*
X0626699D02*
D03*
X0624199Y0360000D02*
D03*
Y0357500D02*
D03*
X0621699Y0362500D02*
D03*
Y0360000D02*
D03*
Y0357500D02*
D03*
X0577199Y0362500D02*
D03*
X0579699D02*
D03*
X0574699D02*
D03*
Y0360000D02*
D03*
X0577199D02*
D03*
X0635699Y0349000D02*
D03*
Y0351500D02*
D03*
X0638199Y0349000D02*
D03*
X0541699D02*
D03*
X0588699D02*
D03*
Y0351500D02*
D03*
X0541699D02*
D03*
X0591199Y0349000D02*
D03*
X0582199Y0362500D02*
D03*
X0544199Y0349000D02*
D03*
X0593955Y0354000D02*
D03*
X0546955D02*
D03*
X0640955D02*
D03*
X0629199Y0362500D02*
D03*
X0591199Y0323500D02*
D03*
X0562699Y0232000D02*
D03*
Y0234500D02*
D03*
X0570199Y0242000D02*
D03*
X0573199D02*
D03*
X0572199Y0230500D02*
D03*
X0575199D02*
D03*
X0578199D02*
D03*
X0581199D02*
D03*
Y0233500D02*
D03*
X0578199D02*
D03*
X0575199D02*
D03*
Y0236500D02*
D03*
X0594699Y0247000D02*
D03*
X0584199Y0236500D02*
D03*
Y0239500D02*
D03*
Y0242500D02*
D03*
X0587199D02*
D03*
Y0239500D02*
D03*
Y0236500D02*
D03*
Y0233500D02*
D03*
X0590199D02*
D03*
Y0236500D02*
D03*
Y0239500D02*
D03*
Y0242500D02*
D03*
X0604199Y0290272D02*
D03*
X0621199Y0285500D02*
D03*
X0624199D02*
D03*
X0627199Y0266500D02*
D03*
Y0263500D02*
D03*
X0642199Y0260500D02*
D03*
X0624199Y0275500D02*
D03*
X0621199D02*
D03*
X0618199D02*
D03*
X0613140Y0288347D02*
D03*
X0609546Y0283559D02*
D03*
X0624199Y0266500D02*
D03*
X0569199Y0230500D02*
D03*
X0603699Y0224500D02*
D03*
X0600699Y0238000D02*
D03*
Y0232000D02*
D03*
X0654443Y0309500D02*
D03*
X0556199Y0245000D02*
D03*
X0553199D02*
D03*
X0550199D02*
D03*
X0547199D02*
D03*
X0544199D02*
D03*
Y0242000D02*
D03*
X0547199D02*
D03*
X0550199D02*
D03*
Y0239000D02*
D03*
X0547199D02*
D03*
X0544199D02*
D03*
X0567699Y0262000D02*
D03*
X0565099D02*
D03*
X0560199Y0247500D02*
D03*
X0593199Y0272000D02*
D03*
X0657168Y0295532D02*
D03*
X0653231D02*
D03*
X0657168Y0299468D02*
D03*
X0653231D02*
D03*
D55*
X0625699Y0271100D02*
D03*
X0629499Y0279437D02*
D03*
X0621959D02*
D03*
D56*
X0564504Y0326236D02*
D03*
Y0345764D02*
D03*
X0611504D02*
D03*
Y0326236D02*
D03*
X0658504D02*
D03*
Y0345764D02*
D03*
D57*
X0548224D02*
D03*
Y0326236D02*
D03*
X0595224D02*
D03*
Y0345764D02*
D03*
X0642224D02*
D03*
Y0326236D02*
D03*
D58*
X0641199Y0283858D02*
D03*
Y0266142D02*
D03*
D59*
X0581325Y0242000D02*
D03*
X0572073D02*
D03*
X0543325Y0307000D02*
D03*
X0534073D02*
D03*
X0631325Y0285500D02*
D03*
X0622073D02*
D03*
X0581073Y0234000D02*
D03*
X0590325D02*
D03*
D60*
X0545093Y0261734D02*
D03*
X0539385D02*
D03*
X0545093Y0282206D02*
D03*
X0539385D02*
D03*
D61*
X0655199Y0382130D02*
D03*
Y0360870D02*
D03*
X0608199Y0382130D02*
D03*
Y0360870D02*
D03*
X0561199Y0382130D02*
D03*
Y0360870D02*
D03*
D62*
X0667199Y0264549D02*
D03*
X0662199D02*
D03*
X0657199D02*
D03*
X0652199D02*
D03*
X0667199Y0284451D02*
D03*
X0662199D02*
D03*
X0657199D02*
D03*
X0652199D02*
D03*
D63*
X0665699Y0305811D02*
D03*
Y0294787D02*
D03*
D64*
X0609546Y0278441D02*
D03*
Y0283559D02*
D03*
X0617853Y0281000D02*
D03*
D65*
X0615699Y0296654D02*
D03*
X0613140Y0288347D02*
D03*
X0618258D02*
D03*
D66*
X0542199Y0364039D02*
D03*
Y0380968D02*
D03*
D67*
X0648302Y0404500D02*
D03*
X0636097D02*
D03*
X0601301D02*
D03*
X0589097D02*
D03*
X0554302D02*
D03*
X0542097D02*
D03*
D68*
X0588839Y0319929D02*
D03*
X0586279D02*
D03*
X0583720D02*
D03*
X0581161D02*
D03*
X0588839Y0336071D02*
D03*
X0586279D02*
D03*
X0583720D02*
D03*
X0581161D02*
D03*
X0541839Y0319929D02*
D03*
X0539280D02*
D03*
X0536721D02*
D03*
X0534161D02*
D03*
X0541839Y0336071D02*
D03*
X0539280D02*
D03*
X0536721D02*
D03*
X0534161D02*
D03*
X0635839Y0319929D02*
D03*
X0633280D02*
D03*
X0630721D02*
D03*
X0628161D02*
D03*
X0635839Y0336071D02*
D03*
X0633280D02*
D03*
X0630721D02*
D03*
X0628161D02*
D03*
D69*
X0616581Y0235839D02*
D03*
X0626817D02*
D03*
Y0228161D02*
D03*
Y0230720D02*
D03*
Y0233279D02*
D03*
X0616581D02*
D03*
Y0230720D02*
D03*
Y0228161D02*
D03*
D70*
X0569849Y0300750D02*
D03*
X0553549D02*
D03*
Y0310250D02*
D03*
X0569849D02*
D03*
D71*
X0562435Y0292252D02*
D03*
X0564404D02*
D03*
X0566372D02*
D03*
X0568341D02*
D03*
X0570309D02*
D03*
X0572278D02*
D03*
X0574246D02*
D03*
X0576215D02*
D03*
X0578183D02*
D03*
X0580152D02*
D03*
X0582120D02*
D03*
X0584089D02*
D03*
X0586057D02*
D03*
X0588026D02*
D03*
X0589994D02*
D03*
X0591963D02*
D03*
Y0248748D02*
D03*
X0589994D02*
D03*
X0588026D02*
D03*
X0586057D02*
D03*
X0584089D02*
D03*
X0582120D02*
D03*
X0580152D02*
D03*
X0578183D02*
D03*
X0576215D02*
D03*
X0574246D02*
D03*
X0572278D02*
D03*
X0570309D02*
D03*
X0568341D02*
D03*
X0566372D02*
D03*
X0564404D02*
D03*
X0562435D02*
D03*
D72*
X0598951Y0285264D02*
D03*
Y0283295D02*
D03*
Y0281327D02*
D03*
Y0279358D02*
D03*
Y0277390D02*
D03*
Y0275421D02*
D03*
Y0273453D02*
D03*
Y0271484D02*
D03*
Y0269516D02*
D03*
Y0267547D02*
D03*
Y0265579D02*
D03*
Y0263610D02*
D03*
Y0261642D02*
D03*
Y0259673D02*
D03*
Y0257705D02*
D03*
Y0255736D02*
D03*
X0555447D02*
D03*
Y0257705D02*
D03*
Y0259673D02*
D03*
Y0261642D02*
D03*
Y0263610D02*
D03*
Y0265579D02*
D03*
Y0267547D02*
D03*
Y0269516D02*
D03*
Y0271484D02*
D03*
Y0273453D02*
D03*
Y0275421D02*
D03*
Y0277390D02*
D03*
Y0279358D02*
D03*
Y0281327D02*
D03*
Y0283295D02*
D03*
Y0285264D02*
D03*
D73*
X0543687Y0240500D02*
D03*
X0554711D02*
D03*
Y0233000D02*
D03*
X0543687D02*
D03*
D74*
X0531199Y0262437D02*
D03*
Y0256532D02*
D03*
D75*
X0562699Y0234000D02*
D03*
D76*
X0558860Y0236559D02*
D03*
Y0234000D02*
D03*
Y0231441D02*
D03*
X0566538D02*
D03*
Y0234000D02*
D03*
Y0236559D02*
D03*
D77*
X0659699Y0271750D02*
D03*
D78*
X0530499Y0359000D02*
D03*
Y0388528D02*
D03*
M02*
