G04 Layer_Color=8388736*
%FSAX25Y25*%
%MOIN*%
G70*
G01*
G75*
%ADD45C,0.12205*%
%ADD48C,0.07087*%
%ADD84R,0.02569X0.02647*%
%ADD85R,0.02765X0.02372*%
%ADD86R,0.02647X0.02569*%
%ADD87R,0.03356X0.04143*%
%ADD88R,0.02372X0.02765*%
%ADD89R,0.01781X0.03750*%
%ADD90R,0.13907X0.10246*%
%ADD91R,0.04931X0.07293*%
%ADD92R,0.03356X0.05718*%
%ADD93R,0.04931X0.03947*%
%ADD94R,0.07293X0.04931*%
%ADD95R,0.03947X0.04931*%
%ADD96R,0.05718X0.03356*%
%ADD97R,0.04537X0.03159*%
%ADD98R,0.03356X0.03750*%
%ADD99O,0.06702X0.02372*%
%ADD100R,0.07411X0.07883*%
%ADD101R,0.14379X0.12900*%
%ADD102R,0.04143X0.03356*%
%ADD103R,0.06112X0.21466*%
%ADD104R,0.10836X0.04340*%
%ADD105R,0.10443X0.04340*%
%ADD106R,0.04340X0.10836*%
%ADD107R,0.04340X0.10443*%
%ADD108R,0.03750X0.08789*%
%ADD109R,0.03356X0.01781*%
%ADD110R,0.08100X0.08100*%
%ADD111R,0.08100X0.07700*%
%ADD112R,0.06200X0.02000*%
G04:AMPARAMS|DCode=113|XSize=88.68mil|YSize=234.35mil|CornerRadius=44.34mil|HoleSize=0mil|Usage=FLASHONLY|Rotation=270.000|XOffset=0mil|YOffset=0mil|HoleType=Round|Shape=RoundedRectangle|*
%AMROUNDEDRECTD113*
21,1,0.08868,0.14567,0,0,270.0*
21,1,0.00000,0.23435,0,0,270.0*
1,1,0.08868,-0.07284,0.00000*
1,1,0.08868,-0.07284,0.00000*
1,1,0.08868,0.07284,0.00000*
1,1,0.08868,0.07284,0.00000*
%
%ADD113ROUNDEDRECTD113*%
%ADD114C,0.04143*%
%ADD115C,0.06900*%
%ADD116C,0.01200*%
G36*
X0561680Y0260612D02*
D01*
X0561680D01*
X0562067Y0260612D01*
X0562073Y0260611D01*
X0562079Y0260612D01*
X0562097Y0260610D01*
X0562114Y0260608D01*
X0562120Y0260607D01*
X0562126Y0260606D01*
X0562887Y0260455D01*
X0562892Y0260453D01*
X0562898Y0260452D01*
X0562915Y0260447D01*
X0562932Y0260442D01*
X0562937Y0260439D01*
X0562943Y0260438D01*
X0563659Y0260141D01*
X0563665Y0260138D01*
X0563670Y0260136D01*
X0563686Y0260127D01*
X0563702Y0260119D01*
X0563706Y0260116D01*
X0563712Y0260113D01*
X0564356Y0259682D01*
X0564361Y0259679D01*
X0564366Y0259675D01*
X0564379Y0259664D01*
X0564393Y0259653D01*
X0564397Y0259649D01*
X0564402Y0259645D01*
X0564950Y0259096D01*
X0564954Y0259092D01*
X0564958Y0259088D01*
X0564969Y0259074D01*
X0564981Y0259061D01*
X0564984Y0259055D01*
X0564988Y0259051D01*
X0565418Y0258406D01*
X0565421Y0258401D01*
X0565425Y0258396D01*
X0565433Y0258380D01*
X0565442Y0258365D01*
X0565444Y0258359D01*
X0565446Y0258354D01*
X0565743Y0257638D01*
X0565745Y0257632D01*
X0565747Y0257627D01*
X0565752Y0257610D01*
X0565758Y0257593D01*
X0565759Y0257587D01*
X0565760Y0257581D01*
X0565911Y0256821D01*
X0565912Y0256815D01*
X0565913Y0256809D01*
X0565915Y0256791D01*
X0565917Y0256774D01*
X0565917Y0256768D01*
X0565917Y0256762D01*
Y0256377D01*
X0565917Y0256377D01*
X0565917Y0256376D01*
Y0256375D01*
X0565917Y0256374D01*
X0565917Y0252043D01*
X0565913Y0251996D01*
X0565903Y0251950D01*
X0565884Y0251907D01*
X0565860Y0251866D01*
X0565829Y0251831D01*
X0565793Y0251800D01*
X0565753Y0251775D01*
X0565709Y0251757D01*
X0565663Y0251746D01*
X0565616Y0251742D01*
X0542782D01*
X0542782D01*
D01*
X0542735Y0251746D01*
X0542689Y0251757D01*
X0542671Y0251765D01*
X0542645Y0251775D01*
X0542605Y0251800D01*
X0542569Y0251831D01*
Y0251831D01*
X0542569D01*
X0542538Y0251866D01*
X0542514Y0251907D01*
X0542503Y0251932D01*
X0542496Y0251950D01*
X0542485Y0251996D01*
X0542481Y0252043D01*
Y0252043D01*
D01*
X0542481Y0256374D01*
X0542481Y0256762D01*
X0542482Y0256768D01*
X0542481Y0256773D01*
X0542483Y0256791D01*
X0542485Y0256809D01*
X0542486Y0256814D01*
X0542487Y0256820D01*
X0542638Y0257581D01*
X0542640Y0257587D01*
X0542641Y0257593D01*
X0542646Y0257609D01*
X0542651Y0257626D01*
X0542653Y0257632D01*
X0542655Y0257637D01*
X0542952Y0258354D01*
X0542955Y0258359D01*
X0542957Y0258365D01*
X0542965Y0258380D01*
X0542973Y0258396D01*
X0542977Y0258401D01*
X0542980Y0258406D01*
X0543410Y0259051D01*
X0543414Y0259055D01*
X0543417Y0259060D01*
X0543429Y0259074D01*
X0543440Y0259088D01*
X0543444Y0259092D01*
X0543448Y0259096D01*
X0543996Y0259645D01*
X0544001Y0259648D01*
X0544005Y0259653D01*
X0544019Y0259664D01*
X0544032Y0259675D01*
X0544037Y0259679D01*
X0544042Y0259682D01*
X0544687Y0260113D01*
X0544692Y0260116D01*
X0544697Y0260119D01*
X0544712Y0260127D01*
X0544728Y0260136D01*
X0544733Y0260138D01*
X0544739Y0260141D01*
X0545455Y0260438D01*
X0545461Y0260439D01*
X0545466Y0260442D01*
X0545483Y0260447D01*
X0545500Y0260452D01*
X0545506Y0260453D01*
X0545512Y0260455D01*
X0546272Y0260606D01*
X0546278Y0260607D01*
X0546284Y0260608D01*
X0546302Y0260610D01*
X0546319Y0260612D01*
X0546325Y0260611D01*
X0546331Y0260612D01*
X0546718Y0260612D01*
X0546719Y0260612D01*
X0561680Y0260612D01*
D02*
G37*
G36*
X0565627Y0245257D02*
X0565663Y0245254D01*
X0565709Y0245243D01*
X0565709Y0245243D01*
X0565709D01*
X0565753Y0245225D01*
X0565787Y0245204D01*
X0565793Y0245200D01*
X0565793Y0245200D01*
X0565793Y0245200D01*
X0565817Y0245180D01*
X0565829Y0245169D01*
X0565829Y0245169D01*
X0565829Y0245169D01*
X0565839Y0245157D01*
X0565860Y0245134D01*
X0565860Y0245134D01*
X0565860Y0245134D01*
X0565864Y0245127D01*
X0565884Y0245093D01*
X0565902Y0245050D01*
Y0245050D01*
X0565902Y0245050D01*
X0565913Y0245004D01*
X0565916Y0244968D01*
X0565917Y0244957D01*
X0565918Y0240626D01*
X0565917Y0240626D01*
X0565918Y0240625D01*
X0565917Y0240238D01*
X0565917Y0240232D01*
X0565917Y0240226D01*
X0565915Y0240208D01*
X0565914Y0240191D01*
X0565912Y0240185D01*
X0565912Y0240179D01*
X0565760Y0239418D01*
X0565759Y0239413D01*
X0565758Y0239407D01*
X0565752Y0239390D01*
X0565747Y0239373D01*
X0565745Y0239368D01*
X0565743Y0239362D01*
X0565446Y0238646D01*
X0565444Y0238640D01*
X0565442Y0238635D01*
X0565433Y0238619D01*
X0565425Y0238603D01*
X0565421Y0238599D01*
X0565418Y0238594D01*
X0564988Y0237949D01*
X0564984Y0237944D01*
X0564981Y0237939D01*
X0564969Y0237926D01*
X0564958Y0237912D01*
X0564954Y0237908D01*
X0564950Y0237903D01*
X0564402Y0237355D01*
X0564397Y0237351D01*
X0564393Y0237347D01*
X0564379Y0237336D01*
X0564366Y0237324D01*
X0564361Y0237321D01*
X0564356Y0237317D01*
X0563711Y0236887D01*
X0563706Y0236884D01*
X0563701Y0236880D01*
X0563686Y0236872D01*
X0563670Y0236864D01*
X0563664Y0236861D01*
X0563659Y0236859D01*
X0562943Y0236562D01*
X0562937Y0236560D01*
X0562932Y0236558D01*
X0562915Y0236553D01*
X0562898Y0236547D01*
X0562892Y0236547D01*
X0562886Y0236545D01*
X0562126Y0236394D01*
X0562120Y0236393D01*
X0562114Y0236392D01*
X0562096Y0236390D01*
X0562079Y0236388D01*
X0562073Y0236388D01*
X0562067Y0236388D01*
X0561679D01*
X0546719Y0236388D01*
X0546719Y0236388D01*
X0546331Y0236388D01*
X0546325Y0236388D01*
X0546319Y0236388D01*
X0546302Y0236390D01*
X0546284Y0236392D01*
X0546278Y0236393D01*
X0546273Y0236394D01*
X0545512Y0236545D01*
X0545506Y0236547D01*
X0545500Y0236548D01*
X0545483Y0236553D01*
X0545466Y0236558D01*
X0545461Y0236560D01*
X0545455Y0236562D01*
X0544739Y0236859D01*
X0544734Y0236862D01*
X0544728Y0236864D01*
X0544713Y0236872D01*
X0544697Y0236880D01*
X0544692Y0236884D01*
X0544687Y0236887D01*
X0544042Y0237318D01*
X0544037Y0237321D01*
X0544032Y0237324D01*
X0544019Y0237336D01*
X0544005Y0237347D01*
X0544001Y0237351D01*
X0543996Y0237355D01*
X0543448Y0237903D01*
X0543444Y0237908D01*
X0543440Y0237912D01*
X0543429Y0237926D01*
X0543417Y0237939D01*
X0543414Y0237945D01*
X0543411Y0237949D01*
X0542980Y0238594D01*
X0542977Y0238599D01*
X0542973Y0238604D01*
X0542965Y0238620D01*
X0542957Y0238635D01*
X0542955Y0238641D01*
X0542952Y0238646D01*
X0542655Y0239362D01*
X0542653Y0239368D01*
X0542651Y0239373D01*
X0542646Y0239390D01*
X0542640Y0239407D01*
X0542639Y0239413D01*
X0542638Y0239419D01*
X0542487Y0240179D01*
X0542486Y0240185D01*
X0542485Y0240191D01*
X0542483Y0240209D01*
X0542481Y0240226D01*
X0542481Y0240232D01*
X0542481Y0240238D01*
X0542481Y0240626D01*
D01*
Y0240626D01*
X0542481Y0244957D01*
Y0244957D01*
D01*
X0542484Y0245004D01*
X0542495Y0245050D01*
X0542513Y0245093D01*
X0542528Y0245118D01*
X0542538Y0245134D01*
X0542569Y0245169D01*
X0542569D01*
Y0245169D01*
X0542605Y0245200D01*
X0542620Y0245210D01*
X0542645Y0245225D01*
X0542689Y0245243D01*
X0542734Y0245254D01*
X0542781Y0245258D01*
X0542781D01*
D01*
X0565616D01*
X0565627Y0245257D01*
D02*
G37*
G36*
X0563200Y0411301D02*
X0563593Y0411301D01*
X0563599Y0411300D01*
X0563605Y0411301D01*
X0563622Y0411299D01*
X0563640Y0411297D01*
X0563646Y0411296D01*
X0563652Y0411295D01*
X0564425Y0411141D01*
X0564430Y0411140D01*
X0564436Y0411139D01*
X0564453Y0411133D01*
X0564470Y0411129D01*
X0564475Y0411126D01*
X0564481Y0411124D01*
X0565209Y0410823D01*
X0565214Y0410820D01*
X0565220Y0410818D01*
X0565235Y0410809D01*
X0565251Y0410801D01*
X0565256Y0410798D01*
X0565261Y0410795D01*
X0565916Y0410357D01*
X0565921Y0410354D01*
X0565926Y0410351D01*
X0565939Y0410339D01*
X0565953Y0410328D01*
X0565957Y0410324D01*
X0565962Y0410320D01*
X0566519Y0409763D01*
X0566523Y0409758D01*
X0566527Y0409754D01*
X0566538Y0409740D01*
X0566550Y0409727D01*
X0566553Y0409722D01*
X0566556Y0409717D01*
X0566994Y0409062D01*
X0566997Y0409057D01*
X0567000Y0409052D01*
X0567008Y0409036D01*
X0567017Y0409021D01*
X0567019Y0409015D01*
X0567022Y0409010D01*
X0567323Y0408282D01*
X0567325Y0408276D01*
X0567328Y0408271D01*
X0567333Y0408254D01*
X0567338Y0408237D01*
X0567339Y0408231D01*
X0567341Y0408225D01*
X0567494Y0407453D01*
X0567495Y0407447D01*
X0567496Y0407441D01*
X0567498Y0407423D01*
X0567500Y0407406D01*
X0567500Y0407400D01*
X0567500Y0407394D01*
Y0407000D01*
X0567500Y0393000D01*
X0567496Y0392953D01*
X0567485Y0392907D01*
X0567467Y0392863D01*
X0567443Y0392823D01*
X0567412Y0392787D01*
X0567376Y0392757D01*
X0567336Y0392732D01*
X0567292Y0392714D01*
X0567246Y0392703D01*
X0567199Y0392699D01*
X0544199D01*
X0544152Y0392703D01*
X0544106Y0392714D01*
X0544063Y0392732D01*
X0544022Y0392757D01*
X0543986Y0392787D01*
X0543956Y0392823D01*
X0543931Y0392863D01*
X0543913Y0392907D01*
X0543902Y0392953D01*
X0543898Y0393000D01*
X0543898Y0407000D01*
X0543898Y0407394D01*
X0543899Y0407400D01*
X0543898Y0407406D01*
X0543900Y0407423D01*
X0543902Y0407441D01*
X0543903Y0407447D01*
X0543904Y0407453D01*
X0544058Y0408225D01*
X0544059Y0408231D01*
X0544060Y0408237D01*
X0544066Y0408254D01*
X0544070Y0408271D01*
X0544073Y0408276D01*
X0544075Y0408282D01*
X0544376Y0409010D01*
X0544379Y0409015D01*
X0544381Y0409021D01*
X0544390Y0409036D01*
X0544398Y0409052D01*
X0544401Y0409057D01*
X0544404Y0409062D01*
X0544842Y0409717D01*
X0544845Y0409722D01*
X0544849Y0409727D01*
X0544860Y0409740D01*
X0544871Y0409754D01*
X0544875Y0409758D01*
X0544879Y0409763D01*
X0545436Y0410320D01*
X0545441Y0410324D01*
X0545445Y0410328D01*
X0545459Y0410339D01*
X0545472Y0410351D01*
X0545477Y0410354D01*
X0545482Y0410357D01*
X0546137Y0410795D01*
X0546142Y0410798D01*
X0546147Y0410801D01*
X0546163Y0410809D01*
X0546178Y0410818D01*
X0546184Y0410820D01*
X0546189Y0410823D01*
X0546917Y0411124D01*
X0546923Y0411126D01*
X0546928Y0411129D01*
X0546945Y0411133D01*
X0546962Y0411139D01*
X0546968Y0411140D01*
X0546974Y0411141D01*
X0547746Y0411295D01*
X0547752Y0411296D01*
X0547758Y0411297D01*
X0547776Y0411299D01*
X0547793Y0411301D01*
X0547799Y0411301D01*
X0547805Y0411301D01*
X0548199Y0411301D01*
X0563199Y0411301D01*
X0563200Y0411301D01*
D02*
G37*
G36*
X0657200D02*
X0657593Y0411301D01*
X0657599Y0411300D01*
X0657605Y0411301D01*
X0657622Y0411299D01*
X0657640Y0411297D01*
X0657646Y0411296D01*
X0657652Y0411295D01*
X0658425Y0411141D01*
X0658430Y0411140D01*
X0658436Y0411139D01*
X0658453Y0411133D01*
X0658470Y0411129D01*
X0658475Y0411126D01*
X0658481Y0411124D01*
X0659209Y0410823D01*
X0659214Y0410820D01*
X0659220Y0410818D01*
X0659235Y0410809D01*
X0659251Y0410801D01*
X0659256Y0410798D01*
X0659261Y0410795D01*
X0659916Y0410357D01*
X0659921Y0410354D01*
X0659926Y0410351D01*
X0659939Y0410339D01*
X0659953Y0410328D01*
X0659957Y0410324D01*
X0659962Y0410320D01*
X0660519Y0409763D01*
X0660523Y0409758D01*
X0660527Y0409754D01*
X0660538Y0409740D01*
X0660550Y0409727D01*
X0660553Y0409722D01*
X0660556Y0409717D01*
X0660994Y0409062D01*
X0660997Y0409057D01*
X0661000Y0409052D01*
X0661009Y0409036D01*
X0661017Y0409021D01*
X0661019Y0409015D01*
X0661022Y0409010D01*
X0661323Y0408282D01*
X0661325Y0408276D01*
X0661328Y0408271D01*
X0661333Y0408254D01*
X0661338Y0408237D01*
X0661339Y0408231D01*
X0661341Y0408225D01*
X0661494Y0407453D01*
X0661495Y0407447D01*
X0661496Y0407441D01*
X0661498Y0407423D01*
X0661500Y0407406D01*
X0661500Y0407400D01*
X0661500Y0407394D01*
Y0407000D01*
X0661500Y0393000D01*
X0661496Y0392953D01*
X0661485Y0392907D01*
X0661467Y0392863D01*
X0661443Y0392823D01*
X0661412Y0392787D01*
X0661376Y0392757D01*
X0661336Y0392732D01*
X0661292Y0392714D01*
X0661246Y0392703D01*
X0661199Y0392699D01*
X0638199D01*
X0638152Y0392703D01*
X0638106Y0392714D01*
X0638062Y0392732D01*
X0638022Y0392757D01*
X0637986Y0392787D01*
X0637956Y0392823D01*
X0637931Y0392863D01*
X0637913Y0392907D01*
X0637902Y0392953D01*
X0637898Y0393000D01*
X0637898Y0407000D01*
X0637898Y0407394D01*
X0637899Y0407400D01*
X0637898Y0407406D01*
X0637900Y0407423D01*
X0637902Y0407441D01*
X0637903Y0407447D01*
X0637904Y0407453D01*
X0638058Y0408225D01*
X0638059Y0408231D01*
X0638060Y0408237D01*
X0638066Y0408254D01*
X0638070Y0408271D01*
X0638073Y0408276D01*
X0638075Y0408282D01*
X0638376Y0409010D01*
X0638379Y0409015D01*
X0638381Y0409021D01*
X0638390Y0409036D01*
X0638398Y0409052D01*
X0638401Y0409057D01*
X0638404Y0409062D01*
X0638842Y0409717D01*
X0638845Y0409722D01*
X0638849Y0409727D01*
X0638860Y0409740D01*
X0638871Y0409754D01*
X0638875Y0409758D01*
X0638879Y0409763D01*
X0639436Y0410320D01*
X0639441Y0410324D01*
X0639445Y0410328D01*
X0639459Y0410339D01*
X0639472Y0410351D01*
X0639477Y0410354D01*
X0639482Y0410357D01*
X0640137Y0410795D01*
X0640142Y0410798D01*
X0640147Y0410801D01*
X0640163Y0410809D01*
X0640178Y0410818D01*
X0640184Y0410820D01*
X0640189Y0410823D01*
X0640917Y0411124D01*
X0640923Y0411126D01*
X0640928Y0411129D01*
X0640945Y0411133D01*
X0640962Y0411139D01*
X0640968Y0411140D01*
X0640974Y0411141D01*
X0641746Y0411295D01*
X0641752Y0411296D01*
X0641758Y0411297D01*
X0641776Y0411299D01*
X0641793Y0411301D01*
X0641799Y0411301D01*
X0641805Y0411301D01*
X0642199Y0411301D01*
X0657199Y0411301D01*
X0657200Y0411301D01*
D02*
G37*
G36*
X0610200D02*
X0610593Y0411301D01*
X0610599Y0411300D01*
X0610605Y0411301D01*
X0610622Y0411299D01*
X0610640Y0411297D01*
X0610646Y0411296D01*
X0610652Y0411295D01*
X0611425Y0411141D01*
X0611430Y0411140D01*
X0611436Y0411139D01*
X0611453Y0411133D01*
X0611470Y0411129D01*
X0611476Y0411126D01*
X0611481Y0411124D01*
X0612209Y0410823D01*
X0612214Y0410820D01*
X0612220Y0410818D01*
X0612235Y0410809D01*
X0612251Y0410801D01*
X0612256Y0410798D01*
X0612261Y0410795D01*
X0612916Y0410357D01*
X0612921Y0410354D01*
X0612926Y0410351D01*
X0612939Y0410339D01*
X0612953Y0410328D01*
X0612957Y0410324D01*
X0612962Y0410320D01*
X0613519Y0409763D01*
X0613523Y0409758D01*
X0613527Y0409754D01*
X0613538Y0409740D01*
X0613550Y0409727D01*
X0613553Y0409722D01*
X0613556Y0409717D01*
X0613994Y0409062D01*
X0613997Y0409057D01*
X0614000Y0409052D01*
X0614009Y0409036D01*
X0614017Y0409021D01*
X0614019Y0409015D01*
X0614022Y0409010D01*
X0614323Y0408282D01*
X0614325Y0408276D01*
X0614328Y0408271D01*
X0614332Y0408254D01*
X0614338Y0408237D01*
X0614339Y0408231D01*
X0614340Y0408225D01*
X0614494Y0407453D01*
X0614495Y0407447D01*
X0614496Y0407441D01*
X0614498Y0407423D01*
X0614500Y0407406D01*
X0614500Y0407400D01*
X0614500Y0407394D01*
Y0407000D01*
X0614500Y0393000D01*
X0614496Y0392953D01*
X0614485Y0392907D01*
X0614467Y0392863D01*
X0614443Y0392823D01*
X0614412Y0392787D01*
X0614376Y0392757D01*
X0614336Y0392732D01*
X0614292Y0392714D01*
X0614246Y0392703D01*
X0614199Y0392699D01*
X0591199D01*
X0591152Y0392703D01*
X0591106Y0392714D01*
X0591062Y0392732D01*
X0591022Y0392757D01*
X0590986Y0392787D01*
X0590956Y0392823D01*
X0590931Y0392863D01*
X0590913Y0392907D01*
X0590902Y0392953D01*
X0590898Y0393000D01*
X0590898Y0407000D01*
X0590898Y0407394D01*
X0590899Y0407400D01*
X0590898Y0407406D01*
X0590901Y0407423D01*
X0590902Y0407441D01*
X0590903Y0407447D01*
X0590904Y0407453D01*
X0591058Y0408225D01*
X0591059Y0408231D01*
X0591060Y0408237D01*
X0591066Y0408254D01*
X0591071Y0408271D01*
X0591073Y0408276D01*
X0591075Y0408282D01*
X0591376Y0409010D01*
X0591379Y0409015D01*
X0591381Y0409021D01*
X0591390Y0409036D01*
X0591398Y0409052D01*
X0591401Y0409057D01*
X0591404Y0409062D01*
X0591842Y0409717D01*
X0591846Y0409722D01*
X0591849Y0409727D01*
X0591860Y0409740D01*
X0591871Y0409754D01*
X0591876Y0409758D01*
X0591879Y0409763D01*
X0592436Y0410320D01*
X0592441Y0410324D01*
X0592445Y0410328D01*
X0592459Y0410339D01*
X0592472Y0410351D01*
X0592477Y0410354D01*
X0592482Y0410357D01*
X0593137Y0410795D01*
X0593142Y0410798D01*
X0593147Y0410801D01*
X0593163Y0410809D01*
X0593178Y0410818D01*
X0593184Y0410820D01*
X0593189Y0410823D01*
X0593917Y0411124D01*
X0593923Y0411126D01*
X0593928Y0411129D01*
X0593945Y0411133D01*
X0593962Y0411139D01*
X0593968Y0411140D01*
X0593974Y0411141D01*
X0594746Y0411295D01*
X0594752Y0411296D01*
X0594758Y0411297D01*
X0594776Y0411299D01*
X0594793Y0411301D01*
X0594799Y0411301D01*
X0594805Y0411301D01*
X0595199Y0411301D01*
X0610199Y0411301D01*
X0610200Y0411301D01*
D02*
G37*
D45*
X0579199Y0404000D02*
D03*
X0626199D02*
D03*
X0660699Y0221000D02*
D03*
X0538199D02*
D03*
D48*
X0542239Y0271970D02*
D03*
D84*
X0573313Y0264000D02*
D03*
X0570085D02*
D03*
D85*
X0649199Y0310272D02*
D03*
Y0306728D02*
D03*
X0641199Y0310272D02*
D03*
Y0306728D02*
D03*
X0636699Y0330772D02*
D03*
Y0327228D02*
D03*
X0589699D02*
D03*
Y0330772D02*
D03*
X0542699D02*
D03*
Y0327228D02*
D03*
X0555199Y0284957D02*
D03*
Y0288500D02*
D03*
X0549699Y0295500D02*
D03*
Y0291957D02*
D03*
X0553199D02*
D03*
Y0295500D02*
D03*
X0533699Y0329272D02*
D03*
Y0325728D02*
D03*
X0580699D02*
D03*
Y0329272D02*
D03*
X0627699D02*
D03*
Y0325728D02*
D03*
X0530199Y0329272D02*
D03*
Y0325728D02*
D03*
X0577199D02*
D03*
Y0329272D02*
D03*
X0624199D02*
D03*
Y0325728D02*
D03*
D86*
X0645199Y0306886D02*
D03*
Y0310114D02*
D03*
X0580699Y0261415D02*
D03*
Y0258187D02*
D03*
X0555199Y0305386D02*
D03*
Y0308614D02*
D03*
D87*
X0654443Y0309500D02*
D03*
X0659955D02*
D03*
X0626443Y0354000D02*
D03*
X0631955D02*
D03*
X0579443D02*
D03*
X0584955D02*
D03*
X0532443D02*
D03*
X0537955D02*
D03*
X0546955D02*
D03*
X0541443D02*
D03*
X0593955D02*
D03*
X0588443D02*
D03*
X0640955D02*
D03*
X0635443D02*
D03*
D88*
X0643971Y0360500D02*
D03*
X0640427D02*
D03*
X0593428D02*
D03*
X0596971D02*
D03*
X0549971D02*
D03*
X0546427D02*
D03*
X0610471Y0259500D02*
D03*
X0606927D02*
D03*
X0603471D02*
D03*
X0599928D02*
D03*
X0586928Y0321000D02*
D03*
X0590471D02*
D03*
X0586928Y0317500D02*
D03*
X0590471D02*
D03*
D89*
X0589424Y0349776D02*
D03*
X0586274D02*
D03*
X0583124D02*
D03*
X0579975D02*
D03*
X0589424Y0334224D02*
D03*
X0586274D02*
D03*
X0583124D02*
D03*
X0579975D02*
D03*
X0532975D02*
D03*
X0536124D02*
D03*
X0539274D02*
D03*
X0542423D02*
D03*
X0532975Y0349776D02*
D03*
X0536124D02*
D03*
X0539274D02*
D03*
X0542423D02*
D03*
X0626975Y0334224D02*
D03*
X0630124D02*
D03*
X0633274D02*
D03*
X0636423D02*
D03*
X0626975Y0349776D02*
D03*
X0630124D02*
D03*
X0633274D02*
D03*
X0636423D02*
D03*
D90*
X0584699Y0342000D02*
D03*
X0537699D02*
D03*
X0631699D02*
D03*
D91*
X0631284Y0385661D02*
D03*
Y0377000D02*
D03*
Y0368339D02*
D03*
X0666716D02*
D03*
Y0377000D02*
D03*
Y0385661D02*
D03*
X0537284D02*
D03*
Y0377000D02*
D03*
Y0368339D02*
D03*
X0572717D02*
D03*
Y0377000D02*
D03*
Y0385661D02*
D03*
X0619717D02*
D03*
Y0377000D02*
D03*
Y0368339D02*
D03*
X0584283D02*
D03*
Y0377000D02*
D03*
Y0385661D02*
D03*
D92*
X0640142Y0377000D02*
D03*
X0546142D02*
D03*
X0593142D02*
D03*
D93*
X0645653Y0370209D02*
D03*
Y0374736D02*
D03*
Y0379264D02*
D03*
Y0383791D02*
D03*
X0656677D02*
D03*
Y0379264D02*
D03*
Y0374736D02*
D03*
Y0370209D02*
D03*
X0551653D02*
D03*
Y0374736D02*
D03*
Y0379264D02*
D03*
Y0383791D02*
D03*
X0562677D02*
D03*
Y0379264D02*
D03*
Y0374736D02*
D03*
Y0370209D02*
D03*
X0609677D02*
D03*
Y0374736D02*
D03*
Y0379264D02*
D03*
Y0383791D02*
D03*
X0598654D02*
D03*
Y0379264D02*
D03*
Y0374736D02*
D03*
Y0370209D02*
D03*
D94*
X0569661Y0317284D02*
D03*
X0561000D02*
D03*
X0552339D02*
D03*
Y0352716D02*
D03*
X0561000D02*
D03*
X0569661D02*
D03*
X0616661D02*
D03*
X0608000D02*
D03*
X0599339D02*
D03*
Y0317284D02*
D03*
X0608000D02*
D03*
X0616661D02*
D03*
X0663661D02*
D03*
X0655000D02*
D03*
X0646339D02*
D03*
Y0352716D02*
D03*
X0655000D02*
D03*
X0663661D02*
D03*
D95*
X0554209Y0327323D02*
D03*
X0558736D02*
D03*
X0563264D02*
D03*
X0567791D02*
D03*
Y0338347D02*
D03*
X0563264D02*
D03*
X0558736D02*
D03*
X0554209D02*
D03*
X0601209D02*
D03*
X0605736D02*
D03*
X0610264D02*
D03*
X0614791D02*
D03*
Y0327323D02*
D03*
X0610264D02*
D03*
X0605736D02*
D03*
X0601209D02*
D03*
X0648209D02*
D03*
X0652736D02*
D03*
X0657264D02*
D03*
X0661791D02*
D03*
Y0338347D02*
D03*
X0657264D02*
D03*
X0652736D02*
D03*
X0648209D02*
D03*
D96*
X0561000Y0343858D02*
D03*
X0608000D02*
D03*
X0655000D02*
D03*
D97*
X0575270Y0300366D02*
D03*
Y0308634D02*
D03*
X0559128Y0300366D02*
D03*
Y0308634D02*
D03*
X0575270Y0284866D02*
D03*
Y0293134D02*
D03*
X0559128Y0284866D02*
D03*
Y0293134D02*
D03*
D98*
X0532050Y0240000D02*
D03*
X0538349D02*
D03*
X0532050Y0257000D02*
D03*
X0538349D02*
D03*
X0532050Y0248500D02*
D03*
X0538349D02*
D03*
D99*
X0663762Y0293661D02*
D03*
Y0296220D02*
D03*
Y0298780D02*
D03*
Y0301339D02*
D03*
X0646636Y0293661D02*
D03*
Y0296220D02*
D03*
Y0298780D02*
D03*
Y0301339D02*
D03*
D100*
X0655199Y0297500D02*
D03*
D101*
X0620349Y0266900D02*
D03*
Y0302100D02*
D03*
D102*
X0666699Y0305894D02*
D03*
Y0311405D02*
D03*
D103*
X0666280Y0274500D02*
D03*
X0645020D02*
D03*
D104*
X0590199Y0239500D02*
D03*
D105*
Y0250524D02*
D03*
D106*
X0580711Y0242801D02*
D03*
D107*
X0569687D02*
D03*
D108*
X0573199Y0255801D02*
D03*
D109*
X0577097Y0251864D02*
D03*
X0569302D02*
D03*
Y0253832D02*
D03*
Y0255801D02*
D03*
Y0257769D02*
D03*
Y0259738D02*
D03*
X0577097D02*
D03*
Y0257769D02*
D03*
Y0255801D02*
D03*
Y0253832D02*
D03*
D110*
X0534199Y0299000D02*
D03*
Y0309000D02*
D03*
D111*
Y0288200D02*
D03*
Y0319748D02*
D03*
D112*
X0544699Y0301400D02*
D03*
Y0304000D02*
D03*
Y0306559D02*
D03*
Y0298800D02*
D03*
Y0309118D02*
D03*
D113*
X0554199Y0256177D02*
D03*
Y0240823D02*
D03*
D114*
X0530499Y0359000D02*
D03*
Y0388528D02*
D03*
D115*
X0661821Y0243000D02*
D03*
X0646125D02*
D03*
X0638225D02*
D03*
X0630325D02*
D03*
X0622451D02*
D03*
X0614577D02*
D03*
X0653947D02*
D03*
X0597936Y0222000D02*
D03*
X0590062D02*
D03*
X0582162D02*
D03*
X0574262D02*
D03*
X0566388D02*
D03*
X0558514D02*
D03*
X0638099D02*
D03*
X0630199D02*
D03*
X0622325D02*
D03*
X0614451D02*
D03*
D116*
X0554199Y0403000D02*
D03*
Y0406000D02*
D03*
X0601199Y0403000D02*
D03*
Y0406000D02*
D03*
X0648199Y0403000D02*
D03*
Y0406000D02*
D03*
X0636199D02*
D03*
Y0403000D02*
D03*
X0589199Y0406000D02*
D03*
Y0403000D02*
D03*
X0542199D02*
D03*
Y0406000D02*
D03*
X0590199Y0279000D02*
D03*
X0587199D02*
D03*
X0584199D02*
D03*
X0584592Y0288200D02*
D03*
X0583699Y0284000D02*
D03*
X0579199D02*
D03*
X0589699Y0287500D02*
D03*
X0592199Y0314500D02*
D03*
X0588199Y0284000D02*
D03*
X0570165Y0287534D02*
D03*
X0571699Y0309000D02*
D03*
X0569199D02*
D03*
X0566699D02*
D03*
X0555199Y0288500D02*
D03*
Y0299500D02*
D03*
Y0302000D02*
D03*
Y0304500D02*
D03*
X0586813Y0314500D02*
D03*
X0539813D02*
D03*
X0612199Y0233614D02*
D03*
Y0230386D02*
D03*
X0557664Y0292500D02*
D03*
X0575699Y0300614D02*
D03*
X0604199Y0283689D02*
D03*
Y0280461D02*
D03*
X0607313Y0266000D02*
D03*
X0604085D02*
D03*
X0607813Y0254000D02*
D03*
X0604585D02*
D03*
X0593199Y0279000D02*
D03*
X0665199Y0288900D02*
D03*
X0648199Y0228000D02*
D03*
X0542199Y0234500D02*
D03*
X0544699D02*
D03*
X0547199D02*
D03*
X0632699Y0249000D02*
D03*
X0618199Y0250500D02*
D03*
X0539699Y0232500D02*
D03*
X0536699D02*
D03*
X0533699D02*
D03*
X0654199Y0249500D02*
D03*
X0606199Y0216000D02*
D03*
X0597699Y0238000D02*
D03*
X0600699Y0241000D02*
D03*
X0597699D02*
D03*
X0600699Y0244000D02*
D03*
X0597699D02*
D03*
X0610699Y0259500D02*
D03*
X0667199Y0260000D02*
D03*
X0664199D02*
D03*
X0661199D02*
D03*
X0658199D02*
D03*
X0648199Y0275500D02*
D03*
Y0278500D02*
D03*
Y0281500D02*
D03*
Y0284500D02*
D03*
Y0287500D02*
D03*
X0645199Y0278500D02*
D03*
Y0275500D02*
D03*
Y0281500D02*
D03*
X0630199Y0260500D02*
D03*
Y0263500D02*
D03*
Y0266500D02*
D03*
Y0269500D02*
D03*
Y0272500D02*
D03*
X0642199Y0275500D02*
D03*
X0667199Y0280000D02*
D03*
X0656699D02*
D03*
X0659699D02*
D03*
X0662699D02*
D03*
Y0283000D02*
D03*
Y0286000D02*
D03*
X0659699D02*
D03*
Y0283000D02*
D03*
X0656699Y0286000D02*
D03*
Y0283000D02*
D03*
X0653699D02*
D03*
Y0286000D02*
D03*
X0668364Y0288840D02*
D03*
X0597699Y0250000D02*
D03*
X0594699D02*
D03*
X0597699Y0247000D02*
D03*
X0600699D02*
D03*
X0593199Y0233500D02*
D03*
X0537199Y0248500D02*
D03*
X0576066Y0260866D02*
D03*
X0583699Y0263500D02*
D03*
X0591699Y0317500D02*
D03*
X0586699Y0324000D02*
D03*
X0547199Y0290000D02*
D03*
Y0287000D02*
D03*
X0564199Y0284500D02*
D03*
X0530699Y0329500D02*
D03*
X0531199Y0248228D02*
D03*
Y0256728D02*
D03*
Y0239728D02*
D03*
X0532699Y0283000D02*
D03*
X0529699D02*
D03*
X0607699Y0308500D02*
D03*
X0604699D02*
D03*
X0622199Y0306500D02*
D03*
X0545199Y0318500D02*
D03*
X0545286Y0308913D02*
D03*
X0547786Y0308913D02*
D03*
X0534199Y0307000D02*
D03*
X0576928Y0318728D02*
D03*
X0536699Y0324300D02*
D03*
X0642199Y0281500D02*
D03*
Y0287500D02*
D03*
Y0284500D02*
D03*
X0593199Y0263500D02*
D03*
X0622199Y0318500D02*
D03*
X0650199Y0334000D02*
D03*
X0655199Y0331500D02*
D03*
Y0329000D02*
D03*
X0650199Y0326500D02*
D03*
X0657699D02*
D03*
Y0329000D02*
D03*
X0655199Y0326500D02*
D03*
Y0324000D02*
D03*
X0657699D02*
D03*
X0660199D02*
D03*
Y0326500D02*
D03*
Y0329000D02*
D03*
Y0321500D02*
D03*
X0657699D02*
D03*
X0655199D02*
D03*
X0652699D02*
D03*
Y0324000D02*
D03*
Y0326500D02*
D03*
Y0329000D02*
D03*
X0650199Y0324000D02*
D03*
Y0321500D02*
D03*
Y0329000D02*
D03*
Y0331500D02*
D03*
X0652699D02*
D03*
X0657699D02*
D03*
X0660199D02*
D03*
Y0334000D02*
D03*
X0657699D02*
D03*
X0655199D02*
D03*
X0652699D02*
D03*
X0660199Y0336500D02*
D03*
X0657699D02*
D03*
X0655199D02*
D03*
X0652699D02*
D03*
X0650199D02*
D03*
X0603199D02*
D03*
X0605699D02*
D03*
X0608199D02*
D03*
X0610699D02*
D03*
X0613199D02*
D03*
X0605699Y0334000D02*
D03*
X0608199D02*
D03*
X0610699D02*
D03*
X0613199D02*
D03*
Y0331500D02*
D03*
X0610699D02*
D03*
X0605699D02*
D03*
X0603199D02*
D03*
Y0329000D02*
D03*
Y0321500D02*
D03*
Y0324000D02*
D03*
X0605699Y0329000D02*
D03*
Y0326500D02*
D03*
Y0324000D02*
D03*
Y0321500D02*
D03*
X0608199D02*
D03*
X0610699D02*
D03*
X0613199D02*
D03*
Y0329000D02*
D03*
Y0326500D02*
D03*
Y0324000D02*
D03*
X0610699D02*
D03*
X0608199D02*
D03*
Y0326500D02*
D03*
X0610699Y0329000D02*
D03*
Y0326500D02*
D03*
X0603199D02*
D03*
X0608199Y0329000D02*
D03*
Y0331500D02*
D03*
X0603199Y0334000D02*
D03*
X0556199Y0336500D02*
D03*
X0558699D02*
D03*
X0561199D02*
D03*
X0563699D02*
D03*
X0566199D02*
D03*
X0558699Y0334000D02*
D03*
X0561199D02*
D03*
X0563699D02*
D03*
X0566199D02*
D03*
Y0331500D02*
D03*
X0563699D02*
D03*
X0558699D02*
D03*
X0556199D02*
D03*
Y0329000D02*
D03*
Y0321500D02*
D03*
Y0324000D02*
D03*
X0558699Y0329000D02*
D03*
Y0326500D02*
D03*
Y0324000D02*
D03*
Y0321500D02*
D03*
X0561199D02*
D03*
X0563699D02*
D03*
X0566199D02*
D03*
Y0329000D02*
D03*
Y0326500D02*
D03*
Y0324000D02*
D03*
X0563699D02*
D03*
X0561199D02*
D03*
Y0326500D02*
D03*
X0563699Y0329000D02*
D03*
Y0326500D02*
D03*
X0556199D02*
D03*
X0561199Y0329000D02*
D03*
Y0331500D02*
D03*
X0556199Y0334000D02*
D03*
X0668699Y0390500D02*
D03*
Y0388000D02*
D03*
X0666199Y0390500D02*
D03*
Y0388000D02*
D03*
X0668699Y0385500D02*
D03*
X0663699Y0388000D02*
D03*
X0666199Y0385500D02*
D03*
X0663699Y0390500D02*
D03*
Y0385500D02*
D03*
X0632699Y0390500D02*
D03*
Y0388000D02*
D03*
X0663699Y0383000D02*
D03*
X0632699Y0385500D02*
D03*
X0668699Y0383000D02*
D03*
Y0380500D02*
D03*
X0666199Y0383000D02*
D03*
Y0380500D02*
D03*
X0668699Y0378000D02*
D03*
Y0375500D02*
D03*
X0666199Y0378000D02*
D03*
Y0375500D02*
D03*
X0663699Y0380500D02*
D03*
X0632699Y0383000D02*
D03*
Y0380500D02*
D03*
X0663699Y0378000D02*
D03*
Y0375500D02*
D03*
X0632699Y0378000D02*
D03*
X0630199Y0390500D02*
D03*
Y0388000D02*
D03*
X0627699Y0390500D02*
D03*
Y0388000D02*
D03*
X0630199Y0385500D02*
D03*
Y0383000D02*
D03*
X0627699Y0385500D02*
D03*
Y0383000D02*
D03*
X0625199Y0390500D02*
D03*
Y0388000D02*
D03*
X0620199Y0390500D02*
D03*
X0622699D02*
D03*
Y0388000D02*
D03*
X0625199Y0385500D02*
D03*
X0620199D02*
D03*
X0622699D02*
D03*
X0627699Y0380500D02*
D03*
X0630199D02*
D03*
X0625199Y0383000D02*
D03*
Y0380500D02*
D03*
X0627699Y0378000D02*
D03*
X0630199D02*
D03*
X0625199D02*
D03*
Y0375500D02*
D03*
X0622699Y0383000D02*
D03*
Y0380500D02*
D03*
X0620199Y0383000D02*
D03*
Y0380500D02*
D03*
X0622699Y0378000D02*
D03*
Y0375500D02*
D03*
X0620199Y0378000D02*
D03*
X0668699Y0310500D02*
D03*
X0665699D02*
D03*
Y0301500D02*
D03*
X0632699Y0375500D02*
D03*
X0630199D02*
D03*
Y0373000D02*
D03*
X0632699D02*
D03*
X0627699Y0375500D02*
D03*
Y0373000D02*
D03*
X0620199Y0375500D02*
D03*
X0625199Y0373000D02*
D03*
X0622699D02*
D03*
X0662699Y0310500D02*
D03*
Y0307500D02*
D03*
Y0304500D02*
D03*
Y0301500D02*
D03*
X0617699Y0390500D02*
D03*
X0620199Y0388000D02*
D03*
X0585699Y0390500D02*
D03*
X0617699Y0388000D02*
D03*
X0585699D02*
D03*
Y0385500D02*
D03*
X0580699Y0390500D02*
D03*
X0583199D02*
D03*
X0575699D02*
D03*
X0578199D02*
D03*
X0580699Y0388000D02*
D03*
X0583199D02*
D03*
X0575699D02*
D03*
X0578199D02*
D03*
X0617699Y0385500D02*
D03*
Y0383000D02*
D03*
X0580699Y0385500D02*
D03*
X0583199D02*
D03*
X0585699Y0383000D02*
D03*
X0617699Y0380500D02*
D03*
X0583199Y0383000D02*
D03*
Y0380500D02*
D03*
X0578199Y0383000D02*
D03*
X0580699D02*
D03*
X0575699Y0385500D02*
D03*
X0578199D02*
D03*
X0575699Y0380500D02*
D03*
X0578199D02*
D03*
X0575699Y0383000D02*
D03*
X0570699Y0390500D02*
D03*
X0573199D02*
D03*
X0536699D02*
D03*
X0539199D02*
D03*
X0573199Y0388000D02*
D03*
X0539199D02*
D03*
X0570699D02*
D03*
X0534199Y0390500D02*
D03*
X0536699Y0388000D02*
D03*
X0534199D02*
D03*
X0570699Y0385500D02*
D03*
X0573199D02*
D03*
X0539199D02*
D03*
X0570699Y0383000D02*
D03*
X0573199D02*
D03*
X0570699Y0380500D02*
D03*
X0539199Y0383000D02*
D03*
Y0380500D02*
D03*
X0536699Y0385500D02*
D03*
Y0383000D02*
D03*
X0534199Y0385500D02*
D03*
X0531699Y0383000D02*
D03*
X0534199D02*
D03*
X0531699Y0380500D02*
D03*
X0617699Y0375500D02*
D03*
Y0378000D02*
D03*
X0585699Y0380500D02*
D03*
Y0378000D02*
D03*
X0580699D02*
D03*
X0583199D02*
D03*
X0573199Y0380500D02*
D03*
X0580699D02*
D03*
X0573199Y0378000D02*
D03*
X0570699D02*
D03*
X0534199Y0380500D02*
D03*
X0536699D02*
D03*
X0531699Y0378000D02*
D03*
X0534199D02*
D03*
X0575699D02*
D03*
X0578199D02*
D03*
X0570699Y0375500D02*
D03*
X0573199D02*
D03*
X0539199Y0378000D02*
D03*
Y0375500D02*
D03*
X0536699Y0378000D02*
D03*
Y0375500D02*
D03*
X0534199D02*
D03*
X0531699D02*
D03*
X0605428Y0296000D02*
D03*
X0639199Y0272500D02*
D03*
X0636199D02*
D03*
X0639199Y0269500D02*
D03*
Y0266500D02*
D03*
Y0260500D02*
D03*
Y0263500D02*
D03*
X0636199Y0266500D02*
D03*
Y0269500D02*
D03*
Y0260500D02*
D03*
Y0263642D02*
D03*
X0633199Y0272500D02*
D03*
Y0269500D02*
D03*
Y0266500D02*
D03*
Y0260500D02*
D03*
Y0263500D02*
D03*
X0659699Y0347500D02*
D03*
X0657199D02*
D03*
X0652199D02*
D03*
X0654699D02*
D03*
X0659699Y0342500D02*
D03*
X0649699Y0347500D02*
D03*
X0659699Y0345000D02*
D03*
X0634199D02*
D03*
Y0342500D02*
D03*
X0645199Y0293500D02*
D03*
X0642199D02*
D03*
X0636199D02*
D03*
X0639199D02*
D03*
X0626699Y0365000D02*
D03*
Y0367500D02*
D03*
X0624199D02*
D03*
Y0365000D02*
D03*
X0612699Y0347500D02*
D03*
X0631699Y0345000D02*
D03*
X0607699Y0347500D02*
D03*
X0610199D02*
D03*
X0605199D02*
D03*
X0602699D02*
D03*
X0631699Y0342500D02*
D03*
X0629199Y0345000D02*
D03*
X0612699Y0342500D02*
D03*
X0629199D02*
D03*
X0612699Y0345000D02*
D03*
X0642199Y0290500D02*
D03*
X0645199D02*
D03*
X0639199Y0287500D02*
D03*
Y0290500D02*
D03*
Y0284500D02*
D03*
X0636199Y0290500D02*
D03*
Y0287500D02*
D03*
X0633199Y0290500D02*
D03*
Y0287500D02*
D03*
X0645199Y0284500D02*
D03*
X0633199D02*
D03*
X0639199Y0281500D02*
D03*
X0636199Y0284500D02*
D03*
X0639199Y0278500D02*
D03*
X0633199Y0281500D02*
D03*
X0636199D02*
D03*
Y0278500D02*
D03*
Y0275500D02*
D03*
X0645199Y0287500D02*
D03*
X0633199Y0278500D02*
D03*
X0639199Y0275500D02*
D03*
X0642199Y0278500D02*
D03*
X0633199Y0275500D02*
D03*
X0579699Y0365000D02*
D03*
Y0367500D02*
D03*
Y0372500D02*
D03*
Y0370000D02*
D03*
X0587199Y0345000D02*
D03*
X0584699D02*
D03*
Y0342500D02*
D03*
X0582199Y0345000D02*
D03*
X0577199Y0370000D02*
D03*
Y0372500D02*
D03*
Y0367500D02*
D03*
Y0365000D02*
D03*
X0587199Y0342500D02*
D03*
X0582199D02*
D03*
X0565699D02*
D03*
X0560699Y0347500D02*
D03*
X0563199D02*
D03*
X0565699D02*
D03*
X0558199D02*
D03*
X0565699Y0345000D02*
D03*
X0555699Y0347500D02*
D03*
X0540199Y0345000D02*
D03*
X0537699D02*
D03*
X0535199D02*
D03*
X0540199Y0342500D02*
D03*
X0537699D02*
D03*
X0535199D02*
D03*
X0584199Y0233500D02*
D03*
X0534199Y0299000D02*
D03*
Y0288200D02*
D03*
X0637199Y0306500D02*
D03*
X0634199D02*
D03*
X0631199D02*
D03*
X0628199D02*
D03*
X0625199D02*
D03*
X0637199Y0303500D02*
D03*
X0631199D02*
D03*
X0634199D02*
D03*
X0628199D02*
D03*
X0625199D02*
D03*
X0622199D02*
D03*
X0625199Y0297500D02*
D03*
X0622199Y0300500D02*
D03*
Y0297500D02*
D03*
X0619199Y0306500D02*
D03*
X0616199D02*
D03*
X0619199Y0303500D02*
D03*
Y0300500D02*
D03*
Y0297500D02*
D03*
X0616199Y0303500D02*
D03*
Y0300500D02*
D03*
X0613199Y0303500D02*
D03*
Y0297500D02*
D03*
Y0300500D02*
D03*
X0624199Y0293500D02*
D03*
X0610699Y0308500D02*
D03*
Y0254000D02*
D03*
X0631199Y0295000D02*
D03*
X0596699Y0298500D02*
D03*
Y0301500D02*
D03*
Y0304500D02*
D03*
X0586699Y0330500D02*
D03*
X0585199Y0297500D02*
D03*
Y0300500D02*
D03*
X0530199Y0325728D02*
D03*
X0539699Y0330500D02*
D03*
X0577699Y0329500D02*
D03*
X0624699D02*
D03*
X0624199Y0362500D02*
D03*
X0626699D02*
D03*
X0624199Y0360000D02*
D03*
Y0357500D02*
D03*
X0621699Y0362500D02*
D03*
Y0360000D02*
D03*
Y0357500D02*
D03*
X0577199Y0362500D02*
D03*
X0579699D02*
D03*
X0574699D02*
D03*
Y0360000D02*
D03*
X0577199D02*
D03*
X0635699Y0349000D02*
D03*
Y0351500D02*
D03*
X0638199Y0349000D02*
D03*
X0541699D02*
D03*
X0588699D02*
D03*
Y0351500D02*
D03*
X0541699D02*
D03*
X0591199Y0349000D02*
D03*
X0582199Y0362500D02*
D03*
X0544199Y0349000D02*
D03*
X0593955Y0354000D02*
D03*
X0546955D02*
D03*
X0640955D02*
D03*
X0629199Y0362500D02*
D03*
X0591199Y0323500D02*
D03*
X0562699Y0232000D02*
D03*
Y0234500D02*
D03*
X0570199Y0242000D02*
D03*
X0573199D02*
D03*
X0572199Y0230500D02*
D03*
X0575199D02*
D03*
X0578199D02*
D03*
X0581199D02*
D03*
Y0233500D02*
D03*
X0578199D02*
D03*
X0575199D02*
D03*
Y0236500D02*
D03*
X0594699Y0247000D02*
D03*
X0584199Y0236500D02*
D03*
Y0239500D02*
D03*
Y0242500D02*
D03*
X0587199D02*
D03*
Y0239500D02*
D03*
Y0236500D02*
D03*
Y0233500D02*
D03*
X0590199D02*
D03*
Y0236500D02*
D03*
Y0239500D02*
D03*
Y0242500D02*
D03*
X0604199Y0290272D02*
D03*
X0621199Y0285500D02*
D03*
X0624199D02*
D03*
X0627199Y0266500D02*
D03*
Y0263500D02*
D03*
X0642199Y0260500D02*
D03*
X0624199Y0275500D02*
D03*
X0621199D02*
D03*
X0618199D02*
D03*
X0613140Y0288347D02*
D03*
X0609546Y0283559D02*
D03*
X0624199Y0266500D02*
D03*
X0569199Y0230500D02*
D03*
X0603699Y0224500D02*
D03*
X0600699Y0238000D02*
D03*
Y0232000D02*
D03*
X0654443Y0309500D02*
D03*
X0556199Y0245000D02*
D03*
X0553199D02*
D03*
X0550199D02*
D03*
X0547199D02*
D03*
X0544199D02*
D03*
Y0242000D02*
D03*
X0547199D02*
D03*
X0550199D02*
D03*
Y0239000D02*
D03*
X0547199D02*
D03*
X0544199D02*
D03*
X0567699Y0262000D02*
D03*
X0565099D02*
D03*
X0560199Y0247500D02*
D03*
X0593199Y0272000D02*
D03*
X0657168Y0295532D02*
D03*
X0653231D02*
D03*
X0657168Y0299468D02*
D03*
X0653231D02*
D03*
M02*
