G04 Layer_Physical_Order=1*
G04 Layer_Color=255*
%FSAX25Y25*%
%MOIN*%
G70*
G01*
G75*
%ADD10R,0.01969X0.02047*%
%ADD11R,0.02165X0.01772*%
%ADD12R,0.02047X0.01969*%
%ADD13R,0.02756X0.03543*%
%ADD14R,0.01772X0.02165*%
%ADD15R,0.01181X0.03150*%
%ADD16R,0.13307X0.09646*%
%ADD17R,0.04331X0.06693*%
%ADD18R,0.02756X0.05118*%
%ADD19R,0.04331X0.03347*%
%ADD20R,0.06693X0.04331*%
%ADD21R,0.03347X0.04331*%
%ADD22R,0.05118X0.02756*%
%ADD23R,0.03937X0.02559*%
%ADD24R,0.02756X0.03150*%
%ADD25O,0.06102X0.01772*%
%ADD26R,0.06811X0.07284*%
%ADD27R,0.13780X0.12300*%
%ADD28R,0.03543X0.02756*%
%ADD29R,0.05512X0.20866*%
%ADD30R,0.10236X0.03740*%
%ADD31R,0.09843X0.03740*%
%ADD32R,0.03740X0.10236*%
%ADD33R,0.03740X0.09843*%
%ADD34R,0.03150X0.08189*%
%ADD35R,0.02756X0.01181*%
%ADD36R,0.07500X0.07500*%
%ADD37R,0.07500X0.07100*%
%ADD38R,0.05600X0.01400*%
G04:AMPARAMS|DCode=39|XSize=82.68mil|YSize=228.35mil|CornerRadius=41.34mil|HoleSize=0mil|Usage=FLASHONLY|Rotation=270.000|XOffset=0mil|YOffset=0mil|HoleType=Round|Shape=RoundedRectangle|*
%AMROUNDEDRECTD39*
21,1,0.08268,0.14567,0,0,270.0*
21,1,0.00000,0.22835,0,0,270.0*
1,1,0.08268,-0.07284,0.00000*
1,1,0.08268,-0.07284,0.00000*
1,1,0.08268,0.07284,0.00000*
1,1,0.08268,0.07284,0.00000*
%
%ADD39ROUNDEDRECTD39*%
%ADD40C,0.01000*%
%ADD41C,0.02000*%
%ADD42C,0.01500*%
%ADD43C,0.01200*%
%ADD44C,0.04000*%
%ADD45C,0.12205*%
%ADD46C,0.03543*%
%ADD47C,0.06300*%
%ADD48C,0.07087*%
%ADD49C,0.02000*%
G36*
X0575116Y0331157D02*
Y0330272D01*
X0577199D01*
Y0328272D01*
X0575116D01*
Y0327386D01*
X0575316D01*
Y0324043D01*
X0575602D01*
Y0319985D01*
X0575232Y0319431D01*
X0575092Y0318728D01*
X0575232Y0318026D01*
X0575630Y0317431D01*
X0576225Y0317033D01*
X0576928Y0316893D01*
X0577630Y0317033D01*
X0578225Y0317431D01*
X0578623Y0318026D01*
X0578763Y0318728D01*
X0578623Y0319431D01*
X0578253Y0319985D01*
Y0324043D01*
X0581674D01*
Y0311824D01*
X0581212Y0311633D01*
X0578807Y0314037D01*
X0578377Y0314325D01*
X0577870Y0314425D01*
X0573808D01*
Y0314971D01*
X0573953Y0315188D01*
X0574015Y0315500D01*
Y0331500D01*
X0574758D01*
X0575116Y0331157D01*
D02*
G37*
G36*
X0670199Y0285500D02*
Y0259000D01*
Y0258500D01*
X0656199D01*
Y0259384D01*
X0656199Y0278847D01*
X0652699Y0282347D01*
X0652699Y0287000D01*
X0670199D01*
Y0285500D01*
D02*
G37*
G36*
X0639199Y0306000D02*
X0639516Y0305683D01*
Y0305242D01*
X0639957D01*
X0640078Y0305121D01*
Y0300780D01*
X0640078Y0300780D01*
X0640153Y0300401D01*
X0640134Y0300308D01*
X0639862Y0299901D01*
X0632009D01*
X0631580Y0299816D01*
X0631216Y0299573D01*
X0631216Y0299573D01*
X0626265Y0294621D01*
X0625374D01*
X0625353Y0294654D01*
X0624823Y0295007D01*
X0624199Y0295131D01*
X0623575Y0295007D01*
X0623046Y0294654D01*
X0622692Y0294124D01*
X0622568Y0293500D01*
X0622692Y0292876D01*
X0623046Y0292347D01*
X0623575Y0291993D01*
X0624199Y0291869D01*
X0624823Y0291993D01*
X0625353Y0292347D01*
X0625374Y0292378D01*
X0626729D01*
X0626729Y0292378D01*
X0627158Y0292464D01*
X0627522Y0292707D01*
X0629216Y0294401D01*
X0629775Y0294252D01*
X0630046Y0293847D01*
X0630575Y0293493D01*
X0631199Y0293369D01*
X0631550Y0293081D01*
X0631550Y0274500D01*
X0631315Y0274149D01*
X0613199Y0274149D01*
X0612740Y0273959D01*
X0612550Y0273500D01*
X0612550Y0264500D01*
X0608780D01*
X0608569Y0265000D01*
X0608820Y0265376D01*
X0608945Y0266000D01*
X0608820Y0266624D01*
X0608467Y0267154D01*
X0607938Y0267507D01*
X0607313Y0267631D01*
X0606689Y0267507D01*
X0606160Y0267154D01*
X0606000Y0266914D01*
X0605398D01*
X0605238Y0267154D01*
X0604709Y0267507D01*
X0604085Y0267631D01*
X0603461Y0267507D01*
X0602931Y0267154D01*
X0602578Y0266624D01*
X0602454Y0266000D01*
X0602478Y0265879D01*
X0602435Y0265815D01*
X0602349Y0265386D01*
X0602349Y0265386D01*
Y0264500D01*
X0601699D01*
X0600699Y0265500D01*
X0600699Y0304500D01*
X0609699Y0304500D01*
X0613699Y0308500D01*
X0627199Y0308500D01*
X0636699D01*
D01*
X0639199D01*
Y0306000D01*
D02*
G37*
G36*
X0598184Y0325618D02*
Y0321000D01*
X0598234Y0320749D01*
X0598194Y0320613D01*
X0597938Y0320249D01*
X0595192D01*
Y0314318D01*
X0595490D01*
X0595681Y0313856D01*
X0591487Y0309662D01*
X0591025Y0309853D01*
Y0312545D01*
X0591437Y0312801D01*
X0591525Y0312799D01*
X0592199Y0312665D01*
X0592901Y0312804D01*
X0593497Y0313202D01*
X0593895Y0313798D01*
X0594034Y0314500D01*
X0593895Y0315202D01*
X0593497Y0315798D01*
X0592901Y0316196D01*
X0592357Y0316304D01*
Y0316500D01*
X0590471D01*
Y0318500D01*
X0592357D01*
Y0319583D01*
X0592157D01*
Y0321975D01*
X0592497Y0322202D01*
X0592895Y0322798D01*
X0593034Y0323500D01*
X0592895Y0324202D01*
X0592497Y0324798D01*
X0591901Y0325196D01*
X0591695Y0325419D01*
X0591865Y0325921D01*
X0597829Y0325970D01*
X0598184Y0325618D01*
D02*
G37*
G36*
X0617000Y0321000D02*
X0599000D01*
X0599000Y0340500D01*
X0617000D01*
X0617000Y0321000D01*
D02*
G37*
G36*
X0570000D02*
X0552000D01*
X0552000Y0340500D01*
X0570000D01*
X0570000Y0321000D01*
D02*
G37*
G36*
X0567199Y0257500D02*
Y0252500D01*
X0570699D01*
Y0249500D01*
X0542199D01*
X0542199Y0258500D01*
X0544199Y0260500D01*
X0564199D01*
X0567199Y0257500D01*
D02*
G37*
G36*
X0640699Y0273500D02*
Y0262500D01*
X0641699Y0261500D01*
X0643199Y0261500D01*
X0643199Y0259000D01*
X0613199Y0259000D01*
X0613199Y0273500D01*
X0640699Y0273500D01*
D02*
G37*
G36*
X0594199Y0256500D02*
X0602199Y0248500D01*
X0602199Y0236500D01*
X0596199Y0236500D01*
Y0244500D01*
X0595199Y0245500D01*
X0585199D01*
Y0249500D01*
X0581199Y0253500D01*
X0575699D01*
Y0256500D01*
X0594199Y0256500D01*
D02*
G37*
G36*
X0577874Y0302646D02*
X0576270D01*
Y0300366D01*
Y0298087D01*
X0577874D01*
Y0295213D01*
X0572502D01*
Y0292240D01*
X0571952Y0291690D01*
X0571490Y0291882D01*
Y0302980D01*
X0575065Y0306554D01*
X0577874D01*
Y0302646D01*
D02*
G37*
G36*
X0634816Y0329086D02*
X0634816D01*
Y0328914D01*
X0634816D01*
Y0327797D01*
X0634775Y0327736D01*
X0634675Y0327228D01*
X0634775Y0326721D01*
X0634816Y0326660D01*
Y0325542D01*
X0638582D01*
Y0325997D01*
X0645184D01*
Y0321000D01*
X0645234Y0320749D01*
X0645194Y0320613D01*
X0644938Y0320249D01*
X0642192D01*
Y0314318D01*
X0650485D01*
Y0314318D01*
X0650854D01*
Y0314318D01*
X0651410D01*
X0651428Y0313825D01*
X0650920Y0313725D01*
X0650490Y0313437D01*
X0649010Y0311958D01*
X0647498D01*
X0647317Y0311958D01*
X0647317Y0311958D01*
X0647023Y0311898D01*
Y0311898D01*
X0643375D01*
Y0311898D01*
X0643082Y0311958D01*
X0643082Y0311958D01*
X0642900Y0311958D01*
X0639316D01*
Y0309412D01*
X0639199Y0309316D01*
X0636699D01*
X0636699Y0309316D01*
X0636699Y0309316D01*
X0627199D01*
X0613699Y0309316D01*
X0613699Y0309316D01*
X0613387Y0309254D01*
X0613122Y0309077D01*
X0613122Y0309077D01*
X0613096Y0309050D01*
X0612659D01*
Y0308614D01*
X0609361Y0305316D01*
X0600699Y0305316D01*
X0600387Y0305254D01*
X0600122Y0305077D01*
X0599945Y0304812D01*
X0599883Y0304500D01*
X0599883Y0265500D01*
X0599945Y0265188D01*
X0600122Y0264923D01*
X0600122Y0264923D01*
X0601122Y0263923D01*
X0601122Y0263923D01*
X0601387Y0263746D01*
X0601699Y0263684D01*
X0602145Y0263559D01*
Y0261945D01*
X0601813Y0261583D01*
X0600927D01*
Y0259500D01*
Y0257417D01*
X0601813D01*
Y0257617D01*
X0605157D01*
Y0257617D01*
X0605242D01*
Y0257617D01*
X0608613D01*
Y0257617D01*
X0608785D01*
Y0257617D01*
X0612157D01*
Y0258220D01*
X0612479Y0258361D01*
X0612657Y0258400D01*
X0612887Y0258246D01*
X0613199Y0258184D01*
X0643199Y0258184D01*
X0643511Y0258246D01*
X0643776Y0258423D01*
X0643953Y0258688D01*
X0644015Y0259000D01*
X0644015Y0260401D01*
X0644034Y0260500D01*
X0644015Y0260599D01*
X0644015Y0261500D01*
X0643953Y0261812D01*
X0643776Y0262077D01*
X0643511Y0262254D01*
X0643199Y0262316D01*
X0642298Y0262316D01*
X0642199Y0262335D01*
X0641952Y0262584D01*
X0641956Y0262619D01*
X0642157Y0263000D01*
X0641699D01*
X0641699Y0274500D01*
X0641056D01*
X0640764Y0274303D01*
X0640699Y0274316D01*
X0639298D01*
X0639199Y0274335D01*
X0639100Y0274316D01*
X0636298Y0274316D01*
X0636199Y0274335D01*
X0636100Y0274316D01*
X0633298D01*
X0633199Y0274335D01*
X0633101Y0274316D01*
X0632835D01*
X0632766Y0274342D01*
X0632633Y0274500D01*
X0632199D01*
X0632199Y0293500D01*
X0632689Y0293990D01*
X0632895Y0294298D01*
X0633013Y0294895D01*
X0642497D01*
X0642622Y0294661D01*
X0643769D01*
X0643813Y0294632D01*
X0644471Y0294501D01*
X0646636D01*
Y0294500D01*
X0653395Y0294500D01*
X0654199Y0294500D01*
Y0297500D01*
Y0301000D01*
X0652065Y0301000D01*
Y0302142D01*
X0650794D01*
X0650794Y0302142D01*
X0650294Y0302140D01*
X0650017Y0302554D01*
X0649459Y0302927D01*
X0648802Y0303057D01*
X0646792D01*
X0646525Y0303325D01*
Y0305097D01*
X0647023Y0305102D01*
X0647317Y0305043D01*
Y0305043D01*
X0647498Y0305043D01*
X0651082D01*
Y0308414D01*
X0651082D01*
Y0308586D01*
X0651082D01*
Y0310280D01*
X0651565Y0310763D01*
X0652065Y0310556D01*
Y0310500D01*
X0656821D01*
Y0311175D01*
X0657383D01*
Y0303500D01*
X0657383Y0303500D01*
X0657445Y0303188D01*
X0657622Y0302923D01*
X0657942Y0302604D01*
X0657751Y0302142D01*
X0657199D01*
Y0301000D01*
X0656199D01*
Y0297500D01*
Y0294500D01*
X0658199Y0294500D01*
X0658199Y0292858D01*
X0659605D01*
X0659605Y0292858D01*
X0660105Y0292860D01*
X0660381Y0292446D01*
X0660939Y0292073D01*
X0661597Y0291943D01*
X0663874D01*
Y0290156D01*
X0663504Y0289602D01*
X0663364Y0288900D01*
X0663480Y0288316D01*
X0663203Y0287816D01*
X0662798D01*
X0662699Y0287835D01*
X0662601Y0287816D01*
X0659798D01*
X0659699Y0287835D01*
X0659601Y0287816D01*
X0656798D01*
X0656699Y0287835D01*
X0656601Y0287816D01*
X0653798D01*
X0653699Y0287835D01*
X0653601Y0287816D01*
X0652699D01*
X0652387Y0287754D01*
X0652122Y0287577D01*
X0651945Y0287312D01*
X0651883Y0287000D01*
Y0286099D01*
X0651864Y0286000D01*
X0651883Y0285901D01*
X0651883Y0283098D01*
X0651864Y0283000D01*
X0651883Y0282902D01*
Y0282347D01*
X0651883Y0282347D01*
X0651945Y0282034D01*
X0652122Y0281770D01*
X0652122Y0281770D01*
X0655383Y0278509D01*
X0655383Y0259384D01*
Y0258500D01*
X0655445Y0258188D01*
X0655622Y0257923D01*
X0655887Y0257746D01*
X0656199Y0257684D01*
X0670199D01*
X0670578Y0257250D01*
Y0221000D01*
X0670590Y0220935D01*
X0670407Y0219069D01*
X0669843Y0217212D01*
X0668929Y0215501D01*
X0667698Y0214001D01*
X0666198Y0212770D01*
X0664487Y0211856D01*
X0662630Y0211293D01*
X0660764Y0211109D01*
X0660699Y0211122D01*
X0538199D01*
X0538134Y0211109D01*
X0536268Y0211293D01*
X0534411Y0211856D01*
X0532700Y0212770D01*
X0531200Y0214001D01*
X0529970Y0215501D01*
X0529055Y0217212D01*
X0528492Y0219069D01*
X0528308Y0220935D01*
X0528321Y0221000D01*
Y0281155D01*
X0528821Y0281422D01*
X0528997Y0281304D01*
X0529699Y0281165D01*
X0530401Y0281304D01*
X0530861Y0281611D01*
X0531199Y0281668D01*
X0531537Y0281611D01*
X0531997Y0281304D01*
X0532699Y0281165D01*
X0533401Y0281304D01*
X0533997Y0281702D01*
X0534395Y0282298D01*
X0534534Y0283000D01*
X0534482Y0283263D01*
X0534799Y0283650D01*
X0538949D01*
Y0287200D01*
X0534199D01*
X0529449D01*
Y0284786D01*
X0528997Y0284696D01*
X0528821Y0284578D01*
X0528321Y0284845D01*
Y0324043D01*
X0529449D01*
Y0320748D01*
X0534199D01*
Y0319748D01*
X0535199D01*
Y0315198D01*
X0538949D01*
Y0316168D01*
X0539449Y0316375D01*
X0544762Y0311063D01*
X0544499Y0310618D01*
X0541099D01*
Y0307618D01*
Y0305059D01*
Y0300500D01*
X0540899D01*
Y0299800D01*
X0544699D01*
Y0298800D01*
X0545699D01*
Y0297100D01*
X0547816D01*
Y0293814D01*
X0547816D01*
Y0293642D01*
X0547816D01*
Y0292107D01*
X0547430Y0291789D01*
X0547199Y0291835D01*
X0546497Y0291696D01*
X0545901Y0291298D01*
X0545504Y0290702D01*
X0545364Y0290000D01*
X0545504Y0289298D01*
X0545901Y0288702D01*
X0546497Y0288304D01*
X0547199Y0288165D01*
X0547874Y0288299D01*
X0547961Y0288301D01*
X0548374Y0288045D01*
Y0278737D01*
X0548475Y0278230D01*
X0548762Y0277800D01*
X0563586Y0262976D01*
X0563404Y0262702D01*
X0563264Y0262000D01*
X0563323Y0261702D01*
X0563006Y0261316D01*
X0544199D01*
X0544199Y0261316D01*
X0543887Y0261254D01*
X0543622Y0261077D01*
X0543622Y0261077D01*
X0541622Y0259077D01*
X0541446Y0258812D01*
X0541383Y0258500D01*
X0541384Y0258500D01*
X0541383Y0249500D01*
X0541445Y0249188D01*
X0541571Y0249000D01*
X0541445Y0248812D01*
X0541383Y0248500D01*
X0541384Y0238500D01*
X0541384Y0238500D01*
X0541446Y0238188D01*
X0541622Y0237923D01*
X0541622Y0237923D01*
X0542825Y0236721D01*
X0542579Y0236260D01*
X0542199Y0236335D01*
X0541497Y0236196D01*
X0540901Y0235798D01*
X0540504Y0235202D01*
X0540397Y0234667D01*
X0540364Y0234500D01*
X0539895Y0234296D01*
X0539699Y0234335D01*
X0538997Y0234196D01*
X0538401Y0233798D01*
X0537997D01*
X0537401Y0234196D01*
X0536699Y0234335D01*
X0535997Y0234196D01*
X0535401Y0233798D01*
X0534997D01*
X0534401Y0234196D01*
X0533699Y0234335D01*
X0532997Y0234196D01*
X0532401Y0233798D01*
X0532004Y0233202D01*
X0531864Y0232500D01*
X0532004Y0231798D01*
X0532401Y0231202D01*
X0532997Y0230804D01*
X0533650Y0230675D01*
X0536093Y0228231D01*
X0535972Y0227746D01*
X0535468Y0227593D01*
X0534234Y0226934D01*
X0533153Y0226046D01*
X0532265Y0224965D01*
X0531606Y0223731D01*
X0531200Y0222392D01*
X0531161Y0222000D01*
X0545237D01*
X0545199Y0222392D01*
X0544793Y0223731D01*
X0544133Y0224965D01*
X0543246Y0226046D01*
X0542602Y0226574D01*
X0542781Y0227075D01*
X0557576D01*
X0558070Y0226580D01*
X0557910Y0226106D01*
X0557431Y0226043D01*
X0556421Y0225625D01*
X0555554Y0224960D01*
X0554889Y0224093D01*
X0554471Y0223083D01*
X0554460Y0223000D01*
X0558514D01*
Y0222000D01*
X0559514D01*
Y0217946D01*
X0559597Y0217957D01*
X0560607Y0218375D01*
X0561474Y0219040D01*
X0562139Y0219907D01*
X0562289Y0220268D01*
X0562830D01*
X0562938Y0220008D01*
X0563571Y0219183D01*
X0564396Y0218550D01*
X0565357Y0218152D01*
X0566388Y0218016D01*
X0567419Y0218152D01*
X0568380Y0218550D01*
X0569205Y0219183D01*
X0569838Y0220008D01*
X0570054Y0220530D01*
X0570596D01*
X0570812Y0220008D01*
X0571445Y0219183D01*
X0572270Y0218550D01*
X0573231Y0218152D01*
X0574262Y0218016D01*
X0575293Y0218152D01*
X0576254Y0218550D01*
X0577079Y0219183D01*
X0577712Y0220008D01*
X0577942Y0220561D01*
X0578483D01*
X0578712Y0220008D01*
X0579345Y0219183D01*
X0580170Y0218550D01*
X0581131Y0218152D01*
X0582162Y0218016D01*
X0583193Y0218152D01*
X0584154Y0218550D01*
X0584979Y0219183D01*
X0585612Y0220008D01*
X0585842Y0220561D01*
X0586383D01*
X0586612Y0220008D01*
X0587245Y0219183D01*
X0588070Y0218550D01*
X0589031Y0218152D01*
X0590062Y0218016D01*
X0591093Y0218152D01*
X0592054Y0218550D01*
X0592879Y0219183D01*
X0593512Y0220008D01*
X0593728Y0220530D01*
X0594270D01*
X0594486Y0220008D01*
X0595119Y0219183D01*
X0595944Y0218550D01*
X0596905Y0218152D01*
X0597936Y0218016D01*
X0598967Y0218152D01*
X0599928Y0218550D01*
X0600753Y0219183D01*
X0601386Y0220008D01*
X0601785Y0220969D01*
X0601920Y0222000D01*
X0601785Y0223031D01*
X0601386Y0223992D01*
X0600753Y0224817D01*
X0599928Y0225450D01*
X0598967Y0225848D01*
X0597936Y0225984D01*
X0596905Y0225848D01*
X0595944Y0225450D01*
X0595119Y0224817D01*
X0594486Y0223992D01*
X0594270Y0223470D01*
X0593728D01*
X0593512Y0223992D01*
X0592879Y0224817D01*
X0592054Y0225450D01*
X0591093Y0225848D01*
X0590062Y0225984D01*
X0589031Y0225848D01*
X0588070Y0225450D01*
X0587245Y0224817D01*
X0586612Y0223992D01*
X0586383Y0223439D01*
X0585842D01*
X0585612Y0223992D01*
X0584979Y0224817D01*
X0584154Y0225450D01*
X0583193Y0225848D01*
X0582162Y0225984D01*
X0581131Y0225848D01*
X0580464Y0225572D01*
X0577803Y0228234D01*
X0578049Y0228695D01*
X0578199Y0228665D01*
X0578901Y0228804D01*
X0579361Y0229111D01*
X0579699Y0229168D01*
X0580037Y0229111D01*
X0580497Y0228804D01*
X0581199Y0228665D01*
X0581901Y0228804D01*
X0582497Y0229202D01*
X0582895Y0229798D01*
X0583034Y0230500D01*
X0582895Y0231202D01*
X0582497Y0231798D01*
Y0232202D01*
X0582895Y0232798D01*
X0583034Y0233500D01*
X0582895Y0234202D01*
X0582497Y0234798D01*
X0581901Y0235196D01*
X0581199Y0235335D01*
X0580497Y0235196D01*
X0580037Y0234889D01*
X0579699Y0234832D01*
X0579361Y0234889D01*
X0578901Y0235196D01*
X0578199Y0235335D01*
X0577497Y0235196D01*
X0577120Y0234944D01*
X0576840Y0235049D01*
X0576733Y0235556D01*
X0576895Y0235798D01*
X0577034Y0236500D01*
X0576895Y0237202D01*
X0576689Y0237510D01*
X0576209Y0237990D01*
X0575901Y0238196D01*
X0575199Y0238335D01*
X0574901Y0238276D01*
X0574515Y0238593D01*
X0574515Y0240729D01*
X0574895Y0241298D01*
X0575034Y0242000D01*
X0574895Y0242702D01*
X0574515Y0243271D01*
X0574515Y0248500D01*
Y0249858D01*
X0574719Y0250273D01*
X0575199D01*
Y0251000D01*
X0576699Y0252500D01*
X0579475D01*
Y0252684D01*
X0580861D01*
X0584383Y0249162D01*
Y0245500D01*
X0584445Y0245188D01*
X0584622Y0244923D01*
X0584887Y0244746D01*
X0585199Y0244684D01*
X0594861D01*
X0595046Y0244500D01*
X0595199D01*
Y0244346D01*
X0595383Y0244162D01*
Y0242370D01*
X0595199D01*
X0595199Y0236630D01*
X0595383D01*
Y0236500D01*
X0595445Y0236188D01*
X0595622Y0235923D01*
X0595887Y0235746D01*
X0596199Y0235684D01*
X0601974Y0235684D01*
Y0235149D01*
X0600650Y0233825D01*
X0599997Y0233696D01*
X0599401Y0233298D01*
X0599004Y0232702D01*
X0598864Y0232000D01*
X0599004Y0231298D01*
X0599401Y0230702D01*
X0599997Y0230304D01*
X0600699Y0230165D01*
X0601401Y0230304D01*
X0601997Y0230702D01*
X0602395Y0231298D01*
X0602525Y0231951D01*
X0604236Y0233663D01*
X0604524Y0234093D01*
X0604625Y0234600D01*
Y0248956D01*
X0604524Y0249463D01*
X0604236Y0249893D01*
X0596625Y0257505D01*
Y0269900D01*
X0596524Y0270407D01*
X0596236Y0270837D01*
X0595025Y0272049D01*
X0594895Y0272702D01*
X0594497Y0273298D01*
X0593901Y0273696D01*
X0593199Y0273835D01*
X0592497Y0273696D01*
X0591901Y0273298D01*
X0591504Y0272702D01*
X0591364Y0272000D01*
X0591504Y0271298D01*
X0591901Y0270702D01*
X0592497Y0270304D01*
X0593150Y0270175D01*
X0593974Y0269351D01*
Y0257316D01*
X0582523Y0257316D01*
Y0258217D01*
X0582525Y0258226D01*
X0582523Y0258235D01*
Y0259431D01*
X0582723D01*
Y0263399D01*
X0582199D01*
Y0260317D01*
X0579882Y0260317D01*
X0577699Y0262500D01*
X0575398Y0262500D01*
X0574199Y0261301D01*
X0574199Y0258801D01*
X0572199D01*
Y0263301D01*
Y0265000D01*
X0581699D01*
Y0265824D01*
X0575297D01*
Y0266024D01*
X0571329D01*
Y0265824D01*
X0568301D01*
Y0264926D01*
X0567839Y0264735D01*
X0554342Y0278232D01*
Y0283271D01*
X0556360D01*
Y0282787D01*
X0561897D01*
Y0283025D01*
X0563167D01*
X0563497Y0282804D01*
X0564199Y0282665D01*
X0564245Y0282674D01*
X0564392Y0282575D01*
X0564899Y0282474D01*
X0574204D01*
X0574711Y0282575D01*
X0575027Y0282787D01*
X0577845D01*
X0577901Y0282702D01*
X0578497Y0282304D01*
X0579199Y0282165D01*
X0579474Y0282219D01*
X0579974Y0281900D01*
X0580075Y0281393D01*
X0580362Y0280963D01*
X0582374Y0278951D01*
X0582504Y0278298D01*
X0582901Y0277702D01*
X0583497Y0277304D01*
X0584199Y0277165D01*
X0584901Y0277304D01*
X0585361Y0277611D01*
X0585699Y0277668D01*
X0586037Y0277611D01*
X0586497Y0277304D01*
X0587199Y0277165D01*
X0587901Y0277304D01*
X0588361Y0277611D01*
X0588699Y0277668D01*
X0589037Y0277611D01*
X0589497Y0277304D01*
X0590199Y0277165D01*
X0590901Y0277304D01*
X0591497Y0277702D01*
X0591895Y0278298D01*
X0592034Y0279000D01*
X0591895Y0279702D01*
X0591525Y0280256D01*
Y0281951D01*
X0594336Y0284763D01*
X0594624Y0285193D01*
X0594725Y0285700D01*
Y0306888D01*
X0598911Y0311074D01*
X0622862D01*
X0623369Y0311175D01*
X0623799Y0311463D01*
X0632736Y0320400D01*
X0633024Y0320830D01*
X0633125Y0321337D01*
Y0331500D01*
X0634816D01*
Y0329086D01*
D02*
G37*
G36*
X0573699Y0248500D02*
X0573699Y0237500D01*
X0572699Y0236500D01*
X0544199D01*
X0542199Y0238500D01*
X0542199Y0248500D01*
X0573699Y0248500D01*
D02*
G37*
G36*
X0560325Y0305563D02*
X0560755Y0305275D01*
X0561262Y0305174D01*
X0569283D01*
X0569474Y0304713D01*
X0569228Y0304466D01*
X0568940Y0304036D01*
X0568839Y0303529D01*
Y0288791D01*
X0568469Y0288237D01*
X0568329Y0287534D01*
X0568350Y0287431D01*
X0567889Y0287184D01*
X0561897Y0293177D01*
Y0295213D01*
X0556360D01*
Y0293788D01*
X0555968Y0293202D01*
X0555828Y0292500D01*
X0555968Y0291798D01*
X0556360Y0291212D01*
Y0291054D01*
X0556384D01*
X0556536Y0290886D01*
X0556313Y0290386D01*
X0555082D01*
Y0293642D01*
X0555082D01*
Y0293814D01*
X0555082D01*
Y0297186D01*
X0554401D01*
Y0299500D01*
X0554199D01*
Y0301782D01*
X0554013Y0302061D01*
X0553170Y0302904D01*
X0553379Y0303402D01*
X0554199D01*
Y0306500D01*
X0556199D01*
X0556313Y0306386D01*
X0557223D01*
Y0306554D01*
X0559333D01*
X0560325Y0305563D01*
D02*
G37*
G36*
X0659716Y0411731D02*
X0661682Y0411259D01*
X0663551Y0410485D01*
X0665275Y0409428D01*
X0666814Y0408114D01*
X0668127Y0406576D01*
X0669184Y0404852D01*
X0669958Y0402983D01*
X0670430Y0401016D01*
X0670586Y0399041D01*
X0670578Y0399000D01*
Y0354000D01*
Y0308500D01*
X0668199D01*
X0664699Y0308500D01*
X0663699Y0307500D01*
X0663699Y0300500D01*
X0661199D01*
X0658199Y0303500D01*
Y0311500D01*
X0660699Y0314000D01*
X0665699D01*
Y0314518D01*
X0667608D01*
Y0315020D01*
X0667658Y0315041D01*
X0667849Y0315500D01*
Y0351500D01*
X0667658Y0351959D01*
X0667649Y0351963D01*
Y0354000D01*
D01*
X0667649Y0360199D01*
X0667459Y0360658D01*
X0664587Y0363530D01*
X0664611Y0363588D01*
X0663199Y0365000D01*
Y0365074D01*
X0663089Y0365028D01*
X0661849Y0366269D01*
X0661849Y0393000D01*
X0661848Y0393000D01*
X0661848Y0407394D01*
X0661823Y0407455D01*
X0661836Y0407521D01*
X0661682Y0408293D01*
X0661645Y0408349D01*
Y0408415D01*
X0661344Y0409143D01*
X0661297Y0409190D01*
X0661284Y0409256D01*
X0660846Y0409911D01*
X0660791Y0409948D01*
X0660765Y0410009D01*
X0660208Y0410566D01*
X0660147Y0410592D01*
X0660110Y0410647D01*
X0659455Y0411085D01*
X0659431Y0411090D01*
X0659182Y0411271D01*
X0659363Y0411759D01*
X0659716Y0411731D01*
D02*
G37*
G36*
X0573645Y0235585D02*
X0573901Y0235202D01*
Y0234798D01*
X0573504Y0234202D01*
X0573364Y0233500D01*
X0573504Y0232798D01*
X0573665Y0232556D01*
X0573558Y0232049D01*
X0573278Y0231944D01*
X0572901Y0232196D01*
X0572199Y0232335D01*
X0571497Y0232196D01*
X0571037Y0231889D01*
X0570699Y0231832D01*
X0570361Y0231889D01*
X0569901Y0232196D01*
X0569199Y0232335D01*
X0568497Y0232196D01*
X0567901Y0231798D01*
X0567504Y0231202D01*
X0567364Y0230500D01*
X0567498Y0229825D01*
X0567500Y0229738D01*
X0567244Y0229326D01*
X0563599D01*
X0560387Y0232537D01*
X0559957Y0232825D01*
X0559450Y0232926D01*
X0548913D01*
X0548646Y0233425D01*
X0548895Y0233798D01*
X0549034Y0234500D01*
X0548898Y0235184D01*
X0548888Y0235273D01*
X0549156Y0235684D01*
X0572699D01*
X0572699Y0235684D01*
X0573004Y0235745D01*
X0573015Y0235747D01*
X0573422Y0235789D01*
X0573645Y0235585D01*
D02*
G37*
G36*
X0563199Y0411000D02*
X0563593Y0411000D01*
X0564366Y0410846D01*
X0565094Y0410545D01*
X0565749Y0410107D01*
X0566306Y0409550D01*
X0566744Y0408895D01*
X0567045Y0408167D01*
X0567199Y0407394D01*
Y0407000D01*
X0567199Y0393000D01*
X0567199D01*
X0567199Y0366000D01*
X0573000Y0360199D01*
X0573000Y0351500D01*
X0573199D01*
Y0315500D01*
X0571199Y0315500D01*
Y0350000D01*
X0549000D01*
X0549000Y0385000D01*
X0544199Y0389801D01*
X0544199Y0393000D01*
X0548799Y0393000D01*
X0544199D01*
X0544199Y0407000D01*
D01*
Y0407000D01*
Y0407000D01*
X0544199Y0407394D01*
X0544353Y0408167D01*
X0544654Y0408895D01*
X0545092Y0409550D01*
X0545649Y0410107D01*
X0546304Y0410545D01*
X0547032Y0410846D01*
X0547805Y0411000D01*
X0548199Y0411000D01*
X0563199Y0411000D01*
X0563199Y0411000D01*
D02*
G37*
G36*
X0610199D02*
X0610593Y0411000D01*
X0611366Y0410846D01*
X0612094Y0410545D01*
X0612749Y0410107D01*
X0613306Y0409550D01*
X0613744Y0408895D01*
X0614045Y0408167D01*
X0614199Y0407394D01*
Y0407000D01*
X0614199Y0393000D01*
X0614199D01*
X0614199Y0366000D01*
X0620000Y0360199D01*
X0620000Y0351500D01*
X0620199D01*
Y0315500D01*
X0618199Y0315500D01*
Y0350000D01*
X0596000D01*
X0596000Y0385000D01*
X0591199Y0389801D01*
X0591199Y0393000D01*
X0609599Y0393000D01*
X0591199D01*
X0591199Y0407000D01*
D01*
Y0407000D01*
Y0407000D01*
X0591199Y0407394D01*
X0591353Y0408167D01*
X0591654Y0408895D01*
X0592092Y0409550D01*
X0592649Y0410107D01*
X0593304Y0410545D01*
X0594032Y0410846D01*
X0594805Y0411000D01*
X0595199Y0411000D01*
X0610199Y0411000D01*
X0610199Y0411000D01*
D02*
G37*
G36*
X0638699Y0350500D02*
X0639199Y0350000D01*
X0639199Y0348000D01*
X0634699D01*
Y0351500D01*
X0634199Y0352000D01*
Y0356000D01*
X0638699D01*
X0638699Y0350500D01*
D02*
G37*
G36*
X0593620Y0411378D02*
X0593056Y0411145D01*
X0593009Y0411098D01*
X0592944Y0411085D01*
X0592288Y0410647D01*
X0592251Y0410592D01*
X0592190Y0410566D01*
X0591633Y0410009D01*
X0591607Y0409948D01*
X0591552Y0409911D01*
X0591114Y0409256D01*
X0591101Y0409190D01*
X0591054Y0409143D01*
X0590753Y0408415D01*
Y0408349D01*
X0590716Y0408293D01*
X0590579Y0407604D01*
X0590239Y0407370D01*
X0590050Y0407356D01*
X0589823Y0407507D01*
X0589199Y0407631D01*
X0588575Y0407507D01*
X0588046Y0407154D01*
X0587692Y0406624D01*
X0587568Y0406000D01*
X0587692Y0405376D01*
X0588046Y0404846D01*
X0588190Y0404750D01*
Y0404250D01*
X0588046Y0404153D01*
X0587692Y0403624D01*
X0587568Y0403000D01*
X0587692Y0402376D01*
X0588046Y0401847D01*
X0588575Y0401493D01*
X0589199Y0401369D01*
X0589823Y0401493D01*
X0590050Y0401644D01*
X0590550Y0401377D01*
X0590550Y0393000D01*
X0590550Y0393000D01*
X0590550Y0389801D01*
X0590740Y0389342D01*
X0595351Y0384731D01*
Y0382377D01*
X0590699D01*
X0590172Y0382272D01*
X0589726Y0381973D01*
X0589726Y0381973D01*
X0588726Y0380973D01*
X0588427Y0380527D01*
X0588323Y0380000D01*
Y0366122D01*
X0587911Y0365710D01*
X0587911D01*
X0586701Y0364500D01*
X0581699Y0364500D01*
X0581699Y0374146D01*
X0581118D01*
Y0374078D01*
X0580618Y0373810D01*
X0580323Y0374007D01*
X0579699Y0374131D01*
X0579075Y0374007D01*
X0578828Y0373842D01*
X0578449Y0373692D01*
X0578070Y0373842D01*
X0577823Y0374007D01*
X0577199Y0374131D01*
X0576575Y0374007D01*
X0576382Y0373878D01*
X0575882Y0374146D01*
X0575199D01*
X0575199Y0364500D01*
X0569699Y0364500D01*
X0569199Y0365000D01*
Y0365074D01*
X0569089Y0365028D01*
X0567849Y0366269D01*
X0567849Y0393000D01*
X0567848Y0393000D01*
X0567848Y0407394D01*
X0567823Y0407455D01*
X0567836Y0407521D01*
X0567682Y0408293D01*
X0567645Y0408349D01*
Y0408415D01*
X0567344Y0409143D01*
X0567297Y0409190D01*
X0567284Y0409256D01*
X0566846Y0409911D01*
X0566791Y0409948D01*
X0566765Y0410009D01*
X0566208Y0410566D01*
X0566147Y0410592D01*
X0566110Y0410647D01*
X0565455Y0411085D01*
X0565389Y0411098D01*
X0565342Y0411145D01*
X0564778Y0411378D01*
X0564878Y0411878D01*
X0593521D01*
X0593620Y0411378D01*
D02*
G37*
G36*
X0541199Y0411878D02*
X0546521D01*
X0546620Y0411378D01*
X0546056Y0411145D01*
X0546009Y0411098D01*
X0545944Y0411085D01*
X0545288Y0410647D01*
X0545252Y0410592D01*
X0545190Y0410566D01*
X0544633Y0410009D01*
X0544607Y0409948D01*
X0544552Y0409911D01*
X0544114Y0409256D01*
X0544101Y0409190D01*
X0544054Y0409143D01*
X0543753Y0408415D01*
Y0408349D01*
X0543716Y0408293D01*
X0543579Y0407604D01*
X0543239Y0407370D01*
X0543050Y0407356D01*
X0542823Y0407507D01*
X0542199Y0407631D01*
X0541575Y0407507D01*
X0541046Y0407154D01*
X0540692Y0406624D01*
X0540568Y0406000D01*
X0540692Y0405376D01*
X0541046Y0404846D01*
X0541190Y0404750D01*
Y0404250D01*
X0541046Y0404153D01*
X0540692Y0403624D01*
X0540568Y0403000D01*
X0540692Y0402376D01*
X0541046Y0401847D01*
X0541575Y0401493D01*
X0542199Y0401369D01*
X0542823Y0401493D01*
X0543050Y0401644D01*
X0543550Y0401377D01*
X0543550Y0393000D01*
X0543550Y0393000D01*
X0543550Y0389801D01*
X0543740Y0389342D01*
X0548350Y0384731D01*
Y0382377D01*
X0543699D01*
X0543172Y0382272D01*
X0542726Y0381973D01*
X0542726Y0381973D01*
X0541726Y0380973D01*
X0541428Y0380527D01*
X0541323Y0380000D01*
Y0366122D01*
X0540911Y0365710D01*
D01*
X0538731Y0363530D01*
D01*
X0536299Y0361098D01*
X0535648D01*
X0535121Y0360993D01*
X0534675Y0360695D01*
X0534675Y0360695D01*
X0533353Y0359373D01*
X0532810Y0359538D01*
X0532733Y0359925D01*
X0532209Y0360710D01*
X0531425Y0361234D01*
X0530499Y0361418D01*
X0529574Y0361234D01*
X0528821Y0360731D01*
X0528462Y0360809D01*
X0528321Y0360852D01*
Y0384731D01*
Y0386075D01*
Y0390980D01*
Y0391326D01*
Y0399000D01*
X0528313Y0399041D01*
X0528468Y0401016D01*
X0528940Y0402983D01*
X0529714Y0404852D01*
X0530771Y0406576D01*
X0532085Y0408114D01*
X0533623Y0409428D01*
X0535347Y0410485D01*
X0537216Y0411259D01*
X0539183Y0411731D01*
X0541158Y0411887D01*
X0541199Y0411878D01*
D02*
G37*
G36*
X0640620Y0411378D02*
X0640056Y0411145D01*
X0640009Y0411098D01*
X0639944Y0411085D01*
X0639288Y0410647D01*
X0639252Y0410592D01*
X0639190Y0410566D01*
X0638633Y0410009D01*
X0638607Y0409948D01*
X0638552Y0409911D01*
X0638114Y0409256D01*
X0638101Y0409190D01*
X0638054Y0409143D01*
X0637753Y0408415D01*
Y0408349D01*
X0637716Y0408293D01*
X0637579Y0407604D01*
X0637239Y0407370D01*
X0637050Y0407356D01*
X0636823Y0407507D01*
X0636199Y0407631D01*
X0635575Y0407507D01*
X0635046Y0407154D01*
X0634692Y0406624D01*
X0634568Y0406000D01*
X0634692Y0405376D01*
X0635046Y0404846D01*
X0635190Y0404750D01*
Y0404250D01*
X0635046Y0404153D01*
X0634692Y0403624D01*
X0634568Y0403000D01*
X0634692Y0402376D01*
X0635046Y0401847D01*
X0635575Y0401493D01*
X0636199Y0401369D01*
X0636823Y0401493D01*
X0637050Y0401644D01*
X0637550Y0401377D01*
X0637550Y0393000D01*
X0637550Y0393000D01*
X0637550Y0389801D01*
X0637740Y0389342D01*
X0642350Y0384731D01*
Y0382377D01*
X0637699D01*
X0637172Y0382272D01*
X0636726Y0381973D01*
X0636726Y0381973D01*
X0635726Y0380973D01*
X0635428Y0380527D01*
X0635323Y0380000D01*
Y0366122D01*
X0634911Y0365710D01*
D01*
X0633701Y0364500D01*
X0628699Y0364500D01*
Y0369145D01*
X0628118D01*
Y0369077D01*
X0627618Y0368810D01*
X0627323Y0369007D01*
X0626699Y0369131D01*
X0626075Y0369007D01*
X0625828Y0368842D01*
X0625449Y0368692D01*
X0625070Y0368842D01*
X0624823Y0369007D01*
X0624199Y0369131D01*
X0623575Y0369007D01*
X0623382Y0368878D01*
X0622882Y0369145D01*
X0622199D01*
Y0364500D01*
X0616699Y0364500D01*
X0616199Y0365000D01*
Y0365074D01*
X0616089Y0365028D01*
X0614849Y0366269D01*
X0614849Y0393000D01*
X0614849Y0393000D01*
X0614849Y0407394D01*
X0614823Y0407455D01*
X0614836Y0407521D01*
X0614682Y0408293D01*
X0614645Y0408349D01*
Y0408415D01*
X0614344Y0409143D01*
X0614297Y0409190D01*
X0614284Y0409256D01*
X0613846Y0409911D01*
X0613791Y0409948D01*
X0613765Y0410009D01*
X0613208Y0410566D01*
X0613147Y0410592D01*
X0613110Y0410647D01*
X0612455Y0411085D01*
X0612389Y0411098D01*
X0612342Y0411145D01*
X0611778Y0411378D01*
X0611878Y0411878D01*
X0640521D01*
X0640620Y0411378D01*
D02*
G37*
G36*
X0591699Y0350500D02*
X0592199Y0350000D01*
X0592199Y0348000D01*
X0587699D01*
Y0351500D01*
X0587199Y0352000D01*
Y0356000D01*
X0591699D01*
X0591699Y0350500D01*
D02*
G37*
G36*
X0547955Y0351228D02*
X0548184D01*
Y0350000D01*
X0548192Y0349961D01*
Y0349751D01*
X0548234D01*
X0548246Y0349688D01*
X0548423Y0349423D01*
X0548688Y0349246D01*
X0549000Y0349184D01*
X0570383D01*
Y0341763D01*
X0570337Y0341587D01*
X0570000Y0341316D01*
X0564686D01*
X0564359Y0341680D01*
Y0346036D01*
X0557641D01*
Y0345693D01*
X0552597D01*
X0551895Y0345554D01*
X0551300Y0345156D01*
X0548401Y0342258D01*
X0548004Y0341662D01*
X0547864Y0340960D01*
Y0339760D01*
X0547199Y0339095D01*
Y0339000D01*
X0545699Y0337500D01*
X0544199D01*
Y0341000D01*
X0537699D01*
Y0343000D01*
X0544199D01*
Y0346500D01*
X0545353D01*
Y0347215D01*
X0545511Y0347246D01*
X0545776Y0347423D01*
X0545953Y0347688D01*
X0546015Y0348000D01*
X0546015Y0348902D01*
X0546034Y0349000D01*
X0546015Y0349098D01*
X0546015Y0350000D01*
X0545953Y0350312D01*
X0545776Y0350577D01*
X0545776Y0350577D01*
X0545624Y0350728D01*
X0545779Y0351228D01*
X0545955D01*
Y0354000D01*
X0547955D01*
Y0351228D01*
D02*
G37*
G36*
X0594955D02*
X0595184D01*
Y0350000D01*
X0595192Y0349961D01*
Y0349751D01*
X0595234D01*
X0595246Y0349688D01*
X0595423Y0349423D01*
X0595688Y0349246D01*
X0596000Y0349184D01*
X0617383D01*
Y0341763D01*
X0617337Y0341587D01*
X0617000Y0341316D01*
X0611686D01*
X0611359Y0341680D01*
Y0346036D01*
X0604641D01*
Y0345693D01*
X0599597D01*
X0598895Y0345554D01*
X0598300Y0345156D01*
X0595401Y0342258D01*
X0595004Y0341662D01*
X0594864Y0340960D01*
Y0339760D01*
X0594199Y0339095D01*
Y0339000D01*
X0592699Y0337500D01*
X0591199D01*
Y0341000D01*
X0584699D01*
Y0343000D01*
X0591199D01*
Y0346500D01*
X0592353D01*
Y0347215D01*
X0592511Y0347246D01*
X0592776Y0347423D01*
X0592953Y0347688D01*
X0593015Y0348000D01*
X0593015Y0348902D01*
X0593034Y0349000D01*
X0593015Y0349098D01*
X0593015Y0350000D01*
X0592953Y0350312D01*
X0592776Y0350577D01*
X0592776Y0350577D01*
X0592624Y0350728D01*
X0592779Y0351228D01*
X0592955D01*
Y0354000D01*
X0594955D01*
Y0351228D01*
D02*
G37*
G36*
X0641955D02*
X0642184D01*
Y0350000D01*
X0642192Y0349961D01*
Y0349751D01*
X0642234D01*
X0642246Y0349688D01*
X0642423Y0349423D01*
X0642688Y0349246D01*
X0643000Y0349184D01*
X0664383D01*
Y0341763D01*
X0664337Y0341587D01*
X0664000Y0341316D01*
X0658686D01*
X0658359Y0341680D01*
Y0346036D01*
X0651641D01*
Y0345693D01*
X0646597D01*
X0645895Y0345554D01*
X0645300Y0345156D01*
X0642401Y0342258D01*
X0642004Y0341662D01*
X0641864Y0340960D01*
Y0339760D01*
X0641199Y0339095D01*
Y0339000D01*
X0639699Y0337500D01*
X0638199D01*
Y0341000D01*
X0631699D01*
Y0343000D01*
X0638199D01*
Y0346500D01*
X0639353D01*
Y0347215D01*
X0639511Y0347246D01*
X0639776Y0347423D01*
X0639953Y0347688D01*
X0640015Y0348000D01*
X0640015Y0348902D01*
X0640034Y0349000D01*
X0640015Y0349098D01*
X0640015Y0350000D01*
X0639953Y0350312D01*
X0639776Y0350577D01*
X0639776Y0350577D01*
X0639624Y0350728D01*
X0639779Y0351228D01*
X0639955D01*
Y0354000D01*
X0641955D01*
Y0351228D01*
D02*
G37*
G36*
X0657199Y0411000D02*
X0657593Y0411000D01*
X0658366Y0410846D01*
X0659094Y0410545D01*
X0659749Y0410107D01*
X0660306Y0409550D01*
X0660744Y0408895D01*
X0661045Y0408167D01*
X0661199Y0407394D01*
Y0407000D01*
X0661199Y0393000D01*
X0661199D01*
X0661199Y0366000D01*
X0667000Y0360199D01*
X0667000Y0351500D01*
X0667199D01*
Y0315500D01*
X0665199Y0315500D01*
Y0350000D01*
X0643000D01*
X0643000Y0385000D01*
X0638199Y0389801D01*
X0638199Y0393000D01*
X0656599Y0393000D01*
X0638199D01*
X0638199Y0407000D01*
D01*
Y0407000D01*
Y0407000D01*
X0638199Y0407394D01*
X0638353Y0408167D01*
X0638654Y0408895D01*
X0639092Y0409550D01*
X0639649Y0410107D01*
X0640304Y0410545D01*
X0641032Y0410846D01*
X0641805Y0411000D01*
X0642199Y0411000D01*
X0657199Y0411000D01*
X0657199Y0411000D01*
D02*
G37*
G36*
X0544699Y0350500D02*
X0545199Y0350000D01*
X0545199Y0348000D01*
X0540699D01*
Y0351500D01*
X0540199Y0352000D01*
Y0356000D01*
X0544699D01*
X0544699Y0350500D01*
D02*
G37*
G36*
X0664000Y0321000D02*
X0646000D01*
X0646000Y0340500D01*
X0664000D01*
X0664000Y0321000D01*
D02*
G37*
%LPC*%
G36*
X0604199Y0285320D02*
X0603575Y0285196D01*
X0603046Y0284842D01*
X0602692Y0284313D01*
X0602568Y0283689D01*
X0602692Y0283065D01*
X0603046Y0282535D01*
X0603285Y0282376D01*
Y0281774D01*
X0603046Y0281614D01*
X0602692Y0281085D01*
X0602568Y0280461D01*
X0602692Y0279836D01*
X0603046Y0279307D01*
X0603575Y0278954D01*
X0604199Y0278829D01*
X0604823Y0278954D01*
X0605353Y0279307D01*
X0605706Y0279836D01*
X0605830Y0280461D01*
X0605706Y0281085D01*
X0605353Y0281614D01*
X0605113Y0281774D01*
Y0282376D01*
X0605353Y0282535D01*
X0605706Y0283065D01*
X0605830Y0283689D01*
X0605706Y0284313D01*
X0605353Y0284842D01*
X0604823Y0285196D01*
X0604199Y0285320D01*
D02*
G37*
G36*
X0609546Y0285190D02*
X0608921Y0285066D01*
X0608392Y0284713D01*
X0608038Y0284183D01*
X0607914Y0283559D01*
X0608038Y0282935D01*
X0608392Y0282405D01*
X0608921Y0282052D01*
X0609546Y0281928D01*
X0610170Y0282052D01*
X0610699Y0282405D01*
X0611053Y0282935D01*
X0611177Y0283559D01*
X0611053Y0284183D01*
X0610699Y0284713D01*
X0610170Y0285066D01*
X0609546Y0285190D01*
D02*
G37*
G36*
X0613140Y0289978D02*
X0612516Y0289854D01*
X0611986Y0289500D01*
X0611633Y0288971D01*
X0611509Y0288347D01*
X0611633Y0287722D01*
X0611986Y0287193D01*
X0612516Y0286839D01*
X0613140Y0286715D01*
X0613764Y0286839D01*
X0614294Y0287193D01*
X0614647Y0287722D01*
X0614771Y0288347D01*
X0614647Y0288971D01*
X0614294Y0289500D01*
X0613764Y0289854D01*
X0613140Y0289978D01*
D02*
G37*
G36*
X0605428Y0297631D02*
X0604803Y0297507D01*
X0604274Y0297153D01*
X0603920Y0296624D01*
X0603796Y0296000D01*
X0603920Y0295376D01*
X0604274Y0294847D01*
X0604803Y0294493D01*
X0605428Y0294369D01*
X0606052Y0294493D01*
X0606581Y0294847D01*
X0606935Y0295376D01*
X0607059Y0296000D01*
X0606935Y0296624D01*
X0606581Y0297153D01*
X0606052Y0297507D01*
X0605428Y0297631D01*
D02*
G37*
G36*
X0604199Y0291903D02*
X0603575Y0291779D01*
X0603046Y0291425D01*
X0602692Y0290896D01*
X0602568Y0290272D01*
X0602692Y0289647D01*
X0603046Y0289118D01*
X0603575Y0288765D01*
X0604199Y0288640D01*
X0604823Y0288765D01*
X0605353Y0289118D01*
X0605706Y0289647D01*
X0605830Y0290272D01*
X0605706Y0290896D01*
X0605353Y0291425D01*
X0604823Y0291779D01*
X0604199Y0291903D01*
D02*
G37*
G36*
X0574270Y0302646D02*
X0572301D01*
Y0301366D01*
X0574270D01*
Y0302646D01*
D02*
G37*
G36*
Y0299366D02*
X0572301D01*
Y0298087D01*
X0574270D01*
Y0299366D01*
D02*
G37*
G36*
X0613577Y0247054D02*
X0613494Y0247043D01*
X0612484Y0246625D01*
X0611617Y0245960D01*
X0610952Y0245093D01*
X0610534Y0244083D01*
X0610523Y0244000D01*
X0613577D01*
Y0247054D01*
D02*
G37*
G36*
X0583581Y0248339D02*
X0583581Y0244500D01*
X0583581D01*
Y0248339D01*
D02*
G37*
G36*
X0618199Y0252335D02*
X0617497Y0252196D01*
X0616901Y0251798D01*
X0616504Y0251202D01*
X0616364Y0250500D01*
X0616504Y0249798D01*
X0616901Y0249202D01*
X0617497Y0248804D01*
X0618150Y0248675D01*
X0620143Y0246682D01*
X0620110Y0246183D01*
X0619634Y0245817D01*
X0619001Y0244992D01*
X0618893Y0244732D01*
X0618352D01*
X0618202Y0245093D01*
X0617537Y0245960D01*
X0616670Y0246625D01*
X0615660Y0247043D01*
X0615577Y0247054D01*
Y0243000D01*
Y0238946D01*
X0615660Y0238957D01*
X0616670Y0239375D01*
X0617537Y0240040D01*
X0618202Y0240907D01*
X0618352Y0241268D01*
X0618893D01*
X0619001Y0241008D01*
X0619634Y0240183D01*
X0620459Y0239550D01*
X0621420Y0239152D01*
X0622451Y0239016D01*
X0623482Y0239152D01*
X0624443Y0239550D01*
X0625268Y0240183D01*
X0625901Y0241008D01*
X0626118Y0241530D01*
X0626659D01*
X0626875Y0241008D01*
X0627508Y0240183D01*
X0628333Y0239550D01*
X0629294Y0239152D01*
X0630325Y0239016D01*
X0631356Y0239152D01*
X0632317Y0239550D01*
X0633142Y0240183D01*
X0633775Y0241008D01*
X0634004Y0241561D01*
X0634546D01*
X0634775Y0241008D01*
X0635408Y0240183D01*
X0636233Y0239550D01*
X0637194Y0239152D01*
X0638225Y0239016D01*
X0639256Y0239152D01*
X0640217Y0239550D01*
X0641042Y0240183D01*
X0641675Y0241008D01*
X0641904Y0241561D01*
X0642446D01*
X0642675Y0241008D01*
X0643308Y0240183D01*
X0644133Y0239550D01*
X0645094Y0239152D01*
X0646125Y0239016D01*
X0647156Y0239152D01*
X0648117Y0239550D01*
X0648942Y0240183D01*
X0649575Y0241008D01*
X0649765Y0241467D01*
X0650307D01*
X0650497Y0241008D01*
X0651130Y0240183D01*
X0651955Y0239550D01*
X0652916Y0239152D01*
X0653947Y0239016D01*
X0654978Y0239152D01*
X0655939Y0239550D01*
X0656764Y0240183D01*
X0657398Y0241008D01*
X0657614Y0241530D01*
X0658155D01*
X0658371Y0241008D01*
X0659004Y0240183D01*
X0659829Y0239550D01*
X0660790Y0239152D01*
X0661821Y0239016D01*
X0662852Y0239152D01*
X0663813Y0239550D01*
X0664638Y0240183D01*
X0665272Y0241008D01*
X0665669Y0241969D01*
X0665805Y0243000D01*
X0665669Y0244031D01*
X0665272Y0244992D01*
X0664638Y0245817D01*
X0663813Y0246450D01*
X0662852Y0246848D01*
X0661821Y0246984D01*
X0660790Y0246848D01*
X0659829Y0246450D01*
X0659004Y0245817D01*
X0658371Y0244992D01*
X0658155Y0244470D01*
X0657614D01*
X0657398Y0244992D01*
X0656764Y0245817D01*
X0655939Y0246450D01*
X0654978Y0246848D01*
X0653947Y0246984D01*
X0652916Y0246848D01*
X0651955Y0246450D01*
X0651130Y0245817D01*
X0650497Y0244992D01*
X0650307Y0244533D01*
X0649765D01*
X0649575Y0244992D01*
X0648942Y0245817D01*
X0648117Y0246450D01*
X0647156Y0246848D01*
X0646125Y0246984D01*
X0645094Y0246848D01*
X0644427Y0246572D01*
X0641062Y0249937D01*
X0640632Y0250225D01*
X0640125Y0250325D01*
X0633955D01*
X0633401Y0250696D01*
X0632699Y0250835D01*
X0631997Y0250696D01*
X0631401Y0250298D01*
X0631004Y0249702D01*
X0630864Y0249000D01*
X0631004Y0248298D01*
X0631401Y0247702D01*
X0631997Y0247304D01*
X0632699Y0247165D01*
X0633401Y0247304D01*
X0633955Y0247674D01*
X0636933D01*
X0637173Y0247627D01*
X0637413Y0247674D01*
X0639576D01*
X0640289Y0246962D01*
X0640005Y0246538D01*
X0639256Y0246848D01*
X0638225Y0246984D01*
X0637194Y0246848D01*
X0636233Y0246450D01*
X0635408Y0245817D01*
X0634775Y0244992D01*
X0634546Y0244439D01*
X0634004D01*
X0633775Y0244992D01*
X0633142Y0245817D01*
X0632317Y0246450D01*
X0631356Y0246848D01*
X0630325Y0246984D01*
X0629294Y0246848D01*
X0628333Y0246450D01*
X0627508Y0245817D01*
X0626875Y0244992D01*
X0626659Y0244470D01*
X0626118D01*
X0625901Y0244992D01*
X0625268Y0245817D01*
X0624443Y0246450D01*
X0623664Y0246773D01*
X0623388Y0247185D01*
X0620025Y0250549D01*
X0619895Y0251202D01*
X0619497Y0251798D01*
X0618901Y0252196D01*
X0618199Y0252335D01*
D02*
G37*
G36*
X0537349Y0256000D02*
X0535971D01*
Y0254425D01*
X0537349D01*
Y0256000D01*
D02*
G37*
G36*
X0604585Y0255835D02*
X0603883Y0255696D01*
X0603287Y0255298D01*
X0602889Y0254702D01*
X0602750Y0254000D01*
X0602889Y0253298D01*
X0603287Y0252702D01*
X0603883Y0252304D01*
X0604585Y0252165D01*
X0605287Y0252304D01*
X0605883Y0252702D01*
X0606281Y0253298D01*
X0606420Y0254000D01*
X0606281Y0254702D01*
X0605883Y0255298D01*
X0605287Y0255696D01*
X0604585Y0255835D01*
D02*
G37*
G36*
X0540727Y0251075D02*
X0539349D01*
Y0249500D01*
X0540727D01*
Y0251075D01*
D02*
G37*
G36*
X0537349D02*
X0535971D01*
Y0249500D01*
X0537349D01*
Y0251075D01*
D02*
G37*
G36*
Y0247500D02*
X0535971D01*
Y0245925D01*
X0537349D01*
Y0247500D01*
D02*
G37*
G36*
X0540727D02*
X0539349D01*
Y0245925D01*
X0540727D01*
Y0247500D01*
D02*
G37*
G36*
X0534228Y0250875D02*
X0529872D01*
Y0249481D01*
X0529504Y0248931D01*
X0529364Y0248228D01*
X0529504Y0247526D01*
X0529872Y0246975D01*
Y0246125D01*
X0534228D01*
Y0250875D01*
D02*
G37*
G36*
X0540727Y0242575D02*
X0539349D01*
Y0241000D01*
X0540727D01*
Y0242575D01*
D02*
G37*
G36*
X0557514Y0221000D02*
X0554460D01*
X0554471Y0220917D01*
X0554889Y0219907D01*
X0555554Y0219040D01*
X0556421Y0218375D01*
X0557431Y0217957D01*
X0557514Y0217946D01*
Y0221000D01*
D02*
G37*
G36*
X0659699Y0228038D02*
X0659307Y0228000D01*
X0657968Y0227593D01*
X0656734Y0226934D01*
X0655653Y0226046D01*
X0654765Y0224965D01*
X0654106Y0223731D01*
X0653699Y0222392D01*
X0653661Y0222000D01*
X0659699D01*
Y0228038D01*
D02*
G37*
G36*
X0661699D02*
Y0222000D01*
X0667737D01*
X0667699Y0222392D01*
X0667293Y0223731D01*
X0666633Y0224965D01*
X0665746Y0226046D01*
X0664664Y0226934D01*
X0663430Y0227593D01*
X0662091Y0228000D01*
X0661699Y0228038D01*
D02*
G37*
G36*
X0667737Y0220000D02*
X0661699D01*
Y0213962D01*
X0662091Y0214000D01*
X0663430Y0214406D01*
X0664664Y0215066D01*
X0665746Y0215954D01*
X0666633Y0217035D01*
X0667293Y0218269D01*
X0667699Y0219608D01*
X0667737Y0220000D01*
D02*
G37*
G36*
X0537199D02*
X0531161D01*
X0531200Y0219608D01*
X0531606Y0218269D01*
X0532265Y0217035D01*
X0533153Y0215954D01*
X0534234Y0215066D01*
X0535468Y0214406D01*
X0536807Y0214000D01*
X0537199Y0213962D01*
Y0220000D01*
D02*
G37*
G36*
X0545237D02*
X0539199D01*
Y0213962D01*
X0539591Y0214000D01*
X0540930Y0214406D01*
X0542164Y0215066D01*
X0543246Y0215954D01*
X0544133Y0217035D01*
X0544793Y0218269D01*
X0545199Y0219608D01*
X0545237Y0220000D01*
D02*
G37*
G36*
X0659699D02*
X0653661D01*
X0653699Y0219608D01*
X0654106Y0218269D01*
X0654765Y0217035D01*
X0655653Y0215954D01*
X0656734Y0215066D01*
X0657968Y0214406D01*
X0659307Y0214000D01*
X0659699Y0213962D01*
Y0220000D01*
D02*
G37*
G36*
X0603699Y0226335D02*
X0602997Y0226196D01*
X0602401Y0225798D01*
X0602004Y0225202D01*
X0601864Y0224500D01*
X0602004Y0223798D01*
X0602401Y0223202D01*
X0602997Y0222804D01*
X0603699Y0222665D01*
X0604401Y0222804D01*
X0604997Y0223202D01*
X0605395Y0223798D01*
X0605534Y0224500D01*
X0605395Y0225202D01*
X0604997Y0225798D01*
X0604401Y0226196D01*
X0603699Y0226335D01*
D02*
G37*
G36*
X0534228Y0242375D02*
X0529872D01*
Y0240981D01*
X0529504Y0240431D01*
X0529364Y0239728D01*
X0529504Y0239026D01*
X0529872Y0238475D01*
Y0237625D01*
X0534228D01*
Y0242375D01*
D02*
G37*
G36*
X0613577Y0242000D02*
X0610523D01*
X0610534Y0241917D01*
X0610952Y0240907D01*
X0611617Y0240040D01*
X0612484Y0239375D01*
X0613494Y0238957D01*
X0613577Y0238946D01*
Y0242000D01*
D02*
G37*
G36*
X0537349Y0242575D02*
X0535971D01*
Y0241000D01*
X0537349D01*
Y0242575D01*
D02*
G37*
G36*
X0540727Y0239000D02*
X0539349D01*
Y0237425D01*
X0540727D01*
Y0239000D01*
D02*
G37*
G36*
X0638099Y0225984D02*
X0637068Y0225848D01*
X0636107Y0225450D01*
X0635282Y0224817D01*
X0634649Y0223992D01*
X0634420Y0223439D01*
X0633879D01*
X0633649Y0223992D01*
X0633016Y0224817D01*
X0632191Y0225450D01*
X0631230Y0225848D01*
X0630199Y0225984D01*
X0629168Y0225848D01*
X0628207Y0225450D01*
X0627382Y0224817D01*
X0626749Y0223992D01*
X0626533Y0223470D01*
X0625991D01*
X0625775Y0223992D01*
X0625142Y0224817D01*
X0624317Y0225450D01*
X0623356Y0225848D01*
X0622325Y0225984D01*
X0621294Y0225848D01*
X0620333Y0225450D01*
X0619508Y0224817D01*
X0618875Y0223992D01*
X0618659Y0223470D01*
X0618118D01*
X0617901Y0223992D01*
X0617268Y0224817D01*
X0616443Y0225450D01*
X0615482Y0225848D01*
X0614451Y0225984D01*
X0613420Y0225848D01*
X0612459Y0225450D01*
X0611634Y0224817D01*
X0611001Y0223992D01*
X0610603Y0223031D01*
X0610467Y0222000D01*
X0610603Y0220969D01*
X0611001Y0220008D01*
X0611634Y0219183D01*
X0612459Y0218550D01*
X0613420Y0218152D01*
X0614451Y0218016D01*
X0615482Y0218152D01*
X0615894Y0218322D01*
X0618334Y0215882D01*
X0618846Y0215540D01*
X0619451Y0215420D01*
X0625199D01*
X0625804Y0215540D01*
X0626317Y0215882D01*
X0628756Y0218322D01*
X0629168Y0218152D01*
X0630199Y0218016D01*
X0631230Y0218152D01*
X0632191Y0218550D01*
X0633016Y0219183D01*
X0633649Y0220008D01*
X0633879Y0220561D01*
X0634420D01*
X0634649Y0220008D01*
X0635282Y0219183D01*
X0636107Y0218550D01*
X0637068Y0218152D01*
X0638099Y0218016D01*
X0639130Y0218152D01*
X0640091Y0218550D01*
X0640916Y0219183D01*
X0641549Y0220008D01*
X0641948Y0220969D01*
X0642083Y0222000D01*
X0641948Y0223031D01*
X0641549Y0223992D01*
X0640916Y0224817D01*
X0640091Y0225450D01*
X0639130Y0225848D01*
X0638099Y0225984D01*
D02*
G37*
G36*
X0612199Y0235449D02*
X0611497Y0235310D01*
X0610901Y0234912D01*
X0610504Y0234316D01*
X0610364Y0233614D01*
X0610504Y0232912D01*
X0610901Y0232316D01*
X0611497Y0231919D01*
X0612199Y0231779D01*
X0612901Y0231919D01*
X0613497Y0232316D01*
X0613895Y0232912D01*
X0614034Y0233614D01*
X0613895Y0234316D01*
X0613497Y0234912D01*
X0612901Y0235310D01*
X0612199Y0235449D01*
D02*
G37*
G36*
X0537349Y0239000D02*
X0535971D01*
Y0237425D01*
X0537349D01*
Y0239000D01*
D02*
G37*
G36*
X0540727Y0256000D02*
X0539349D01*
Y0254425D01*
X0540727D01*
Y0256000D01*
D02*
G37*
G36*
X0538949Y0303750D02*
X0535199D01*
Y0300000D01*
X0538949D01*
Y0303750D01*
D02*
G37*
G36*
X0533199D02*
X0529449D01*
Y0300000D01*
X0533199D01*
Y0303750D01*
D02*
G37*
G36*
Y0308000D02*
X0529449D01*
Y0304250D01*
X0533199D01*
Y0308000D01*
D02*
G37*
G36*
X0533199Y0318748D02*
X0529449D01*
Y0315198D01*
X0533199D01*
Y0318748D01*
D02*
G37*
G36*
X0538949Y0313750D02*
X0535199D01*
Y0310000D01*
X0538949D01*
Y0313750D01*
D02*
G37*
G36*
Y0308000D02*
X0535199D01*
Y0304250D01*
X0538949D01*
Y0308000D01*
D02*
G37*
G36*
X0604699Y0310335D02*
X0603997Y0310196D01*
X0603401Y0309798D01*
X0603004Y0309202D01*
X0602864Y0308500D01*
X0603004Y0307798D01*
X0603401Y0307202D01*
X0603997Y0306804D01*
X0604699Y0306665D01*
X0605401Y0306804D01*
X0605997Y0307202D01*
X0606395Y0307798D01*
X0606534Y0308500D01*
X0606395Y0309202D01*
X0605997Y0309798D01*
X0605401Y0310196D01*
X0604699Y0310335D01*
D02*
G37*
G36*
X0533199Y0313750D02*
X0529449D01*
Y0310000D01*
X0533199D01*
Y0313750D01*
D02*
G37*
G36*
X0598927Y0261583D02*
X0598042D01*
Y0260500D01*
X0598927D01*
Y0261583D01*
D02*
G37*
G36*
X0540727Y0259575D02*
X0539349D01*
Y0258000D01*
X0540727D01*
Y0259575D01*
D02*
G37*
G36*
X0534228Y0259375D02*
X0529872D01*
Y0257981D01*
X0529504Y0257431D01*
X0529364Y0256728D01*
X0529504Y0256026D01*
X0529872Y0255475D01*
Y0254625D01*
X0534228D01*
Y0259375D01*
D02*
G37*
G36*
X0598927Y0258500D02*
X0598042D01*
Y0257417D01*
X0598927D01*
Y0258500D01*
D02*
G37*
G36*
X0537349Y0259575D02*
X0535971D01*
Y0258000D01*
X0537349D01*
Y0259575D01*
D02*
G37*
G36*
X0538949Y0298000D02*
X0535199D01*
Y0294250D01*
X0538949D01*
Y0298000D01*
D02*
G37*
G36*
X0543699Y0297800D02*
X0540899D01*
Y0297100D01*
X0543699D01*
Y0297800D01*
D02*
G37*
G36*
X0533199Y0298000D02*
X0529449D01*
Y0294250D01*
X0533199D01*
Y0298000D01*
D02*
G37*
G36*
Y0292750D02*
X0529449D01*
Y0289200D01*
X0533199D01*
Y0292750D01*
D02*
G37*
G36*
X0538949D02*
X0535199D01*
Y0289200D01*
X0538949D01*
Y0292750D01*
D02*
G37*
G36*
X0562097Y0302646D02*
X0560699D01*
Y0301366D01*
X0562097D01*
Y0302646D01*
D02*
G37*
G36*
X0558128Y0299366D02*
X0556160D01*
Y0298087D01*
X0558128D01*
Y0299366D01*
D02*
G37*
G36*
X0562097D02*
X0560128D01*
Y0298087D01*
X0562097D01*
Y0299366D01*
D02*
G37*
G36*
X0579199Y0410735D02*
X0577885Y0410605D01*
X0576622Y0410222D01*
X0575457Y0409600D01*
X0574437Y0408762D01*
X0573599Y0407742D01*
X0572977Y0406577D01*
X0572594Y0405314D01*
X0572464Y0404000D01*
X0572594Y0402686D01*
X0572977Y0401423D01*
X0573599Y0400258D01*
X0574437Y0399238D01*
X0575457Y0398400D01*
X0576622Y0397778D01*
X0577885Y0397395D01*
X0579199Y0397265D01*
X0580513Y0397395D01*
X0581776Y0397778D01*
X0582941Y0398400D01*
X0583961Y0399238D01*
X0584799Y0400258D01*
X0585421Y0401423D01*
X0585805Y0402686D01*
X0585934Y0404000D01*
X0585805Y0405314D01*
X0585421Y0406577D01*
X0584799Y0407742D01*
X0583961Y0408762D01*
X0582941Y0409600D01*
X0581776Y0410222D01*
X0580513Y0410605D01*
X0579199Y0410735D01*
D02*
G37*
G36*
X0626199D02*
X0624885Y0410605D01*
X0623622Y0410222D01*
X0622458Y0409600D01*
X0621437Y0408762D01*
X0620599Y0407742D01*
X0619977Y0406577D01*
X0619594Y0405314D01*
X0619464Y0404000D01*
X0619594Y0402686D01*
X0619977Y0401423D01*
X0620599Y0400258D01*
X0621437Y0399238D01*
X0622458Y0398400D01*
X0623622Y0397778D01*
X0624885Y0397395D01*
X0626199Y0397265D01*
X0627513Y0397395D01*
X0628776Y0397778D01*
X0629941Y0398400D01*
X0630961Y0399238D01*
X0631799Y0400258D01*
X0632421Y0401423D01*
X0632804Y0402686D01*
X0632934Y0404000D01*
X0632804Y0405314D01*
X0632421Y0406577D01*
X0631799Y0407742D01*
X0630961Y0408762D01*
X0629941Y0409600D01*
X0628776Y0410222D01*
X0627513Y0410605D01*
X0626199Y0410735D01*
D02*
G37*
%LPD*%
D10*
X0573313Y0264000D02*
D03*
X0570085D02*
D03*
D11*
X0649199Y0310272D02*
D03*
Y0306728D02*
D03*
X0641199Y0310272D02*
D03*
Y0306728D02*
D03*
X0636699Y0330772D02*
D03*
Y0327228D02*
D03*
X0589699D02*
D03*
Y0330772D02*
D03*
X0542699D02*
D03*
Y0327228D02*
D03*
X0555199Y0284957D02*
D03*
Y0288500D02*
D03*
X0549699Y0295500D02*
D03*
Y0291957D02*
D03*
X0553199D02*
D03*
Y0295500D02*
D03*
X0533699Y0329272D02*
D03*
Y0325728D02*
D03*
X0580699D02*
D03*
Y0329272D02*
D03*
X0627699D02*
D03*
Y0325728D02*
D03*
X0530199Y0329272D02*
D03*
Y0325728D02*
D03*
X0577199D02*
D03*
Y0329272D02*
D03*
X0624199D02*
D03*
Y0325728D02*
D03*
D12*
X0645199Y0306886D02*
D03*
Y0310114D02*
D03*
X0580699Y0261415D02*
D03*
Y0258187D02*
D03*
X0555199Y0305386D02*
D03*
Y0308614D02*
D03*
D13*
X0654443Y0309500D02*
D03*
X0659955D02*
D03*
X0626443Y0354000D02*
D03*
X0631955D02*
D03*
X0579443D02*
D03*
X0584955D02*
D03*
X0532443D02*
D03*
X0537955D02*
D03*
X0546955D02*
D03*
X0541443D02*
D03*
X0593955D02*
D03*
X0588443D02*
D03*
X0640955D02*
D03*
X0635443D02*
D03*
D14*
X0643971Y0360500D02*
D03*
X0640427D02*
D03*
X0593428D02*
D03*
X0596971D02*
D03*
X0549971D02*
D03*
X0546427D02*
D03*
X0610471Y0259500D02*
D03*
X0606927D02*
D03*
X0603471D02*
D03*
X0599928D02*
D03*
X0586928Y0321000D02*
D03*
X0590471D02*
D03*
X0586928Y0317500D02*
D03*
X0590471D02*
D03*
D15*
X0589424Y0349776D02*
D03*
X0586274D02*
D03*
X0583124D02*
D03*
X0579975D02*
D03*
X0589424Y0334224D02*
D03*
X0586274D02*
D03*
X0583124D02*
D03*
X0579975D02*
D03*
X0532975D02*
D03*
X0536124D02*
D03*
X0539274D02*
D03*
X0542423D02*
D03*
X0532975Y0349776D02*
D03*
X0536124D02*
D03*
X0539274D02*
D03*
X0542423D02*
D03*
X0626975Y0334224D02*
D03*
X0630124D02*
D03*
X0633274D02*
D03*
X0636423D02*
D03*
X0626975Y0349776D02*
D03*
X0630124D02*
D03*
X0633274D02*
D03*
X0636423D02*
D03*
D16*
X0584699Y0342000D02*
D03*
X0537699D02*
D03*
X0631699D02*
D03*
D17*
X0631284Y0385661D02*
D03*
Y0377000D02*
D03*
Y0368339D02*
D03*
X0666716D02*
D03*
Y0377000D02*
D03*
Y0385661D02*
D03*
X0537284D02*
D03*
Y0377000D02*
D03*
Y0368339D02*
D03*
X0572717D02*
D03*
Y0377000D02*
D03*
Y0385661D02*
D03*
X0619717D02*
D03*
Y0377000D02*
D03*
Y0368339D02*
D03*
X0584283D02*
D03*
Y0377000D02*
D03*
Y0385661D02*
D03*
D18*
X0640142Y0377000D02*
D03*
X0546142D02*
D03*
X0593142D02*
D03*
D19*
X0645653Y0370209D02*
D03*
Y0374736D02*
D03*
Y0379264D02*
D03*
Y0383791D02*
D03*
X0656677D02*
D03*
Y0379264D02*
D03*
Y0374736D02*
D03*
Y0370209D02*
D03*
X0551653D02*
D03*
Y0374736D02*
D03*
Y0379264D02*
D03*
Y0383791D02*
D03*
X0562677D02*
D03*
Y0379264D02*
D03*
Y0374736D02*
D03*
Y0370209D02*
D03*
X0609677D02*
D03*
Y0374736D02*
D03*
Y0379264D02*
D03*
Y0383791D02*
D03*
X0598654D02*
D03*
Y0379264D02*
D03*
Y0374736D02*
D03*
Y0370209D02*
D03*
D20*
X0569661Y0317284D02*
D03*
X0561000D02*
D03*
X0552339D02*
D03*
Y0352716D02*
D03*
X0561000D02*
D03*
X0569661D02*
D03*
X0616661D02*
D03*
X0608000D02*
D03*
X0599339D02*
D03*
Y0317284D02*
D03*
X0608000D02*
D03*
X0616661D02*
D03*
X0663661D02*
D03*
X0655000D02*
D03*
X0646339D02*
D03*
Y0352716D02*
D03*
X0655000D02*
D03*
X0663661D02*
D03*
D21*
X0554209Y0327323D02*
D03*
X0558736D02*
D03*
X0563264D02*
D03*
X0567791D02*
D03*
Y0338347D02*
D03*
X0563264D02*
D03*
X0558736D02*
D03*
X0554209D02*
D03*
X0601209D02*
D03*
X0605736D02*
D03*
X0610264D02*
D03*
X0614791D02*
D03*
Y0327323D02*
D03*
X0610264D02*
D03*
X0605736D02*
D03*
X0601209D02*
D03*
X0648209D02*
D03*
X0652736D02*
D03*
X0657264D02*
D03*
X0661791D02*
D03*
Y0338347D02*
D03*
X0657264D02*
D03*
X0652736D02*
D03*
X0648209D02*
D03*
D22*
X0561000Y0343858D02*
D03*
X0608000D02*
D03*
X0655000D02*
D03*
D23*
X0575270Y0300366D02*
D03*
Y0308634D02*
D03*
X0559128Y0300366D02*
D03*
Y0308634D02*
D03*
X0575270Y0284866D02*
D03*
Y0293134D02*
D03*
X0559128Y0284866D02*
D03*
Y0293134D02*
D03*
D24*
X0532050Y0240000D02*
D03*
X0538349D02*
D03*
X0532050Y0257000D02*
D03*
X0538349D02*
D03*
X0532050Y0248500D02*
D03*
X0538349D02*
D03*
D25*
X0663762Y0293661D02*
D03*
Y0296220D02*
D03*
Y0298780D02*
D03*
Y0301339D02*
D03*
X0646636Y0293661D02*
D03*
Y0296220D02*
D03*
Y0298780D02*
D03*
Y0301339D02*
D03*
D26*
X0655199Y0297500D02*
D03*
D27*
X0620349Y0266900D02*
D03*
Y0302100D02*
D03*
D28*
X0666699Y0305894D02*
D03*
Y0311405D02*
D03*
D29*
X0666280Y0274500D02*
D03*
X0645020D02*
D03*
D30*
X0590199Y0239500D02*
D03*
D31*
Y0250524D02*
D03*
D32*
X0580711Y0242801D02*
D03*
D33*
X0569687D02*
D03*
D34*
X0573199Y0255801D02*
D03*
D35*
X0577097Y0251864D02*
D03*
X0569302D02*
D03*
Y0253832D02*
D03*
Y0255801D02*
D03*
Y0257769D02*
D03*
Y0259738D02*
D03*
X0577097D02*
D03*
Y0257769D02*
D03*
Y0255801D02*
D03*
Y0253832D02*
D03*
D36*
X0534199Y0299000D02*
D03*
Y0309000D02*
D03*
D37*
Y0288200D02*
D03*
Y0319748D02*
D03*
D38*
X0544699Y0301400D02*
D03*
Y0304000D02*
D03*
Y0306559D02*
D03*
Y0298800D02*
D03*
Y0309118D02*
D03*
D39*
X0554199Y0256177D02*
D03*
Y0240823D02*
D03*
D40*
X0620650Y0302100D02*
X0624478D01*
X0665699Y0310500D02*
X0668699D01*
X0660199Y0312500D02*
X0662199Y0310500D01*
X0641199Y0310272D02*
X0649199D01*
X0587299Y0286100D02*
Y0307400D01*
X0584599Y0310100D02*
X0587299Y0307400D01*
X0584599Y0310100D02*
Y0331863D01*
X0582999Y0310300D02*
Y0330496D01*
X0582492Y0309792D02*
X0582999Y0310300D01*
X0582492Y0285940D02*
Y0309792D01*
X0581299Y0281900D02*
X0584199Y0279000D01*
X0581299Y0281900D02*
Y0284870D01*
X0590199Y0279000D02*
Y0282500D01*
X0587199Y0279000D02*
X0587229D01*
X0586099Y0280070D02*
Y0284900D01*
X0577208Y0311500D02*
X0579199Y0309508D01*
Y0284000D02*
Y0309508D01*
X0580892Y0285277D02*
Y0310079D01*
X0577870Y0313100D02*
X0580892Y0310079D01*
X0593399Y0285700D02*
Y0307437D01*
X0590199Y0282500D02*
X0593399Y0285700D01*
X0591799Y0286630D02*
Y0308100D01*
X0589169Y0284000D02*
X0591799Y0286630D01*
X0588199Y0284000D02*
X0589169D01*
X0573136Y0306500D02*
X0575270Y0308634D01*
X0561262Y0306500D02*
X0573136D01*
X0570165Y0303529D02*
X0573136Y0306500D01*
X0570165Y0287534D02*
Y0303529D01*
X0559128Y0308634D02*
X0561262Y0306500D01*
X0560065Y0293134D02*
X0567799Y0285400D01*
X0559128Y0293134D02*
X0560065D01*
X0572299Y0290163D02*
X0575270Y0293134D01*
X0572299Y0286699D02*
Y0290163D01*
X0574204Y0283800D02*
X0575270Y0284866D01*
X0564899Y0283800D02*
X0574204D01*
X0582492Y0285940D02*
X0583699Y0284733D01*
Y0284000D02*
Y0284733D01*
X0580892Y0285277D02*
X0581299Y0284870D01*
X0583699Y0284000D02*
X0583833Y0283866D01*
X0583699Y0284000D02*
X0583966D01*
X0589699Y0287500D02*
Y0314728D01*
X0583833Y0283866D02*
X0583966Y0284000D01*
X0586099Y0284900D02*
X0587299Y0286100D01*
X0586928Y0317500D02*
X0589699Y0314728D01*
X0546862Y0313100D02*
X0577870D01*
X0546199Y0311500D02*
X0577208D01*
X0572201Y0286601D02*
X0572299Y0286699D01*
X0572201Y0286532D02*
Y0286601D01*
X0571069Y0285400D02*
X0572201Y0286532D01*
X0553016Y0277683D02*
Y0291774D01*
Y0277683D02*
X0567699Y0263000D01*
X0553016Y0291774D02*
X0553199Y0291957D01*
X0555199Y0308614D02*
X0558014D01*
X0555199Y0284957D02*
X0558235D01*
X0603471Y0259500D02*
Y0265386D01*
X0604085Y0266000D01*
X0645199Y0306886D02*
Y0306925D01*
Y0302776D02*
Y0306886D01*
X0603668Y0259500D02*
X0606699D01*
X0603471D02*
X0603668D01*
X0667913Y0300214D02*
Y0304786D01*
X0667199Y0305500D02*
X0667913Y0304786D01*
X0666479Y0298780D02*
X0667913Y0300214D01*
X0665038Y0293661D02*
X0665199Y0293500D01*
Y0288900D02*
Y0293500D01*
X0663762Y0293661D02*
X0665038D01*
X0618199Y0250500D02*
X0622451Y0246248D01*
Y0243000D02*
Y0246248D01*
X0632699Y0249000D02*
X0637125D01*
X0640125D02*
X0646125Y0243000D01*
X0637125Y0249000D02*
X0640125D01*
X0637125D02*
X0637173Y0248952D01*
X0533699Y0232500D02*
X0537799Y0228400D01*
X0539699Y0232500D02*
X0540599Y0231600D01*
X0536979Y0232250D02*
X0539229Y0230000D01*
X0536979Y0232250D02*
X0537229Y0232500D01*
X0536699D02*
X0537229D01*
X0569862Y0226400D02*
X0572512Y0223750D01*
X0576162Y0228000D02*
X0580412Y0223750D01*
X0668364Y0288840D02*
Y0294335D01*
X0536124Y0333338D02*
X0537599Y0331863D01*
X0536124Y0333338D02*
Y0334224D01*
X0536124Y0334224D01*
X0541219Y0325242D02*
X0541799Y0324663D01*
X0537599Y0328804D02*
Y0331863D01*
Y0328804D02*
X0541161Y0325242D01*
X0541219D01*
X0541799Y0318163D02*
Y0324663D01*
Y0318163D02*
X0546862Y0313100D01*
X0583124Y0333337D02*
X0584599Y0331863D01*
X0583124Y0333337D02*
Y0334224D01*
X0622862Y0312400D02*
X0631799Y0321337D01*
X0630124Y0333337D02*
Y0334224D01*
Y0333337D02*
X0631799Y0331663D01*
Y0321337D02*
Y0331663D01*
X0576173Y0260866D02*
X0577199Y0259840D01*
X0576066Y0260866D02*
X0576173D01*
X0577097Y0259738D02*
X0577199Y0259840D01*
X0586928Y0317500D02*
X0587231Y0317803D01*
X0586928Y0317500D02*
X0586928Y0317500D01*
Y0321000D01*
X0590471D02*
Y0322772D01*
X0591199Y0323500D01*
X0586813Y0317386D02*
X0586928Y0317500D01*
X0549199Y0291957D02*
X0549699D01*
X0547699Y0304000D02*
X0549699Y0302000D01*
Y0295500D02*
Y0302000D01*
X0549199Y0295500D02*
X0549699D01*
X0564199Y0284500D02*
X0564899Y0283800D01*
X0564049Y0284350D02*
X0564199Y0284500D01*
X0567799Y0285400D02*
X0571069D01*
X0540199Y0317500D02*
X0546199Y0311500D01*
X0540199Y0317500D02*
Y0323941D01*
X0576928Y0318728D02*
Y0325457D01*
X0534199Y0319748D02*
X0536699Y0322248D01*
Y0324300D01*
X0535999Y0328141D02*
X0540199Y0323941D01*
X0535999Y0328141D02*
Y0330629D01*
X0636000Y0327228D02*
X0636699D01*
X0636794Y0327323D01*
X0648209D01*
X0645396Y0306728D02*
X0649199D01*
X0645199Y0302776D02*
X0646636Y0301339D01*
X0649002Y0306925D02*
X0649199Y0306728D01*
X0662699Y0310500D02*
X0665699D01*
X0649199Y0310272D02*
X0651428Y0312500D01*
X0662199Y0310500D02*
X0662699D01*
X0651428Y0312500D02*
X0660199D01*
X0636423Y0331195D02*
Y0334224D01*
X0589424Y0331195D02*
Y0334224D01*
X0542423Y0331195D02*
Y0334224D01*
X0663762Y0298780D02*
X0666479D01*
X0666479Y0296220D02*
X0668364Y0294335D01*
X0664213Y0296220D02*
X0666479D01*
X0570199Y0260635D02*
Y0264000D01*
X0569302Y0259738D02*
X0570199Y0260635D01*
X0643199Y0298780D02*
X0646636D01*
X0641199Y0300780D02*
X0643199Y0298780D01*
X0641199Y0300780D02*
Y0306728D01*
X0631199Y0295000D02*
X0632420Y0296220D01*
X0646636D01*
X0626729Y0293500D02*
X0632009Y0298780D01*
X0643199D01*
X0624199Y0293500D02*
X0626729D01*
X0532975Y0333653D02*
Y0334224D01*
X0531975Y0349776D02*
X0532975D01*
X0529946Y0347746D02*
X0531975Y0349776D01*
X0579975Y0333520D02*
Y0334224D01*
X0589699Y0327000D02*
Y0327228D01*
X0601209Y0327323D01*
X0579975Y0333520D02*
X0582999Y0330496D01*
X0577199Y0325728D02*
X0580699D01*
X0576928Y0325457D02*
X0577199Y0325728D01*
X0529699Y0325728D02*
X0530199D01*
Y0325228D02*
X0530199Y0325228D01*
X0530199Y0325228D02*
Y0325728D01*
X0530199Y0325728D02*
X0533699D01*
X0530199Y0325728D02*
X0530199Y0325728D01*
X0542000Y0327228D02*
X0542699D01*
X0554114D01*
X0532975Y0333653D02*
X0535999Y0330629D01*
X0622199Y0314000D02*
X0630199Y0322000D01*
X0626975Y0333653D02*
Y0334224D01*
X0576946Y0333223D02*
X0580699Y0329470D01*
Y0329272D02*
Y0329470D01*
X0529946Y0333254D02*
Y0347746D01*
Y0333254D02*
X0533813Y0329386D01*
X0576946Y0333223D02*
Y0347746D01*
X0578975Y0349776D01*
X0624199Y0325728D02*
X0627699D01*
X0627699Y0325728D01*
X0622199Y0318500D02*
X0624199Y0320500D01*
Y0325728D01*
X0623946Y0333254D02*
X0627699Y0329500D01*
Y0329272D02*
Y0329500D01*
X0626975Y0333653D02*
X0630199Y0330429D01*
Y0322000D02*
Y0330429D01*
X0623946Y0333254D02*
Y0347746D01*
X0625975Y0349776D01*
X0626975D01*
X0553076Y0295624D02*
X0553199Y0295500D01*
X0544699Y0304000D02*
X0547699D01*
X0553076Y0295624D02*
Y0301124D01*
X0544699Y0306559D02*
X0547640D01*
X0553076Y0301124D01*
X0585965Y0350084D02*
X0586274Y0349776D01*
X0578975D02*
X0579975D01*
X0593142Y0365671D02*
X0593428D01*
Y0360500D02*
Y0365671D01*
X0640142D02*
X0640427D01*
Y0360500D02*
Y0365671D01*
X0546427Y0360500D02*
Y0365671D01*
X0563050Y0228000D02*
X0576162D01*
X0559450Y0231600D02*
X0563050Y0228000D01*
X0539229Y0230000D02*
X0558787D01*
X0562387Y0226400D01*
X0537799Y0228400D02*
X0558124D01*
X0562387Y0226400D02*
X0569862D01*
X0540599Y0231600D02*
X0559450D01*
X0558124Y0228400D02*
X0564525Y0222000D01*
X0566388D01*
X0600699Y0232000D02*
X0603299Y0234600D01*
Y0248956D01*
X0603668Y0259500D02*
X0603668Y0259500D01*
X0597699Y0314000D02*
X0622199D01*
X0593399Y0307437D02*
X0598362Y0312400D01*
X0622862D01*
X0591799Y0308100D02*
X0597699Y0314000D01*
X0565099Y0262000D02*
Y0263337D01*
X0549699Y0278737D02*
Y0291957D01*
Y0278737D02*
X0565099Y0263337D01*
X0567699Y0262000D02*
Y0263000D01*
X0595299Y0256956D02*
X0603299Y0248956D01*
X0593199Y0272000D02*
X0595299Y0269900D01*
Y0256956D02*
Y0269900D01*
X0666199Y0305500D02*
X0667199D01*
X0586099Y0280070D02*
X0587199Y0278970D01*
X0587229Y0279000D01*
X0645199Y0306925D02*
X0645396Y0306728D01*
X0558841Y0284350D02*
X0564049D01*
X0558235Y0284957D02*
X0558841Y0284350D01*
X0577097Y0257769D02*
X0580742D01*
X0581199Y0258226D01*
D41*
X0618050Y0299500D02*
X0620650Y0302100D01*
X0643699Y0339000D02*
Y0340960D01*
X0638924Y0334224D02*
X0643699Y0339000D01*
X0636423Y0334224D02*
X0638924D01*
X0643699Y0340960D02*
X0646597Y0343858D01*
X0654000D01*
X0599597D02*
X0607000D01*
X0596699Y0340960D02*
X0599597Y0343858D01*
X0589424Y0334224D02*
X0591924D01*
X0596699Y0339000D01*
Y0340960D01*
X0552597Y0343858D02*
X0560000D01*
X0549699Y0340960D02*
X0552597Y0343858D01*
X0542423Y0334224D02*
X0544923D01*
X0549699Y0339000D01*
Y0340960D01*
X0593142Y0365671D02*
Y0377000D01*
X0640142Y0365671D02*
Y0377000D01*
X0546142Y0365385D02*
Y0377000D01*
X0536622Y0357372D02*
X0538128D01*
X0546142Y0365385D01*
X0585128Y0357372D02*
X0593142Y0365385D01*
X0583622Y0357372D02*
X0585128D01*
X0632128D02*
X0640142Y0365385D01*
X0630621Y0357372D02*
X0632128D01*
D42*
X0631000Y0342000D02*
X0633274Y0339726D01*
X0538455Y0349000D02*
Y0354000D01*
X0585455Y0349000D02*
Y0354000D01*
X0632455Y0349000D02*
Y0354000D01*
X0625199Y0217000D02*
X0630199Y0222000D01*
X0619451Y0217000D02*
X0625199D01*
X0614451Y0222000D02*
X0619451Y0217000D01*
X0636699Y0380000D02*
X0637699Y0381000D01*
X0589699Y0380000D02*
X0590699Y0381000D01*
X0596654D01*
X0543699D02*
X0550699D01*
X0633274Y0334224D02*
Y0339726D01*
X0539274Y0334224D02*
Y0340425D01*
X0537699Y0342000D02*
X0539274Y0340425D01*
X0586274Y0334224D02*
Y0340425D01*
X0584699Y0342000D02*
X0586274Y0340425D01*
X0589699Y0365552D02*
Y0380000D01*
X0535227Y0349000D02*
X0535699D01*
X0538455D02*
X0538949D01*
X0542699Y0380000D02*
X0543699Y0381000D01*
X0637699D02*
X0645653D01*
X0585455Y0349000D02*
X0585949D01*
X0582227D02*
X0582699D01*
X0632455D02*
X0632949D01*
X0629227D02*
X0629699D01*
X0636699Y0365552D02*
Y0380000D01*
X0535227Y0356331D02*
X0536268Y0357372D01*
X0542699Y0365552D02*
Y0380000D01*
X0536268Y0357372D02*
X0536622D01*
X0535648Y0359722D02*
X0536869D01*
X0542699Y0365552D01*
X0532975Y0357048D02*
X0535648Y0359722D01*
X0579975Y0357048D02*
X0582648Y0359722D01*
X0583869D02*
X0589699Y0365552D01*
X0582648Y0359722D02*
X0583869D01*
X0583268Y0357372D02*
X0583622D01*
X0582227Y0356331D02*
X0583268Y0357372D01*
X0626975Y0357048D02*
X0629648Y0359722D01*
X0630869D02*
X0636699Y0365552D01*
X0629648Y0359722D02*
X0630869D01*
X0630268Y0357372D02*
X0630621D01*
X0629227Y0356331D02*
X0630268Y0357372D01*
X0579975Y0349776D02*
Y0357048D01*
X0629227Y0349000D02*
Y0356331D01*
X0582227Y0349000D02*
Y0356331D01*
X0535227Y0349000D02*
Y0356331D01*
X0532975Y0349776D02*
Y0357048D01*
X0626975Y0349776D02*
Y0357048D01*
D43*
X0582000Y0342000D02*
X0583575Y0340425D01*
X0533000Y0342000D02*
X0534575Y0340425D01*
X0573199Y0253832D02*
Y0255801D01*
X0569302Y0253832D02*
X0573199D01*
D44*
X0655000Y0317284D02*
X0663661D01*
X0646339D02*
X0655000D01*
X0608000D02*
X0616661D01*
X0599339D02*
X0608000D01*
X0561000D02*
X0569661D01*
X0552339D02*
X0561000D01*
D45*
X0579199Y0404000D02*
D03*
X0626199D02*
D03*
X0660699Y0221000D02*
D03*
X0538199D02*
D03*
D46*
X0530499Y0359000D02*
D03*
Y0388528D02*
D03*
D47*
X0661821Y0243000D02*
D03*
X0646125D02*
D03*
X0638225D02*
D03*
X0630325D02*
D03*
X0622451D02*
D03*
X0614577D02*
D03*
X0653947D02*
D03*
X0597936Y0222000D02*
D03*
X0590062D02*
D03*
X0582162D02*
D03*
X0574262D02*
D03*
X0566388D02*
D03*
X0558514D02*
D03*
X0638099D02*
D03*
X0630199D02*
D03*
X0622325D02*
D03*
X0614451D02*
D03*
D48*
X0542239Y0271970D02*
D03*
D49*
X0554199Y0403000D02*
D03*
Y0406000D02*
D03*
X0601199Y0403000D02*
D03*
Y0406000D02*
D03*
X0648199Y0403000D02*
D03*
Y0406000D02*
D03*
X0636199D02*
D03*
Y0403000D02*
D03*
X0589199Y0406000D02*
D03*
Y0403000D02*
D03*
X0542199D02*
D03*
Y0406000D02*
D03*
X0590199Y0279000D02*
D03*
X0587199D02*
D03*
X0584199D02*
D03*
X0584592Y0288200D02*
D03*
X0583699Y0284000D02*
D03*
X0579199D02*
D03*
X0589699Y0287500D02*
D03*
X0592199Y0314500D02*
D03*
X0588199Y0284000D02*
D03*
X0570165Y0287534D02*
D03*
X0571699Y0309000D02*
D03*
X0569199D02*
D03*
X0566699D02*
D03*
X0555199Y0288500D02*
D03*
Y0299500D02*
D03*
Y0302000D02*
D03*
Y0304500D02*
D03*
X0586813Y0314500D02*
D03*
X0539813D02*
D03*
X0612199Y0233614D02*
D03*
Y0230386D02*
D03*
X0557664Y0292500D02*
D03*
X0575699Y0300614D02*
D03*
X0604199Y0283689D02*
D03*
Y0280461D02*
D03*
X0607313Y0266000D02*
D03*
X0604085D02*
D03*
X0607813Y0254000D02*
D03*
X0604585D02*
D03*
X0593199Y0279000D02*
D03*
X0665199Y0288900D02*
D03*
X0648199Y0228000D02*
D03*
X0542199Y0234500D02*
D03*
X0544699D02*
D03*
X0547199D02*
D03*
X0632699Y0249000D02*
D03*
X0618199Y0250500D02*
D03*
X0539699Y0232500D02*
D03*
X0536699D02*
D03*
X0533699D02*
D03*
X0654199Y0249500D02*
D03*
X0606199Y0216000D02*
D03*
X0597699Y0238000D02*
D03*
X0600699Y0241000D02*
D03*
X0597699D02*
D03*
X0600699Y0244000D02*
D03*
X0597699D02*
D03*
X0610699Y0259500D02*
D03*
X0667199Y0260000D02*
D03*
X0664199D02*
D03*
X0661199D02*
D03*
X0658199D02*
D03*
X0648199Y0275500D02*
D03*
Y0278500D02*
D03*
Y0281500D02*
D03*
Y0284500D02*
D03*
Y0287500D02*
D03*
X0645199Y0278500D02*
D03*
Y0275500D02*
D03*
Y0281500D02*
D03*
X0630199Y0260500D02*
D03*
Y0263500D02*
D03*
Y0266500D02*
D03*
Y0269500D02*
D03*
Y0272500D02*
D03*
X0642199Y0275500D02*
D03*
X0667199Y0280000D02*
D03*
X0656699D02*
D03*
X0659699D02*
D03*
X0662699D02*
D03*
Y0283000D02*
D03*
Y0286000D02*
D03*
X0659699D02*
D03*
Y0283000D02*
D03*
X0656699Y0286000D02*
D03*
Y0283000D02*
D03*
X0653699D02*
D03*
Y0286000D02*
D03*
X0668364Y0288840D02*
D03*
X0597699Y0250000D02*
D03*
X0594699D02*
D03*
X0597699Y0247000D02*
D03*
X0600699D02*
D03*
X0593199Y0233500D02*
D03*
X0537199Y0248500D02*
D03*
X0576066Y0260866D02*
D03*
X0583699Y0263500D02*
D03*
X0591699Y0317500D02*
D03*
X0586699Y0324000D02*
D03*
X0547199Y0290000D02*
D03*
Y0287000D02*
D03*
X0564199Y0284500D02*
D03*
X0530699Y0329500D02*
D03*
X0531199Y0248228D02*
D03*
Y0256728D02*
D03*
Y0239728D02*
D03*
X0532699Y0283000D02*
D03*
X0529699D02*
D03*
X0607699Y0308500D02*
D03*
X0604699D02*
D03*
X0622199Y0306500D02*
D03*
X0545199Y0318500D02*
D03*
X0545286Y0308913D02*
D03*
X0547786Y0308913D02*
D03*
X0534199Y0307000D02*
D03*
X0576928Y0318728D02*
D03*
X0536699Y0324300D02*
D03*
X0642199Y0281500D02*
D03*
Y0287500D02*
D03*
Y0284500D02*
D03*
X0593199Y0263500D02*
D03*
X0622199Y0318500D02*
D03*
X0650199Y0334000D02*
D03*
X0655199Y0331500D02*
D03*
Y0329000D02*
D03*
X0650199Y0326500D02*
D03*
X0657699D02*
D03*
Y0329000D02*
D03*
X0655199Y0326500D02*
D03*
Y0324000D02*
D03*
X0657699D02*
D03*
X0660199D02*
D03*
Y0326500D02*
D03*
Y0329000D02*
D03*
Y0321500D02*
D03*
X0657699D02*
D03*
X0655199D02*
D03*
X0652699D02*
D03*
Y0324000D02*
D03*
Y0326500D02*
D03*
Y0329000D02*
D03*
X0650199Y0324000D02*
D03*
Y0321500D02*
D03*
Y0329000D02*
D03*
Y0331500D02*
D03*
X0652699D02*
D03*
X0657699D02*
D03*
X0660199D02*
D03*
Y0334000D02*
D03*
X0657699D02*
D03*
X0655199D02*
D03*
X0652699D02*
D03*
X0660199Y0336500D02*
D03*
X0657699D02*
D03*
X0655199D02*
D03*
X0652699D02*
D03*
X0650199D02*
D03*
X0603199D02*
D03*
X0605699D02*
D03*
X0608199D02*
D03*
X0610699D02*
D03*
X0613199D02*
D03*
X0605699Y0334000D02*
D03*
X0608199D02*
D03*
X0610699D02*
D03*
X0613199D02*
D03*
Y0331500D02*
D03*
X0610699D02*
D03*
X0605699D02*
D03*
X0603199D02*
D03*
Y0329000D02*
D03*
Y0321500D02*
D03*
Y0324000D02*
D03*
X0605699Y0329000D02*
D03*
Y0326500D02*
D03*
Y0324000D02*
D03*
Y0321500D02*
D03*
X0608199D02*
D03*
X0610699D02*
D03*
X0613199D02*
D03*
Y0329000D02*
D03*
Y0326500D02*
D03*
Y0324000D02*
D03*
X0610699D02*
D03*
X0608199D02*
D03*
Y0326500D02*
D03*
X0610699Y0329000D02*
D03*
Y0326500D02*
D03*
X0603199D02*
D03*
X0608199Y0329000D02*
D03*
Y0331500D02*
D03*
X0603199Y0334000D02*
D03*
X0556199Y0336500D02*
D03*
X0558699D02*
D03*
X0561199D02*
D03*
X0563699D02*
D03*
X0566199D02*
D03*
X0558699Y0334000D02*
D03*
X0561199D02*
D03*
X0563699D02*
D03*
X0566199D02*
D03*
Y0331500D02*
D03*
X0563699D02*
D03*
X0558699D02*
D03*
X0556199D02*
D03*
Y0329000D02*
D03*
Y0321500D02*
D03*
Y0324000D02*
D03*
X0558699Y0329000D02*
D03*
Y0326500D02*
D03*
Y0324000D02*
D03*
Y0321500D02*
D03*
X0561199D02*
D03*
X0563699D02*
D03*
X0566199D02*
D03*
Y0329000D02*
D03*
Y0326500D02*
D03*
Y0324000D02*
D03*
X0563699D02*
D03*
X0561199D02*
D03*
Y0326500D02*
D03*
X0563699Y0329000D02*
D03*
Y0326500D02*
D03*
X0556199D02*
D03*
X0561199Y0329000D02*
D03*
Y0331500D02*
D03*
X0556199Y0334000D02*
D03*
X0668699Y0390500D02*
D03*
Y0388000D02*
D03*
X0666199Y0390500D02*
D03*
Y0388000D02*
D03*
X0668699Y0385500D02*
D03*
X0663699Y0388000D02*
D03*
X0666199Y0385500D02*
D03*
X0663699Y0390500D02*
D03*
Y0385500D02*
D03*
X0632699Y0390500D02*
D03*
Y0388000D02*
D03*
X0663699Y0383000D02*
D03*
X0632699Y0385500D02*
D03*
X0668699Y0383000D02*
D03*
Y0380500D02*
D03*
X0666199Y0383000D02*
D03*
Y0380500D02*
D03*
X0668699Y0378000D02*
D03*
Y0375500D02*
D03*
X0666199Y0378000D02*
D03*
Y0375500D02*
D03*
X0663699Y0380500D02*
D03*
X0632699Y0383000D02*
D03*
Y0380500D02*
D03*
X0663699Y0378000D02*
D03*
Y0375500D02*
D03*
X0632699Y0378000D02*
D03*
X0630199Y0390500D02*
D03*
Y0388000D02*
D03*
X0627699Y0390500D02*
D03*
Y0388000D02*
D03*
X0630199Y0385500D02*
D03*
Y0383000D02*
D03*
X0627699Y0385500D02*
D03*
Y0383000D02*
D03*
X0625199Y0390500D02*
D03*
Y0388000D02*
D03*
X0620199Y0390500D02*
D03*
X0622699D02*
D03*
Y0388000D02*
D03*
X0625199Y0385500D02*
D03*
X0620199D02*
D03*
X0622699D02*
D03*
X0627699Y0380500D02*
D03*
X0630199D02*
D03*
X0625199Y0383000D02*
D03*
Y0380500D02*
D03*
X0627699Y0378000D02*
D03*
X0630199D02*
D03*
X0625199D02*
D03*
Y0375500D02*
D03*
X0622699Y0383000D02*
D03*
Y0380500D02*
D03*
X0620199Y0383000D02*
D03*
Y0380500D02*
D03*
X0622699Y0378000D02*
D03*
Y0375500D02*
D03*
X0620199Y0378000D02*
D03*
X0668699Y0310500D02*
D03*
X0665699D02*
D03*
Y0301500D02*
D03*
X0632699Y0375500D02*
D03*
X0630199D02*
D03*
Y0373000D02*
D03*
X0632699D02*
D03*
X0627699Y0375500D02*
D03*
Y0373000D02*
D03*
X0620199Y0375500D02*
D03*
X0625199Y0373000D02*
D03*
X0622699D02*
D03*
X0662699Y0310500D02*
D03*
Y0307500D02*
D03*
Y0304500D02*
D03*
Y0301500D02*
D03*
X0617699Y0390500D02*
D03*
X0620199Y0388000D02*
D03*
X0585699Y0390500D02*
D03*
X0617699Y0388000D02*
D03*
X0585699D02*
D03*
Y0385500D02*
D03*
X0580699Y0390500D02*
D03*
X0583199D02*
D03*
X0575699D02*
D03*
X0578199D02*
D03*
X0580699Y0388000D02*
D03*
X0583199D02*
D03*
X0575699D02*
D03*
X0578199D02*
D03*
X0617699Y0385500D02*
D03*
Y0383000D02*
D03*
X0580699Y0385500D02*
D03*
X0583199D02*
D03*
X0585699Y0383000D02*
D03*
X0617699Y0380500D02*
D03*
X0583199Y0383000D02*
D03*
Y0380500D02*
D03*
X0578199Y0383000D02*
D03*
X0580699D02*
D03*
X0575699Y0385500D02*
D03*
X0578199D02*
D03*
X0575699Y0380500D02*
D03*
X0578199D02*
D03*
X0575699Y0383000D02*
D03*
X0570699Y0390500D02*
D03*
X0573199D02*
D03*
X0536699D02*
D03*
X0539199D02*
D03*
X0573199Y0388000D02*
D03*
X0539199D02*
D03*
X0570699D02*
D03*
X0534199Y0390500D02*
D03*
X0536699Y0388000D02*
D03*
X0534199D02*
D03*
X0570699Y0385500D02*
D03*
X0573199D02*
D03*
X0539199D02*
D03*
X0570699Y0383000D02*
D03*
X0573199D02*
D03*
X0570699Y0380500D02*
D03*
X0539199Y0383000D02*
D03*
Y0380500D02*
D03*
X0536699Y0385500D02*
D03*
Y0383000D02*
D03*
X0534199Y0385500D02*
D03*
X0531699Y0383000D02*
D03*
X0534199D02*
D03*
X0531699Y0380500D02*
D03*
X0617699Y0375500D02*
D03*
Y0378000D02*
D03*
X0585699Y0380500D02*
D03*
Y0378000D02*
D03*
X0580699D02*
D03*
X0583199D02*
D03*
X0573199Y0380500D02*
D03*
X0580699D02*
D03*
X0573199Y0378000D02*
D03*
X0570699D02*
D03*
X0534199Y0380500D02*
D03*
X0536699D02*
D03*
X0531699Y0378000D02*
D03*
X0534199D02*
D03*
X0575699D02*
D03*
X0578199D02*
D03*
X0570699Y0375500D02*
D03*
X0573199D02*
D03*
X0539199Y0378000D02*
D03*
Y0375500D02*
D03*
X0536699Y0378000D02*
D03*
Y0375500D02*
D03*
X0534199D02*
D03*
X0531699D02*
D03*
X0605428Y0296000D02*
D03*
X0639199Y0272500D02*
D03*
X0636199D02*
D03*
X0639199Y0269500D02*
D03*
Y0266500D02*
D03*
Y0260500D02*
D03*
Y0263500D02*
D03*
X0636199Y0266500D02*
D03*
Y0269500D02*
D03*
Y0260500D02*
D03*
Y0263642D02*
D03*
X0633199Y0272500D02*
D03*
Y0269500D02*
D03*
Y0266500D02*
D03*
Y0260500D02*
D03*
Y0263500D02*
D03*
X0659699Y0347500D02*
D03*
X0657199D02*
D03*
X0652199D02*
D03*
X0654699D02*
D03*
X0659699Y0342500D02*
D03*
X0649699Y0347500D02*
D03*
X0659699Y0345000D02*
D03*
X0634199D02*
D03*
Y0342500D02*
D03*
X0645199Y0293500D02*
D03*
X0642199D02*
D03*
X0636199D02*
D03*
X0639199D02*
D03*
X0626699Y0365000D02*
D03*
Y0367500D02*
D03*
X0624199D02*
D03*
Y0365000D02*
D03*
X0612699Y0347500D02*
D03*
X0631699Y0345000D02*
D03*
X0607699Y0347500D02*
D03*
X0610199D02*
D03*
X0605199D02*
D03*
X0602699D02*
D03*
X0631699Y0342500D02*
D03*
X0629199Y0345000D02*
D03*
X0612699Y0342500D02*
D03*
X0629199D02*
D03*
X0612699Y0345000D02*
D03*
X0642199Y0290500D02*
D03*
X0645199D02*
D03*
X0639199Y0287500D02*
D03*
Y0290500D02*
D03*
Y0284500D02*
D03*
X0636199Y0290500D02*
D03*
Y0287500D02*
D03*
X0633199Y0290500D02*
D03*
Y0287500D02*
D03*
X0645199Y0284500D02*
D03*
X0633199D02*
D03*
X0639199Y0281500D02*
D03*
X0636199Y0284500D02*
D03*
X0639199Y0278500D02*
D03*
X0633199Y0281500D02*
D03*
X0636199D02*
D03*
Y0278500D02*
D03*
Y0275500D02*
D03*
X0645199Y0287500D02*
D03*
X0633199Y0278500D02*
D03*
X0639199Y0275500D02*
D03*
X0642199Y0278500D02*
D03*
X0633199Y0275500D02*
D03*
X0579699Y0365000D02*
D03*
Y0367500D02*
D03*
Y0372500D02*
D03*
Y0370000D02*
D03*
X0587199Y0345000D02*
D03*
X0584699D02*
D03*
Y0342500D02*
D03*
X0582199Y0345000D02*
D03*
X0577199Y0370000D02*
D03*
Y0372500D02*
D03*
Y0367500D02*
D03*
Y0365000D02*
D03*
X0587199Y0342500D02*
D03*
X0582199D02*
D03*
X0565699D02*
D03*
X0560699Y0347500D02*
D03*
X0563199D02*
D03*
X0565699D02*
D03*
X0558199D02*
D03*
X0565699Y0345000D02*
D03*
X0555699Y0347500D02*
D03*
X0540199Y0345000D02*
D03*
X0537699D02*
D03*
X0535199D02*
D03*
X0540199Y0342500D02*
D03*
X0537699D02*
D03*
X0535199D02*
D03*
X0584199Y0233500D02*
D03*
X0534199Y0299000D02*
D03*
Y0288200D02*
D03*
X0637199Y0306500D02*
D03*
X0634199D02*
D03*
X0631199D02*
D03*
X0628199D02*
D03*
X0625199D02*
D03*
X0637199Y0303500D02*
D03*
X0631199D02*
D03*
X0634199D02*
D03*
X0628199D02*
D03*
X0625199D02*
D03*
X0622199D02*
D03*
X0625199Y0297500D02*
D03*
X0622199Y0300500D02*
D03*
Y0297500D02*
D03*
X0619199Y0306500D02*
D03*
X0616199D02*
D03*
X0619199Y0303500D02*
D03*
Y0300500D02*
D03*
Y0297500D02*
D03*
X0616199Y0303500D02*
D03*
Y0300500D02*
D03*
X0613199Y0303500D02*
D03*
Y0297500D02*
D03*
Y0300500D02*
D03*
X0624199Y0293500D02*
D03*
X0610699Y0308500D02*
D03*
Y0254000D02*
D03*
X0631199Y0295000D02*
D03*
X0596699Y0298500D02*
D03*
Y0301500D02*
D03*
Y0304500D02*
D03*
X0586699Y0330500D02*
D03*
X0585199Y0297500D02*
D03*
Y0300500D02*
D03*
X0530199Y0325728D02*
D03*
X0539699Y0330500D02*
D03*
X0577699Y0329500D02*
D03*
X0624699D02*
D03*
X0624199Y0362500D02*
D03*
X0626699D02*
D03*
X0624199Y0360000D02*
D03*
Y0357500D02*
D03*
X0621699Y0362500D02*
D03*
Y0360000D02*
D03*
Y0357500D02*
D03*
X0577199Y0362500D02*
D03*
X0579699D02*
D03*
X0574699D02*
D03*
Y0360000D02*
D03*
X0577199D02*
D03*
X0635699Y0349000D02*
D03*
Y0351500D02*
D03*
X0638199Y0349000D02*
D03*
X0541699D02*
D03*
X0588699D02*
D03*
Y0351500D02*
D03*
X0541699D02*
D03*
X0591199Y0349000D02*
D03*
X0582199Y0362500D02*
D03*
X0544199Y0349000D02*
D03*
X0593955Y0354000D02*
D03*
X0546955D02*
D03*
X0640955D02*
D03*
X0629199Y0362500D02*
D03*
X0591199Y0323500D02*
D03*
X0562699Y0232000D02*
D03*
Y0234500D02*
D03*
X0570199Y0242000D02*
D03*
X0573199D02*
D03*
X0572199Y0230500D02*
D03*
X0575199D02*
D03*
X0578199D02*
D03*
X0581199D02*
D03*
Y0233500D02*
D03*
X0578199D02*
D03*
X0575199D02*
D03*
Y0236500D02*
D03*
X0594699Y0247000D02*
D03*
X0584199Y0236500D02*
D03*
Y0239500D02*
D03*
Y0242500D02*
D03*
X0587199D02*
D03*
Y0239500D02*
D03*
Y0236500D02*
D03*
Y0233500D02*
D03*
X0590199D02*
D03*
Y0236500D02*
D03*
Y0239500D02*
D03*
Y0242500D02*
D03*
X0604199Y0290272D02*
D03*
X0621199Y0285500D02*
D03*
X0624199D02*
D03*
X0627199Y0266500D02*
D03*
Y0263500D02*
D03*
X0642199Y0260500D02*
D03*
X0624199Y0275500D02*
D03*
X0621199D02*
D03*
X0618199D02*
D03*
X0613140Y0288347D02*
D03*
X0609546Y0283559D02*
D03*
X0624199Y0266500D02*
D03*
X0569199Y0230500D02*
D03*
X0603699Y0224500D02*
D03*
X0600699Y0238000D02*
D03*
Y0232000D02*
D03*
X0654443Y0309500D02*
D03*
X0556199Y0245000D02*
D03*
X0553199D02*
D03*
X0550199D02*
D03*
X0547199D02*
D03*
X0544199D02*
D03*
Y0242000D02*
D03*
X0547199D02*
D03*
X0550199D02*
D03*
Y0239000D02*
D03*
X0547199D02*
D03*
X0544199D02*
D03*
X0567699Y0262000D02*
D03*
X0565099D02*
D03*
X0560199Y0247500D02*
D03*
X0593199Y0272000D02*
D03*
X0657168Y0295532D02*
D03*
X0653231D02*
D03*
X0657168Y0299468D02*
D03*
X0653231D02*
D03*
M02*
