G04 Layer_Color=16711935*
%FSAX25Y25*%
%MOIN*%
G70*
G01*
G75*
%ADD45C,0.12205*%
%ADD48C,0.07087*%
%ADD84R,0.02569X0.02647*%
%ADD85R,0.02765X0.02372*%
%ADD86R,0.02647X0.02569*%
%ADD88R,0.02372X0.02765*%
%ADD92R,0.03356X0.05718*%
%ADD104R,0.10836X0.04340*%
%ADD105R,0.10443X0.04340*%
%ADD115C,0.06900*%
%ADD116C,0.01200*%
%ADD117R,0.03800X0.04200*%
%ADD118R,0.22647X0.10206*%
%ADD119R,0.04104X0.10206*%
%ADD120R,0.09655X0.09655*%
%ADD121R,0.02569X0.02372*%
%ADD122R,0.03750X0.06112*%
%ADD123R,0.21466X0.06112*%
%ADD124R,0.02805X0.05301*%
%ADD125R,0.07293X0.04340*%
%ADD126R,0.03947X0.02372*%
%ADD127R,0.02372X0.03947*%
%ADD128R,0.08277X0.04931*%
%ADD129R,0.04537X0.04931*%
%ADD130O,0.02372X0.06112*%
%ADD131R,0.04567X0.02402*%
%ADD132R,0.06900X0.06100*%
%ADD133O,0.01584X0.06702*%
%ADD134O,0.06702X0.01584*%
%ADD135R,0.04931X0.05403*%
%ADD136R,0.04143X0.02569*%
%ADD137R,0.04537X0.06899*%
%ADD138R,0.02372X0.01781*%
%ADD139R,0.16600X0.13100*%
%ADD140O,0.04931X0.08080*%
G36*
X0577199Y0375301D02*
X0592199Y0375301D01*
X0592200Y0375301D01*
X0592692Y0375301D01*
X0592697Y0375300D01*
X0592703Y0375301D01*
X0592721Y0375299D01*
X0592739Y0375297D01*
X0592744Y0375296D01*
X0592750Y0375295D01*
X0593716Y0375103D01*
X0593722Y0375101D01*
X0593728Y0375100D01*
X0593745Y0375095D01*
X0593762Y0375090D01*
X0593767Y0375088D01*
X0593773Y0375086D01*
X0594683Y0374709D01*
X0594688Y0374706D01*
X0594694Y0374704D01*
X0594709Y0374696D01*
X0594725Y0374688D01*
X0594730Y0374684D01*
X0594735Y0374681D01*
X0595554Y0374134D01*
X0595558Y0374130D01*
X0595563Y0374127D01*
X0595577Y0374116D01*
X0595591Y0374105D01*
X0595595Y0374100D01*
X0595599Y0374096D01*
X0596296Y0373400D01*
X0596300Y0373396D01*
X0596304Y0373392D01*
X0596315Y0373378D01*
X0596326Y0373364D01*
X0596329Y0373359D01*
X0596333Y0373355D01*
X0596880Y0372536D01*
X0596883Y0372531D01*
X0596887Y0372526D01*
X0596895Y0372510D01*
X0596903Y0372494D01*
X0596905Y0372489D01*
X0596908Y0372484D01*
X0597285Y0371574D01*
X0597287Y0371568D01*
X0597289Y0371563D01*
X0597294Y0371545D01*
X0597300Y0371529D01*
X0597300Y0371523D01*
X0597302Y0371517D01*
X0597494Y0370551D01*
X0597495Y0370545D01*
X0597496Y0370540D01*
X0597498Y0370522D01*
X0597500Y0370504D01*
X0597500Y0370498D01*
X0597500Y0370493D01*
X0597500Y0370000D01*
X0597500Y0356000D01*
X0597496Y0355953D01*
X0597485Y0355907D01*
X0597467Y0355863D01*
X0597443Y0355823D01*
X0597412Y0355787D01*
X0595412Y0353787D01*
X0595376Y0353757D01*
X0595336Y0353732D01*
X0595292Y0353714D01*
X0595246Y0353703D01*
X0595199Y0353699D01*
X0574199D01*
X0574152Y0353703D01*
X0574106Y0353714D01*
X0574062Y0353732D01*
X0574022Y0353757D01*
X0573986Y0353787D01*
X0571986Y0355787D01*
X0571956Y0355823D01*
X0571931Y0355863D01*
X0571913Y0355907D01*
X0571902Y0355953D01*
X0571898Y0356000D01*
X0571898Y0370000D01*
D01*
X0571898Y0370492D01*
X0571899Y0370498D01*
X0571898Y0370504D01*
X0571901Y0370522D01*
X0571902Y0370539D01*
X0571903Y0370545D01*
X0571904Y0370551D01*
X0572096Y0371517D01*
X0572098Y0371523D01*
X0572099Y0371529D01*
X0572104Y0371546D01*
X0572109Y0371563D01*
X0572111Y0371568D01*
X0572113Y0371574D01*
X0572490Y0372484D01*
X0572493Y0372489D01*
X0572495Y0372494D01*
X0572504Y0372510D01*
X0572511Y0372526D01*
X0572515Y0372531D01*
X0572518Y0372536D01*
X0573065Y0373355D01*
X0573069Y0373359D01*
X0573072Y0373364D01*
X0573083Y0373378D01*
X0573094Y0373392D01*
X0573099Y0373396D01*
X0573103Y0373400D01*
X0573799Y0374097D01*
X0573803Y0374100D01*
X0573807Y0374105D01*
X0573821Y0374116D01*
X0573835Y0374127D01*
X0573840Y0374130D01*
X0573844Y0374134D01*
X0574663Y0374681D01*
X0574669Y0374684D01*
X0574673Y0374688D01*
X0574689Y0374696D01*
X0574705Y0374704D01*
X0574710Y0374706D01*
X0574716Y0374709D01*
X0575626Y0375086D01*
X0575631Y0375088D01*
X0575636Y0375090D01*
X0575654Y0375095D01*
X0575670Y0375100D01*
X0575676Y0375101D01*
X0575682Y0375103D01*
X0576648Y0375295D01*
X0576654Y0375296D01*
X0576660Y0375297D01*
X0576677Y0375299D01*
X0576695Y0375301D01*
X0576701Y0375301D01*
X0576707Y0375301D01*
X0577199Y0375301D01*
D02*
G37*
G36*
X0624199Y0391801D02*
X0639199Y0391801D01*
X0639200Y0391801D01*
X0639692Y0391801D01*
X0639698Y0391800D01*
X0639703Y0391801D01*
X0639721Y0391798D01*
X0639739Y0391797D01*
X0639744Y0391796D01*
X0639750Y0391795D01*
X0640716Y0391603D01*
X0640722Y0391601D01*
X0640728Y0391600D01*
X0640745Y0391595D01*
X0640762Y0391590D01*
X0640767Y0391588D01*
X0640773Y0391586D01*
X0641683Y0391209D01*
X0641688Y0391206D01*
X0641693Y0391204D01*
X0641709Y0391196D01*
X0641725Y0391188D01*
X0641730Y0391184D01*
X0641735Y0391181D01*
X0642554Y0390634D01*
X0642558Y0390630D01*
X0642563Y0390627D01*
X0642577Y0390616D01*
X0642591Y0390605D01*
X0642595Y0390600D01*
X0642599Y0390597D01*
X0643296Y0389900D01*
X0643299Y0389896D01*
X0643304Y0389892D01*
X0643315Y0389878D01*
X0643326Y0389864D01*
X0643329Y0389859D01*
X0643333Y0389855D01*
X0643880Y0389036D01*
X0643883Y0389031D01*
X0643887Y0389026D01*
X0643895Y0389010D01*
X0643903Y0388994D01*
X0643905Y0388989D01*
X0643908Y0388983D01*
X0644285Y0388074D01*
X0644287Y0388068D01*
X0644289Y0388063D01*
X0644294Y0388045D01*
X0644300Y0388029D01*
X0644301Y0388023D01*
X0644302Y0388017D01*
X0644494Y0387051D01*
X0644495Y0387045D01*
X0644496Y0387039D01*
X0644498Y0387022D01*
X0644500Y0387004D01*
X0644500Y0386998D01*
X0644500Y0386992D01*
X0644500Y0386500D01*
X0644500Y0372500D01*
X0644496Y0372453D01*
X0644485Y0372407D01*
X0644467Y0372363D01*
X0644443Y0372323D01*
X0644412Y0372287D01*
X0642412Y0370287D01*
X0642376Y0370256D01*
X0642336Y0370232D01*
X0642292Y0370214D01*
X0642246Y0370203D01*
X0642199Y0370199D01*
X0621199D01*
X0621152Y0370203D01*
X0621106Y0370214D01*
X0621063Y0370232D01*
X0621022Y0370256D01*
X0620986Y0370287D01*
X0618986Y0372287D01*
X0618956Y0372323D01*
X0618931Y0372363D01*
X0618913Y0372407D01*
X0618902Y0372453D01*
X0618898Y0372500D01*
X0618898Y0386500D01*
D01*
X0618898Y0386992D01*
X0618899Y0386998D01*
X0618898Y0387004D01*
X0618900Y0387022D01*
X0618902Y0387039D01*
X0618903Y0387045D01*
X0618904Y0387051D01*
X0619096Y0388017D01*
X0619098Y0388023D01*
X0619099Y0388029D01*
X0619104Y0388046D01*
X0619109Y0388063D01*
X0619111Y0388068D01*
X0619113Y0388074D01*
X0619490Y0388984D01*
X0619493Y0388989D01*
X0619495Y0388994D01*
X0619503Y0389010D01*
X0619512Y0389026D01*
X0619515Y0389030D01*
X0619518Y0389036D01*
X0620065Y0389855D01*
X0620069Y0389859D01*
X0620072Y0389864D01*
X0620083Y0389878D01*
X0620094Y0389892D01*
X0620099Y0389896D01*
X0620103Y0389900D01*
X0620799Y0390597D01*
X0620803Y0390600D01*
X0620807Y0390605D01*
X0620821Y0390616D01*
X0620835Y0390627D01*
X0620840Y0390630D01*
X0620845Y0390634D01*
X0621664Y0391181D01*
X0621669Y0391184D01*
X0621673Y0391188D01*
X0621689Y0391196D01*
X0621705Y0391204D01*
X0621710Y0391206D01*
X0621715Y0391209D01*
X0622625Y0391586D01*
X0622631Y0391588D01*
X0622637Y0391590D01*
X0622654Y0391595D01*
X0622670Y0391600D01*
X0622676Y0391601D01*
X0622682Y0391603D01*
X0623648Y0391795D01*
X0623654Y0391796D01*
X0623660Y0391797D01*
X0623677Y0391799D01*
X0623695Y0391801D01*
X0623701Y0391800D01*
X0623707Y0391801D01*
X0624199Y0391801D01*
D02*
G37*
D45*
X0579199Y0404000D02*
D03*
X0626199D02*
D03*
X0660699Y0221000D02*
D03*
X0538199D02*
D03*
D48*
X0542239Y0271970D02*
D03*
D84*
X0628085Y0296974D02*
D03*
X0631313D02*
D03*
X0607313Y0266000D02*
D03*
X0604085D02*
D03*
X0604585Y0254000D02*
D03*
X0607813D02*
D03*
X0559585Y0240500D02*
D03*
X0562813D02*
D03*
X0554435Y0292500D02*
D03*
X0557664D02*
D03*
X0539813Y0314500D02*
D03*
X0536585D02*
D03*
X0564585Y0244000D02*
D03*
X0567813D02*
D03*
X0607813Y0257500D02*
D03*
X0604585D02*
D03*
X0586813Y0314500D02*
D03*
X0583585D02*
D03*
X0630585D02*
D03*
X0633813D02*
D03*
X0558585Y0227500D02*
D03*
X0561813D02*
D03*
D85*
X0590199Y0213728D02*
D03*
Y0217272D02*
D03*
X0550199Y0280772D02*
D03*
Y0277228D02*
D03*
X0531199Y0248228D02*
D03*
Y0251772D02*
D03*
X0638199D02*
D03*
Y0248228D02*
D03*
X0646199D02*
D03*
Y0251772D02*
D03*
X0631199Y0293746D02*
D03*
Y0290203D02*
D03*
Y0300203D02*
D03*
Y0303746D02*
D03*
X0627199Y0294043D02*
D03*
Y0290500D02*
D03*
X0604199Y0290272D02*
D03*
Y0286728D02*
D03*
X0531199Y0243272D02*
D03*
Y0239728D02*
D03*
X0582199Y0217272D02*
D03*
Y0213728D02*
D03*
X0574199D02*
D03*
Y0217272D02*
D03*
X0566199D02*
D03*
Y0213728D02*
D03*
D86*
X0570199Y0227386D02*
D03*
Y0230614D02*
D03*
X0585699Y0297461D02*
D03*
Y0300689D02*
D03*
X0575699Y0297386D02*
D03*
Y0300614D02*
D03*
X0627699Y0300360D02*
D03*
Y0303589D02*
D03*
X0612199Y0233614D02*
D03*
Y0230386D02*
D03*
X0604199Y0283689D02*
D03*
Y0280461D02*
D03*
X0550699Y0286689D02*
D03*
Y0283461D02*
D03*
X0575699Y0308114D02*
D03*
Y0304886D02*
D03*
X0547699Y0306114D02*
D03*
Y0302886D02*
D03*
D88*
X0536427Y0256000D02*
D03*
X0539971D02*
D03*
X0542427D02*
D03*
X0545971D02*
D03*
X0605428Y0296000D02*
D03*
X0608971D02*
D03*
X0619971Y0216500D02*
D03*
X0616428D02*
D03*
D92*
X0569959Y0235000D02*
D03*
X0577439D02*
D03*
D104*
X0642699Y0293488D02*
D03*
X0655199D02*
D03*
D105*
X0642699Y0304512D02*
D03*
X0655199D02*
D03*
D115*
X0661821Y0243000D02*
D03*
X0646125D02*
D03*
X0638225D02*
D03*
X0630325D02*
D03*
X0622451D02*
D03*
X0614577D02*
D03*
X0653947D02*
D03*
X0597936Y0222000D02*
D03*
X0590062D02*
D03*
X0582162D02*
D03*
X0574262D02*
D03*
X0566388D02*
D03*
X0558514D02*
D03*
X0638099D02*
D03*
X0630199D02*
D03*
X0622325D02*
D03*
X0614451D02*
D03*
D116*
X0554199Y0403000D02*
D03*
Y0406000D02*
D03*
X0601199Y0403000D02*
D03*
Y0406000D02*
D03*
X0648199Y0403000D02*
D03*
Y0406000D02*
D03*
X0636199D02*
D03*
Y0403000D02*
D03*
X0589199Y0406000D02*
D03*
Y0403000D02*
D03*
X0542199D02*
D03*
Y0406000D02*
D03*
X0590199Y0279000D02*
D03*
X0587199D02*
D03*
X0584199D02*
D03*
X0584592Y0288200D02*
D03*
X0583699Y0284000D02*
D03*
X0579199D02*
D03*
X0589699Y0287500D02*
D03*
X0592199Y0314500D02*
D03*
X0588199Y0284000D02*
D03*
X0570165Y0287534D02*
D03*
X0571699Y0309000D02*
D03*
X0569199D02*
D03*
X0566699D02*
D03*
X0555199Y0288500D02*
D03*
Y0299500D02*
D03*
Y0302000D02*
D03*
Y0304500D02*
D03*
X0586813Y0314500D02*
D03*
X0539813D02*
D03*
X0612199Y0233614D02*
D03*
Y0230386D02*
D03*
X0557664Y0292500D02*
D03*
X0575699Y0300614D02*
D03*
X0604199Y0283689D02*
D03*
Y0280461D02*
D03*
X0607313Y0266000D02*
D03*
X0604085D02*
D03*
X0607813Y0254000D02*
D03*
X0604585D02*
D03*
X0593199Y0279000D02*
D03*
X0665199Y0288900D02*
D03*
X0648199Y0228000D02*
D03*
X0542199Y0234500D02*
D03*
X0544699D02*
D03*
X0547199D02*
D03*
X0632699Y0249000D02*
D03*
X0618199Y0250500D02*
D03*
X0539699Y0232500D02*
D03*
X0536699D02*
D03*
X0533699D02*
D03*
X0654199Y0249500D02*
D03*
X0606199Y0216000D02*
D03*
X0597699Y0238000D02*
D03*
X0600699Y0241000D02*
D03*
X0597699D02*
D03*
X0600699Y0244000D02*
D03*
X0597699D02*
D03*
X0610699Y0259500D02*
D03*
X0667199Y0260000D02*
D03*
X0664199D02*
D03*
X0661199D02*
D03*
X0658199D02*
D03*
X0648199Y0275500D02*
D03*
Y0278500D02*
D03*
Y0281500D02*
D03*
Y0284500D02*
D03*
Y0287500D02*
D03*
X0645199Y0278500D02*
D03*
Y0275500D02*
D03*
Y0281500D02*
D03*
X0630199Y0260500D02*
D03*
Y0263500D02*
D03*
Y0266500D02*
D03*
Y0269500D02*
D03*
Y0272500D02*
D03*
X0642199Y0275500D02*
D03*
X0667199Y0280000D02*
D03*
X0656699D02*
D03*
X0659699D02*
D03*
X0662699D02*
D03*
Y0283000D02*
D03*
Y0286000D02*
D03*
X0659699D02*
D03*
Y0283000D02*
D03*
X0656699Y0286000D02*
D03*
Y0283000D02*
D03*
X0653699D02*
D03*
Y0286000D02*
D03*
X0668364Y0288840D02*
D03*
X0597699Y0250000D02*
D03*
X0594699D02*
D03*
X0597699Y0247000D02*
D03*
X0600699D02*
D03*
X0593199Y0233500D02*
D03*
X0537199Y0248500D02*
D03*
X0576066Y0260866D02*
D03*
X0583699Y0263500D02*
D03*
X0591699Y0317500D02*
D03*
X0586699Y0324000D02*
D03*
X0547199Y0290000D02*
D03*
Y0287000D02*
D03*
X0564199Y0284500D02*
D03*
X0530699Y0329500D02*
D03*
X0531199Y0248228D02*
D03*
Y0256728D02*
D03*
Y0239728D02*
D03*
X0532699Y0283000D02*
D03*
X0529699D02*
D03*
X0607699Y0308500D02*
D03*
X0604699D02*
D03*
X0622199Y0306500D02*
D03*
X0545199Y0318500D02*
D03*
X0545286Y0308913D02*
D03*
X0547786Y0308913D02*
D03*
X0534199Y0307000D02*
D03*
X0576928Y0318728D02*
D03*
X0536699Y0324300D02*
D03*
X0642199Y0281500D02*
D03*
Y0287500D02*
D03*
Y0284500D02*
D03*
X0593199Y0263500D02*
D03*
X0622199Y0318500D02*
D03*
X0650199Y0334000D02*
D03*
X0655199Y0331500D02*
D03*
Y0329000D02*
D03*
X0650199Y0326500D02*
D03*
X0657699D02*
D03*
Y0329000D02*
D03*
X0655199Y0326500D02*
D03*
Y0324000D02*
D03*
X0657699D02*
D03*
X0660199D02*
D03*
Y0326500D02*
D03*
Y0329000D02*
D03*
Y0321500D02*
D03*
X0657699D02*
D03*
X0655199D02*
D03*
X0652699D02*
D03*
Y0324000D02*
D03*
Y0326500D02*
D03*
Y0329000D02*
D03*
X0650199Y0324000D02*
D03*
Y0321500D02*
D03*
Y0329000D02*
D03*
Y0331500D02*
D03*
X0652699D02*
D03*
X0657699D02*
D03*
X0660199D02*
D03*
Y0334000D02*
D03*
X0657699D02*
D03*
X0655199D02*
D03*
X0652699D02*
D03*
X0660199Y0336500D02*
D03*
X0657699D02*
D03*
X0655199D02*
D03*
X0652699D02*
D03*
X0650199D02*
D03*
X0603199D02*
D03*
X0605699D02*
D03*
X0608199D02*
D03*
X0610699D02*
D03*
X0613199D02*
D03*
X0605699Y0334000D02*
D03*
X0608199D02*
D03*
X0610699D02*
D03*
X0613199D02*
D03*
Y0331500D02*
D03*
X0610699D02*
D03*
X0605699D02*
D03*
X0603199D02*
D03*
Y0329000D02*
D03*
Y0321500D02*
D03*
Y0324000D02*
D03*
X0605699Y0329000D02*
D03*
Y0326500D02*
D03*
Y0324000D02*
D03*
Y0321500D02*
D03*
X0608199D02*
D03*
X0610699D02*
D03*
X0613199D02*
D03*
Y0329000D02*
D03*
Y0326500D02*
D03*
Y0324000D02*
D03*
X0610699D02*
D03*
X0608199D02*
D03*
Y0326500D02*
D03*
X0610699Y0329000D02*
D03*
Y0326500D02*
D03*
X0603199D02*
D03*
X0608199Y0329000D02*
D03*
Y0331500D02*
D03*
X0603199Y0334000D02*
D03*
X0556199Y0336500D02*
D03*
X0558699D02*
D03*
X0561199D02*
D03*
X0563699D02*
D03*
X0566199D02*
D03*
X0558699Y0334000D02*
D03*
X0561199D02*
D03*
X0563699D02*
D03*
X0566199D02*
D03*
Y0331500D02*
D03*
X0563699D02*
D03*
X0558699D02*
D03*
X0556199D02*
D03*
Y0329000D02*
D03*
Y0321500D02*
D03*
Y0324000D02*
D03*
X0558699Y0329000D02*
D03*
Y0326500D02*
D03*
Y0324000D02*
D03*
Y0321500D02*
D03*
X0561199D02*
D03*
X0563699D02*
D03*
X0566199D02*
D03*
Y0329000D02*
D03*
Y0326500D02*
D03*
Y0324000D02*
D03*
X0563699D02*
D03*
X0561199D02*
D03*
Y0326500D02*
D03*
X0563699Y0329000D02*
D03*
Y0326500D02*
D03*
X0556199D02*
D03*
X0561199Y0329000D02*
D03*
Y0331500D02*
D03*
X0556199Y0334000D02*
D03*
X0668699Y0390500D02*
D03*
Y0388000D02*
D03*
X0666199Y0390500D02*
D03*
Y0388000D02*
D03*
X0668699Y0385500D02*
D03*
X0663699Y0388000D02*
D03*
X0666199Y0385500D02*
D03*
X0663699Y0390500D02*
D03*
Y0385500D02*
D03*
X0632699Y0390500D02*
D03*
Y0388000D02*
D03*
X0663699Y0383000D02*
D03*
X0632699Y0385500D02*
D03*
X0668699Y0383000D02*
D03*
Y0380500D02*
D03*
X0666199Y0383000D02*
D03*
Y0380500D02*
D03*
X0668699Y0378000D02*
D03*
Y0375500D02*
D03*
X0666199Y0378000D02*
D03*
Y0375500D02*
D03*
X0663699Y0380500D02*
D03*
X0632699Y0383000D02*
D03*
Y0380500D02*
D03*
X0663699Y0378000D02*
D03*
Y0375500D02*
D03*
X0632699Y0378000D02*
D03*
X0630199Y0390500D02*
D03*
Y0388000D02*
D03*
X0627699Y0390500D02*
D03*
Y0388000D02*
D03*
X0630199Y0385500D02*
D03*
Y0383000D02*
D03*
X0627699Y0385500D02*
D03*
Y0383000D02*
D03*
X0625199Y0390500D02*
D03*
Y0388000D02*
D03*
X0620199Y0390500D02*
D03*
X0622699D02*
D03*
Y0388000D02*
D03*
X0625199Y0385500D02*
D03*
X0620199D02*
D03*
X0622699D02*
D03*
X0627699Y0380500D02*
D03*
X0630199D02*
D03*
X0625199Y0383000D02*
D03*
Y0380500D02*
D03*
X0627699Y0378000D02*
D03*
X0630199D02*
D03*
X0625199D02*
D03*
Y0375500D02*
D03*
X0622699Y0383000D02*
D03*
Y0380500D02*
D03*
X0620199Y0383000D02*
D03*
Y0380500D02*
D03*
X0622699Y0378000D02*
D03*
Y0375500D02*
D03*
X0620199Y0378000D02*
D03*
X0668699Y0310500D02*
D03*
X0665699D02*
D03*
Y0301500D02*
D03*
X0632699Y0375500D02*
D03*
X0630199D02*
D03*
Y0373000D02*
D03*
X0632699D02*
D03*
X0627699Y0375500D02*
D03*
Y0373000D02*
D03*
X0620199Y0375500D02*
D03*
X0625199Y0373000D02*
D03*
X0622699D02*
D03*
X0662699Y0310500D02*
D03*
Y0307500D02*
D03*
Y0304500D02*
D03*
Y0301500D02*
D03*
X0617699Y0390500D02*
D03*
X0620199Y0388000D02*
D03*
X0585699Y0390500D02*
D03*
X0617699Y0388000D02*
D03*
X0585699D02*
D03*
Y0385500D02*
D03*
X0580699Y0390500D02*
D03*
X0583199D02*
D03*
X0575699D02*
D03*
X0578199D02*
D03*
X0580699Y0388000D02*
D03*
X0583199D02*
D03*
X0575699D02*
D03*
X0578199D02*
D03*
X0617699Y0385500D02*
D03*
Y0383000D02*
D03*
X0580699Y0385500D02*
D03*
X0583199D02*
D03*
X0585699Y0383000D02*
D03*
X0617699Y0380500D02*
D03*
X0583199Y0383000D02*
D03*
Y0380500D02*
D03*
X0578199Y0383000D02*
D03*
X0580699D02*
D03*
X0575699Y0385500D02*
D03*
X0578199D02*
D03*
X0575699Y0380500D02*
D03*
X0578199D02*
D03*
X0575699Y0383000D02*
D03*
X0570699Y0390500D02*
D03*
X0573199D02*
D03*
X0536699D02*
D03*
X0539199D02*
D03*
X0573199Y0388000D02*
D03*
X0539199D02*
D03*
X0570699D02*
D03*
X0534199Y0390500D02*
D03*
X0536699Y0388000D02*
D03*
X0534199D02*
D03*
X0570699Y0385500D02*
D03*
X0573199D02*
D03*
X0539199D02*
D03*
X0570699Y0383000D02*
D03*
X0573199D02*
D03*
X0570699Y0380500D02*
D03*
X0539199Y0383000D02*
D03*
Y0380500D02*
D03*
X0536699Y0385500D02*
D03*
Y0383000D02*
D03*
X0534199Y0385500D02*
D03*
X0531699Y0383000D02*
D03*
X0534199D02*
D03*
X0531699Y0380500D02*
D03*
X0617699Y0375500D02*
D03*
Y0378000D02*
D03*
X0585699Y0380500D02*
D03*
Y0378000D02*
D03*
X0580699D02*
D03*
X0583199D02*
D03*
X0573199Y0380500D02*
D03*
X0580699D02*
D03*
X0573199Y0378000D02*
D03*
X0570699D02*
D03*
X0534199Y0380500D02*
D03*
X0536699D02*
D03*
X0531699Y0378000D02*
D03*
X0534199D02*
D03*
X0575699D02*
D03*
X0578199D02*
D03*
X0570699Y0375500D02*
D03*
X0573199D02*
D03*
X0539199Y0378000D02*
D03*
Y0375500D02*
D03*
X0536699Y0378000D02*
D03*
Y0375500D02*
D03*
X0534199D02*
D03*
X0531699D02*
D03*
X0605428Y0296000D02*
D03*
X0639199Y0272500D02*
D03*
X0636199D02*
D03*
X0639199Y0269500D02*
D03*
Y0266500D02*
D03*
Y0260500D02*
D03*
Y0263500D02*
D03*
X0636199Y0266500D02*
D03*
Y0269500D02*
D03*
Y0260500D02*
D03*
Y0263642D02*
D03*
X0633199Y0272500D02*
D03*
Y0269500D02*
D03*
Y0266500D02*
D03*
Y0260500D02*
D03*
Y0263500D02*
D03*
X0659699Y0347500D02*
D03*
X0657199D02*
D03*
X0652199D02*
D03*
X0654699D02*
D03*
X0659699Y0342500D02*
D03*
X0649699Y0347500D02*
D03*
X0659699Y0345000D02*
D03*
X0634199D02*
D03*
Y0342500D02*
D03*
X0645199Y0293500D02*
D03*
X0642199D02*
D03*
X0636199D02*
D03*
X0639199D02*
D03*
X0626699Y0365000D02*
D03*
Y0367500D02*
D03*
X0624199D02*
D03*
Y0365000D02*
D03*
X0612699Y0347500D02*
D03*
X0631699Y0345000D02*
D03*
X0607699Y0347500D02*
D03*
X0610199D02*
D03*
X0605199D02*
D03*
X0602699D02*
D03*
X0631699Y0342500D02*
D03*
X0629199Y0345000D02*
D03*
X0612699Y0342500D02*
D03*
X0629199D02*
D03*
X0612699Y0345000D02*
D03*
X0642199Y0290500D02*
D03*
X0645199D02*
D03*
X0639199Y0287500D02*
D03*
Y0290500D02*
D03*
Y0284500D02*
D03*
X0636199Y0290500D02*
D03*
Y0287500D02*
D03*
X0633199Y0290500D02*
D03*
Y0287500D02*
D03*
X0645199Y0284500D02*
D03*
X0633199D02*
D03*
X0639199Y0281500D02*
D03*
X0636199Y0284500D02*
D03*
X0639199Y0278500D02*
D03*
X0633199Y0281500D02*
D03*
X0636199D02*
D03*
Y0278500D02*
D03*
Y0275500D02*
D03*
X0645199Y0287500D02*
D03*
X0633199Y0278500D02*
D03*
X0639199Y0275500D02*
D03*
X0642199Y0278500D02*
D03*
X0633199Y0275500D02*
D03*
X0579699Y0365000D02*
D03*
Y0367500D02*
D03*
Y0372500D02*
D03*
Y0370000D02*
D03*
X0587199Y0345000D02*
D03*
X0584699D02*
D03*
Y0342500D02*
D03*
X0582199Y0345000D02*
D03*
X0577199Y0370000D02*
D03*
Y0372500D02*
D03*
Y0367500D02*
D03*
Y0365000D02*
D03*
X0587199Y0342500D02*
D03*
X0582199D02*
D03*
X0565699D02*
D03*
X0560699Y0347500D02*
D03*
X0563199D02*
D03*
X0565699D02*
D03*
X0558199D02*
D03*
X0565699Y0345000D02*
D03*
X0555699Y0347500D02*
D03*
X0540199Y0345000D02*
D03*
X0537699D02*
D03*
X0535199D02*
D03*
X0540199Y0342500D02*
D03*
X0537699D02*
D03*
X0535199D02*
D03*
X0584199Y0233500D02*
D03*
X0534199Y0299000D02*
D03*
Y0288200D02*
D03*
X0637199Y0306500D02*
D03*
X0634199D02*
D03*
X0631199D02*
D03*
X0628199D02*
D03*
X0625199D02*
D03*
X0637199Y0303500D02*
D03*
X0631199D02*
D03*
X0634199D02*
D03*
X0628199D02*
D03*
X0625199D02*
D03*
X0622199D02*
D03*
X0625199Y0297500D02*
D03*
X0622199Y0300500D02*
D03*
Y0297500D02*
D03*
X0619199Y0306500D02*
D03*
X0616199D02*
D03*
X0619199Y0303500D02*
D03*
Y0300500D02*
D03*
Y0297500D02*
D03*
X0616199Y0303500D02*
D03*
Y0300500D02*
D03*
X0613199Y0303500D02*
D03*
Y0297500D02*
D03*
Y0300500D02*
D03*
X0624199Y0293500D02*
D03*
X0610699Y0308500D02*
D03*
Y0254000D02*
D03*
X0631199Y0295000D02*
D03*
X0596699Y0298500D02*
D03*
Y0301500D02*
D03*
Y0304500D02*
D03*
X0586699Y0330500D02*
D03*
X0585199Y0297500D02*
D03*
Y0300500D02*
D03*
X0530199Y0325728D02*
D03*
X0539699Y0330500D02*
D03*
X0577699Y0329500D02*
D03*
X0624699D02*
D03*
X0624199Y0362500D02*
D03*
X0626699D02*
D03*
X0624199Y0360000D02*
D03*
Y0357500D02*
D03*
X0621699Y0362500D02*
D03*
Y0360000D02*
D03*
Y0357500D02*
D03*
X0577199Y0362500D02*
D03*
X0579699D02*
D03*
X0574699D02*
D03*
Y0360000D02*
D03*
X0577199D02*
D03*
X0635699Y0349000D02*
D03*
Y0351500D02*
D03*
X0638199Y0349000D02*
D03*
X0541699D02*
D03*
X0588699D02*
D03*
Y0351500D02*
D03*
X0541699D02*
D03*
X0591199Y0349000D02*
D03*
X0582199Y0362500D02*
D03*
X0544199Y0349000D02*
D03*
X0593955Y0354000D02*
D03*
X0546955D02*
D03*
X0640955D02*
D03*
X0629199Y0362500D02*
D03*
X0591199Y0323500D02*
D03*
X0562699Y0232000D02*
D03*
Y0234500D02*
D03*
X0570199Y0242000D02*
D03*
X0573199D02*
D03*
X0572199Y0230500D02*
D03*
X0575199D02*
D03*
X0578199D02*
D03*
X0581199D02*
D03*
Y0233500D02*
D03*
X0578199D02*
D03*
X0575199D02*
D03*
Y0236500D02*
D03*
X0594699Y0247000D02*
D03*
X0584199Y0236500D02*
D03*
Y0239500D02*
D03*
Y0242500D02*
D03*
X0587199D02*
D03*
Y0239500D02*
D03*
Y0236500D02*
D03*
Y0233500D02*
D03*
X0590199D02*
D03*
Y0236500D02*
D03*
Y0239500D02*
D03*
Y0242500D02*
D03*
X0604199Y0290272D02*
D03*
X0621199Y0285500D02*
D03*
X0624199D02*
D03*
X0627199Y0266500D02*
D03*
Y0263500D02*
D03*
X0642199Y0260500D02*
D03*
X0624199Y0275500D02*
D03*
X0621199D02*
D03*
X0618199D02*
D03*
X0613140Y0288347D02*
D03*
X0609546Y0283559D02*
D03*
X0624199Y0266500D02*
D03*
X0569199Y0230500D02*
D03*
X0603699Y0224500D02*
D03*
X0600699Y0238000D02*
D03*
Y0232000D02*
D03*
X0654443Y0309500D02*
D03*
X0556199Y0245000D02*
D03*
X0553199D02*
D03*
X0550199D02*
D03*
X0547199D02*
D03*
X0544199D02*
D03*
Y0242000D02*
D03*
X0547199D02*
D03*
X0550199D02*
D03*
Y0239000D02*
D03*
X0547199D02*
D03*
X0544199D02*
D03*
X0567699Y0262000D02*
D03*
X0565099D02*
D03*
X0560199Y0247500D02*
D03*
X0593199Y0272000D02*
D03*
X0657168Y0295532D02*
D03*
X0653231D02*
D03*
X0657168Y0299468D02*
D03*
X0653231D02*
D03*
D117*
X0625699Y0271100D02*
D03*
X0629499Y0279437D02*
D03*
X0621959D02*
D03*
D118*
X0564504Y0326236D02*
D03*
Y0345764D02*
D03*
X0611504D02*
D03*
Y0326236D02*
D03*
X0658504D02*
D03*
Y0345764D02*
D03*
D119*
X0548224D02*
D03*
Y0326236D02*
D03*
X0595224D02*
D03*
Y0345764D02*
D03*
X0642224D02*
D03*
Y0326236D02*
D03*
D120*
X0641199Y0283858D02*
D03*
Y0266142D02*
D03*
D121*
X0581325Y0242000D02*
D03*
X0572073D02*
D03*
X0543325Y0307000D02*
D03*
X0534073D02*
D03*
X0631325Y0285500D02*
D03*
X0622073D02*
D03*
X0581073Y0234000D02*
D03*
X0590325D02*
D03*
D122*
X0545093Y0261734D02*
D03*
X0539385D02*
D03*
X0545093Y0282206D02*
D03*
X0539385D02*
D03*
D123*
X0655199Y0382130D02*
D03*
Y0360870D02*
D03*
X0608199Y0382130D02*
D03*
Y0360870D02*
D03*
X0561199Y0382130D02*
D03*
Y0360870D02*
D03*
D124*
X0667199Y0264549D02*
D03*
X0662199D02*
D03*
X0657199D02*
D03*
X0652199D02*
D03*
X0667199Y0284451D02*
D03*
X0662199D02*
D03*
X0657199D02*
D03*
X0652199D02*
D03*
D125*
X0665699Y0305811D02*
D03*
Y0294787D02*
D03*
D126*
X0609546Y0278441D02*
D03*
Y0283559D02*
D03*
X0617853Y0281000D02*
D03*
D127*
X0615699Y0296654D02*
D03*
X0613140Y0288347D02*
D03*
X0618258D02*
D03*
D128*
X0542199Y0364039D02*
D03*
Y0380968D02*
D03*
D129*
X0648302Y0404500D02*
D03*
X0636097D02*
D03*
X0601301D02*
D03*
X0589097D02*
D03*
X0554302D02*
D03*
X0542097D02*
D03*
D130*
X0588839Y0319929D02*
D03*
X0586279D02*
D03*
X0583720D02*
D03*
X0581161D02*
D03*
X0588839Y0336071D02*
D03*
X0586279D02*
D03*
X0583720D02*
D03*
X0581161D02*
D03*
X0541839Y0319929D02*
D03*
X0539280D02*
D03*
X0536721D02*
D03*
X0534161D02*
D03*
X0541839Y0336071D02*
D03*
X0539280D02*
D03*
X0536721D02*
D03*
X0534161D02*
D03*
X0635839Y0319929D02*
D03*
X0633280D02*
D03*
X0630721D02*
D03*
X0628161D02*
D03*
X0635839Y0336071D02*
D03*
X0633280D02*
D03*
X0630721D02*
D03*
X0628161D02*
D03*
D131*
X0616581Y0235839D02*
D03*
X0626817D02*
D03*
Y0228161D02*
D03*
Y0230720D02*
D03*
Y0233279D02*
D03*
X0616581D02*
D03*
Y0230720D02*
D03*
Y0228161D02*
D03*
D132*
X0569849Y0300750D02*
D03*
X0553549D02*
D03*
Y0310250D02*
D03*
X0569849D02*
D03*
D133*
X0562435Y0292252D02*
D03*
X0564404D02*
D03*
X0566372D02*
D03*
X0568341D02*
D03*
X0570309D02*
D03*
X0572278D02*
D03*
X0574246D02*
D03*
X0576215D02*
D03*
X0578183D02*
D03*
X0580152D02*
D03*
X0582120D02*
D03*
X0584089D02*
D03*
X0586057D02*
D03*
X0588026D02*
D03*
X0589994D02*
D03*
X0591963D02*
D03*
Y0248748D02*
D03*
X0589994D02*
D03*
X0588026D02*
D03*
X0586057D02*
D03*
X0584089D02*
D03*
X0582120D02*
D03*
X0580152D02*
D03*
X0578183D02*
D03*
X0576215D02*
D03*
X0574246D02*
D03*
X0572278D02*
D03*
X0570309D02*
D03*
X0568341D02*
D03*
X0566372D02*
D03*
X0564404D02*
D03*
X0562435D02*
D03*
D134*
X0598951Y0285264D02*
D03*
Y0283295D02*
D03*
Y0281327D02*
D03*
Y0279358D02*
D03*
Y0277390D02*
D03*
Y0275421D02*
D03*
Y0273453D02*
D03*
Y0271484D02*
D03*
Y0269516D02*
D03*
Y0267547D02*
D03*
Y0265579D02*
D03*
Y0263610D02*
D03*
Y0261642D02*
D03*
Y0259673D02*
D03*
Y0257705D02*
D03*
Y0255736D02*
D03*
X0555447D02*
D03*
Y0257705D02*
D03*
Y0259673D02*
D03*
Y0261642D02*
D03*
Y0263610D02*
D03*
Y0265579D02*
D03*
Y0267547D02*
D03*
Y0269516D02*
D03*
Y0271484D02*
D03*
Y0273453D02*
D03*
Y0275421D02*
D03*
Y0277390D02*
D03*
Y0279358D02*
D03*
Y0281327D02*
D03*
Y0283295D02*
D03*
Y0285264D02*
D03*
D135*
X0543687Y0240500D02*
D03*
X0554711D02*
D03*
Y0233000D02*
D03*
X0543687D02*
D03*
D136*
X0531199Y0262437D02*
D03*
Y0256532D02*
D03*
D137*
X0562699Y0234000D02*
D03*
D138*
X0558860Y0236559D02*
D03*
Y0234000D02*
D03*
Y0231441D02*
D03*
X0566538D02*
D03*
Y0234000D02*
D03*
Y0236559D02*
D03*
D139*
X0659699Y0271750D02*
D03*
D140*
X0530499Y0359000D02*
D03*
Y0388528D02*
D03*
M02*
